<svg width="207" height="234" viewBox="0 0 207 234" fill="none" xmlns="http://www.w3.org/2000/svg">
<path fill-rule="evenodd" clip-rule="evenodd" d="M92.2911 50.8066C94.7588 50.8066 97.2038 50.9028 99.6227 51.0914L96.4827 61.0574C95.4772 64.2488 96.3923 67.7375 98.8317 70.0215L98.855 70.0432L98.9018 70.0867L99.0584 70.2312C99.1904 70.3524 99.3769 70.5225 99.6139 70.7357C100.088 71.1619 100.765 71.7618 101.613 72.4887C103.305 73.9386 105.701 75.9139 108.537 78.032C114.019 82.1262 121.882 87.3168 129.788 89.8222C137.695 92.3277 147.104 92.6104 153.936 92.4187C157.471 92.3196 160.564 92.0835 162.779 91.8718C163.89 91.7657 164.788 91.6649 165.42 91.5891C165.736 91.5512 165.986 91.5195 166.163 91.4963L166.374 91.4683L166.437 91.4596L166.472 91.4549C167.214 91.3507 167.929 91.1523 168.602 90.8712C171.02 94.3918 173.198 98.0884 175.111 101.938C171.54 104.719 169.253 109.003 169.253 113.809C169.253 116.968 170.244 119.903 171.933 122.33C171.441 123.841 170.875 125.412 170.259 127.12L170.108 127.54C168.253 132.678 165.915 139.154 165.808 145.898C165.749 147.41 165.925 148.937 166.341 150.406C166.768 151.915 167.455 153.385 168.418 154.708L168.504 154.827L168.596 154.943C170.044 156.76 172.093 157.969 174.5 158.236C175.433 158.34 176.323 158.275 176.994 158.18L177.021 158.199C177.594 158.591 178.601 159.281 179.708 159.828C180.441 160.19 181.465 160.62 182.708 160.859C174.104 202.601 136.892 234 92.2911 234C41.3201 234 0 192.991 0 142.403C0 91.8159 41.3201 50.8066 92.2911 50.8066Z" fill="#1A4049"/>
<path d="M79.105 103.146H52.7361V181.658H131.843V103.146H105.474V155.488H79.105V103.146Z" fill="white"/>
<path d="M105.475 155.486H131.844V181.657H105.475V155.486Z" fill="#817AFE"/>
<path d="M112.589 63.7807L120.756 37.8594L123.341 29.6549C123.528 29.0611 124.206 28.7816 124.758 29.0713L175.815 55.8902C176.248 56.1175 176.453 56.6243 176.301 57.0887L167.711 83.3295C167.594 83.6876 167.297 83.9471 166.923 83.9968C163.773 84.4169 148.812 86.1438 137.954 82.7031C126.987 79.2279 115.092 67.148 112.806 64.7493C112.559 64.4897 112.481 64.1225 112.589 63.7807Z" fill="#817AFE"/>
<path d="M101.441 26.3178C100.71 25.697 101.183 24.5025 102.14 24.5556L154.076 27.4402C154.271 27.451 154.458 27.5184 154.615 27.6343L195.726 57.9952C196.503 58.5687 196.1 59.801 195.136 59.801L141.256 59.8013C141.019 59.8013 140.79 59.717 140.609 59.5635L101.441 26.3178Z" fill="#817AFE"/>
<path d="M102.608 65.057L110.404 40.3105L139.126 60.6194L174.269 60.5488L166.472 85.2953C166.472 85.2953 145.46 88.2427 131.788 83.9102C118.116 79.5777 102.608 65.057 102.608 65.057Z" stroke="#1A4049" stroke-width="4" stroke-linejoin="round"/>
<path d="M89.4748 25.6754L150.137 25.6866L199.788 60.6325L139.13 60.6234L89.4748 25.6754Z" stroke="#1A4049" stroke-width="4" stroke-linejoin="round"/>
<path d="M184.906 65.2354L184.919 114.504" stroke="white" stroke-width="4" stroke-linejoin="round"/>
<path d="M184.901 59.7994L184.902 108.456" stroke="#1A4049" stroke-width="4" stroke-linejoin="round"/>
<mask id="path-10-outside-1_21817_250921" maskUnits="userSpaceOnUse" x="170.218" y="103.386" width="30.0217" height="53.0457" fill="black">
<rect fill="white" x="170.218" y="103.386" width="30.0217" height="53.0457"/>
<path fill-rule="evenodd" clip-rule="evenodd" d="M189.727 120.933C191.427 119.533 192.511 117.409 192.511 115.031C192.511 110.815 189.104 107.398 184.9 107.398C180.697 107.398 177.289 110.815 177.289 115.031C177.289 117.433 178.396 119.577 180.126 120.976C180.127 121.804 179.994 122.629 179.73 123.397C179.176 125.272 178.507 127.177 177.83 129.106C176.099 134.038 174.314 139.122 174.252 144.244C174.216 145.019 174.302 145.795 174.503 146.528C174.705 147.26 175.02 147.935 175.428 148.511C176.113 149.395 176.876 149.221 177.7 149.032C178.354 148.883 179.047 148.725 179.769 149.08C180.317 149.349 180.878 149.743 181.447 150.142C182.576 150.935 183.738 151.751 184.9 151.67C186.071 151.763 187.243 150.948 188.381 150.157C188.948 149.762 189.507 149.373 190.053 149.106C190.778 148.751 191.472 148.905 192.127 149.051C192.956 149.235 193.723 149.405 194.41 148.511C195.207 147.352 195.615 145.843 195.548 144.305C195.484 139.236 193.728 134.203 192.023 129.315C191.341 127.36 190.667 125.428 190.113 123.526C189.834 122.704 189.704 121.818 189.727 120.933Z"/>
</mask>
<path fill-rule="evenodd" clip-rule="evenodd" d="M189.727 120.933C191.427 119.533 192.511 117.409 192.511 115.031C192.511 110.815 189.104 107.398 184.9 107.398C180.697 107.398 177.289 110.815 177.289 115.031C177.289 117.433 178.396 119.577 180.126 120.976C180.127 121.804 179.994 122.629 179.73 123.397C179.176 125.272 178.507 127.177 177.83 129.106C176.099 134.038 174.314 139.122 174.252 144.244C174.216 145.019 174.302 145.795 174.503 146.528C174.705 147.26 175.02 147.935 175.428 148.511C176.113 149.395 176.876 149.221 177.7 149.032C178.354 148.883 179.047 148.725 179.769 149.08C180.317 149.349 180.878 149.743 181.447 150.142C182.576 150.935 183.738 151.751 184.9 151.67C186.071 151.763 187.243 150.948 188.381 150.157C188.948 149.762 189.507 149.373 190.053 149.106C190.778 148.751 191.472 148.905 192.127 149.051C192.956 149.235 193.723 149.405 194.41 148.511C195.207 147.352 195.615 145.843 195.548 144.305C195.484 139.236 193.728 134.203 192.023 129.315C191.341 127.36 190.667 125.428 190.113 123.526C189.834 122.704 189.704 121.818 189.727 120.933Z" fill="#817AFE"/>
<path d="M192.511 115.031L196.509 115.036L196.509 115.036L192.511 115.031ZM189.727 120.933L187.184 117.841L185.777 119L185.73 120.824L189.727 120.933ZM184.9 107.398L184.895 103.396L184.895 103.396L184.9 107.398ZM177.289 115.031L173.291 115.026V115.026L177.289 115.031ZM180.126 120.976L184.124 120.973L184.12 119.065L182.636 117.864L180.126 120.976ZM179.73 123.397L175.95 122.091L175.921 122.173L175.897 122.257L179.73 123.397ZM177.83 129.106L181.603 130.437L181.603 130.437L177.83 129.106ZM174.252 144.244L178.246 144.436L178.249 144.367L178.25 144.298L174.252 144.244ZM174.503 146.528L178.358 145.469L174.503 146.528ZM175.428 148.511L172.168 150.823L172.218 150.894L172.271 150.962L175.428 148.511ZM177.7 149.032L178.595 152.934L178.595 152.934L177.7 149.032ZM179.769 149.08L181.528 145.488L181.528 145.488L179.769 149.08ZM181.447 150.142L183.74 146.867L183.74 146.867L181.447 150.142ZM184.9 151.67L185.212 147.68L184.914 147.657L184.617 147.677L184.9 151.67ZM188.381 150.157L190.665 153.444L190.665 153.444L188.381 150.157ZM190.053 149.106L191.813 152.702L191.813 152.702L190.053 149.106ZM192.127 149.051L192.988 145.144L192.988 145.144L192.127 149.051ZM194.41 148.511L197.581 150.953L197.645 150.87L197.704 150.784L194.41 148.511ZM195.548 144.305L191.55 144.351L191.551 144.413L191.554 144.475L195.548 144.305ZM192.023 129.315L188.249 130.63L188.249 130.63L192.023 129.315ZM190.113 123.526L193.951 122.41L193.927 122.327L193.899 122.246L190.113 123.526ZM188.513 115.026C188.513 116.159 188.001 117.168 187.184 117.841L192.27 124.025C194.852 121.898 196.509 118.659 196.509 115.036L188.513 115.026ZM184.906 111.4C186.891 111.4 188.513 113.015 188.513 115.026L196.509 115.036C196.509 108.616 191.316 103.396 184.895 103.396L184.906 111.4ZM181.287 115.036C181.287 113.022 182.915 111.4 184.906 111.4L184.895 103.396C178.478 103.396 173.291 108.609 173.291 115.026L181.287 115.036ZM182.636 117.864C181.808 117.195 181.287 116.18 181.287 115.036L173.291 115.026C173.291 118.687 174.983 121.958 177.616 124.087L182.636 117.864ZM176.128 120.979C176.129 121.378 176.063 121.759 175.95 122.091L183.511 124.703C183.925 123.499 184.126 122.23 184.124 120.973L176.128 120.979ZM175.897 122.257C175.376 124.019 174.742 125.828 174.058 127.775L181.603 130.437C182.273 128.527 182.977 126.525 183.564 124.537L175.897 122.257ZM174.058 127.775C172.373 132.576 170.326 138.294 170.255 144.19L178.25 144.298C178.303 139.95 179.826 135.499 181.603 130.437L174.058 127.775ZM170.259 144.052C170.203 145.239 170.333 146.438 170.649 147.587L178.358 145.469C178.27 145.152 178.229 144.798 178.246 144.436L170.259 144.052ZM170.649 147.587C170.965 148.734 171.47 149.839 172.168 150.823L178.688 146.2C178.569 146.03 178.445 145.786 178.358 145.469L170.649 147.587ZM172.271 150.962C173.226 152.195 174.538 152.975 176.064 153.15C177.247 153.285 178.341 152.992 178.595 152.934L176.806 145.131C176.696 145.156 176.632 145.17 176.575 145.182C176.521 145.193 176.504 145.196 176.51 145.195C176.514 145.194 176.69 145.167 176.96 145.198C177.26 145.232 177.614 145.331 177.959 145.531C178.293 145.725 178.493 145.942 178.585 146.06L172.271 150.962ZM178.595 152.934C178.773 152.893 178.849 152.877 178.911 152.866C178.963 152.856 178.942 152.863 178.875 152.866C178.802 152.869 178.674 152.867 178.51 152.837C178.342 152.805 178.171 152.75 178.011 152.672L181.528 145.488C179.366 144.426 177.306 145.016 176.806 145.131L178.595 152.934ZM178.011 152.672C178.225 152.777 178.519 152.972 179.155 153.418L183.74 146.867C183.236 146.513 182.409 145.921 181.528 145.488L178.011 152.672ZM179.155 153.418C179.667 153.777 180.478 154.356 181.356 154.802C182.245 155.253 183.582 155.773 185.183 155.662L184.617 147.677C185.056 147.647 185.231 147.8 184.966 147.665C184.852 147.607 184.697 147.517 184.481 147.376C184.261 147.232 184.032 147.072 183.74 146.867L179.155 153.418ZM184.588 155.659C186.198 155.787 187.547 155.274 188.444 154.825C189.33 154.382 190.149 153.803 190.665 153.444L186.096 146.869C185.802 147.074 185.571 147.234 185.349 147.377C185.131 147.518 184.975 147.608 184.861 147.665C184.596 147.798 184.772 147.645 185.212 147.68L184.588 155.659ZM190.665 153.444C191.297 153.005 191.594 152.809 191.813 152.702L188.293 145.51C187.42 145.938 186.599 146.519 186.096 146.869L190.665 153.444ZM191.813 152.702C191.658 152.777 191.493 152.831 191.33 152.861C191.171 152.891 191.048 152.893 190.978 152.89C190.914 152.888 190.894 152.882 190.948 152.891C191.011 152.902 191.088 152.918 191.266 152.958L192.988 145.144C192.48 145.031 190.436 144.461 188.293 145.51L191.813 152.702ZM191.266 152.958C191.523 153.015 192.621 153.302 193.807 153.158C195.333 152.974 196.635 152.185 197.581 150.953L191.239 146.07C191.326 145.956 191.52 145.743 191.848 145.549C192.188 145.349 192.538 145.249 192.836 145.213C193.106 145.18 193.282 145.206 193.285 145.207C193.291 145.208 193.274 145.205 193.22 145.195C193.163 145.183 193.098 145.169 192.988 145.144L191.266 152.958ZM197.704 150.784C199.04 148.841 199.644 146.456 199.542 144.135L191.554 144.475C191.587 145.229 191.374 145.863 191.116 146.239L197.704 150.784ZM199.546 144.26C199.472 138.422 197.457 132.759 195.797 128L188.249 130.63C189.998 135.646 191.496 140.05 191.55 144.351L199.546 144.26ZM195.797 128C195.109 126.026 194.471 124.194 193.951 122.41L186.275 124.642C186.863 126.662 187.573 128.693 188.249 130.63L195.797 128ZM193.899 122.246C193.777 121.887 193.713 121.473 193.724 121.042L185.73 120.824C185.696 122.163 185.891 123.52 186.327 124.806L193.899 122.246Z" fill="#1A4049" mask="url(#path-10-outside-1_21817_250921)"/>
</svg>
