<svg width="554" height="282" viewBox="0 0 554 282" fill="none" xmlns="http://www.w3.org/2000/svg">
<g opacity="0.1">
<path d="M502.377 16.1992H471.798V41.1588H502.377V16.1992Z" fill="#817AFE"/>
<path d="M563.54 1.79883H532.96V26.7585H563.54V1.79883Z" fill="#817AFE"/>
<path d="M288.323 41.1602H257.743V66.1198H288.323V41.1602Z" fill="#817AFE"/>
<path d="M318.899 16.1992H288.32V41.1588H318.899V16.1992Z" fill="#817AFE"/>
<path d="M349.485 16.1992H318.906V41.1588H349.485V16.1992Z" fill="#817AFE"/>
<path d="M380.062 41.1602H349.482V66.1198H380.062V41.1602Z" fill="#817AFE"/>
<path d="M471.796 41.1602H441.217V66.1198H471.796V41.1602Z" fill="#817AFE"/>
<path d="M563.54 26.7598H532.96V51.7194H563.54V26.7598Z" fill="#817AFE"/>
<path d="M318.899 66.1172H288.32V91.0768H318.899V66.1172Z" fill="#817AFE"/>
<path d="M349.485 66.1172H318.906V91.0768H349.485V66.1172Z" fill="#817AFE"/>
<path d="M471.796 66.1172H441.217V91.0768H471.796V66.1172Z" fill="#817AFE"/>
<path d="M502.377 66.1172H471.798V91.0768H502.377V66.1172Z" fill="#817AFE"/>
<path d="M532.959 66.1172H502.379V91.0768H532.959V66.1172Z" fill="#817AFE"/>
<path d="M318.899 91.0762H288.32V116.036H318.899V91.0762Z" fill="#817AFE"/>
<path d="M349.485 91.0762H318.906V116.036H349.485V91.0762Z" fill="#817AFE"/>
<path d="M441.219 91.0762H410.64V116.036H441.219V91.0762Z" fill="#817AFE"/>
<path d="M288.323 116.037H257.743V140.997H288.323V116.037Z" fill="#817AFE"/>
<path d="M380.062 116.037H349.482V140.997H380.062V116.037Z" fill="#817AFE"/>
<path d="M532.959 116.037H502.379V140.997H532.959V116.037Z" fill="#817AFE"/>
<path d="M563.539 116.037H532.96V140.997H563.539V116.037Z" fill="#817AFE"/>
<path d="M288.323 140.996H257.743V165.956H288.323V140.996Z" fill="#817AFE"/>
<path d="M349.485 140.996H318.906V165.956H349.485V140.996Z" fill="#817AFE"/>
<path d="M380.062 140.996H349.482V165.956H380.062V140.996Z" fill="#817AFE"/>
<path d="M502.377 140.996H471.798V165.956H502.377V140.996Z" fill="#817AFE"/>
<path d="M563.562 140.998H532.688V170.998H563.562V140.998Z" fill="#817AFE"/>
<path d="M318.899 165.957H288.32V190.917H318.899V165.957Z" fill="#817AFE"/>
<path d="M441.219 165.957H410.64V190.917H441.219V165.957Z" fill="#817AFE"/>
<path d="M471.796 165.957H441.217V190.917H471.796V165.957Z" fill="#817AFE"/>
<path d="M441.219 190.918H410.64V215.878H441.219V190.918Z" fill="#817AFE"/>
<path d="M532.959 190.918H502.379V215.878H532.959V190.918Z" fill="#817AFE"/>
<path d="M410.643 215.875H380.063V240.835H410.643V215.875Z" fill="#817AFE"/>
<path d="M532.959 215.875H502.379V240.835H532.959V215.875Z" fill="#817AFE"/>
<path d="M288.323 240.836H257.743V265.796H288.323V240.836Z" fill="#817AFE"/>
<path d="M380.062 240.836H349.482V265.796H380.062V240.836Z" fill="#817AFE"/>
<path d="M410.643 240.836H380.063V265.796H410.643V240.836Z" fill="#817AFE"/>
<path d="M441.219 240.836H410.64V265.796H441.219V240.836Z" fill="#817AFE"/>
<path d="M441.219 66.1172H410.64V91.0768H441.219V66.1172Z" fill="#817AFE"/>
</g>
<g opacity="0.1">
<path d="M134.973 41.9219H159.526V62.8018H134.973V41.9219Z" fill="#817AFE"/>
<path d="M1.92756 68.6934H26.4806V89.5733H1.92756V68.6934Z" fill="#817AFE"/>
<path d="M206.327 60.5996H231.32V80.9996H206.327V60.5996Z" fill="#817AFE"/>
<path d="M181.333 60.5996H206.326V80.9996H181.333V60.5996Z" fill="#817AFE"/>
<path d="M156.339 81H181.332V101.4H156.339V81Z" fill="#817AFE"/>
<path d="M64.6746 92.6055H89.2277V113.485H64.6746V92.6055Z" fill="#817AFE"/>
<path d="M64.6746 15.8066H89.2277V36.6866H64.6746V15.8066Z" fill="#817AFE"/>
<path d="M233.19 95.6387H257.743V116.519H233.19V95.6387Z" fill="#817AFE"/>
<path d="M233.19 179.16H257.743V200.04H233.19V179.16Z" fill="#817AFE"/>
<path d="M61.3184 191.117H85.8715V211.997H61.3184V191.117Z" fill="#817AFE"/>
<path d="M12.2073 164.348H36.7604V185.228H12.2073V164.348Z" fill="#817AFE"/>
<path d="M0.446604 245.945H24.9996V266.825H0.446604V245.945Z" fill="#817AFE"/>
<path d="M141.906 137.398H166.459V158.278H141.906V137.398Z" fill="#817AFE"/>
<path d="M184.286 221.398H209.279V241.798H184.286V221.398Z" fill="#817AFE"/>
<path d="M184.417 201H209.41V221.4H184.417V201Z" fill="#817AFE"/>
<path d="M208.637 116.52H233.19V137.4H208.637V116.52Z" fill="#817AFE"/>
<path d="M89.2323 113.484H113.785V134.364H89.2323V113.484Z" fill="#817AFE"/>
<path d="M233.19 21H257.743V41.88H233.19V21Z" fill="#817AFE"/>
<path d="M166.459 137.398H191.012V158.278H166.459V137.398Z" fill="#817AFE"/>
<path d="M134.973 179.16H159.526V200.04H134.973V179.16Z" fill="#817AFE"/>
</g>
</svg>
