<svg xmlns="http://www.w3.org/2000/svg" width="18" height="18" viewBox="0 0 18 18" fill="none">
  <path fill-rule="evenodd" clip-rule="evenodd" d="M7.00003 1.5C6.80284 1.50018 6.60762 1.53913 6.42551 1.61462C6.2434 1.69011 6.07798 1.80066 5.93869 1.93996C5.7994 2.07927 5.68896 2.24459 5.6137 2.42649C5.53843 2.60839 5.4998 2.80331 5.50002 3.00011C5.49984 3.19688 5.53849 3.39177 5.61378 3.57364C5.68906 3.75551 5.7995 3.9208 5.93879 4.06007C6.07807 4.19934 6.24349 4.30987 6.42557 4.38534C6.60766 4.46081 6.80286 4.49975 7.00003 4.49994H8.50004V3.00011C8.50026 2.80331 8.46163 2.60839 8.38636 2.42649C8.3111 2.24459 8.20066 2.07927 8.06137 1.93996C7.92208 1.80066 7.75666 1.69011 7.57455 1.61462C7.39244 1.53913 7.19722 1.50018 7.00003 1.5ZM7.00003 5.50019H3.00001C2.80284 5.50038 2.60764 5.53931 2.42555 5.61479C2.24346 5.69026 2.07805 5.80079 1.93877 5.94006C1.79948 6.07933 1.68904 6.24462 1.61375 6.42649C1.53847 6.60836 1.49982 6.80324 1.5 7.00002C1.49978 7.19682 1.53841 7.39174 1.61367 7.57364C1.68894 7.75554 1.79937 7.92086 1.93867 8.06016C2.07796 8.19947 2.24338 8.31002 2.42549 8.38551C2.6076 8.461 2.80282 8.49995 3.00001 8.50013H7.00003C7.19722 8.49995 7.39244 8.461 7.57455 8.38551C7.75666 8.31002 7.92208 8.19947 8.06137 8.06016C8.20066 7.92086 8.3111 7.75554 8.38636 7.57364C8.46163 7.39174 8.50026 7.19682 8.50004 7.00002C8.50022 6.80324 8.46157 6.60836 8.38628 6.42649C8.311 6.24462 8.20056 6.07933 8.06127 5.94006C7.92199 5.80079 7.75657 5.69026 7.57449 5.61479C7.3924 5.53931 7.1972 5.50038 7.00003 5.50019ZM16.5001 7.00002C16.5003 6.80324 16.4616 6.60836 16.3863 6.42649C16.311 6.24462 16.2006 6.07933 16.0613 5.94006C15.922 5.80079 15.7566 5.69026 15.5745 5.61479C15.3924 5.53931 15.1972 5.50038 15.0001 5.50019C14.8029 5.50038 14.6077 5.53931 14.4256 5.61479C14.2435 5.69026 14.0781 5.80079 13.9388 5.94006C13.7995 6.07933 13.6891 6.24462 13.6138 6.42649C13.5385 6.60836 13.4999 6.80324 13.5001 7.00002V8.50013H15.0001C15.1973 8.49995 15.3925 8.461 15.5746 8.38551C15.7567 8.31002 15.9221 8.19947 16.0614 8.06016C16.2007 7.92086 16.3111 7.75554 16.3864 7.57364C16.4617 7.39174 16.5003 7.19682 16.5001 7.00002ZM12.5001 7.00002V3.00011C12.5003 2.80331 12.4617 2.60839 12.3864 2.42649C12.3111 2.24459 12.2007 2.07927 12.0614 1.93996C11.9221 1.80066 11.7567 1.69011 11.5746 1.61462C11.3925 1.53913 11.1972 1.50018 11.0001 1.5C10.8029 1.50018 10.6076 1.53913 10.4255 1.61462C10.2434 1.69011 10.078 1.80066 9.93871 1.93996C9.79942 2.07927 9.68898 2.24459 9.61372 2.42649C9.53845 2.60839 9.49982 2.80331 9.50004 3.00011V7.00002C9.49982 7.19682 9.53845 7.39174 9.61372 7.57364C9.68898 7.75554 9.79942 7.92086 9.93871 8.06016C10.078 8.19947 10.2434 8.31002 10.4255 8.38551C10.6076 8.461 10.8029 8.49995 11.0001 8.50013C11.1972 8.49995 11.3925 8.461 11.5746 8.38551C11.7567 8.31002 11.9221 8.19947 12.0614 8.06016C12.2007 7.92086 12.3111 7.75554 12.3864 7.57364C12.4617 7.39174 12.5003 7.19682 12.5001 7.00002Z" fill="#78787A"/>
  <path fill-rule="evenodd" clip-rule="evenodd" d="M11.0001 16.5001C11.1972 16.4999 11.3925 16.461 11.5746 16.3855C11.7567 16.31 11.9221 16.1995 12.0614 16.0602C12.2007 15.9209 12.3111 15.7555 12.3864 15.5736C12.4617 15.3917 12.5003 15.1968 12.5001 15C12.5002 14.8032 12.4616 14.6084 12.3863 14.4265C12.311 14.2446 12.2006 14.0793 12.0613 13.9401C11.922 13.8008 11.7566 13.6903 11.5745 13.6148C11.3924 13.5393 11.1972 13.5004 11.0001 13.5002H9.50004V15C9.49982 15.1968 9.53845 15.3917 9.61372 15.5736C9.68898 15.7555 9.79942 15.9209 9.93871 16.0602C10.078 16.1995 10.2434 16.31 10.4255 16.3855C10.6076 16.461 10.8029 16.4999 11.0001 16.5001ZM11.0001 12.4999H15.0001C15.1972 12.4998 15.3924 12.4608 15.5745 12.3853C15.7566 12.3099 15.922 12.1993 16.0613 12.0601C16.2006 11.9208 16.311 11.7555 16.3863 11.5736C16.4616 11.3918 16.5003 11.1969 16.5001 11.0001C16.5003 10.8033 16.4617 10.6084 16.3864 10.4265C16.3111 10.2446 16.2007 10.0793 16.0614 9.93996C15.9221 9.80066 15.7567 9.69011 15.5746 9.61462C15.3925 9.53913 15.1973 9.50018 15.0001 9.5H11.0001C10.8029 9.50018 10.6076 9.53913 10.4255 9.61462C10.2434 9.69011 10.078 9.80066 9.93871 9.93996C9.79942 10.0793 9.68898 10.2446 9.61372 10.4265C9.53845 10.6084 9.49982 10.8033 9.50004 11.0001C9.49986 11.1969 9.53851 11.3918 9.6138 11.5736C9.68908 11.7555 9.79952 11.9208 9.93881 12.0601C10.0781 12.1993 10.2435 12.3099 10.4256 12.3853C10.6077 12.4608 10.8029 12.4998 11.0001 12.4999ZM1.5 11.0001C1.49982 11.1969 1.53847 11.3918 1.61375 11.5736C1.68904 11.7555 1.79948 11.9208 1.93877 12.0601C2.07805 12.1993 2.24346 12.3099 2.42555 12.3853C2.60764 12.4608 2.80284 12.4998 3.00001 12.4999C3.19718 12.4998 3.39238 12.4608 3.57447 12.3853C3.75655 12.3099 3.92196 12.1993 4.06125 12.0601C4.20054 11.9208 4.31098 11.7555 4.38626 11.5736C4.46155 11.3918 4.5002 11.1969 4.50002 11.0001V9.5H3.00001C2.8028 9.50018 2.60755 9.53914 2.42542 9.61465C2.2433 9.69015 2.07786 9.80073 1.93857 9.94006C1.79927 10.0794 1.68884 10.2447 1.61359 10.4267C1.53834 10.6086 1.49974 10.8036 1.5 11.0004V11.0001ZM5.50002 11.0001V15C5.4998 15.1968 5.53843 15.3917 5.6137 15.5736C5.68896 15.7555 5.7994 15.9209 5.93869 16.0602C6.07798 16.1995 6.2434 16.31 6.42551 16.3855C6.60762 16.461 6.80284 16.4999 7.00003 16.5001C7.19722 16.4999 7.39244 16.461 7.57455 16.3855C7.75666 16.31 7.92208 16.1995 8.06137 16.0602C8.20066 15.9209 8.3111 15.7555 8.38636 15.5736C8.46163 15.3917 8.50026 15.1968 8.50004 15V11.0004C8.50026 10.8036 8.46163 10.6087 8.38636 10.4268C8.3111 10.2449 8.20066 10.0795 8.06137 9.94024C7.92208 9.80094 7.75666 9.69039 7.57455 9.6149C7.39244 9.53941 7.19722 9.50046 7.00003 9.50028C6.80284 9.50046 6.60762 9.53941 6.42551 9.6149C6.2434 9.69039 6.07798 9.80094 5.93869 9.94024C5.7994 10.0795 5.68896 10.2449 5.6137 10.4268C5.53843 10.6087 5.4998 10.8036 5.50002 11.0004" fill="#78787A"/>
</svg>