<svg fill="none" height="20" viewBox="0 0 252 40" width="135" xmlns="http://www.w3.org/2000/svg" xmlns:xlink="http://www.w3.org/1999/xlink"><clipPath id="a"><path d="m0 0h252v40h-252z"/></clipPath><g clip-path="url(#a)"><rect fill="#0069ff" height="40" rx="6" width="252"/><rect fill="#0069ff" height="40" rx="6" width="252"/><path d="m45 0v40" stroke="#fff" stroke-linecap="square"/><g fill="#fff"><path clip-rule="evenodd" d="m22.0098 30v-3.8738c4.1148 0 7.2799-4.0714 5.7171-8.3799-.5934-1.6009-1.8595-2.8856-3.4619-3.4587-4.3125-1.5614-8.3877 1.6009-8.3877 5.7118h-3.8773c0-6.5419 6.3303-11.64105 13.1948-9.5065 3.0069.9289 5.3808 3.3203 6.3106 6.3047 2.1364 6.8779-2.9476 13.2024-9.4956 13.2024z" fill-rule="evenodd"/><path clip-rule="evenodd" d="m21.5652 25.6522h-3.4783v-3.4783h3.4783z" fill-rule="evenodd"/><path clip-rule="evenodd" d="m18.087 29.1304h-2.6087v-2.6087h2.6087z" fill-rule="evenodd"/><path clip-rule="evenodd" d="m15.4782 26.5218h-2.6087v-2.6087h2.6087z" fill-rule="evenodd"/><path d="m60.344 12.032v11.968h4.752c3.344 0 5.872-2.208 5.872-5.984s-2.496-5.984-5.84-5.984zm1.888 1.632h2.896c2.336 0 3.936 1.488 3.936 4.352s-1.632 4.352-3.952 4.352h-2.88zm18.3005 6.912v-.88c0-2.496-1.488-4.048-3.84-4.048-2.384 0-4.096 1.584-4.096 4.256 0 2.656 1.728 4.256 4.144 4.256 1.904 0 3.392-1.168 3.712-2.624l-1.808-.096c-.224.736-.912 1.168-1.952 1.168-1.248 0-2.096-.784-2.192-2.032zm-3.856-3.392c1.328 0 2 .8 2.048 1.984h-4.208c.096-1.28.96-1.984 2.16-1.984zm10.332-1.536c-1.28 0-2.256.544-2.704 1.296v-1.152h-1.696v12.288h1.792v-5.056c.448.64 1.376 1.136 2.608 1.136 2.288 0 3.952-1.632 3.952-4.256 0-2.608-1.664-4.256-3.952-4.256zm-.288 1.552c1.392 0 2.416.96 2.416 2.704s-1.024 2.72-2.416 2.72c-1.344 0-2.32-.88-2.32-2.496v-.432c0-1.632.976-2.496 2.32-2.496zm8.1175 6.8v-12.432h-1.792v12.432zm6.375-8.352c-2.4484 0-4.2884 1.648-4.2884 4.256 0 2.592 1.84 4.256 4.2884 4.256 2.432 0 4.272-1.664 4.272-4.256 0-2.608-1.84-4.256-4.272-4.256zm0 1.536c1.408 0 2.464 1.008 2.464 2.72 0 1.696-1.056 2.704-2.464 2.704-1.4244 0-2.4644-1.008-2.4644-2.704 0-1.712 1.04-2.72 2.4644-2.72zm8.163 10.896 5.216-12.288h-2l-2.208 5.616-2.208-5.616h-2l3.248 7.632-2.016 4.656zm13.972-5.568c-.736 0-1.36-.336-1.36-1.408l.016-3.76h2.096v-1.552h-2.08l.016-2.784h-1.808l-.016 2.784h-1.52v1.552h1.52l-.016 4.128c-.016 1.856 1.104 2.656 2.72 2.656.576 0 .896-.048 1.2-.096v-1.6c-.192.032-.432.08-.768.08zm6.271-6.864c-2.448 0-4.288 1.648-4.288 4.256 0 2.592 1.84 4.256 4.288 4.256 2.432 0 4.272-1.664 4.272-4.256 0-2.608-1.84-4.256-4.272-4.256zm0 1.536c1.408 0 2.464 1.008 2.464 2.72 0 1.696-1.056 2.704-2.464 2.704-1.424 0-2.464-1.008-2.464-2.704 0-1.712 1.04-2.72 2.464-2.72zm10.147-5.152v11.968h4.752c3.344 0 5.872-2.208 5.872-5.984s-2.496-5.984-5.84-5.984zm1.888 1.632h2.896c2.336 0 3.936 1.488 3.936 4.352s-1.632 4.352-3.952 4.352h-2.88zm11.772-1.84c-.608 0-1.12.496-1.12 1.12s.496 1.12 1.12 1.12 1.136-.496 1.136-1.12-.512-1.12-1.136-1.12zm.896 12.176v-8.208h-1.792v8.208zm6.039-8.352c-2.288 0-3.952 1.648-3.952 4.256 0 2.624 1.664 4.256 3.952 4.256 1.232 0 2.16-.496 2.608-1.136v1.504c0 1.424-.928 2.176-2.288 2.176-1.2 0-2.08-.592-2.24-1.552l-1.792.064c.32 1.776 1.664 3.008 4.08 3.008 2.432 0 4.032-1.472 4.032-3.824v-8.608h-1.696v1.152c-.448-.752-1.424-1.296-2.704-1.296zm.288 1.552c1.344 0 2.32.864 2.32 2.496v.432c0 1.616-.976 2.496-2.32 2.496-1.392 0-2.416-.976-2.416-2.72s1.024-2.704 2.416-2.704zm7.512-5.376c-.608 0-1.12.496-1.12 1.12s.496 1.12 1.12 1.12 1.136-.496 1.136-1.12-.512-1.12-1.136-1.12zm.896 12.176v-8.208h-1.792v8.208zm6.15-1.488c-.736 0-1.36-.336-1.36-1.408l.016-3.76h2.096v-1.552h-2.08l.016-2.784h-1.808l-.016 2.784h-1.52v1.552h1.52l-.016 4.128c-.016 1.856 1.104 2.656 2.72 2.656.576 0 .896-.048 1.2-.096v-1.6c-.192.032-.432.08-.768.08zm5.471-6.864c-2.048 0-3.264 1.456-3.264 2.896l1.808.064c0-.736.448-1.392 1.472-1.392 1.008 0 1.456.656 1.456 1.712v.24l-1.952.112c-1.68.096-3.008.72-3.008 2.48 0 1.536 1.104 2.4 2.736 2.4.912 0 1.648-.352 2.224-.896v.736h1.808v-5.104c0-2.096-1.168-3.248-3.28-3.248zm1.488 4.912v.288c0 1.248-.8 1.808-1.936 1.808-.72 0-1.232-.24-1.232-.928 0-.736.608-1.008 1.456-1.056zm6.094 3.44v-12.432h-1.792v12.432zm8.263-12.128c-3.488 0-6.112 2.352-6.112 6.144s2.624 6.144 6.112 6.144c3.472 0 6.096-2.352 6.096-6.144s-2.624-6.144-6.096-6.144zm0 1.696c2.384 0 4.16 1.648 4.16 4.448 0 2.784-1.776 4.448-4.16 4.448-2.4 0-4.176-1.664-4.176-4.448 0-2.8 1.776-4.448 4.176-4.448zm11.857 2.08c-2.368 0-4.112 1.552-4.112 4.256 0 2.688 1.76 4.256 4.112 4.256 2 0 3.472-1.152 3.792-3.024l-1.76-.16c-.16 1.008-.912 1.632-2.032 1.632-1.312 0-2.288-.976-2.288-2.704 0-1.744.96-2.72 2.288-2.72 1.088 0 1.888.656 2.016 1.728l1.76-.16c-.272-1.936-1.808-3.104-3.776-3.104zm13.168 4.928v-.88c0-2.496-1.488-4.048-3.84-4.048-2.384 0-4.096 1.584-4.096 4.256 0 2.656 1.728 4.256 4.144 4.256 1.904 0 3.392-1.168 3.712-2.624l-1.808-.096c-.224.736-.912 1.168-1.952 1.168-1.248 0-2.096-.784-2.192-2.032zm-3.856-3.392c1.328 0 2 .8 2.048 1.984h-4.208c.096-1.28.96-1.984 2.16-1.984zm8.908-1.536c-2.048 0-3.264 1.456-3.264 2.896l1.808.064c0-.736.448-1.392 1.472-1.392 1.008 0 1.456.656 1.456 1.712v.24l-1.952.112c-1.68.096-3.008.72-3.008 2.48 0 1.536 1.104 2.4 2.736 2.4.912 0 1.648-.352 2.224-.896v.736h1.808v-5.104c0-2.096-1.168-3.248-3.28-3.248zm1.488 4.912v.288c0 1.248-.8 1.808-1.936 1.808-.72 0-1.232-.24-1.232-.928 0-.736.608-1.008 1.456-1.056zm8.398-4.912c-1.2 0-1.984.512-2.4 1.232v-1.088h-1.696v8.208h1.792v-4.688c0-1.136.768-2 1.904-2 1.088 0 1.792.752 1.792 1.984v4.704h1.808v-4.944c0-2.128-1.328-3.408-3.2-3.408z"/></g></g></svg>