<svg xmlns="http://www.w3.org/2000/svg" xmlns:xlink="http://www.w3.org/1999/xlink" width="135" height="20" viewBox="0 0 260 40" version="1.1">
<defs>
<linearGradient id="linear0" gradientUnits="userSpaceOnUse" x1="23.6" y1="126.1" x2="155.7" y2="51.3" gradientTransform="matrix(-1.416185,-0.000000000000000173,0.000000000000000173,-1.416667,245,153.708333)">
<stop offset="0" style="stop-color:rgb(42.745098%,57.647059%,80%);stop-opacity:1;"/>
<stop offset="1" style="stop-color:rgb(22.745098%,38.431373%,68.235294%);stop-opacity:1;"/>
</linearGradient>
</defs>
<g id="surface1">
<path style=" stroke:none;fill-rule:nonzero;fill:url(#linear0);" d="M 4.25 0 L 240.75 0 C 243.097656 0 245 1.902344 245 4.25 L 245 46.75 C 245 49.097656 243.097656 51 240.75 51 L 4.25 51 C 1.902344 51 0 49.097656 0 46.75 L 0 4.25 C 0 1.902344 1.902344 0 4.25 0 Z M 4.25 0 "/>
<path style=" stroke:none;fill-rule:nonzero;fill:rgb(100%,100%,100%);fill-opacity:1;" d="M 55.796875 24.226562 C 55.796875 19.832031 59.195312 16.574219 63.445312 16.574219 C 67.695312 16.574219 71.09375 19.976562 71.09375 24.226562 C 71.09375 28.476562 67.695312 31.875 63.445312 31.875 C 59.195312 31.875 55.796875 28.476562 55.796875 24.226562 Z M 68.261719 24.226562 C 68.261719 21.390625 66.136719 19.410156 63.445312 19.410156 C 60.753906 19.410156 58.628906 21.390625 58.628906 24.226562 C 58.628906 27.058594 60.753906 29.042969 63.445312 29.042969 C 66.136719 29.042969 68.261719 27.058594 68.261719 24.226562 Z M 68.261719 24.226562 "/>
<path style=" stroke:none;fill-rule:nonzero;fill:rgb(100%,100%,100%);fill-opacity:1;" d="M 82.847656 25.214844 L 82.847656 31.734375 L 80.15625 31.734375 L 80.15625 25.640625 C 80.15625 24.226562 79.304688 23.515625 78.03125 23.515625 C 76.757812 23.515625 75.765625 24.367188 75.765625 26.066406 L 75.765625 31.734375 L 73.074219 31.734375 L 73.074219 21.109375 L 75.765625 21.109375 L 75.765625 22.242188 C 76.332031 21.25 77.464844 20.824219 78.882812 20.824219 C 81.148438 20.824219 82.847656 22.382812 82.847656 25.214844 Z M 82.847656 25.214844 "/>
<path style=" stroke:none;fill-rule:nonzero;fill:rgb(100%,100%,100%);fill-opacity:1;" d="M 90.351562 29.464844 C 91.34375 29.464844 92.195312 29.042969 92.761719 28.476562 L 94.882812 29.75 C 93.894531 31.167969 92.335938 32.015625 90.351562 32.015625 C 86.8125 32.015625 84.546875 29.609375 84.546875 26.492188 C 84.546875 23.375 86.8125 20.964844 90.070312 20.964844 C 93.328125 20.964844 95.449219 23.375 95.449219 26.492188 C 95.449219 29.609375 95.449219 27.199219 95.449219 27.625 L 87.519531 27.625 C 87.945312 29.042969 89.078125 29.609375 90.496094 29.609375 Z M 92.761719 25.359375 C 92.476562 23.800781 91.34375 23.234375 90.210938 23.234375 C 89.078125 23.234375 87.804688 24.082031 87.378906 25.359375 Z M 92.761719 25.359375 "/>
<path style=" stroke:none;fill-rule:nonzero;fill:rgb(100%,100%,100%);fill-opacity:1;" d="M 97.433594 23.941406 L 105.363281 23.941406 L 105.363281 26.492188 L 97.433594 26.492188 Z M 97.433594 23.941406 "/>
<path style=" stroke:none;fill-rule:nonzero;fill:rgb(100%,100%,100%);fill-opacity:1;" d="M 107.488281 24.226562 C 107.488281 19.832031 110.746094 16.574219 115.136719 16.574219 C 119.527344 16.574219 120.234375 17.992188 121.507812 20.117188 L 118.960938 21.535156 C 118.25 20.257812 116.835938 19.410156 115.136719 19.410156 C 112.304688 19.410156 110.320312 21.390625 110.320312 24.226562 C 110.320312 27.058594 112.160156 29.042969 115.136719 29.042969 C 118.109375 29.042969 118.25 28.191406 118.960938 26.917969 L 121.507812 28.332031 C 120.234375 30.457031 117.828125 31.875 115.136719 31.875 C 110.605469 31.875 107.488281 28.476562 107.488281 24.226562 Z M 107.488281 24.226562 "/>
<path style=" stroke:none;fill-rule:nonzero;fill:rgb(100%,100%,100%);fill-opacity:1;" d="M 123.351562 16.292969 L 126.039062 16.292969 L 126.039062 31.734375 L 123.351562 31.734375 Z M 123.351562 16.292969 "/>
<path style=" stroke:none;fill-rule:nonzero;fill:rgb(100%,100%,100%);fill-opacity:1;" d="M 127.882812 18.132812 C 127.882812 17.285156 128.589844 16.433594 129.582031 16.433594 C 130.570312 16.433594 131.28125 17.285156 131.28125 18.132812 C 131.28125 18.984375 130.570312 19.832031 129.582031 19.832031 C 128.589844 19.832031 127.882812 19.125 127.882812 18.132812 Z M 128.164062 21.109375 L 130.855469 21.109375 L 130.855469 31.734375 L 128.164062 31.734375 Z M 128.164062 21.109375 "/>
<path style=" stroke:none;fill-rule:nonzero;fill:rgb(100%,100%,100%);fill-opacity:1;" d="M 132.554688 26.351562 C 132.554688 23.234375 134.960938 20.824219 138.078125 20.824219 C 141.195312 20.824219 141.902344 21.957031 142.75 23.515625 L 140.34375 24.933594 C 139.917969 24.082031 139.070312 23.515625 137.9375 23.515625 C 136.378906 23.515625 135.105469 24.648438 135.105469 26.351562 C 135.105469 28.050781 136.238281 29.183594 137.9375 29.183594 C 139.636719 29.183594 139.917969 28.617188 140.34375 27.765625 L 142.75 29.183594 C 141.902344 30.882812 140.0625 31.875 137.9375 31.875 C 134.679688 31.875 132.414062 29.464844 132.414062 26.351562 Z M 132.554688 26.351562 "/>
<path style=" stroke:none;fill-rule:nonzero;fill:rgb(100%,100%,100%);fill-opacity:1;" d="M 150.824219 31.589844 L 147 26.773438 L 147 31.589844 L 144.308594 31.589844 L 144.308594 16.859375 L 147 16.859375 L 147 25.785156 L 150.683594 21.109375 L 153.9375 21.109375 L 149.691406 26.351562 L 154.082031 31.734375 L 150.964844 31.734375 Z M 150.824219 31.589844 "/>
<path style=" stroke:none;fill-rule:nonzero;fill:rgb(100%,100%,100%);fill-opacity:1;" d="M 173.765625 24.226562 C 173.765625 28.332031 170.792969 31.589844 166.683594 31.589844 L 160.878906 31.589844 L 160.878906 16.859375 L 166.683594 16.859375 C 170.792969 16.859375 173.765625 20.117188 173.765625 24.226562 Z M 170.933594 24.226562 C 170.933594 21.535156 169.09375 19.691406 166.542969 19.691406 L 163.570312 19.691406 L 163.570312 28.898438 L 166.542969 28.898438 C 169.09375 28.898438 170.933594 27.058594 170.933594 24.367188 Z M 170.933594 24.226562 "/>
<path style=" stroke:none;fill-rule:nonzero;fill:rgb(100%,100%,100%);fill-opacity:1;" d="M 180.988281 29.464844 C 181.980469 29.464844 182.828125 29.042969 183.394531 28.476562 L 185.519531 29.75 C 184.527344 31.167969 182.972656 32.015625 180.988281 32.015625 C 177.449219 32.015625 175.183594 29.609375 175.183594 26.492188 C 175.183594 23.375 177.449219 20.964844 180.707031 20.964844 C 183.960938 20.964844 186.085938 23.375 186.085938 26.492188 C 186.085938 29.609375 186.085938 27.199219 186.085938 27.625 L 178.15625 27.625 C 178.582031 29.042969 179.714844 29.609375 181.128906 29.609375 Z M 183.394531 25.359375 C 183.113281 23.800781 181.980469 23.234375 180.847656 23.234375 C 179.714844 23.234375 178.4375 24.082031 178.015625 25.359375 Z M 183.394531 25.359375 "/>
<path style=" stroke:none;fill-rule:nonzero;fill:rgb(100%,100%,100%);fill-opacity:1;" d="M 198.972656 26.351562 C 198.972656 29.464844 196.707031 31.875 193.875 31.875 C 191.042969 31.875 191.183594 31.308594 190.476562 30.316406 L 190.476562 35.839844 L 187.785156 35.839844 L 187.785156 21.109375 L 190.476562 21.109375 L 190.476562 22.382812 C 191.183594 21.390625 192.316406 20.824219 193.875 20.824219 C 196.707031 20.824219 198.972656 23.234375 198.972656 26.351562 Z M 196.285156 26.351562 C 196.285156 24.507812 195.007812 23.375 193.308594 23.375 C 191.609375 23.375 190.335938 24.507812 190.335938 26.351562 C 190.335938 28.191406 191.609375 29.324219 193.308594 29.324219 C 195.007812 29.324219 196.285156 28.191406 196.285156 26.351562 Z M 196.285156 26.351562 "/>
<path style=" stroke:none;fill-rule:nonzero;fill:rgb(100%,100%,100%);fill-opacity:1;" d="M 200.671875 16.292969 L 203.363281 16.292969 L 203.363281 31.734375 L 200.671875 31.734375 Z M 200.671875 16.292969 "/>
<path style=" stroke:none;fill-rule:nonzero;fill:rgb(100%,100%,100%);fill-opacity:1;" d="M 205.0625 26.351562 C 205.0625 23.234375 207.472656 20.824219 210.585938 20.824219 C 213.703125 20.824219 216.109375 23.234375 216.109375 26.351562 C 216.109375 29.464844 213.5625 31.875 210.585938 31.875 C 207.613281 31.875 205.0625 29.464844 205.0625 26.351562 Z M 213.5625 26.351562 C 213.5625 24.648438 212.285156 23.375 210.726562 23.375 C 209.171875 23.375 207.894531 24.507812 207.894531 26.351562 C 207.894531 28.191406 209.171875 29.324219 210.726562 29.324219 C 212.285156 29.324219 213.5625 28.191406 213.5625 26.351562 Z M 213.5625 26.351562 "/>
<path style=" stroke:none;fill-rule:nonzero;fill:rgb(100%,100%,100%);fill-opacity:1;" d="M 227.296875 21.109375 L 223.472656 31.734375 C 222.339844 34.707031 220.640625 36.125 217.949219 35.984375 L 217.949219 33.433594 C 219.507812 33.433594 220.214844 32.867188 220.785156 31.449219 L 216.394531 21.25 L 219.367188 21.25 L 222.058594 28.332031 L 224.464844 21.25 L 227.4375 21.25 Z M 227.296875 21.109375 "/>
<path style=" stroke:none;fill-rule:nonzero;fill:rgb(100%,100%,100%);fill-opacity:1;" d="M 41.777344 35.417969 L 38.945312 33.714844 C 38.945312 33.714844 35.972656 32.015625 32.003906 32.015625 C 28.039062 32.015625 25.066406 33.714844 25.066406 33.714844 L 22.234375 35.417969 L 22.234375 32.160156 C 22.234375 25.785156 22.660156 20.964844 23.792969 17.425781 C 24.5 15.015625 25.351562 13.175781 26.625 11.757812 C 28.039062 10.058594 30.023438 9.207031 32.148438 9.207031 C 34.273438 9.207031 36.253906 10.058594 37.671875 11.757812 C 38.945312 13.175781 39.792969 15.015625 40.503906 17.425781 C 41.496094 20.964844 42.0625 25.785156 42.0625 32.160156 L 42.0625 35.558594 Z M 31.863281 13.035156 C 31.15625 13.035156 28.75 13.035156 27.191406 18.417969 C 26.484375 21.109375 26.058594 24.648438 25.917969 29.183594 C 27.472656 28.617188 29.597656 28.191406 31.863281 28.191406 C 34.128906 28.191406 36.253906 28.617188 37.8125 29.183594 C 37.8125 24.648438 37.246094 21.109375 36.539062 18.417969 C 34.980469 13.035156 32.714844 13.035156 31.863281 13.035156 Z M 31.863281 13.035156 "/>
<path style=" stroke:none;fill-rule:nonzero;fill:rgb(100%,100%,100%);fill-opacity:1;" d="M 20.394531 31.734375 C 20.394531 30.882812 20.394531 30.035156 20.394531 29.183594 C 19.261719 30.175781 14.871094 37.542969 14.871094 37.542969 C 14.871094 37.542969 17.277344 35.417969 20.394531 34.425781 Z M 20.394531 31.734375 "/>
<path style=" stroke:none;fill-rule:nonzero;fill:rgb(100%,100%,100%);fill-opacity:1;" d="M 43.335938 31.734375 C 43.335938 30.882812 43.335938 30.035156 43.335938 29.183594 C 44.46875 30.175781 48.859375 37.542969 48.859375 37.542969 C 48.859375 37.542969 46.449219 35.417969 43.335938 34.425781 Z M 43.335938 31.734375 "/>
<path style=" stroke:none;fill-rule:nonzero;fill:rgb(96.078431%,70.980392%,10.196078%);fill-opacity:1;" d="M 31.863281 33.859375 C 30.589844 33.859375 29.457031 34 28.605469 34.285156 C 28.039062 34.992188 27.617188 35.984375 27.617188 36.976562 C 27.617188 38.25 28.183594 39.667969 29.171875 40.515625 C 29.171875 39.667969 29.597656 38.816406 30.304688 38.390625 C 29.597656 40.234375 30.589844 42.214844 32.148438 43.351562 C 31.863281 40.375 33.847656 39.949219 34.554688 37.964844 C 34.839844 38.390625 35.121094 39.101562 35.121094 39.949219 C 35.6875 39.242188 36.113281 38.25 36.113281 37.117188 C 36.113281 36.125 35.828125 35.132812 35.121094 34.425781 C 34.128906 34.140625 32.996094 34 31.722656 34 Z M 31.863281 33.859375 "/>
</g>
</svg>
