<svg width="830" height="595" viewBox="0 0 830 595" fill="none" xmlns="http://www.w3.org/2000/svg">
<g clip-path="url(#clip0_6818_32961)">
<path d="M0 12.6152C0 5.98783 5.37258 0.615234 12 0.615234H818C824.627 0.615234 830 5.98782 830 12.6152V582.615C830 589.243 824.627 594.615 818 594.615H12C5.37258 594.615 0 589.243 0 582.615V12.6152Z" fill="#EDF0F1"/>
<line x1="34.5" y1="694.115" x2="34.5" y2="-134.885" stroke="#BDBDBF" stroke-linecap="square" stroke-dasharray="1 4"/>
<line x1="74.5" y1="694.115" x2="74.5" y2="-134.885" stroke="#BDBDBF" stroke-linecap="square" stroke-dasharray="1 4"/>
<line x1="114.5" y1="694.115" x2="114.5" y2="-134.885" stroke="#BDBDBF" stroke-linecap="square" stroke-dasharray="1 4"/>
<line x1="154.5" y1="694.115" x2="154.5" y2="-134.885" stroke="#BDBDBF" stroke-linecap="square" stroke-dasharray="1 4"/>
<line x1="194.5" y1="694.115" x2="194.5" y2="-134.885" stroke="#BDBDBF" stroke-linecap="square" stroke-dasharray="1 4"/>
<line x1="234.5" y1="694.115" x2="234.5" y2="-134.885" stroke="#BDBDBF" stroke-linecap="square" stroke-dasharray="1 4"/>
<line x1="274.5" y1="694.115" x2="274.5" y2="-134.885" stroke="#BDBDBF" stroke-linecap="square" stroke-dasharray="1 4"/>
<line x1="314.5" y1="694.115" x2="314.5" y2="-134.885" stroke="#BDBDBF" stroke-linecap="square" stroke-dasharray="1 4"/>
<line x1="354.5" y1="694.115" x2="354.5" y2="-134.885" stroke="#BDBDBF" stroke-linecap="square" stroke-dasharray="1 4"/>
<line x1="394.5" y1="694.115" x2="394.5" y2="-134.885" stroke="#BDBDBF" stroke-linecap="square" stroke-dasharray="1 4"/>
<line x1="434.5" y1="694.115" x2="434.5" y2="-134.885" stroke="#BDBDBF" stroke-linecap="square" stroke-dasharray="1 4"/>
<line x1="474.5" y1="694.115" x2="474.5" y2="-134.885" stroke="#BDBDBF" stroke-linecap="square" stroke-dasharray="1 4"/>
<line x1="514.5" y1="694.115" x2="514.5" y2="-134.885" stroke="#BDBDBF" stroke-linecap="square" stroke-dasharray="1 4"/>
<line x1="554.5" y1="694.115" x2="554.5" y2="-134.885" stroke="#BDBDBF" stroke-linecap="square" stroke-dasharray="1 4"/>
<line x1="594.5" y1="694.115" x2="594.5" y2="-134.885" stroke="#BDBDBF" stroke-linecap="square" stroke-dasharray="1 4"/>
<line x1="634.5" y1="694.115" x2="634.5" y2="-134.885" stroke="#BDBDBF" stroke-linecap="square" stroke-dasharray="1 4"/>
<line x1="674.5" y1="694.115" x2="674.5" y2="-134.885" stroke="#BDBDBF" stroke-linecap="square" stroke-dasharray="1 4"/>
<line x1="714.5" y1="694.115" x2="714.5" y2="-134.885" stroke="#BDBDBF" stroke-linecap="square" stroke-dasharray="1 4"/>
<line x1="754.5" y1="694.115" x2="754.5" y2="-134.885" stroke="#BDBDBF" stroke-linecap="square" stroke-dasharray="1 4"/>
<line x1="794.5" y1="694.115" x2="794.5" y2="-134.885" stroke="#BDBDBF" stroke-linecap="square" stroke-dasharray="1 4"/>
<line x1="0.5" y1="39.1152" x2="829.5" y2="39.1152" stroke="#BDBDBF" stroke-linecap="square" stroke-dasharray="1 4"/>
<line x1="0.5" y1="79.1152" x2="829.5" y2="79.1152" stroke="#BDBDBF" stroke-linecap="square" stroke-dasharray="1 4"/>
<line x1="0.5" y1="119.115" x2="829.5" y2="119.115" stroke="#BDBDBF" stroke-linecap="square" stroke-dasharray="1 4"/>
<line x1="0.5" y1="159.115" x2="829.5" y2="159.115" stroke="#BDBDBF" stroke-linecap="square" stroke-dasharray="1 4"/>
<line x1="0.5" y1="199.115" x2="829.5" y2="199.115" stroke="#BDBDBF" stroke-linecap="square" stroke-dasharray="1 4"/>
<line x1="0.5" y1="239.115" x2="829.5" y2="239.115" stroke="#BDBDBF" stroke-linecap="square" stroke-dasharray="1 4"/>
<line x1="0.5" y1="279.115" x2="829.5" y2="279.115" stroke="#BDBDBF" stroke-linecap="square" stroke-dasharray="1 4"/>
<line x1="0.5" y1="319.115" x2="829.5" y2="319.115" stroke="#BDBDBF" stroke-linecap="square" stroke-dasharray="1 4"/>
<line x1="0.5" y1="359.115" x2="829.5" y2="359.115" stroke="#BDBDBF" stroke-linecap="square" stroke-dasharray="1 4"/>
<line x1="0.5" y1="399.115" x2="829.5" y2="399.115" stroke="#BDBDBF" stroke-linecap="square" stroke-dasharray="1 4"/>
<line x1="0.5" y1="439.115" x2="829.5" y2="439.115" stroke="#BDBDBF" stroke-linecap="square" stroke-dasharray="1 4"/>
<line x1="0.5" y1="479.115" x2="829.5" y2="479.115" stroke="#BDBDBF" stroke-linecap="square" stroke-dasharray="1 4"/>
<line x1="0.5" y1="519.115" x2="829.5" y2="519.115" stroke="#BDBDBF" stroke-linecap="square" stroke-dasharray="1 4"/>
<line x1="0.5" y1="559.115" x2="829.5" y2="559.115" stroke="#BDBDBF" stroke-linecap="square" stroke-dasharray="1 4"/>
<path d="M415 750.615C665.185 750.615 868 547.8 868 297.615C868 47.4302 665.185 -155.385 415 -155.385C164.815 -155.385 -38 47.4302 -38 297.615C-38 547.8 164.815 750.615 415 750.615Z" fill="#1A4049" fill-opacity="0.03"/>
<path d="M415 626.615C596.702 626.615 744 479.317 744 297.615C744 115.914 596.702 -31.3848 415 -31.3848C233.298 -31.3848 86 115.914 86 297.615C86 479.317 233.298 626.615 415 626.615Z" fill="#1A4049" fill-opacity="0.03"/>
<path d="M415 493.615C523.248 493.615 611 405.863 611 297.615C611 189.367 523.248 101.615 415 101.615C306.752 101.615 219 189.367 219 297.615C219 405.863 306.752 493.615 415 493.615Z" fill="#1A4049" fill-opacity="0.03"/>
<line x1="411.255" y1="311.636" x2="450.124" y2="160.556" stroke="#1A4049" stroke-width="2"/>
<line x1="347.779" y1="264.857" x2="235.647" y2="204.31" stroke="#1A4049" stroke-width="2"/>
<line x1="367.938" y1="334.368" x2="293.659" y2="399.368" stroke="#1A4049" stroke-width="2"/>
<line x1="447.998" y1="354.08" x2="499.15" y2="434.705" stroke="#1A4049" stroke-width="2"/>
<line y1="-1" x2="156" y2="-1" transform="matrix(0.997188 -0.0749355 -0.0749355 -0.997188 473 286.867)" stroke="#1A4049" stroke-width="2"/>
<g filter="url(#filter0_d_6818_32961)">
<path d="M415 387.615C464.706 387.615 505 347.321 505 297.615C505 247.91 464.706 207.615 415 207.615C365.294 207.615 325 247.91 325 297.615C325 347.321 365.294 387.615 415 387.615Z" fill="#1A4049"/>
</g>
<path d="M401.5 257.115H374.5V338.115H455.5V257.115H428.5V311.115H401.5V257.115Z" fill="white"/>
<path d="M428.5 311.115H455.5V338.115H428.5V311.115Z" fill="#817AFE"/>
<g filter="url(#filter1_d_6818_32961)">
<circle cx="463.799" cy="111.413" r="68" transform="rotate(104.428 463.799 111.413)" fill="white"/>
</g>
<g clip-path="url(#clip1_6818_32961)">
<path d="M460.58 142.553C456.456 142.552 452.373 141.739 448.564 140.16C444.754 138.581 441.293 136.267 438.378 133.351C435.463 130.434 433.15 126.972 431.573 123.162C429.996 119.352 429.185 115.268 429.186 111.144C429.187 107.021 430 102.937 431.579 99.128C433.158 95.3186 435.472 91.8575 438.388 88.9423C441.305 86.0271 444.767 83.7149 448.577 82.1377C452.388 80.5605 456.471 79.7493 460.595 79.7502C468.923 79.7512 476.91 83.0605 482.798 88.9502C488.686 94.8398 491.994 102.827 491.993 111.155C491.992 119.484 488.682 127.47 482.793 133.359C476.903 139.247 468.916 142.554 460.587 142.553H460.58ZM414 124.865L420.42 108.981H426.584L420.175 124.865H414ZM493.197 124.865L499.535 108.981H502.896L496.561 124.865H493.197Z" fill="#C30000"/>
<path d="M505.658 124.865L511.993 108.981H513.777L507.446 124.865H505.658Z" fill="#C30000"/>
<path d="M487.368 108.981H481.784C481.784 108.981 481.401 108.981 481.264 109.319L478.178 118.776L475.089 109.319C474.951 108.981 474.569 108.981 474.569 108.981H463.833C463.602 108.981 463.405 109.174 463.405 109.405V112.616C463.405 110.07 460.695 108.981 459.108 108.981C455.554 108.981 453.175 111.323 452.431 114.88C452.394 112.52 452.197 111.672 451.561 110.806C451.244 110.373 450.845 110.007 450.386 109.728C449.438 109.178 448.587 108.981 446.762 108.981H444.617C444.617 108.981 444.23 108.981 444.093 109.319L442.141 114.159V109.405C442.141 109.174 441.948 108.981 441.714 108.981H436.751C436.751 108.981 436.368 108.981 436.23 109.319L434.197 114.349C434.197 114.349 433.996 114.854 434.457 114.854H436.368V124.438C436.368 124.676 436.554 124.866 436.792 124.866H441.714C441.948 124.866 442.141 124.68 442.141 124.438V114.854H444.059C445.16 114.854 445.39 114.884 445.821 115.085C446.078 115.182 446.312 115.379 446.438 115.605C446.699 116.092 446.762 116.683 446.762 118.408V124.438C446.762 124.676 446.951 124.866 447.189 124.866H451.907C451.907 124.866 452.438 124.866 452.65 124.338L453.691 121.754C455.085 123.702 457.372 124.866 460.215 124.866H460.836C460.836 124.866 461.372 124.866 461.587 124.338L463.409 119.828V124.438C463.409 124.676 463.602 124.866 463.833 124.866H468.647C468.647 124.866 469.178 124.866 469.39 124.338C469.39 124.338 471.319 119.557 471.323 119.52H471.327C471.401 119.122 470.899 119.122 470.899 119.122H469.182V110.921L474.587 124.341C474.799 124.862 475.331 124.862 475.331 124.862H481.018C481.018 124.862 481.554 124.862 481.766 124.341L487.762 109.49C487.97 108.977 487.368 108.977 487.368 108.977V108.981ZM463.405 119.122H460.171C459.857 119.135 459.543 119.084 459.249 118.972C458.955 118.86 458.687 118.691 458.46 118.473C458.233 118.255 458.053 117.993 457.93 117.704C457.807 117.415 457.743 117.104 457.743 116.789C457.743 116.475 457.807 116.164 457.93 115.874C458.053 115.585 458.233 115.324 458.46 115.106C458.687 114.888 458.955 114.718 459.249 114.607C459.543 114.495 459.857 114.444 460.171 114.457H461.078C461.695 114.46 462.287 114.707 462.723 115.144C463.159 115.581 463.404 116.174 463.405 116.791V119.122Z" fill="#FEFEFE"/>
</g>
<g filter="url(#filter2_d_6818_32961)">
<circle cx="242" cy="439.615" r="68" fill="white"/>
</g>
<g clip-path="url(#clip2_6818_32961)">
<path d="M207.732 433.578V435.063H212.984V440.257V446.425H214.468V440.227V435.063H219.718V433.578H207.732Z" fill="#334B9F"/>
<path d="M198.65 433.065C196.891 433.067 195.205 433.766 193.962 435.01C192.718 436.253 192.019 437.939 192.017 439.698C192.017 439.832 192.029 439.964 192.037 440.096C192.137 441.782 192.878 443.366 194.107 444.524C195.336 445.682 196.961 446.327 198.65 446.327C200.339 446.327 201.964 445.682 203.193 444.524C204.422 443.366 205.163 441.782 205.263 440.096C205.271 439.962 205.283 439.829 205.283 439.694C205.281 437.935 204.582 436.249 203.338 435.006C202.095 433.762 200.409 433.063 198.65 433.061V433.065ZM198.65 444.842C197.376 444.841 196.148 444.368 195.202 443.514C194.256 442.661 193.66 441.487 193.528 440.22C193.51 440.044 193.501 439.866 193.502 439.689C193.502 438.323 194.044 437.014 195.01 436.048C195.975 435.083 197.285 434.54 198.65 434.54C200.015 434.54 201.325 435.083 202.29 436.048C203.256 437.014 203.798 438.323 203.798 439.689C203.798 439.781 203.79 439.871 203.784 439.963C203.714 441.278 203.142 442.515 202.187 443.422C201.232 444.328 199.967 444.834 198.65 444.837" fill="#334B9F"/>
<path d="M235.79 439.198C235.665 437.493 234.886 435.903 233.616 434.758C232.346 433.614 230.683 433.005 228.974 433.058C227.265 433.112 225.643 433.823 224.447 435.044C223.25 436.265 222.572 437.901 222.554 439.611V439.698C222.576 441.443 223.284 443.108 224.526 444.334C225.767 445.56 227.442 446.247 229.187 446.247C230.931 446.247 232.606 445.56 233.847 444.334C235.089 443.108 235.797 441.443 235.819 439.698C235.819 439.529 235.807 439.364 235.794 439.198H235.79ZM229.187 444.846C227.822 444.845 226.513 444.302 225.548 443.337C224.582 442.372 224.039 441.063 224.038 439.698C224.038 439.652 224.044 439.608 224.045 439.563C224.078 438.249 224.613 436.998 225.54 436.066C226.466 435.134 227.714 434.592 229.028 434.551C230.341 434.511 231.621 434.974 232.603 435.847C233.586 436.719 234.197 437.935 234.312 439.244C234.325 439.395 234.335 439.547 234.335 439.702C234.334 441.067 233.791 442.376 232.826 443.341C231.86 444.306 230.552 444.849 229.187 444.85" fill="#334B9F"/>
<path d="M261.629 433.064C259.985 433.066 258.401 433.678 257.182 434.78C255.963 435.882 255.196 437.397 255.029 439.031C255.007 439.253 254.995 439.475 254.995 439.698C254.996 441.379 255.636 442.997 256.785 444.224C257.934 445.452 259.506 446.197 261.183 446.309C262.861 446.421 264.518 445.892 265.82 444.828C267.122 443.765 267.971 442.246 268.196 440.58C268.237 440.288 268.259 439.993 268.262 439.698C268.26 437.939 267.56 436.253 266.317 435.009C265.073 433.766 263.387 433.066 261.629 433.064V433.064ZM261.629 444.846C260.61 444.846 259.614 444.544 258.767 443.979C257.92 443.413 257.26 442.609 256.87 441.668C256.48 440.727 256.378 439.691 256.577 438.692C256.776 437.693 257.266 436.776 257.986 436.056C258.706 435.335 259.624 434.845 260.623 434.646C261.622 434.448 262.658 434.55 263.599 434.94C264.539 435.329 265.344 435.99 265.909 436.837C266.475 437.684 266.777 438.679 266.777 439.698C266.777 439.828 266.767 439.956 266.758 440.084C266.66 441.378 266.077 442.587 265.126 443.47C264.175 444.353 262.926 444.844 261.629 444.846Z" fill="#334B9F"/>
<path d="M250.347 433.277L247.654 439.038L245.152 444.388L242.758 439.146L240.077 433.277H238.444L241.141 439.18L244.29 446.074H246.003L249.274 439.079L251.986 433.277H250.347Z" fill="#334B9F"/>
<path d="M271.779 419.907C271.646 419.681 270.86 419.53 270.468 419.746C270.276 419.852 270.128 420.021 270.048 420.225C269.914 420.729 269.843 421.248 269.835 421.769L269.78 431.296C269.78 431.633 269.708 432.04 269.71 432.2C269.722 432.529 269.764 432.877 269.816 432.969C269.936 433.169 270.168 433.182 270.454 433.198C270.779 433.213 270.92 433.135 271.172 432.999C271.481 432.829 271.47 431.546 271.474 431.209C271.488 428.232 271.351 424.108 271.548 421.402C271.568 421.127 271.768 420.717 271.838 420.431C271.869 420.344 271.878 420.251 271.866 420.16C271.853 420.068 271.818 419.982 271.765 419.907" fill="#F58D67"/>
<path d="M286.39 428.663C286.071 428.839 285.701 428.889 285.368 429.035C284.941 429.239 284.536 429.486 284.158 429.771C283.486 430.246 282.832 430.745 282.178 431.244C280.683 432.385 279.202 433.542 277.686 434.661C277.006 435.163 276.328 435.69 275.598 436.121C275.399 436.239 275 436.559 274.755 436.513C274.599 436.485 274.292 436.156 274.186 436.038C273.159 434.869 275.1 434.018 275.798 433.505C278.293 431.663 280.771 429.798 283.256 427.945C283.74 427.572 284.245 427.228 284.77 426.915C285.23 426.649 286 426.123 286.464 426.639C286.978 427.21 287.169 428.255 286.39 428.659" fill="#F58D67"/>
<path d="M291.947 439.629C291.863 438.683 289.979 438.991 289.336 439.007L284.824 439.075C282.352 439.114 279.819 439.305 277.362 439.182C276.855 439.156 276.006 438.904 275.581 439.312C275.156 439.721 275.138 440.636 275.615 440.886C276.298 441.245 277.69 440.97 278.449 440.958C281.197 440.918 283.944 440.781 286.692 440.737C287.813 440.719 289.17 440.56 290.264 440.843C290.627 440.936 290.997 441.211 291.377 441.005C291.784 440.784 292.026 440.048 291.947 439.633" fill="#F58D67"/>
<path d="M282.465 455.064C282.371 455.041 282.284 454.996 282.21 454.933C282.136 454.871 282.078 454.792 282.039 454.703C281.891 454.431 281.75 453.972 281.569 453.746C279.802 451.488 276.775 448.341 274.68 445.995C274.443 445.729 273.527 444.726 273.638 444.384C273.73 444.104 273.779 443.949 274.037 443.74C274.267 443.557 274.45 443.407 274.681 443.486C274.787 443.521 275.067 443.765 275.308 444.017C275.422 444.141 275.659 444.509 275.896 444.775L282.604 452.296C282.97 452.708 283.285 453.162 283.543 453.648C283.627 453.859 283.635 454.092 283.566 454.309C283.424 454.742 282.728 455.153 282.467 455.068" fill="#F58D67"/>
<path d="M271.772 446.346C271.628 446.121 270.798 445.97 270.381 446.186C270.181 446.288 270.024 446.458 269.936 446.664C269.795 447.168 269.721 447.688 269.716 448.211L269.658 457.74C269.658 458.077 269.582 458.484 269.583 458.645C269.596 458.973 269.64 459.321 269.7 459.413C269.828 459.613 270.073 459.626 270.381 459.643C270.728 459.657 270.876 459.58 271.144 459.443C271.47 459.273 271.462 457.99 271.462 457.653C271.478 454.676 271.328 450.552 271.541 447.847C271.562 447.571 271.775 447.161 271.849 446.875C271.883 446.787 271.894 446.692 271.88 446.599C271.866 446.506 271.829 446.418 271.771 446.343" fill="#F58D67"/>
</g>
<g filter="url(#filter3_d_6818_32961)">
<circle cx="527.284" cy="484.419" r="68" transform="rotate(15.002 527.284 484.419)" fill="white"/>
</g>
<path d="M546.156 493.094C546.093 493.096 546.03 493.097 545.966 493.097C542.563 493.097 539.763 490.297 539.763 486.893C539.763 483.49 542.563 480.69 545.966 480.69C549.369 480.69 552.17 483.49 552.17 486.893C552.197 490.235 549.497 493.019 546.156 493.094ZM552.026 473.615L552.026 480.204L551.486 479.793C549.848 478.63 547.874 478.033 545.866 478.095C541.056 478.151 537.111 482.081 537.035 486.89C537.035 491.213 540.269 495.687 545.683 495.687C547.71 495.741 549.702 495.147 551.368 493.993L552.025 493.449L552.025 495.218L554.838 495.218L554.838 476.778L552.73 473.62L552.026 473.615Z" fill="#070606"/>
<path d="M558.021 478.103L558.021 495.216L560.834 495.216L560.834 481.265L558.725 478.103L558.021 478.103Z" fill="#070606"/>
<path d="M510.642 478.105C508.32 478.105 506.357 479.042 505.331 480.622C504.282 479.019 502.362 478.105 500.019 478.105C498.909 478.101 497.82 478.412 496.88 479.002L496.88 478.578L494.068 478.578L494.068 487.78L496.175 490.933L496.884 490.933L496.884 484.689C496.896 482.213 498.601 480.918 500.28 480.918C501.376 480.918 503.927 481.337 503.927 485.223L503.927 495.208L506.743 495.208L506.743 485.223C506.743 481.337 509.296 480.918 510.392 480.918C512.081 480.918 513.789 482.223 513.789 484.715L513.789 495.217L516.6 495.217L516.6 484.677C516.6 480.162 513.515 478.105 510.646 478.105" fill="#070606"/>
<path d="M487.639 487.417C487.713 488.834 487.295 490.234 486.456 491.378C485.682 492.313 484.508 492.828 483.296 492.765C482.503 492.813 481.72 492.558 481.107 492.05C480.574 491.529 480.296 490.799 480.346 490.055C480.289 489.217 480.676 488.407 481.365 487.925C482.361 487.359 483.503 487.099 484.646 487.177L487.639 487.177L487.639 487.417ZM489.925 480.59C489.3 479.751 488.457 479.1 487.488 478.707C486.358 478.271 485.153 478.061 483.942 478.091C483.042 478.094 482.144 478.191 481.264 478.378C480.735 478.488 480.186 478.638 479.624 478.812L479.004 479.043L480.752 481.635L481.355 481.397C482.198 481.161 483.068 481.039 483.942 481.035C484.95 480.944 485.958 481.221 486.778 481.814C487.407 482.5 487.719 483.419 487.639 484.347L487.639 484.411L484.445 484.411C482.05 484.411 480.197 484.905 478.938 485.878C477.705 486.983 477 488.562 477 490.218C477 491.697 477.563 493.122 478.575 494.201C479.713 495.222 481.209 495.754 482.737 495.684C483.875 495.715 485.004 495.467 486.025 494.961C486.643 494.629 487.191 494.181 487.639 493.641L487.639 495.211L491 495.211L491 485.739C491.027 484.653 490.947 483.568 490.763 482.498C490.626 481.808 490.339 481.157 489.925 480.59Z" fill="#EB036E"/>
<path d="M574.224 487.54C574.315 488.916 573.867 490.275 572.977 491.327C572.096 492.44 570.756 493.093 569.337 493.102C568.261 493.102 567.373 492.989 566.81 492.388C566.265 491.902 565.963 491.198 565.988 490.468C565.917 489.613 566.328 488.785 567.052 488.325C567.865 487.763 569.137 487.541 570.743 487.541L574.224 487.541L574.224 487.447L574.224 487.54ZM576.752 482.399C576.62 481.731 576.344 481.101 575.943 480.552C575.333 479.731 574.508 479.096 573.559 478.714C572.427 478.278 571.22 478.069 570.007 478.1C569.095 478.104 568.185 478.202 567.293 478.392C566.545 478.55 565.808 478.756 565.086 479.007L566.61 481.29C566.835 481.212 567.059 481.14 567.287 481.076C568.211 480.812 569.167 480.676 570.128 480.673C571.594 480.673 572.66 480.975 573.328 481.578C573.995 482.18 574.211 482.911 574.223 484.247L574.223 484.679L570.531 484.679C568.107 484.679 566.271 485.163 565.021 486.13C563.826 487.211 563.144 488.749 563.144 490.36C563.144 491.8 563.689 493.188 564.67 494.243C565.787 495.242 567.255 495.761 568.752 495.686C569.936 495.754 571.12 495.551 572.214 495.092C573.036 494.687 573.732 494.065 574.227 493.293L574.227 495.211L576.994 495.211L576.994 485.696C577.024 484.592 576.943 483.488 576.754 482.399" fill="#070606"/>
<path d="M521.498 485.083C522.033 482.458 524.41 480.585 527.087 480.678C529.729 480.576 532.102 482.353 532.747 484.917L532.817 485.262L521.454 485.262C521.469 485.197 521.484 485.132 521.497 485.083L521.498 485.083ZM527.298 493.125C524.403 493.154 521.885 491.071 521.37 488.222C521.37 488.219 521.323 487.939 521.296 487.722L535.592 487.718L535.575 487.17C535.407 481.218 531.433 478.105 527.596 478.105C521.6 478.105 518.365 482.634 518.365 486.897C518.365 491.16 521.597 495.686 527.591 495.69L527.597 495.69C529.545 495.616 531.429 494.966 533.009 493.824C533.627 493.356 534.171 492.799 534.624 492.171L534.735 492.015C535.015 491.615 535.266 491.195 535.489 490.76L532.626 490.76C531.306 492.321 529.34 493.194 527.298 493.125Z" fill="#070606"/>
<g filter="url(#filter4_d_6818_32961)">
<circle cx="205.024" cy="184.639" r="68" transform="rotate(-14.6931 205.024 184.639)" fill="white"/>
</g>
<path fill-rule="evenodd" clip-rule="evenodd" d="M166.269 168.973H156.977C156.698 168.973 156.432 169.083 156.235 169.28C156.038 169.477 155.927 169.743 155.927 170.022V199.338C155.927 199.617 156.037 199.884 156.234 200.081C156.431 200.278 156.698 200.388 156.977 200.388H187.405V190.065C187.405 178.434 177.924 168.972 166.269 168.972V168.973Z" fill="#0063FB"/>
<path fill-rule="evenodd" clip-rule="evenodd" d="M254.023 168.973H190.82C190.682 168.973 190.545 168.999 190.418 169.052C190.29 169.105 190.174 169.182 190.076 169.279C189.979 169.377 189.901 169.492 189.848 169.62C189.795 169.747 189.768 169.884 189.768 170.022V200.387H254.023C254.301 200.387 254.568 200.277 254.765 200.08C254.962 199.884 255.072 199.617 255.073 199.339V170.022C255.073 169.743 254.962 169.476 254.766 169.279C254.569 169.082 254.302 168.972 254.023 168.972V168.973Z" fill="#06BEFB"/>
<path fill-rule="evenodd" clip-rule="evenodd" d="M200.427 178.555H208.938C209.308 178.555 209.607 178.854 209.607 179.223V181.319C209.607 181.406 209.59 181.493 209.557 181.575C209.523 181.656 209.474 181.73 209.411 181.792C209.349 181.854 209.275 181.903 209.194 181.936C209.113 181.97 209.026 181.987 208.938 181.987H203.48V184.752H207.827C208.196 184.752 208.495 185.051 208.495 185.42V187.204C208.495 187.292 208.478 187.379 208.444 187.46C208.411 187.541 208.361 187.615 208.299 187.677C208.237 187.739 208.163 187.789 208.082 187.822C208.001 187.856 207.914 187.873 207.826 187.873H203.48V190.136C203.48 190.224 203.463 190.311 203.429 190.392C203.396 190.474 203.346 190.547 203.284 190.609C203.222 190.671 203.148 190.721 203.067 190.754C202.986 190.788 202.899 190.805 202.811 190.805H200.428C200.34 190.805 200.253 190.788 200.172 190.754C200.091 190.721 200.017 190.672 199.954 190.61C199.892 190.548 199.843 190.474 199.809 190.393C199.775 190.311 199.758 190.224 199.758 190.136V179.223C199.758 178.854 200.058 178.555 200.427 178.555V178.555ZM213.315 178.555H215.699C216.069 178.555 216.368 178.854 216.368 179.223V190.136C216.368 190.224 216.351 190.311 216.317 190.392C216.283 190.474 216.234 190.547 216.172 190.609C216.11 190.671 216.036 190.721 215.955 190.754C215.874 190.788 215.786 190.805 215.699 190.805H213.315C213.227 190.805 213.14 190.788 213.059 190.754C212.978 190.721 212.904 190.671 212.842 190.609C212.78 190.547 212.73 190.474 212.697 190.392C212.663 190.311 212.646 190.224 212.646 190.136V179.223C212.646 178.854 212.945 178.555 213.315 178.555V178.555ZM244.413 178.555H242.03C241.942 178.555 241.855 178.572 241.774 178.605C241.693 178.639 241.619 178.688 241.557 178.75C241.494 178.812 241.445 178.886 241.411 178.967C241.378 179.048 241.36 179.135 241.36 179.223V184.575L237.633 178.953C237.552 178.83 237.441 178.73 237.311 178.66C237.181 178.591 237.036 178.554 236.888 178.555H235.058C234.97 178.555 234.883 178.572 234.802 178.605C234.721 178.639 234.647 178.688 234.585 178.75C234.523 178.812 234.473 178.886 234.44 178.967C234.406 179.048 234.389 179.135 234.389 179.223V190.136C234.389 190.505 234.689 190.805 235.058 190.805H237.443C237.531 190.805 237.618 190.788 237.699 190.754C237.78 190.721 237.854 190.671 237.916 190.609C237.978 190.547 238.028 190.474 238.061 190.392C238.095 190.311 238.112 190.224 238.112 190.136V184.847L241.758 190.402C241.839 190.525 241.95 190.627 242.08 190.697C242.21 190.768 242.356 190.805 242.504 190.805H244.414C244.502 190.805 244.59 190.788 244.671 190.754C244.752 190.721 244.826 190.672 244.889 190.61C244.951 190.548 245 190.474 245.034 190.393C245.068 190.311 245.085 190.224 245.085 190.136V179.223C245.085 179.135 245.068 179.048 245.034 178.967C245 178.886 244.951 178.812 244.889 178.75C244.826 178.688 244.752 178.638 244.671 178.605C244.59 178.571 244.502 178.554 244.414 178.555H244.413ZM227.672 178.555H230.057C230.427 178.555 230.726 178.854 230.726 179.223V190.136C230.726 190.224 230.709 190.311 230.675 190.392C230.641 190.474 230.592 190.547 230.53 190.609C230.468 190.671 230.394 190.721 230.313 190.754C230.231 190.788 230.144 190.805 230.057 190.805H228.146C227.998 190.805 227.852 190.768 227.721 190.698C227.591 190.627 227.48 190.526 227.399 190.402L223.753 184.847V190.136C223.753 190.224 223.736 190.311 223.702 190.392C223.668 190.474 223.619 190.547 223.557 190.609C223.495 190.671 223.421 190.721 223.34 190.754C223.259 190.788 223.171 190.805 223.084 190.805H220.7C220.612 190.805 220.525 190.788 220.444 190.754C220.363 190.721 220.289 190.671 220.227 190.609C220.165 190.547 220.115 190.474 220.082 190.392C220.048 190.311 220.031 190.224 220.031 190.136V179.223C220.031 178.854 220.33 178.555 220.7 178.555H222.532C222.831 178.555 223.111 178.705 223.277 178.954L227.002 184.575V179.223C227.002 178.854 227.303 178.555 227.672 178.555V178.555Z" fill="white"/>
<g filter="url(#filter5_d_6818_32961)">
<circle cx="658.789" cy="267.52" r="68" transform="rotate(-4.29752 658.789 267.52)" fill="white"/>
</g>
<g clip-path="url(#clip3_6818_32961)">
<path fill-rule="evenodd" clip-rule="evenodd" d="M644.054 249.735L651.237 261.328C651.691 262.059 652.796 262.009 653.186 261.245C654.607 258.464 658.219 253.677 666.263 253.642C667.068 253.64 667.775 253.117 667.978 252.366L671.023 241.058C671.288 240.077 670.617 239.096 669.575 238.939C665.046 238.258 653.386 237.708 644.26 247.712C644.008 247.98 643.852 248.324 643.815 248.689C643.778 249.055 643.863 249.423 644.056 249.735H644.054Z" fill="#21CDAC"/>
<path fill-rule="evenodd" clip-rule="evenodd" d="M675.815 241.687C675.856 241.539 675.928 241.401 676.027 241.283C676.126 241.165 676.249 241.07 676.388 241.003C676.527 240.937 676.679 240.901 676.833 240.899C676.987 240.896 677.139 240.926 677.281 240.988C687.163 245.365 693.174 252.619 694.952 263.025C697.222 276.31 689.075 289.625 676.24 294.086C662.47 298.873 647.935 293.986 640.617 282.079C634.816 272.644 629.047 263.189 623.263 253.742C621.394 250.689 621.394 250.689 624.664 248.9C629.41 246.304 635.021 247.033 638.778 250.852C639.819 251.91 640.686 253.167 641.459 254.432C645.499 261.038 649.49 267.673 653.481 274.307C656.407 279.166 662.124 281.819 667.998 281.013C673.757 280.222 678.318 276.081 679.702 270.381C681.021 264.958 678.805 259.172 673.989 256.069C672.64 255.199 672.374 254.47 672.8 253.007C673.88 249.307 674.808 245.565 675.815 241.687V241.687Z" fill="#21CDAC"/>
</g>
</g>
<defs>
<filter id="filter0_d_6818_32961" x="305" y="193.615" width="220" height="220" filterUnits="userSpaceOnUse" color-interpolation-filters="sRGB">
<feFlood flood-opacity="0" result="BackgroundImageFix"/>
<feColorMatrix in="SourceAlpha" type="matrix" values="0 0 0 0 0 0 0 0 0 0 0 0 0 0 0 0 0 0 127 0" result="hardAlpha"/>
<feOffset dy="6"/>
<feGaussianBlur stdDeviation="10"/>
<feComposite in2="hardAlpha" operator="out"/>
<feColorMatrix type="matrix" values="0 0 0 0 0.101961 0 0 0 0 0.25098 0 0 0 0 0.286275 0 0 0 0.2 0"/>
<feBlend mode="normal" in2="BackgroundImageFix" result="effect1_dropShadow_6818_32961"/>
<feBlend mode="normal" in="SourceGraphic" in2="effect1_dropShadow_6818_32961" result="shape"/>
</filter>
<filter id="filter1_d_6818_32961" x="375.782" y="25.397" width="176.033" height="176.033" filterUnits="userSpaceOnUse" color-interpolation-filters="sRGB">
<feFlood flood-opacity="0" result="BackgroundImageFix"/>
<feColorMatrix in="SourceAlpha" type="matrix" values="0 0 0 0 0 0 0 0 0 0 0 0 0 0 0 0 0 0 127 0" result="hardAlpha"/>
<feOffset dy="2"/>
<feGaussianBlur stdDeviation="10"/>
<feComposite in2="hardAlpha" operator="out"/>
<feColorMatrix type="matrix" values="0 0 0 0 0.101961 0 0 0 0 0.25098 0 0 0 0 0.286275 0 0 0 0.12 0"/>
<feBlend mode="normal" in2="BackgroundImageFix" result="effect1_dropShadow_6818_32961"/>
<feBlend mode="normal" in="SourceGraphic" in2="effect1_dropShadow_6818_32961" result="shape"/>
</filter>
<filter id="filter2_d_6818_32961" x="154" y="355.615" width="176" height="176" filterUnits="userSpaceOnUse" color-interpolation-filters="sRGB">
<feFlood flood-opacity="0" result="BackgroundImageFix"/>
<feColorMatrix in="SourceAlpha" type="matrix" values="0 0 0 0 0 0 0 0 0 0 0 0 0 0 0 0 0 0 127 0" result="hardAlpha"/>
<feOffset dy="4"/>
<feGaussianBlur stdDeviation="10"/>
<feComposite in2="hardAlpha" operator="out"/>
<feColorMatrix type="matrix" values="0 0 0 0 0.101961 0 0 0 0 0.25098 0 0 0 0 0.286275 0 0 0 0.08 0"/>
<feBlend mode="normal" in2="BackgroundImageFix" result="effect1_dropShadow_6818_32961"/>
<feBlend mode="normal" in="SourceGraphic" in2="effect1_dropShadow_6818_32961" result="shape"/>
</filter>
<filter id="filter3_d_6818_32961" x="439.267" y="398.402" width="176.034" height="176.034" filterUnits="userSpaceOnUse" color-interpolation-filters="sRGB">
<feFlood flood-opacity="0" result="BackgroundImageFix"/>
<feColorMatrix in="SourceAlpha" type="matrix" values="0 0 0 0 0 0 0 0 0 0 0 0 0 0 0 0 0 0 127 0" result="hardAlpha"/>
<feOffset dy="2"/>
<feGaussianBlur stdDeviation="10"/>
<feComposite in2="hardAlpha" operator="out"/>
<feColorMatrix type="matrix" values="0 0 0 0 0.101961 0 0 0 0 0.25098 0 0 0 0 0.286275 0 0 0 0.12 0"/>
<feBlend mode="normal" in2="BackgroundImageFix" result="effect1_dropShadow_6818_32961"/>
<feBlend mode="normal" in="SourceGraphic" in2="effect1_dropShadow_6818_32961" result="shape"/>
</filter>
<filter id="filter4_d_6818_32961" x="117.007" y="98.6226" width="176.033" height="176.033" filterUnits="userSpaceOnUse" color-interpolation-filters="sRGB">
<feFlood flood-opacity="0" result="BackgroundImageFix"/>
<feColorMatrix in="SourceAlpha" type="matrix" values="0 0 0 0 0 0 0 0 0 0 0 0 0 0 0 0 0 0 127 0" result="hardAlpha"/>
<feOffset dy="2"/>
<feGaussianBlur stdDeviation="10"/>
<feComposite in2="hardAlpha" operator="out"/>
<feColorMatrix type="matrix" values="0 0 0 0 0.101961 0 0 0 0 0.25098 0 0 0 0 0.286275 0 0 0 0.12 0"/>
<feBlend mode="normal" in2="BackgroundImageFix" result="effect1_dropShadow_6818_32961"/>
<feBlend mode="normal" in="SourceGraphic" in2="effect1_dropShadow_6818_32961" result="shape"/>
</filter>
<filter id="filter5_d_6818_32961" x="570.786" y="181.517" width="176.006" height="176.006" filterUnits="userSpaceOnUse" color-interpolation-filters="sRGB">
<feFlood flood-opacity="0" result="BackgroundImageFix"/>
<feColorMatrix in="SourceAlpha" type="matrix" values="0 0 0 0 0 0 0 0 0 0 0 0 0 0 0 0 0 0 127 0" result="hardAlpha"/>
<feOffset dy="2"/>
<feGaussianBlur stdDeviation="10"/>
<feComposite in2="hardAlpha" operator="out"/>
<feColorMatrix type="matrix" values="0 0 0 0 0.101961 0 0 0 0 0.25098 0 0 0 0 0.286275 0 0 0 0.12 0"/>
<feBlend mode="normal" in2="BackgroundImageFix" result="effect1_dropShadow_6818_32961"/>
<feBlend mode="normal" in="SourceGraphic" in2="effect1_dropShadow_6818_32961" result="shape"/>
</filter>
<clipPath id="clip0_6818_32961">
<path d="M0 12.6152C0 5.98783 5.37258 0.615234 12 0.615234H818C824.627 0.615234 830 5.98782 830 12.6152V582.615C830 589.243 824.627 594.615 818 594.615H12C5.37258 594.615 0 589.243 0 582.615V12.6152Z" fill="white"/>
</clipPath>
<clipPath id="clip1_6818_32961">
<rect width="100" height="63.0952" fill="white" transform="translate(414 79.6152)"/>
</clipPath>
<clipPath id="clip2_6818_32961">
<rect width="100" height="40.0627" fill="white" transform="translate(192 419.615)"/>
</clipPath>
<clipPath id="clip3_6818_32961">
<rect width="74" height="57.2903" fill="white" transform="translate(622 238.615)"/>
</clipPath>
</defs>
</svg>
