<svg width="830" height="269" viewBox="0 0 830 269" fill="none" xmlns="http://www.w3.org/2000/svg">
<path d="M0 12C0 5.37259 5.37258 0 12 0H818C824.627 0 830 5.37258 830 12V268.615H0V12Z" fill="#EDF0F1"/>
<path d="M299.493 136.615C324.066 136.615 343.986 116.778 343.986 92.3077C343.986 67.8372 324.066 48 299.493 48C274.92 48 255 67.8372 255 92.3077C255 116.778 274.92 136.615 299.493 136.615Z" fill="#1A4049"/>
<path d="M292.819 72.3693H279.471V112.246H319.515V72.3693H306.167V98.9539H292.819V72.3693Z" fill="white"/>
<path d="M306.167 98.9539H319.515V112.246H306.167V98.9539Z" fill="#817AFE"/>
<path d="M377.386 99.447V84.8075H384.021V98.725C384.021 102.813 386.196 105.501 390.29 105.501C394.384 105.501 396.559 102.813 396.559 98.725V84.8075H403.233V99.447C403.233 106.484 398.517 111.554 390.385 111.554C382.102 111.554 377.386 106.484 377.386 99.447ZM416.505 110.982H409.925V84.8075H416.505V89.206C417.383 87.6786 418.652 86.4112 420.181 85.5331C421.71 84.655 423.446 84.1977 425.21 84.2077C431.79 84.2077 436.145 89.0227 436.145 95.6927V110.982H429.47V97.0145C429.47 92.877 427.034 90.1335 423.096 90.1335C419.158 90.1335 416.516 92.9103 416.516 97.0145L416.505 110.982ZM442.931 72.9059H449.561V110.982H442.931V72.9059ZM482.879 98.2641V98.9861H462.048C462.31 103.074 465.313 106.206 469.663 106.206C473.862 106.206 475.57 104.084 476.037 103.362H482.567C482.15 106.05 478.579 111.693 469.663 111.693C461.169 111.693 455.418 105.8 455.418 97.9364C455.418 89.8113 461.114 84.1743 469.145 84.1743C477.177 84.1743 482.879 89.7225 482.879 98.2641ZM462.254 94.432H475.937C474.952 91.0998 472.516 89.2615 469.145 89.2615C465.569 89.256 463.083 91.172 462.254 94.4265V94.432ZM497.641 94.582H506.245C506.245 91.4275 503.859 89.4115 499.977 89.4115C496.295 89.4115 494.971 91.3775 494.537 92.0495H487.862C488.419 89.306 491.695 84.1355 499.988 84.1355C508.12 84.1355 512.631 88.3785 512.631 94.582V103.429C512.631 105.034 513.187 105.65 514.7 105.812V111.138H512.631C509.26 111.088 507.241 109.844 506.512 107.517C505.272 109.433 502.474 111.554 498.019 111.554C491.85 111.554 487.189 108.089 487.189 102.707C487.189 97.3255 491.166 94.582 497.641 94.582ZM506.245 101.307V99.086H498.731C495.622 99.086 493.725 100.197 493.725 102.602C493.725 105.14 496.111 106.639 499.426 106.639C503.136 106.639 506.245 104.829 506.245 101.307ZM528.422 100.275C522.671 99.8635 518.783 97.17 518.783 92.0995C518.783 87.1844 523.288 84.0799 530.335 84.0799C539.791 84.0799 542.461 88.945 543.184 91.4775H536.192C535.725 90.9221 534.223 89.1005 530.285 89.1005C527.126 89.1005 525.468 90.1335 525.468 91.7385C525.468 93.188 526.581 94.121 529.195 94.482L533.645 94.9485C540.748 95.565 543.657 98.2807 543.657 103.429C543.657 108.344 539.563 111.71 531.531 111.71C521.792 111.71 518.632 106.067 518.115 103.64H525.212C525.474 104.257 527.076 106.589 531.531 106.589C535.213 106.589 536.921 105.345 536.921 103.69C536.921 102.035 535.992 101.102 533.027 100.741C531.164 100.586 530.235 100.486 528.422 100.275ZM555.36 110.982H548.78V72.9059H555.36V89.206C556.238 87.6786 557.507 86.4112 559.036 85.5331C560.565 84.655 562.3 84.1977 564.064 84.2077C570.645 84.2077 575 89.0227 575 95.6927V110.982H568.325V97.0145C568.325 92.877 565.889 90.1335 561.951 90.1335C558.013 90.1335 555.371 92.9103 555.371 97.0145L555.36 110.982Z" fill="#1A4049"/>
<path d="M47.4131 173.212V174.955H41.5068V180.615H39.6611V166.875H48.6435V168.618H41.5068V173.212H47.4131ZM55.9755 170.156C57.0282 170.156 57.9032 170.375 58.6005 170.813C59.2977 171.25 59.8173 171.845 60.1591 172.597C60.5145 173.349 60.6923 174.196 60.6923 175.14V176.145H52.8173C52.8993 176.719 53.0975 177.245 53.412 177.724C53.7265 178.202 54.1366 178.585 54.6425 178.872C55.1483 179.146 55.7294 179.282 56.3856 179.282C57.1239 179.282 57.8143 179.098 58.4569 178.729C59.0995 178.346 59.6395 177.929 60.077 177.478L60.0565 179.303C59.8651 179.535 59.578 179.781 59.1952 180.041C58.8261 180.287 58.3954 180.492 57.9032 180.656C57.4247 180.834 56.9188 180.923 56.3856 180.923C55.3466 180.923 54.4237 180.677 53.6171 180.185C52.8104 179.693 52.1747 179.043 51.7099 178.236C51.2587 177.416 51.0331 176.521 51.0331 175.55C51.0331 174.579 51.245 173.684 51.6688 172.863C52.0927 172.043 52.6737 171.387 53.412 170.895C54.164 170.402 55.0184 170.156 55.9755 170.156ZM55.9755 171.797C55.1278 171.797 54.4306 172.084 53.8837 172.658C53.3368 173.219 52.995 173.902 52.8583 174.709H59.0311C58.9628 174.039 58.7714 173.492 58.4569 173.068C58.1561 172.645 57.787 172.33 57.3495 172.125C56.912 171.906 56.454 171.797 55.9755 171.797ZM67.2654 170.156C67.8533 170.156 68.4481 170.3 69.0496 170.587C69.6649 170.86 70.1912 171.243 70.6287 171.735V170.361H72.3104V180.615H70.6287V178.872C70.2733 179.419 69.7879 179.898 69.1727 180.308C68.5711 180.718 67.8807 180.923 67.1014 180.923C66.2264 180.923 65.4266 180.704 64.702 180.267C63.9774 179.816 63.3963 179.193 62.9588 178.401C62.535 177.608 62.3231 176.692 62.3231 175.652C62.3231 174.518 62.535 173.54 62.9588 172.72C63.3963 171.9 63.991 171.271 64.743 170.833C65.4949 170.382 66.3358 170.156 67.2654 170.156ZM67.5731 171.797C66.8348 171.797 66.2059 171.982 65.6863 172.351C65.1668 172.72 64.7635 173.198 64.4764 173.786C64.2029 174.36 64.0662 174.983 64.0662 175.652C64.0662 176.309 64.2029 176.917 64.4764 177.478C64.7498 178.025 65.1326 178.462 65.6248 178.79C66.1307 179.118 66.7117 179.282 67.368 179.282C67.9969 179.282 68.5574 179.118 69.0496 178.79C69.5418 178.462 69.9315 178.011 70.2186 177.437C70.5057 176.849 70.6424 176.193 70.6287 175.468L70.6082 173.499C70.1844 172.966 69.7264 172.549 69.2342 172.248C68.7557 171.947 68.202 171.797 67.5731 171.797ZM78.2068 167.408V170.361H81.2009V171.941H78.2068V177.949C78.2068 178.373 78.3161 178.708 78.5349 178.954C78.7536 179.2 79.0886 179.323 79.5398 179.323C79.9499 179.323 80.2917 179.276 80.5652 179.18C80.8386 179.07 81.0779 178.954 81.2829 178.831V180.205C81.0095 180.424 80.7156 180.595 80.4011 180.718C80.1003 180.855 79.6902 180.923 79.1706 180.923C78.2956 180.923 77.6325 180.663 77.1814 180.144C76.7439 179.61 76.5251 178.906 76.5251 178.031V171.941H74.5564V171.448C75.2263 171.148 75.7868 170.655 76.238 169.972C76.6892 169.275 77.0857 168.42 77.4275 167.408H78.2068ZM92.2243 170.361V176.432C92.2243 177.334 92.0329 178.113 91.65 178.77C91.2672 179.426 90.7477 179.932 90.0915 180.287C89.4352 180.643 88.6969 180.82 87.8766 180.82C87.0563 180.82 86.318 180.643 85.6618 180.287C85.0055 179.932 84.486 179.426 84.1032 178.77C83.7204 178.113 83.529 177.334 83.529 176.432V170.361H85.2721V176.432C85.2721 177.32 85.5319 178.004 86.0514 178.483C86.5846 178.947 87.193 179.18 87.8766 179.18C88.5602 179.18 89.1618 178.947 89.6813 178.483C90.2145 178.004 90.4811 177.32 90.4811 176.432V170.361H92.2243ZM96.6646 170.361V172.412C97.0611 171.729 97.5396 171.182 98.1002 170.772C98.6607 170.361 99.2349 170.156 99.8228 170.156C100.219 170.156 100.575 170.225 100.889 170.361V172.31C100.452 172.05 100.014 171.92 99.5767 171.92C98.8795 171.92 98.3121 172.166 97.8746 172.658C97.4508 173.151 97.0474 173.738 96.6646 174.422V180.615H94.983V170.361H96.6646ZM106.847 170.156C107.9 170.156 108.775 170.375 109.472 170.813C110.169 171.25 110.689 171.845 111.031 172.597C111.386 173.349 111.564 174.196 111.564 175.14V176.145H103.689C103.771 176.719 103.969 177.245 104.284 177.724C104.598 178.202 105.008 178.585 105.514 178.872C106.02 179.146 106.601 179.282 107.257 179.282C107.996 179.282 108.686 179.098 109.329 178.729C109.971 178.346 110.511 177.929 110.949 177.478L110.928 179.303C110.737 179.535 110.45 179.781 110.067 180.041C109.698 180.287 109.267 180.492 108.775 180.656C108.296 180.834 107.791 180.923 107.257 180.923C106.218 180.923 105.295 180.677 104.489 180.185C103.682 179.693 103.046 179.043 102.582 178.236C102.13 177.416 101.905 176.521 101.905 175.55C101.905 174.579 102.117 173.684 102.541 172.863C102.964 172.043 103.545 171.387 104.284 170.895C105.036 170.402 105.89 170.156 106.847 170.156ZM106.847 171.797C105.999 171.797 105.302 172.084 104.755 172.658C104.208 173.219 103.867 173.902 103.73 174.709H109.903C109.834 174.039 109.643 173.492 109.329 173.068C109.028 172.645 108.659 172.33 108.221 172.125C107.784 171.906 107.326 171.797 106.847 171.797ZM122.475 167.408V170.361H125.469V171.941H122.475V177.949C122.475 178.373 122.584 178.708 122.803 178.954C123.022 179.2 123.357 179.323 123.808 179.323C124.218 179.323 124.56 179.276 124.833 179.18C125.107 179.07 125.346 178.954 125.551 178.831V180.205C125.278 180.424 124.984 180.595 124.669 180.718C124.368 180.855 123.958 180.923 123.439 180.923C122.564 180.923 121.901 180.663 121.45 180.144C121.012 179.61 120.793 178.906 120.793 178.031V171.941H118.825V171.448C119.494 171.148 120.055 170.655 120.506 169.972C120.957 169.275 121.354 168.42 121.696 167.408H122.475ZM132.74 170.156C133.779 170.156 134.701 170.402 135.508 170.895C136.315 171.387 136.944 172.043 137.395 172.863C137.86 173.684 138.092 174.579 138.092 175.55C138.092 176.521 137.86 177.416 137.395 178.236C136.944 179.043 136.315 179.693 135.508 180.185C134.701 180.677 133.779 180.923 132.74 180.923C131.7 180.923 130.778 180.677 129.971 180.185C129.164 179.693 128.529 179.043 128.064 178.236C127.613 177.416 127.387 176.521 127.387 175.55C127.387 174.579 127.613 173.684 128.064 172.863C128.529 172.043 129.164 171.387 129.971 170.895C130.778 170.402 131.7 170.156 132.74 170.156ZM132.74 171.797C132.015 171.797 131.379 171.975 130.832 172.33C130.285 172.672 129.862 173.13 129.561 173.704C129.274 174.265 129.13 174.88 129.13 175.55C129.13 176.206 129.274 176.821 129.561 177.396C129.862 177.956 130.285 178.414 130.832 178.77C131.379 179.111 132.015 179.282 132.74 179.282C133.478 179.282 134.114 179.111 134.647 178.77C135.194 178.414 135.611 177.956 135.898 177.396C136.198 176.821 136.349 176.206 136.349 175.55C136.349 174.88 136.198 174.265 135.898 173.704C135.611 173.13 135.194 172.672 134.647 172.33C134.114 171.975 133.478 171.797 132.74 171.797ZM144.665 170.156C145.253 170.156 145.848 170.3 146.449 170.587C147.065 170.86 147.591 171.243 148.028 171.735V170.361H149.71V180.41C149.71 181.627 149.464 182.639 148.972 183.445C148.48 184.252 147.823 184.854 147.003 185.25C146.183 185.647 145.287 185.845 144.317 185.845C143.688 185.845 143.148 185.77 142.696 185.619C142.259 185.483 141.883 185.305 141.569 185.086C141.254 184.881 140.967 184.683 140.707 184.491V182.687C140.912 182.837 141.179 183.028 141.507 183.261C141.849 183.507 142.252 183.726 142.717 183.917C143.195 184.109 143.729 184.204 144.317 184.204C144.986 184.204 145.602 184.081 146.162 183.835C146.723 183.589 147.174 183.227 147.516 182.748C147.858 182.27 148.028 181.695 148.028 181.026V178.872C147.673 179.419 147.188 179.898 146.572 180.308C145.971 180.718 145.28 180.923 144.501 180.923C143.626 180.923 142.826 180.704 142.102 180.267C141.377 179.816 140.796 179.193 140.359 178.401C139.935 177.608 139.723 176.692 139.723 175.652C139.723 174.518 139.935 173.54 140.359 172.72C140.796 171.9 141.391 171.271 142.143 170.833C142.895 170.382 143.736 170.156 144.665 170.156ZM144.973 171.818C144.235 171.818 143.606 172.002 143.086 172.371C142.567 172.727 142.163 173.198 141.876 173.786C141.603 174.36 141.466 174.983 141.466 175.652C141.466 176.309 141.603 176.91 141.876 177.457C142.15 178.004 142.532 178.442 143.025 178.77C143.53 179.098 144.111 179.262 144.768 179.262C145.397 179.262 145.957 179.098 146.449 178.77C146.942 178.442 147.331 177.99 147.618 177.416C147.905 176.842 148.042 176.193 148.028 175.468L148.008 173.499C147.584 172.966 147.126 172.556 146.634 172.269C146.155 171.968 145.602 171.818 144.973 171.818ZM157.001 170.156C157.589 170.156 158.184 170.3 158.785 170.587C159.4 170.86 159.927 171.243 160.364 171.735V170.361H162.046V180.41C162.046 181.627 161.8 182.639 161.308 183.445C160.816 184.252 160.159 184.854 159.339 185.25C158.519 185.647 157.623 185.845 156.652 185.845C156.024 185.845 155.483 185.77 155.032 185.619C154.595 185.483 154.219 185.305 153.904 185.086C153.59 184.881 153.303 184.683 153.043 184.491V182.687C153.248 182.837 153.515 183.028 153.843 183.261C154.185 183.507 154.588 183.726 155.053 183.917C155.531 184.109 156.065 184.204 156.652 184.204C157.322 184.204 157.938 184.081 158.498 183.835C159.059 183.589 159.51 183.227 159.852 182.748C160.193 182.27 160.364 181.695 160.364 181.026V178.872C160.009 179.419 159.524 179.898 158.908 180.308C158.307 180.718 157.616 180.923 156.837 180.923C155.962 180.923 155.162 180.704 154.438 180.267C153.713 179.816 153.132 179.193 152.694 178.401C152.271 177.608 152.059 176.692 152.059 175.652C152.059 174.518 152.271 173.54 152.694 172.72C153.132 171.9 153.727 171.271 154.479 170.833C155.231 170.382 156.071 170.156 157.001 170.156ZM157.309 171.818C156.57 171.818 155.941 172.002 155.422 172.371C154.902 172.727 154.499 173.198 154.212 173.786C153.939 174.36 153.802 174.983 153.802 175.652C153.802 176.309 153.939 176.91 154.212 177.457C154.485 178.004 154.868 178.442 155.36 178.77C155.866 179.098 156.447 179.262 157.104 179.262C157.733 179.262 158.293 179.098 158.785 178.77C159.277 178.442 159.667 177.99 159.954 177.416C160.241 176.842 160.378 176.193 160.364 175.468L160.344 173.499C159.92 172.966 159.462 172.556 158.97 172.269C158.491 171.968 157.938 171.818 157.309 171.818ZM166.794 165.85V180.615H165.112V165.85H166.794ZM174.085 170.156C175.138 170.156 176.013 170.375 176.71 170.813C177.407 171.25 177.927 171.845 178.268 172.597C178.624 173.349 178.802 174.196 178.802 175.14V176.145H170.927C171.009 176.719 171.207 177.245 171.521 177.724C171.836 178.202 172.246 178.585 172.752 178.872C173.258 179.146 173.839 179.282 174.495 179.282C175.233 179.282 175.924 179.098 176.566 178.729C177.209 178.346 177.749 177.929 178.186 177.478L178.166 179.303C177.975 179.535 177.687 179.781 177.305 180.041C176.935 180.287 176.505 180.492 176.013 180.656C175.534 180.834 175.028 180.923 174.495 180.923C173.456 180.923 172.533 180.677 171.726 180.185C170.92 179.693 170.284 179.043 169.819 178.236C169.368 177.416 169.143 176.521 169.143 175.55C169.143 174.579 169.354 173.684 169.778 172.863C170.202 172.043 170.783 171.387 171.521 170.895C172.273 170.402 173.128 170.156 174.085 170.156ZM174.085 171.797C173.237 171.797 172.54 172.084 171.993 172.658C171.446 173.219 171.104 173.902 170.968 174.709H177.141C177.072 174.039 176.881 173.492 176.566 173.068C176.266 172.645 175.896 172.33 175.459 172.125C175.021 171.906 174.563 171.797 174.085 171.797ZM188.564 170.361V171.674C188.892 171.305 189.309 170.963 189.815 170.649C190.335 170.32 190.943 170.156 191.64 170.156C192.379 170.156 193.069 170.334 193.712 170.69C194.354 171.031 194.846 171.551 195.188 172.248C195.667 171.674 196.186 171.182 196.747 170.772C197.307 170.361 197.964 170.156 198.716 170.156C199.413 170.156 200.062 170.314 200.664 170.628C201.279 170.929 201.771 171.394 202.14 172.023C202.523 172.638 202.715 173.417 202.715 174.36V180.615H201.033L201.012 174.525C201.012 173.636 200.78 172.959 200.315 172.494C199.864 172.029 199.235 171.797 198.428 171.797C197.841 171.797 197.328 171.982 196.89 172.351C196.453 172.72 196.036 173.151 195.639 173.643V180.615H193.958L193.937 174.525C193.937 173.636 193.705 172.959 193.24 172.494C192.789 172.029 192.16 171.797 191.353 171.797C190.793 171.797 190.28 171.961 189.815 172.289C189.364 172.617 188.947 173.014 188.564 173.479V180.615H186.883V170.361H188.564ZM209.698 170.156C210.286 170.156 210.881 170.3 211.482 170.587C212.097 170.86 212.624 171.243 213.061 171.735V170.361H214.743V180.615H213.061V178.872C212.706 179.419 212.22 179.898 211.605 180.308C211.004 180.718 210.313 180.923 209.534 180.923C208.659 180.923 207.859 180.704 207.134 180.267C206.41 179.816 205.829 179.193 205.391 178.401C204.967 177.608 204.756 176.692 204.756 175.652C204.756 174.518 204.967 173.54 205.391 172.72C205.829 171.9 206.424 171.271 207.175 170.833C207.927 170.382 208.768 170.156 209.698 170.156ZM210.006 171.797C209.267 171.797 208.638 171.982 208.119 172.351C207.599 172.72 207.196 173.198 206.909 173.786C206.635 174.36 206.499 174.983 206.499 175.652C206.499 176.309 206.635 176.917 206.909 177.478C207.182 178.025 207.565 178.462 208.057 178.79C208.563 179.118 209.144 179.282 209.8 179.282C210.429 179.282 210.99 179.118 211.482 178.79C211.974 178.462 212.364 178.011 212.651 177.437C212.938 176.849 213.075 176.193 213.061 175.468L213.041 173.499C212.617 172.966 212.159 172.549 211.667 172.248C211.188 171.947 210.634 171.797 210.006 171.797ZM219.491 170.361V171.982C219.71 171.708 219.99 171.435 220.332 171.161C220.673 170.874 221.056 170.635 221.48 170.443C221.918 170.252 222.369 170.156 222.834 170.156C223.531 170.156 224.167 170.314 224.741 170.628C225.315 170.929 225.773 171.394 226.115 172.023C226.457 172.638 226.628 173.417 226.628 174.36V180.615H224.946L224.925 174.525C224.925 173.636 224.727 172.959 224.331 172.494C223.948 172.029 223.353 171.797 222.546 171.797C222 171.797 221.453 172.002 220.906 172.412C220.373 172.809 219.901 173.274 219.491 173.807V180.615H217.809V170.361H219.491ZM233.611 170.156C234.199 170.156 234.793 170.3 235.395 170.587C236.01 170.86 236.537 171.243 236.974 171.735V170.361H238.656V180.615H236.974V178.872C236.619 179.419 236.133 179.898 235.518 180.308C234.917 180.718 234.226 180.923 233.447 180.923C232.572 180.923 231.772 180.704 231.047 180.267C230.323 179.816 229.742 179.193 229.304 178.401C228.88 177.608 228.668 176.692 228.668 175.652C228.668 174.518 228.88 173.54 229.304 172.72C229.742 171.9 230.336 171.271 231.088 170.833C231.84 170.382 232.681 170.156 233.611 170.156ZM233.918 171.797C233.18 171.797 232.551 171.982 232.032 172.351C231.512 172.72 231.109 173.198 230.822 173.786C230.548 174.36 230.412 174.983 230.412 175.652C230.412 176.309 230.548 176.917 230.822 177.478C231.095 178.025 231.478 178.462 231.97 178.79C232.476 179.118 233.057 179.282 233.713 179.282C234.342 179.282 234.903 179.118 235.395 178.79C235.887 178.462 236.277 178.011 236.564 177.437C236.851 176.849 236.988 176.193 236.974 175.468L236.954 173.499C236.53 172.966 236.072 172.549 235.58 172.248C235.101 171.947 234.547 171.797 233.918 171.797ZM245.947 170.156C246.535 170.156 247.129 170.3 247.731 170.587C248.346 170.86 248.873 171.243 249.31 171.735V170.361H250.992V180.41C250.992 181.627 250.746 182.639 250.253 183.445C249.761 184.252 249.105 184.854 248.285 185.25C247.464 185.647 246.569 185.845 245.598 185.845C244.969 185.845 244.429 185.77 243.978 185.619C243.54 185.483 243.165 185.305 242.85 185.086C242.536 184.881 242.248 184.683 241.989 184.491V182.687C242.194 182.837 242.46 183.028 242.789 183.261C243.13 183.507 243.534 183.726 243.998 183.917C244.477 184.109 245.01 184.204 245.598 184.204C246.268 184.204 246.883 184.081 247.444 183.835C248.004 183.589 248.456 183.227 248.797 182.748C249.139 182.27 249.31 181.695 249.31 181.026V178.872C248.955 179.419 248.469 179.898 247.854 180.308C247.252 180.718 246.562 180.923 245.783 180.923C244.908 180.923 244.108 180.704 243.383 180.267C242.659 179.816 242.078 179.193 241.64 178.401C241.216 177.608 241.004 176.692 241.004 175.652C241.004 174.518 241.216 173.54 241.64 172.72C242.078 171.9 242.672 171.271 243.424 170.833C244.176 170.382 245.017 170.156 245.947 170.156ZM246.254 171.818C245.516 171.818 244.887 172.002 244.368 172.371C243.848 172.727 243.445 173.198 243.158 173.786C242.884 174.36 242.748 174.983 242.748 175.652C242.748 176.309 242.884 176.91 243.158 177.457C243.431 178.004 243.814 178.442 244.306 178.77C244.812 179.098 245.393 179.262 246.049 179.262C246.678 179.262 247.239 179.098 247.731 178.77C248.223 178.442 248.613 177.99 248.9 177.416C249.187 176.842 249.324 176.193 249.31 175.468L249.29 173.499C248.866 172.966 248.408 172.556 247.915 172.269C247.437 171.968 246.883 171.818 246.254 171.818ZM258.283 170.156C259.335 170.156 260.21 170.375 260.908 170.813C261.605 171.25 262.124 171.845 262.466 172.597C262.822 173.349 262.999 174.196 262.999 175.14V176.145H255.124C255.206 176.719 255.405 177.245 255.719 177.724C256.034 178.202 256.444 178.585 256.95 178.872C257.455 179.146 258.036 179.282 258.693 179.282C259.431 179.282 260.121 179.098 260.764 178.729C261.407 178.346 261.947 177.929 262.384 177.478L262.364 179.303C262.172 179.535 261.885 179.781 261.502 180.041C261.133 180.287 260.703 180.492 260.21 180.656C259.732 180.834 259.226 180.923 258.693 180.923C257.654 180.923 256.731 180.677 255.924 180.185C255.118 179.693 254.482 179.043 254.017 178.236C253.566 177.416 253.34 176.521 253.34 175.55C253.34 174.579 253.552 173.684 253.976 172.863C254.4 172.043 254.981 171.387 255.719 170.895C256.471 170.402 257.326 170.156 258.283 170.156ZM258.283 171.797C257.435 171.797 256.738 172.084 256.191 172.658C255.644 173.219 255.302 173.902 255.165 174.709H261.338C261.27 174.039 261.078 173.492 260.764 173.068C260.463 172.645 260.094 172.33 259.657 172.125C259.219 171.906 258.761 171.797 258.283 171.797ZM267.03 170.361V171.674C267.358 171.305 267.775 170.963 268.281 170.649C268.8 170.32 269.408 170.156 270.106 170.156C270.844 170.156 271.534 170.334 272.177 170.69C272.82 171.031 273.312 171.551 273.654 172.248C274.132 171.674 274.652 171.182 275.212 170.772C275.773 170.361 276.429 170.156 277.181 170.156C277.878 170.156 278.528 170.314 279.129 170.628C279.744 170.929 280.237 171.394 280.606 172.023C280.989 172.638 281.18 173.417 281.18 174.36V180.615H279.498L279.478 174.525C279.478 173.636 279.245 172.959 278.781 172.494C278.329 172.029 277.7 171.797 276.894 171.797C276.306 171.797 275.793 171.982 275.356 172.351C274.918 172.72 274.501 173.151 274.105 173.643V180.615H272.423L272.403 174.525C272.403 173.636 272.17 172.959 271.705 172.494C271.254 172.029 270.625 171.797 269.819 171.797C269.258 171.797 268.745 171.961 268.281 172.289C267.829 172.617 267.412 173.014 267.03 173.479V180.615H265.348V170.361H267.03ZM288.163 170.156C289.216 170.156 290.091 170.375 290.788 170.813C291.486 171.25 292.005 171.845 292.347 172.597C292.702 173.349 292.88 174.196 292.88 175.14V176.145H285.005C285.087 176.719 285.285 177.245 285.6 177.724C285.914 178.202 286.324 178.585 286.83 178.872C287.336 179.146 287.917 179.282 288.573 179.282C289.312 179.282 290.002 179.098 290.645 178.729C291.287 178.346 291.827 177.929 292.265 177.478L292.244 179.303C292.053 179.535 291.766 179.781 291.383 180.041C291.014 180.287 290.583 180.492 290.091 180.656C289.613 180.834 289.107 180.923 288.573 180.923C287.534 180.923 286.612 180.677 285.805 180.185C284.998 179.693 284.363 179.043 283.898 178.236C283.446 177.416 283.221 176.521 283.221 175.55C283.221 174.579 283.433 173.684 283.857 172.863C284.28 172.043 284.862 171.387 285.6 170.895C286.352 170.402 287.206 170.156 288.163 170.156ZM288.163 171.797C287.316 171.797 286.618 172.084 286.071 172.658C285.525 173.219 285.183 173.902 285.046 174.709H291.219C291.151 174.039 290.959 173.492 290.645 173.068C290.344 172.645 289.975 172.33 289.537 172.125C289.1 171.906 288.642 171.797 288.163 171.797ZM296.91 170.361V171.982C297.129 171.708 297.409 171.435 297.751 171.161C298.093 170.874 298.476 170.635 298.9 170.443C299.337 170.252 299.788 170.156 300.253 170.156C300.95 170.156 301.586 170.314 302.16 170.628C302.734 170.929 303.193 171.394 303.534 172.023C303.876 172.638 304.047 173.417 304.047 174.36V180.615H302.365L302.345 174.525C302.345 173.636 302.147 172.959 301.75 172.494C301.367 172.029 300.773 171.797 299.966 171.797C299.419 171.797 298.872 172.002 298.325 172.412C297.792 172.809 297.32 173.274 296.91 173.807V180.615H295.229V170.361H296.91ZM309.636 167.408V170.361H312.63V171.941H309.636V177.949C309.636 178.373 309.745 178.708 309.964 178.954C310.183 179.2 310.518 179.323 310.969 179.323C311.379 179.323 311.721 179.276 311.994 179.18C312.268 179.07 312.507 178.954 312.712 178.831V180.205C312.439 180.424 312.145 180.595 311.83 180.718C311.529 180.855 311.119 180.923 310.6 180.923C309.725 180.923 309.062 180.663 308.61 180.144C308.173 179.61 307.954 178.906 307.954 178.031V171.941H305.985V171.448C306.655 171.148 307.216 170.655 307.667 169.972C308.118 169.275 308.515 168.42 308.857 167.408H309.636ZM324.054 170.156C324.655 170.156 325.216 170.245 325.735 170.423C326.255 170.587 326.631 170.758 326.863 170.936V172.74C326.576 172.522 326.186 172.31 325.694 172.105C325.202 171.9 324.696 171.797 324.177 171.797C323.534 171.797 323.049 171.947 322.721 172.248C322.406 172.549 322.249 172.863 322.249 173.192C322.249 173.451 322.338 173.718 322.516 173.991C322.707 174.251 323.035 174.463 323.5 174.627L325.223 175.242C325.892 175.475 326.391 175.81 326.72 176.247C327.048 176.685 327.212 177.197 327.212 177.785C327.212 178.359 327.048 178.886 326.72 179.364C326.405 179.843 325.961 180.226 325.387 180.513C324.826 180.786 324.177 180.923 323.438 180.923C323.042 180.923 322.625 180.868 322.187 180.759C321.764 180.663 321.381 180.547 321.039 180.41C320.697 180.26 320.444 180.13 320.28 180.021V178.216C320.472 178.353 320.738 178.51 321.08 178.688C321.435 178.852 321.811 178.995 322.208 179.118C322.604 179.228 322.974 179.282 323.315 179.282C323.958 179.282 324.464 179.139 324.833 178.852C325.216 178.565 325.407 178.209 325.407 177.785C325.407 177.457 325.277 177.197 325.017 177.006C324.771 176.815 324.409 176.63 323.931 176.452L322.413 175.899C321.62 175.598 321.094 175.222 320.834 174.771C320.574 174.306 320.444 173.779 320.444 173.192C320.444 172.317 320.772 171.592 321.429 171.018C322.085 170.443 322.96 170.156 324.054 170.156ZM333.99 170.156C335.029 170.156 335.952 170.402 336.759 170.895C337.565 171.387 338.194 172.043 338.645 172.863C339.11 173.684 339.343 174.579 339.343 175.55C339.343 176.521 339.11 177.416 338.645 178.236C338.194 179.043 337.565 179.693 336.759 180.185C335.952 180.677 335.029 180.923 333.99 180.923C332.951 180.923 332.028 180.677 331.221 180.185C330.415 179.693 329.779 179.043 329.314 178.236C328.863 177.416 328.638 176.521 328.638 175.55C328.638 174.579 328.863 173.684 329.314 172.863C329.779 172.043 330.415 171.387 331.221 170.895C332.028 170.402 332.951 170.156 333.99 170.156ZM333.99 171.797C333.265 171.797 332.63 171.975 332.083 172.33C331.536 172.672 331.112 173.13 330.811 173.704C330.524 174.265 330.381 174.88 330.381 175.55C330.381 176.206 330.524 176.821 330.811 177.396C331.112 177.956 331.536 178.414 332.083 178.77C332.63 179.111 333.265 179.282 333.99 179.282C334.728 179.282 335.364 179.111 335.897 178.77C336.444 178.414 336.861 177.956 337.148 177.396C337.449 176.821 337.599 176.206 337.599 175.55C337.599 174.88 337.449 174.265 337.148 173.704C336.861 173.13 336.444 172.672 335.897 172.33C335.364 171.975 334.728 171.797 333.99 171.797ZM343.373 165.85V180.615H341.691V165.85H343.373ZM354.827 170.361V176.432C354.827 177.334 354.635 178.113 354.253 178.77C353.87 179.426 353.35 179.932 352.694 180.287C352.038 180.643 351.299 180.82 350.479 180.82C349.659 180.82 348.921 180.643 348.264 180.287C347.608 179.932 347.089 179.426 346.706 178.77C346.323 178.113 346.132 177.334 346.132 176.432V170.361H347.875V176.432C347.875 177.32 348.134 178.004 348.654 178.483C349.187 178.947 349.796 179.18 350.479 179.18C351.163 179.18 351.764 178.947 352.284 178.483C352.817 178.004 353.084 177.32 353.084 176.432V170.361H354.827ZM360.416 167.408V170.361H363.41V171.941H360.416V177.949C360.416 178.373 360.525 178.708 360.744 178.954C360.962 179.2 361.297 179.323 361.749 179.323C362.159 179.323 362.501 179.276 362.774 179.18C363.047 179.07 363.287 178.954 363.492 178.831V180.205C363.218 180.424 362.924 180.595 362.61 180.718C362.309 180.855 361.899 180.923 361.379 180.923C360.504 180.923 359.841 180.663 359.39 180.144C358.953 179.61 358.734 178.906 358.734 178.031V171.941H356.765V171.448C357.435 171.148 357.996 170.655 358.447 169.972C358.898 169.275 359.294 168.42 359.636 167.408H360.416ZM367.686 165.44C368.083 165.44 368.411 165.583 368.67 165.87C368.944 166.144 369.081 166.465 369.081 166.834C369.081 167.19 368.944 167.511 368.67 167.798C368.411 168.085 368.083 168.229 367.686 168.229C367.29 168.229 366.955 168.085 366.681 167.798C366.421 167.511 366.292 167.19 366.292 166.834C366.292 166.465 366.421 166.144 366.681 165.87C366.955 165.583 367.29 165.44 367.686 165.44ZM368.732 170.361V180.615H367.05V171.941H365.43V170.361H368.732ZM376.577 170.156C377.616 170.156 378.538 170.402 379.345 170.895C380.152 171.387 380.781 172.043 381.232 172.863C381.697 173.684 381.929 174.579 381.929 175.55C381.929 176.521 381.697 177.416 381.232 178.236C380.781 179.043 380.152 179.693 379.345 180.185C378.538 180.677 377.616 180.923 376.577 180.923C375.538 180.923 374.615 180.677 373.808 180.185C373.001 179.693 372.366 179.043 371.901 178.236C371.45 177.416 371.224 176.521 371.224 175.55C371.224 174.579 371.45 173.684 371.901 172.863C372.366 172.043 373.001 171.387 373.808 170.895C374.615 170.402 375.538 170.156 376.577 170.156ZM376.577 171.797C375.852 171.797 375.216 171.975 374.669 172.33C374.122 172.672 373.699 173.13 373.398 173.704C373.111 174.265 372.967 174.88 372.967 175.55C372.967 176.206 373.111 176.821 373.398 177.396C373.699 177.956 374.122 178.414 374.669 178.77C375.216 179.111 375.852 179.282 376.577 179.282C377.315 179.282 377.951 179.111 378.484 178.77C379.031 178.414 379.448 177.956 379.735 177.396C380.036 176.821 380.186 176.206 380.186 175.55C380.186 174.88 380.036 174.265 379.735 173.704C379.448 173.13 379.031 172.672 378.484 172.33C377.951 171.975 377.315 171.797 376.577 171.797ZM385.959 170.361V171.982C386.178 171.708 386.458 171.435 386.8 171.161C387.142 170.874 387.525 170.635 387.949 170.443C388.386 170.252 388.837 170.156 389.302 170.156C389.999 170.156 390.635 170.314 391.209 170.628C391.784 170.929 392.242 171.394 392.583 172.023C392.925 172.638 393.096 173.417 393.096 174.36V180.615H391.414L391.394 174.525C391.394 173.636 391.196 172.959 390.799 172.494C390.416 172.029 389.822 171.797 389.015 171.797C388.468 171.797 387.921 172.002 387.374 172.412C386.841 172.809 386.369 173.274 385.959 173.807V180.615H384.278V170.361H385.959ZM415.04 170.361L411.451 180.615H410.405L407.596 173.376L404.786 180.615H403.74L400.152 170.361H402.161L404.438 177.56L407.124 170.361H408.068L410.754 177.56L413.03 170.361H415.04ZM418.312 165.44C418.708 165.44 419.036 165.583 419.296 165.87C419.569 166.144 419.706 166.465 419.706 166.834C419.706 167.19 419.569 167.511 419.296 167.798C419.036 168.085 418.708 168.229 418.312 168.229C417.915 168.229 417.58 168.085 417.307 167.798C417.047 167.511 416.917 167.19 416.917 166.834C416.917 166.465 417.047 166.144 417.307 165.87C417.58 165.583 417.915 165.44 418.312 165.44ZM419.358 170.361V180.615H417.676V171.941H416.056V170.361H419.358ZM425.397 167.408V170.361H428.392V171.941H425.397V177.949C425.397 178.373 425.507 178.708 425.726 178.954C425.944 179.2 426.279 179.323 426.73 179.323C427.141 179.323 427.482 179.276 427.756 179.18C428.029 179.07 428.269 178.954 428.474 178.831V180.205C428.2 180.424 427.906 180.595 427.592 180.718C427.291 180.855 426.881 180.923 426.361 180.923C425.486 180.923 424.823 180.663 424.372 180.144C423.935 179.61 423.716 178.906 423.716 178.031V171.941H421.747V171.448C422.417 171.148 422.978 170.655 423.429 169.972C423.88 169.275 424.276 168.42 424.618 167.408H425.397ZM436.052 170.156C436.749 170.156 437.385 170.314 437.959 170.628C438.533 170.929 438.991 171.394 439.333 172.023C439.675 172.638 439.846 173.417 439.846 174.36V180.615H438.164L438.143 174.525C438.143 173.636 437.945 172.959 437.549 172.494C437.166 172.029 436.571 171.797 435.765 171.797C435.218 171.797 434.671 172.002 434.124 172.412C433.591 172.809 433.119 173.274 432.709 173.807V180.615H431.027V165.85H432.709V171.982C432.928 171.708 433.208 171.435 433.55 171.161C433.892 170.874 434.274 170.635 434.698 170.443C435.136 170.252 435.587 170.156 436.052 170.156ZM456.253 178.975V180.615H448.808V178.975H451.536V170.033C451.126 170.389 450.702 170.635 450.264 170.772C449.827 170.908 449.389 171.018 448.952 171.1V169.336C449.745 169.131 450.435 168.796 451.023 168.331C451.611 167.866 452.096 167.381 452.479 166.875H453.382V178.975H456.253ZM466.948 166.875V168.577H461.534V172.248C461.739 172.166 461.971 172.098 462.231 172.043C462.505 171.988 462.853 171.961 463.277 171.961C464.043 171.961 464.74 172.146 465.369 172.515C466.011 172.884 466.524 173.383 466.907 174.012C467.303 174.641 467.502 175.359 467.502 176.165C467.502 177.095 467.283 177.922 466.845 178.647C466.408 179.358 465.806 179.918 465.041 180.328C464.275 180.725 463.407 180.923 462.436 180.923C461.944 180.923 461.459 180.848 460.98 180.697C460.502 180.561 460.071 180.383 459.688 180.164C459.305 179.945 458.991 179.727 458.745 179.508V177.478C459.005 177.683 459.319 177.929 459.688 178.216C460.057 178.489 460.474 178.735 460.939 178.954C461.404 179.159 461.903 179.262 462.436 179.262C463.051 179.262 463.612 179.139 464.118 178.893C464.624 178.647 465.02 178.305 465.307 177.867C465.608 177.43 465.758 176.917 465.758 176.329C465.758 175.769 465.601 175.29 465.287 174.894C464.972 174.484 464.555 174.169 464.036 173.95C463.516 173.718 462.949 173.602 462.334 173.602C461.814 173.602 461.336 173.67 460.898 173.807C460.474 173.93 460.071 174.067 459.688 174.217V166.875H466.948ZM480.422 170.156C481.461 170.156 482.384 170.402 483.191 170.895C483.998 171.387 484.626 172.043 485.078 172.863C485.543 173.684 485.775 174.579 485.775 175.55C485.775 176.521 485.543 177.416 485.078 178.236C484.626 179.043 483.998 179.693 483.191 180.185C482.384 180.677 481.461 180.923 480.422 180.923C479.383 180.923 478.46 180.677 477.654 180.185C476.847 179.693 476.211 179.043 475.747 178.236C475.295 177.416 475.07 176.521 475.07 175.55C475.07 174.579 475.295 173.684 475.747 172.863C476.211 172.043 476.847 171.387 477.654 170.895C478.46 170.402 479.383 170.156 480.422 170.156ZM480.422 171.797C479.698 171.797 479.062 171.975 478.515 172.33C477.968 172.672 477.544 173.13 477.244 173.704C476.957 174.265 476.813 174.88 476.813 175.55C476.813 176.206 476.957 176.821 477.244 177.396C477.544 177.956 477.968 178.414 478.515 178.77C479.062 179.111 479.698 179.282 480.422 179.282C481.161 179.282 481.796 179.111 482.33 178.77C482.876 178.414 483.293 177.956 483.581 177.396C483.881 176.821 484.032 176.206 484.032 175.55C484.032 174.88 483.881 174.265 483.581 173.704C483.293 173.13 482.876 172.672 482.33 172.33C481.796 171.975 481.161 171.797 480.422 171.797ZM493.435 170.361V171.941H490.441V180.615H488.759V171.941H487.139V170.361H488.759V169.049C488.759 168.242 488.916 167.586 489.231 167.08C489.545 166.561 489.949 166.178 490.441 165.932C490.933 165.672 491.432 165.542 491.938 165.542C492.635 165.542 493.203 165.727 493.64 166.096V167.572C493.435 167.436 493.189 167.326 492.902 167.244C492.615 167.162 492.328 167.128 492.04 167.142C491.535 167.155 491.138 167.319 490.851 167.634C490.578 167.935 490.441 168.468 490.441 169.234V170.361H493.435ZM500.562 170.361V171.941H497.568V180.615H495.886V171.941H494.266V170.361H495.886V169.049C495.886 168.242 496.043 167.586 496.358 167.08C496.672 166.561 497.076 166.178 497.568 165.932C498.06 165.672 498.559 165.542 499.065 165.542C499.762 165.542 500.329 165.727 500.767 166.096V167.572C500.562 167.436 500.316 167.326 500.029 167.244C499.742 167.162 499.454 167.128 499.167 167.142C498.661 167.155 498.265 167.319 497.978 167.634C497.704 167.935 497.568 168.468 497.568 169.234V170.361H500.562ZM504.018 165.44C504.414 165.44 504.742 165.583 505.002 165.87C505.276 166.144 505.412 166.465 505.412 166.834C505.412 167.19 505.276 167.511 505.002 167.798C504.742 168.085 504.414 168.229 504.018 168.229C503.621 168.229 503.286 168.085 503.013 167.798C502.753 167.511 502.623 167.19 502.623 166.834C502.623 166.465 502.753 166.144 503.013 165.87C503.286 165.583 503.621 165.44 504.018 165.44ZM505.064 170.361V180.615H503.382V171.941H501.762V170.361H505.064ZM512.908 170.156C513.66 170.156 514.31 170.279 514.857 170.526C515.404 170.758 515.78 170.97 515.985 171.161V172.863C515.602 172.576 515.164 172.33 514.672 172.125C514.18 171.906 513.592 171.797 512.908 171.797C512.184 171.797 511.548 171.975 511.001 172.33C510.454 172.672 510.03 173.13 509.73 173.704C509.443 174.265 509.299 174.88 509.299 175.55C509.299 176.206 509.443 176.821 509.73 177.396C510.03 177.956 510.454 178.414 511.001 178.77C511.548 179.111 512.184 179.282 512.908 179.282C513.592 179.282 514.18 179.18 514.672 178.975C515.164 178.756 515.602 178.503 515.985 178.216V179.918C515.78 180.123 515.404 180.342 514.857 180.574C514.31 180.807 513.66 180.923 512.908 180.923C511.869 180.923 510.947 180.677 510.14 180.185C509.333 179.693 508.697 179.043 508.233 178.236C507.781 177.416 507.556 176.521 507.556 175.55C507.556 174.579 507.781 173.684 508.233 172.863C508.697 172.043 509.333 171.387 510.14 170.895C510.947 170.402 511.869 170.156 512.908 170.156ZM519.974 165.44C520.37 165.44 520.698 165.583 520.958 165.87C521.232 166.144 521.368 166.465 521.368 166.834C521.368 167.19 521.232 167.511 520.958 167.798C520.698 168.085 520.37 168.229 519.974 168.229C519.577 168.229 519.242 168.085 518.969 167.798C518.709 167.511 518.579 167.19 518.579 166.834C518.579 166.465 518.709 166.144 518.969 165.87C519.242 165.583 519.577 165.44 519.974 165.44ZM521.02 170.361V180.615H519.338V171.941H517.718V170.361H521.02ZM528.454 170.156C529.042 170.156 529.637 170.3 530.238 170.587C530.854 170.86 531.38 171.243 531.817 171.735V170.361H533.499V180.615H531.817V178.872C531.462 179.419 530.977 179.898 530.361 180.308C529.76 180.718 529.069 180.923 528.29 180.923C527.415 180.923 526.615 180.704 525.891 180.267C525.166 179.816 524.585 179.193 524.148 178.401C523.724 177.608 523.512 176.692 523.512 175.652C523.512 174.518 523.724 173.54 524.148 172.72C524.585 171.9 525.18 171.271 525.932 170.833C526.684 170.382 527.524 170.156 528.454 170.156ZM528.762 171.797C528.023 171.797 527.395 171.982 526.875 172.351C526.356 172.72 525.952 173.198 525.665 173.786C525.392 174.36 525.255 174.983 525.255 175.652C525.255 176.309 525.392 176.917 525.665 177.478C525.939 178.025 526.321 178.462 526.814 178.79C527.319 179.118 527.9 179.282 528.557 179.282C529.186 179.282 529.746 179.118 530.238 178.79C530.731 178.462 531.12 178.011 531.407 177.437C531.694 176.849 531.831 176.193 531.817 175.468L531.797 173.499C531.373 172.966 530.915 172.549 530.423 172.248C529.944 171.947 529.391 171.797 528.762 171.797ZM538.247 165.85V180.615H536.565V165.85H538.247ZM551.27 170.156C551.858 170.156 552.453 170.3 553.055 170.587C553.67 170.86 554.196 171.243 554.634 171.735V170.361H556.315V180.615H554.634V178.872C554.278 179.419 553.793 179.898 553.178 180.308C552.576 180.718 551.886 180.923 551.106 180.923C550.231 180.923 549.431 180.704 548.707 180.267C547.982 179.816 547.401 179.193 546.964 178.401C546.54 177.608 546.328 176.692 546.328 175.652C546.328 174.518 546.54 173.54 546.964 172.72C547.401 171.9 547.996 171.271 548.748 170.833C549.5 170.382 550.341 170.156 551.27 170.156ZM551.578 171.797C550.84 171.797 550.211 171.982 549.691 172.351C549.172 172.72 548.768 173.198 548.481 173.786C548.208 174.36 548.071 174.983 548.071 175.652C548.071 176.309 548.208 176.917 548.481 177.478C548.755 178.025 549.138 178.462 549.63 178.79C550.136 179.118 550.717 179.282 551.373 179.282C552.002 179.282 552.562 179.118 553.055 178.79C553.547 178.462 553.936 178.011 554.223 177.437C554.511 176.849 554.647 176.193 554.634 175.468L554.613 173.499C554.189 172.966 553.731 172.549 553.239 172.248C552.761 171.947 552.207 171.797 551.578 171.797ZM561.063 170.361V171.982C561.282 171.708 561.562 171.435 561.904 171.161C562.246 170.874 562.629 170.635 563.052 170.443C563.49 170.252 563.941 170.156 564.406 170.156C565.103 170.156 565.739 170.314 566.313 170.628C566.887 170.929 567.345 171.394 567.687 172.023C568.029 172.638 568.2 173.417 568.2 174.36V180.615H566.518L566.498 174.525C566.498 173.636 566.3 172.959 565.903 172.494C565.52 172.029 564.926 171.797 564.119 171.797C563.572 171.797 563.025 172.002 562.478 172.412C561.945 172.809 561.473 173.274 561.063 173.807V180.615H559.382V170.361H561.063ZM580.228 165.85V180.615H578.547V178.872C578.191 179.419 577.706 179.898 577.09 180.308C576.489 180.718 575.798 180.923 575.019 180.923C574.144 180.923 573.344 180.704 572.62 180.267C571.895 179.816 571.314 179.193 570.877 178.401C570.453 177.608 570.241 176.692 570.241 175.652C570.241 174.518 570.453 173.54 570.877 172.72C571.314 171.9 571.909 171.271 572.661 170.833C573.413 170.382 574.254 170.156 575.183 170.156C575.771 170.156 576.366 170.3 576.967 170.587C577.583 170.86 578.109 171.243 578.547 171.735V165.85H580.228ZM575.491 171.838C574.753 171.838 574.124 172.023 573.604 172.392C573.085 172.747 572.681 173.212 572.394 173.786C572.121 174.36 571.984 174.983 571.984 175.652C571.984 176.309 572.121 176.917 572.394 177.478C572.668 178.025 573.05 178.462 573.543 178.79C574.048 179.118 574.63 179.282 575.286 179.282C575.915 179.282 576.475 179.118 576.967 178.79C577.46 178.462 577.849 178.011 578.136 177.437C578.423 176.849 578.56 176.193 578.547 175.468L578.526 173.499C578.102 172.966 577.644 172.556 577.152 172.269C576.673 171.982 576.12 171.838 575.491 171.838ZM596.943 178.975V180.615H589.499V178.975H592.226V170.033C591.816 170.389 591.392 170.635 590.955 170.772C590.517 170.908 590.08 171.018 589.642 171.1V169.336C590.435 169.131 591.125 168.796 591.713 168.331C592.301 167.866 592.787 167.381 593.169 166.875H594.072V178.975H596.943ZM607.638 166.875V168.577H602.224V172.248C602.429 172.166 602.661 172.098 602.921 172.043C603.195 171.988 603.543 171.961 603.967 171.961C604.733 171.961 605.43 172.146 606.059 172.515C606.702 172.884 607.214 173.383 607.597 174.012C607.994 174.641 608.192 175.359 608.192 176.165C608.192 177.095 607.973 177.922 607.536 178.647C607.098 179.358 606.496 179.918 605.731 180.328C604.965 180.725 604.097 180.923 603.126 180.923C602.634 180.923 602.149 180.848 601.67 180.697C601.192 180.561 600.761 180.383 600.378 180.164C599.995 179.945 599.681 179.727 599.435 179.508V177.478C599.695 177.683 600.009 177.929 600.378 178.216C600.747 178.489 601.164 178.735 601.629 178.954C602.094 179.159 602.593 179.262 603.126 179.262C603.742 179.262 604.302 179.139 604.808 178.893C605.314 178.647 605.71 178.305 605.997 177.867C606.298 177.43 606.449 176.917 606.449 176.329C606.449 175.769 606.291 175.29 605.977 174.894C605.662 174.484 605.245 174.169 604.726 173.95C604.206 173.718 603.639 173.602 603.024 173.602C602.504 173.602 602.026 173.67 601.588 173.807C601.164 173.93 600.761 174.067 600.378 174.217V166.875H607.638ZM618.641 173.274V175.119H615.565V178.216H613.719V175.119H610.643V173.274H613.719V170.197H615.565V173.274H618.641ZM631.972 170.156C632.724 170.156 633.373 170.279 633.92 170.526C634.467 170.758 634.843 170.97 635.048 171.161V172.863C634.665 172.576 634.228 172.33 633.735 172.125C633.243 171.906 632.655 171.797 631.972 171.797C631.247 171.797 630.611 171.975 630.065 172.33C629.518 172.672 629.094 173.13 628.793 173.704C628.506 174.265 628.362 174.88 628.362 175.55C628.362 176.206 628.506 176.821 628.793 177.396C629.094 177.956 629.518 178.414 630.065 178.77C630.611 179.111 631.247 179.282 631.972 179.282C632.655 179.282 633.243 179.18 633.735 178.975C634.228 178.756 634.665 178.503 635.048 178.216V179.918C634.843 180.123 634.467 180.342 633.92 180.574C633.373 180.807 632.724 180.923 631.972 180.923C630.933 180.923 630.01 180.677 629.203 180.185C628.397 179.693 627.761 179.043 627.296 178.236C626.845 177.416 626.619 176.521 626.619 175.55C626.619 174.579 626.845 173.684 627.296 172.863C627.761 172.043 628.397 171.387 629.203 170.895C630.01 170.402 630.933 170.156 631.972 170.156ZM642.031 170.156C643.07 170.156 643.993 170.402 644.8 170.895C645.607 171.387 646.235 172.043 646.687 172.863C647.151 173.684 647.384 174.579 647.384 175.55C647.384 176.521 647.151 177.416 646.687 178.236C646.235 179.043 645.607 179.693 644.8 180.185C643.993 180.677 643.07 180.923 642.031 180.923C640.992 180.923 640.069 180.677 639.263 180.185C638.456 179.693 637.82 179.043 637.356 178.236C636.904 177.416 636.679 176.521 636.679 175.55C636.679 174.579 636.904 173.684 637.356 172.863C637.82 172.043 638.456 171.387 639.263 170.895C640.069 170.402 640.992 170.156 642.031 170.156ZM642.031 171.797C641.307 171.797 640.671 171.975 640.124 172.33C639.577 172.672 639.153 173.13 638.853 173.704C638.566 174.265 638.422 174.88 638.422 175.55C638.422 176.206 638.566 176.821 638.853 177.396C639.153 177.956 639.577 178.414 640.124 178.77C640.671 179.111 641.307 179.282 642.031 179.282C642.77 179.282 643.405 179.111 643.939 178.77C644.485 178.414 644.902 177.956 645.19 177.396C645.49 176.821 645.641 176.206 645.641 175.55C645.641 174.88 645.49 174.265 645.19 173.704C644.902 173.13 644.485 172.672 643.939 172.33C643.405 171.975 642.77 171.797 642.031 171.797ZM651.414 170.361V171.674C651.742 171.305 652.159 170.963 652.665 170.649C653.185 170.32 653.793 170.156 654.49 170.156C655.229 170.156 655.919 170.334 656.562 170.69C657.204 171.031 657.696 171.551 658.038 172.248C658.517 171.674 659.036 171.182 659.597 170.772C660.157 170.361 660.813 170.156 661.565 170.156C662.263 170.156 662.912 170.314 663.514 170.628C664.129 170.929 664.621 171.394 664.99 172.023C665.373 172.638 665.564 173.417 665.564 174.36V180.615H663.883L663.862 174.525C663.862 173.636 663.63 172.959 663.165 172.494C662.714 172.029 662.085 171.797 661.278 171.797C660.69 171.797 660.178 171.982 659.74 172.351C659.303 172.72 658.886 173.151 658.489 173.643V180.615H656.808L656.787 174.525C656.787 173.636 656.555 172.959 656.09 172.494C655.639 172.029 655.01 171.797 654.203 171.797C653.643 171.797 653.13 171.961 652.665 172.289C652.214 172.617 651.797 173.014 651.414 173.479V180.615H649.732V170.361H651.414ZM670.005 170.361V171.674C670.333 171.305 670.75 170.963 671.256 170.649C671.775 170.32 672.384 170.156 673.081 170.156C673.819 170.156 674.51 170.334 675.152 170.69C675.795 171.031 676.287 171.551 676.629 172.248C677.107 171.674 677.627 171.182 678.187 170.772C678.748 170.361 679.404 170.156 680.156 170.156C680.853 170.156 681.503 170.314 682.104 170.628C682.72 170.929 683.212 171.394 683.581 172.023C683.964 172.638 684.155 173.417 684.155 174.36V180.615H682.474L682.453 174.525C682.453 173.636 682.221 172.959 681.756 172.494C681.305 172.029 680.676 171.797 679.869 171.797C679.281 171.797 678.768 171.982 678.331 172.351C677.893 172.72 677.476 173.151 677.08 173.643V180.615H675.398L675.378 174.525C675.378 173.636 675.145 172.959 674.681 172.494C674.229 172.029 673.6 171.797 672.794 171.797C672.233 171.797 671.721 171.961 671.256 172.289C670.805 172.617 670.388 173.014 670.005 173.479V180.615H668.323V170.361H670.005ZM695.302 170.361V176.432C695.302 177.334 695.11 178.113 694.727 178.77C694.345 179.426 693.825 179.932 693.169 180.287C692.513 180.643 691.774 180.82 690.954 180.82C690.134 180.82 689.395 180.643 688.739 180.287C688.083 179.932 687.563 179.426 687.181 178.77C686.798 178.113 686.606 177.334 686.606 176.432V170.361H688.349V176.432C688.349 177.32 688.609 178.004 689.129 178.483C689.662 178.947 690.27 179.18 690.954 179.18C691.638 179.18 692.239 178.947 692.759 178.483C693.292 178.004 693.558 177.32 693.558 176.432V170.361H695.302ZM699.742 170.361V171.982C699.961 171.708 700.241 171.435 700.583 171.161C700.925 170.874 701.307 170.635 701.731 170.443C702.169 170.252 702.62 170.156 703.085 170.156C703.782 170.156 704.418 170.314 704.992 170.628C705.566 170.929 706.024 171.394 706.366 172.023C706.708 172.638 706.879 173.417 706.879 174.36V180.615H705.197L705.177 174.525C705.177 173.636 704.978 172.959 704.582 172.494C704.199 172.029 703.604 171.797 702.798 171.797C702.251 171.797 701.704 172.002 701.157 172.412C700.624 172.809 700.152 173.274 699.742 173.807V180.615H698.06V170.361H699.742ZM711.278 165.44C711.675 165.44 712.003 165.583 712.262 165.87C712.536 166.144 712.673 166.465 712.673 166.834C712.673 167.19 712.536 167.511 712.262 167.798C712.003 168.085 711.675 168.229 711.278 168.229C710.882 168.229 710.547 168.085 710.273 167.798C710.013 167.511 709.884 167.19 709.884 166.834C709.884 166.465 710.013 166.144 710.273 165.87C710.547 165.583 710.882 165.44 711.278 165.44ZM712.324 170.361V180.615H710.642V171.941H709.022V170.361H712.324ZM718.364 167.408V170.361H721.358V171.941H718.364V177.949C718.364 178.373 718.473 178.708 718.692 178.954C718.911 179.2 719.246 179.323 719.697 179.323C720.107 179.323 720.449 179.276 720.722 179.18C720.996 179.07 721.235 178.954 721.44 178.831V180.205C721.167 180.424 720.873 180.595 720.558 180.718C720.257 180.855 719.847 180.923 719.328 180.923C718.453 180.923 717.79 180.663 717.339 180.144C716.901 179.61 716.682 178.906 716.682 178.031V171.941H714.714V171.448C715.383 171.148 715.944 170.655 716.395 169.972C716.846 169.275 717.243 168.42 717.585 167.408H718.364ZM724.568 170.361L728.157 177.908L731.643 170.361H733.653L726.106 185.537H724.158L727.09 180L722.558 170.361H724.568ZM744.851 166.67C745.658 166.67 746.321 166.786 746.84 167.019C747.373 167.251 747.838 167.497 748.235 167.757V169.664C747.852 169.377 747.387 169.11 746.84 168.864C746.293 168.605 745.699 168.475 745.056 168.475C744.646 168.475 744.215 168.55 743.764 168.7C743.327 168.837 742.957 169.063 742.657 169.377C742.356 169.692 742.205 170.095 742.205 170.587C742.205 171.134 742.404 171.551 742.8 171.838C743.197 172.125 743.675 172.399 744.236 172.658L746.122 173.52C747.066 173.943 747.777 174.415 748.255 174.935C748.734 175.454 748.973 176.145 748.973 177.006C748.973 177.758 748.754 178.421 748.317 178.995C747.879 179.556 747.305 180 746.594 180.328C745.883 180.656 745.104 180.82 744.256 180.82C743.463 180.82 742.732 180.684 742.062 180.41C741.392 180.137 740.811 179.829 740.319 179.487V177.58C740.852 177.949 741.46 178.284 742.144 178.585C742.841 178.872 743.627 179.016 744.502 179.016C745.186 179.016 745.787 178.845 746.307 178.503C746.827 178.161 747.086 177.69 747.086 177.088C747.086 176.746 746.977 176.452 746.758 176.206C746.553 175.96 746.3 175.748 745.999 175.57C745.699 175.393 745.405 175.242 745.118 175.119L742.841 174.094C741.857 173.656 741.187 173.144 740.831 172.556C740.476 171.968 740.298 171.291 740.298 170.526C740.298 169.801 740.503 169.151 740.913 168.577C741.337 167.989 741.898 167.525 742.595 167.183C743.292 166.841 744.044 166.67 744.851 166.67ZM756.879 166.547C758.424 166.547 759.73 166.861 760.796 167.49C761.876 168.119 762.697 168.974 763.257 170.054C763.831 171.12 764.118 172.33 764.118 173.684C764.118 175.037 763.831 176.254 763.257 177.334C762.697 178.401 761.876 179.248 760.796 179.877C759.73 180.506 758.424 180.82 756.879 180.82C755.936 180.82 755.068 180.773 754.275 180.677C753.482 180.581 752.668 180.458 751.834 180.308V167.06C752.668 166.909 753.482 166.786 754.275 166.691C755.068 166.595 755.936 166.547 756.879 166.547ZM756.879 168.29C756.387 168.29 755.861 168.311 755.3 168.352C754.74 168.379 754.199 168.427 753.68 168.495V178.872C754.199 178.927 754.74 178.975 755.3 179.016C755.861 179.057 756.387 179.077 756.879 179.077C757.987 179.077 758.937 178.845 759.73 178.38C760.536 177.901 761.152 177.259 761.575 176.452C762.013 175.632 762.232 174.709 762.232 173.684C762.232 172.658 762.013 171.742 761.575 170.936C761.152 170.115 760.536 169.473 759.73 169.008C758.937 168.529 757.987 168.29 756.879 168.29ZM768.825 166.875V174.094L775.101 166.875H777.685L771.922 173.212L778.3 180.615H775.737L770.589 174.689L768.825 176.616V180.615H766.98V166.875H768.825ZM782.884 170.156C783.485 170.156 784.046 170.245 784.566 170.423C785.085 170.587 785.461 170.758 785.693 170.936V172.74C785.406 172.522 785.017 172.31 784.525 172.105C784.032 171.9 783.526 171.797 783.007 171.797C782.364 171.797 781.879 171.947 781.551 172.248C781.236 172.549 781.079 172.863 781.079 173.192C781.079 173.451 781.168 173.718 781.346 173.991C781.537 174.251 781.865 174.463 782.33 174.627L784.053 175.242C784.723 175.475 785.222 175.81 785.55 176.247C785.878 176.685 786.042 177.197 786.042 177.785C786.042 178.359 785.878 178.886 785.55 179.364C785.235 179.843 784.791 180.226 784.217 180.513C783.656 180.786 783.007 180.923 782.269 180.923C781.872 180.923 781.455 180.868 781.018 180.759C780.594 180.663 780.211 180.547 779.869 180.41C779.527 180.26 779.275 180.13 779.11 180.021V178.216C779.302 178.353 779.568 178.51 779.91 178.688C780.266 178.852 780.642 178.995 781.038 179.118C781.435 179.228 781.804 179.282 782.146 179.282C782.788 179.282 783.294 179.139 783.663 178.852C784.046 178.565 784.237 178.209 784.237 177.785C784.237 177.457 784.108 177.197 783.848 177.006C783.602 176.815 783.239 176.63 782.761 176.452L781.243 175.899C780.45 175.598 779.924 175.222 779.664 174.771C779.404 174.306 779.275 173.779 779.275 173.192C779.275 172.317 779.603 171.592 780.259 171.018C780.915 170.443 781.79 170.156 782.884 170.156ZM173.638 201.875V203.618H168.901V215.554H167.055V203.618H162.318V201.875H173.638ZM177.238 205.361V207.412C177.634 206.729 178.113 206.182 178.673 205.772C179.234 205.361 179.808 205.156 180.396 205.156C180.792 205.156 181.148 205.225 181.462 205.361V207.31C181.025 207.05 180.587 206.92 180.15 206.92C179.453 206.92 178.885 207.166 178.448 207.658C178.024 208.151 177.621 208.738 177.238 209.422V215.615H175.556V205.361H177.238ZM191.583 205.361V211.432C191.583 212.334 191.392 213.113 191.009 213.77C190.626 214.426 190.107 214.932 189.451 215.287C188.794 215.643 188.056 215.82 187.236 215.82C186.415 215.82 185.677 215.643 185.021 215.287C184.365 214.932 183.845 214.426 183.462 213.77C183.079 213.113 182.888 212.334 182.888 211.432V205.361H184.631V211.432C184.631 212.32 184.891 213.004 185.411 213.483C185.944 213.947 186.552 214.18 187.236 214.18C187.919 214.18 188.521 213.947 189.04 213.483C189.574 213.004 189.84 212.32 189.84 211.432V205.361H191.583ZM197.398 205.156C197.999 205.156 198.56 205.245 199.079 205.423C199.599 205.587 199.975 205.758 200.207 205.936V207.74C199.92 207.522 199.531 207.31 199.038 207.105C198.546 206.9 198.04 206.797 197.521 206.797C196.878 206.797 196.393 206.947 196.065 207.248C195.75 207.549 195.593 207.863 195.593 208.192C195.593 208.451 195.682 208.718 195.86 208.991C196.051 209.251 196.379 209.463 196.844 209.627L198.567 210.242C199.237 210.475 199.736 210.81 200.064 211.247C200.392 211.685 200.556 212.197 200.556 212.785C200.556 213.359 200.392 213.886 200.064 214.364C199.749 214.843 199.305 215.226 198.731 215.513C198.17 215.786 197.521 215.923 196.783 215.923C196.386 215.923 195.969 215.868 195.532 215.759C195.108 215.663 194.725 215.547 194.383 215.41C194.041 215.26 193.788 215.13 193.624 215.021V213.216C193.816 213.353 194.082 213.51 194.424 213.688C194.78 213.852 195.156 213.995 195.552 214.118C195.949 214.228 196.318 214.282 196.659 214.282C197.302 214.282 197.808 214.139 198.177 213.852C198.56 213.565 198.751 213.209 198.751 212.785C198.751 212.457 198.621 212.197 198.362 212.006C198.116 211.815 197.753 211.63 197.275 211.452L195.757 210.899C194.964 210.598 194.438 210.222 194.178 209.771C193.918 209.306 193.788 208.779 193.788 208.192C193.788 207.317 194.117 206.592 194.773 206.018C195.429 205.443 196.304 205.156 197.398 205.156ZM205.53 202.408V205.361H208.524V206.941H205.53V212.949C205.53 213.373 205.639 213.708 205.858 213.954C206.076 214.2 206.411 214.323 206.863 214.323C207.273 214.323 207.614 214.276 207.888 214.18C208.161 214.07 208.401 213.954 208.606 213.831V215.205C208.332 215.424 208.038 215.595 207.724 215.718C207.423 215.855 207.013 215.923 206.493 215.923C205.618 215.923 204.955 215.663 204.504 215.144C204.067 214.61 203.848 213.906 203.848 213.031V206.941H201.879V206.448C202.549 206.148 203.11 205.655 203.561 204.972C204.012 204.275 204.408 203.42 204.75 202.408H205.53ZM215.384 205.156C216.437 205.156 217.312 205.375 218.009 205.813C218.706 206.25 219.226 206.845 219.568 207.597C219.923 208.349 220.101 209.196 220.101 210.14V211.145H212.226C212.308 211.719 212.506 212.245 212.82 212.724C213.135 213.202 213.545 213.585 214.051 213.872C214.557 214.146 215.138 214.282 215.794 214.282C216.532 214.282 217.223 214.098 217.865 213.729C218.508 213.346 219.048 212.929 219.486 212.478L219.465 214.303C219.274 214.535 218.986 214.781 218.604 215.041C218.235 215.287 217.804 215.492 217.312 215.656C216.833 215.834 216.327 215.923 215.794 215.923C214.755 215.923 213.832 215.677 213.026 215.185C212.219 214.693 211.583 214.043 211.118 213.236C210.667 212.416 210.442 211.521 210.442 210.55C210.442 209.579 210.653 208.684 211.077 207.863C211.501 207.043 212.082 206.387 212.82 205.895C213.572 205.402 214.427 205.156 215.384 205.156ZM215.384 206.797C214.536 206.797 213.839 207.084 213.292 207.658C212.745 208.219 212.403 208.902 212.267 209.709H218.44C218.371 209.039 218.18 208.492 217.865 208.068C217.565 207.645 217.195 207.33 216.758 207.125C216.32 206.906 215.862 206.797 215.384 206.797ZM231.719 200.85V215.615H230.037V213.872C229.682 214.419 229.196 214.898 228.581 215.308C227.98 215.718 227.289 215.923 226.51 215.923C225.635 215.923 224.835 215.704 224.11 215.267C223.386 214.816 222.805 214.193 222.367 213.401C221.943 212.608 221.732 211.692 221.732 210.652C221.732 209.518 221.943 208.54 222.367 207.72C222.805 206.9 223.399 206.271 224.151 205.833C224.903 205.382 225.744 205.156 226.674 205.156C227.262 205.156 227.857 205.3 228.458 205.587C229.073 205.86 229.6 206.243 230.037 206.735V200.85H231.719ZM226.982 206.838C226.243 206.838 225.614 207.023 225.095 207.392C224.575 207.747 224.172 208.212 223.885 208.786C223.611 209.36 223.475 209.983 223.475 210.652C223.475 211.309 223.611 211.917 223.885 212.478C224.158 213.025 224.541 213.462 225.033 213.79C225.539 214.118 226.12 214.282 226.776 214.282C227.405 214.282 227.966 214.118 228.458 213.79C228.95 213.462 229.34 213.011 229.627 212.437C229.914 211.849 230.051 211.193 230.037 210.468L230.017 208.499C229.593 207.966 229.135 207.556 228.643 207.269C228.164 206.982 227.61 206.838 226.982 206.838ZM245.562 205.156C246.506 205.156 247.347 205.382 248.085 205.833C248.837 206.271 249.425 206.9 249.849 207.72C250.286 208.54 250.505 209.518 250.505 210.652C250.505 211.692 250.286 212.608 249.849 213.401C249.425 214.193 248.85 214.816 248.126 215.267C247.415 215.704 246.615 215.923 245.726 215.923C244.947 215.923 244.25 215.718 243.635 215.308C243.033 214.898 242.555 214.419 242.199 213.872V215.615H240.517V200.85H242.199V206.735C242.637 206.243 243.156 205.86 243.758 205.587C244.373 205.3 244.975 205.156 245.562 205.156ZM245.255 206.818C244.626 206.818 244.072 206.968 243.594 207.269C243.115 207.556 242.657 207.966 242.22 208.499L242.199 210.468C242.199 211.193 242.336 211.842 242.609 212.416C242.896 212.99 243.286 213.442 243.778 213.77C244.284 214.098 244.845 214.262 245.46 214.262C246.13 214.262 246.711 214.098 247.203 213.77C247.695 213.442 248.078 213.004 248.351 212.457C248.625 211.91 248.762 211.309 248.762 210.652C248.762 209.983 248.618 209.36 248.331 208.786C248.058 208.198 247.661 207.727 247.142 207.371C246.622 207.002 245.993 206.818 245.255 206.818ZM253.428 205.361L257.016 212.908L260.503 205.361H262.513L254.966 220.537H253.017L255.95 215L251.418 205.361H253.428ZM272.706 202.408V205.361H275.7V206.941H272.706V212.949C272.706 213.373 272.815 213.708 273.034 213.954C273.253 214.2 273.588 214.323 274.039 214.323C274.449 214.323 274.791 214.276 275.064 214.18C275.338 214.07 275.577 213.954 275.782 213.831V215.205C275.508 215.424 275.215 215.595 274.9 215.718C274.599 215.855 274.189 215.923 273.67 215.923C272.795 215.923 272.132 215.663 271.68 215.144C271.243 214.61 271.024 213.906 271.024 213.031V206.941H269.055V206.448C269.725 206.148 270.286 205.655 270.737 204.972C271.188 204.275 271.585 203.42 271.926 202.408H272.706ZM283.36 205.156C284.057 205.156 284.693 205.314 285.267 205.628C285.841 205.929 286.299 206.394 286.641 207.023C286.983 207.638 287.154 208.417 287.154 209.36V215.615H285.472L285.452 209.525C285.452 208.636 285.254 207.959 284.857 207.494C284.474 207.029 283.879 206.797 283.073 206.797C282.526 206.797 281.979 207.002 281.432 207.412C280.899 207.809 280.427 208.274 280.017 208.807V215.615H278.336V200.85H280.017V206.982C280.236 206.708 280.516 206.435 280.858 206.161C281.2 205.874 281.583 205.635 282.006 205.443C282.444 205.252 282.895 205.156 283.36 205.156ZM294.547 205.156C295.586 205.156 296.509 205.402 297.316 205.895C298.123 206.387 298.751 207.043 299.203 207.863C299.667 208.684 299.9 209.579 299.9 210.55C299.9 211.521 299.667 212.416 299.203 213.236C298.751 214.043 298.123 214.693 297.316 215.185C296.509 215.677 295.586 215.923 294.547 215.923C293.508 215.923 292.585 215.677 291.779 215.185C290.972 214.693 290.336 214.043 289.872 213.236C289.42 212.416 289.195 211.521 289.195 210.55C289.195 209.579 289.42 208.684 289.872 207.863C290.336 207.043 290.972 206.387 291.779 205.895C292.585 205.402 293.508 205.156 294.547 205.156ZM294.547 206.797C293.823 206.797 293.187 206.975 292.64 207.33C292.093 207.672 291.669 208.13 291.369 208.704C291.082 209.265 290.938 209.88 290.938 210.55C290.938 211.206 291.082 211.821 291.369 212.396C291.669 212.956 292.093 213.414 292.64 213.77C293.187 214.111 293.823 214.282 294.547 214.282C295.286 214.282 295.921 214.111 296.455 213.77C297.001 213.414 297.418 212.956 297.706 212.396C298.006 211.821 298.157 211.206 298.157 210.55C298.157 209.88 298.006 209.265 297.706 208.704C297.418 208.13 297.001 207.672 296.455 207.33C295.921 206.975 295.286 206.797 294.547 206.797ZM310.636 205.361V211.432C310.636 212.334 310.445 213.113 310.062 213.77C309.679 214.426 309.16 214.932 308.503 215.287C307.847 215.643 307.109 215.82 306.289 215.82C305.468 215.82 304.73 215.643 304.074 215.287C303.417 214.932 302.898 214.426 302.515 213.77C302.132 213.113 301.941 212.334 301.941 211.432V205.361H303.684V211.432C303.684 212.32 303.944 213.004 304.463 213.483C304.997 213.947 305.605 214.18 306.289 214.18C306.972 214.18 307.574 213.947 308.093 213.483C308.626 213.004 308.893 212.32 308.893 211.432V205.361H310.636ZM316.451 205.156C317.052 205.156 317.613 205.245 318.132 205.423C318.652 205.587 319.028 205.758 319.26 205.936V207.74C318.973 207.522 318.583 207.31 318.091 207.105C317.599 206.9 317.093 206.797 316.574 206.797C315.931 206.797 315.446 206.947 315.118 207.248C314.803 207.549 314.646 207.863 314.646 208.192C314.646 208.451 314.735 208.718 314.912 208.991C315.104 209.251 315.432 209.463 315.897 209.627L317.619 210.242C318.289 210.475 318.788 210.81 319.117 211.247C319.445 211.685 319.609 212.197 319.609 212.785C319.609 213.359 319.445 213.886 319.117 214.364C318.802 214.843 318.358 215.226 317.784 215.513C317.223 215.786 316.574 215.923 315.835 215.923C315.439 215.923 315.022 215.868 314.584 215.759C314.16 215.663 313.778 215.547 313.436 215.41C313.094 215.26 312.841 215.13 312.677 215.021V213.216C312.868 213.353 313.135 213.51 313.477 213.688C313.832 213.852 314.208 213.995 314.605 214.118C315.001 214.228 315.37 214.282 315.712 214.282C316.355 214.282 316.861 214.139 317.23 213.852C317.613 213.565 317.804 213.209 317.804 212.785C317.804 212.457 317.674 212.197 317.414 212.006C317.168 211.815 316.806 211.63 316.327 211.452L314.81 210.899C314.017 210.598 313.491 210.222 313.231 209.771C312.971 209.306 312.841 208.779 312.841 208.192C312.841 207.317 313.169 206.592 313.826 206.018C314.482 205.443 315.357 205.156 316.451 205.156ZM325.977 205.156C326.565 205.156 327.159 205.3 327.761 205.587C328.376 205.86 328.903 206.243 329.34 206.735V205.361H331.022V215.615H329.34V213.872C328.985 214.419 328.499 214.898 327.884 215.308C327.282 215.718 326.592 215.923 325.813 215.923C324.938 215.923 324.138 215.704 323.413 215.267C322.689 214.816 322.108 214.193 321.67 213.401C321.246 212.608 321.034 211.692 321.034 210.652C321.034 209.518 321.246 208.54 321.67 207.72C322.108 206.9 322.702 206.271 323.454 205.833C324.206 205.382 325.047 205.156 325.977 205.156ZM326.284 206.797C325.546 206.797 324.917 206.982 324.398 207.351C323.878 207.72 323.475 208.198 323.188 208.786C322.914 209.36 322.778 209.983 322.778 210.652C322.778 211.309 322.914 211.917 323.188 212.478C323.461 213.025 323.844 213.462 324.336 213.79C324.842 214.118 325.423 214.282 326.079 214.282C326.708 214.282 327.269 214.118 327.761 213.79C328.253 213.462 328.643 213.011 328.93 212.437C329.217 211.849 329.354 211.193 329.34 210.468L329.32 208.499C328.896 207.966 328.438 207.549 327.946 207.248C327.467 206.947 326.913 206.797 326.284 206.797ZM335.77 205.361V206.982C335.988 206.708 336.269 206.435 336.611 206.161C336.952 205.874 337.335 205.635 337.759 205.443C338.196 205.252 338.648 205.156 339.112 205.156C339.81 205.156 340.445 205.314 341.02 205.628C341.594 205.929 342.052 206.394 342.394 207.023C342.736 207.638 342.906 208.417 342.906 209.36V215.615H341.225L341.204 209.525C341.204 208.636 341.006 207.959 340.61 207.494C340.227 207.029 339.632 206.797 338.825 206.797C338.279 206.797 337.732 207.002 337.185 207.412C336.652 207.809 336.18 208.274 335.77 208.807V215.615H334.088V205.361H335.77ZM354.935 200.85V215.615H353.253V213.872C352.898 214.419 352.412 214.898 351.797 215.308C351.195 215.718 350.505 215.923 349.726 215.923C348.851 215.923 348.051 215.704 347.326 215.267C346.602 214.816 346.021 214.193 345.583 213.401C345.159 212.608 344.947 211.692 344.947 210.652C344.947 209.518 345.159 208.54 345.583 207.72C346.021 206.9 346.615 206.271 347.367 205.833C348.119 205.382 348.96 205.156 349.89 205.156C350.478 205.156 351.072 205.3 351.674 205.587C352.289 205.86 352.816 206.243 353.253 206.735V200.85H354.935ZM350.197 206.838C349.459 206.838 348.83 207.023 348.311 207.392C347.791 207.747 347.388 208.212 347.101 208.786C346.827 209.36 346.691 209.983 346.691 210.652C346.691 211.309 346.827 211.917 347.101 212.478C347.374 213.025 347.757 213.462 348.249 213.79C348.755 214.118 349.336 214.282 349.992 214.282C350.621 214.282 351.182 214.118 351.674 213.79C352.166 213.462 352.556 213.011 352.843 212.437C353.13 211.849 353.267 211.193 353.253 210.468L353.233 208.499C352.809 207.966 352.351 207.556 351.859 207.269C351.38 206.982 350.826 206.838 350.197 206.838ZM361.057 205.156C361.658 205.156 362.219 205.245 362.738 205.423C363.258 205.587 363.634 205.758 363.866 205.936V207.74C363.579 207.522 363.189 207.31 362.697 207.105C362.205 206.9 361.699 206.797 361.18 206.797C360.537 206.797 360.052 206.947 359.724 207.248C359.409 207.549 359.252 207.863 359.252 208.192C359.252 208.451 359.341 208.718 359.519 208.991C359.71 209.251 360.038 209.463 360.503 209.627L362.226 210.242C362.896 210.475 363.395 210.81 363.723 211.247C364.051 211.685 364.215 212.197 364.215 212.785C364.215 213.359 364.051 213.886 363.723 214.364C363.408 214.843 362.964 215.226 362.39 215.513C361.829 215.786 361.18 215.923 360.441 215.923C360.045 215.923 359.628 215.868 359.19 215.759C358.767 215.663 358.384 215.547 358.042 215.41C357.7 215.26 357.447 215.13 357.283 215.021V213.216C357.475 213.353 357.741 213.51 358.083 213.688C358.439 213.852 358.814 213.995 359.211 214.118C359.607 214.228 359.977 214.282 360.318 214.282C360.961 214.282 361.467 214.139 361.836 213.852C362.219 213.565 362.41 213.209 362.41 212.785C362.41 212.457 362.28 212.197 362.021 212.006C361.774 211.815 361.412 211.63 360.934 211.452L359.416 210.899C358.623 210.598 358.097 210.222 357.837 209.771C357.577 209.306 357.447 208.779 357.447 208.192C357.447 207.317 357.775 206.592 358.432 206.018C359.088 205.443 359.963 205.156 361.057 205.156ZM376.725 205.156C377.765 205.156 378.687 205.402 379.494 205.895C380.301 206.387 380.93 207.043 381.381 207.863C381.846 208.684 382.078 209.579 382.078 210.55C382.078 211.521 381.846 212.416 381.381 213.236C380.93 214.043 380.301 214.693 379.494 215.185C378.687 215.677 377.765 215.923 376.725 215.923C375.686 215.923 374.764 215.677 373.957 215.185C373.15 214.693 372.515 214.043 372.05 213.236C371.599 212.416 371.373 211.521 371.373 210.55C371.373 209.579 371.599 208.684 372.05 207.863C372.515 207.043 373.15 206.387 373.957 205.895C374.764 205.402 375.686 205.156 376.725 205.156ZM376.725 206.797C376.001 206.797 375.365 206.975 374.818 207.33C374.271 207.672 373.848 208.13 373.547 208.704C373.26 209.265 373.116 209.88 373.116 210.55C373.116 211.206 373.26 211.821 373.547 212.396C373.848 212.956 374.271 213.414 374.818 213.77C375.365 214.111 376.001 214.282 376.725 214.282C377.464 214.282 378.099 214.111 378.633 213.77C379.18 213.414 379.597 212.956 379.884 212.396C380.184 211.821 380.335 211.206 380.335 210.55C380.335 209.88 380.184 209.265 379.884 208.704C379.597 208.13 379.18 207.672 378.633 207.33C378.099 206.975 377.464 206.797 376.725 206.797ZM389.738 205.361V206.941H386.744V215.615H385.062V206.941H383.442V205.361H385.062V204.049C385.062 203.242 385.22 202.586 385.534 202.08C385.848 201.561 386.252 201.178 386.744 200.932C387.236 200.672 387.735 200.542 388.241 200.542C388.938 200.542 389.506 200.727 389.943 201.096V202.572C389.738 202.436 389.492 202.326 389.205 202.244C388.918 202.162 388.631 202.128 388.344 202.142C387.838 202.155 387.441 202.319 387.154 202.634C386.881 202.935 386.744 203.468 386.744 204.234V205.361H389.738ZM401.921 205.156C402.672 205.156 403.322 205.279 403.869 205.526C404.416 205.758 404.792 205.97 404.997 206.161V207.863C404.614 207.576 404.176 207.33 403.684 207.125C403.192 206.906 402.604 206.797 401.921 206.797C401.196 206.797 400.56 206.975 400.013 207.33C399.466 207.672 399.043 208.13 398.742 208.704C398.455 209.265 398.311 209.88 398.311 210.55C398.311 211.206 398.455 211.821 398.742 212.396C399.043 212.956 399.466 213.414 400.013 213.77C400.56 214.111 401.196 214.282 401.921 214.282C402.604 214.282 403.192 214.18 403.684 213.975C404.176 213.756 404.614 213.503 404.997 213.216V214.918C404.792 215.123 404.416 215.342 403.869 215.574C403.322 215.807 402.672 215.923 401.921 215.923C400.881 215.923 399.959 215.677 399.152 215.185C398.345 214.693 397.71 214.043 397.245 213.236C396.794 212.416 396.568 211.521 396.568 210.55C396.568 209.579 396.794 208.684 397.245 207.863C397.71 207.043 398.345 206.387 399.152 205.895C399.959 205.402 400.881 205.156 401.921 205.156ZM411.98 205.156C413.019 205.156 413.942 205.402 414.749 205.895C415.555 206.387 416.184 207.043 416.635 207.863C417.1 208.684 417.333 209.579 417.333 210.55C417.333 211.521 417.1 212.416 416.635 213.236C416.184 214.043 415.555 214.693 414.749 215.185C413.942 215.677 413.019 215.923 411.98 215.923C410.941 215.923 410.018 215.677 409.211 215.185C408.405 214.693 407.769 214.043 407.304 213.236C406.853 212.416 406.628 211.521 406.628 210.55C406.628 209.579 406.853 208.684 407.304 207.863C407.769 207.043 408.405 206.387 409.211 205.895C410.018 205.402 410.941 205.156 411.98 205.156ZM411.98 206.797C411.255 206.797 410.62 206.975 410.073 207.33C409.526 207.672 409.102 208.13 408.801 208.704C408.514 209.265 408.371 209.88 408.371 210.55C408.371 211.206 408.514 211.821 408.801 212.396C409.102 212.956 409.526 213.414 410.073 213.77C410.62 214.111 411.255 214.282 411.98 214.282C412.718 214.282 413.354 214.111 413.887 213.77C414.434 213.414 414.851 212.956 415.138 212.396C415.439 211.821 415.589 211.206 415.589 210.55C415.589 209.88 415.439 209.265 415.138 208.704C414.851 208.13 414.434 207.672 413.887 207.33C413.354 206.975 412.718 206.797 411.98 206.797ZM421.363 205.361V206.674C421.691 206.305 422.108 205.963 422.614 205.649C423.133 205.32 423.742 205.156 424.439 205.156C425.177 205.156 425.868 205.334 426.51 205.69C427.153 206.031 427.645 206.551 427.987 207.248C428.465 206.674 428.985 206.182 429.545 205.772C430.106 205.361 430.762 205.156 431.514 205.156C432.211 205.156 432.861 205.314 433.462 205.628C434.078 205.929 434.57 206.394 434.939 207.023C435.322 207.638 435.513 208.417 435.513 209.36V215.615H433.831L433.811 209.525C433.811 208.636 433.579 207.959 433.114 207.494C432.663 207.029 432.034 206.797 431.227 206.797C430.639 206.797 430.126 206.982 429.689 207.351C429.251 207.72 428.834 208.151 428.438 208.643V215.615H426.756L426.736 209.525C426.736 208.636 426.503 207.959 426.039 207.494C425.587 207.029 424.958 206.797 424.152 206.797C423.591 206.797 423.079 206.961 422.614 207.289C422.163 207.617 421.746 208.014 421.363 208.479V215.615H419.681V205.361H421.363ZM443.481 205.156C444.37 205.156 445.169 205.375 445.88 205.813C446.605 206.236 447.179 206.838 447.603 207.617C448.04 208.383 448.259 209.285 448.259 210.324C448.259 211.445 448.04 212.43 447.603 213.277C447.179 214.111 446.591 214.761 445.839 215.226C445.101 215.691 444.26 215.923 443.317 215.923C442.729 215.923 442.127 215.766 441.512 215.451C440.911 215.137 440.391 214.734 439.953 214.241V220.537H438.272V205.361H439.953V207.105C440.309 206.558 440.787 206.1 441.389 205.731C442.004 205.348 442.702 205.156 443.481 205.156ZM443.214 206.797C442.599 206.797 442.038 206.954 441.533 207.269C441.04 207.583 440.651 208.021 440.364 208.581C440.09 209.128 439.953 209.771 439.953 210.509L439.974 212.478C440.411 213.011 440.87 213.448 441.348 213.79C441.827 214.118 442.38 214.282 443.009 214.282C443.747 214.282 444.376 214.091 444.896 213.708C445.415 213.325 445.812 212.833 446.085 212.232C446.372 211.616 446.516 210.981 446.516 210.324C446.516 209.654 446.379 209.06 446.106 208.54C445.832 208.007 445.45 207.583 444.957 207.269C444.465 206.954 443.884 206.797 443.214 206.797ZM454.832 205.156C455.42 205.156 456.015 205.3 456.617 205.587C457.232 205.86 457.758 206.243 458.196 206.735V205.361H459.877V215.615H458.196V213.872C457.84 214.419 457.355 214.898 456.74 215.308C456.138 215.718 455.448 215.923 454.668 215.923C453.793 215.923 452.993 215.704 452.269 215.267C451.544 214.816 450.963 214.193 450.526 213.401C450.102 212.608 449.89 211.692 449.89 210.652C449.89 209.518 450.102 208.54 450.526 207.72C450.963 206.9 451.558 206.271 452.31 205.833C453.062 205.382 453.903 205.156 454.832 205.156ZM455.14 206.797C454.402 206.797 453.773 206.982 453.253 207.351C452.734 207.72 452.33 208.198 452.043 208.786C451.77 209.36 451.633 209.983 451.633 210.652C451.633 211.309 451.77 211.917 452.043 212.478C452.317 213.025 452.7 213.462 453.192 213.79C453.698 214.118 454.279 214.282 454.935 214.282C455.564 214.282 456.124 214.118 456.617 213.79C457.109 213.462 457.498 213.011 457.785 212.437C458.073 211.849 458.209 211.193 458.196 210.468L458.175 208.499C457.751 207.966 457.293 207.549 456.801 207.248C456.323 206.947 455.769 206.797 455.14 206.797ZM464.625 205.361V206.982C464.844 206.708 465.124 206.435 465.466 206.161C465.808 205.874 466.191 205.635 466.615 205.443C467.052 205.252 467.503 205.156 467.968 205.156C468.665 205.156 469.301 205.314 469.875 205.628C470.449 205.929 470.907 206.394 471.249 207.023C471.591 207.638 471.762 208.417 471.762 209.36V215.615H470.08L470.06 209.525C470.06 208.636 469.862 207.959 469.465 207.494C469.082 207.029 468.488 206.797 467.681 206.797C467.134 206.797 466.587 207.002 466.04 207.412C465.507 207.809 465.035 208.274 464.625 208.807V215.615H462.944V205.361H464.625ZM476.161 200.44C476.558 200.44 476.886 200.583 477.146 200.87C477.419 201.144 477.556 201.465 477.556 201.834C477.556 202.19 477.419 202.511 477.146 202.798C476.886 203.085 476.558 203.229 476.161 203.229C475.765 203.229 475.43 203.085 475.156 202.798C474.897 202.511 474.767 202.19 474.767 201.834C474.767 201.465 474.897 201.144 475.156 200.87C475.43 200.583 475.765 200.44 476.161 200.44ZM477.207 205.361V215.615H475.526V206.941H473.905V205.361H477.207ZM484.642 205.156C485.694 205.156 486.569 205.375 487.267 205.813C487.964 206.25 488.483 206.845 488.825 207.597C489.181 208.349 489.358 209.196 489.358 210.14V211.145H481.483C481.565 211.719 481.764 212.245 482.078 212.724C482.393 213.202 482.803 213.585 483.309 213.872C483.815 214.146 484.396 214.282 485.052 214.282C485.79 214.282 486.481 214.098 487.123 213.729C487.766 213.346 488.306 212.929 488.743 212.478L488.723 214.303C488.531 214.535 488.244 214.781 487.861 215.041C487.492 215.287 487.062 215.492 486.569 215.656C486.091 215.834 485.585 215.923 485.052 215.923C484.013 215.923 483.09 215.677 482.283 215.185C481.477 214.693 480.841 214.043 480.376 213.236C479.925 212.416 479.699 211.521 479.699 210.55C479.699 209.579 479.911 208.684 480.335 207.863C480.759 207.043 481.34 206.387 482.078 205.895C482.83 205.402 483.685 205.156 484.642 205.156ZM484.642 206.797C483.794 206.797 483.097 207.084 482.55 207.658C482.003 208.219 481.661 208.902 481.524 209.709H487.697C487.629 209.039 487.438 208.492 487.123 208.068C486.822 207.645 486.453 207.33 486.016 207.125C485.578 206.906 485.12 206.797 484.642 206.797ZM494.763 205.156C495.364 205.156 495.925 205.245 496.444 205.423C496.964 205.587 497.34 205.758 497.572 205.936V207.74C497.285 207.522 496.896 207.31 496.403 207.105C495.911 206.9 495.405 206.797 494.886 206.797C494.243 206.797 493.758 206.947 493.43 207.248C493.115 207.549 492.958 207.863 492.958 208.192C492.958 208.451 493.047 208.718 493.225 208.991C493.416 209.251 493.744 209.463 494.209 209.627L495.932 210.242C496.602 210.475 497.101 210.81 497.429 211.247C497.757 211.685 497.921 212.197 497.921 212.785C497.921 213.359 497.757 213.886 497.429 214.364C497.114 214.843 496.67 215.226 496.096 215.513C495.535 215.786 494.886 215.923 494.147 215.923C493.751 215.923 493.334 215.868 492.896 215.759C492.473 215.663 492.09 215.547 491.748 215.41C491.406 215.26 491.153 215.13 490.989 215.021V213.216C491.181 213.353 491.447 213.51 491.789 213.688C492.145 213.852 492.521 213.995 492.917 214.118C493.313 214.228 493.683 214.282 494.024 214.282C494.667 214.282 495.173 214.139 495.542 213.852C495.925 213.565 496.116 213.209 496.116 212.785C496.116 212.457 495.986 212.197 495.727 212.006C495.48 211.815 495.118 211.63 494.64 211.452L493.122 210.899C492.329 210.598 491.803 210.222 491.543 209.771C491.283 209.306 491.153 208.779 491.153 208.192C491.153 207.317 491.481 206.592 492.138 206.018C492.794 205.443 493.669 205.156 494.763 205.156ZM510.021 205.156C510.609 205.156 511.204 205.3 511.805 205.587C512.421 205.86 512.947 206.243 513.385 206.735V205.361H515.066V215.615H513.385V213.872C513.029 214.419 512.544 214.898 511.929 215.308C511.327 215.718 510.637 215.923 509.857 215.923C508.982 215.923 508.182 215.704 507.458 215.267C506.733 214.816 506.152 214.193 505.715 213.401C505.291 212.608 505.079 211.692 505.079 210.652C505.079 209.518 505.291 208.54 505.715 207.72C506.152 206.9 506.747 206.271 507.499 205.833C508.251 205.382 509.092 205.156 510.021 205.156ZM510.329 206.797C509.591 206.797 508.962 206.982 508.442 207.351C507.923 207.72 507.519 208.198 507.232 208.786C506.959 209.36 506.822 209.983 506.822 210.652C506.822 211.309 506.959 211.917 507.232 212.478C507.506 213.025 507.888 213.462 508.381 213.79C508.887 214.118 509.468 214.282 510.124 214.282C510.753 214.282 511.313 214.118 511.805 213.79C512.298 213.462 512.687 213.011 512.974 212.437C513.262 211.849 513.398 211.193 513.385 210.468L513.364 208.499C512.94 207.966 512.482 207.549 511.99 207.248C511.512 206.947 510.958 206.797 510.329 206.797ZM519.814 200.85V215.615H518.133V200.85H519.814ZM524.562 200.85V215.615H522.881V200.85H524.562ZM537.996 205.156C539.035 205.156 539.958 205.402 540.764 205.895C541.571 206.387 542.2 207.043 542.651 207.863C543.116 208.684 543.348 209.579 543.348 210.55C543.348 211.521 543.116 212.416 542.651 213.236C542.2 214.043 541.571 214.693 540.764 215.185C539.958 215.677 539.035 215.923 537.996 215.923C536.957 215.923 536.034 215.677 535.227 215.185C534.42 214.693 533.785 214.043 533.32 213.236C532.869 212.416 532.643 211.521 532.643 210.55C532.643 209.579 532.869 208.684 533.32 207.863C533.785 207.043 534.42 206.387 535.227 205.895C536.034 205.402 536.957 205.156 537.996 205.156ZM537.996 206.797C537.271 206.797 536.635 206.975 536.088 207.33C535.542 207.672 535.118 208.13 534.817 208.704C534.53 209.265 534.386 209.88 534.386 210.55C534.386 211.206 534.53 211.821 534.817 212.396C535.118 212.956 535.542 213.414 536.088 213.77C536.635 214.111 537.271 214.282 537.996 214.282C538.734 214.282 539.37 214.111 539.903 213.77C540.45 213.414 540.867 212.956 541.154 212.396C541.455 211.821 541.605 211.206 541.605 210.55C541.605 209.88 541.455 209.265 541.154 208.704C540.867 208.13 540.45 207.672 539.903 207.33C539.37 206.975 538.734 206.797 537.996 206.797ZM554.331 205.361L549.511 215.615H548.465L543.851 205.361H545.861L548.957 212.908L552.321 205.361H554.331ZM559.981 205.156C561.034 205.156 561.909 205.375 562.606 205.813C563.303 206.25 563.823 206.845 564.164 207.597C564.52 208.349 564.698 209.196 564.698 210.14V211.145H556.823C556.905 211.719 557.103 212.245 557.417 212.724C557.732 213.202 558.142 213.585 558.648 213.872C559.154 214.146 559.735 214.282 560.391 214.282C561.129 214.282 561.82 214.098 562.462 213.729C563.105 213.346 563.645 212.929 564.082 212.478L564.062 214.303C563.87 214.535 563.583 214.781 563.201 215.041C562.831 215.287 562.401 215.492 561.909 215.656C561.43 215.834 560.924 215.923 560.391 215.923C559.352 215.923 558.429 215.677 557.622 215.185C556.816 214.693 556.18 214.043 555.715 213.236C555.264 212.416 555.038 211.521 555.038 210.55C555.038 209.579 555.25 208.684 555.674 207.863C556.098 207.043 556.679 206.387 557.417 205.895C558.169 205.402 559.024 205.156 559.981 205.156ZM559.981 206.797C559.133 206.797 558.436 207.084 557.889 207.658C557.342 208.219 557 208.902 556.864 209.709H563.036C562.968 209.039 562.777 208.492 562.462 208.068C562.161 207.645 561.792 207.33 561.355 207.125C560.917 206.906 560.459 206.797 559.981 206.797ZM568.728 205.361V207.412C569.124 206.729 569.603 206.182 570.163 205.772C570.724 205.361 571.298 205.156 571.886 205.156C572.282 205.156 572.638 205.225 572.952 205.361V207.31C572.515 207.05 572.077 206.92 571.64 206.92C570.943 206.92 570.375 207.166 569.938 207.658C569.514 208.151 569.111 208.738 568.728 209.422V215.615H567.046V205.361H568.728ZM583.248 202.408V205.361H586.242V206.941H583.248V212.949C583.248 213.373 583.358 213.708 583.576 213.954C583.795 214.2 584.13 214.323 584.581 214.323C584.991 214.323 585.333 214.276 585.607 214.18C585.88 214.07 586.119 213.954 586.324 213.831V215.205C586.051 215.424 585.757 215.595 585.443 215.718C585.142 215.855 584.732 215.923 584.212 215.923C583.337 215.923 582.674 215.663 582.223 215.144C581.785 214.61 581.567 213.906 581.567 213.031V206.941H579.598V206.448C580.268 206.148 580.828 205.655 581.279 204.972C581.731 204.275 582.127 203.42 582.469 202.408H583.248ZM593.902 205.156C594.6 205.156 595.235 205.314 595.81 205.628C596.384 205.929 596.842 206.394 597.184 207.023C597.525 207.638 597.696 208.417 597.696 209.36V215.615H596.015L595.994 209.525C595.994 208.636 595.796 207.959 595.399 207.494C595.017 207.029 594.422 206.797 593.615 206.797C593.068 206.797 592.521 207.002 591.975 207.412C591.441 207.809 590.97 208.274 590.56 208.807V215.615H588.878V200.85H590.56V206.982C590.778 206.708 591.059 206.435 591.4 206.161C591.742 205.874 592.125 205.635 592.549 205.443C592.986 205.252 593.438 205.156 593.902 205.156ZM604.68 205.156C605.732 205.156 606.607 205.375 607.305 205.813C608.002 206.25 608.521 206.845 608.863 207.597C609.219 208.349 609.396 209.196 609.396 210.14V211.145H601.521C601.603 211.719 601.802 212.245 602.116 212.724C602.431 213.202 602.841 213.585 603.347 213.872C603.852 214.146 604.434 214.282 605.09 214.282C605.828 214.282 606.518 214.098 607.161 213.729C607.804 213.346 608.344 212.929 608.781 212.478L608.761 214.303C608.569 214.535 608.282 214.781 607.899 215.041C607.53 215.287 607.1 215.492 606.607 215.656C606.129 215.834 605.623 215.923 605.09 215.923C604.051 215.923 603.128 215.677 602.321 215.185C601.515 214.693 600.879 214.043 600.414 213.236C599.963 212.416 599.737 211.521 599.737 210.55C599.737 209.579 599.949 208.684 600.373 207.863C600.797 207.043 601.378 206.387 602.116 205.895C602.868 205.402 603.723 205.156 604.68 205.156ZM604.68 206.797C603.832 206.797 603.135 207.084 602.588 207.658C602.041 208.219 601.699 208.902 601.562 209.709H607.735C607.667 209.039 607.476 208.492 607.161 208.068C606.86 207.645 606.491 207.33 606.054 207.125C605.616 206.906 605.158 206.797 604.68 206.797ZM630.93 205.361L627.342 215.615H626.296L623.486 208.376L620.677 215.615H619.631L616.042 205.361H618.052L620.328 212.56L623.014 205.361H623.958L626.644 212.56L628.921 205.361H630.93ZM637.196 205.156C638.235 205.156 639.158 205.402 639.965 205.895C640.771 206.387 641.4 207.043 641.851 207.863C642.316 208.684 642.549 209.579 642.549 210.55C642.549 211.521 642.316 212.416 641.851 213.236C641.4 214.043 640.771 214.693 639.965 215.185C639.158 215.677 638.235 215.923 637.196 215.923C636.157 215.923 635.234 215.677 634.427 215.185C633.621 214.693 632.985 214.043 632.52 213.236C632.069 212.416 631.843 211.521 631.843 210.55C631.843 209.579 632.069 208.684 632.52 207.863C632.985 207.043 633.621 206.387 634.427 205.895C635.234 205.402 636.157 205.156 637.196 205.156ZM637.196 206.797C636.471 206.797 635.836 206.975 635.289 207.33C634.742 207.672 634.318 208.13 634.017 208.704C633.73 209.265 633.587 209.88 633.587 210.55C633.587 211.206 633.73 211.821 634.017 212.396C634.318 212.956 634.742 213.414 635.289 213.77C635.836 214.111 636.471 214.282 637.196 214.282C637.934 214.282 638.57 214.111 639.103 213.77C639.65 213.414 640.067 212.956 640.354 212.396C640.655 211.821 640.805 211.206 640.805 210.55C640.805 209.88 640.655 209.265 640.354 208.704C640.067 208.13 639.65 207.672 639.103 207.33C638.57 206.975 637.934 206.797 637.196 206.797ZM646.579 205.361V207.412C646.975 206.729 647.454 206.182 648.014 205.772C648.575 205.361 649.149 205.156 649.737 205.156C650.133 205.156 650.489 205.225 650.803 205.361V207.31C650.366 207.05 649.928 206.92 649.491 206.92C648.794 206.92 648.226 207.166 647.789 207.658C647.365 208.151 646.962 208.738 646.579 209.422V215.615H644.897V205.361H646.579ZM654.218 200.85V215.615H652.537V200.85H654.218ZM666.554 200.85V215.615H664.872V213.872C664.517 214.419 664.032 214.898 663.416 215.308C662.815 215.718 662.124 215.923 661.345 215.923C660.47 215.923 659.67 215.704 658.946 215.267C658.221 214.816 657.64 214.193 657.203 213.401C656.779 212.608 656.567 211.692 656.567 210.652C656.567 209.518 656.779 208.54 657.203 207.72C657.64 206.9 658.235 206.271 658.987 205.833C659.739 205.382 660.58 205.156 661.509 205.156C662.097 205.156 662.692 205.3 663.293 205.587C663.909 205.86 664.435 206.243 664.872 206.735V200.85H666.554ZM661.817 206.838C661.079 206.838 660.45 207.023 659.93 207.392C659.411 207.747 659.007 208.212 658.72 208.786C658.447 209.36 658.31 209.983 658.31 210.652C658.31 211.309 658.447 211.917 658.72 212.478C658.994 213.025 659.376 213.462 659.869 213.79C660.374 214.118 660.956 214.282 661.612 214.282C662.241 214.282 662.801 214.118 663.293 213.79C663.786 213.462 664.175 213.011 664.462 212.437C664.749 211.849 664.886 211.193 664.872 210.468L664.852 208.499C664.428 207.966 663.97 207.556 663.478 207.269C662.999 206.982 662.446 206.838 661.817 206.838Z" fill="#1A4049"/>
</svg>
