<svg width="830" height="269" viewBox="0 0 830 269" fill="none" xmlns="http://www.w3.org/2000/svg">
<rect width="830" height="268.615" rx="12" fill="#EDF0F1"/>
<path d="M299.493 136.615C324.066 136.615 343.986 116.778 343.986 92.3077C343.986 67.8372 324.066 48 299.493 48C274.92 48 255 67.8372 255 92.3077C255 116.778 274.92 136.615 299.493 136.615Z" fill="#1A4049"/>
<path d="M292.82 72.3691H279.472V112.246H319.516V72.3691H306.168V98.9538H292.82V72.3691Z" fill="white"/>
<path d="M306.167 98.9541H319.515V112.246H306.167V98.9541Z" fill="#817AFE"/>
<path d="M377.386 99.4474V84.8078H384.021V98.7254C384.021 102.813 386.196 105.501 390.29 105.501C394.384 105.501 396.559 102.813 396.559 98.7254V84.8078H403.233V99.4474C403.233 106.484 398.517 111.554 390.385 111.554C382.102 111.554 377.386 106.484 377.386 99.4474ZM416.505 110.982H409.925V84.8078H416.505V89.2064C417.383 87.679 418.652 86.4116 420.181 85.5335C421.71 84.6554 423.446 84.198 425.21 84.208C431.79 84.208 436.145 89.0231 436.145 95.6931V110.982H429.47V97.0149C429.47 92.8774 427.034 90.1338 423.096 90.1338C419.158 90.1338 416.516 92.9107 416.516 97.0149L416.505 110.982ZM442.931 72.9062H449.561V110.982H442.931V72.9062ZM482.879 98.2644V98.9864H462.048C462.31 103.074 465.313 106.206 469.663 106.206C473.862 106.206 475.57 104.085 476.037 103.363H482.567C482.15 106.051 478.579 111.693 469.663 111.693C461.169 111.693 455.418 105.801 455.418 97.9368C455.418 89.8117 461.114 84.1747 469.145 84.1747C477.177 84.1747 482.879 89.7229 482.879 98.2644ZM462.254 94.4324H475.937C474.952 91.1002 472.516 89.2619 469.145 89.2619C465.569 89.2563 463.083 91.1724 462.254 94.4268V94.4324ZM497.641 94.5823H506.245C506.245 91.4278 503.859 89.4118 499.977 89.4118C496.295 89.4118 494.971 91.3779 494.537 92.0499H487.862C488.419 89.3063 491.695 84.1358 499.988 84.1358C508.12 84.1358 512.631 88.3789 512.631 94.5823V103.429C512.631 105.034 513.187 105.651 514.7 105.812V111.138H512.631C509.26 111.088 507.241 109.844 506.512 107.517C505.272 109.433 502.474 111.554 498.019 111.554C491.85 111.554 487.189 108.089 487.189 102.707C487.189 97.3259 491.166 94.5823 497.641 94.5823ZM506.245 101.308V99.0864H498.731C495.622 99.0864 493.725 100.197 493.725 102.602C493.725 105.14 496.111 106.639 499.426 106.639C503.136 106.639 506.245 104.829 506.245 101.308ZM528.422 100.275C522.671 99.8639 518.783 97.1704 518.783 92.0998C518.783 87.1848 523.288 84.0803 530.335 84.0803C539.791 84.0803 542.461 88.9453 543.184 91.4778H536.192C535.725 90.9224 534.223 89.1008 530.285 89.1008C527.126 89.1008 525.468 90.1338 525.468 91.7388C525.468 93.1884 526.581 94.1214 529.195 94.4824L533.645 94.9489C540.748 95.5653 543.657 98.2811 543.657 103.429C543.657 108.344 539.563 111.71 531.531 111.71C521.792 111.71 518.632 106.067 518.115 103.64H525.212C525.474 104.257 527.076 106.589 531.531 106.589C535.213 106.589 536.921 105.345 536.921 103.69C536.921 102.035 535.992 101.102 533.027 100.741C531.164 100.586 530.235 100.486 528.422 100.275ZM555.36 110.982H548.78V72.9062H555.36V89.2064C556.238 87.679 557.507 86.4116 559.036 85.5335C560.565 84.6554 562.3 84.198 564.064 84.208C570.645 84.208 575 89.0231 575 95.6931V110.982H568.325V97.0149C568.325 92.8774 565.889 90.1338 561.951 90.1338C558.013 90.1338 555.371 92.9107 555.371 97.0149L555.36 110.982Z" fill="#1A4049"/>
<path d="M81.0319 173.212V174.955H75.1257V180.615H73.28V166.875H82.2624V168.618H75.1257V173.212H81.0319ZM89.5943 170.156C90.6471 170.156 91.5221 170.375 92.2193 170.812C92.9166 171.25 93.4361 171.845 93.7779 172.597C94.1334 173.349 94.3111 174.196 94.3111 175.14V176.145H86.4361C86.5182 176.719 86.7164 177.245 87.0309 177.724C87.3453 178.202 87.7555 178.585 88.2613 178.872C88.7672 179.146 89.3483 179.282 90.0045 179.282C90.7428 179.282 91.4332 179.098 92.0758 178.729C92.7184 178.346 93.2584 177.929 93.6959 177.478L93.6754 179.303C93.484 179.535 93.1969 179.781 92.8141 180.041C92.4449 180.287 92.0143 180.492 91.5221 180.656C91.0436 180.834 90.5377 180.923 90.0045 180.923C88.9654 180.923 88.0426 180.677 87.2359 180.185C86.4293 179.692 85.7936 179.043 85.3287 178.236C84.8775 177.416 84.652 176.521 84.652 175.55C84.652 174.579 84.8639 173.684 85.2877 172.863C85.7115 172.043 86.2926 171.387 87.0309 170.895C87.7828 170.402 88.6373 170.156 89.5943 170.156ZM89.5943 171.797C88.7467 171.797 88.0494 172.084 87.5025 172.658C86.9557 173.219 86.6139 173.902 86.4772 174.709H92.65C92.5816 174.039 92.3902 173.492 92.0758 173.068C91.775 172.645 91.4059 172.33 90.9684 172.125C90.5309 171.906 90.0729 171.797 89.5943 171.797ZM100.884 170.156C101.472 170.156 102.067 170.3 102.668 170.587C103.284 170.86 103.81 171.243 104.248 171.735V170.361H105.929V180.615H104.248V178.872C103.892 179.419 103.407 179.897 102.792 180.308C102.19 180.718 101.5 180.923 100.72 180.923C99.8452 180.923 99.0454 180.704 98.3208 180.267C97.5962 179.815 97.0152 179.193 96.5777 178.4C96.1538 177.607 95.9419 176.691 95.9419 175.652C95.9419 174.518 96.1538 173.54 96.5777 172.72C97.0152 171.899 97.6099 171.271 98.3618 170.833C99.1138 170.382 99.9546 170.156 100.884 170.156ZM101.192 171.797C100.454 171.797 99.8247 171.981 99.3052 172.351C98.7857 172.72 98.3824 173.198 98.0952 173.786C97.8218 174.36 97.6851 174.982 97.6851 175.652C97.6851 176.309 97.8218 176.917 98.0952 177.478C98.3687 178.024 98.7515 178.462 99.2437 178.79C99.7495 179.118 100.331 179.282 100.987 179.282C101.616 179.282 102.176 179.118 102.668 178.79C103.161 178.462 103.55 178.011 103.837 177.437C104.125 176.849 104.261 176.192 104.248 175.468L104.227 173.499C103.803 172.966 103.345 172.549 102.853 172.248C102.375 171.947 101.821 171.797 101.192 171.797ZM111.826 167.408V170.361H114.82V171.94H111.826V177.949C111.826 178.373 111.935 178.708 112.154 178.954C112.373 179.2 112.707 179.323 113.159 179.323C113.569 179.323 113.911 179.275 114.184 179.18C114.457 179.07 114.697 178.954 114.902 178.831V180.205C114.628 180.424 114.334 180.595 114.02 180.718C113.719 180.854 113.309 180.923 112.79 180.923C111.915 180.923 111.251 180.663 110.8 180.144C110.363 179.61 110.144 178.906 110.144 178.031V171.94H108.175V171.448C108.845 171.147 109.406 170.655 109.857 169.972C110.308 169.274 110.705 168.42 111.046 167.408H111.826ZM125.843 170.361V176.432C125.843 177.334 125.652 178.113 125.269 178.77C124.886 179.426 124.367 179.932 123.71 180.287C123.054 180.643 122.316 180.82 121.495 180.82C120.675 180.82 119.937 180.643 119.281 180.287C118.624 179.932 118.105 179.426 117.722 178.77C117.339 178.113 117.148 177.334 117.148 176.432V170.361H118.891V176.432C118.891 177.32 119.151 178.004 119.67 178.482C120.203 178.947 120.812 179.18 121.495 179.18C122.179 179.18 122.781 178.947 123.3 178.482C123.833 178.004 124.1 177.32 124.1 176.432V170.361H125.843ZM130.283 170.361V172.412C130.68 171.729 131.158 171.182 131.719 170.771C132.28 170.361 132.854 170.156 133.442 170.156C133.838 170.156 134.194 170.225 134.508 170.361V172.31C134.071 172.05 133.633 171.92 133.196 171.92C132.498 171.92 131.931 172.166 131.493 172.658C131.07 173.15 130.666 173.738 130.283 174.422V180.615H128.602V170.361H130.283ZM140.466 170.156C141.519 170.156 142.394 170.375 143.091 170.812C143.788 171.25 144.308 171.845 144.65 172.597C145.005 173.349 145.183 174.196 145.183 175.14V176.145H137.308C137.39 176.719 137.588 177.245 137.903 177.724C138.217 178.202 138.627 178.585 139.133 178.872C139.639 179.146 140.22 179.282 140.876 179.282C141.614 179.282 142.305 179.098 142.947 178.729C143.59 178.346 144.13 177.929 144.568 177.478L144.547 179.303C144.356 179.535 144.069 179.781 143.686 180.041C143.317 180.287 142.886 180.492 142.394 180.656C141.915 180.834 141.409 180.923 140.876 180.923C139.837 180.923 138.914 180.677 138.108 180.185C137.301 179.692 136.665 179.043 136.2 178.236C135.749 177.416 135.524 176.521 135.524 175.55C135.524 174.579 135.736 173.684 136.159 172.863C136.583 172.043 137.164 171.387 137.903 170.895C138.654 170.402 139.509 170.156 140.466 170.156ZM140.466 171.797C139.618 171.797 138.921 172.084 138.374 172.658C137.827 173.219 137.486 173.902 137.349 174.709H143.522C143.453 174.039 143.262 173.492 142.947 173.068C142.647 172.645 142.278 172.33 141.84 172.125C141.403 171.906 140.945 171.797 140.466 171.797ZM154.945 170.361V171.674C155.273 171.305 155.69 170.963 156.196 170.648C156.716 170.32 157.324 170.156 158.022 170.156C158.76 170.156 159.45 170.334 160.093 170.689C160.735 171.031 161.228 171.551 161.569 172.248C162.048 171.674 162.567 171.182 163.128 170.771C163.689 170.361 164.345 170.156 165.097 170.156C165.794 170.156 166.443 170.313 167.045 170.628C167.66 170.929 168.152 171.394 168.522 172.022C168.904 172.638 169.096 173.417 169.096 174.36V180.615H167.414L167.394 174.524C167.394 173.636 167.161 172.959 166.696 172.494C166.245 172.029 165.616 171.797 164.81 171.797C164.222 171.797 163.709 171.981 163.272 172.351C162.834 172.72 162.417 173.15 162.021 173.643V180.615H160.339L160.318 174.524C160.318 173.636 160.086 172.959 159.621 172.494C159.17 172.029 158.541 171.797 157.734 171.797C157.174 171.797 156.661 171.961 156.196 172.289C155.745 172.617 155.328 173.014 154.945 173.479V180.615H153.264V170.361H154.945ZM176.079 170.156C176.667 170.156 177.262 170.3 177.863 170.587C178.478 170.86 179.005 171.243 179.442 171.735V170.361H181.124V180.615H179.442V178.872C179.087 179.419 178.602 179.897 177.986 180.308C177.385 180.718 176.694 180.923 175.915 180.923C175.04 180.923 174.24 180.704 173.516 180.267C172.791 179.815 172.21 179.193 171.772 178.4C171.349 177.607 171.137 176.691 171.137 175.652C171.137 174.518 171.349 173.54 171.772 172.72C172.21 171.899 172.805 171.271 173.557 170.833C174.309 170.382 175.149 170.156 176.079 170.156ZM176.387 171.797C175.648 171.797 175.02 171.981 174.5 172.351C173.98 172.72 173.577 173.198 173.29 173.786C173.017 174.36 172.88 174.982 172.88 175.652C172.88 176.309 173.017 176.917 173.29 177.478C173.563 178.024 173.946 178.462 174.438 178.79C174.944 179.118 175.525 179.282 176.182 179.282C176.811 179.282 177.371 179.118 177.863 178.79C178.355 178.462 178.745 178.011 179.032 177.437C179.319 176.849 179.456 176.192 179.442 175.468L179.422 173.499C178.998 172.966 178.54 172.549 178.048 172.248C177.569 171.947 177.016 171.797 176.387 171.797ZM185.872 170.361V171.981C186.091 171.708 186.371 171.435 186.713 171.161C187.055 170.874 187.437 170.635 187.861 170.443C188.299 170.252 188.75 170.156 189.215 170.156C189.912 170.156 190.548 170.313 191.122 170.628C191.696 170.929 192.154 171.394 192.496 172.022C192.838 172.638 193.009 173.417 193.009 174.36V180.615H191.327L191.307 174.524C191.307 173.636 191.108 172.959 190.712 172.494C190.329 172.029 189.734 171.797 188.928 171.797C188.381 171.797 187.834 172.002 187.287 172.412C186.754 172.809 186.282 173.273 185.872 173.807V180.615H184.19V170.361H185.872ZM199.992 170.156C200.58 170.156 201.175 170.3 201.776 170.587C202.391 170.86 202.918 171.243 203.355 171.735V170.361H205.037V180.615H203.355V178.872C203 179.419 202.514 179.897 201.899 180.308C201.298 180.718 200.607 180.923 199.828 180.923C198.953 180.923 198.153 180.704 197.429 180.267C196.704 179.815 196.123 179.193 195.685 178.4C195.262 177.607 195.05 176.691 195.05 175.652C195.05 174.518 195.262 173.54 195.685 172.72C196.123 171.899 196.718 171.271 197.47 170.833C198.221 170.382 199.062 170.156 199.992 170.156ZM200.3 171.797C199.561 171.797 198.932 171.981 198.413 172.351C197.893 172.72 197.49 173.198 197.203 173.786C196.93 174.36 196.793 174.982 196.793 175.652C196.793 176.309 196.93 176.917 197.203 177.478C197.476 178.024 197.859 178.462 198.351 178.79C198.857 179.118 199.438 179.282 200.095 179.282C200.723 179.282 201.284 179.118 201.776 178.79C202.268 178.462 202.658 178.011 202.945 177.437C203.232 176.849 203.369 176.192 203.355 175.468L203.335 173.499C202.911 172.966 202.453 172.549 201.961 172.248C201.482 171.947 200.929 171.797 200.3 171.797ZM212.328 170.156C212.916 170.156 213.51 170.3 214.112 170.587C214.727 170.86 215.254 171.243 215.691 171.735V170.361H217.373V180.41C217.373 181.627 217.127 182.639 216.635 183.445C216.142 184.252 215.486 184.854 214.666 185.25C213.845 185.646 212.95 185.845 211.979 185.845C211.35 185.845 210.81 185.77 210.359 185.619C209.922 185.482 209.546 185.305 209.231 185.086C208.917 184.881 208.63 184.683 208.37 184.491V182.687C208.575 182.837 208.842 183.028 209.17 183.261C209.511 183.507 209.915 183.726 210.38 183.917C210.858 184.108 211.391 184.204 211.979 184.204C212.649 184.204 213.264 184.081 213.825 183.835C214.385 183.589 214.837 183.227 215.178 182.748C215.52 182.27 215.691 181.695 215.691 181.025V178.872C215.336 179.419 214.85 179.897 214.235 180.308C213.634 180.718 212.943 180.923 212.164 180.923C211.289 180.923 210.489 180.704 209.764 180.267C209.04 179.815 208.459 179.193 208.021 178.4C207.597 177.607 207.385 176.691 207.385 175.652C207.385 174.518 207.597 173.54 208.021 172.72C208.459 171.899 209.053 171.271 209.805 170.833C210.557 170.382 211.398 170.156 212.328 170.156ZM212.635 171.817C211.897 171.817 211.268 172.002 210.749 172.371C210.229 172.727 209.826 173.198 209.539 173.786C209.265 174.36 209.129 174.982 209.129 175.652C209.129 176.309 209.265 176.91 209.539 177.457C209.812 178.004 210.195 178.441 210.687 178.77C211.193 179.098 211.774 179.262 212.43 179.262C213.059 179.262 213.62 179.098 214.112 178.77C214.604 178.441 214.994 177.99 215.281 177.416C215.568 176.842 215.705 176.192 215.691 175.468L215.671 173.499C215.247 172.966 214.789 172.556 214.297 172.269C213.818 171.968 213.264 171.817 212.635 171.817ZM224.664 170.156C225.716 170.156 226.591 170.375 227.289 170.812C227.986 171.25 228.506 171.845 228.847 172.597C229.203 173.349 229.381 174.196 229.381 175.14V176.145H221.506C221.588 176.719 221.786 177.245 222.1 177.724C222.415 178.202 222.825 178.585 223.331 178.872C223.837 179.146 224.418 179.282 225.074 179.282C225.812 179.282 226.503 179.098 227.145 178.729C227.788 178.346 228.328 177.929 228.765 177.478L228.745 179.303C228.553 179.535 228.266 179.781 227.883 180.041C227.514 180.287 227.084 180.492 226.591 180.656C226.113 180.834 225.607 180.923 225.074 180.923C224.035 180.923 223.112 180.677 222.305 180.185C221.499 179.692 220.863 179.043 220.398 178.236C219.947 177.416 219.721 176.521 219.721 175.55C219.721 174.579 219.933 173.684 220.357 172.863C220.781 172.043 221.362 171.387 222.1 170.895C222.852 170.402 223.707 170.156 224.664 170.156ZM224.664 171.797C223.816 171.797 223.119 172.084 222.572 172.658C222.025 173.219 221.683 173.902 221.547 174.709H227.719C227.651 174.039 227.46 173.492 227.145 173.068C226.844 172.645 226.475 172.33 226.038 172.125C225.6 171.906 225.142 171.797 224.664 171.797ZM233.411 170.361V171.674C233.739 171.305 234.156 170.963 234.662 170.648C235.181 170.32 235.79 170.156 236.487 170.156C237.225 170.156 237.916 170.334 238.558 170.689C239.201 171.031 239.693 171.551 240.035 172.248C240.513 171.674 241.033 171.182 241.593 170.771C242.154 170.361 242.81 170.156 243.562 170.156C244.259 170.156 244.909 170.313 245.51 170.628C246.126 170.929 246.618 171.394 246.987 172.022C247.37 172.638 247.561 173.417 247.561 174.36V180.615H245.879L245.859 174.524C245.859 173.636 245.627 172.959 245.162 172.494C244.711 172.029 244.082 171.797 243.275 171.797C242.687 171.797 242.174 171.981 241.737 172.351C241.299 172.72 240.882 173.15 240.486 173.643V180.615H238.804L238.784 174.524C238.784 173.636 238.551 172.959 238.086 172.494C237.635 172.029 237.006 171.797 236.2 171.797C235.639 171.797 235.127 171.961 234.662 172.289C234.211 172.617 233.794 173.014 233.411 173.479V180.615H231.729V170.361H233.411ZM254.544 170.156C255.597 170.156 256.472 170.375 257.169 170.812C257.867 171.25 258.386 171.845 258.728 172.597C259.083 173.349 259.261 174.196 259.261 175.14V176.145H251.386C251.468 176.719 251.666 177.245 251.981 177.724C252.295 178.202 252.706 178.585 253.211 178.872C253.717 179.146 254.298 179.282 254.955 179.282C255.693 179.282 256.383 179.098 257.026 178.729C257.668 178.346 258.208 177.929 258.646 177.478L258.625 179.303C258.434 179.535 258.147 179.781 257.764 180.041C257.395 180.287 256.964 180.492 256.472 180.656C255.994 180.834 255.488 180.923 254.955 180.923C253.916 180.923 252.993 180.677 252.186 180.185C251.379 179.692 250.744 179.043 250.279 178.236C249.828 177.416 249.602 176.521 249.602 175.55C249.602 174.579 249.814 173.684 250.238 172.863C250.662 172.043 251.243 171.387 251.981 170.895C252.733 170.402 253.587 170.156 254.544 170.156ZM254.544 171.797C253.697 171.797 252.999 172.084 252.453 172.658C251.906 173.219 251.564 173.902 251.427 174.709H257.6C257.532 174.039 257.34 173.492 257.026 173.068C256.725 172.645 256.356 172.33 255.918 172.125C255.481 171.906 255.023 171.797 254.544 171.797ZM263.291 170.361V171.981C263.51 171.708 263.79 171.435 264.132 171.161C264.474 170.874 264.857 170.635 265.281 170.443C265.718 170.252 266.169 170.156 266.634 170.156C267.331 170.156 267.967 170.313 268.541 170.628C269.116 170.929 269.574 171.394 269.915 172.022C270.257 172.638 270.428 173.417 270.428 174.36V180.615H268.746L268.726 174.524C268.726 173.636 268.528 172.959 268.131 172.494C267.748 172.029 267.154 171.797 266.347 171.797C265.8 171.797 265.253 172.002 264.706 172.412C264.173 172.809 263.702 173.273 263.291 173.807V180.615H261.61V170.361H263.291ZM276.017 167.408V170.361H279.011V171.94H276.017V177.949C276.017 178.373 276.126 178.708 276.345 178.954C276.564 179.2 276.899 179.323 277.35 179.323C277.76 179.323 278.102 179.275 278.375 179.18C278.649 179.07 278.888 178.954 279.093 178.831V180.205C278.82 180.424 278.526 180.595 278.211 180.718C277.91 180.854 277.5 180.923 276.981 180.923C276.106 180.923 275.443 180.663 274.992 180.144C274.554 179.61 274.335 178.906 274.335 178.031V171.94H272.367V171.448C273.036 171.147 273.597 170.655 274.048 169.972C274.499 169.274 274.896 168.42 275.238 167.408H276.017ZM290.435 170.156C291.036 170.156 291.597 170.245 292.116 170.423C292.636 170.587 293.012 170.758 293.244 170.936V172.74C292.957 172.521 292.568 172.31 292.075 172.104C291.583 171.899 291.077 171.797 290.558 171.797C289.915 171.797 289.43 171.947 289.102 172.248C288.787 172.549 288.63 172.863 288.63 173.191C288.63 173.451 288.719 173.718 288.897 173.991C289.088 174.251 289.416 174.463 289.881 174.627L291.604 175.242C292.274 175.475 292.773 175.81 293.101 176.247C293.429 176.685 293.593 177.197 293.593 177.785C293.593 178.359 293.429 178.886 293.101 179.364C292.786 179.843 292.342 180.226 291.768 180.513C291.207 180.786 290.558 180.923 289.82 180.923C289.423 180.923 289.006 180.868 288.569 180.759C288.145 180.663 287.762 180.547 287.42 180.41C287.078 180.26 286.825 180.13 286.661 180.021V178.216C286.853 178.353 287.119 178.51 287.461 178.688C287.817 178.852 288.193 178.995 288.589 179.118C288.986 179.228 289.355 179.282 289.696 179.282C290.339 179.282 290.845 179.139 291.214 178.852C291.597 178.564 291.788 178.209 291.788 177.785C291.788 177.457 291.658 177.197 291.399 177.006C291.153 176.814 290.79 176.63 290.312 176.452L288.794 175.898C288.001 175.598 287.475 175.222 287.215 174.771C286.955 174.306 286.825 173.779 286.825 173.191C286.825 172.316 287.153 171.592 287.81 171.018C288.466 170.443 289.341 170.156 290.435 170.156ZM300.371 170.156C301.41 170.156 302.333 170.402 303.14 170.895C303.946 171.387 304.575 172.043 305.026 172.863C305.491 173.684 305.724 174.579 305.724 175.55C305.724 176.521 305.491 177.416 305.026 178.236C304.575 179.043 303.946 179.692 303.14 180.185C302.333 180.677 301.41 180.923 300.371 180.923C299.332 180.923 298.409 180.677 297.603 180.185C296.796 179.692 296.16 179.043 295.695 178.236C295.244 177.416 295.019 176.521 295.019 175.55C295.019 174.579 295.244 173.684 295.695 172.863C296.16 172.043 296.796 171.387 297.603 170.895C298.409 170.402 299.332 170.156 300.371 170.156ZM300.371 171.797C299.647 171.797 299.011 171.975 298.464 172.33C297.917 172.672 297.493 173.13 297.192 173.704C296.905 174.265 296.762 174.88 296.762 175.55C296.762 176.206 296.905 176.821 297.192 177.396C297.493 177.956 297.917 178.414 298.464 178.77C299.011 179.111 299.647 179.282 300.371 179.282C301.109 179.282 301.745 179.111 302.278 178.77C302.825 178.414 303.242 177.956 303.529 177.396C303.83 176.821 303.981 176.206 303.981 175.55C303.981 174.88 303.83 174.265 303.529 173.704C303.242 173.13 302.825 172.672 302.278 172.33C301.745 171.975 301.109 171.797 300.371 171.797ZM309.754 165.85V180.615H308.072V165.85H309.754ZM321.208 170.361V176.432C321.208 177.334 321.017 178.113 320.634 178.77C320.251 179.426 319.731 179.932 319.075 180.287C318.419 180.643 317.681 180.82 316.86 180.82C316.04 180.82 315.302 180.643 314.645 180.287C313.989 179.932 313.47 179.426 313.087 178.77C312.704 178.113 312.513 177.334 312.513 176.432V170.361H314.256V176.432C314.256 177.32 314.516 178.004 315.035 178.482C315.568 178.947 316.177 179.18 316.86 179.18C317.544 179.18 318.145 178.947 318.665 178.482C319.198 178.004 319.465 177.32 319.465 176.432V170.361H321.208ZM326.797 167.408V170.361H329.791V171.94H326.797V177.949C326.797 178.373 326.906 178.708 327.125 178.954C327.344 179.2 327.679 179.323 328.13 179.323C328.54 179.323 328.882 179.275 329.155 179.18C329.429 179.07 329.668 178.954 329.873 178.831V180.205C329.599 180.424 329.306 180.595 328.991 180.718C328.69 180.854 328.28 180.923 327.761 180.923C326.886 180.923 326.223 180.663 325.771 180.144C325.334 179.61 325.115 178.906 325.115 178.031V171.94H323.146V171.448C323.816 171.147 324.377 170.655 324.828 169.972C325.279 169.274 325.676 168.42 326.017 167.408H326.797ZM334.067 165.439C334.464 165.439 334.792 165.583 335.052 165.87C335.325 166.144 335.462 166.465 335.462 166.834C335.462 167.189 335.325 167.511 335.052 167.798C334.792 168.085 334.464 168.229 334.067 168.229C333.671 168.229 333.336 168.085 333.062 167.798C332.803 167.511 332.673 167.189 332.673 166.834C332.673 166.465 332.803 166.144 333.062 165.87C333.336 165.583 333.671 165.439 334.067 165.439ZM335.113 170.361V180.615H333.431V171.94H331.811V170.361H335.113ZM342.958 170.156C343.997 170.156 344.92 170.402 345.726 170.895C346.533 171.387 347.162 172.043 347.613 172.863C348.078 173.684 348.31 174.579 348.31 175.55C348.31 176.521 348.078 177.416 347.613 178.236C347.162 179.043 346.533 179.692 345.726 180.185C344.92 180.677 343.997 180.923 342.958 180.923C341.919 180.923 340.996 180.677 340.189 180.185C339.383 179.692 338.747 179.043 338.282 178.236C337.831 177.416 337.605 176.521 337.605 175.55C337.605 174.579 337.831 173.684 338.282 172.863C338.747 172.043 339.383 171.387 340.189 170.895C340.996 170.402 341.919 170.156 342.958 170.156ZM342.958 171.797C342.233 171.797 341.597 171.975 341.05 172.33C340.504 172.672 340.08 173.13 339.779 173.704C339.492 174.265 339.348 174.88 339.348 175.55C339.348 176.206 339.492 176.821 339.779 177.396C340.08 177.956 340.504 178.414 341.05 178.77C341.597 179.111 342.233 179.282 342.958 179.282C343.696 179.282 344.332 179.111 344.865 178.77C345.412 178.414 345.829 177.956 346.116 177.396C346.417 176.821 346.567 176.206 346.567 175.55C346.567 174.88 346.417 174.265 346.116 173.704C345.829 173.13 345.412 172.672 344.865 172.33C344.332 171.975 343.696 171.797 342.958 171.797ZM352.34 170.361V171.981C352.559 171.708 352.839 171.435 353.181 171.161C353.523 170.874 353.906 170.635 354.33 170.443C354.767 170.252 355.218 170.156 355.683 170.156C356.38 170.156 357.016 170.313 357.59 170.628C358.165 170.929 358.623 171.394 358.964 172.022C359.306 172.638 359.477 173.417 359.477 174.36V180.615H357.796L357.775 174.524C357.775 173.636 357.577 172.959 357.18 172.494C356.797 172.029 356.203 171.797 355.396 171.797C354.849 171.797 354.302 172.002 353.755 172.412C353.222 172.809 352.751 173.273 352.34 173.807V180.615H350.659V170.361H352.34ZM381.421 170.361L377.832 180.615H376.787L373.977 173.376L371.167 180.615H370.122L366.533 170.361H368.542L370.819 177.56L373.505 170.361H374.449L377.135 177.56L379.412 170.361H381.421ZM384.693 165.439C385.089 165.439 385.417 165.583 385.677 165.87C385.951 166.144 386.087 166.465 386.087 166.834C386.087 167.189 385.951 167.511 385.677 167.798C385.417 168.085 385.089 168.229 384.693 168.229C384.296 168.229 383.961 168.085 383.688 167.798C383.428 167.511 383.298 167.189 383.298 166.834C383.298 166.465 383.428 166.144 383.688 165.87C383.961 165.583 384.296 165.439 384.693 165.439ZM385.739 170.361V180.615H384.057V171.94H382.437V170.361H385.739ZM391.779 167.408V170.361H394.773V171.94H391.779V177.949C391.779 178.373 391.888 178.708 392.107 178.954C392.325 179.2 392.66 179.323 393.112 179.323C393.522 179.323 393.864 179.275 394.137 179.18C394.41 179.07 394.65 178.954 394.855 178.831V180.205C394.581 180.424 394.287 180.595 393.973 180.718C393.672 180.854 393.262 180.923 392.742 180.923C391.867 180.923 391.204 180.663 390.753 180.144C390.316 179.61 390.097 178.906 390.097 178.031V171.94H388.128V171.448C388.798 171.147 389.359 170.655 389.81 169.972C390.261 169.274 390.658 168.42 390.999 167.408H391.779ZM402.433 170.156C403.13 170.156 403.766 170.313 404.34 170.628C404.914 170.929 405.372 171.394 405.714 172.022C406.056 172.638 406.227 173.417 406.227 174.36V180.615H404.545L404.525 174.524C404.525 173.636 404.326 172.959 403.93 172.494C403.547 172.029 402.952 171.797 402.146 171.797C401.599 171.797 401.052 172.002 400.505 172.412C399.972 172.809 399.5 173.273 399.09 173.807V180.615H397.408V165.85H399.09V171.981C399.309 171.708 399.589 171.435 399.931 171.161C400.273 170.874 400.655 170.635 401.079 170.443C401.517 170.252 401.968 170.156 402.433 170.156ZM422.634 178.975V180.615H415.19V178.975H417.917V170.033C417.507 170.389 417.083 170.635 416.646 170.771C416.208 170.908 415.771 171.018 415.333 171.1V169.336C416.126 169.131 416.816 168.796 417.404 168.331C417.992 167.866 418.478 167.381 418.86 166.875H419.763V178.975H422.634ZM433.329 166.875V168.577H427.915V172.248C428.12 172.166 428.353 172.098 428.612 172.043C428.886 171.988 429.234 171.961 429.658 171.961C430.424 171.961 431.121 172.146 431.75 172.515C432.393 172.884 432.905 173.383 433.288 174.012C433.685 174.641 433.883 175.358 433.883 176.165C433.883 177.095 433.664 177.922 433.227 178.646C432.789 179.357 432.187 179.918 431.422 180.328C430.656 180.725 429.788 180.923 428.817 180.923C428.325 180.923 427.84 180.848 427.361 180.697C426.883 180.561 426.452 180.383 426.069 180.164C425.686 179.945 425.372 179.727 425.126 179.508V177.478C425.386 177.683 425.7 177.929 426.069 178.216C426.438 178.489 426.855 178.735 427.32 178.954C427.785 179.159 428.284 179.262 428.817 179.262C429.433 179.262 429.993 179.139 430.499 178.893C431.005 178.646 431.401 178.305 431.688 177.867C431.989 177.43 432.14 176.917 432.14 176.329C432.14 175.769 431.982 175.29 431.668 174.894C431.353 174.483 430.936 174.169 430.417 173.95C429.897 173.718 429.33 173.602 428.715 173.602C428.195 173.602 427.717 173.67 427.279 173.807C426.855 173.93 426.452 174.066 426.069 174.217V166.875H433.329ZM446.804 170.156C447.843 170.156 448.765 170.402 449.572 170.895C450.379 171.387 451.008 172.043 451.459 172.863C451.924 173.684 452.156 174.579 452.156 175.55C452.156 176.521 451.924 177.416 451.459 178.236C451.008 179.043 450.379 179.692 449.572 180.185C448.765 180.677 447.843 180.923 446.804 180.923C445.764 180.923 444.842 180.677 444.035 180.185C443.228 179.692 442.593 179.043 442.128 178.236C441.677 177.416 441.451 176.521 441.451 175.55C441.451 174.579 441.677 173.684 442.128 172.863C442.593 172.043 443.228 171.387 444.035 170.895C444.842 170.402 445.764 170.156 446.804 170.156ZM446.804 171.797C446.079 171.797 445.443 171.975 444.896 172.33C444.349 172.672 443.926 173.13 443.625 173.704C443.338 174.265 443.194 174.88 443.194 175.55C443.194 176.206 443.338 176.821 443.625 177.396C443.926 177.956 444.349 178.414 444.896 178.77C445.443 179.111 446.079 179.282 446.804 179.282C447.542 179.282 448.178 179.111 448.711 178.77C449.258 178.414 449.675 177.956 449.962 177.396C450.263 176.821 450.413 176.206 450.413 175.55C450.413 174.88 450.263 174.265 449.962 173.704C449.675 173.13 449.258 172.672 448.711 172.33C448.178 171.975 447.542 171.797 446.804 171.797ZM459.816 170.361V171.94H456.822V180.615H455.14V171.94H453.52V170.361H455.14V169.049C455.14 168.242 455.298 167.586 455.612 167.08C455.926 166.561 456.33 166.178 456.822 165.932C457.314 165.672 457.813 165.542 458.319 165.542C459.016 165.542 459.584 165.727 460.021 166.096V167.572C459.816 167.436 459.57 167.326 459.283 167.244C458.996 167.162 458.709 167.128 458.422 167.142C457.916 167.155 457.519 167.319 457.232 167.634C456.959 167.935 456.822 168.468 456.822 169.233V170.361H459.816ZM466.943 170.361V171.94H463.949V180.615H462.267V171.94H460.647V170.361H462.267V169.049C462.267 168.242 462.424 167.586 462.739 167.08C463.053 166.561 463.457 166.178 463.949 165.932C464.441 165.672 464.94 165.542 465.446 165.542C466.143 165.542 466.711 165.727 467.148 166.096V167.572C466.943 167.436 466.697 167.326 466.41 167.244C466.123 167.162 465.836 167.128 465.548 167.142C465.043 167.155 464.646 167.319 464.359 167.634C464.086 167.935 463.949 168.468 463.949 169.233V170.361H466.943ZM470.399 165.439C470.795 165.439 471.124 165.583 471.383 165.87C471.657 166.144 471.794 166.465 471.794 166.834C471.794 167.189 471.657 167.511 471.383 167.798C471.124 168.085 470.795 168.229 470.399 168.229C470.003 168.229 469.668 168.085 469.394 167.798C469.134 167.511 469.004 167.189 469.004 166.834C469.004 166.465 469.134 166.144 469.394 165.87C469.668 165.583 470.003 165.439 470.399 165.439ZM471.445 170.361V180.615H469.763V171.94H468.143V170.361H471.445ZM479.29 170.156C480.042 170.156 480.691 170.279 481.238 170.525C481.785 170.758 482.161 170.97 482.366 171.161V172.863C481.983 172.576 481.545 172.33 481.053 172.125C480.561 171.906 479.973 171.797 479.29 171.797C478.565 171.797 477.929 171.975 477.382 172.33C476.835 172.672 476.412 173.13 476.111 173.704C475.824 174.265 475.68 174.88 475.68 175.55C475.68 176.206 475.824 176.821 476.111 177.396C476.412 177.956 476.835 178.414 477.382 178.77C477.929 179.111 478.565 179.282 479.29 179.282C479.973 179.282 480.561 179.18 481.053 178.975C481.545 178.756 481.983 178.503 482.366 178.216V179.918C482.161 180.123 481.785 180.342 481.238 180.574C480.691 180.807 480.042 180.923 479.29 180.923C478.25 180.923 477.328 180.677 476.521 180.185C475.714 179.692 475.079 179.043 474.614 178.236C474.163 177.416 473.937 176.521 473.937 175.55C473.937 174.579 474.163 173.684 474.614 172.863C475.079 172.043 475.714 171.387 476.521 170.895C477.328 170.402 478.25 170.156 479.29 170.156ZM486.355 165.439C486.751 165.439 487.079 165.583 487.339 165.87C487.613 166.144 487.749 166.465 487.749 166.834C487.749 167.189 487.613 167.511 487.339 167.798C487.079 168.085 486.751 168.229 486.355 168.229C485.958 168.229 485.623 168.085 485.35 167.798C485.09 167.511 484.96 167.189 484.96 166.834C484.96 166.465 485.09 166.144 485.35 165.87C485.623 165.583 485.958 165.439 486.355 165.439ZM487.401 170.361V180.615H485.719V171.94H484.099V170.361H487.401ZM494.835 170.156C495.423 170.156 496.018 170.3 496.619 170.587C497.235 170.86 497.761 171.243 498.199 171.735V170.361H499.88V180.615H498.199V178.872C497.843 179.419 497.358 179.897 496.742 180.308C496.141 180.718 495.451 180.923 494.671 180.923C493.796 180.923 492.996 180.704 492.272 180.267C491.547 179.815 490.966 179.193 490.529 178.4C490.105 177.607 489.893 176.691 489.893 175.652C489.893 174.518 490.105 173.54 490.529 172.72C490.966 171.899 491.561 171.271 492.313 170.833C493.065 170.382 493.906 170.156 494.835 170.156ZM495.143 171.797C494.405 171.797 493.776 171.981 493.256 172.351C492.737 172.72 492.333 173.198 492.046 173.786C491.773 174.36 491.636 174.982 491.636 175.652C491.636 176.309 491.773 176.917 492.046 177.478C492.32 178.024 492.702 178.462 493.195 178.79C493.701 179.118 494.282 179.282 494.938 179.282C495.567 179.282 496.127 179.118 496.619 178.79C497.112 178.462 497.501 178.011 497.788 177.437C498.076 176.849 498.212 176.192 498.199 175.468L498.178 173.499C497.754 172.966 497.296 172.549 496.804 172.248C496.326 171.947 495.772 171.797 495.143 171.797ZM504.628 165.85V180.615H502.947V165.85H504.628ZM517.651 170.156C518.239 170.156 518.834 170.3 519.436 170.587C520.051 170.86 520.577 171.243 521.015 171.735V170.361H522.696V180.615H521.015V178.872C520.659 179.419 520.174 179.897 519.559 180.308C518.957 180.718 518.267 180.923 517.487 180.923C516.612 180.923 515.813 180.704 515.088 180.267C514.363 179.815 513.782 179.193 513.345 178.4C512.921 177.607 512.709 176.691 512.709 175.652C512.709 174.518 512.921 173.54 513.345 172.72C513.782 171.899 514.377 171.271 515.129 170.833C515.881 170.382 516.722 170.156 517.651 170.156ZM517.959 171.797C517.221 171.797 516.592 171.981 516.072 172.351C515.553 172.72 515.15 173.198 514.862 173.786C514.589 174.36 514.452 174.982 514.452 175.652C514.452 176.309 514.589 176.917 514.862 177.478C515.136 178.024 515.519 178.462 516.011 178.79C516.517 179.118 517.098 179.282 517.754 179.282C518.383 179.282 518.943 179.118 519.436 178.79C519.928 178.462 520.317 178.011 520.605 177.437C520.892 176.849 521.028 176.192 521.015 175.468L520.994 173.499C520.57 172.966 520.112 172.549 519.62 172.248C519.142 171.947 518.588 171.797 517.959 171.797ZM527.444 170.361V171.981C527.663 171.708 527.943 171.435 528.285 171.161C528.627 170.874 529.01 170.635 529.434 170.443C529.871 170.252 530.322 170.156 530.787 170.156C531.484 170.156 532.12 170.313 532.694 170.628C533.269 170.929 533.727 171.394 534.068 172.022C534.41 172.638 534.581 173.417 534.581 174.36V180.615H532.899L532.879 174.524C532.879 173.636 532.681 172.959 532.284 172.494C531.901 172.029 531.307 171.797 530.5 171.797C529.953 171.797 529.406 172.002 528.859 172.412C528.326 172.809 527.854 173.273 527.444 173.807V180.615H525.763V170.361H527.444ZM546.609 165.85V180.615H544.928V178.872C544.572 179.419 544.087 179.897 543.472 180.308C542.87 180.718 542.18 180.923 541.4 180.923C540.525 180.923 539.726 180.704 539.001 180.267C538.276 179.815 537.695 179.193 537.258 178.4C536.834 177.607 536.622 176.691 536.622 175.652C536.622 174.518 536.834 173.54 537.258 172.72C537.695 171.899 538.29 171.271 539.042 170.833C539.794 170.382 540.635 170.156 541.564 170.156C542.152 170.156 542.747 170.3 543.349 170.587C543.964 170.86 544.49 171.243 544.928 171.735V165.85H546.609ZM541.872 171.838C541.134 171.838 540.505 172.022 539.985 172.392C539.466 172.747 539.062 173.212 538.775 173.786C538.502 174.36 538.365 174.982 538.365 175.652C538.365 176.309 538.502 176.917 538.775 177.478C539.049 178.024 539.432 178.462 539.924 178.79C540.43 179.118 541.011 179.282 541.667 179.282C542.296 179.282 542.856 179.118 543.349 178.79C543.841 178.462 544.23 178.011 544.518 177.437C544.805 176.849 544.941 176.192 544.928 175.468L544.907 173.499C544.483 172.966 544.025 172.556 543.533 172.269C543.055 171.981 542.501 171.838 541.872 171.838ZM563.324 178.975V180.615H555.88V178.975H558.607V170.033C558.197 170.389 557.773 170.635 557.336 170.771C556.898 170.908 556.461 171.018 556.023 171.1V169.336C556.816 169.131 557.507 168.796 558.094 168.331C558.682 167.866 559.168 167.381 559.551 166.875H560.453V178.975H563.324ZM574.019 166.875V168.577H568.605V172.248C568.81 172.166 569.043 172.098 569.302 172.043C569.576 171.988 569.924 171.961 570.348 171.961C571.114 171.961 571.811 172.146 572.44 172.515C573.083 172.884 573.595 173.383 573.978 174.012C574.375 174.641 574.573 175.358 574.573 176.165C574.573 177.095 574.354 177.922 573.917 178.646C573.479 179.357 572.878 179.918 572.112 180.328C571.346 180.725 570.478 180.923 569.508 180.923C569.015 180.923 568.53 180.848 568.051 180.697C567.573 180.561 567.142 180.383 566.759 180.164C566.377 179.945 566.062 179.727 565.816 179.508V177.478C566.076 177.683 566.39 177.929 566.759 178.216C567.129 178.489 567.546 178.735 568.01 178.954C568.475 179.159 568.974 179.262 569.508 179.262C570.123 179.262 570.683 179.139 571.189 178.893C571.695 178.646 572.091 178.305 572.379 177.867C572.679 177.43 572.83 176.917 572.83 176.329C572.83 175.769 572.673 175.29 572.358 174.894C572.044 174.483 571.627 174.169 571.107 173.95C570.588 173.718 570.02 173.602 569.405 173.602C568.885 173.602 568.407 173.67 567.969 173.807C567.546 173.93 567.142 174.066 566.759 174.217V166.875H574.019ZM585.022 173.273V175.119H581.946V178.216H580.1V175.119H577.024V173.273H580.1V170.197H581.946V173.273H585.022ZM598.353 170.156C599.105 170.156 599.754 170.279 600.301 170.525C600.848 170.758 601.224 170.97 601.429 171.161V172.863C601.046 172.576 600.609 172.33 600.117 172.125C599.624 171.906 599.037 171.797 598.353 171.797C597.628 171.797 596.993 171.975 596.446 172.33C595.899 172.672 595.475 173.13 595.174 173.704C594.887 174.265 594.744 174.88 594.744 175.55C594.744 176.206 594.887 176.821 595.174 177.396C595.475 177.956 595.899 178.414 596.446 178.77C596.993 179.111 597.628 179.282 598.353 179.282C599.037 179.282 599.624 179.18 600.117 178.975C600.609 178.756 601.046 178.503 601.429 178.216V179.918C601.224 180.123 600.848 180.342 600.301 180.574C599.754 180.807 599.105 180.923 598.353 180.923C597.314 180.923 596.391 180.677 595.584 180.185C594.778 179.692 594.142 179.043 593.677 178.236C593.226 177.416 593 176.521 593 175.55C593 174.579 593.226 173.684 593.677 172.863C594.142 172.043 594.778 171.387 595.584 170.895C596.391 170.402 597.314 170.156 598.353 170.156ZM608.412 170.156C609.452 170.156 610.374 170.402 611.181 170.895C611.988 171.387 612.617 172.043 613.068 172.863C613.533 173.684 613.765 174.579 613.765 175.55C613.765 176.521 613.533 177.416 613.068 178.236C612.617 179.043 611.988 179.692 611.181 180.185C610.374 180.677 609.452 180.923 608.412 180.923C607.373 180.923 606.451 180.677 605.644 180.185C604.837 179.692 604.202 179.043 603.737 178.236C603.286 177.416 603.06 176.521 603.06 175.55C603.06 174.579 603.286 173.684 603.737 172.863C604.202 172.043 604.837 171.387 605.644 170.895C606.451 170.402 607.373 170.156 608.412 170.156ZM608.412 171.797C607.688 171.797 607.052 171.975 606.505 172.33C605.958 172.672 605.535 173.13 605.234 173.704C604.947 174.265 604.803 174.88 604.803 175.55C604.803 176.206 604.947 176.821 605.234 177.396C605.535 177.956 605.958 178.414 606.505 178.77C607.052 179.111 607.688 179.282 608.412 179.282C609.151 179.282 609.786 179.111 610.32 178.77C610.867 178.414 611.284 177.956 611.571 177.396C611.871 176.821 612.022 176.206 612.022 175.55C612.022 174.88 611.871 174.265 611.571 173.704C611.284 173.13 610.867 172.672 610.32 172.33C609.786 171.975 609.151 171.797 608.412 171.797ZM617.795 170.361V171.674C618.123 171.305 618.54 170.963 619.046 170.648C619.566 170.32 620.174 170.156 620.871 170.156C621.61 170.156 622.3 170.334 622.943 170.689C623.585 171.031 624.077 171.551 624.419 172.248C624.898 171.674 625.417 171.182 625.978 170.771C626.538 170.361 627.195 170.156 627.947 170.156C628.644 170.156 629.293 170.313 629.895 170.628C630.51 170.929 631.002 171.394 631.371 172.022C631.754 172.638 631.946 173.417 631.946 174.36V180.615H630.264L630.243 174.524C630.243 173.636 630.011 172.959 629.546 172.494C629.095 172.029 628.466 171.797 627.659 171.797C627.072 171.797 626.559 171.981 626.121 172.351C625.684 172.72 625.267 173.15 624.87 173.643V180.615H623.189L623.168 174.524C623.168 173.636 622.936 172.959 622.471 172.494C622.02 172.029 621.391 171.797 620.584 171.797C620.024 171.797 619.511 171.961 619.046 172.289C618.595 172.617 618.178 173.014 617.795 173.479V180.615H616.114V170.361H617.795ZM636.386 170.361V171.674C636.714 171.305 637.131 170.963 637.637 170.648C638.156 170.32 638.765 170.156 639.462 170.156C640.2 170.156 640.891 170.334 641.533 170.689C642.176 171.031 642.668 171.551 643.01 172.248C643.488 171.674 644.008 171.182 644.569 170.771C645.129 170.361 645.785 170.156 646.537 170.156C647.235 170.156 647.884 170.313 648.486 170.628C649.101 170.929 649.593 171.394 649.962 172.022C650.345 172.638 650.536 173.417 650.536 174.36V180.615H648.855L648.834 174.524C648.834 173.636 648.602 172.959 648.137 172.494C647.686 172.029 647.057 171.797 646.25 171.797C645.662 171.797 645.15 171.981 644.712 172.351C644.275 172.72 643.858 173.15 643.461 173.643V180.615H641.779L641.759 174.524C641.759 173.636 641.527 172.959 641.062 172.494C640.611 172.029 639.982 171.797 639.175 171.797C638.614 171.797 638.102 171.961 637.637 172.289C637.186 172.617 636.769 173.014 636.386 173.479V180.615H634.704V170.361H636.386ZM661.683 170.361V176.432C661.683 177.334 661.491 178.113 661.109 178.77C660.726 179.426 660.206 179.932 659.55 180.287C658.894 180.643 658.155 180.82 657.335 180.82C656.515 180.82 655.776 180.643 655.12 180.287C654.464 179.932 653.944 179.426 653.562 178.77C653.179 178.113 652.987 177.334 652.987 176.432V170.361H654.731V176.432C654.731 177.32 654.99 178.004 655.51 178.482C656.043 178.947 656.651 179.18 657.335 179.18C658.019 179.18 658.62 178.947 659.14 178.482C659.673 178.004 659.94 177.32 659.94 176.432V170.361H661.683ZM666.123 170.361V171.981C666.342 171.708 666.622 171.435 666.964 171.161C667.306 170.874 667.689 170.635 668.112 170.443C668.55 170.252 669.001 170.156 669.466 170.156C670.163 170.156 670.799 170.313 671.373 170.628C671.947 170.929 672.405 171.394 672.747 172.022C673.089 172.638 673.26 173.417 673.26 174.36V180.615H671.578L671.558 174.524C671.558 173.636 671.359 172.959 670.963 172.494C670.58 172.029 669.985 171.797 669.179 171.797C668.632 171.797 668.085 172.002 667.538 172.412C667.005 172.809 666.533 173.273 666.123 173.807V180.615H664.441V170.361H666.123ZM677.659 165.439C678.056 165.439 678.384 165.583 678.643 165.87C678.917 166.144 679.054 166.465 679.054 166.834C679.054 167.189 678.917 167.511 678.643 167.798C678.384 168.085 678.056 168.229 677.659 168.229C677.263 168.229 676.928 168.085 676.654 167.798C676.394 167.511 676.265 167.189 676.265 166.834C676.265 166.465 676.394 166.144 676.654 165.87C676.928 165.583 677.263 165.439 677.659 165.439ZM678.705 170.361V180.615H677.023V171.94H675.403V170.361H678.705ZM684.745 167.408V170.361H687.739V171.94H684.745V177.949C684.745 178.373 684.854 178.708 685.073 178.954C685.292 179.2 685.627 179.323 686.078 179.323C686.488 179.323 686.83 179.275 687.103 179.18C687.377 179.07 687.616 178.954 687.821 178.831V180.205C687.548 180.424 687.254 180.595 686.939 180.718C686.639 180.854 686.228 180.923 685.709 180.923C684.834 180.923 684.171 180.663 683.72 180.144C683.282 179.61 683.063 178.906 683.063 178.031V171.94H681.095V171.448C681.765 171.147 682.325 170.655 682.776 169.972C683.227 169.274 683.624 168.42 683.966 167.408H684.745ZM690.949 170.361L694.538 177.908L698.024 170.361H700.034L692.487 185.537H690.539L693.471 180L688.939 170.361H690.949ZM711.232 166.67C712.039 166.67 712.702 166.786 713.221 167.019C713.755 167.251 714.219 167.497 714.616 167.757V169.664C714.233 169.377 713.768 169.11 713.221 168.864C712.674 168.604 712.08 168.475 711.437 168.475C711.027 168.475 710.596 168.55 710.145 168.7C709.708 168.837 709.339 169.062 709.038 169.377C708.737 169.691 708.587 170.095 708.587 170.587C708.587 171.134 708.785 171.551 709.181 171.838C709.578 172.125 710.056 172.398 710.617 172.658L712.504 173.52C713.447 173.943 714.158 174.415 714.636 174.935C715.115 175.454 715.354 176.145 715.354 177.006C715.354 177.758 715.135 178.421 714.698 178.995C714.26 179.556 713.686 180 712.975 180.328C712.264 180.656 711.485 180.82 710.637 180.82C709.844 180.82 709.113 180.684 708.443 180.41C707.773 180.137 707.192 179.829 706.7 179.487V177.58C707.233 177.949 707.841 178.284 708.525 178.585C709.222 178.872 710.008 179.016 710.883 179.016C711.567 179.016 712.169 178.845 712.688 178.503C713.208 178.161 713.467 177.689 713.467 177.088C713.467 176.746 713.358 176.452 713.139 176.206C712.934 175.96 712.681 175.748 712.38 175.57C712.08 175.393 711.786 175.242 711.499 175.119L709.222 174.094C708.238 173.656 707.568 173.144 707.213 172.556C706.857 171.968 706.679 171.291 706.679 170.525C706.679 169.801 706.884 169.151 707.295 168.577C707.718 167.989 708.279 167.524 708.976 167.183C709.673 166.841 710.425 166.67 711.232 166.67ZM723.26 166.547C724.805 166.547 726.111 166.861 727.177 167.49C728.257 168.119 729.078 168.974 729.638 170.054C730.212 171.12 730.5 172.33 730.5 173.684C730.5 175.037 730.212 176.254 729.638 177.334C729.078 178.4 728.257 179.248 727.177 179.877C726.111 180.506 724.805 180.82 723.26 180.82C722.317 180.82 721.449 180.772 720.656 180.677C719.863 180.581 719.049 180.458 718.215 180.308V167.06C719.049 166.909 719.863 166.786 720.656 166.69C721.449 166.595 722.317 166.547 723.26 166.547ZM723.26 168.29C722.768 168.29 722.242 168.311 721.681 168.352C721.121 168.379 720.581 168.427 720.061 168.495V178.872C720.581 178.927 721.121 178.975 721.681 179.016C722.242 179.057 722.768 179.077 723.26 179.077C724.368 179.077 725.318 178.845 726.111 178.38C726.918 177.901 727.533 177.259 727.957 176.452C728.394 175.632 728.613 174.709 728.613 173.684C728.613 172.658 728.394 171.742 727.957 170.936C727.533 170.115 726.918 169.473 726.111 169.008C725.318 168.529 724.368 168.29 723.26 168.29ZM735.207 166.875V174.094L741.482 166.875H744.066L738.303 173.212L744.681 180.615H742.118L736.97 174.688L735.207 176.616V180.615H733.361V166.875H735.207ZM749.265 170.156C749.867 170.156 750.427 170.245 750.947 170.423C751.466 170.587 751.842 170.758 752.075 170.936V172.74C751.788 172.521 751.398 172.31 750.906 172.104C750.414 171.899 749.908 171.797 749.388 171.797C748.746 171.797 748.26 171.947 747.932 172.248C747.618 172.549 747.46 172.863 747.46 173.191C747.46 173.451 747.549 173.718 747.727 173.991C747.918 174.251 748.247 174.463 748.711 174.627L750.434 175.242C751.104 175.475 751.603 175.81 751.931 176.247C752.259 176.685 752.423 177.197 752.423 177.785C752.423 178.359 752.259 178.886 751.931 179.364C751.617 179.843 751.172 180.226 750.598 180.513C750.038 180.786 749.388 180.923 748.65 180.923C748.253 180.923 747.836 180.868 747.399 180.759C746.975 180.663 746.592 180.547 746.25 180.41C745.909 180.26 745.656 180.13 745.492 180.021V178.216C745.683 178.353 745.95 178.51 746.291 178.688C746.647 178.852 747.023 178.995 747.419 179.118C747.816 179.228 748.185 179.282 748.527 179.282C749.169 179.282 749.675 179.139 750.044 178.852C750.427 178.564 750.619 178.209 750.619 177.785C750.619 177.457 750.489 177.197 750.229 177.006C749.983 176.814 749.621 176.63 749.142 176.452L747.624 175.898C746.831 175.598 746.305 175.222 746.045 174.771C745.786 174.306 745.656 173.779 745.656 173.191C745.656 172.316 745.984 171.592 746.64 171.018C747.296 170.443 748.171 170.156 749.265 170.156ZM173.638 201.875V203.618H168.901V215.554H167.055V203.618H162.318V201.875H173.638ZM177.238 205.361V207.412C177.634 206.729 178.113 206.182 178.673 205.771C179.234 205.361 179.808 205.156 180.396 205.156C180.792 205.156 181.148 205.225 181.462 205.361V207.31C181.025 207.05 180.587 206.92 180.15 206.92C179.453 206.92 178.885 207.166 178.448 207.658C178.024 208.15 177.621 208.738 177.238 209.422V215.615H175.556V205.361H177.238ZM191.583 205.361V211.432C191.583 212.334 191.392 213.113 191.009 213.77C190.626 214.426 190.107 214.932 189.451 215.287C188.794 215.643 188.056 215.82 187.236 215.82C186.415 215.82 185.677 215.643 185.021 215.287C184.365 214.932 183.845 214.426 183.462 213.77C183.079 213.113 182.888 212.334 182.888 211.432V205.361H184.631V211.432C184.631 212.32 184.891 213.004 185.411 213.482C185.944 213.947 186.552 214.18 187.236 214.18C187.919 214.18 188.521 213.947 189.04 213.482C189.574 213.004 189.84 212.32 189.84 211.432V205.361H191.583ZM197.398 205.156C197.999 205.156 198.56 205.245 199.079 205.423C199.599 205.587 199.975 205.758 200.207 205.936V207.74C199.92 207.521 199.531 207.31 199.038 207.104C198.546 206.899 198.04 206.797 197.521 206.797C196.878 206.797 196.393 206.947 196.065 207.248C195.75 207.549 195.593 207.863 195.593 208.191C195.593 208.451 195.682 208.718 195.86 208.991C196.051 209.251 196.379 209.463 196.844 209.627L198.567 210.242C199.237 210.475 199.736 210.81 200.064 211.247C200.392 211.685 200.556 212.197 200.556 212.785C200.556 213.359 200.392 213.886 200.064 214.364C199.749 214.843 199.305 215.226 198.731 215.513C198.17 215.786 197.521 215.923 196.783 215.923C196.386 215.923 195.969 215.868 195.532 215.759C195.108 215.663 194.725 215.547 194.383 215.41C194.041 215.26 193.788 215.13 193.624 215.021V213.216C193.816 213.353 194.082 213.51 194.424 213.688C194.78 213.852 195.156 213.995 195.552 214.118C195.949 214.228 196.318 214.282 196.659 214.282C197.302 214.282 197.808 214.139 198.177 213.852C198.56 213.564 198.751 213.209 198.751 212.785C198.751 212.457 198.621 212.197 198.362 212.006C198.116 211.814 197.753 211.63 197.275 211.452L195.757 210.898C194.964 210.598 194.438 210.222 194.178 209.771C193.918 209.306 193.788 208.779 193.788 208.191C193.788 207.316 194.117 206.592 194.773 206.018C195.429 205.443 196.304 205.156 197.398 205.156ZM205.53 202.408V205.361H208.524V206.94H205.53V212.949C205.53 213.373 205.639 213.708 205.858 213.954C206.076 214.2 206.411 214.323 206.863 214.323C207.273 214.323 207.614 214.275 207.888 214.18C208.161 214.07 208.401 213.954 208.606 213.831V215.205C208.332 215.424 208.038 215.595 207.724 215.718C207.423 215.854 207.013 215.923 206.493 215.923C205.618 215.923 204.955 215.663 204.504 215.144C204.067 214.61 203.848 213.906 203.848 213.031V206.94H201.879V206.448C202.549 206.147 203.11 205.655 203.561 204.972C204.012 204.274 204.408 203.42 204.75 202.408H205.53ZM215.384 205.156C216.437 205.156 217.312 205.375 218.009 205.812C218.706 206.25 219.226 206.845 219.568 207.597C219.923 208.349 220.101 209.196 220.101 210.14V211.145H212.226C212.308 211.719 212.506 212.245 212.82 212.724C213.135 213.202 213.545 213.585 214.051 213.872C214.557 214.146 215.138 214.282 215.794 214.282C216.532 214.282 217.223 214.098 217.865 213.729C218.508 213.346 219.048 212.929 219.486 212.478L219.465 214.303C219.274 214.535 218.986 214.781 218.604 215.041C218.235 215.287 217.804 215.492 217.312 215.656C216.833 215.834 216.327 215.923 215.794 215.923C214.755 215.923 213.832 215.677 213.026 215.185C212.219 214.692 211.583 214.043 211.118 213.236C210.667 212.416 210.442 211.521 210.442 210.55C210.442 209.579 210.653 208.684 211.077 207.863C211.501 207.043 212.082 206.387 212.82 205.895C213.572 205.402 214.427 205.156 215.384 205.156ZM215.384 206.797C214.536 206.797 213.839 207.084 213.292 207.658C212.745 208.219 212.403 208.902 212.267 209.709H218.44C218.371 209.039 218.18 208.492 217.865 208.068C217.565 207.645 217.195 207.33 216.758 207.125C216.32 206.906 215.862 206.797 215.384 206.797ZM231.719 200.85V215.615H230.037V213.872C229.682 214.419 229.196 214.897 228.581 215.308C227.98 215.718 227.289 215.923 226.51 215.923C225.635 215.923 224.835 215.704 224.11 215.267C223.386 214.815 222.805 214.193 222.367 213.4C221.943 212.607 221.732 211.691 221.732 210.652C221.732 209.518 221.943 208.54 222.367 207.72C222.805 206.899 223.399 206.271 224.151 205.833C224.903 205.382 225.744 205.156 226.674 205.156C227.262 205.156 227.857 205.3 228.458 205.587C229.073 205.86 229.6 206.243 230.037 206.735V200.85H231.719ZM226.982 206.838C226.243 206.838 225.614 207.022 225.095 207.392C224.575 207.747 224.172 208.212 223.885 208.786C223.611 209.36 223.475 209.982 223.475 210.652C223.475 211.309 223.611 211.917 223.885 212.478C224.158 213.024 224.541 213.462 225.033 213.79C225.539 214.118 226.12 214.282 226.776 214.282C227.405 214.282 227.966 214.118 228.458 213.79C228.95 213.462 229.34 213.011 229.627 212.437C229.914 211.849 230.051 211.192 230.037 210.468L230.017 208.499C229.593 207.966 229.135 207.556 228.643 207.269C228.164 206.981 227.61 206.838 226.982 206.838ZM245.562 205.156C246.506 205.156 247.347 205.382 248.085 205.833C248.837 206.271 249.425 206.899 249.849 207.72C250.286 208.54 250.505 209.518 250.505 210.652C250.505 211.691 250.286 212.607 249.849 213.4C249.425 214.193 248.85 214.815 248.126 215.267C247.415 215.704 246.615 215.923 245.726 215.923C244.947 215.923 244.25 215.718 243.635 215.308C243.033 214.897 242.555 214.419 242.199 213.872V215.615H240.517V200.85H242.199V206.735C242.637 206.243 243.156 205.86 243.758 205.587C244.373 205.3 244.975 205.156 245.562 205.156ZM245.255 206.817C244.626 206.817 244.072 206.968 243.594 207.269C243.115 207.556 242.657 207.966 242.22 208.499L242.199 210.468C242.199 211.192 242.336 211.842 242.609 212.416C242.896 212.99 243.286 213.441 243.778 213.77C244.284 214.098 244.845 214.262 245.46 214.262C246.13 214.262 246.711 214.098 247.203 213.77C247.695 213.441 248.078 213.004 248.351 212.457C248.625 211.91 248.762 211.309 248.762 210.652C248.762 209.982 248.618 209.36 248.331 208.786C248.058 208.198 247.661 207.727 247.142 207.371C246.622 207.002 245.993 206.817 245.255 206.817ZM253.428 205.361L257.016 212.908L260.503 205.361H262.513L254.966 220.537H253.017L255.95 215L251.418 205.361H253.428ZM272.706 202.408V205.361H275.7V206.94H272.706V212.949C272.706 213.373 272.815 213.708 273.034 213.954C273.253 214.2 273.588 214.323 274.039 214.323C274.449 214.323 274.791 214.275 275.064 214.18C275.338 214.07 275.577 213.954 275.782 213.831V215.205C275.508 215.424 275.215 215.595 274.9 215.718C274.599 215.854 274.189 215.923 273.67 215.923C272.795 215.923 272.132 215.663 271.68 215.144C271.243 214.61 271.024 213.906 271.024 213.031V206.94H269.055V206.448C269.725 206.147 270.286 205.655 270.737 204.972C271.188 204.274 271.585 203.42 271.926 202.408H272.706ZM283.36 205.156C284.057 205.156 284.693 205.313 285.267 205.628C285.841 205.929 286.299 206.394 286.641 207.022C286.983 207.638 287.154 208.417 287.154 209.36V215.615H285.472L285.452 209.524C285.452 208.636 285.254 207.959 284.857 207.494C284.474 207.029 283.879 206.797 283.073 206.797C282.526 206.797 281.979 207.002 281.432 207.412C280.899 207.809 280.427 208.273 280.017 208.807V215.615H278.336V200.85H280.017V206.981C280.236 206.708 280.516 206.435 280.858 206.161C281.2 205.874 281.583 205.635 282.006 205.443C282.444 205.252 282.895 205.156 283.36 205.156ZM294.547 205.156C295.586 205.156 296.509 205.402 297.316 205.895C298.123 206.387 298.751 207.043 299.203 207.863C299.667 208.684 299.9 209.579 299.9 210.55C299.9 211.521 299.667 212.416 299.203 213.236C298.751 214.043 298.123 214.692 297.316 215.185C296.509 215.677 295.586 215.923 294.547 215.923C293.508 215.923 292.585 215.677 291.779 215.185C290.972 214.692 290.336 214.043 289.872 213.236C289.42 212.416 289.195 211.521 289.195 210.55C289.195 209.579 289.42 208.684 289.872 207.863C290.336 207.043 290.972 206.387 291.779 205.895C292.585 205.402 293.508 205.156 294.547 205.156ZM294.547 206.797C293.823 206.797 293.187 206.975 292.64 207.33C292.093 207.672 291.669 208.13 291.369 208.704C291.082 209.265 290.938 209.88 290.938 210.55C290.938 211.206 291.082 211.821 291.369 212.396C291.669 212.956 292.093 213.414 292.64 213.77C293.187 214.111 293.823 214.282 294.547 214.282C295.286 214.282 295.921 214.111 296.455 213.77C297.001 213.414 297.418 212.956 297.706 212.396C298.006 211.821 298.157 211.206 298.157 210.55C298.157 209.88 298.006 209.265 297.706 208.704C297.418 208.13 297.001 207.672 296.455 207.33C295.921 206.975 295.286 206.797 294.547 206.797ZM310.636 205.361V211.432C310.636 212.334 310.445 213.113 310.062 213.77C309.679 214.426 309.16 214.932 308.503 215.287C307.847 215.643 307.109 215.82 306.289 215.82C305.468 215.82 304.73 215.643 304.074 215.287C303.417 214.932 302.898 214.426 302.515 213.77C302.132 213.113 301.941 212.334 301.941 211.432V205.361H303.684V211.432C303.684 212.32 303.944 213.004 304.463 213.482C304.997 213.947 305.605 214.18 306.289 214.18C306.972 214.18 307.574 213.947 308.093 213.482C308.626 213.004 308.893 212.32 308.893 211.432V205.361H310.636ZM316.451 205.156C317.052 205.156 317.613 205.245 318.132 205.423C318.652 205.587 319.028 205.758 319.26 205.936V207.74C318.973 207.521 318.583 207.31 318.091 207.104C317.599 206.899 317.093 206.797 316.574 206.797C315.931 206.797 315.446 206.947 315.118 207.248C314.803 207.549 314.646 207.863 314.646 208.191C314.646 208.451 314.735 208.718 314.912 208.991C315.104 209.251 315.432 209.463 315.897 209.627L317.619 210.242C318.289 210.475 318.788 210.81 319.117 211.247C319.445 211.685 319.609 212.197 319.609 212.785C319.609 213.359 319.445 213.886 319.117 214.364C318.802 214.843 318.358 215.226 317.784 215.513C317.223 215.786 316.574 215.923 315.835 215.923C315.439 215.923 315.022 215.868 314.584 215.759C314.16 215.663 313.778 215.547 313.436 215.41C313.094 215.26 312.841 215.13 312.677 215.021V213.216C312.868 213.353 313.135 213.51 313.477 213.688C313.832 213.852 314.208 213.995 314.605 214.118C315.001 214.228 315.37 214.282 315.712 214.282C316.355 214.282 316.861 214.139 317.23 213.852C317.613 213.564 317.804 213.209 317.804 212.785C317.804 212.457 317.674 212.197 317.414 212.006C317.168 211.814 316.806 211.63 316.327 211.452L314.81 210.898C314.017 210.598 313.491 210.222 313.231 209.771C312.971 209.306 312.841 208.779 312.841 208.191C312.841 207.316 313.169 206.592 313.826 206.018C314.482 205.443 315.357 205.156 316.451 205.156ZM325.977 205.156C326.565 205.156 327.159 205.3 327.761 205.587C328.376 205.86 328.903 206.243 329.34 206.735V205.361H331.022V215.615H329.34V213.872C328.985 214.419 328.499 214.897 327.884 215.308C327.282 215.718 326.592 215.923 325.813 215.923C324.938 215.923 324.138 215.704 323.413 215.267C322.689 214.815 322.108 214.193 321.67 213.4C321.246 212.607 321.034 211.691 321.034 210.652C321.034 209.518 321.246 208.54 321.67 207.72C322.108 206.899 322.702 206.271 323.454 205.833C324.206 205.382 325.047 205.156 325.977 205.156ZM326.284 206.797C325.546 206.797 324.917 206.981 324.398 207.351C323.878 207.72 323.475 208.198 323.188 208.786C322.914 209.36 322.778 209.982 322.778 210.652C322.778 211.309 322.914 211.917 323.188 212.478C323.461 213.024 323.844 213.462 324.336 213.79C324.842 214.118 325.423 214.282 326.079 214.282C326.708 214.282 327.269 214.118 327.761 213.79C328.253 213.462 328.643 213.011 328.93 212.437C329.217 211.849 329.354 211.192 329.34 210.468L329.32 208.499C328.896 207.966 328.438 207.549 327.946 207.248C327.467 206.947 326.913 206.797 326.284 206.797ZM335.77 205.361V206.981C335.988 206.708 336.269 206.435 336.611 206.161C336.952 205.874 337.335 205.635 337.759 205.443C338.196 205.252 338.648 205.156 339.112 205.156C339.81 205.156 340.445 205.313 341.02 205.628C341.594 205.929 342.052 206.394 342.394 207.022C342.736 207.638 342.906 208.417 342.906 209.36V215.615H341.225L341.204 209.524C341.204 208.636 341.006 207.959 340.61 207.494C340.227 207.029 339.632 206.797 338.825 206.797C338.279 206.797 337.732 207.002 337.185 207.412C336.652 207.809 336.18 208.273 335.77 208.807V215.615H334.088V205.361H335.77ZM354.935 200.85V215.615H353.253V213.872C352.898 214.419 352.412 214.897 351.797 215.308C351.195 215.718 350.505 215.923 349.726 215.923C348.851 215.923 348.051 215.704 347.326 215.267C346.602 214.815 346.021 214.193 345.583 213.4C345.159 212.607 344.947 211.691 344.947 210.652C344.947 209.518 345.159 208.54 345.583 207.72C346.021 206.899 346.615 206.271 347.367 205.833C348.119 205.382 348.96 205.156 349.89 205.156C350.478 205.156 351.072 205.3 351.674 205.587C352.289 205.86 352.816 206.243 353.253 206.735V200.85H354.935ZM350.197 206.838C349.459 206.838 348.83 207.022 348.311 207.392C347.791 207.747 347.388 208.212 347.101 208.786C346.827 209.36 346.691 209.982 346.691 210.652C346.691 211.309 346.827 211.917 347.101 212.478C347.374 213.024 347.757 213.462 348.249 213.79C348.755 214.118 349.336 214.282 349.992 214.282C350.621 214.282 351.182 214.118 351.674 213.79C352.166 213.462 352.556 213.011 352.843 212.437C353.13 211.849 353.267 211.192 353.253 210.468L353.233 208.499C352.809 207.966 352.351 207.556 351.859 207.269C351.38 206.981 350.826 206.838 350.197 206.838ZM361.057 205.156C361.658 205.156 362.219 205.245 362.738 205.423C363.258 205.587 363.634 205.758 363.866 205.936V207.74C363.579 207.521 363.189 207.31 362.697 207.104C362.205 206.899 361.699 206.797 361.18 206.797C360.537 206.797 360.052 206.947 359.724 207.248C359.409 207.549 359.252 207.863 359.252 208.191C359.252 208.451 359.341 208.718 359.519 208.991C359.71 209.251 360.038 209.463 360.503 209.627L362.226 210.242C362.896 210.475 363.395 210.81 363.723 211.247C364.051 211.685 364.215 212.197 364.215 212.785C364.215 213.359 364.051 213.886 363.723 214.364C363.408 214.843 362.964 215.226 362.39 215.513C361.829 215.786 361.18 215.923 360.441 215.923C360.045 215.923 359.628 215.868 359.19 215.759C358.767 215.663 358.384 215.547 358.042 215.41C357.7 215.26 357.447 215.13 357.283 215.021V213.216C357.475 213.353 357.741 213.51 358.083 213.688C358.439 213.852 358.814 213.995 359.211 214.118C359.607 214.228 359.977 214.282 360.318 214.282C360.961 214.282 361.467 214.139 361.836 213.852C362.219 213.564 362.41 213.209 362.41 212.785C362.41 212.457 362.28 212.197 362.021 212.006C361.774 211.814 361.412 211.63 360.934 211.452L359.416 210.898C358.623 210.598 358.097 210.222 357.837 209.771C357.577 209.306 357.447 208.779 357.447 208.191C357.447 207.316 357.775 206.592 358.432 206.018C359.088 205.443 359.963 205.156 361.057 205.156ZM376.725 205.156C377.765 205.156 378.687 205.402 379.494 205.895C380.301 206.387 380.93 207.043 381.381 207.863C381.846 208.684 382.078 209.579 382.078 210.55C382.078 211.521 381.846 212.416 381.381 213.236C380.93 214.043 380.301 214.692 379.494 215.185C378.687 215.677 377.765 215.923 376.725 215.923C375.686 215.923 374.764 215.677 373.957 215.185C373.15 214.692 372.515 214.043 372.05 213.236C371.599 212.416 371.373 211.521 371.373 210.55C371.373 209.579 371.599 208.684 372.05 207.863C372.515 207.043 373.15 206.387 373.957 205.895C374.764 205.402 375.686 205.156 376.725 205.156ZM376.725 206.797C376.001 206.797 375.365 206.975 374.818 207.33C374.271 207.672 373.848 208.13 373.547 208.704C373.26 209.265 373.116 209.88 373.116 210.55C373.116 211.206 373.26 211.821 373.547 212.396C373.848 212.956 374.271 213.414 374.818 213.77C375.365 214.111 376.001 214.282 376.725 214.282C377.464 214.282 378.099 214.111 378.633 213.77C379.18 213.414 379.597 212.956 379.884 212.396C380.184 211.821 380.335 211.206 380.335 210.55C380.335 209.88 380.184 209.265 379.884 208.704C379.597 208.13 379.18 207.672 378.633 207.33C378.099 206.975 377.464 206.797 376.725 206.797ZM389.738 205.361V206.94H386.744V215.615H385.062V206.94H383.442V205.361H385.062V204.049C385.062 203.242 385.22 202.586 385.534 202.08C385.848 201.561 386.252 201.178 386.744 200.932C387.236 200.672 387.735 200.542 388.241 200.542C388.938 200.542 389.506 200.727 389.943 201.096V202.572C389.738 202.436 389.492 202.326 389.205 202.244C388.918 202.162 388.631 202.128 388.344 202.142C387.838 202.155 387.441 202.319 387.154 202.634C386.881 202.935 386.744 203.468 386.744 204.233V205.361H389.738ZM401.921 205.156C402.672 205.156 403.322 205.279 403.869 205.525C404.416 205.758 404.792 205.97 404.997 206.161V207.863C404.614 207.576 404.176 207.33 403.684 207.125C403.192 206.906 402.604 206.797 401.921 206.797C401.196 206.797 400.56 206.975 400.013 207.33C399.466 207.672 399.043 208.13 398.742 208.704C398.455 209.265 398.311 209.88 398.311 210.55C398.311 211.206 398.455 211.821 398.742 212.396C399.043 212.956 399.466 213.414 400.013 213.77C400.56 214.111 401.196 214.282 401.921 214.282C402.604 214.282 403.192 214.18 403.684 213.975C404.176 213.756 404.614 213.503 404.997 213.216V214.918C404.792 215.123 404.416 215.342 403.869 215.574C403.322 215.807 402.672 215.923 401.921 215.923C400.881 215.923 399.959 215.677 399.152 215.185C398.345 214.692 397.71 214.043 397.245 213.236C396.794 212.416 396.568 211.521 396.568 210.55C396.568 209.579 396.794 208.684 397.245 207.863C397.71 207.043 398.345 206.387 399.152 205.895C399.959 205.402 400.881 205.156 401.921 205.156ZM411.98 205.156C413.019 205.156 413.942 205.402 414.749 205.895C415.555 206.387 416.184 207.043 416.635 207.863C417.1 208.684 417.333 209.579 417.333 210.55C417.333 211.521 417.1 212.416 416.635 213.236C416.184 214.043 415.555 214.692 414.749 215.185C413.942 215.677 413.019 215.923 411.98 215.923C410.941 215.923 410.018 215.677 409.211 215.185C408.405 214.692 407.769 214.043 407.304 213.236C406.853 212.416 406.628 211.521 406.628 210.55C406.628 209.579 406.853 208.684 407.304 207.863C407.769 207.043 408.405 206.387 409.211 205.895C410.018 205.402 410.941 205.156 411.98 205.156ZM411.98 206.797C411.255 206.797 410.62 206.975 410.073 207.33C409.526 207.672 409.102 208.13 408.801 208.704C408.514 209.265 408.371 209.88 408.371 210.55C408.371 211.206 408.514 211.821 408.801 212.396C409.102 212.956 409.526 213.414 410.073 213.77C410.62 214.111 411.255 214.282 411.98 214.282C412.718 214.282 413.354 214.111 413.887 213.77C414.434 213.414 414.851 212.956 415.138 212.396C415.439 211.821 415.589 211.206 415.589 210.55C415.589 209.88 415.439 209.265 415.138 208.704C414.851 208.13 414.434 207.672 413.887 207.33C413.354 206.975 412.718 206.797 411.98 206.797ZM421.363 205.361V206.674C421.691 206.305 422.108 205.963 422.614 205.648C423.133 205.32 423.742 205.156 424.439 205.156C425.177 205.156 425.868 205.334 426.51 205.689C427.153 206.031 427.645 206.551 427.987 207.248C428.465 206.674 428.985 206.182 429.545 205.771C430.106 205.361 430.762 205.156 431.514 205.156C432.211 205.156 432.861 205.313 433.462 205.628C434.078 205.929 434.57 206.394 434.939 207.022C435.322 207.638 435.513 208.417 435.513 209.36V215.615H433.831L433.811 209.524C433.811 208.636 433.579 207.959 433.114 207.494C432.663 207.029 432.034 206.797 431.227 206.797C430.639 206.797 430.126 206.981 429.689 207.351C429.251 207.72 428.834 208.15 428.438 208.643V215.615H426.756L426.736 209.524C426.736 208.636 426.503 207.959 426.039 207.494C425.587 207.029 424.958 206.797 424.152 206.797C423.591 206.797 423.079 206.961 422.614 207.289C422.163 207.617 421.746 208.014 421.363 208.479V215.615H419.681V205.361H421.363ZM443.481 205.156C444.37 205.156 445.169 205.375 445.88 205.812C446.605 206.236 447.179 206.838 447.603 207.617C448.04 208.383 448.259 209.285 448.259 210.324C448.259 211.445 448.04 212.43 447.603 213.277C447.179 214.111 446.591 214.761 445.839 215.226C445.101 215.69 444.26 215.923 443.317 215.923C442.729 215.923 442.127 215.766 441.512 215.451C440.911 215.137 440.391 214.733 439.953 214.241V220.537H438.272V205.361H439.953V207.104C440.309 206.558 440.787 206.1 441.389 205.73C442.004 205.348 442.702 205.156 443.481 205.156ZM443.214 206.797C442.599 206.797 442.038 206.954 441.533 207.269C441.04 207.583 440.651 208.021 440.364 208.581C440.09 209.128 439.953 209.771 439.953 210.509L439.974 212.478C440.411 213.011 440.87 213.448 441.348 213.79C441.827 214.118 442.38 214.282 443.009 214.282C443.747 214.282 444.376 214.091 444.896 213.708C445.415 213.325 445.812 212.833 446.085 212.231C446.372 211.616 446.516 210.98 446.516 210.324C446.516 209.654 446.379 209.06 446.106 208.54C445.832 208.007 445.45 207.583 444.957 207.269C444.465 206.954 443.884 206.797 443.214 206.797ZM454.832 205.156C455.42 205.156 456.015 205.3 456.617 205.587C457.232 205.86 457.758 206.243 458.196 206.735V205.361H459.877V215.615H458.196V213.872C457.84 214.419 457.355 214.897 456.74 215.308C456.138 215.718 455.448 215.923 454.668 215.923C453.793 215.923 452.993 215.704 452.269 215.267C451.544 214.815 450.963 214.193 450.526 213.4C450.102 212.607 449.89 211.691 449.89 210.652C449.89 209.518 450.102 208.54 450.526 207.72C450.963 206.899 451.558 206.271 452.31 205.833C453.062 205.382 453.903 205.156 454.832 205.156ZM455.14 206.797C454.402 206.797 453.773 206.981 453.253 207.351C452.734 207.72 452.33 208.198 452.043 208.786C451.77 209.36 451.633 209.982 451.633 210.652C451.633 211.309 451.77 211.917 452.043 212.478C452.317 213.024 452.7 213.462 453.192 213.79C453.698 214.118 454.279 214.282 454.935 214.282C455.564 214.282 456.124 214.118 456.617 213.79C457.109 213.462 457.498 213.011 457.785 212.437C458.073 211.849 458.209 211.192 458.196 210.468L458.175 208.499C457.751 207.966 457.293 207.549 456.801 207.248C456.323 206.947 455.769 206.797 455.14 206.797ZM464.625 205.361V206.981C464.844 206.708 465.124 206.435 465.466 206.161C465.808 205.874 466.191 205.635 466.615 205.443C467.052 205.252 467.503 205.156 467.968 205.156C468.665 205.156 469.301 205.313 469.875 205.628C470.449 205.929 470.907 206.394 471.249 207.022C471.591 207.638 471.762 208.417 471.762 209.36V215.615H470.08L470.06 209.524C470.06 208.636 469.862 207.959 469.465 207.494C469.082 207.029 468.488 206.797 467.681 206.797C467.134 206.797 466.587 207.002 466.04 207.412C465.507 207.809 465.035 208.273 464.625 208.807V215.615H462.944V205.361H464.625ZM476.161 200.439C476.558 200.439 476.886 200.583 477.146 200.87C477.419 201.144 477.556 201.465 477.556 201.834C477.556 202.189 477.419 202.511 477.146 202.798C476.886 203.085 476.558 203.229 476.161 203.229C475.765 203.229 475.43 203.085 475.156 202.798C474.897 202.511 474.767 202.189 474.767 201.834C474.767 201.465 474.897 201.144 475.156 200.87C475.43 200.583 475.765 200.439 476.161 200.439ZM477.207 205.361V215.615H475.526V206.94H473.905V205.361H477.207ZM484.642 205.156C485.694 205.156 486.569 205.375 487.267 205.812C487.964 206.25 488.483 206.845 488.825 207.597C489.181 208.349 489.358 209.196 489.358 210.14V211.145H481.483C481.565 211.719 481.764 212.245 482.078 212.724C482.393 213.202 482.803 213.585 483.309 213.872C483.815 214.146 484.396 214.282 485.052 214.282C485.79 214.282 486.481 214.098 487.123 213.729C487.766 213.346 488.306 212.929 488.743 212.478L488.723 214.303C488.531 214.535 488.244 214.781 487.861 215.041C487.492 215.287 487.062 215.492 486.569 215.656C486.091 215.834 485.585 215.923 485.052 215.923C484.013 215.923 483.09 215.677 482.283 215.185C481.477 214.692 480.841 214.043 480.376 213.236C479.925 212.416 479.699 211.521 479.699 210.55C479.699 209.579 479.911 208.684 480.335 207.863C480.759 207.043 481.34 206.387 482.078 205.895C482.83 205.402 483.685 205.156 484.642 205.156ZM484.642 206.797C483.794 206.797 483.097 207.084 482.55 207.658C482.003 208.219 481.661 208.902 481.524 209.709H487.697C487.629 209.039 487.438 208.492 487.123 208.068C486.822 207.645 486.453 207.33 486.016 207.125C485.578 206.906 485.12 206.797 484.642 206.797ZM494.763 205.156C495.364 205.156 495.925 205.245 496.444 205.423C496.964 205.587 497.34 205.758 497.572 205.936V207.74C497.285 207.521 496.896 207.31 496.403 207.104C495.911 206.899 495.405 206.797 494.886 206.797C494.243 206.797 493.758 206.947 493.43 207.248C493.115 207.549 492.958 207.863 492.958 208.191C492.958 208.451 493.047 208.718 493.225 208.991C493.416 209.251 493.744 209.463 494.209 209.627L495.932 210.242C496.602 210.475 497.101 210.81 497.429 211.247C497.757 211.685 497.921 212.197 497.921 212.785C497.921 213.359 497.757 213.886 497.429 214.364C497.114 214.843 496.67 215.226 496.096 215.513C495.535 215.786 494.886 215.923 494.147 215.923C493.751 215.923 493.334 215.868 492.896 215.759C492.473 215.663 492.09 215.547 491.748 215.41C491.406 215.26 491.153 215.13 490.989 215.021V213.216C491.181 213.353 491.447 213.51 491.789 213.688C492.145 213.852 492.521 213.995 492.917 214.118C493.313 214.228 493.683 214.282 494.024 214.282C494.667 214.282 495.173 214.139 495.542 213.852C495.925 213.564 496.116 213.209 496.116 212.785C496.116 212.457 495.986 212.197 495.727 212.006C495.48 211.814 495.118 211.63 494.64 211.452L493.122 210.898C492.329 210.598 491.803 210.222 491.543 209.771C491.283 209.306 491.153 208.779 491.153 208.191C491.153 207.316 491.481 206.592 492.138 206.018C492.794 205.443 493.669 205.156 494.763 205.156ZM510.021 205.156C510.609 205.156 511.204 205.3 511.805 205.587C512.421 205.86 512.947 206.243 513.385 206.735V205.361H515.066V215.615H513.385V213.872C513.029 214.419 512.544 214.897 511.929 215.308C511.327 215.718 510.637 215.923 509.857 215.923C508.982 215.923 508.182 215.704 507.458 215.267C506.733 214.815 506.152 214.193 505.715 213.4C505.291 212.607 505.079 211.691 505.079 210.652C505.079 209.518 505.291 208.54 505.715 207.72C506.152 206.899 506.747 206.271 507.499 205.833C508.251 205.382 509.092 205.156 510.021 205.156ZM510.329 206.797C509.591 206.797 508.962 206.981 508.442 207.351C507.923 207.72 507.519 208.198 507.232 208.786C506.959 209.36 506.822 209.982 506.822 210.652C506.822 211.309 506.959 211.917 507.232 212.478C507.506 213.024 507.888 213.462 508.381 213.79C508.887 214.118 509.468 214.282 510.124 214.282C510.753 214.282 511.313 214.118 511.805 213.79C512.298 213.462 512.687 213.011 512.974 212.437C513.262 211.849 513.398 211.192 513.385 210.468L513.364 208.499C512.94 207.966 512.482 207.549 511.99 207.248C511.512 206.947 510.958 206.797 510.329 206.797ZM519.814 200.85V215.615H518.133V200.85H519.814ZM524.562 200.85V215.615H522.881V200.85H524.562ZM537.996 205.156C539.035 205.156 539.958 205.402 540.764 205.895C541.571 206.387 542.2 207.043 542.651 207.863C543.116 208.684 543.348 209.579 543.348 210.55C543.348 211.521 543.116 212.416 542.651 213.236C542.2 214.043 541.571 214.692 540.764 215.185C539.958 215.677 539.035 215.923 537.996 215.923C536.957 215.923 536.034 215.677 535.227 215.185C534.42 214.692 533.785 214.043 533.32 213.236C532.869 212.416 532.643 211.521 532.643 210.55C532.643 209.579 532.869 208.684 533.32 207.863C533.785 207.043 534.42 206.387 535.227 205.895C536.034 205.402 536.957 205.156 537.996 205.156ZM537.996 206.797C537.271 206.797 536.635 206.975 536.088 207.33C535.542 207.672 535.118 208.13 534.817 208.704C534.53 209.265 534.386 209.88 534.386 210.55C534.386 211.206 534.53 211.821 534.817 212.396C535.118 212.956 535.542 213.414 536.088 213.77C536.635 214.111 537.271 214.282 537.996 214.282C538.734 214.282 539.37 214.111 539.903 213.77C540.45 213.414 540.867 212.956 541.154 212.396C541.455 211.821 541.605 211.206 541.605 210.55C541.605 209.88 541.455 209.265 541.154 208.704C540.867 208.13 540.45 207.672 539.903 207.33C539.37 206.975 538.734 206.797 537.996 206.797ZM554.331 205.361L549.511 215.615H548.465L543.851 205.361H545.861L548.957 212.908L552.321 205.361H554.331ZM559.981 205.156C561.034 205.156 561.909 205.375 562.606 205.812C563.303 206.25 563.823 206.845 564.164 207.597C564.52 208.349 564.698 209.196 564.698 210.14V211.145H556.823C556.905 211.719 557.103 212.245 557.417 212.724C557.732 213.202 558.142 213.585 558.648 213.872C559.154 214.146 559.735 214.282 560.391 214.282C561.129 214.282 561.82 214.098 562.462 213.729C563.105 213.346 563.645 212.929 564.082 212.478L564.062 214.303C563.87 214.535 563.583 214.781 563.201 215.041C562.831 215.287 562.401 215.492 561.909 215.656C561.43 215.834 560.924 215.923 560.391 215.923C559.352 215.923 558.429 215.677 557.622 215.185C556.816 214.692 556.18 214.043 555.715 213.236C555.264 212.416 555.038 211.521 555.038 210.55C555.038 209.579 555.25 208.684 555.674 207.863C556.098 207.043 556.679 206.387 557.417 205.895C558.169 205.402 559.024 205.156 559.981 205.156ZM559.981 206.797C559.133 206.797 558.436 207.084 557.889 207.658C557.342 208.219 557 208.902 556.864 209.709H563.036C562.968 209.039 562.777 208.492 562.462 208.068C562.161 207.645 561.792 207.33 561.355 207.125C560.917 206.906 560.459 206.797 559.981 206.797ZM568.728 205.361V207.412C569.124 206.729 569.603 206.182 570.163 205.771C570.724 205.361 571.298 205.156 571.886 205.156C572.282 205.156 572.638 205.225 572.952 205.361V207.31C572.515 207.05 572.077 206.92 571.64 206.92C570.943 206.92 570.375 207.166 569.938 207.658C569.514 208.15 569.111 208.738 568.728 209.422V215.615H567.046V205.361H568.728ZM583.248 202.408V205.361H586.242V206.94H583.248V212.949C583.248 213.373 583.358 213.708 583.576 213.954C583.795 214.2 584.13 214.323 584.581 214.323C584.991 214.323 585.333 214.275 585.607 214.18C585.88 214.07 586.119 213.954 586.324 213.831V215.205C586.051 215.424 585.757 215.595 585.443 215.718C585.142 215.854 584.732 215.923 584.212 215.923C583.337 215.923 582.674 215.663 582.223 215.144C581.785 214.61 581.567 213.906 581.567 213.031V206.94H579.598V206.448C580.268 206.147 580.828 205.655 581.279 204.972C581.731 204.274 582.127 203.42 582.469 202.408H583.248ZM593.902 205.156C594.6 205.156 595.235 205.313 595.81 205.628C596.384 205.929 596.842 206.394 597.184 207.022C597.525 207.638 597.696 208.417 597.696 209.36V215.615H596.015L595.994 209.524C595.994 208.636 595.796 207.959 595.399 207.494C595.017 207.029 594.422 206.797 593.615 206.797C593.068 206.797 592.521 207.002 591.975 207.412C591.441 207.809 590.97 208.273 590.56 208.807V215.615H588.878V200.85H590.56V206.981C590.778 206.708 591.059 206.435 591.4 206.161C591.742 205.874 592.125 205.635 592.549 205.443C592.986 205.252 593.438 205.156 593.902 205.156ZM604.68 205.156C605.732 205.156 606.607 205.375 607.305 205.812C608.002 206.25 608.521 206.845 608.863 207.597C609.219 208.349 609.396 209.196 609.396 210.14V211.145H601.521C601.603 211.719 601.802 212.245 602.116 212.724C602.431 213.202 602.841 213.585 603.347 213.872C603.852 214.146 604.434 214.282 605.09 214.282C605.828 214.282 606.518 214.098 607.161 213.729C607.804 213.346 608.344 212.929 608.781 212.478L608.761 214.303C608.569 214.535 608.282 214.781 607.899 215.041C607.53 215.287 607.1 215.492 606.607 215.656C606.129 215.834 605.623 215.923 605.09 215.923C604.051 215.923 603.128 215.677 602.321 215.185C601.515 214.692 600.879 214.043 600.414 213.236C599.963 212.416 599.737 211.521 599.737 210.55C599.737 209.579 599.949 208.684 600.373 207.863C600.797 207.043 601.378 206.387 602.116 205.895C602.868 205.402 603.723 205.156 604.68 205.156ZM604.68 206.797C603.832 206.797 603.135 207.084 602.588 207.658C602.041 208.219 601.699 208.902 601.562 209.709H607.735C607.667 209.039 607.476 208.492 607.161 208.068C606.86 207.645 606.491 207.33 606.054 207.125C605.616 206.906 605.158 206.797 604.68 206.797ZM630.93 205.361L627.342 215.615H626.296L623.486 208.376L620.677 215.615H619.631L616.042 205.361H618.052L620.328 212.56L623.014 205.361H623.958L626.644 212.56L628.921 205.361H630.93ZM637.196 205.156C638.235 205.156 639.158 205.402 639.965 205.895C640.771 206.387 641.4 207.043 641.851 207.863C642.316 208.684 642.549 209.579 642.549 210.55C642.549 211.521 642.316 212.416 641.851 213.236C641.4 214.043 640.771 214.692 639.965 215.185C639.158 215.677 638.235 215.923 637.196 215.923C636.157 215.923 635.234 215.677 634.427 215.185C633.621 214.692 632.985 214.043 632.52 213.236C632.069 212.416 631.843 211.521 631.843 210.55C631.843 209.579 632.069 208.684 632.52 207.863C632.985 207.043 633.621 206.387 634.427 205.895C635.234 205.402 636.157 205.156 637.196 205.156ZM637.196 206.797C636.471 206.797 635.836 206.975 635.289 207.33C634.742 207.672 634.318 208.13 634.017 208.704C633.73 209.265 633.587 209.88 633.587 210.55C633.587 211.206 633.73 211.821 634.017 212.396C634.318 212.956 634.742 213.414 635.289 213.77C635.836 214.111 636.471 214.282 637.196 214.282C637.934 214.282 638.57 214.111 639.103 213.77C639.65 213.414 640.067 212.956 640.354 212.396C640.655 211.821 640.805 211.206 640.805 210.55C640.805 209.88 640.655 209.265 640.354 208.704C640.067 208.13 639.65 207.672 639.103 207.33C638.57 206.975 637.934 206.797 637.196 206.797ZM646.579 205.361V207.412C646.975 206.729 647.454 206.182 648.014 205.771C648.575 205.361 649.149 205.156 649.737 205.156C650.133 205.156 650.489 205.225 650.803 205.361V207.31C650.366 207.05 649.928 206.92 649.491 206.92C648.794 206.92 648.226 207.166 647.789 207.658C647.365 208.15 646.962 208.738 646.579 209.422V215.615H644.897V205.361H646.579ZM654.218 200.85V215.615H652.537V200.85H654.218ZM666.554 200.85V215.615H664.872V213.872C664.517 214.419 664.032 214.897 663.416 215.308C662.815 215.718 662.124 215.923 661.345 215.923C660.47 215.923 659.67 215.704 658.946 215.267C658.221 214.815 657.64 214.193 657.203 213.4C656.779 212.607 656.567 211.691 656.567 210.652C656.567 209.518 656.779 208.54 657.203 207.72C657.64 206.899 658.235 206.271 658.987 205.833C659.739 205.382 660.58 205.156 661.509 205.156C662.097 205.156 662.692 205.3 663.293 205.587C663.909 205.86 664.435 206.243 664.872 206.735V200.85H666.554ZM661.817 206.838C661.079 206.838 660.45 207.022 659.93 207.392C659.411 207.747 659.007 208.212 658.72 208.786C658.447 209.36 658.31 209.982 658.31 210.652C658.31 211.309 658.447 211.917 658.72 212.478C658.994 213.024 659.376 213.462 659.869 213.79C660.374 214.118 660.956 214.282 661.612 214.282C662.241 214.282 662.801 214.118 663.293 213.79C663.786 213.462 664.175 213.011 664.462 212.437C664.749 211.849 664.886 211.192 664.872 210.468L664.852 208.499C664.428 207.966 663.97 207.556 663.478 207.269C662.999 206.981 662.446 206.838 661.817 206.838Z" fill="#1A4049"/>
</svg>
