<svg width="830" height="267" viewBox="0 0 830 267" fill="none" xmlns="http://www.w3.org/2000/svg">
<path d="M0 12C0 5.37258 5.37258 0 12 0H818C824.627 0 830 5.37258 830 12V266.615H0V12Z" fill="#EDF0F1"/>
<path d="M299.493 136.615C324.066 136.615 343.986 116.778 343.986 92.3077C343.986 67.8372 324.066 48 299.493 48C274.92 48 255 67.8372 255 92.3077C255 116.778 274.92 136.615 299.493 136.615Z" fill="#1A4049"/>
<path d="M292.819 72.3693H279.471V112.246H319.515V72.3693H306.167V98.9539H292.819V72.3693Z" fill="white"/>
<path d="M306.167 98.9539H319.515V112.246H306.167V98.9539Z" fill="#817AFE"/>
<path d="M377.386 99.447V84.8075H384.021V98.725C384.021 102.813 386.196 105.501 390.29 105.501C394.384 105.501 396.559 102.813 396.559 98.725V84.8075H403.233V99.447C403.233 106.484 398.517 111.554 390.385 111.554C382.102 111.554 377.386 106.484 377.386 99.447ZM416.505 110.982H409.925V84.8075H416.505V89.206C417.383 87.6786 418.652 86.4112 420.181 85.5331C421.71 84.655 423.446 84.1977 425.21 84.2077C431.79 84.2077 436.145 89.0227 436.145 95.6927V110.982H429.47V97.0145C429.47 92.877 427.034 90.1335 423.096 90.1335C419.158 90.1335 416.516 92.9103 416.516 97.0145L416.505 110.982ZM442.931 72.9059H449.561V110.982H442.931V72.9059ZM482.879 98.2641V98.9861H462.048C462.31 103.074 465.313 106.206 469.663 106.206C473.862 106.206 475.57 104.084 476.037 103.362H482.567C482.15 106.05 478.579 111.693 469.663 111.693C461.169 111.693 455.418 105.8 455.418 97.9364C455.418 89.8113 461.114 84.1743 469.145 84.1743C477.177 84.1743 482.879 89.7225 482.879 98.2641ZM462.254 94.432H475.937C474.952 91.0998 472.516 89.2615 469.145 89.2615C465.569 89.256 463.083 91.172 462.254 94.4265V94.432ZM497.641 94.582H506.245C506.245 91.4275 503.859 89.4115 499.977 89.4115C496.295 89.4115 494.971 91.3775 494.537 92.0495H487.862C488.419 89.306 491.695 84.1355 499.988 84.1355C508.12 84.1355 512.631 88.3785 512.631 94.582V103.429C512.631 105.034 513.187 105.65 514.7 105.812V111.138H512.631C509.26 111.088 507.241 109.844 506.512 107.517C505.272 109.433 502.474 111.554 498.019 111.554C491.85 111.554 487.189 108.089 487.189 102.707C487.189 97.3255 491.166 94.582 497.641 94.582ZM506.245 101.307V99.086H498.731C495.622 99.086 493.725 100.197 493.725 102.602C493.725 105.14 496.111 106.639 499.426 106.639C503.136 106.639 506.245 104.829 506.245 101.307ZM528.422 100.275C522.671 99.8635 518.783 97.17 518.783 92.0995C518.783 87.1844 523.288 84.0799 530.335 84.0799C539.791 84.0799 542.461 88.945 543.184 91.4775H536.192C535.725 90.9221 534.223 89.1005 530.285 89.1005C527.126 89.1005 525.468 90.1335 525.468 91.7385C525.468 93.188 526.581 94.121 529.195 94.482L533.645 94.9485C540.748 95.565 543.657 98.2807 543.657 103.429C543.657 108.344 539.563 111.71 531.531 111.71C521.792 111.71 518.632 106.067 518.115 103.64H525.212C525.474 104.257 527.076 106.589 531.531 106.589C535.213 106.589 536.921 105.345 536.921 103.69C536.921 102.035 535.992 101.102 533.027 100.741C531.164 100.586 530.235 100.486 528.422 100.275ZM555.36 110.982H548.78V72.9059H555.36V89.206C556.238 87.6786 557.507 86.4112 559.036 85.5331C560.565 84.655 562.3 84.1977 564.064 84.2077C570.645 84.2077 575 89.0227 575 95.6927V110.982H568.325V97.0145C568.325 92.877 565.889 90.1335 561.951 90.1335C558.013 90.1335 555.371 92.9103 555.371 97.0145L555.36 110.982Z" fill="#1A4049"/>
<path d="M64.9172 172.565V174.225H59.2922V179.615H57.5344V166.529H66.0891V168.19H59.2922V172.565H64.9172ZM73.0719 169.654C74.0745 169.654 74.9078 169.863 75.5719 170.279C76.2359 170.696 76.7307 171.262 77.0562 171.979C77.3948 172.695 77.564 173.502 77.564 174.401V175.358H70.064C70.1422 175.904 70.331 176.406 70.6305 176.861C70.9299 177.317 71.3206 177.682 71.8023 177.955C72.2841 178.216 72.8375 178.346 73.4625 178.346C74.1656 178.346 74.8232 178.17 75.4351 177.818C76.0471 177.454 76.5614 177.057 76.9781 176.627L76.9586 178.365C76.7763 178.587 76.5029 178.821 76.1383 179.068C75.7867 179.303 75.3765 179.498 74.9078 179.654C74.4521 179.824 73.9703 179.908 73.4625 179.908C72.4729 179.908 71.594 179.674 70.8258 179.205C70.0575 178.736 69.4521 178.118 69.0094 177.35C68.5797 176.568 68.3648 175.716 68.3648 174.791C68.3648 173.867 68.5667 173.014 68.9703 172.233C69.3739 171.451 69.9273 170.826 70.6305 170.358C71.3466 169.889 72.1604 169.654 73.0719 169.654ZM73.0719 171.217C72.2646 171.217 71.6005 171.49 71.0797 172.037C70.5588 172.571 70.2333 173.222 70.1031 173.99H75.982C75.9169 173.352 75.7346 172.832 75.4351 172.428C75.1487 172.024 74.7971 171.725 74.3805 171.529C73.9638 171.321 73.5276 171.217 73.0719 171.217ZM83.8242 169.654C84.3841 169.654 84.9505 169.791 85.5234 170.065C86.1094 170.325 86.6107 170.69 87.0273 171.158V169.85H88.6289V179.615H87.0273V177.955C86.6888 178.476 86.2266 178.932 85.6406 179.322C85.0677 179.713 84.4101 179.908 83.668 179.908C82.8346 179.908 82.0729 179.7 81.3828 179.283C80.6927 178.854 80.1393 178.261 79.7226 177.506C79.319 176.751 79.1172 175.878 79.1172 174.889C79.1172 173.808 79.319 172.877 79.7226 172.096C80.1393 171.315 80.7057 170.716 81.4219 170.299C82.138 169.869 82.9388 169.654 83.8242 169.654ZM84.1172 171.217C83.4141 171.217 82.8151 171.393 82.3203 171.744C81.8255 172.096 81.4414 172.552 81.168 173.111C80.9075 173.658 80.7773 174.251 80.7773 174.889C80.7773 175.514 80.9075 176.093 81.168 176.627C81.4284 177.148 81.793 177.565 82.2617 177.877C82.7435 178.19 83.2969 178.346 83.9219 178.346C84.5208 178.346 85.0547 178.19 85.5234 177.877C85.9922 177.565 86.3633 177.135 86.6367 176.588C86.9101 176.028 87.0404 175.403 87.0273 174.713L87.0078 172.838C86.6042 172.33 86.168 171.933 85.6992 171.647C85.2435 171.36 84.7161 171.217 84.1172 171.217ZM94.2445 167.037V169.85H97.0961V171.354H94.2445V177.076C94.2445 177.48 94.3487 177.799 94.557 178.033C94.7654 178.268 95.0844 178.385 95.514 178.385C95.9047 178.385 96.2302 178.339 96.4906 178.248C96.751 178.144 96.9789 178.033 97.1742 177.916V179.225C96.9138 179.433 96.6338 179.596 96.3344 179.713C96.0479 179.843 95.6573 179.908 95.1625 179.908C94.3292 179.908 93.6976 179.661 93.268 179.166C92.8513 178.658 92.643 177.988 92.643 177.154V171.354H90.768V170.885C91.406 170.598 91.9398 170.13 92.3695 169.479C92.7992 168.815 93.1768 168.001 93.5023 167.037H94.2445ZM107.595 169.85V175.631C107.595 176.49 107.412 177.233 107.048 177.858C106.683 178.483 106.188 178.964 105.563 179.303C104.938 179.641 104.235 179.811 103.454 179.811C102.673 179.811 101.97 179.641 101.345 179.303C100.72 178.964 100.225 178.483 99.8601 177.858C99.4956 177.233 99.3133 176.49 99.3133 175.631V169.85H100.973V175.631C100.973 176.477 101.221 177.128 101.716 177.584C102.223 178.027 102.803 178.248 103.454 178.248C104.105 178.248 104.678 178.027 105.173 177.584C105.68 177.128 105.934 176.477 105.934 175.631V169.85H107.595ZM111.823 169.85V171.803C112.201 171.152 112.657 170.631 113.191 170.24C113.724 169.85 114.271 169.654 114.831 169.654C115.209 169.654 115.547 169.72 115.847 169.85V171.705C115.43 171.458 115.014 171.334 114.597 171.334C113.933 171.334 113.392 171.568 112.976 172.037C112.572 172.506 112.188 173.066 111.823 173.717V179.615H110.222V169.85H111.823ZM121.521 169.654C122.524 169.654 123.357 169.863 124.021 170.279C124.685 170.696 125.18 171.262 125.505 171.979C125.844 172.695 126.013 173.502 126.013 174.401V175.358H118.513C118.591 175.904 118.78 176.406 119.08 176.861C119.379 177.317 119.77 177.682 120.252 177.955C120.733 178.216 121.287 178.346 121.912 178.346C122.615 178.346 123.272 178.17 123.884 177.818C124.496 177.454 125.011 177.057 125.427 176.627L125.408 178.365C125.226 178.587 124.952 178.821 124.587 179.068C124.236 179.303 123.826 179.498 123.357 179.654C122.901 179.824 122.42 179.908 121.912 179.908C120.922 179.908 120.043 179.674 119.275 179.205C118.507 178.736 117.901 178.118 117.459 177.35C117.029 176.568 116.814 175.716 116.814 174.791C116.814 173.867 117.016 173.014 117.42 172.233C117.823 171.451 118.377 170.826 119.08 170.358C119.796 169.889 120.61 169.654 121.521 169.654ZM121.521 171.217C120.714 171.217 120.05 171.49 119.529 172.037C119.008 172.571 118.683 173.222 118.552 173.99H124.431C124.366 173.352 124.184 172.832 123.884 172.428C123.598 172.024 123.246 171.725 122.83 171.529C122.413 171.321 121.977 171.217 121.521 171.217ZM136.405 167.037V169.85H139.256V171.354H136.405V177.076C136.405 177.48 136.509 177.799 136.717 178.033C136.926 178.268 137.245 178.385 137.674 178.385C138.065 178.385 138.39 178.339 138.651 178.248C138.911 178.144 139.139 178.033 139.334 177.916V179.225C139.074 179.433 138.794 179.596 138.495 179.713C138.208 179.843 137.817 179.908 137.323 179.908C136.489 179.908 135.858 179.661 135.428 179.166C135.011 178.658 134.803 177.988 134.803 177.154V171.354H132.928V170.885C133.566 170.598 134.1 170.13 134.53 169.479C134.959 168.815 135.337 168.001 135.662 167.037H136.405ZM146.18 169.654C147.17 169.654 148.049 169.889 148.817 170.358C149.585 170.826 150.184 171.451 150.614 172.233C151.057 173.014 151.278 173.867 151.278 174.791C151.278 175.716 151.057 176.568 150.614 177.35C150.184 178.118 149.585 178.736 148.817 179.205C148.049 179.674 147.17 179.908 146.18 179.908C145.191 179.908 144.312 179.674 143.544 179.205C142.776 178.736 142.17 178.118 141.727 177.35C141.298 176.568 141.083 175.716 141.083 174.791C141.083 173.867 141.298 173.014 141.727 172.233C142.17 171.451 142.776 170.826 143.544 170.358C144.312 169.889 145.191 169.654 146.18 169.654ZM146.18 171.217C145.49 171.217 144.885 171.386 144.364 171.725C143.843 172.05 143.44 172.486 143.153 173.033C142.88 173.567 142.743 174.153 142.743 174.791C142.743 175.416 142.88 176.002 143.153 176.549C143.44 177.083 143.843 177.519 144.364 177.858C144.885 178.183 145.49 178.346 146.18 178.346C146.884 178.346 147.489 178.183 147.997 177.858C148.518 177.519 148.915 177.083 149.188 176.549C149.475 176.002 149.618 175.416 149.618 174.791C149.618 174.153 149.475 173.567 149.188 173.033C148.915 172.486 148.518 172.05 147.997 171.725C147.489 171.386 146.884 171.217 146.18 171.217ZM157.538 169.654C158.098 169.654 158.665 169.791 159.237 170.065C159.823 170.325 160.325 170.69 160.741 171.158V169.85H162.343V179.42C162.343 180.579 162.109 181.542 161.64 182.311C161.171 183.079 160.546 183.652 159.765 184.029C158.984 184.407 158.131 184.596 157.206 184.596C156.607 184.596 156.093 184.524 155.663 184.381C155.247 184.251 154.889 184.082 154.589 183.873C154.29 183.678 154.016 183.489 153.769 183.307V181.588C153.964 181.731 154.218 181.914 154.53 182.135C154.856 182.369 155.24 182.578 155.683 182.76C156.139 182.942 156.646 183.033 157.206 183.033C157.844 183.033 158.43 182.916 158.964 182.682C159.498 182.447 159.928 182.102 160.253 181.647C160.579 181.191 160.741 180.644 160.741 180.006V177.955C160.403 178.476 159.941 178.932 159.355 179.322C158.782 179.713 158.124 179.908 157.382 179.908C156.549 179.908 155.787 179.7 155.097 179.283C154.407 178.854 153.853 178.261 153.437 177.506C153.033 176.751 152.831 175.878 152.831 174.889C152.831 173.808 153.033 172.877 153.437 172.096C153.853 171.315 154.42 170.716 155.136 170.299C155.852 169.869 156.653 169.654 157.538 169.654ZM157.831 171.236C157.128 171.236 156.529 171.412 156.034 171.764C155.54 172.102 155.155 172.552 154.882 173.111C154.622 173.658 154.491 174.251 154.491 174.889C154.491 175.514 154.622 176.087 154.882 176.608C155.142 177.128 155.507 177.545 155.976 177.858C156.458 178.17 157.011 178.326 157.636 178.326C158.235 178.326 158.769 178.17 159.237 177.858C159.706 177.545 160.077 177.115 160.351 176.568C160.624 176.022 160.754 175.403 160.741 174.713L160.722 172.838C160.318 172.33 159.882 171.94 159.413 171.666C158.958 171.38 158.43 171.236 157.831 171.236ZM169.287 169.654C169.847 169.654 170.413 169.791 170.986 170.065C171.572 170.325 172.073 170.69 172.49 171.158V169.85H174.091V179.42C174.091 180.579 173.857 181.542 173.388 182.311C172.92 183.079 172.295 183.652 171.513 184.029C170.732 184.407 169.879 184.596 168.955 184.596C168.356 184.596 167.841 184.524 167.412 184.381C166.995 184.251 166.637 184.082 166.337 183.873C166.038 183.678 165.765 183.489 165.517 183.307V181.588C165.712 181.731 165.966 181.914 166.279 182.135C166.604 182.369 166.989 182.578 167.431 182.76C167.887 182.942 168.395 183.033 168.955 183.033C169.593 183.033 170.179 182.916 170.712 182.682C171.246 182.447 171.676 182.102 172.002 181.647C172.327 181.191 172.49 180.644 172.49 180.006V177.955C172.151 178.476 171.689 178.932 171.103 179.322C170.53 179.713 169.873 179.908 169.13 179.908C168.297 179.908 167.535 179.7 166.845 179.283C166.155 178.854 165.602 178.261 165.185 177.506C164.782 176.751 164.58 175.878 164.58 174.889C164.58 173.808 164.782 172.877 165.185 172.096C165.602 171.315 166.168 170.716 166.884 170.299C167.601 169.869 168.401 169.654 169.287 169.654ZM169.58 171.236C168.877 171.236 168.278 171.412 167.783 171.764C167.288 172.102 166.904 172.552 166.63 173.111C166.37 173.658 166.24 174.251 166.24 174.889C166.24 175.514 166.37 176.087 166.63 176.608C166.891 177.128 167.255 177.545 167.724 177.858C168.206 178.17 168.759 178.326 169.384 178.326C169.983 178.326 170.517 178.17 170.986 177.858C171.455 177.545 171.826 177.115 172.099 176.568C172.373 176.022 172.503 175.403 172.49 174.713L172.47 172.838C172.067 172.33 171.63 171.94 171.162 171.666C170.706 171.38 170.179 171.236 169.58 171.236ZM178.613 165.553V179.615H177.012V165.553H178.613ZM185.557 169.654C186.56 169.654 187.393 169.863 188.057 170.279C188.721 170.696 189.216 171.262 189.541 171.979C189.88 172.695 190.049 173.502 190.049 174.401V175.358H182.549C182.627 175.904 182.816 176.406 183.116 176.861C183.415 177.317 183.806 177.682 184.287 177.955C184.769 178.216 185.323 178.346 185.948 178.346C186.651 178.346 187.308 178.17 187.92 177.818C188.532 177.454 189.047 177.057 189.463 176.627L189.444 178.365C189.261 178.587 188.988 178.821 188.623 179.068C188.272 179.303 187.862 179.498 187.393 179.654C186.937 179.824 186.455 179.908 185.948 179.908C184.958 179.908 184.079 179.674 183.311 179.205C182.543 178.736 181.937 178.118 181.495 177.35C181.065 176.568 180.85 175.716 180.85 174.791C180.85 173.867 181.052 173.014 181.455 172.233C181.859 171.451 182.412 170.826 183.116 170.358C183.832 169.889 184.646 169.654 185.557 169.654ZM185.557 171.217C184.75 171.217 184.086 171.49 183.565 172.037C183.044 172.571 182.718 173.222 182.588 173.99H188.467C188.402 173.352 188.22 172.832 187.92 172.428C187.634 172.024 187.282 171.725 186.866 171.529C186.449 171.321 186.013 171.217 185.557 171.217ZM199.347 169.85V171.1C199.659 170.748 200.056 170.423 200.538 170.123C201.033 169.811 201.612 169.654 202.277 169.654C202.98 169.654 203.637 169.824 204.249 170.162C204.861 170.488 205.33 170.983 205.655 171.647C206.111 171.1 206.606 170.631 207.14 170.24C207.674 169.85 208.299 169.654 209.015 169.654C209.679 169.654 210.297 169.804 210.87 170.104C211.456 170.39 211.925 170.833 212.277 171.432C212.641 172.018 212.823 172.76 212.823 173.658V179.615H211.222L211.202 173.815C211.202 172.968 210.981 172.324 210.538 171.881C210.109 171.438 209.51 171.217 208.741 171.217C208.181 171.217 207.693 171.393 207.277 171.744C206.86 172.096 206.463 172.506 206.085 172.975V179.615H204.484L204.464 173.815C204.464 172.968 204.243 172.324 203.8 171.881C203.37 171.438 202.771 171.217 202.003 171.217C201.469 171.217 200.981 171.373 200.538 171.686C200.109 171.998 199.711 172.376 199.347 172.818V179.615H197.745V169.85H199.347ZM219.474 169.654C220.034 169.654 220.601 169.791 221.173 170.065C221.759 170.325 222.261 170.69 222.677 171.158V169.85H224.279V179.615H222.677V177.955C222.339 178.476 221.877 178.932 221.291 179.322C220.718 179.713 220.06 179.908 219.318 179.908C218.485 179.908 217.723 179.7 217.033 179.283C216.343 178.854 215.789 178.261 215.373 177.506C214.969 176.751 214.767 175.878 214.767 174.889C214.767 173.808 214.969 172.877 215.373 172.096C215.789 171.315 216.356 170.716 217.072 170.299C217.788 169.869 218.589 169.654 219.474 169.654ZM219.767 171.217C219.064 171.217 218.465 171.393 217.97 171.744C217.476 172.096 217.091 172.552 216.818 173.111C216.558 173.658 216.427 174.251 216.427 174.889C216.427 175.514 216.558 176.093 216.818 176.627C217.078 177.148 217.443 177.565 217.912 177.877C218.393 178.19 218.947 178.346 219.572 178.346C220.171 178.346 220.705 178.19 221.173 177.877C221.642 177.565 222.013 177.135 222.287 176.588C222.56 176.028 222.69 175.403 222.677 174.713L222.658 172.838C222.254 172.33 221.818 171.933 221.349 171.647C220.893 171.36 220.366 171.217 219.767 171.217ZM228.801 169.85V171.393C229.009 171.132 229.276 170.872 229.602 170.611C229.927 170.338 230.292 170.11 230.695 169.928C231.112 169.746 231.542 169.654 231.984 169.654C232.648 169.654 233.254 169.804 233.801 170.104C234.348 170.39 234.784 170.833 235.109 171.432C235.435 172.018 235.598 172.76 235.598 173.658V179.615H233.996L233.977 173.815C233.977 172.968 233.788 172.324 233.41 171.881C233.046 171.438 232.479 171.217 231.711 171.217C231.19 171.217 230.669 171.412 230.148 171.803C229.641 172.18 229.191 172.623 228.801 173.131V179.615H227.199V169.85H228.801ZM242.248 169.654C242.808 169.654 243.375 169.791 243.948 170.065C244.534 170.325 245.035 170.69 245.452 171.158V169.85H247.053V179.615H245.452V177.955C245.113 178.476 244.651 178.932 244.065 179.322C243.492 179.713 242.834 179.908 242.092 179.908C241.259 179.908 240.497 179.7 239.807 179.283C239.117 178.854 238.564 178.261 238.147 177.506C237.743 176.751 237.541 175.878 237.541 174.889C237.541 173.808 237.743 172.877 238.147 172.096C238.564 171.315 239.13 170.716 239.846 170.299C240.562 169.869 241.363 169.654 242.248 169.654ZM242.541 171.217C241.838 171.217 241.239 171.393 240.745 171.744C240.25 172.096 239.866 172.552 239.592 173.111C239.332 173.658 239.202 174.251 239.202 174.889C239.202 175.514 239.332 176.093 239.592 176.627C239.853 177.148 240.217 177.565 240.686 177.877C241.168 178.19 241.721 178.346 242.346 178.346C242.945 178.346 243.479 178.19 243.948 177.877C244.416 177.565 244.787 177.135 245.061 176.588C245.334 176.028 245.465 175.403 245.452 174.713L245.432 172.838C245.028 172.33 244.592 171.933 244.123 171.647C243.668 171.36 243.14 171.217 242.541 171.217ZM253.997 169.654C254.557 169.654 255.123 169.791 255.696 170.065C256.282 170.325 256.783 170.69 257.2 171.158V169.85H258.802V179.42C258.802 180.579 258.567 181.542 258.098 182.311C257.63 183.079 257.005 183.652 256.223 184.029C255.442 184.407 254.589 184.596 253.665 184.596C253.066 184.596 252.552 184.524 252.122 184.381C251.705 184.251 251.347 184.082 251.048 183.873C250.748 183.678 250.475 183.489 250.227 183.307V181.588C250.423 181.731 250.677 181.914 250.989 182.135C251.315 182.369 251.699 182.578 252.141 182.76C252.597 182.942 253.105 183.033 253.665 183.033C254.303 183.033 254.889 182.916 255.423 182.682C255.956 182.447 256.386 182.102 256.712 181.647C257.037 181.191 257.2 180.644 257.2 180.006V177.955C256.861 178.476 256.399 178.932 255.813 179.322C255.24 179.713 254.583 179.908 253.841 179.908C253.007 179.908 252.246 179.7 251.555 179.283C250.865 178.854 250.312 178.261 249.895 177.506C249.492 176.751 249.29 175.878 249.29 174.889C249.29 173.808 249.492 172.877 249.895 172.096C250.312 171.315 250.878 170.716 251.595 170.299C252.311 169.869 253.111 169.654 253.997 169.654ZM254.29 171.236C253.587 171.236 252.988 171.412 252.493 171.764C251.998 172.102 251.614 172.552 251.341 173.111C251.08 173.658 250.95 174.251 250.95 174.889C250.95 175.514 251.08 176.087 251.341 176.608C251.601 177.128 251.966 177.545 252.434 177.858C252.916 178.17 253.47 178.326 254.095 178.326C254.693 178.326 255.227 178.17 255.696 177.858C256.165 177.545 256.536 177.115 256.809 176.568C257.083 176.022 257.213 175.403 257.2 174.713L257.18 172.838C256.777 172.33 256.341 171.94 255.872 171.666C255.416 171.38 254.889 171.236 254.29 171.236ZM265.745 169.654C266.748 169.654 267.581 169.863 268.245 170.279C268.909 170.696 269.404 171.262 269.73 171.979C270.068 172.695 270.237 173.502 270.237 174.401V175.358H262.737C262.816 175.904 263.004 176.406 263.304 176.861C263.603 177.317 263.994 177.682 264.476 177.955C264.958 178.216 265.511 178.346 266.136 178.346C266.839 178.346 267.497 178.17 268.109 177.818C268.721 177.454 269.235 177.057 269.652 176.627L269.632 178.365C269.45 178.587 269.176 178.821 268.812 179.068C268.46 179.303 268.05 179.498 267.581 179.654C267.126 179.824 266.644 179.908 266.136 179.908C265.146 179.908 264.267 179.674 263.499 179.205C262.731 178.736 262.126 178.118 261.683 177.35C261.253 176.568 261.038 175.716 261.038 174.791C261.038 173.867 261.24 173.014 261.644 172.233C262.047 171.451 262.601 170.826 263.304 170.358C264.02 169.889 264.834 169.654 265.745 169.654ZM265.745 171.217C264.938 171.217 264.274 171.49 263.753 172.037C263.232 172.571 262.907 173.222 262.777 173.99H268.655C268.59 173.352 268.408 172.832 268.109 172.428C267.822 172.024 267.471 171.725 267.054 171.529C266.637 171.321 266.201 171.217 265.745 171.217ZM274.076 169.85V171.1C274.388 170.748 274.785 170.423 275.267 170.123C275.762 169.811 276.341 169.654 277.005 169.654C277.709 169.654 278.366 169.824 278.978 170.162C279.59 170.488 280.059 170.983 280.384 171.647C280.84 171.1 281.335 170.631 281.869 170.24C282.403 169.85 283.028 169.654 283.744 169.654C284.408 169.654 285.026 169.804 285.599 170.104C286.185 170.39 286.654 170.833 287.005 171.432C287.37 172.018 287.552 172.76 287.552 173.658V179.615H285.951L285.931 173.815C285.931 172.968 285.71 172.324 285.267 171.881C284.837 171.438 284.239 171.217 283.47 171.217C282.91 171.217 282.422 171.393 282.005 171.744C281.589 172.096 281.192 172.506 280.814 172.975V179.615H279.212L279.193 173.815C279.193 172.968 278.972 172.324 278.529 171.881C278.099 171.438 277.5 171.217 276.732 171.217C276.198 171.217 275.71 171.373 275.267 171.686C274.837 171.998 274.44 172.376 274.076 172.818V179.615H272.474V169.85H274.076ZM294.203 169.654C295.206 169.654 296.039 169.863 296.703 170.279C297.367 170.696 297.862 171.262 298.188 171.979C298.526 172.695 298.695 173.502 298.695 174.401V175.358H291.195C291.273 175.904 291.462 176.406 291.762 176.861C292.061 177.317 292.452 177.682 292.934 177.955C293.415 178.216 293.969 178.346 294.594 178.346C295.297 178.346 295.954 178.17 296.566 177.818C297.178 177.454 297.693 177.057 298.109 176.627L298.09 178.365C297.908 178.587 297.634 178.821 297.27 179.068C296.918 179.303 296.508 179.498 296.039 179.654C295.583 179.824 295.102 179.908 294.594 179.908C293.604 179.908 292.725 179.674 291.957 179.205C291.189 178.736 290.583 178.118 290.141 177.35C289.711 176.568 289.496 175.716 289.496 174.791C289.496 173.867 289.698 173.014 290.102 172.233C290.505 171.451 291.059 170.826 291.762 170.358C292.478 169.889 293.292 169.654 294.203 169.654ZM294.203 171.217C293.396 171.217 292.732 171.49 292.211 172.037C291.69 172.571 291.365 173.222 291.234 173.99H297.113C297.048 173.352 296.866 172.832 296.566 172.428C296.28 172.024 295.928 171.725 295.512 171.529C295.095 171.321 294.659 171.217 294.203 171.217ZM302.534 169.85V171.393C302.742 171.132 303.009 170.872 303.334 170.611C303.66 170.338 304.024 170.11 304.428 169.928C304.845 169.746 305.274 169.654 305.717 169.654C306.381 169.654 306.987 169.804 307.534 170.104C308.08 170.39 308.517 170.833 308.842 171.432C309.168 172.018 309.33 172.76 309.33 173.658V179.615H307.729L307.709 173.815C307.709 172.968 307.521 172.324 307.143 171.881C306.778 171.438 306.212 171.217 305.444 171.217C304.923 171.217 304.402 171.412 303.881 171.803C303.373 172.18 302.924 172.623 302.534 173.131V179.615H300.932V169.85H302.534ZM314.653 167.037V169.85H317.505V171.354H314.653V177.076C314.653 177.48 314.757 177.799 314.966 178.033C315.174 178.268 315.493 178.385 315.923 178.385C316.313 178.385 316.639 178.339 316.899 178.248C317.16 178.144 317.387 178.033 317.583 177.916V179.225C317.322 179.433 317.042 179.596 316.743 179.713C316.456 179.843 316.066 179.908 315.571 179.908C314.738 179.908 314.106 179.661 313.677 179.166C313.26 178.658 313.052 177.988 313.052 177.154V171.354H311.177V170.885C311.815 170.598 312.348 170.13 312.778 169.479C313.208 168.815 313.585 168.001 313.911 167.037H314.653ZM328.384 169.654C328.957 169.654 329.491 169.739 329.986 169.908C330.481 170.065 330.839 170.227 331.06 170.397V172.115C330.787 171.907 330.416 171.705 329.947 171.51C329.478 171.315 328.996 171.217 328.502 171.217C327.89 171.217 327.427 171.36 327.115 171.647C326.815 171.933 326.666 172.233 326.666 172.545C326.666 172.792 326.75 173.046 326.92 173.307C327.102 173.554 327.414 173.756 327.857 173.912L329.498 174.498C330.136 174.72 330.611 175.039 330.923 175.455C331.236 175.872 331.392 176.36 331.392 176.92C331.392 177.467 331.236 177.968 330.923 178.424C330.624 178.88 330.201 179.244 329.654 179.518C329.12 179.778 328.502 179.908 327.798 179.908C327.421 179.908 327.024 179.856 326.607 179.752C326.203 179.661 325.839 179.55 325.513 179.42C325.188 179.277 324.947 179.153 324.791 179.049V177.33C324.973 177.46 325.227 177.61 325.552 177.779C325.891 177.936 326.249 178.072 326.627 178.19C327.004 178.294 327.356 178.346 327.681 178.346C328.293 178.346 328.775 178.209 329.127 177.936C329.491 177.662 329.673 177.324 329.673 176.92C329.673 176.608 329.55 176.36 329.302 176.178C329.068 175.996 328.723 175.82 328.267 175.651L326.822 175.123C326.067 174.837 325.565 174.479 325.318 174.049C325.071 173.606 324.947 173.105 324.947 172.545C324.947 171.712 325.259 171.022 325.884 170.475C326.509 169.928 327.343 169.654 328.384 169.654ZM337.848 169.654C338.837 169.654 339.716 169.889 340.484 170.358C341.253 170.826 341.852 171.451 342.281 172.233C342.724 173.014 342.945 173.867 342.945 174.791C342.945 175.716 342.724 176.568 342.281 177.35C341.852 178.118 341.253 178.736 340.484 179.205C339.716 179.674 338.837 179.908 337.848 179.908C336.858 179.908 335.979 179.674 335.211 179.205C334.443 178.736 333.837 178.118 333.395 177.35C332.965 176.568 332.75 175.716 332.75 174.791C332.75 173.867 332.965 173.014 333.395 172.233C333.837 171.451 334.443 170.826 335.211 170.358C335.979 169.889 336.858 169.654 337.848 169.654ZM337.848 171.217C337.158 171.217 336.552 171.386 336.031 171.725C335.51 172.05 335.107 172.486 334.82 173.033C334.547 173.567 334.41 174.153 334.41 174.791C334.41 175.416 334.547 176.002 334.82 176.549C335.107 177.083 335.51 177.519 336.031 177.858C336.552 178.183 337.158 178.346 337.848 178.346C338.551 178.346 339.156 178.183 339.664 177.858C340.185 177.519 340.582 177.083 340.855 176.549C341.142 176.002 341.285 175.416 341.285 174.791C341.285 174.153 341.142 173.567 340.855 173.033C340.582 172.486 340.185 172.05 339.664 171.725C339.156 171.386 338.551 171.217 337.848 171.217ZM346.784 165.553V179.615H345.182V165.553H346.784ZM357.692 169.85V175.631C357.692 176.49 357.51 177.233 357.145 177.858C356.781 178.483 356.286 178.964 355.661 179.303C355.036 179.641 354.333 179.811 353.552 179.811C352.77 179.811 352.067 179.641 351.442 179.303C350.817 178.964 350.322 178.483 349.958 177.858C349.593 177.233 349.411 176.49 349.411 175.631V169.85H351.071V175.631C351.071 176.477 351.318 177.128 351.813 177.584C352.321 178.027 352.901 178.248 353.552 178.248C354.203 178.248 354.776 178.027 355.27 177.584C355.778 177.128 356.032 176.477 356.032 175.631V169.85H357.692ZM363.015 167.037V169.85H365.866V171.354H363.015V177.076C363.015 177.48 363.119 177.799 363.327 178.033C363.536 178.268 363.855 178.385 364.284 178.385C364.675 178.385 365.001 178.339 365.261 178.248C365.521 178.144 365.749 178.033 365.945 177.916V179.225C365.684 179.433 365.404 179.596 365.105 179.713C364.818 179.843 364.428 179.908 363.933 179.908C363.099 179.908 362.468 179.661 362.038 179.166C361.622 178.658 361.413 177.988 361.413 177.154V171.354H359.538V170.885C360.176 170.598 360.71 170.13 361.14 169.479C361.57 168.815 361.947 168.001 362.273 167.037H363.015ZM369.939 165.162C370.317 165.162 370.629 165.299 370.877 165.572C371.137 165.833 371.267 166.139 371.267 166.49C371.267 166.829 371.137 167.135 370.877 167.408C370.629 167.682 370.317 167.818 369.939 167.818C369.561 167.818 369.242 167.682 368.982 167.408C368.735 167.135 368.611 166.829 368.611 166.49C368.611 166.139 368.735 165.833 368.982 165.572C369.242 165.299 369.561 165.162 369.939 165.162ZM370.935 169.85V179.615H369.334V171.354H367.791V169.85H370.935ZM378.406 169.654C379.396 169.654 380.275 169.889 381.043 170.358C381.811 170.826 382.41 171.451 382.84 172.233C383.283 173.014 383.504 173.867 383.504 174.791C383.504 175.716 383.283 176.568 382.84 177.35C382.41 178.118 381.811 178.736 381.043 179.205C380.275 179.674 379.396 179.908 378.406 179.908C377.417 179.908 376.538 179.674 375.77 179.205C375.001 178.736 374.396 178.118 373.953 177.35C373.523 176.568 373.309 175.716 373.309 174.791C373.309 173.867 373.523 173.014 373.953 172.233C374.396 171.451 375.001 170.826 375.77 170.358C376.538 169.889 377.417 169.654 378.406 169.654ZM378.406 171.217C377.716 171.217 377.111 171.386 376.59 171.725C376.069 172.05 375.665 172.486 375.379 173.033C375.105 173.567 374.969 174.153 374.969 174.791C374.969 175.416 375.105 176.002 375.379 176.549C375.665 177.083 376.069 177.519 376.59 177.858C377.111 178.183 377.716 178.346 378.406 178.346C379.109 178.346 379.715 178.183 380.223 177.858C380.743 177.519 381.141 177.083 381.414 176.549C381.701 176.002 381.844 175.416 381.844 174.791C381.844 174.153 381.701 173.567 381.414 173.033C381.141 172.486 380.743 172.05 380.223 171.725C379.715 171.386 379.109 171.217 378.406 171.217ZM387.342 169.85V171.393C387.55 171.132 387.817 170.872 388.143 170.611C388.468 170.338 388.833 170.11 389.237 169.928C389.653 169.746 390.083 169.654 390.526 169.654C391.19 169.654 391.795 169.804 392.342 170.104C392.889 170.39 393.325 170.833 393.651 171.432C393.976 172.018 394.139 172.76 394.139 173.658V179.615H392.537L392.518 173.815C392.518 172.968 392.329 172.324 391.952 171.881C391.587 171.438 391.021 171.217 390.252 171.217C389.731 171.217 389.211 171.412 388.69 171.803C388.182 172.18 387.733 172.623 387.342 173.131V179.615H385.741V169.85H387.342ZM415.038 169.85L411.62 179.615H410.624L407.948 172.721L405.273 179.615H404.277L400.859 169.85H402.773L404.941 176.705L407.499 169.85H408.398L410.956 176.705L413.124 169.85H415.038ZM418.154 165.162C418.532 165.162 418.844 165.299 419.091 165.572C419.352 165.833 419.482 166.139 419.482 166.49C419.482 166.829 419.352 167.135 419.091 167.408C418.844 167.682 418.532 167.818 418.154 167.818C417.776 167.818 417.457 167.682 417.197 167.408C416.949 167.135 416.826 166.829 416.826 166.49C416.826 166.139 416.949 165.833 417.197 165.572C417.457 165.299 417.776 165.162 418.154 165.162ZM419.15 169.85V179.615H417.548V171.354H416.005V169.85H419.15ZM424.902 167.037V169.85H427.754V171.354H424.902V177.076C424.902 177.48 425.007 177.799 425.215 178.033C425.423 178.268 425.742 178.385 426.172 178.385C426.562 178.385 426.888 178.339 427.148 178.248C427.409 178.144 427.637 178.033 427.832 177.916V179.225C427.572 179.433 427.292 179.596 426.992 179.713C426.706 179.843 426.315 179.908 425.82 179.908C424.987 179.908 424.355 179.661 423.926 179.166C423.509 178.658 423.301 177.988 423.301 177.154V171.354H421.426V170.885C422.064 170.598 422.598 170.13 423.027 169.479C423.457 168.815 423.835 168.001 424.16 167.037H424.902ZM435.049 169.654C435.713 169.654 436.319 169.804 436.866 170.104C437.412 170.39 437.849 170.833 438.174 171.432C438.5 172.018 438.662 172.76 438.662 173.658V179.615H437.061L437.041 173.815C437.041 172.968 436.853 172.324 436.475 171.881C436.11 171.438 435.544 171.217 434.776 171.217C434.255 171.217 433.734 171.412 433.213 171.803C432.705 172.18 432.256 172.623 431.866 173.131V179.615H430.264V165.553H431.866V171.393C432.074 171.132 432.341 170.872 432.666 170.611C432.992 170.338 433.356 170.11 433.76 169.928C434.177 169.746 434.606 169.654 435.049 169.654ZM454.288 178.053V179.615H447.198V178.053H449.796V169.537C449.405 169.876 449.002 170.11 448.585 170.24C448.168 170.371 447.752 170.475 447.335 170.553V168.873C448.09 168.678 448.748 168.359 449.308 167.916C449.868 167.473 450.33 167.011 450.695 166.529H451.554V178.053H454.288ZM460.431 166.236C461.291 166.236 462.046 166.393 462.697 166.705C463.348 167.018 463.856 167.467 464.22 168.053C464.585 168.626 464.767 169.309 464.767 170.104C464.767 170.95 464.552 171.757 464.123 172.526C463.693 173.281 463.081 174.088 462.287 174.947C461.505 175.807 460.574 176.822 459.494 177.994H464.865V179.615H456.662V178.912C457.99 177.428 459.136 176.171 460.099 175.143C461.063 174.101 461.805 173.209 462.326 172.467C462.847 171.725 463.107 171.067 463.107 170.494C463.107 169.648 462.827 169.016 462.267 168.6C461.72 168.17 461.056 167.955 460.275 167.955C459.637 167.955 459.032 168.118 458.459 168.443C457.899 168.756 457.43 169.082 457.052 169.42V167.584C457.391 167.272 457.853 166.972 458.439 166.686C459.025 166.386 459.689 166.236 460.431 166.236ZM477.307 169.654C478.297 169.654 479.175 169.889 479.944 170.358C480.712 170.826 481.311 171.451 481.741 172.233C482.183 173.014 482.405 173.867 482.405 174.791C482.405 175.716 482.183 176.568 481.741 177.35C481.311 178.118 480.712 178.736 479.944 179.205C479.175 179.674 478.297 179.908 477.307 179.908C476.317 179.908 475.439 179.674 474.67 179.205C473.902 178.736 473.297 178.118 472.854 177.35C472.424 176.568 472.209 175.716 472.209 174.791C472.209 173.867 472.424 173.014 472.854 172.233C473.297 171.451 473.902 170.826 474.67 170.358C475.439 169.889 476.317 169.654 477.307 169.654ZM477.307 171.217C476.617 171.217 476.011 171.386 475.491 171.725C474.97 172.05 474.566 172.486 474.28 173.033C474.006 173.567 473.87 174.153 473.87 174.791C473.87 175.416 474.006 176.002 474.28 176.549C474.566 177.083 474.97 177.519 475.491 177.858C476.011 178.183 476.617 178.346 477.307 178.346C478.01 178.346 478.616 178.183 479.123 177.858C479.644 177.519 480.041 177.083 480.315 176.549C480.601 176.002 480.745 175.416 480.745 174.791C480.745 174.153 480.601 173.567 480.315 173.033C480.041 172.486 479.644 172.05 479.123 171.725C478.616 171.386 478.01 171.217 477.307 171.217ZM489.7 169.85V171.354H486.848V179.615H485.247V171.354H483.704V169.85H485.247V168.6C485.247 167.832 485.397 167.207 485.696 166.725C485.996 166.23 486.38 165.865 486.848 165.631C487.317 165.384 487.792 165.26 488.274 165.26C488.938 165.26 489.479 165.436 489.895 165.787V167.193C489.7 167.063 489.466 166.959 489.192 166.881C488.919 166.803 488.645 166.77 488.372 166.783C487.89 166.796 487.512 166.953 487.239 167.252C486.979 167.539 486.848 168.046 486.848 168.776V169.85H489.7ZM496.487 169.85V171.354H493.636V179.615H492.034V171.354H490.491V169.85H492.034V168.6C492.034 167.832 492.184 167.207 492.484 166.725C492.783 166.23 493.167 165.865 493.636 165.631C494.105 165.384 494.58 165.26 495.062 165.26C495.726 165.26 496.266 165.436 496.683 165.787V167.193C496.487 167.063 496.253 166.959 495.98 166.881C495.706 166.803 495.433 166.77 495.159 166.783C494.678 166.796 494.3 166.953 494.027 167.252C493.766 167.539 493.636 168.046 493.636 168.776V169.85H496.487ZM499.779 165.162C500.157 165.162 500.469 165.299 500.716 165.572C500.977 165.833 501.107 166.139 501.107 166.49C501.107 166.829 500.977 167.135 500.716 167.408C500.469 167.682 500.157 167.818 499.779 167.818C499.401 167.818 499.082 167.682 498.822 167.408C498.574 167.135 498.451 166.829 498.451 166.49C498.451 166.139 498.574 165.833 498.822 165.572C499.082 165.299 499.401 165.162 499.779 165.162ZM500.775 169.85V179.615H499.173V171.354H497.63V169.85H500.775ZM508.246 169.654C508.962 169.654 509.581 169.772 510.102 170.006C510.622 170.227 510.98 170.429 511.176 170.611V172.233C510.811 171.959 510.395 171.725 509.926 171.529C509.457 171.321 508.897 171.217 508.246 171.217C507.556 171.217 506.951 171.386 506.43 171.725C505.909 172.05 505.505 172.486 505.219 173.033C504.945 173.567 504.809 174.153 504.809 174.791C504.809 175.416 504.945 176.002 505.219 176.549C505.505 177.083 505.909 177.519 506.43 177.858C506.951 178.183 507.556 178.346 508.246 178.346C508.897 178.346 509.457 178.248 509.926 178.053C510.395 177.845 510.811 177.604 511.176 177.33V178.951C510.98 179.147 510.622 179.355 510.102 179.576C509.581 179.798 508.962 179.908 508.246 179.908C507.257 179.908 506.378 179.674 505.609 179.205C504.841 178.736 504.236 178.118 503.793 177.35C503.363 176.568 503.148 175.716 503.148 174.791C503.148 173.867 503.363 173.014 503.793 172.233C504.236 171.451 504.841 170.826 505.609 170.358C506.378 169.889 507.257 169.654 508.246 169.654ZM514.975 165.162C515.353 165.162 515.665 165.299 515.912 165.572C516.173 165.833 516.303 166.139 516.303 166.49C516.303 166.829 516.173 167.135 515.912 167.408C515.665 167.682 515.353 167.818 514.975 167.818C514.597 167.818 514.278 167.682 514.018 167.408C513.771 167.135 513.647 166.829 513.647 166.49C513.647 166.139 513.771 165.833 514.018 165.572C514.278 165.299 514.597 165.162 514.975 165.162ZM515.971 169.85V179.615H514.37V171.354H512.827V169.85H515.971ZM523.052 169.654C523.611 169.654 524.178 169.791 524.751 170.065C525.337 170.325 525.838 170.69 526.255 171.158V169.85H527.856V179.615H526.255V177.955C525.916 178.476 525.454 178.932 524.868 179.322C524.295 179.713 523.637 179.908 522.895 179.908C522.062 179.908 521.3 179.7 520.61 179.283C519.92 178.854 519.367 178.261 518.95 177.506C518.546 176.751 518.345 175.878 518.345 174.889C518.345 173.808 518.546 172.877 518.95 172.096C519.367 171.315 519.933 170.716 520.649 170.299C521.365 169.869 522.166 169.654 523.052 169.654ZM523.345 171.217C522.641 171.217 522.042 171.393 521.548 171.744C521.053 172.096 520.669 172.552 520.395 173.111C520.135 173.658 520.005 174.251 520.005 174.889C520.005 175.514 520.135 176.093 520.395 176.627C520.656 177.148 521.02 177.565 521.489 177.877C521.971 178.19 522.524 178.346 523.149 178.346C523.748 178.346 524.282 178.19 524.751 177.877C525.22 177.565 525.591 177.135 525.864 176.588C526.137 176.028 526.268 175.403 526.255 174.713L526.235 172.838C525.831 172.33 525.395 171.933 524.927 171.647C524.471 171.36 523.943 171.217 523.345 171.217ZM532.378 165.553V179.615H530.777V165.553H532.378ZM544.781 169.654C545.341 169.654 545.908 169.791 546.48 170.065C547.066 170.325 547.568 170.69 547.984 171.158V169.85H549.586V179.615H547.984V177.955C547.646 178.476 547.184 178.932 546.598 179.322C546.025 179.713 545.367 179.908 544.625 179.908C543.792 179.908 543.03 179.7 542.34 179.283C541.65 178.854 541.096 178.261 540.68 177.506C540.276 176.751 540.074 175.878 540.074 174.889C540.074 173.808 540.276 172.877 540.68 172.096C541.096 171.315 541.663 170.716 542.379 170.299C543.095 169.869 543.896 169.654 544.781 169.654ZM545.074 171.217C544.371 171.217 543.772 171.393 543.277 171.744C542.783 172.096 542.398 172.552 542.125 173.111C541.865 173.658 541.734 174.251 541.734 174.889C541.734 175.514 541.865 176.093 542.125 176.627C542.385 177.148 542.75 177.565 543.219 177.877C543.701 178.19 544.254 178.346 544.879 178.346C545.478 178.346 546.012 178.19 546.48 177.877C546.949 177.565 547.32 177.135 547.594 176.588C547.867 176.028 547.997 175.403 547.984 174.713L547.965 172.838C547.561 172.33 547.125 171.933 546.656 171.647C546.201 171.36 545.673 171.217 545.074 171.217ZM554.108 169.85V171.393C554.316 171.132 554.583 170.872 554.909 170.611C555.234 170.338 555.599 170.11 556.002 169.928C556.419 169.746 556.849 169.654 557.291 169.654C557.955 169.654 558.561 169.804 559.108 170.104C559.655 170.39 560.091 170.833 560.416 171.432C560.742 172.018 560.905 172.76 560.905 173.658V179.615H559.303L559.284 173.815C559.284 172.968 559.095 172.324 558.717 171.881C558.353 171.438 557.786 171.217 557.018 171.217C556.497 171.217 555.976 171.412 555.455 171.803C554.948 172.18 554.498 172.623 554.108 173.131V179.615H552.506V169.85H554.108ZM572.36 165.553V179.615H570.759V177.955C570.42 178.476 569.958 178.932 569.372 179.322C568.799 179.713 568.141 179.908 567.399 179.908C566.566 179.908 565.804 179.7 565.114 179.283C564.424 178.854 563.871 178.261 563.454 177.506C563.05 176.751 562.848 175.878 562.848 174.889C562.848 173.808 563.05 172.877 563.454 172.096C563.871 171.315 564.437 170.716 565.153 170.299C565.869 169.869 566.67 169.654 567.555 169.654C568.115 169.654 568.682 169.791 569.255 170.065C569.841 170.325 570.342 170.69 570.759 171.158V165.553H572.36ZM567.848 171.256C567.145 171.256 566.546 171.432 566.052 171.783C565.557 172.122 565.173 172.565 564.899 173.111C564.639 173.658 564.509 174.251 564.509 174.889C564.509 175.514 564.639 176.093 564.899 176.627C565.16 177.148 565.524 177.565 565.993 177.877C566.475 178.19 567.028 178.346 567.653 178.346C568.252 178.346 568.786 178.19 569.255 177.877C569.723 177.565 570.094 177.135 570.368 176.588C570.641 176.028 570.772 175.403 570.759 174.713L570.739 172.838C570.335 172.33 569.899 171.94 569.43 171.666C568.975 171.393 568.447 171.256 567.848 171.256ZM588.279 178.053V179.615H581.189V178.053H583.787V169.537C583.396 169.876 582.992 170.11 582.576 170.24C582.159 170.371 581.742 170.475 581.326 170.553V168.873C582.081 168.678 582.739 168.359 583.298 167.916C583.858 167.473 584.321 167.011 584.685 166.529H585.544V178.053H588.279ZM594.852 166.236C595.698 166.236 596.427 166.432 597.039 166.822C597.664 167.213 598.178 167.74 598.582 168.404C598.986 169.055 599.285 169.785 599.48 170.592C599.689 171.399 599.793 172.226 599.793 173.072C599.793 173.906 599.689 174.733 599.48 175.553C599.285 176.36 598.986 177.096 598.582 177.76C598.178 178.411 597.664 178.932 597.039 179.322C596.427 179.713 595.698 179.908 594.852 179.908C594.018 179.908 593.289 179.713 592.664 179.322C592.039 178.932 591.525 178.411 591.121 177.76C590.717 177.096 590.411 176.36 590.203 175.553C590.008 174.733 589.91 173.906 589.91 173.072C589.91 172.226 590.008 171.399 590.203 170.592C590.411 169.785 590.717 169.055 591.121 168.404C591.525 167.74 592.039 167.213 592.664 166.822C593.289 166.432 594.018 166.236 594.852 166.236ZM594.852 167.955C594.318 167.955 593.842 168.105 593.426 168.404C593.022 168.691 592.684 169.082 592.41 169.576C592.137 170.058 591.928 170.605 591.785 171.217C591.642 171.816 591.57 172.434 591.57 173.072C591.57 173.71 591.642 174.335 591.785 174.947C591.928 175.546 592.137 176.093 592.41 176.588C592.684 177.07 593.022 177.46 593.426 177.76C593.842 178.046 594.318 178.19 594.852 178.19C595.385 178.19 595.854 178.046 596.258 177.76C596.674 177.46 597.02 177.07 597.293 176.588C597.566 176.093 597.775 175.546 597.918 174.947C598.061 174.335 598.133 173.71 598.133 173.072C598.133 172.434 598.061 171.816 597.918 171.217C597.775 170.605 597.566 170.058 597.293 169.576C597.02 169.082 596.674 168.691 596.258 168.404C595.854 168.105 595.385 167.955 594.852 167.955ZM608.944 172.623V174.381H606.014V177.33H604.256V174.381H601.327V172.623H604.256V169.693H606.014V172.623H608.944ZM621.64 169.654C622.356 169.654 622.974 169.772 623.495 170.006C624.016 170.227 624.374 170.429 624.57 170.611V172.233C624.205 171.959 623.788 171.725 623.32 171.529C622.851 171.321 622.291 171.217 621.64 171.217C620.95 171.217 620.344 171.386 619.823 171.725C619.303 172.05 618.899 172.486 618.612 173.033C618.339 173.567 618.202 174.153 618.202 174.791C618.202 175.416 618.339 176.002 618.612 176.549C618.899 177.083 619.303 177.519 619.823 177.858C620.344 178.183 620.95 178.346 621.64 178.346C622.291 178.346 622.851 178.248 623.32 178.053C623.788 177.845 624.205 177.604 624.57 177.33V178.951C624.374 179.147 624.016 179.355 623.495 179.576C622.974 179.798 622.356 179.908 621.64 179.908C620.65 179.908 619.771 179.674 619.003 179.205C618.235 178.736 617.629 178.118 617.187 177.35C616.757 176.568 616.542 175.716 616.542 174.791C616.542 173.867 616.757 173.014 617.187 172.233C617.629 171.451 618.235 170.826 619.003 170.358C619.771 169.889 620.65 169.654 621.64 169.654ZM631.22 169.654C632.21 169.654 633.089 169.889 633.857 170.358C634.625 170.826 635.224 171.451 635.654 172.233C636.097 173.014 636.318 173.867 636.318 174.791C636.318 175.716 636.097 176.568 635.654 177.35C635.224 178.118 634.625 178.736 633.857 179.205C633.089 179.674 632.21 179.908 631.22 179.908C630.231 179.908 629.352 179.674 628.584 179.205C627.815 178.736 627.21 178.118 626.767 177.35C626.337 176.568 626.123 175.716 626.123 174.791C626.123 173.867 626.337 173.014 626.767 172.233C627.21 171.451 627.815 170.826 628.584 170.358C629.352 169.889 630.231 169.654 631.22 169.654ZM631.22 171.217C630.53 171.217 629.925 171.386 629.404 171.725C628.883 172.05 628.479 172.486 628.193 173.033C627.919 173.567 627.783 174.153 627.783 174.791C627.783 175.416 627.919 176.002 628.193 176.549C628.479 177.083 628.883 177.519 629.404 177.858C629.925 178.183 630.53 178.346 631.22 178.346C631.923 178.346 632.529 178.183 633.037 177.858C633.558 177.519 633.955 177.083 634.228 176.549C634.515 176.002 634.658 175.416 634.658 174.791C634.658 174.153 634.515 173.567 634.228 173.033C633.955 172.486 633.558 172.05 633.037 171.725C632.529 171.386 631.923 171.217 631.22 171.217ZM640.156 169.85V171.1C640.469 170.748 640.866 170.423 641.348 170.123C641.842 169.811 642.422 169.654 643.086 169.654C643.789 169.654 644.447 169.824 645.059 170.162C645.671 170.488 646.139 170.983 646.465 171.647C646.921 171.1 647.415 170.631 647.949 170.24C648.483 169.85 649.108 169.654 649.824 169.654C650.488 169.654 651.107 169.804 651.68 170.104C652.266 170.39 652.734 170.833 653.086 171.432C653.451 172.018 653.633 172.76 653.633 173.658V179.615H652.031L652.012 173.815C652.012 172.968 651.79 172.324 651.348 171.881C650.918 171.438 650.319 171.217 649.551 171.217C648.991 171.217 648.503 171.393 648.086 171.744C647.669 172.096 647.272 172.506 646.895 172.975V179.615H645.293L645.273 173.815C645.273 172.968 645.052 172.324 644.609 171.881C644.18 171.438 643.581 171.217 642.812 171.217C642.279 171.217 641.79 171.373 641.348 171.686C640.918 171.998 640.521 172.376 640.156 172.818V179.615H638.555V169.85H640.156ZM657.862 169.85V171.1C658.174 170.748 658.571 170.423 659.053 170.123C659.548 169.811 660.127 169.654 660.791 169.654C661.495 169.654 662.152 169.824 662.764 170.162C663.376 170.488 663.845 170.983 664.17 171.647C664.626 171.1 665.121 170.631 665.655 170.24C666.189 169.85 666.814 169.654 667.53 169.654C668.194 169.654 668.812 169.804 669.385 170.104C669.971 170.39 670.44 170.833 670.791 171.432C671.156 172.018 671.338 172.76 671.338 173.658V179.615H669.737L669.717 173.815C669.717 172.968 669.496 172.324 669.053 171.881C668.623 171.438 668.024 171.217 667.256 171.217C666.696 171.217 666.208 171.393 665.791 171.744C665.375 172.096 664.978 172.506 664.6 172.975V179.615H662.998L662.979 173.815C662.979 172.968 662.758 172.324 662.315 171.881C661.885 171.438 661.286 171.217 660.518 171.217C659.984 171.217 659.496 171.373 659.053 171.686C658.623 171.998 658.226 172.376 657.862 172.818V179.615H656.26V169.85H657.862ZM681.954 169.85V175.631C681.954 176.49 681.772 177.233 681.407 177.858C681.042 178.483 680.548 178.964 679.923 179.303C679.298 179.641 678.595 179.811 677.813 179.811C677.032 179.811 676.329 179.641 675.704 179.303C675.079 178.964 674.584 178.483 674.22 177.858C673.855 177.233 673.673 176.49 673.673 175.631V169.85H675.333V175.631C675.333 176.477 675.58 177.128 676.075 177.584C676.583 178.027 677.162 178.248 677.813 178.248C678.464 178.248 679.037 178.027 679.532 177.584C680.04 177.128 680.294 176.477 680.294 175.631V169.85H681.954ZM686.183 169.85V171.393C686.391 171.132 686.658 170.872 686.984 170.611C687.309 170.338 687.674 170.11 688.077 169.928C688.494 169.746 688.924 169.654 689.366 169.654C690.03 169.654 690.636 169.804 691.183 170.104C691.73 170.39 692.166 170.833 692.491 171.432C692.817 172.018 692.98 172.76 692.98 173.658V179.615H691.378L691.359 173.815C691.359 172.968 691.17 172.324 690.792 171.881C690.428 171.438 689.861 171.217 689.093 171.217C688.572 171.217 688.051 171.412 687.53 171.803C687.023 172.18 686.573 172.623 686.183 173.131V179.615H684.581V169.85H686.183ZM697.169 165.162C697.547 165.162 697.86 165.299 698.107 165.572C698.367 165.833 698.498 166.139 698.498 166.49C698.498 166.829 698.367 167.135 698.107 167.408C697.86 167.682 697.547 167.818 697.169 167.818C696.792 167.818 696.473 167.682 696.212 167.408C695.965 167.135 695.841 166.829 695.841 166.49C695.841 166.139 695.965 165.833 696.212 165.572C696.473 165.299 696.792 165.162 697.169 165.162ZM698.166 169.85V179.615H696.564V171.354H695.021V169.85H698.166ZM703.918 167.037V169.85H706.77V171.354H703.918V177.076C703.918 177.48 704.022 177.799 704.23 178.033C704.439 178.268 704.758 178.385 705.188 178.385C705.578 178.385 705.904 178.339 706.164 178.248C706.424 178.144 706.652 178.033 706.848 177.916V179.225C706.587 179.433 706.307 179.596 706.008 179.713C705.721 179.843 705.331 179.908 704.836 179.908C704.003 179.908 703.371 179.661 702.941 179.166C702.525 178.658 702.316 177.988 702.316 177.154V171.354H700.441V170.885C701.079 170.598 701.613 170.13 702.043 169.479C702.473 168.815 702.85 168.001 703.176 167.037H703.918ZM709.827 169.85L713.245 177.037L716.565 169.85H718.479L711.291 184.303H709.436L712.229 179.029L707.912 169.85H709.827ZM729.144 166.334C729.912 166.334 730.543 166.445 731.038 166.666C731.546 166.887 731.989 167.122 732.366 167.369V169.186C732.002 168.912 731.559 168.658 731.038 168.424C730.517 168.177 729.951 168.053 729.339 168.053C728.948 168.053 728.538 168.124 728.109 168.268C727.692 168.398 727.34 168.613 727.054 168.912C726.767 169.212 726.624 169.596 726.624 170.065C726.624 170.585 726.813 170.983 727.191 171.256C727.568 171.529 728.024 171.79 728.558 172.037L730.355 172.858C731.253 173.261 731.93 173.71 732.386 174.205C732.842 174.7 733.07 175.358 733.07 176.178C733.07 176.894 732.861 177.526 732.445 178.072C732.028 178.606 731.481 179.029 730.804 179.342C730.127 179.654 729.385 179.811 728.577 179.811C727.822 179.811 727.126 179.68 726.487 179.42C725.849 179.16 725.296 178.867 724.827 178.541V176.725C725.335 177.076 725.915 177.395 726.566 177.682C727.23 177.955 727.978 178.092 728.812 178.092C729.463 178.092 730.036 177.929 730.53 177.604C731.025 177.278 731.273 176.829 731.273 176.256C731.273 175.93 731.168 175.651 730.96 175.416C730.765 175.182 730.524 174.98 730.237 174.811C729.951 174.641 729.671 174.498 729.398 174.381L727.23 173.404C726.292 172.988 725.654 172.499 725.316 171.94C724.977 171.38 724.808 170.735 724.808 170.006C724.808 169.316 725.003 168.697 725.394 168.151C725.797 167.591 726.331 167.148 726.995 166.822C727.659 166.497 728.376 166.334 729.144 166.334ZM740.599 166.217C742.071 166.217 743.314 166.516 744.33 167.115C745.358 167.714 746.14 168.528 746.673 169.557C747.22 170.572 747.494 171.725 747.494 173.014C747.494 174.303 747.22 175.462 746.673 176.49C746.14 177.506 745.358 178.313 744.33 178.912C743.314 179.511 742.071 179.811 740.599 179.811C739.701 179.811 738.874 179.765 738.119 179.674C737.364 179.583 736.589 179.466 735.794 179.322V166.705C736.589 166.562 737.364 166.445 738.119 166.354C738.874 166.262 739.701 166.217 740.599 166.217ZM740.599 167.877C740.13 167.877 739.629 167.897 739.095 167.936C738.561 167.962 738.047 168.007 737.552 168.072V177.955C738.047 178.007 738.561 178.053 739.095 178.092C739.629 178.131 740.13 178.151 740.599 178.151C741.654 178.151 742.559 177.929 743.314 177.486C744.082 177.031 744.668 176.419 745.072 175.651C745.489 174.869 745.697 173.99 745.697 173.014C745.697 172.037 745.489 171.165 745.072 170.397C744.668 169.615 744.082 169.003 743.314 168.561C742.559 168.105 741.654 167.877 740.599 167.877ZM751.977 166.529V173.404L757.953 166.529H760.414L754.926 172.565L761 179.615H758.559L753.656 173.971L751.977 175.807V179.615H750.219V166.529H751.977ZM765.366 169.654C765.939 169.654 766.472 169.739 766.967 169.908C767.462 170.065 767.82 170.227 768.041 170.397V172.115C767.768 171.907 767.397 171.705 766.928 171.51C766.459 171.315 765.978 171.217 765.483 171.217C764.871 171.217 764.409 171.36 764.096 171.647C763.797 171.933 763.647 172.233 763.647 172.545C763.647 172.792 763.731 173.046 763.901 173.307C764.083 173.554 764.396 173.756 764.838 173.912L766.479 174.498C767.117 174.72 767.592 175.039 767.905 175.455C768.217 175.872 768.373 176.36 768.373 176.92C768.373 177.467 768.217 177.968 767.905 178.424C767.605 178.88 767.182 179.244 766.635 179.518C766.101 179.778 765.483 179.908 764.78 179.908C764.402 179.908 764.005 179.856 763.588 179.752C763.185 179.661 762.82 179.55 762.495 179.42C762.169 179.277 761.928 179.153 761.772 179.049V177.33C761.954 177.46 762.208 177.61 762.534 177.779C762.872 177.936 763.23 178.072 763.608 178.19C763.985 178.294 764.337 178.346 764.662 178.346C765.274 178.346 765.756 178.209 766.108 177.936C766.472 177.662 766.655 177.324 766.655 176.92C766.655 176.608 766.531 176.36 766.284 176.178C766.049 175.996 765.704 175.82 765.248 175.651L763.803 175.123C763.048 174.837 762.547 174.479 762.299 174.049C762.052 173.606 761.928 173.105 761.928 172.545C761.928 171.712 762.241 171.022 762.866 170.475C763.491 169.928 764.324 169.654 765.366 169.654ZM185.132 200.529V202.19H180.62V213.557H178.862V202.19H174.35V200.529H185.132ZM188.56 203.85V205.803C188.937 205.152 189.393 204.631 189.927 204.24C190.461 203.85 191.008 203.654 191.568 203.654C191.945 203.654 192.284 203.72 192.583 203.85V205.705C192.167 205.458 191.75 205.334 191.333 205.334C190.669 205.334 190.129 205.568 189.712 206.037C189.308 206.506 188.924 207.066 188.56 207.717V213.615H186.958V203.85H188.56ZM202.222 203.85V209.631C202.222 210.49 202.04 211.233 201.675 211.858C201.311 212.483 200.816 212.964 200.191 213.303C199.566 213.641 198.863 213.811 198.082 213.811C197.3 213.811 196.597 213.641 195.972 213.303C195.347 212.964 194.852 212.483 194.488 211.858C194.123 211.233 193.941 210.49 193.941 209.631V203.85H195.601V209.631C195.601 210.477 195.849 211.128 196.343 211.584C196.851 212.027 197.431 212.248 198.082 212.248C198.733 212.248 199.306 212.027 199.8 211.584C200.308 211.128 200.562 210.477 200.562 209.631V203.85H202.222ZM207.76 203.654C208.333 203.654 208.867 203.739 209.361 203.908C209.856 204.065 210.214 204.227 210.436 204.397V206.115C210.162 205.907 209.791 205.705 209.322 205.51C208.854 205.315 208.372 205.217 207.877 205.217C207.265 205.217 206.803 205.36 206.49 205.647C206.191 205.933 206.041 206.233 206.041 206.545C206.041 206.792 206.126 207.046 206.295 207.307C206.477 207.554 206.79 207.756 207.232 207.912L208.873 208.498C209.511 208.72 209.986 209.039 210.299 209.455C210.611 209.872 210.768 210.36 210.768 210.92C210.768 211.467 210.611 211.968 210.299 212.424C209.999 212.88 209.576 213.244 209.029 213.518C208.495 213.778 207.877 213.908 207.174 213.908C206.796 213.908 206.399 213.856 205.982 213.752C205.579 213.661 205.214 213.55 204.889 213.42C204.563 213.277 204.322 213.153 204.166 213.049V211.33C204.348 211.46 204.602 211.61 204.928 211.779C205.266 211.936 205.624 212.072 206.002 212.19C206.38 212.294 206.731 212.346 207.057 212.346C207.669 212.346 208.15 212.209 208.502 211.936C208.867 211.662 209.049 211.324 209.049 210.92C209.049 210.608 208.925 210.36 208.678 210.178C208.443 209.996 208.098 209.82 207.643 209.651L206.197 209.123C205.442 208.837 204.941 208.479 204.693 208.049C204.446 207.606 204.322 207.105 204.322 206.545C204.322 205.712 204.635 205.022 205.26 204.475C205.885 203.928 206.718 203.654 207.76 203.654ZM215.504 201.037V203.85H218.356V205.354H215.504V211.076C215.504 211.48 215.608 211.799 215.817 212.033C216.025 212.268 216.344 212.385 216.774 212.385C217.164 212.385 217.49 212.339 217.75 212.248C218.011 212.144 218.239 212.033 218.434 211.916V213.225C218.174 213.433 217.894 213.596 217.594 213.713C217.308 213.843 216.917 213.908 216.422 213.908C215.589 213.908 214.957 213.661 214.528 213.166C214.111 212.658 213.903 211.988 213.903 211.154V205.354H212.028V204.885C212.666 204.598 213.2 204.13 213.629 203.479C214.059 202.815 214.437 202.001 214.762 201.037H215.504ZM224.889 203.654C225.892 203.654 226.725 203.863 227.389 204.279C228.054 204.696 228.548 205.262 228.874 205.979C229.212 206.695 229.382 207.502 229.382 208.401V209.358H221.882C221.96 209.904 222.149 210.406 222.448 210.861C222.748 211.317 223.138 211.682 223.62 211.955C224.102 212.216 224.655 212.346 225.28 212.346C225.983 212.346 226.641 212.17 227.253 211.818C227.865 211.454 228.379 211.057 228.796 210.627L228.776 212.365C228.594 212.587 228.32 212.821 227.956 213.068C227.604 213.303 227.194 213.498 226.725 213.654C226.27 213.824 225.788 213.908 225.28 213.908C224.29 213.908 223.412 213.674 222.643 213.205C221.875 212.736 221.27 212.118 220.827 211.35C220.397 210.568 220.182 209.716 220.182 208.791C220.182 207.867 220.384 207.014 220.788 206.233C221.192 205.451 221.745 204.826 222.448 204.358C223.164 203.889 223.978 203.654 224.889 203.654ZM224.889 205.217C224.082 205.217 223.418 205.49 222.897 206.037C222.376 206.571 222.051 207.222 221.921 207.99H227.8C227.735 207.352 227.552 206.832 227.253 206.428C226.966 206.024 226.615 205.725 226.198 205.529C225.781 205.321 225.345 205.217 224.889 205.217ZM240.446 199.553V213.615H238.845V211.955C238.506 212.476 238.044 212.932 237.458 213.322C236.885 213.713 236.228 213.908 235.486 213.908C234.652 213.908 233.89 213.7 233.2 213.283C232.51 212.854 231.957 212.261 231.54 211.506C231.137 210.751 230.935 209.878 230.935 208.889C230.935 207.808 231.137 206.877 231.54 206.096C231.957 205.315 232.523 204.716 233.239 204.299C233.956 203.869 234.756 203.654 235.642 203.654C236.202 203.654 236.768 203.791 237.341 204.065C237.927 204.325 238.428 204.69 238.845 205.158V199.553H240.446ZM235.935 205.256C235.232 205.256 234.633 205.432 234.138 205.783C233.643 206.122 233.259 206.565 232.986 207.111C232.725 207.658 232.595 208.251 232.595 208.889C232.595 209.514 232.725 210.093 232.986 210.627C233.246 211.148 233.611 211.565 234.079 211.877C234.561 212.19 235.114 212.346 235.739 212.346C236.338 212.346 236.872 212.19 237.341 211.877C237.81 211.565 238.181 211.135 238.454 210.588C238.728 210.028 238.858 209.403 238.845 208.713L238.825 206.838C238.422 206.33 237.986 205.94 237.517 205.666C237.061 205.393 236.534 205.256 235.935 205.256ZM253.631 203.654C254.529 203.654 255.33 203.869 256.033 204.299C256.749 204.716 257.309 205.315 257.713 206.096C258.13 206.877 258.338 207.808 258.338 208.889C258.338 209.878 258.13 210.751 257.713 211.506C257.309 212.261 256.762 212.854 256.072 213.283C255.395 213.7 254.633 213.908 253.787 213.908C253.045 213.908 252.381 213.713 251.795 213.322C251.222 212.932 250.766 212.476 250.428 211.955V213.615H248.826V199.553H250.428V205.158C250.844 204.69 251.339 204.325 251.912 204.065C252.498 203.791 253.071 203.654 253.631 203.654ZM253.338 205.236C252.739 205.236 252.212 205.38 251.756 205.666C251.3 205.94 250.864 206.33 250.447 206.838L250.428 208.713C250.428 209.403 250.558 210.022 250.818 210.568C251.092 211.115 251.463 211.545 251.932 211.858C252.413 212.17 252.947 212.326 253.533 212.326C254.171 212.326 254.725 212.17 255.193 211.858C255.662 211.545 256.027 211.128 256.287 210.608C256.548 210.087 256.678 209.514 256.678 208.889C256.678 208.251 256.541 207.658 256.268 207.111C256.007 206.552 255.63 206.102 255.135 205.764C254.64 205.412 254.041 205.236 253.338 205.236ZM261.121 203.85L264.539 211.037L267.86 203.85H269.774L262.586 218.303H260.731L263.524 213.029L259.207 203.85H261.121ZM279.482 201.037V203.85H282.333V205.354H279.482V211.076C279.482 211.48 279.586 211.799 279.794 212.033C280.002 212.268 280.321 212.385 280.751 212.385C281.142 212.385 281.467 212.339 281.728 212.248C281.988 212.144 282.216 212.033 282.411 211.916V213.225C282.151 213.433 281.871 213.596 281.571 213.713C281.285 213.843 280.894 213.908 280.4 213.908C279.566 213.908 278.935 213.661 278.505 213.166C278.088 212.658 277.88 211.988 277.88 211.154V205.354H276.005V204.885C276.643 204.598 277.177 204.13 277.607 203.479C278.036 202.815 278.414 202.001 278.739 201.037H279.482ZM289.629 203.654C290.293 203.654 290.898 203.804 291.445 204.104C291.992 204.39 292.428 204.833 292.754 205.432C293.079 206.018 293.242 206.76 293.242 207.658V213.615H291.64L291.621 207.815C291.621 206.968 291.432 206.324 291.054 205.881C290.69 205.438 290.123 205.217 289.355 205.217C288.834 205.217 288.313 205.412 287.793 205.803C287.285 206.18 286.836 206.623 286.445 207.131V213.615H284.843V199.553H286.445V205.393C286.653 205.132 286.92 204.872 287.246 204.611C287.571 204.338 287.936 204.11 288.339 203.928C288.756 203.746 289.186 203.654 289.629 203.654ZM300.283 203.654C301.273 203.654 302.152 203.889 302.92 204.358C303.688 204.826 304.287 205.451 304.717 206.233C305.16 207.014 305.381 207.867 305.381 208.791C305.381 209.716 305.16 210.568 304.717 211.35C304.287 212.118 303.688 212.736 302.92 213.205C302.152 213.674 301.273 213.908 300.283 213.908C299.294 213.908 298.415 213.674 297.646 213.205C296.878 212.736 296.273 212.118 295.83 211.35C295.4 210.568 295.186 209.716 295.186 208.791C295.186 207.867 295.4 207.014 295.83 206.233C296.273 205.451 296.878 204.826 297.646 204.358C298.415 203.889 299.294 203.654 300.283 203.654ZM300.283 205.217C299.593 205.217 298.988 205.386 298.467 205.725C297.946 206.05 297.542 206.486 297.256 207.033C296.982 207.567 296.846 208.153 296.846 208.791C296.846 209.416 296.982 210.002 297.256 210.549C297.542 211.083 297.946 211.519 298.467 211.858C298.988 212.183 299.593 212.346 300.283 212.346C300.986 212.346 301.592 212.183 302.1 211.858C302.62 211.519 303.018 211.083 303.291 210.549C303.577 210.002 303.721 209.416 303.721 208.791C303.721 208.153 303.577 207.567 303.291 207.033C303.018 206.486 302.62 206.05 302.1 205.725C301.592 205.386 300.986 205.217 300.283 205.217ZM315.606 203.85V209.631C315.606 210.49 315.424 211.233 315.059 211.858C314.694 212.483 314.2 212.964 313.575 213.303C312.95 213.641 312.246 213.811 311.465 213.811C310.684 213.811 309.981 213.641 309.356 213.303C308.731 212.964 308.236 212.483 307.871 211.858C307.507 211.233 307.325 210.49 307.325 209.631V203.85H308.985V209.631C308.985 210.477 309.232 211.128 309.727 211.584C310.235 212.027 310.814 212.248 311.465 212.248C312.116 212.248 312.689 212.027 313.184 211.584C313.692 211.128 313.946 210.477 313.946 209.631V203.85H315.606ZM321.143 203.654C321.716 203.654 322.25 203.739 322.745 203.908C323.24 204.065 323.598 204.227 323.819 204.397V206.115C323.546 205.907 323.175 205.705 322.706 205.51C322.237 205.315 321.755 205.217 321.261 205.217C320.649 205.217 320.186 205.36 319.874 205.647C319.574 205.933 319.425 206.233 319.425 206.545C319.425 206.792 319.509 207.046 319.679 207.307C319.861 207.554 320.173 207.756 320.616 207.912L322.257 208.498C322.895 208.72 323.37 209.039 323.682 209.455C323.995 209.872 324.151 210.36 324.151 210.92C324.151 211.467 323.995 211.968 323.682 212.424C323.383 212.88 322.96 213.244 322.413 213.518C321.879 213.778 321.261 213.908 320.557 213.908C320.18 213.908 319.783 213.856 319.366 213.752C318.962 213.661 318.598 213.55 318.272 213.42C317.947 213.277 317.706 213.153 317.55 213.049V211.33C317.732 211.46 317.986 211.61 318.311 211.779C318.65 211.936 319.008 212.072 319.386 212.19C319.763 212.294 320.115 212.346 320.44 212.346C321.052 212.346 321.534 212.209 321.886 211.936C322.25 211.662 322.432 211.324 322.432 210.92C322.432 210.608 322.309 210.36 322.061 210.178C321.827 209.996 321.482 209.82 321.026 209.651L319.581 209.123C318.826 208.837 318.324 208.479 318.077 208.049C317.83 207.606 317.706 207.105 317.706 206.545C317.706 205.712 318.018 205.022 318.643 204.475C319.268 203.928 320.102 203.654 321.143 203.654ZM330.216 203.654C330.776 203.654 331.342 203.791 331.915 204.065C332.501 204.325 333.002 204.69 333.419 205.158V203.85H335.021V213.615H333.419V211.955C333.081 212.476 332.618 212.932 332.032 213.322C331.459 213.713 330.802 213.908 330.06 213.908C329.226 213.908 328.465 213.7 327.775 213.283C327.084 212.854 326.531 212.261 326.114 211.506C325.711 210.751 325.509 209.878 325.509 208.889C325.509 207.808 325.711 206.877 326.114 206.096C326.531 205.315 327.098 204.716 327.814 204.299C328.53 203.869 329.331 203.654 330.216 203.654ZM330.509 205.217C329.806 205.217 329.207 205.393 328.712 205.744C328.217 206.096 327.833 206.552 327.56 207.111C327.299 207.658 327.169 208.251 327.169 208.889C327.169 209.514 327.299 210.093 327.56 210.627C327.82 211.148 328.185 211.565 328.654 211.877C329.135 212.19 329.689 212.346 330.314 212.346C330.913 212.346 331.446 212.19 331.915 211.877C332.384 211.565 332.755 211.135 333.029 210.588C333.302 210.028 333.432 209.403 333.419 208.713L333.4 206.838C332.996 206.33 332.56 205.933 332.091 205.647C331.635 205.36 331.108 205.217 330.509 205.217ZM339.543 203.85V205.393C339.751 205.132 340.018 204.872 340.343 204.611C340.669 204.338 341.033 204.11 341.437 203.928C341.854 203.746 342.283 203.654 342.726 203.654C343.39 203.654 343.996 203.804 344.543 204.104C345.089 204.39 345.526 204.833 345.851 205.432C346.177 206.018 346.339 206.76 346.339 207.658V213.615H344.738L344.718 207.815C344.718 206.968 344.53 206.324 344.152 205.881C343.787 205.438 343.221 205.217 342.453 205.217C341.932 205.217 341.411 205.412 340.89 205.803C340.382 206.18 339.933 206.623 339.543 207.131V213.615H337.941V203.85H339.543ZM357.795 199.553V213.615H356.193V211.955C355.855 212.476 355.393 212.932 354.807 213.322C354.234 213.713 353.576 213.908 352.834 213.908C352.001 213.908 351.239 213.7 350.549 213.283C349.859 212.854 349.305 212.261 348.889 211.506C348.485 210.751 348.283 209.878 348.283 208.889C348.283 207.808 348.485 206.877 348.889 206.096C349.305 205.315 349.872 204.716 350.588 204.299C351.304 203.869 352.105 203.654 352.99 203.654C353.55 203.654 354.117 203.791 354.689 204.065C355.275 204.325 355.777 204.69 356.193 205.158V199.553H357.795ZM353.283 205.256C352.58 205.256 351.981 205.432 351.486 205.783C350.992 206.122 350.607 206.565 350.334 207.111C350.074 207.658 349.943 208.251 349.943 208.889C349.943 209.514 350.074 210.093 350.334 210.627C350.594 211.148 350.959 211.565 351.428 211.877C351.91 212.19 352.463 212.346 353.088 212.346C353.687 212.346 354.221 212.19 354.689 211.877C355.158 211.565 355.529 211.135 355.803 210.588C356.076 210.028 356.206 209.403 356.193 208.713L356.174 206.838C355.77 206.33 355.334 205.94 354.865 205.666C354.41 205.393 353.882 205.256 353.283 205.256ZM363.625 203.654C364.198 203.654 364.732 203.739 365.227 203.908C365.722 204.065 366.08 204.227 366.301 204.397V206.115C366.028 205.907 365.657 205.705 365.188 205.51C364.719 205.315 364.237 205.217 363.743 205.217C363.131 205.217 362.668 205.36 362.356 205.647C362.056 205.933 361.907 206.233 361.907 206.545C361.907 206.792 361.991 207.046 362.161 207.307C362.343 207.554 362.655 207.756 363.098 207.912L364.739 208.498C365.377 208.72 365.852 209.039 366.164 209.455C366.477 209.872 366.633 210.36 366.633 210.92C366.633 211.467 366.477 211.968 366.164 212.424C365.865 212.88 365.442 213.244 364.895 213.518C364.361 213.778 363.743 213.908 363.039 213.908C362.662 213.908 362.265 213.856 361.848 213.752C361.444 213.661 361.08 213.55 360.754 213.42C360.429 213.277 360.188 213.153 360.032 213.049V211.33C360.214 211.46 360.468 211.61 360.793 211.779C361.132 211.936 361.49 212.072 361.868 212.19C362.245 212.294 362.597 212.346 362.922 212.346C363.534 212.346 364.016 212.209 364.368 211.936C364.732 211.662 364.914 211.324 364.914 210.92C364.914 210.608 364.791 210.36 364.543 210.178C364.309 209.996 363.964 209.82 363.508 209.651L362.063 209.123C361.308 208.837 360.806 208.479 360.559 208.049C360.312 207.606 360.188 207.105 360.188 206.545C360.188 205.712 360.5 205.022 361.125 204.475C361.75 203.928 362.584 203.654 363.625 203.654ZM378.548 203.654C379.538 203.654 380.417 203.889 381.185 204.358C381.953 204.826 382.552 205.451 382.982 206.233C383.424 207.014 383.646 207.867 383.646 208.791C383.646 209.716 383.424 210.568 382.982 211.35C382.552 212.118 381.953 212.736 381.185 213.205C380.417 213.674 379.538 213.908 378.548 213.908C377.558 213.908 376.68 213.674 375.911 213.205C375.143 212.736 374.538 212.118 374.095 211.35C373.665 210.568 373.45 209.716 373.45 208.791C373.45 207.867 373.665 207.014 374.095 206.233C374.538 205.451 375.143 204.826 375.911 204.358C376.68 203.889 377.558 203.654 378.548 203.654ZM378.548 205.217C377.858 205.217 377.252 205.386 376.732 205.725C376.211 206.05 375.807 206.486 375.521 207.033C375.247 207.567 375.111 208.153 375.111 208.791C375.111 209.416 375.247 210.002 375.521 210.549C375.807 211.083 376.211 211.519 376.732 211.858C377.252 212.183 377.858 212.346 378.548 212.346C379.251 212.346 379.857 212.183 380.364 211.858C380.885 211.519 381.282 211.083 381.556 210.549C381.842 210.002 381.986 209.416 381.986 208.791C381.986 208.153 381.842 207.567 381.556 207.033C381.282 206.486 380.885 206.05 380.364 205.725C379.857 205.386 379.251 205.217 378.548 205.217ZM390.941 203.85V205.354H388.089V213.615H386.488V205.354H384.945V203.85H386.488V202.6C386.488 201.832 386.638 201.207 386.937 200.725C387.237 200.23 387.621 199.865 388.089 199.631C388.558 199.384 389.033 199.26 389.515 199.26C390.179 199.26 390.72 199.436 391.136 199.787V201.193C390.941 201.063 390.707 200.959 390.433 200.881C390.16 200.803 389.886 200.77 389.613 200.783C389.131 200.796 388.754 200.953 388.48 201.252C388.22 201.539 388.089 202.046 388.089 202.776V203.85H390.941ZM402.543 203.654C403.259 203.654 403.878 203.772 404.399 204.006C404.92 204.227 405.278 204.429 405.473 204.611V206.233C405.108 205.959 404.692 205.725 404.223 205.529C403.754 205.321 403.194 205.217 402.543 205.217C401.853 205.217 401.248 205.386 400.727 205.725C400.206 206.05 399.802 206.486 399.516 207.033C399.243 207.567 399.106 208.153 399.106 208.791C399.106 209.416 399.243 210.002 399.516 210.549C399.802 211.083 400.206 211.519 400.727 211.858C401.248 212.183 401.853 212.346 402.543 212.346C403.194 212.346 403.754 212.248 404.223 212.053C404.692 211.845 405.108 211.604 405.473 211.33V212.951C405.278 213.147 404.92 213.355 404.399 213.576C403.878 213.798 403.259 213.908 402.543 213.908C401.554 213.908 400.675 213.674 399.907 213.205C399.138 212.736 398.533 212.118 398.09 211.35C397.661 210.568 397.446 209.716 397.446 208.791C397.446 207.867 397.661 207.014 398.09 206.233C398.533 205.451 399.138 204.826 399.907 204.358C400.675 203.889 401.554 203.654 402.543 203.654ZM412.124 203.654C413.113 203.654 413.992 203.889 414.761 204.358C415.529 204.826 416.128 205.451 416.557 206.233C417 207.014 417.221 207.867 417.221 208.791C417.221 209.716 417 210.568 416.557 211.35C416.128 212.118 415.529 212.736 414.761 213.205C413.992 213.674 413.113 213.908 412.124 213.908C411.134 213.908 410.255 213.674 409.487 213.205C408.719 212.736 408.113 212.118 407.671 211.35C407.241 210.568 407.026 209.716 407.026 208.791C407.026 207.867 407.241 207.014 407.671 206.233C408.113 205.451 408.719 204.826 409.487 204.358C410.255 203.889 411.134 203.654 412.124 203.654ZM412.124 205.217C411.434 205.217 410.828 205.386 410.307 205.725C409.787 206.05 409.383 206.486 409.096 207.033C408.823 207.567 408.686 208.153 408.686 208.791C408.686 209.416 408.823 210.002 409.096 210.549C409.383 211.083 409.787 211.519 410.307 211.858C410.828 212.183 411.434 212.346 412.124 212.346C412.827 212.346 413.432 212.183 413.94 211.858C414.461 211.519 414.858 211.083 415.132 210.549C415.418 210.002 415.561 209.416 415.561 208.791C415.561 208.153 415.418 207.567 415.132 207.033C414.858 206.486 414.461 206.05 413.94 205.725C413.432 205.386 412.827 205.217 412.124 205.217ZM421.06 203.85V205.1C421.372 204.748 421.769 204.423 422.251 204.123C422.746 203.811 423.325 203.654 423.989 203.654C424.693 203.654 425.35 203.824 425.962 204.162C426.574 204.488 427.043 204.983 427.368 205.647C427.824 205.1 428.319 204.631 428.853 204.24C429.387 203.85 430.012 203.654 430.728 203.654C431.392 203.654 432.01 203.804 432.583 204.104C433.169 204.39 433.638 204.833 433.989 205.432C434.354 206.018 434.536 206.76 434.536 207.658V213.615H432.935L432.915 207.815C432.915 206.968 432.694 206.324 432.251 205.881C431.821 205.438 431.223 205.217 430.454 205.217C429.894 205.217 429.406 205.393 428.989 205.744C428.573 206.096 428.176 206.506 427.798 206.975V213.615H426.196L426.177 207.815C426.177 206.968 425.956 206.324 425.513 205.881C425.083 205.438 424.484 205.217 423.716 205.217C423.182 205.217 422.694 205.373 422.251 205.686C421.821 205.998 421.424 206.376 421.06 206.818V213.615H419.458V203.85H421.06ZM442.125 203.654C442.971 203.654 443.733 203.863 444.41 204.279C445.1 204.683 445.647 205.256 446.05 205.998C446.467 206.727 446.675 207.587 446.675 208.576C446.675 209.644 446.467 210.582 446.05 211.389C445.647 212.183 445.087 212.802 444.371 213.244C443.668 213.687 442.867 213.908 441.968 213.908C441.408 213.908 440.836 213.759 440.25 213.459C439.677 213.16 439.182 212.776 438.765 212.307V218.303H437.164V203.85H438.765V205.51C439.104 204.989 439.56 204.553 440.132 204.201C440.718 203.837 441.382 203.654 442.125 203.654ZM441.871 205.217C441.285 205.217 440.751 205.367 440.269 205.666C439.8 205.966 439.429 206.382 439.156 206.916C438.895 207.437 438.765 208.049 438.765 208.752L438.785 210.627C439.201 211.135 439.638 211.552 440.093 211.877C440.549 212.19 441.076 212.346 441.675 212.346C442.379 212.346 442.977 212.164 443.472 211.799C443.967 211.434 444.345 210.966 444.605 210.393C444.879 209.807 445.015 209.201 445.015 208.576C445.015 207.938 444.885 207.372 444.625 206.877C444.364 206.369 444 205.966 443.531 205.666C443.062 205.367 442.509 205.217 441.871 205.217ZM452.936 203.654C453.495 203.654 454.062 203.791 454.635 204.065C455.221 204.325 455.722 204.69 456.139 205.158V203.85H457.74V213.615H456.139V211.955C455.8 212.476 455.338 212.932 454.752 213.322C454.179 213.713 453.521 213.908 452.779 213.908C451.946 213.908 451.184 213.7 450.494 213.283C449.804 212.854 449.251 212.261 448.834 211.506C448.43 210.751 448.229 209.878 448.229 208.889C448.229 207.808 448.43 206.877 448.834 206.096C449.251 205.315 449.817 204.716 450.533 204.299C451.249 203.869 452.05 203.654 452.936 203.654ZM453.229 205.217C452.525 205.217 451.926 205.393 451.432 205.744C450.937 206.096 450.553 206.552 450.279 207.111C450.019 207.658 449.889 208.251 449.889 208.889C449.889 209.514 450.019 210.093 450.279 210.627C450.54 211.148 450.904 211.565 451.373 211.877C451.855 212.19 452.408 212.346 453.033 212.346C453.632 212.346 454.166 212.19 454.635 211.877C455.104 211.565 455.475 211.135 455.748 210.588C456.021 210.028 456.152 209.403 456.139 208.713L456.119 206.838C455.715 206.33 455.279 205.933 454.811 205.647C454.355 205.36 453.827 205.217 453.229 205.217ZM462.262 203.85V205.393C462.47 205.132 462.737 204.872 463.063 204.611C463.388 204.338 463.753 204.11 464.157 203.928C464.573 203.746 465.003 203.654 465.446 203.654C466.11 203.654 466.715 203.804 467.262 204.104C467.809 204.39 468.245 204.833 468.571 205.432C468.896 206.018 469.059 206.76 469.059 207.658V213.615H467.457L467.438 207.815C467.438 206.968 467.249 206.324 466.871 205.881C466.507 205.438 465.94 205.217 465.172 205.217C464.651 205.217 464.131 205.412 463.61 205.803C463.102 206.18 462.653 206.623 462.262 207.131V213.615H460.661V203.85H462.262ZM473.249 199.162C473.626 199.162 473.939 199.299 474.186 199.572C474.447 199.833 474.577 200.139 474.577 200.49C474.577 200.829 474.447 201.135 474.186 201.408C473.939 201.682 473.626 201.818 473.249 201.818C472.871 201.818 472.552 201.682 472.292 201.408C472.044 201.135 471.921 200.829 471.921 200.49C471.921 200.139 472.044 199.833 472.292 199.572C472.552 199.299 472.871 199.162 473.249 199.162ZM474.245 203.85V213.615H472.643V205.354H471.1V203.85H474.245ZM481.325 203.654C482.328 203.654 483.161 203.863 483.825 204.279C484.489 204.696 484.984 205.262 485.31 205.979C485.648 206.695 485.818 207.502 485.818 208.401V209.358H478.318C478.396 209.904 478.584 210.406 478.884 210.861C479.183 211.317 479.574 211.682 480.056 211.955C480.538 212.216 481.091 212.346 481.716 212.346C482.419 212.346 483.077 212.17 483.689 211.818C484.301 211.454 484.815 211.057 485.232 210.627L485.212 212.365C485.03 212.587 484.756 212.821 484.392 213.068C484.04 213.303 483.63 213.498 483.161 213.654C482.706 213.824 482.224 213.908 481.716 213.908C480.726 213.908 479.848 213.674 479.079 213.205C478.311 212.736 477.706 212.118 477.263 211.35C476.833 210.568 476.618 209.716 476.618 208.791C476.618 207.867 476.82 207.014 477.224 206.233C477.627 205.451 478.181 204.826 478.884 204.358C479.6 203.889 480.414 203.654 481.325 203.654ZM481.325 205.217C480.518 205.217 479.854 205.49 479.333 206.037C478.812 206.571 478.487 207.222 478.357 207.99H484.236C484.17 207.352 483.988 206.832 483.689 206.428C483.402 206.024 483.051 205.725 482.634 205.529C482.217 205.321 481.781 205.217 481.325 205.217ZM490.964 203.654C491.537 203.654 492.071 203.739 492.566 203.908C493.061 204.065 493.419 204.227 493.64 204.397V206.115C493.367 205.907 492.996 205.705 492.527 205.51C492.058 205.315 491.576 205.217 491.082 205.217C490.47 205.217 490.007 205.36 489.695 205.647C489.395 205.933 489.246 206.233 489.246 206.545C489.246 206.792 489.33 207.046 489.5 207.307C489.682 207.554 489.994 207.756 490.437 207.912L492.078 208.498C492.716 208.72 493.191 209.039 493.504 209.455C493.816 209.872 493.972 210.36 493.972 210.92C493.972 211.467 493.816 211.968 493.504 212.424C493.204 212.88 492.781 213.244 492.234 213.518C491.7 213.778 491.082 213.908 490.379 213.908C490.001 213.908 489.604 213.856 489.187 213.752C488.783 213.661 488.419 213.55 488.093 213.42C487.768 213.277 487.527 213.153 487.371 213.049V211.33C487.553 211.46 487.807 211.61 488.132 211.779C488.471 211.936 488.829 212.072 489.207 212.19C489.584 212.294 489.936 212.346 490.261 212.346C490.873 212.346 491.355 212.209 491.707 211.936C492.071 211.662 492.254 211.324 492.254 210.92C492.254 210.608 492.13 210.36 491.882 210.178C491.648 209.996 491.303 209.82 490.847 209.651L489.402 209.123C488.647 208.837 488.145 208.479 487.898 208.049C487.651 207.606 487.527 207.105 487.527 206.545C487.527 205.712 487.839 205.022 488.464 204.475C489.089 203.928 489.923 203.654 490.964 203.654ZM505.496 203.654C506.056 203.654 506.623 203.791 507.196 204.065C507.782 204.325 508.283 204.69 508.7 205.158V203.85H510.301V213.615H508.7V211.955C508.361 212.476 507.899 212.932 507.313 213.322C506.74 213.713 506.082 213.908 505.34 213.908C504.507 213.908 503.745 213.7 503.055 213.283C502.365 212.854 501.812 212.261 501.395 211.506C500.991 210.751 500.789 209.878 500.789 208.889C500.789 207.808 500.991 206.877 501.395 206.096C501.812 205.315 502.378 204.716 503.094 204.299C503.81 203.869 504.611 203.654 505.496 203.654ZM505.789 205.217C505.086 205.217 504.487 205.393 503.993 205.744C503.498 206.096 503.114 206.552 502.84 207.111C502.58 207.658 502.45 208.251 502.45 208.889C502.45 209.514 502.58 210.093 502.84 210.627C503.101 211.148 503.465 211.565 503.934 211.877C504.416 212.19 504.969 212.346 505.594 212.346C506.193 212.346 506.727 212.19 507.196 211.877C507.664 211.565 508.036 211.135 508.309 210.588C508.582 210.028 508.713 209.403 508.7 208.713L508.68 206.838C508.276 206.33 507.84 205.933 507.371 205.647C506.916 205.36 506.388 205.217 505.789 205.217ZM514.823 199.553V213.615H513.221V199.553H514.823ZM519.345 199.553V213.615H517.743V199.553H519.345ZM532.139 203.654C533.128 203.654 534.007 203.889 534.775 204.358C535.544 204.826 536.143 205.451 536.572 206.233C537.015 207.014 537.236 207.867 537.236 208.791C537.236 209.716 537.015 210.568 536.572 211.35C536.143 212.118 535.544 212.736 534.775 213.205C534.007 213.674 533.128 213.908 532.139 213.908C531.149 213.908 530.27 213.674 529.502 213.205C528.734 212.736 528.128 212.118 527.686 211.35C527.256 210.568 527.041 209.716 527.041 208.791C527.041 207.867 527.256 207.014 527.686 206.233C528.128 205.451 528.734 204.826 529.502 204.358C530.27 203.889 531.149 203.654 532.139 203.654ZM532.139 205.217C531.449 205.217 530.843 205.386 530.322 205.725C529.801 206.05 529.398 206.486 529.111 207.033C528.838 207.567 528.701 208.153 528.701 208.791C528.701 209.416 528.838 210.002 529.111 210.549C529.398 211.083 529.801 211.519 530.322 211.858C530.843 212.183 531.449 212.346 532.139 212.346C532.842 212.346 533.447 212.183 533.955 211.858C534.476 211.519 534.873 211.083 535.146 210.549C535.433 210.002 535.576 209.416 535.576 208.791C535.576 208.153 535.433 207.567 535.146 207.033C534.873 206.486 534.476 206.05 533.955 205.725C533.447 205.386 532.842 205.217 532.139 205.217ZM547.696 203.85L543.106 213.615H542.11L537.715 203.85H539.629L542.578 211.037L545.782 203.85H547.696ZM553.077 203.654C554.08 203.654 554.913 203.863 555.577 204.279C556.241 204.696 556.736 205.262 557.061 205.979C557.4 206.695 557.569 207.502 557.569 208.401V209.358H550.069C550.147 209.904 550.336 210.406 550.636 210.861C550.935 211.317 551.326 211.682 551.807 211.955C552.289 212.216 552.843 212.346 553.468 212.346C554.171 212.346 554.828 212.17 555.44 211.818C556.052 211.454 556.567 211.057 556.983 210.627L556.964 212.365C556.781 212.587 556.508 212.821 556.143 213.068C555.792 213.303 555.382 213.498 554.913 213.654C554.457 213.824 553.975 213.908 553.468 213.908C552.478 213.908 551.599 213.674 550.831 213.205C550.063 212.736 549.457 212.118 549.014 211.35C548.585 210.568 548.37 209.716 548.37 208.791C548.37 207.867 548.572 207.014 548.975 206.233C549.379 205.451 549.932 204.826 550.636 204.358C551.352 203.889 552.166 203.654 553.077 203.654ZM553.077 205.217C552.27 205.217 551.606 205.49 551.085 206.037C550.564 206.571 550.238 207.222 550.108 207.99H555.987C555.922 207.352 555.74 206.832 555.44 206.428C555.154 206.024 554.802 205.725 554.386 205.529C553.969 205.321 553.533 205.217 553.077 205.217ZM561.407 203.85V205.803C561.785 205.152 562.241 204.631 562.775 204.24C563.308 203.85 563.855 203.654 564.415 203.654C564.793 203.654 565.131 203.72 565.431 203.85V205.705C565.014 205.458 564.598 205.334 564.181 205.334C563.517 205.334 562.976 205.568 562.56 206.037C562.156 206.506 561.772 207.066 561.407 207.717V213.615H559.806V203.85H561.407ZM575.236 201.037V203.85H578.088V205.354H575.236V211.076C575.236 211.48 575.34 211.799 575.549 212.033C575.757 212.268 576.076 212.385 576.506 212.385C576.896 212.385 577.222 212.339 577.482 212.248C577.743 212.144 577.971 212.033 578.166 211.916V213.225C577.906 213.433 577.626 213.596 577.326 213.713C577.04 213.843 576.649 213.908 576.154 213.908C575.321 213.908 574.689 213.661 574.26 213.166C573.843 212.658 573.635 211.988 573.635 211.154V205.354H571.76V204.885C572.398 204.598 572.932 204.13 573.361 203.479C573.791 202.815 574.169 202.001 574.494 201.037H575.236ZM585.383 203.654C586.047 203.654 586.653 203.804 587.2 204.104C587.746 204.39 588.183 204.833 588.508 205.432C588.834 206.018 588.996 206.76 588.996 207.658V213.615H587.395L587.375 207.815C587.375 206.968 587.187 206.324 586.809 205.881C586.444 205.438 585.878 205.217 585.11 205.217C584.589 205.217 584.068 205.412 583.547 205.803C583.039 206.18 582.59 206.623 582.2 207.131V213.615H580.598V199.553H582.2V205.393C582.408 205.132 582.675 204.872 583 204.611C583.326 204.338 583.69 204.11 584.094 203.928C584.511 203.746 584.94 203.654 585.383 203.654ZM595.647 203.654C596.65 203.654 597.483 203.863 598.147 204.279C598.811 204.696 599.306 205.262 599.632 205.979C599.97 206.695 600.139 207.502 600.139 208.401V209.358H592.639C592.718 209.904 592.906 210.406 593.206 210.861C593.505 211.317 593.896 211.682 594.378 211.955C594.86 212.216 595.413 212.346 596.038 212.346C596.741 212.346 597.399 212.17 598.011 211.818C598.623 211.454 599.137 211.057 599.554 210.627L599.534 212.365C599.352 212.587 599.078 212.821 598.714 213.068C598.362 213.303 597.952 213.498 597.483 213.654C597.027 213.824 596.546 213.908 596.038 213.908C595.048 213.908 594.169 213.674 593.401 213.205C592.633 212.736 592.027 212.118 591.585 211.35C591.155 210.568 590.94 209.716 590.94 208.791C590.94 207.867 591.142 207.014 591.546 206.233C591.949 205.451 592.503 204.826 593.206 204.358C593.922 203.889 594.736 203.654 595.647 203.654ZM595.647 205.217C594.84 205.217 594.176 205.49 593.655 206.037C593.134 206.571 592.809 207.222 592.679 207.99H598.557C598.492 207.352 598.31 206.832 598.011 206.428C597.724 206.024 597.373 205.725 596.956 205.529C596.539 205.321 596.103 205.217 595.647 205.217ZM620.648 203.85L617.23 213.615H616.234L613.558 206.721L610.882 213.615H609.886L606.468 203.85H608.382L610.55 210.705L613.109 203.85H614.007L616.566 210.705L618.734 203.85H620.648ZM626.615 203.654C627.605 203.654 628.484 203.889 629.252 204.358C630.02 204.826 630.619 205.451 631.049 206.233C631.492 207.014 631.713 207.867 631.713 208.791C631.713 209.716 631.492 210.568 631.049 211.35C630.619 212.118 630.02 212.736 629.252 213.205C628.484 213.674 627.605 213.908 626.615 213.908C625.626 213.908 624.747 213.674 623.979 213.205C623.21 212.736 622.605 212.118 622.162 211.35C621.732 210.568 621.518 209.716 621.518 208.791C621.518 207.867 621.732 207.014 622.162 206.233C622.605 205.451 623.21 204.826 623.979 204.358C624.747 203.889 625.626 203.654 626.615 203.654ZM626.615 205.217C625.925 205.217 625.32 205.386 624.799 205.725C624.278 206.05 623.874 206.486 623.588 207.033C623.314 207.567 623.178 208.153 623.178 208.791C623.178 209.416 623.314 210.002 623.588 210.549C623.874 211.083 624.278 211.519 624.799 211.858C625.32 212.183 625.925 212.346 626.615 212.346C627.318 212.346 627.924 212.183 628.432 211.858C628.952 211.519 629.35 211.083 629.623 210.549C629.91 210.002 630.053 209.416 630.053 208.791C630.053 208.153 629.91 207.567 629.623 207.033C629.35 206.486 628.952 206.05 628.432 205.725C627.924 205.386 627.318 205.217 626.615 205.217ZM635.551 203.85V205.803C635.929 205.152 636.384 204.631 636.918 204.24C637.452 203.85 637.999 203.654 638.559 203.654C638.937 203.654 639.275 203.72 639.575 203.85V205.705C639.158 205.458 638.741 205.334 638.325 205.334C637.661 205.334 637.12 205.568 636.703 206.037C636.3 206.506 635.916 207.066 635.551 207.717V213.615H633.95V203.85H635.551ZM642.827 199.553V213.615H641.225V199.553H642.827ZM654.575 199.553V213.615H652.974V211.955C652.635 212.476 652.173 212.932 651.587 213.322C651.014 213.713 650.357 213.908 649.614 213.908C648.781 213.908 648.019 213.7 647.329 213.283C646.639 212.854 646.086 212.261 645.669 211.506C645.265 210.751 645.064 209.878 645.064 208.889C645.064 207.808 645.265 206.877 645.669 206.096C646.086 205.315 646.652 204.716 647.368 204.299C648.084 203.869 648.885 203.654 649.771 203.654C650.331 203.654 650.897 203.791 651.47 204.065C652.056 204.325 652.557 204.69 652.974 205.158V199.553H654.575ZM650.064 205.256C649.361 205.256 648.762 205.432 648.267 205.783C647.772 206.122 647.388 206.565 647.114 207.111C646.854 207.658 646.724 208.251 646.724 208.889C646.724 209.514 646.854 210.093 647.114 210.627C647.375 211.148 647.739 211.565 648.208 211.877C648.69 212.19 649.243 212.346 649.868 212.346C650.467 212.346 651.001 212.19 651.47 211.877C651.939 211.565 652.31 211.135 652.583 210.588C652.857 210.028 652.987 209.403 652.974 208.713L652.954 206.838C652.551 206.33 652.114 205.94 651.646 205.666C651.19 205.393 650.663 205.256 650.064 205.256Z" fill="#1A4049"/>
</svg>
