<svg xmlns="http://www.w3.org/2000/svg" fill="none" viewBox="0 0 250 89">
  <defs/>
  <rect width="250" height="88.1" fill="#fff" rx="12"/>
  <path fill="#1A4049" d="M94 49V39h4v10c0 3 2 4 5 4 2 0 4-1 4-4V39h5v10c0 5-4 9-9 9-6 0-9-4-9-9zM121 57h-5V39h5v3a7 7 0 016-3c4 0 7 3 7 8v10h-4v-9c0-3-2-5-5-5-2 0-4 2-4 5v9zM139 31h4v26h-4V31zM166 48v1h-14c0 3 2 5 5 5s4-2 5-2h4c0 2-3 6-9 6s-10-4-10-10c0-5 4-9 10-9 5 0 9 3 9 9zm-14-2h10c-1-3-3-4-5-4-3 0-4 1-5 4zM177 46h5c0-2-1-4-4-4l-4 2h-4c0-2 2-5 8-5s9 3 9 7v6l1 2v3h-1l-4-2c-1 1-3 3-6 3-4 0-8-3-8-7 0-3 3-5 8-5zm5 4v-1h-5c-2 0-3 1-3 2 0 2 1 3 4 3 2 0 4-1 4-4zM198 50c-4-1-7-2-7-6 0-3 3-5 8-5 7 0 8 3 9 5h-5c0-1-1-2-4-2-2 0-3 1-3 2s0 2 2 2h3c5 1 7 2 7 6 0 3-3 6-8 6-7 0-9-4-9-6h4c1 1 2 2 5 2l4-2c0-1-1-2-3-2h-3zM216 57h-4V31h4v11a7 7 0 016-3c5 0 8 3 8 8v10h-5v-9c0-3-2-5-4-5-3 0-5 2-5 5v9zM46 75a31 31 0 100-62 31 31 0 000 62z"/>
  <path fill="#fff" d="M50 31v17h9V31h-9zM41 40v-9h-9v26h18v-9h-9v-8z"/>
  <path fill="#817AFE" d="M59 48h-9v9h9v-9z"/>
</svg>
