<svg id="bg" xmlns="http://www.w3.org/2000/svg" viewBox="0 0 251.43 320.16"><defs><style>.cls-1{fill:#1a4049;}.cls-2{fill:#fff;}.cls-3{fill:#817afe;}</style></defs><circle class="cls-1" cx="125.71" cy="125.71" r="80"/><polygon class="cls-2" points="137.14 91.43 137.14 114.29 137.14 137.14 160 137.14 160 114.29 160 91.43 137.14 91.43"/><polygon class="cls-2" points="114.29 114.29 114.29 91.43 91.43 91.43 91.43 114.29 91.43 137.14 91.43 160 114.29 160 137.14 160 137.14 137.14 114.29 137.14 114.29 114.29"/><rect class="cls-3" x="137.14" y="137.14" width="22.86" height="22.86"/><path class="cls-1" d="M46.75,264.82V253h5.33v11.2c0,3.29,1.74,5.45,5,5.45s5-2.16,5-5.45V253h5.38v11.78c0,5.66-3.79,9.75-10.33,9.75S46.75,270.48,46.75,264.82Z"/><path class="cls-1" d="M78.18,274.11H72.9V253h5.28v3.54a8,8,0,0,1,7-4c5.29,0,8.79,3.87,8.79,9.24v12.29H88.59V262.86c0-3.33-2-5.53-5.12-5.53s-5.29,2.24-5.29,5.53Z"/><path class="cls-1" d="M99.42,243.46h5.33v30.65H99.42Z"/><path class="cls-1" d="M131.53,263.86v.59H114.79a5.94,5.94,0,0,0,6.12,5.78c3.37,0,4.74-1.7,5.12-2.29h5.25c-.34,2.17-3.21,6.71-10.37,6.71-6.83,0-11.45-4.75-11.45-11.08,0-6.54,4.58-11.07,11-11.07S131.53,257,131.53,263.86ZM115,260.78h11a5.41,5.41,0,0,0-5.46-4.16A5.32,5.32,0,0,0,115,260.78Z"/><path class="cls-1" d="M143.39,260.91h6.91c0-2.54-1.91-4.17-5-4.17-3,0-4,1.58-4.38,2.13h-5.37c.46-2.21,3.08-6.37,9.75-6.37s10.16,3.41,10.16,8.41V268c0,1.29.45,1.79,1.66,1.91v4.29h-1.66c-2.71,0-4.33-1-4.92-2.91a7.92,7.92,0,0,1-6.83,3.25c-5,0-8.7-2.79-8.7-7.13S138.19,260.91,143.39,260.91Zm6.91,5.41v-1.79h-6c-2.5,0-4,.87-4,2.83s1.91,3.25,4.58,3.25C147.81,270.61,150.3,269.15,150.3,266.32Z"/><path class="cls-1" d="M168.13,265.49c-4.63-.34-7.75-2.5-7.75-6.58s3.62-6.46,9.29-6.46c7.58,0,9.74,3.92,10.32,6h-5.62c-.37-.46-1.58-1.92-4.74-1.92-2.55,0-3.88.84-3.88,2.13s.88,1.91,3,2.2l3.58.38c5.71.5,8,2.66,8,6.83,0,4-3.29,6.66-9.75,6.66-7.82,0-10.36-4.54-10.78-6.5h5.7c.21.5,1.5,2.38,5.08,2.38,3,0,4.34-1,4.34-2.33s-.75-2.09-3.13-2.38C170.33,265.74,169.58,265.65,168.13,265.49Z"/><path class="cls-1" d="M189.78,274.11h-5.29V243.46h5.29v13.12a8,8,0,0,1,7-4c5.29,0,8.79,3.87,8.79,9.24v12.29h-5.37V262.86c0-3.33-2-5.53-5.12-5.53s-5.29,2.24-5.29,5.53Z"/></svg>