<svg xmlns="http://www.w3.org/2000/svg" fill="none" viewBox="0 0 250 89">
    <defs />
    <rect width="250" height="88.14" fill="#fff" rx="12" />
    <path fill="#1A4049"
        d="M93.77 49.19V39.1h4.56v9.6c0 2.8 1.5 4.66 4.32 4.66 2.81 0 4.31-1.85 4.31-4.67V39.1h4.6V49.2c0 4.85-3.25 8.34-8.85 8.34-5.7 0-8.94-3.5-8.94-8.34zM120.68 57.14h-4.52V39.1h4.52v3.03a6.87 6.87 0 016-3.44c4.52 0 7.52 3.32 7.52 7.91v10.54h-4.6V47.5c0-2.85-1.67-4.74-4.38-4.74s-4.53 1.91-4.53 4.74v9.63zM138.87 30.9h4.56v26.24h-4.56V30.9zM166.35 48.37v.5h-14.33a5.12 5.12 0 005.24 4.98c2.89 0 4.06-1.47 4.38-1.96h4.5c-.29 1.85-2.75 5.74-8.88 5.74-5.84 0-9.8-4.06-9.8-9.48 0-5.6 3.92-9.49 9.44-9.49 5.53 0 9.45 3.83 9.45 9.71zm-14.19-2.64h9.41a4.6 4.6 0 00-4.67-3.56c-2.46 0-4.17 1.32-4.74 3.56zM176.5 45.84h5.93c0-2.18-1.64-3.57-4.31-3.57-2.54 0-3.45 1.36-3.75 1.82h-4.59c.38-1.89 2.64-5.45 8.34-5.45 5.6 0 8.7 2.92 8.7 7.2v6.1c0 1.1.39 1.52 1.43 1.63v3.67h-1.43c-2.32-.03-3.7-.89-4.2-2.5-.86 1.33-2.79 2.8-5.85 2.8-4.25 0-7.45-2.4-7.45-6.1 0-3.71 2.73-5.6 7.19-5.6zm5.93 4.63v-1.53h-5.17c-2.14 0-3.45.77-3.45 2.42 0 1.75 1.65 2.78 3.93 2.78 2.55 0 4.69-1.24 4.69-3.67zM197.69 49.76c-3.96-.28-6.63-2.14-6.63-5.63 0-3.4 3.1-5.53 7.94-5.53 6.51 0 8.35 3.35 8.84 5.1h-4.8c-.33-.39-1.36-1.64-4.07-1.64-2.18 0-3.31.71-3.31 1.82 0 1 .76 1.64 2.56 1.89l3.06.32c4.89.42 6.89 2.3 6.89 5.84 0 3.39-2.82 5.7-8.34 5.7-6.7 0-8.88-3.88-9.23-5.55h4.88c.18.42 1.28 2.03 4.35 2.03 2.53 0 3.7-.86 3.7-2 0-1.14-.63-1.78-2.67-2.03-1.29-.1-1.93-.18-3.17-.32zM216.22 57.14h-4.53V30.9h4.53v11.23a6.85 6.85 0 015.99-3.44c4.53 0 7.52 3.32 7.52 7.91v10.54h-4.59V47.5c0-2.85-1.67-4.74-4.38-4.74s-4.53 1.91-4.53 4.74v9.63zM45.56 74.63a30.62 30.62 0 100-61.23 30.62 30.62 0 000 61.23z" />
    <path fill="#fff" d="M49.94 30.9V48.39h8.74V30.9h-8.74zM41.19 39.64V30.9h-8.75V57.14h17.5v-8.75h-8.75v-8.75z" />
    <path fill="#817AFE" d="M58.69 48.4h-8.75v8.74h8.75V48.4z" />
</svg>
