<svg width="77" height="23" viewBox="0 0 77 23" fill="none" xmlns="http://www.w3.org/2000/svg">
<path d="M36.0493 7.37928C35.6781 7.36707 35.3673 7.65805 35.3551 8.02925C35.3546 8.04402 35.3546 8.05879 35.3551 8.07356V11.412C33.7442 10.1184 31.3898 10.3756 30.0962 11.9863C29.5626 12.6508 29.2718 13.4776 29.272 14.3298C29.2368 16.3949 30.8821 18.0975 32.9472 18.1328C35.0122 18.168 36.7148 16.5227 36.7502 14.4576C36.7509 14.415 36.7509 14.3725 36.7502 14.3299V8.07688C36.7529 7.98423 36.7362 7.89202 36.7011 7.80618C36.666 7.7204 36.6133 7.6429 36.5464 7.57875C36.4808 7.5146 36.403 7.46419 36.3176 7.43051C36.2323 7.39683 36.1411 7.38053 36.0493 7.38255M35.1708 15.2302C34.932 15.7919 34.4864 16.2402 33.9261 16.4825C33.6356 16.6055 33.3233 16.6689 33.0078 16.6689C32.6923 16.6689 32.38 16.6055 32.0896 16.4825C31.5304 16.2425 31.0865 15.7946 30.8514 15.2334C30.7298 14.9462 30.6671 14.6374 30.6671 14.3255C30.6671 14.0136 30.7298 13.7048 30.8514 13.4176C31.087 12.8583 31.5311 12.4127 32.0896 12.175C32.38 12.052 32.6923 11.9887 33.0078 11.9887C33.3233 11.9887 33.6356 12.052 33.9261 12.175C34.4864 12.4173 34.932 12.8657 35.1708 13.4274C35.2924 13.7135 35.3551 14.0212 35.3551 14.3321C35.3551 14.6429 35.2924 14.9506 35.1708 15.2367M43.8566 11.6824C42.3956 10.2226 40.0278 10.2237 38.568 11.6847C37.8677 12.3856 37.4743 13.3357 37.4739 14.3265C37.4386 16.3916 39.084 18.0942 41.1491 18.1295C43.2141 18.1648 44.9167 16.5193 44.952 14.4544C44.9528 14.4117 44.9528 14.3692 44.952 14.3266C44.9523 13.8348 44.8583 13.3475 44.6752 12.8911C44.4864 12.4372 44.2081 12.026 43.8566 11.6824ZM43.3738 15.2269C43.2544 15.504 43.0843 15.7565 42.8724 15.9713C42.6586 16.1862 42.4059 16.3585 42.1279 16.4792C41.8376 16.6022 41.5255 16.6657 41.2102 16.6657C40.8949 16.6657 40.5828 16.6022 40.2925 16.4792C39.7328 16.2397 39.2883 15.7918 39.0532 15.2302C38.9317 14.9429 38.869 14.6342 38.869 14.3223C38.869 14.0103 38.9317 13.7016 39.0532 13.4143C39.2895 12.8558 39.734 12.4114 40.2925 12.175C40.5828 12.052 40.8949 11.9886 41.2102 11.9886C41.5255 11.9886 41.8376 12.052 42.1279 12.175C42.4059 12.2958 42.6586 12.4682 42.8724 12.683C43.0844 12.8978 43.2544 13.1502 43.3738 13.4274C43.4947 13.7137 43.5569 14.0213 43.5569 14.3321C43.5569 14.6428 43.4947 14.9504 43.3738 15.2367M59.3165 11.2813C59.3171 11.1894 59.298 11.0983 59.2609 11.0142C59.2228 10.9335 59.1716 10.8598 59.1094 10.7962C59.0473 10.7319 58.9732 10.6807 58.8914 10.6458C58.8048 10.61 58.7116 10.5919 58.6178 10.5924C58.4854 10.5915 58.3551 10.6294 58.2439 10.7014L54.2514 13.2987V8.08337C54.2532 7.99104 54.236 7.89927 54.2009 7.81381C54.1659 7.7283 54.1137 7.65091 54.0476 7.58638C53.9841 7.51962 53.9074 7.46675 53.8224 7.43111C53.7374 7.39546 53.646 7.37781 53.5539 7.37928C53.1692 7.37688 52.8554 7.68671 52.853 8.07138V17.361C52.8519 17.4528 52.8694 17.5438 52.9044 17.6287C52.9395 17.7135 52.9913 17.7904 53.0569 17.8547C53.1209 17.9217 53.1981 17.9747 53.2836 18.0104C53.3692 18.046 53.4612 18.0635 53.5539 18.0618C53.6457 18.0633 53.7368 18.0457 53.8214 18.01C53.906 17.9743 53.9823 17.9215 54.0454 17.8547C54.111 17.7904 54.1628 17.7135 54.1978 17.6287C54.2328 17.5438 54.2503 17.4528 54.2492 17.361V14.9544L55.0633 14.4203L58.1491 17.8853C58.2107 17.9447 58.2843 17.9913 58.3644 18.0222C58.4445 18.0531 58.5295 18.0676 58.6156 18.0651C58.7094 18.0661 58.8026 18.048 58.8892 18.0117C58.9715 17.9776 59.0457 17.9268 59.1072 17.8623C59.1705 17.7972 59.2217 17.7211 59.2588 17.6378C59.2958 17.5537 59.3149 17.4627 59.3143 17.3708C59.3149 17.1897 59.2457 17.0153 59.1214 16.8836L56.2525 13.6518L59.0495 11.8361C59.1383 11.7747 59.2097 11.6912 59.256 11.594C59.3029 11.4967 59.3236 11.3889 59.3165 11.2813ZM47.7324 12.6677C47.948 12.4546 48.2021 12.2845 48.4813 12.1663C48.7704 12.0434 49.0815 11.981 49.3957 11.9832C49.6738 11.9806 49.95 12.0302 50.2099 12.1293C50.4703 12.234 50.7116 12.3814 50.9238 12.5653C51.0527 12.668 51.2134 12.7227 51.3783 12.7201C51.4712 12.7239 51.5639 12.7085 51.6506 12.6748C51.7373 12.641 51.8161 12.5896 51.8818 12.5238C51.9466 12.4578 51.9975 12.3793 52.0314 12.2932C52.0653 12.2071 52.0815 12.115 52.0791 12.0224C52.0802 11.9222 52.0592 11.823 52.0176 11.7318C51.976 11.6406 51.9147 11.5597 51.8382 11.4949C51.1692 10.8961 50.2988 10.5719 49.4011 10.587C47.3357 10.587 45.6615 12.2613 45.6615 14.3266C45.6564 16.3889 47.324 18.0649 49.3863 18.0701C50.2866 18.0723 51.1573 17.7493 51.8382 17.1604C51.9077 17.0943 51.9629 17.0146 52.0004 16.9263C52.0379 16.8381 52.0569 16.743 52.0562 16.6471C52.0684 16.2758 51.7775 15.965 51.4063 15.9527C51.3915 15.9523 51.3767 15.9523 51.3619 15.9527C51.203 15.9535 51.0484 16.0046 50.9204 16.0988C50.7118 16.2827 50.4723 16.4284 50.2131 16.5293C49.9529 16.6271 49.6769 16.676 49.3989 16.6732C49.0848 16.6754 48.7736 16.6131 48.4845 16.4901C48.2056 16.3716 47.9515 16.2015 47.7357 15.9888C46.8195 15.0781 46.815 13.5971 47.7257 12.6809L47.7357 12.6709M73.1858 11.0546C73.0506 10.9279 72.8904 10.8312 72.7149 10.7712C72.5144 10.6992 72.3067 10.6509 72.0947 10.6273C71.8854 10.6016 71.6745 10.5885 71.4636 10.588C71.0358 10.5867 70.6107 10.6605 70.2084 10.806C69.8139 10.9499 69.4454 11.1576 69.1184 11.4208V11.2813C69.1032 10.8958 68.7778 10.5956 68.3925 10.6108C68.0284 10.6252 67.7363 10.9171 67.7221 11.2813V17.3708C67.7374 17.7564 68.0622 18.0565 68.4475 18.0413C68.8121 18.027 69.1037 17.735 69.1184 17.3708V14.3266C69.1163 14.0121 69.1784 13.7005 69.3016 13.4111C69.4187 13.1334 69.5888 12.8811 69.8019 12.6677C70.0161 12.455 70.2684 12.2849 70.5458 12.1663C70.8357 12.0434 71.1469 11.981 71.4614 11.9832C71.7742 11.9802 72.0849 12.0367 72.3759 12.15C72.468 12.1943 72.5683 12.2191 72.6702 12.223C72.764 12.2239 72.8572 12.2057 72.9438 12.1696C73.0261 12.1349 73.1002 12.0837 73.1618 12.0192C73.224 11.9557 73.2752 11.882 73.3122 11.8012C73.3504 11.715 73.3695 11.6218 73.3689 11.5276C73.3722 11.4409 73.3575 11.3544 73.3253 11.2739C73.2926 11.1933 73.2441 11.1205 73.1814 11.06M66.6975 12.8966C66.1035 11.5083 64.7426 10.6049 63.2324 10.5968C61.1679 10.5962 59.4936 12.2695 59.4931 14.3342V14.3353C59.4926 16.4012 61.1668 18.0764 63.2329 18.0767C64.13 18.0768 64.9971 17.7548 65.6762 17.1691C65.686 17.1593 65.7013 17.1463 65.7034 17.143C65.7645 17.0937 65.8173 17.0357 65.8615 16.9708C66.086 16.6475 66.0059 16.2036 65.6827 15.979C65.5514 15.8935 65.3944 15.8546 65.2385 15.8687C65.0821 15.8827 64.935 15.9488 64.8205 16.0564C64.7976 16.0771 64.7322 16.1381 64.7213 16.1468L64.7115 16.1555C64.5126 16.3248 64.2853 16.4576 64.0401 16.5479C63.7807 16.6393 63.5076 16.6843 63.2324 16.6809C62.979 16.6821 62.7272 16.6416 62.4868 16.561C62.253 16.4828 62.0323 16.3692 61.8328 16.2242C61.6344 16.0788 61.4595 15.9029 61.3156 15.7032C61.1679 15.4992 61.0551 15.2724 60.9821 15.0318H66.2691C66.3613 15.0339 66.4523 15.0175 66.5378 14.9836C66.6229 14.9497 66.7008 14.899 66.7662 14.8345C66.8332 14.7709 66.8861 14.6936 66.9215 14.6079C66.9564 14.5222 66.9733 14.4301 66.97 14.3375C66.9744 13.8446 66.8812 13.3557 66.6964 12.8988M60.9804 13.6432C61.0507 13.4023 61.1614 13.1753 61.3074 12.9718C61.4529 12.7717 61.6284 12.5958 61.8284 12.4508C62.0312 12.3059 62.2541 12.1924 62.4901 12.114C62.7293 12.0344 62.9795 11.9939 63.2313 11.9941C63.482 11.9938 63.7305 12.0343 63.9681 12.114C64.4396 12.2706 64.8505 12.5706 65.1432 12.9718C65.2925 13.175 65.407 13.402 65.4811 13.6432H60.9804ZM70.8009 17.0547C70.5338 17.0589 70.3207 17.279 70.3251 17.5462C70.3289 17.8135 70.5491 18.0267 70.8161 18.0225C71.0821 18.0183 71.2946 17.8009 71.2925 17.5353C71.2897 17.2669 71.0695 17.0517 70.8009 17.0547ZM70.8009 17.919C70.5894 17.9287 70.4101 17.7648 70.4003 17.5532C70.391 17.3415 70.5545 17.1621 70.766 17.1525C70.978 17.1429 71.1573 17.3066 71.1671 17.5183C71.1671 17.525 71.1671 17.5318 71.1671 17.5386C71.1747 17.7413 71.0161 17.9115 70.8134 17.9187C70.809 17.919 70.8052 17.919 70.8009 17.919Z" fill="currentColor"/>
<path d="M70.9126 17.5453V17.5387C70.9387 17.5337 70.9627 17.5204 70.9807 17.5007C70.9981 17.4811 71.0096 17.4562 71.0118 17.4297C71.0128 17.4092 71.009 17.3887 71.0009 17.3698C70.9932 17.3509 70.9807 17.3341 70.9649 17.3207C70.9137 17.2936 70.8559 17.2815 70.7981 17.2859C70.7365 17.285 70.6749 17.2902 70.6139 17.3012V17.7808H70.7229V17.5878H70.7752C70.8373 17.5878 70.8657 17.6107 70.8755 17.6641C70.882 17.7046 70.8946 17.7439 70.9126 17.7808H71.0336C71.015 17.7431 71.003 17.7026 70.9976 17.6608C70.9954 17.6352 70.9861 17.6108 70.9703 17.5902C70.9551 17.5696 70.9344 17.5537 70.9104 17.5442M70.7785 17.5093H70.7251V17.3709C70.7458 17.3684 70.7665 17.3684 70.7872 17.3709C70.857 17.3709 70.8897 17.4003 70.8897 17.4439C70.8897 17.4876 70.8395 17.5147 70.7807 17.5147M27.9919 8.94455C27.9232 8.88999 27.2824 8.40608 25.9308 8.40608C25.5739 8.40766 25.2178 8.43829 24.8659 8.49764C24.6043 6.70469 23.122 5.83055 23.0555 5.79131L22.6926 5.58203L22.4539 5.92647C22.155 6.38913 21.9368 6.8992 21.8087 7.43494C21.5667 8.4584 21.7138 9.41974 22.2337 10.2415C21.6059 10.5914 20.5988 10.6776 20.395 10.6852H3.72107C3.28555 10.6858 2.93215 11.0377 2.92977 11.4732C2.91033 12.9339 3.1578 14.3859 3.66003 15.7578C4.23442 17.264 5.08895 18.3736 6.20072 19.0526C7.44649 19.8156 9.47053 20.2516 11.7648 20.2516C12.8013 20.2548 13.8359 20.1611 14.8548 19.9715C16.2714 19.7114 17.6344 19.2163 18.8876 18.5065C19.9203 17.9086 20.8496 17.1479 21.6398 16.2537C22.9608 14.7583 23.7477 13.0928 24.333 11.6127H24.5662C26.0126 11.6127 26.902 11.0339 27.3925 10.5489C27.7184 10.2396 27.9729 9.86277 28.138 9.44481L28.2415 9.14184L27.9919 8.94455Z" fill="currentColor"/>
<path d="M5.26638 10.199H7.50075C7.55247 10.199 7.60212 10.1785 7.63869 10.1419C7.67532 10.1053 7.69586 10.0556 7.69586 10.0039V8.01368C7.69597 7.98806 7.69107 7.96266 7.68142 7.9389C7.67172 7.91519 7.65749 7.89361 7.63945 7.87541C7.62147 7.8572 7.60005 7.84271 7.57645 7.83273C7.5528 7.82281 7.52746 7.81764 7.50184 7.81747H5.26638C5.21464 7.81747 5.16501 7.83802 5.12843 7.87464C5.09184 7.91121 5.07129 7.96081 5.07129 8.01258V10.0039C5.07128 10.0295 5.07633 10.0549 5.08613 10.0786C5.09593 10.1022 5.1103 10.1238 5.12842 10.1419C5.14653 10.16 5.16804 10.1743 5.19171 10.1842C5.21538 10.194 5.24075 10.199 5.26638 10.199ZM8.34545 10.199H10.5799C10.6316 10.199 10.6812 10.1785 10.7178 10.1419C10.7544 10.1053 10.7749 10.0556 10.7749 10.0039V8.01368C10.7751 7.98806 10.7702 7.96266 10.7605 7.9389C10.7508 7.91519 10.7366 7.89361 10.7186 7.87541C10.7005 7.85715 10.6791 7.84265 10.6555 7.83273C10.6319 7.82281 10.6065 7.81764 10.5809 7.81747H8.34545C8.31968 7.81747 8.29417 7.82254 8.27035 7.83241C8.24654 7.84227 8.2249 7.85671 8.2067 7.87492C8.18849 7.89317 8.17405 7.91476 8.16419 7.93857C8.15432 7.96239 8.14925 7.9879 8.14925 8.01368V10.0039C8.14952 10.0558 8.17034 10.1053 8.20713 10.1419C8.24387 10.1785 8.29362 10.199 8.34545 10.199ZM11.4714 10.199H13.7058C13.7575 10.199 13.8072 10.1785 13.8437 10.1419C13.8803 10.1053 13.9009 10.0556 13.9009 10.0039V8.01368C13.901 7.98806 13.8961 7.96266 13.8865 7.9389C13.8768 7.91519 13.8625 7.89361 13.8445 7.87541C13.8265 7.85715 13.805 7.84265 13.7814 7.83273C13.7578 7.82281 13.7324 7.81764 13.7068 7.81747H11.4714C11.4196 7.81747 11.37 7.83802 11.3334 7.87464C11.2968 7.91121 11.2763 7.96081 11.2763 8.01258V10.0039C11.2763 10.0556 11.2969 10.1052 11.3334 10.1419C11.37 10.1784 11.4197 10.199 11.4714 10.199ZM14.5603 10.199H16.7947C16.8465 10.199 16.8963 10.1785 16.933 10.142C16.9698 10.1054 16.9906 10.0558 16.9909 10.0039V8.01368C16.9909 7.9879 16.9858 7.96239 16.9759 7.93857C16.9661 7.91476 16.9516 7.89317 16.9334 7.87492C16.9152 7.85671 16.8936 7.84227 16.8698 7.83241C16.8459 7.82254 16.8204 7.81747 16.7947 7.81747H14.5603C14.5086 7.81747 14.4589 7.83802 14.4224 7.87464C14.3858 7.91121 14.3653 7.96081 14.3653 8.01258V10.0039C14.3653 10.0556 14.3858 10.1052 14.4224 10.1419C14.4589 10.1784 14.5086 10.199 14.5603 10.199ZM8.34545 7.33574H10.5799C10.6317 7.33542 10.6813 7.31465 10.7179 7.27786C10.7544 7.24113 10.7749 7.19137 10.7749 7.13954V5.14932C10.7749 5.09758 10.7544 5.04795 10.7178 5.01137C10.6812 4.97478 10.6316 4.95423 10.5799 4.95423H8.34545C8.29362 4.95423 8.24392 4.97475 8.20713 5.0113C8.1704 5.04786 8.14958 5.09747 8.14931 5.14932V7.13954C8.14958 7.19148 8.17034 7.24124 8.20708 7.27797C8.24381 7.31471 8.29352 7.33547 8.34545 7.33574ZM11.4714 7.33574H13.7058C13.7576 7.33542 13.8072 7.31465 13.8438 7.27786C13.8804 7.24113 13.9009 7.19137 13.9009 7.13954V5.14932C13.9009 5.09758 13.8803 5.04795 13.8437 5.01137C13.8072 4.97478 13.7575 4.95423 13.7058 4.95423H11.4714C11.4197 4.95423 11.3701 4.97478 11.3334 5.01137C11.2969 5.04795 11.2763 5.09758 11.2763 5.14932V7.13954C11.2763 7.19137 11.2969 7.24113 11.3334 7.27786C11.37 7.31465 11.4196 7.33542 11.4714 7.33574ZM14.5603 7.33574H16.7947C16.8467 7.33547 16.8964 7.31471 16.9331 7.27797C16.9698 7.24124 16.9906 7.19148 16.9909 7.13954V5.14932C16.9906 5.09747 16.9698 5.04785 16.933 5.01129C16.8963 4.97473 16.8465 4.95422 16.7947 4.95423H14.5603C14.5086 4.95423 14.4589 4.97478 14.4224 5.01137C14.3858 5.04795 14.3653 5.09758 14.3653 5.14932V7.13954C14.3653 7.19137 14.3857 7.24113 14.4223 7.27786C14.4589 7.31465 14.5085 7.33542 14.5603 7.33574ZM14.5603 4.47138H16.7947C16.8465 4.47138 16.8963 4.45086 16.933 4.41431C16.9698 4.37776 16.9906 4.32813 16.9909 4.27629V2.28493C16.9906 2.23309 16.9698 2.18346 16.933 2.14691C16.8963 2.11035 16.8465 2.08984 16.7947 2.08984H14.5603C14.5347 2.08984 14.5093 2.09489 14.4856 2.10468C14.462 2.11449 14.4405 2.12886 14.4224 2.14698C14.4042 2.16509 14.3899 2.1866 14.3801 2.21027C14.3703 2.23394 14.3652 2.25931 14.3653 2.28493V4.27626C14.3653 4.328 14.3858 4.37763 14.4224 4.41422C14.4589 4.45081 14.5086 4.47137 14.5603 4.47138ZM17.6765 10.199H19.9108C19.9627 10.199 20.0124 10.1785 20.0492 10.142C20.0859 10.1054 20.1068 10.0558 20.107 10.0039V8.01368C20.107 7.9879 20.102 7.96239 20.0921 7.93857C20.0822 7.91476 20.0678 7.89317 20.0496 7.87492C20.0313 7.85671 20.0098 7.84227 19.9859 7.83241C19.9621 7.82254 19.9366 7.81747 19.9108 7.81747H17.6765C17.6247 7.81747 17.5751 7.83807 17.5385 7.87464C17.5019 7.91121 17.4814 7.96081 17.4814 8.01258V10.0039C17.4814 10.0556 17.5019 10.1052 17.5385 10.1419C17.5751 10.1784 17.6247 10.199 17.6765 10.199Z" fill="currentColor"/>
</svg>
