<svg width="63" height="13" viewBox="0 0 63 13" fill="none" xmlns="http://www.w3.org/2000/svg">
<path d="M8.88422 10.3058H2.74056V0H0V12.7835H8.88422V10.3058ZM18.2429 4.39293C17.7536 3.85358 17.151 3.42909 16.4784 3.14984C15.8058 2.8706 15.0798 2.74351 14.3523 2.77767C13.6722 2.75459 12.9944 2.86947 12.3599 3.11539C11.7253 3.36131 11.1471 3.73318 10.6602 4.20858C10.1732 4.68398 9.78754 5.25307 9.52644 5.88153C9.26535 6.51 9.13422 7.18482 9.14096 7.86533C9.14096 10.8348 11.3872 12.953 14.6518 12.953C16.3649 12.9555 18.0092 12.2795 19.2253 11.073L17.516 9.76021C16.7411 10.4512 15.7331 10.823 14.6951 10.8008C14.2969 10.8193 13.8989 10.7584 13.5244 10.6217C13.15 10.4851 12.8064 10.2753 12.5138 10.0046L19.4252 7.13843C19.3018 6.1294 18.8927 5.17662 18.246 4.39231L18.2429 4.39293ZM30.3032 6.68807C30.3204 6.16255 30.2279 5.63922 30.0318 5.15135C29.8358 4.66348 29.5403 4.22176 29.1642 3.85426C28.7882 3.48677 28.3398 3.20155 27.8475 3.01674C27.3553 2.83192 26.83 2.75156 26.305 2.78077C25.686 2.78361 25.0757 2.92689 24.52 3.19983C23.9644 3.47276 23.478 3.86823 23.0974 4.35643V2.93914H20.3933V12.7804H23.0974V7.17988C23.1009 6.89516 23.1621 6.6141 23.2772 6.35364C23.3922 6.09318 23.5588 5.8587 23.7669 5.66432C23.975 5.46994 24.2202 5.31968 24.4879 5.2226C24.7556 5.12552 25.0402 5.08361 25.3245 5.09941C25.6109 5.0847 25.8974 5.12704 26.1673 5.22397C26.4372 5.3209 26.6852 5.47048 26.8968 5.66404C27.1084 5.8576 27.2795 6.09127 27.4001 6.35149C27.5207 6.61171 27.5883 6.89329 27.5992 7.17988V12.7804H30.3032V6.68683V6.68807ZM36.6795 2.78077C35.6808 2.8161 34.7146 3.14456 33.9012 3.72522C33.0879 4.30587 32.4634 5.11304 32.1057 6.04613C31.7479 6.97922 31.6726 7.99697 31.8892 8.97255C32.1058 9.94812 32.6047 10.8384 33.3238 11.5324C34.0429 12.2264 34.9503 12.6934 35.9329 12.8753C36.9155 13.0572 37.93 12.9458 38.8498 12.5552C39.7696 12.1646 40.5541 11.5119 41.1056 10.6784C41.657 9.84503 41.951 8.86776 41.9509 7.86842C41.944 7.18657 41.8016 6.51289 41.532 5.88656C41.2623 5.26023 40.8709 4.69375 40.3804 4.22006C39.8899 3.74637 39.3101 3.37491 38.6748 3.12729C38.0394 2.87967 37.3612 2.76083 36.6795 2.77767V2.78077ZM49.5094 2.94409L47.0664 9.64638L44.6216 2.94409H41.5364L45.5854 12.7804H48.5462L52.5951 2.94409H49.5094ZM57.4848 2.77767C56.4861 2.81301 55.5199 3.14147 54.7066 3.72212C53.8932 4.30278 53.2688 5.10994 52.911 6.04304C52.5532 6.97613 52.4779 7.99388 52.6945 8.96945C52.9112 9.94503 53.4101 10.8353 54.1291 11.5293C54.8482 12.2233 55.7556 12.6903 56.7382 12.8722C57.7209 13.0541 58.7353 12.9428 59.6551 12.5521C60.5749 12.1615 61.3595 11.5088 61.9109 10.6753C62.4623 9.84193 62.7563 8.86467 62.7562 7.86533C62.7489 7.18373 62.6062 6.51039 62.3364 5.88442C62.0666 5.25845 61.6751 4.69234 61.1846 4.21897C60.6942 3.74561 60.1145 3.37443 59.4794 3.127C58.8442 2.87957 58.1663 2.76083 57.4848 2.77767ZM57.4848 10.6343C57.1284 10.6294 56.7766 10.5534 56.4499 10.4108C56.1233 10.2682 55.8283 10.0619 55.5824 9.8039C55.3364 9.54594 55.1443 9.24152 55.0174 8.90844C54.8905 8.57537 54.8313 8.22033 54.8433 7.86409C54.8183 7.50794 54.8672 7.15046 54.9869 6.81412C55.1067 6.47777 55.2947 6.16982 55.5392 5.90961C55.7836 5.64941 56.0793 5.44256 56.4075 5.30207C56.7357 5.16158 57.0895 5.09047 57.4465 5.09323C57.8029 5.0982 58.1548 5.17423 58.4815 5.31687C58.8082 5.4595 59.1032 5.66586 59.3492 5.92388C59.5952 6.18191 59.7872 6.4864 59.9141 6.81955C60.041 7.1527 60.1001 7.50781 60.0881 7.86409C60.1099 8.21951 60.0588 8.57563 59.9378 8.91054C59.8169 9.24545 59.6286 9.55205 59.3847 9.81146C59.1408 10.0709 58.8463 10.2776 58.5195 10.4189C58.1926 10.5602 57.8403 10.6331 57.4842 10.6331L57.4848 10.6343ZM36.6801 10.6343C36.3237 10.6294 35.9719 10.5534 35.6452 10.4108C35.3186 10.2682 35.0236 10.0619 34.7776 9.8039C34.5317 9.54594 34.3396 9.24152 34.2127 8.90844C34.0858 8.57537 34.0266 8.22033 34.0386 7.86409C34.0136 7.50775 34.0627 7.1501 34.1826 6.81363C34.3026 6.47715 34.4908 6.16912 34.7355 5.9089C34.9802 5.64867 35.2761 5.44188 35.6046 5.30151C35.9331 5.16113 36.287 5.09022 36.6443 5.09323C37.0004 5.09853 37.3519 5.17477 37.6782 5.31746C38.0046 5.46016 38.2992 5.66647 38.5449 5.92432C38.7906 6.18218 38.9825 6.48642 39.1092 6.81926C39.236 7.15211 39.2952 7.50688 39.2833 7.86286C39.3054 8.21837 39.2544 8.57463 39.1335 8.90968C39.0126 9.24474 38.8244 9.55149 38.5805 9.81103C38.3365 10.0706 38.042 10.2774 37.7151 10.4188C37.3881 10.5602 37.0357 10.6331 36.6795 10.6331L36.6801 10.6343ZM12.3269 5.90797C12.5706 5.59118 12.8862 5.33704 13.2477 5.16662C13.6092 4.99621 14.0061 4.91442 14.4055 4.92805C14.8515 4.9254 15.2883 5.05457 15.6611 5.29936C16.0339 5.54414 16.326 5.89362 16.5009 6.30389L11.7776 8.26435C11.6409 7.43775 11.8374 6.59069 12.3238 5.90859L12.3269 5.90797Z" fill="currentColor"/>
</svg>
