<svg width="54" height="30" viewBox="0 0 54 30" fill="none" xmlns="http://www.w3.org/2000/svg">
<g clip-path="url(#clip0_36191_6932)">
<path fill-rule="evenodd" clip-rule="evenodd" d="M28.6087 0.212427C28.6087 0.409867 28.5129 0.473407 28.3244 0.401251C28.0927 0.312582 28.0611 0.386533 28.1524 0.802237C28.2293 1.15135 28.1771 1.38433 27.9866 1.54192C27.8338 1.66846 27.7088 1.89282 27.7088 2.04074C27.7088 2.18845 27.4198 2.78382 27.0664 3.36394C26.6481 4.05051 26.4627 4.53979 26.5346 4.76595C26.6641 5.17251 27.7423 5.48679 27.8546 5.15078C27.9802 4.77492 28.6801 4.2282 28.9633 4.28474C29.6394 4.41936 28.6259 6.38586 27.3899 7.33843C26.4383 8.07182 25.5381 8.25832 24.0285 8.03503C22.7786 7.85015 21.8473 7.94368 21.1309 8.32598C20.6618 8.57638 20.2681 8.36853 19.3245 7.37235C18.221 6.20746 17.1577 6.09599 16.2691 7.05214C15.2761 8.12101 15.4693 9.60738 16.7705 10.9051L17.6944 11.8264L17.1208 12.2965C16.4642 12.8348 16.3737 13.4675 16.912 13.7549C17.2199 13.9193 17.2995 13.8802 17.4476 13.4919C17.5432 13.2412 17.7339 13.036 17.8715 13.036C18.0092 13.036 18.3351 12.8686 18.5959 12.664C19.331 12.0872 19.2449 11.3048 18.3502 10.4334C17.6515 9.75294 17.3628 8.99603 17.877 9.19293C18.0128 9.2448 18.1722 9.16152 18.2314 9.0077C18.2904 8.85405 18.4198 8.72824 18.5188 8.72824C18.6178 8.72824 18.6555 8.84113 18.6022 8.97934C18.4872 9.27838 18.8157 9.532 18.9783 9.26958C19.1134 9.05167 19.4341 9.03839 19.7491 9.23763C19.9317 9.3534 19.9212 9.51871 19.6966 10.0548C19.4908 10.5459 19.4469 11.009 19.5335 11.773C19.6519 12.8169 19.6508 12.8205 18.88 13.6542L18.108 14.4897L18.0691 16.719C18.039 18.4393 18.0872 18.9955 18.2802 19.1553C18.4176 19.2691 18.5301 19.5159 18.5301 19.7037C18.5301 20.099 19.3066 20.4585 19.8137 20.298C20.2899 20.1471 20.2367 19.9552 19.5201 19.2405C18.9335 18.6556 18.8901 18.5345 18.8912 17.4844C18.8924 15.9964 19.1507 15.1171 19.655 14.8835C21.0968 14.2162 21.5433 14.1878 20.9888 14.7992C20.5285 15.3062 20.6166 15.5918 21.6132 16.8274C22.1214 17.4569 22.6464 18.229 22.7804 18.5431C22.9144 18.8574 23.1112 19.1681 23.2179 19.2337C23.3245 19.2994 23.4864 19.5493 23.5779 19.7891C23.7767 20.3107 24.132 20.4734 24.7396 20.3215C25.3633 20.1652 25.3053 19.9342 24.4509 19.1706C23.5248 18.3428 21.9203 15.9332 21.9885 15.4728C22.0166 15.2827 22.2826 14.9954 22.5795 14.8342C23.0335 14.5879 24.1051 13.2719 24.3179 12.6998C24.3548 12.6006 25.0373 12.6108 26.0313 12.7257C27.4763 12.8928 27.837 12.8747 28.9108 12.5808C29.5861 12.3961 30.3908 12.2344 30.6992 12.2215C31.0075 12.2086 31.8 11.902 32.4601 11.5401C33.1202 11.1783 33.8137 10.8821 34.001 10.8821C34.4481 10.8821 35.0352 11.6439 35.2993 12.5667C35.4157 12.9729 35.5779 13.3947 35.6598 13.504C35.7418 13.6133 35.7596 13.9491 35.6991 14.2503C35.6118 14.6852 35.6649 14.8381 35.9567 14.9939C37.2459 15.6821 37.2041 14.54 35.8387 11.7796L34.8178 9.71543L33.8546 9.66051L32.8913 9.60558L33.5776 9.25666C34.5845 8.74474 35.1427 8.80739 35.8397 9.51082C36.893 10.5736 37.4274 11.2779 37.4274 11.6035C37.4274 11.9365 37.7688 12.1386 38.3313 12.1386C38.7469 12.1386 38.9331 11.8632 38.7419 11.5308C38.3747 10.8927 35.737 8.21201 35.5746 8.31217C35.4744 8.37409 35.4442 8.34053 35.5077 8.23786C35.7727 7.81031 35.1072 7.61287 33.832 7.74068C32.7661 7.84746 32.5681 7.8245 32.5681 7.59474C32.5681 7.44487 32.6556 7.2932 32.7625 7.25765C32.898 7.21261 32.8899 7.04622 32.736 6.7095C32.5399 6.2805 32.5604 6.18932 32.9157 5.90232L33.3165 5.57869L32.9491 5.24716L32.5817 4.91564L32.9799 4.59149L33.378 4.2675L32.8065 3.67087C32.3598 3.20419 32.2565 2.96673 32.3328 2.58064C32.4067 2.20587 32.3602 2.08703 32.1394 2.08703C31.9794 2.08703 31.511 1.76036 31.0988 1.36117C30.6498 0.926803 30.243 0.676054 30.0852 0.736363C29.9401 0.792005 29.5485 0.629745 29.215 0.376122C28.7163 -0.00314301 28.6087 -0.032221 28.6087 0.212427ZM28.6928 1.73739C28.6295 1.83951 28.6756 2.04091 28.7951 2.18468C28.9669 2.39109 28.9626 2.44602 28.7743 2.44602C28.643 2.44602 28.2618 2.70845 27.9269 3.02937L27.3181 3.61272L27.6254 2.89475C27.7943 2.49987 28.006 2.05562 28.0957 1.90755C28.1857 1.75947 28.3092 1.48772 28.3701 1.30374C28.4699 1.00399 28.4984 0.999497 28.6448 1.2603C28.7346 1.42041 28.7562 1.63508 28.6928 1.73739ZM31.4465 1.90755C31.57 2.10499 31.797 2.26653 31.9501 2.26653C32.1037 2.26653 32.1794 2.34731 32.1182 2.44602C31.9311 2.74775 31.7101 2.64974 31.3083 2.08703C31.0968 1.79088 30.9908 1.54856 31.0726 1.54856C31.1548 1.54856 31.3229 1.7101 31.4465 1.90755ZM30.9828 2.40116C31.2364 2.67271 31.5352 3.07118 31.6463 3.28676C32.0163 4.00509 31.8384 5.67688 31.3923 5.67688C31.2637 5.67688 31.1143 5.77792 31.0604 5.90124C31.0066 6.02472 31.0201 5.88329 31.0906 5.58714C31.1607 5.29097 31.2183 4.57748 31.2183 4.00168C31.2183 3.04607 31.167 2.90912 30.6305 2.43113C30.3072 2.14321 30.1503 1.90755 30.2819 1.90755C30.4134 1.90755 30.7288 2.12958 30.9828 2.40116ZM17.9595 7.13022C18.089 7.33735 18.1694 7.52169 18.1376 7.53999C18.1062 7.5583 17.9366 7.68306 17.7611 7.81713C17.4777 8.03378 17.4566 8.02319 17.5721 7.72147C17.8272 7.05644 16.8492 7.89055 16.438 8.68892C16.037 9.46719 15.8305 9.49789 15.8305 8.77921C15.8305 8.14273 16.3098 7.33663 16.8677 7.03472C17.5309 6.67574 17.6832 6.68921 17.9595 7.13022ZM24.9503 8.47318C25.5878 8.55431 25.854 8.66253 25.7948 8.81636C25.7473 8.93985 25.8338 9.166 25.9871 9.31894C26.1943 9.52553 26.2085 9.61618 26.0424 9.67183C25.9195 9.7131 25.7252 9.62013 25.6108 9.46486C25.4625 9.26383 25.0976 9.18288 24.3405 9.18288C22.9847 9.18288 21.7293 9.79818 20.9163 10.861L20.33 11.6279V11.065C20.33 10.7209 20.2571 10.5468 20.1427 10.6174C19.8614 10.7908 20.1407 9.80356 20.5303 9.24696C21.2523 8.21597 21.9598 8.09211 24.9503 8.47318ZM38.5073 11.7004C38.5073 11.8428 38.4262 11.9591 38.3272 11.9591C38.2283 11.9591 38.1472 11.7927 38.1472 11.5895C38.1472 11.3863 38.2283 11.2698 38.3272 11.3309C38.4262 11.3919 38.5073 11.5581 38.5073 11.7004ZM19.1601 14.113C18.8775 14.4072 18.606 14.6073 18.5565 14.5579C18.5069 14.5086 18.6974 14.2277 18.9801 13.9335C19.2627 13.6393 19.5342 13.4392 19.5837 13.4885C19.6333 13.5379 19.4426 13.8188 19.1601 14.113ZM36.5275 14.5976C36.5275 14.9309 36.4695 15.0244 36.3416 14.8968C36.2394 14.7949 36.2075 14.5768 36.2708 14.4122C36.4376 13.9789 36.5275 14.0439 36.5275 14.5976ZM19.6099 19.8673C19.6099 19.9602 19.529 20.0363 19.43 20.0363C19.331 20.0363 19.2501 19.9102 19.2501 19.7564C19.2501 19.6025 19.331 19.5265 19.43 19.5875C19.529 19.6484 19.6099 19.7744 19.6099 19.8673ZM24.6492 19.8779C24.6492 19.9767 24.5683 20.0076 24.4692 19.9464C24.3702 19.8854 24.2893 19.7548 24.2893 19.656C24.2893 19.5573 24.3702 19.5265 24.4692 19.5875C24.5683 19.6484 24.6492 19.7792 24.6492 19.8779ZM9.97241 23.3402C7.42164 24.448 7.91496 28.5138 10.65 28.9226C13.1428 29.2957 14.7917 26.9225 13.6601 24.591C13.0447 23.3232 11.3413 22.7454 9.97241 23.3402ZM0.172852 26.0491V28.8313H1.79261C2.68348 28.8313 3.41237 28.7572 3.41237 28.6666C3.41237 28.5758 3.4615 28.374 3.52161 28.2178C3.61449 27.9765 3.45214 27.9339 2.44178 27.9339H1.25269V25.6005V23.267H0.712773H0.172852V26.0491ZM4.67219 26.0491V28.8313H6.1827C7.3941 28.8313 7.71483 28.7751 7.80247 28.5473C8.01358 27.9986 7.90163 27.9339 6.74189 27.9339H5.57205V25.6005V23.267H5.12212H4.67219V26.0491ZM14.0308 23.3641C14.0308 23.5472 14.8041 24.974 15.4967 26.0685C16.0442 26.9338 16.1905 27.3407 16.1905 27.9981C16.1905 28.8042 16.2081 28.8313 16.7304 28.8313C17.2586 28.8313 17.2703 28.8119 17.2703 27.929C17.2703 27.1534 17.4094 26.7966 18.2601 25.3892C18.8045 24.4886 19.2501 23.6426 19.2501 23.5093C19.2501 23.3601 19.0436 23.267 18.712 23.267C18.2264 23.267 18.1238 23.3766 17.6625 24.3888C17.3812 25.0059 17.0209 25.6176 16.8618 25.748C16.6087 25.9555 16.5031 25.8655 16.019 25.0301C15.7145 24.5047 15.4173 23.8932 15.3585 23.671C15.2742 23.3526 15.1225 23.267 14.6413 23.267C14.3054 23.267 14.0308 23.3106 14.0308 23.3641ZM19.9699 26.0676V28.868L21.4866 28.8049C22.6705 28.7554 23.1124 28.6603 23.5003 28.3715C24.4041 27.6982 24.675 27.1733 24.675 26.0947C24.675 24.0986 23.6904 23.267 21.3269 23.267H19.9699V26.0676ZM26.1791 23.4839C25.329 23.97 25.1204 24.8952 25.6996 25.6088C25.8813 25.8325 26.508 26.1849 27.0921 26.3914C28.1904 26.7801 28.4828 27.1668 28.0616 27.6732C27.8012 27.9862 26.4128 28.0232 25.8664 27.7315C25.557 27.5665 25.4438 27.5893 25.2485 27.8558C25.1168 28.035 25.0092 28.2375 25.0092 28.3053C25.0092 28.5602 26.1922 28.9036 27.0998 28.9122C28.2211 28.9226 28.9711 28.4603 29.2164 27.6072C29.4518 26.7889 28.9926 26.2152 27.606 25.5948C26.7357 25.2052 26.449 24.9869 26.449 24.7139C26.449 24.2678 27.0856 24.0765 28.0564 24.2315C28.6641 24.3284 28.7598 24.2939 28.8511 23.9454C28.9095 23.7228 28.8593 23.4885 28.7368 23.4109C28.4035 23.1996 26.5853 23.2514 26.1791 23.4839ZM32.5681 26.0669V28.867L34.1737 28.8042C35.5771 28.7495 35.8374 28.6869 36.2433 28.3064C36.8211 27.7647 36.8695 26.8391 36.3476 26.3184C36.1495 26.1209 35.9102 25.9595 35.8157 25.9595C35.7212 25.9595 35.8426 25.7611 36.0857 25.5187C36.6487 24.9573 36.6487 24.2692 36.0857 23.7077C35.6857 23.3084 35.4989 23.267 34.1059 23.267H32.5681V26.0669ZM38.3385 25.8156C37.7182 27.2275 37.1698 28.4836 37.1198 28.6069C37.0588 28.7577 37.2122 28.8313 37.5876 28.8313C38.0463 28.8313 38.188 28.7294 38.3797 28.2605C38.6095 27.6992 38.6339 27.6895 39.8854 27.6642L41.1577 27.6386L41.3739 28.2348C41.5518 28.726 41.6833 28.8313 42.1183 28.8313C42.4089 28.8313 42.644 28.7706 42.641 28.6967C42.6379 28.6227 42.1285 27.3909 41.5089 25.9595C40.513 23.6582 40.3294 23.3506 39.9243 23.3027C39.4954 23.2523 39.3941 23.4127 38.3385 25.8156ZM43.3666 26.0491V28.8313H43.8105C44.2532 28.8313 44.2547 28.825 44.3054 26.8192L44.3564 24.807L45.5336 26.7744C46.6658 28.6666 46.7362 28.7437 47.3783 28.7972L48.0458 28.853V26.0599V23.267H47.5059H46.9659V25.2805V27.294L45.7794 25.2805C44.6366 23.3411 44.5705 23.267 43.9797 23.267H43.3666V26.0491ZM49.3055 26.0491V28.8313H49.7556C50.194 28.8313 50.2055 28.7981 50.2055 27.5346V26.2377L51.528 27.548C52.685 28.694 52.9216 28.8508 53.4181 28.7999L53.9858 28.7416L52.7042 27.3432C51.2399 25.7453 51.212 26.0624 52.9822 24.2095L53.8827 23.267H53.2423C52.6897 23.267 52.4488 23.4265 51.4789 24.4337C50.8611 25.0755 50.3217 25.6005 50.2805 25.6005C50.2394 25.6005 50.2055 25.0755 50.2055 24.4337C50.2055 23.3088 50.1893 23.267 49.7556 23.267H49.3055V26.0491ZM12.061 24.1698C12.8428 24.587 13.1941 26.1284 12.7359 27.1311C12.5036 27.6397 11.7478 28.1134 11.1687 28.1134C9.36319 28.1134 8.65591 25.4999 10.1375 24.3031C10.5672 23.956 11.5348 23.8889 12.061 24.1698ZM34.9615 24.1506C35.9484 24.525 35.6062 25.3858 34.4065 25.5462L33.6479 25.6477V24.8165C33.6479 24.0552 33.6851 23.9851 34.0862 23.9851C34.3271 23.9851 34.7212 24.0597 34.9615 24.1506ZM23.2455 24.7112C23.7478 25.2122 23.7862 25.3352 23.7046 26.1815C23.5851 27.4224 23.0175 27.9339 21.7596 27.9339H20.8699V26.0491V24.1644H21.7834C22.5619 24.1644 22.7784 24.2455 23.2455 24.7112ZM40.5308 26.3451C40.5701 26.7046 40.4867 26.7758 39.9692 26.8251C39.0723 26.9105 38.9848 26.6927 39.4395 25.5071L39.8429 24.4557L40.1638 25.1894C40.3405 25.5932 40.5055 26.1132 40.5308 26.3451ZM35.4074 26.5979C35.8577 26.9121 35.9293 27.4302 35.5644 27.7321C35.4308 27.8429 34.9448 27.9848 34.4846 28.0478L33.6479 28.1622V27.2402V26.3184H34.3276C34.7016 26.3184 35.1875 26.4443 35.4074 26.5979Z" fill="currentColor"/>
</g>
<defs>
<clipPath id="clip0_36191_6932">
<rect width="53.9924" height="29.059" fill="currentColor"/>
</clipPath>
</defs>
</svg>
