<svg width="68" height="23" viewBox="0 0 68 23" fill="none" xmlns="http://www.w3.org/2000/svg">
<g clip-path="url(#clip0_36191_6936)">
<path fill-rule="evenodd" clip-rule="evenodd" d="M43.1779 0.272929C40.7834 0.444637 35.2327 1.14611 32.2184 1.65781C25.7512 2.75559 18.4494 4.69938 13.1249 6.74082L11.5746 7.33519L12.4762 7.43235C13.958 7.59218 14.4304 7.99924 14.4304 9.11572V9.69613H13.6274C12.8731 9.69613 12.8181 9.66747 12.7198 9.22152C12.6624 8.9603 12.5045 8.70428 12.3687 8.65238C12.016 8.51746 11.493 8.84067 11.493 9.1937C11.493 9.55648 11.7153 9.74901 13.001 10.5001C14.1992 11.2 14.6294 11.7397 14.6511 12.5699C14.6904 14.0783 13.8733 14.8083 12.1458 14.8083C10.5277 14.8083 9.8118 14.2883 9.59849 12.9584L9.49292 12.3002H10.493H11.493V12.7919C11.493 13.1569 11.5969 13.3309 11.8961 13.4668C12.3953 13.6937 12.7985 13.4216 12.7985 12.8581C12.7985 12.4553 12.3049 12.0243 10.9858 11.2757C10.5721 11.0408 10.1132 10.6652 9.96583 10.4409C9.66459 9.98241 9.61058 8.86069 9.86679 8.38335C9.95981 8.21018 9.98509 8.06857 9.92325 8.06857C9.67928 8.06857 5.69723 10.2194 4.58997 10.949C3.08028 11.9443 1.04463 13.9616 0.588344 14.915C0.369504 15.3722 0.233734 15.9671 0.235366 16.4612C0.244342 19.1436 3.56529 20.8845 10.5139 21.8497C13.3783 22.2476 21.834 22.2453 25.8539 21.8456C36.3998 20.797 46.3811 18.5713 54.478 15.4627L56.0942 14.8423L55.143 14.6528C54.4186 14.5086 54.0823 14.341 53.7311 13.9489C53.2715 13.4361 53.27 13.4268 53.27 11.1503C53.27 8.42566 53.3936 8.07215 54.492 7.65388C55.3566 7.32445 56.7618 7.40176 57.3918 7.81354C57.8695 8.12552 58.1659 8.72479 58.1659 9.37825C58.1659 9.85236 58.1536 9.85887 57.2682 9.85887C56.4322 9.85887 56.3708 9.83251 56.3708 9.47183C56.3708 8.95266 55.9841 8.65854 55.4706 8.78713L55.0558 8.89096L55.1014 11.0257C55.1403 12.851 55.1882 13.1864 55.4325 13.3399C55.9183 13.6449 56.2822 13.2699 56.339 12.4057C56.383 11.7348 56.3507 11.6492 56.0534 11.6492C55.7895 11.6492 55.7181 11.545 55.7181 11.1609V10.6726H56.9535H58.1891L58.1309 12.0968C58.0991 12.8801 58.009 13.6581 57.9309 13.8257C57.824 14.0558 58.1854 13.9273 59.4054 13.3013C63.9802 10.9541 66.8273 8.39066 67.2226 6.26345C67.785 3.23768 63.3889 0.991495 55.4731 0.259748C53.4083 0.0688367 45.9093 0.0768099 43.1779 0.272929ZM36.0646 7.65581C36.6458 7.898 37.1142 8.66084 37.1142 9.3654C37.1142 9.6569 37.0099 9.69613 36.2368 9.69613C35.393 9.69613 35.3561 9.67772 35.2618 9.20784C35.1799 8.79917 35.0864 8.71958 34.6877 8.71958C34.1508 8.71958 33.9283 9.07065 34.1748 9.52978C34.2629 9.69385 34.7949 10.0849 35.3573 10.3989C36.8191 11.2151 37.1693 11.6373 37.1837 12.6011C37.2067 14.113 36.4593 14.742 34.6417 14.7409C33.0213 14.7399 32.2184 14.0894 32.2184 12.7779C32.2184 12.3025 32.2233 12.3002 33.1975 12.3002C34.173 12.3002 34.1767 12.302 34.1767 12.7803C34.1767 13.523 35.1378 13.82 35.393 13.1565C35.5812 12.6672 35.2846 12.2945 34.2068 11.6653C32.6481 10.7557 32.2999 10.3374 32.2999 9.37453C32.2999 8.49695 32.6244 8.0059 33.4423 7.6459C34.0972 7.35749 35.3602 7.36238 36.0646 7.65581ZM20.2042 7.86513C20.2503 8.02186 20.5173 9.43165 20.7974 10.9982C21.0774 12.5647 21.3462 14.0111 21.3948 14.2126C21.479 14.562 21.4374 14.5788 20.4862 14.5788C19.938 14.5788 19.4894 14.5124 19.4894 14.4312C19.4894 14.1478 18.6689 8.66085 18.6191 8.61119C18.5915 8.58368 18.4016 9.7137 18.1971 11.1223C17.6357 14.9881 17.814 14.5788 16.6916 14.5788C15.7786 14.5788 15.7339 14.5602 15.8122 14.2126C15.8576 14.0111 16.1201 12.6013 16.3959 11.0795C16.6717 9.55778 16.9377 8.14799 16.9872 7.9465C17.0722 7.59935 17.1559 7.58031 18.5985 7.58031C19.9068 7.58031 20.1319 7.62018 20.2042 7.86513ZM26.1914 9.94024C26.4002 11.2382 26.6155 12.3002 26.6699 12.3002C26.7242 12.3002 26.9393 11.2382 27.1483 9.94024L27.5279 7.58031H28.9755H30.4233L30.424 9.24854C30.4243 10.166 30.4725 11.7408 30.5305 12.7478L30.6364 14.5788H29.7138H28.7914L28.7772 11.6085C28.7696 9.97492 28.7077 8.82131 28.6397 9.0451C28.5717 9.26888 28.3066 10.6056 28.0506 12.0154L27.5854 14.5788H26.6696H25.7536L25.3026 12.0658C24.6288 8.3101 24.5779 8.27885 24.5623 11.6085L24.5483 14.5788H23.6258H22.7033L22.8092 12.7478C22.8673 11.7408 22.9153 10.166 22.9156 9.24854L22.9164 7.58031H24.3641H25.8118L26.1914 9.94024ZM40.5412 10.3273C40.5412 13.2826 40.607 13.5218 41.3889 13.4113C41.7636 13.3583 41.7653 13.3467 41.8096 10.4692L41.8541 7.58031H42.7479H43.6419V10.555C43.6419 13.8076 43.589 14.0195 42.6608 14.4984C42.0291 14.8242 40.4876 14.8088 39.7705 14.4694C38.8706 14.0435 38.7461 13.5425 38.7461 10.3523V7.58031H39.6435H40.5412V10.3273ZM48.5952 8.92303C48.8172 9.66145 49.1831 10.8517 49.408 11.5678L49.8169 12.8698L49.7234 10.2251L49.6297 7.58031H50.5557H51.4816L51.4375 11.0389L51.3935 14.4974H50.1784H48.963L48.2083 12.0561C47.7932 10.7133 47.4041 9.50489 47.3439 9.37061C47.2837 9.23633 47.2521 10.3349 47.2739 11.8119L47.3136 14.4974H46.4976H45.6817L45.6376 11.0389L45.5936 7.58031H46.8926H48.1914L48.5952 8.92303Z" fill="currentColor"/>
</g>
<defs>
<clipPath id="clip0_36191_6936">
<rect width="67.3007" height="22.2704" fill="currentColor"/>
</clipPath>
</defs>
</svg>
