<svg width="47" height="16" viewBox="0 0 47 16" fill="none" xmlns="http://www.w3.org/2000/svg">
<g clip-path="url(#clip0_36191_6930)">
<path fill-rule="evenodd" clip-rule="evenodd" d="M30.0493 0.1544C30.047 0.156427 29.9582 0.16193 29.8522 0.166664C29.649 0.175708 29.5263 0.184701 29.4729 0.194463C29.4553 0.197683 29.3973 0.203623 29.3445 0.207638C29.2913 0.211667 29.1988 0.222904 29.1387 0.232628C29.0787 0.242352 29.0005 0.253641 28.965 0.257708C28.9298 0.261788 28.8748 0.270307 28.843 0.276655C28.7908 0.287086 28.747 0.294757 28.65 0.310395C28.49 0.33627 28.0806 0.436898 27.8659 0.503196C27.0817 0.74527 26.4956 1.03278 25.9118 1.46203C25.7998 1.54437 25.7244 1.60527 25.5843 1.72655C25.3208 1.95484 25.04 2.27192 24.8419 2.56479C24.4003 3.21818 24.1616 3.9483 24.1264 4.7541C24.1043 5.25345 24.1498 5.6408 24.2725 6.00489C24.442 6.50744 24.7011 6.91504 25.1172 7.33322C25.6096 7.82838 26.1368 8.18278 27.3612 8.84166C27.5822 8.96049 27.6161 8.97911 27.6281 8.98751C27.6351 8.99252 27.6799 9.01767 27.7276 9.0434C27.9452 9.16063 27.9988 9.19065 28.1616 9.28699C28.5478 9.51549 28.7539 9.66695 28.9615 9.8743C29.2419 10.1543 29.36 10.4156 29.34 10.7125C29.3062 11.2198 28.9304 11.6369 28.2773 11.8928C28.0881 11.9669 27.7872 12.0437 27.6165 12.0613C27.5734 12.0658 27.5333 12.0722 27.5275 12.0756C27.473 12.1076 26.4949 12.1062 26.2525 12.0738C26.2312 12.0709 26.1704 12.0647 26.1175 12.06C26.0644 12.0552 26.0067 12.0491 25.9888 12.0464C25.9503 12.0405 25.878 12.0303 25.8121 12.0213C25.7017 12.0063 25.5275 11.9722 25.1919 11.8998C24.962 11.8502 24.3757 11.6667 24.1229 11.5651C24.0496 11.5358 23.9638 11.5015 23.932 11.4889C23.8488 11.4561 23.5343 11.3108 23.3953 11.2409C23.3301 11.2081 23.2691 11.1812 23.2599 11.1812C23.2487 11.1812 23.233 11.2269 23.2142 11.3127C23.1574 11.5725 23.1458 11.6254 23.122 11.7328C23.1087 11.7928 23.0888 11.8837 23.0777 11.9349C23.0667 11.986 23.0493 12.0668 23.039 12.1145C23.0288 12.1621 23.0026 12.2877 22.9808 12.3935C22.959 12.4993 22.9327 12.6249 22.9223 12.6725C22.9039 12.7567 22.8966 12.7909 22.8391 13.0606C22.8241 13.1311 22.8037 13.2235 22.7939 13.2658C22.7841 13.3082 22.7638 13.4005 22.7489 13.4711C22.734 13.5416 22.7138 13.634 22.704 13.6763C22.6943 13.7187 22.6652 13.8544 22.6394 13.9778C22.6136 14.1013 22.5874 14.2223 22.5811 14.2467C22.5651 14.3091 22.5886 14.3374 22.6868 14.3735C22.7317 14.39 22.8045 14.4176 22.8485 14.4347C22.962 14.4789 23.3814 14.613 23.5718 14.6658C23.8086 14.7315 24.0716 14.8 24.1375 14.813C24.1695 14.8193 24.2303 14.8329 24.2725 14.8432C24.3149 14.8535 24.3671 14.8654 24.3882 14.8696C24.529 14.8974 24.6436 14.9182 24.8124 14.9466C24.9187 14.9644 25.0372 14.9847 25.0762 14.9915C25.1149 14.9984 25.1715 15.007 25.2014 15.0105C25.2316 15.014 25.2807 15.0198 25.3106 15.0233C25.3408 15.0268 25.4087 15.0353 25.4619 15.0423C25.6442 15.0661 25.9313 15.0934 26.0918 15.1021C26.1802 15.1069 26.2669 15.1122 26.2845 15.1139C26.3022 15.1156 26.33 15.1176 26.3465 15.1183C26.3666 15.1192 26.3729 15.1247 26.3664 15.1356C26.3599 15.1465 26.3639 15.146 26.3785 15.134C26.3926 15.1226 26.4003 15.1215 26.4003 15.1308C26.4003 15.1387 26.4065 15.1452 26.414 15.1452C26.4214 15.1452 26.4235 15.138 26.4184 15.1292C26.4112 15.1164 26.4128 15.1164 26.4267 15.1292C26.4397 15.1413 26.5397 15.1452 26.8335 15.1452C27.1364 15.1452 27.2232 15.1417 27.2232 15.1292C27.2234 15.1175 27.2264 15.1178 27.2345 15.1306C27.241 15.1408 27.2478 15.1426 27.2505 15.135C27.2531 15.1277 27.3102 15.1181 27.3774 15.1136C27.7606 15.0879 28.0516 15.0595 28.2323 15.0302C28.2748 15.0233 28.3325 15.0149 28.3608 15.0115C28.4086 15.0057 28.4575 14.9972 28.7338 14.9469C28.7901 14.9366 28.8887 14.916 28.9523 14.9011C29.0158 14.8863 29.0923 14.8689 29.1223 14.8626C29.1842 14.8494 29.2978 14.8186 29.383 14.7917C29.4147 14.7817 29.4871 14.7593 29.5437 14.7421C30.0537 14.5865 30.6124 14.3389 31.035 14.081C32.0096 13.4862 32.7022 12.6422 33.0331 11.6462C33.1909 11.171 33.2658 10.6915 33.2653 10.1565C33.2649 9.66852 33.2008 9.30482 33.0396 8.87265C32.8209 8.28738 32.3533 7.68604 31.7496 7.21413C31.4567 6.9851 31.0346 6.70513 30.7006 6.51862C30.6018 6.46331 30.4932 6.40159 30.4594 6.38145C30.4257 6.36132 30.3958 6.34483 30.393 6.34483C30.39 6.34483 30.3376 6.31596 30.2764 6.2807C30.2151 6.24542 30.1632 6.21655 30.1611 6.21655C30.1451 6.21655 29.2229 5.71827 29.0937 5.63983C28.6162 5.34986 28.3629 5.14875 28.204 4.933C27.7863 4.36572 28.1073 3.69833 28.9587 3.3647C29.1833 3.27669 29.5203 3.2013 29.7749 3.18206C29.8315 3.17779 29.886 3.17165 29.896 3.16844C29.9208 3.16038 30.5315 3.1607 30.625 3.16881C30.6667 3.17241 30.7439 3.17851 30.7971 3.18236C30.8502 3.1862 30.9079 3.19169 30.9256 3.1946C30.9434 3.19751 30.9972 3.20358 31.0452 3.20816C31.0935 3.21268 31.1426 3.21822 31.1545 3.22044C31.1846 3.22601 31.269 3.23903 31.3305 3.24764C31.4298 3.2615 31.7816 3.33117 31.8834 3.3571C32.3742 3.48205 33.0102 3.69907 33.2159 3.81176C33.2347 3.82204 33.2621 3.83044 33.2767 3.83044C33.3075 3.83044 33.3105 3.82121 33.3681 3.54179C33.4103 3.3378 33.4478 3.1643 33.5044 2.9132C33.5235 2.82852 33.5464 2.72461 33.5555 2.68228C33.5643 2.63995 33.5833 2.55336 33.5977 2.48985C33.6118 2.42635 33.6531 2.23585 33.6891 2.06651C33.7252 1.89717 33.7635 1.71821 33.7744 1.66882C33.7853 1.61943 33.8055 1.52707 33.8194 1.46357C33.8333 1.40007 33.8528 1.31059 33.8628 1.26473C33.9078 1.05893 33.9361 0.934106 33.9474 0.891208C33.969 0.80954 33.9639 0.79221 33.9115 0.769723C33.7948 0.719666 33.2992 0.563976 33.0083 0.486031C32.8028 0.430945 32.4092 0.344634 32.2692 0.32389C32.2478 0.320747 32.1959 0.312037 32.1534 0.304532C32.111 0.297015 32.053 0.287638 32.0242 0.283686C31.9957 0.279722 31.9581 0.273655 31.9407 0.270203C31.9233 0.266739 31.8558 0.257888 31.7907 0.250512C31.7255 0.243148 31.6589 0.234565 31.6427 0.231448C31.6267 0.228318 31.5499 0.219838 31.472 0.212577C31.3943 0.205329 31.3094 0.196875 31.2837 0.193796C31.2577 0.19073 31.1853 0.184957 31.1229 0.180981C31.0603 0.177004 30.9687 0.17032 30.9193 0.166125C30.8263 0.158248 30.057 0.147883 30.0493 0.1544ZM0.185924 0.399644C0.176565 0.410908 0.165084 0.44707 0.160404 0.480013C0.155738 0.512959 0.1413 0.602706 0.128328 0.67946C0.101022 0.841112 0.102642 0.84473 0.209708 0.860227C0.266211 0.8684 0.322056 0.880214 0.514463 0.924703C1.2724 1.09994 1.42541 1.14291 2.25004 1.41197C2.32074 1.43505 2.46248 1.48653 2.56502 1.52638C2.66755 1.56622 2.78037 1.60974 2.81571 1.62309C2.85106 1.63643 2.92918 1.666 2.98927 1.6888C3.66235 1.94415 4.06443 2.18415 4.28725 2.46357C4.46915 2.6917 4.57513 2.95019 4.72602 3.53403C4.87124 4.09584 4.90072 4.20865 4.94933 4.38849C4.97971 4.50092 5.05948 4.80784 5.1477 5.15177C5.19024 5.3176 5.23445 5.48788 5.24593 5.53023C5.30581 5.75081 5.31973 5.80341 5.32903 5.84451C5.33462 5.86922 5.35083 5.93273 5.36507 5.98563C5.37929 6.03856 5.43229 6.2435 5.48285 6.44105C5.53339 6.63861 5.5894 6.85509 5.60731 6.92211C5.62521 6.98914 5.65059 7.0844 5.66371 7.13379C5.67684 7.18319 5.697 7.25824 5.70848 7.30056C5.71998 7.34289 5.75832 7.4901 5.79364 7.62769C5.90177 8.0488 5.96882 8.30803 6.00435 8.44231C6.02303 8.51285 6.04891 8.611 6.06185 8.66039C6.07479 8.70978 6.09994 8.80504 6.11772 8.87205C6.17979 9.10602 6.29687 9.55895 6.31336 9.62894C6.3225 9.66776 6.34159 9.74279 6.35578 9.79571C6.43561 10.0934 6.46783 10.2155 6.53846 10.4885C6.58134 10.6543 6.6399 10.8794 6.66855 10.9888C6.69719 11.0981 6.7256 11.2125 6.7317 11.243C6.7378 11.2734 6.74676 11.3048 6.75158 11.3126C6.75643 11.3204 6.76462 11.3474 6.76979 11.3726C6.77496 11.3979 6.79085 11.4618 6.80511 11.5147C6.8739 11.7701 6.9019 11.877 6.97303 12.1562C7.04797 12.4504 7.09208 12.6196 7.16865 12.9066C7.18933 12.9843 7.24711 13.2065 7.29702 13.4005C7.40267 13.8113 7.45344 14.0053 7.48333 14.1125C7.49512 14.1549 7.50924 14.2097 7.51474 14.2344C7.52019 14.2591 7.54032 14.337 7.55943 14.4076C7.57854 14.4781 7.61366 14.6108 7.63748 14.7024C7.66127 14.7941 7.68878 14.8749 7.69859 14.882C7.71051 14.8907 8.36047 14.8944 9.65645 14.8931C10.7235 14.8921 11.6058 14.8906 11.6173 14.8899C11.6395 14.8886 11.6685 14.8273 11.815 14.4717C11.8615 14.3588 11.9048 14.2549 11.9111 14.2408C11.9547 14.1437 12.0938 13.8142 12.1522 13.6699C12.1907 13.5747 12.23 13.4794 12.2395 13.4583C12.2716 13.3864 12.4359 12.9973 12.5156 12.804C12.5895 12.625 12.7981 12.1308 12.8243 12.0728C12.8307 12.0587 12.863 11.9807 12.896 11.8996C12.949 11.7696 13.1275 11.3468 13.1586 11.2774C13.165 11.2633 13.1972 11.1854 13.2303 11.1042C13.2865 10.9663 13.5054 10.4492 13.5317 10.3923C13.5382 10.3781 13.5776 10.2829 13.6192 10.1806C13.6609 10.0783 13.7656 9.82714 13.8519 9.62252C13.9383 9.4179 14.0527 9.1466 14.1063 9.01959C14.1598 8.89258 14.2374 8.70988 14.2788 8.61358C14.3202 8.51729 14.3541 8.43538 14.3541 8.43155C14.3541 8.42568 14.5241 8.02097 14.5597 7.94199C14.576 7.90581 14.6944 7.62295 14.804 7.35829C14.8551 7.23482 14.939 7.03565 14.9903 6.91571C15.0416 6.79575 15.1168 6.61681 15.1573 6.51802C15.1979 6.41923 15.2731 6.24029 15.3245 6.12033C15.3758 6.00039 15.4511 5.82142 15.4917 5.72266C15.5522 5.57549 15.7626 5.07804 15.8065 4.97858C15.8127 4.96447 15.8509 4.8721 15.8913 4.77334C15.9556 4.61601 16.108 4.25601 16.1411 4.18322C16.1475 4.16911 16.194 4.05665 16.2444 3.93332C16.2949 3.81001 16.3695 3.63104 16.4103 3.53563C16.4865 3.35733 16.5396 3.23081 16.6878 2.87471C16.7348 2.76181 16.781 2.65214 16.7905 2.63097C16.8193 2.56705 16.9043 2.36439 17.0273 2.06651C17.0914 1.91128 17.152 1.76696 17.1619 1.7458C17.1895 1.68711 17.3129 1.39478 17.3936 1.19718C17.4332 1.10006 17.5234 0.885499 17.594 0.720384C17.6672 0.5492 17.7191 0.411432 17.7146 0.399861C17.7075 0.381465 17.5241 0.379553 15.7627 0.379553H13.8186L13.7926 0.408419C13.7783 0.424299 13.7517 0.477693 13.7333 0.527082C13.6826 0.663757 13.5463 1.01214 13.4371 1.28397C13.3117 1.59632 12.9216 2.57957 12.8798 2.6887C12.8622 2.73456 12.8278 2.82116 12.8032 2.88113C12.7787 2.9411 12.7495 3.01326 12.7384 3.04148C12.7274 3.0697 12.7135 3.10433 12.7076 3.11844C12.69 3.16107 12.6527 3.25522 12.4966 3.65083C12.4144 3.85898 12.3303 4.0697 12.3097 4.11907C12.2891 4.16846 12.2397 4.29258 12.2 4.39488C12.1603 4.4972 12.0497 4.77717 11.9543 5.01708C11.8588 5.25698 11.763 5.49943 11.7412 5.55589C11.7195 5.61232 11.6802 5.71046 11.6539 5.77397C11.5942 5.9182 11.5159 6.11462 11.3932 6.42821C11.2922 6.68618 11.2102 6.89135 11.1572 7.01833C11.1395 7.06066 11.0941 7.17612 11.0564 7.27491C11.0187 7.37367 10.9548 7.53532 10.9145 7.63411C10.8742 7.7329 10.8312 7.83967 10.819 7.87143C10.7489 8.05332 10.5731 8.49637 10.2209 9.37879C10.0728 9.74992 10.017 9.89208 9.96158 10.0395C9.93637 10.1065 9.90856 10.169 9.89979 10.1783C9.87389 10.2058 9.84527 10.1654 9.83587 10.0879C9.83135 10.0507 9.81959 9.98269 9.8098 9.93683C9.79997 9.89097 9.7797 9.78706 9.76474 9.70591C9.74978 9.62479 9.72939 9.52087 9.71944 9.47501C9.69708 9.37202 9.63497 9.04587 9.53373 8.50004C9.49119 8.27071 9.44761 8.03981 9.43685 7.98689C9.42609 7.93398 9.40545 7.82718 9.39093 7.74957C9.37643 7.67196 9.35644 7.57093 9.34654 7.52507C9.32369 7.41942 9.25954 7.08225 9.16101 6.55009C9.11857 6.32079 9.0745 6.08698 9.06311 6.03054C9.01241 5.77914 8.96876 5.55713 8.95343 5.4725C8.94768 5.44075 8.92219 5.30797 8.89677 5.17743C8.87135 5.04691 8.83039 4.83042 8.80574 4.69637C8.75666 4.42957 8.72001 4.2355 8.69067 4.08702C8.68021 4.03409 8.65978 3.92729 8.64528 3.84968C8.63076 3.77207 8.61079 3.67104 8.60089 3.62518C8.58006 3.52891 8.5173 3.20056 8.42061 2.68228C8.40219 2.58349 8.3758 2.44207 8.362 2.36797C8.29671 2.0182 8.24833 1.78 8.22124 1.67524C8.05614 1.03682 7.59276 0.588814 6.93611 0.432792C6.87599 0.418501 6.795 0.402632 6.75613 0.397515C6.71723 0.392383 5.22686 0.38616 3.44419 0.383685C0.488815 0.379567 0.201454 0.380978 0.185924 0.399644ZM19.337 0.408419C19.3268 0.424299 19.3095 0.483466 19.2987 0.53991C19.278 0.647697 19.1819 1.10824 19.1367 1.31604C19.1221 1.38307 19.102 1.47543 19.092 1.52129C19.082 1.56716 19.0617 1.65952 19.0468 1.72655C19.0319 1.79358 19.0143 1.8744 19.0077 1.90615C19.0012 1.9379 18.9839 2.01872 18.9693 2.08575C18.9547 2.15278 18.9347 2.24803 18.9246 2.29742C18.8938 2.44951 18.7922 2.93211 18.7638 3.06071C18.7491 3.12775 18.728 3.22589 18.7169 3.27882C18.7059 3.33172 18.6892 3.40966 18.6798 3.45199C18.6308 3.67409 18.5367 4.11528 18.513 4.23453C18.4951 4.32494 18.3982 4.77694 18.3507 4.99142C18.3367 5.05493 18.3174 5.14441 18.3078 5.19027C18.2982 5.23613 18.278 5.3285 18.2629 5.39551C18.2479 5.46255 18.2301 5.54626 18.2235 5.58154C18.2168 5.6168 18.2056 5.66876 18.1986 5.697C18.1916 5.72522 18.1594 5.87821 18.1272 6.03694C18.0949 6.1957 18.0482 6.41796 18.0233 6.53086C17.9985 6.64373 17.9665 6.79094 17.9523 6.85798C17.938 6.92499 17.9185 7.01448 17.9089 7.05683C17.8884 7.14746 17.874 7.21475 17.8253 7.4481C17.7208 7.94784 17.6488 8.28748 17.6048 8.4872C17.5632 8.67625 17.5462 8.75509 17.5247 8.85924C17.5138 8.91214 17.4928 9.01028 17.4781 9.07732C17.4634 9.14435 17.4252 9.3233 17.3933 9.47501C17.2849 9.99059 17.2622 10.097 17.2284 10.2511C17.1704 10.5154 17.1312 10.697 17.085 10.915C17.075 10.9627 17.0584 11.0406 17.0481 11.0882C17.0378 11.1358 17.0116 11.2614 16.9898 11.3672C16.968 11.4731 16.9421 11.5972 16.9322 11.643C16.9222 11.6889 16.9019 11.7842 16.8869 11.8547C16.872 11.9252 16.8518 12.0176 16.842 12.06C16.8323 12.1023 16.812 12.1947 16.7971 12.2652C16.7822 12.3358 16.7618 12.431 16.7518 12.4769C16.7076 12.6793 16.6774 12.8224 16.6232 13.0862C16.5914 13.2415 16.5599 13.3916 16.5533 13.4198C16.5466 13.448 16.529 13.5288 16.514 13.5994C16.4991 13.6699 16.4754 13.7796 16.4613 13.8431C16.42 14.0296 16.3975 14.1324 16.3772 14.228C16.3667 14.2774 16.35 14.3553 16.3402 14.4012C16.2525 14.8104 16.2425 14.8667 16.2558 14.88C16.2721 14.8962 19.9393 14.9024 19.9741 14.8862C19.9967 14.8757 19.9991 14.867 20.0687 14.5423C20.1814 14.017 20.196 13.9504 20.2237 13.8303C20.2335 13.788 20.256 13.6812 20.2738 13.593C20.2916 13.5048 20.324 13.3489 20.3458 13.2466C20.3675 13.1443 20.3934 13.0202 20.4032 12.9708C20.4131 12.9214 20.4332 12.8261 20.4479 12.7591C20.4627 12.6921 20.4803 12.6089 20.4871 12.5743C20.4939 12.5396 20.5057 12.488 20.5134 12.4595C20.5211 12.431 20.5322 12.3814 20.538 12.3493C20.5438 12.3172 20.5605 12.236 20.5751 12.169C20.6173 11.9752 20.6516 11.8133 20.6799 11.6751C20.7477 11.3434 20.8294 10.9598 20.9299 10.5013C20.94 10.4554 20.9604 10.3602 20.9753 10.2896C20.9901 10.2191 21.0078 10.1382 21.0146 10.11C21.0214 10.0818 21.0323 10.0298 21.0388 9.99456C21.0552 9.90642 21.1602 9.40366 21.2005 9.22074C21.2475 9.00696 21.32 8.67468 21.3409 8.577C21.3507 8.53114 21.3675 8.45321 21.3782 8.40381C21.3889 8.35442 21.4242 8.18414 21.4568 8.02538C21.4893 7.86662 21.5276 7.68188 21.542 7.61487C21.5564 7.54783 21.5767 7.45258 21.5871 7.40319C21.5975 7.35379 21.6141 7.27874 21.6239 7.23641C21.6337 7.19409 21.654 7.10172 21.6689 7.03117C21.6976 6.89564 21.7153 6.81258 21.7583 6.61424C21.7728 6.54721 21.8082 6.3769 21.837 6.23579C21.8658 6.09467 21.9095 5.88687 21.9341 5.77397C21.9587 5.66107 21.9906 5.51386 22.0049 5.44684C22.0193 5.37981 22.0387 5.29033 22.0482 5.248C22.0718 5.14256 22.1225 4.90208 22.2092 4.48469C22.2638 4.22176 22.3009 4.04633 22.3314 3.90741C22.3415 3.86155 22.3701 3.72877 22.3951 3.61236C22.4201 3.49593 22.449 3.36315 22.4593 3.31729C22.4697 3.27143 22.4984 3.13576 22.5232 3.01582C22.6223 2.53599 22.7151 2.09644 22.7426 1.97671C22.7586 1.90714 22.781 1.80358 22.8327 1.55978C22.8425 1.51392 22.8593 1.43599 22.87 1.3866C22.9626 0.963087 23.0714 0.413203 23.0657 0.398129C23.0595 0.382029 22.8112 0.379553 21.2071 0.379553H19.3557L19.337 0.408419ZM40.1809 0.384583C40.1779 0.387188 40.138 0.393062 40.0921 0.39763C39.9812 0.408675 39.9325 0.417 39.8479 0.439374C39.413 0.554305 39.095 0.812928 38.8202 1.27521C38.7265 1.43241 38.6847 1.52083 38.5425 1.86125C38.4836 2.00237 38.4113 2.17267 38.3818 2.2397C38.3523 2.30673 38.315 2.39621 38.2985 2.43854C38.2686 2.51567 38.1935 2.69623 37.9975 3.16336C37.9397 3.30094 37.8599 3.49145 37.8205 3.5867C37.7811 3.68194 37.7069 3.85801 37.6556 3.97795C37.6044 4.09792 37.5294 4.27686 37.4888 4.37565C37.4123 4.56168 37.2873 4.86005 37.2578 4.92727C37.2486 4.94845 37.179 5.11587 37.1034 5.29931C37.0275 5.48275 36.9552 5.65594 36.9422 5.68416C36.915 5.74349 36.8478 5.90365 36.7432 6.15882C36.7026 6.25761 36.6216 6.45098 36.5632 6.58856C36.5047 6.72617 36.4238 6.91954 36.383 7.01833C36.3424 7.11712 36.2471 7.34513 36.1715 7.52507C36.0956 7.70498 36.0001 7.93301 35.959 8.0318C35.918 8.13056 35.8769 8.22871 35.8679 8.24988C35.8245 8.34939 35.6399 8.79093 35.5888 8.91697C35.5575 8.99458 35.5044 9.12159 35.471 9.1992C35.4376 9.27681 35.4017 9.3605 35.3912 9.38521C35.3808 9.40989 35.3669 9.44164 35.3606 9.45575C35.3541 9.46986 35.3087 9.57955 35.2597 9.69951C35.2106 9.81945 35.1375 9.99553 35.0974 10.0908C34.9397 10.4649 34.8562 10.6649 34.8276 10.7386C34.804 10.7999 34.6736 11.1066 34.6152 11.2389C34.6091 11.253 34.5836 11.3137 34.559 11.3736C34.4125 11.729 34.3429 11.8962 34.3327 11.9188C34.2953 12.0008 34.1838 12.2659 34.1167 12.432C34.0741 12.5378 34.0005 12.7139 33.9532 12.8233C33.9064 12.9326 33.8301 13.1145 33.7839 13.2274C33.6942 13.4478 33.5708 13.742 33.5418 13.8046C33.5235 13.8449 33.4042 14.1328 33.3242 14.3306C33.2985 14.3941 33.272 14.4576 33.2653 14.4717C33.2059 14.597 33.1023 14.8581 33.1069 14.8705C33.1104 14.8791 33.1227 14.8883 33.1345 14.8909C33.1526 14.8948 36.9283 14.8939 36.9967 14.8899C37.0257 14.8883 37.0459 14.8471 37.1078 14.6632C37.1363 14.579 37.1829 14.4438 37.2119 14.3627C37.3348 14.0171 37.3599 13.945 37.4497 13.6828C37.5016 13.5311 37.5737 13.3232 37.6101 13.2209C37.6463 13.1186 37.6927 12.9855 37.7131 12.9251C37.77 12.758 37.7911 12.7105 37.8119 12.7024C37.8486 12.6884 42.5886 12.6939 42.6056 12.708C42.6144 12.7152 42.6248 12.7369 42.629 12.7562C42.6417 12.8183 42.7663 13.4167 42.7869 13.516C42.8261 13.7055 42.8421 13.7808 42.8688 13.9008C42.8837 13.9679 42.9363 14.2132 42.9857 14.4459C43.0353 14.6787 43.0813 14.8747 43.088 14.8815C43.1065 14.9 46.5053 14.8994 46.5306 14.8809C46.5517 14.8654 46.5524 14.8695 46.4947 14.6064C46.48 14.5394 46.4452 14.372 46.4172 14.2344C46.3411 13.8583 46.2523 13.433 46.2057 13.2209C46.1941 13.168 46.1764 13.0843 46.1665 13.0349C46.1565 12.9855 46.1363 12.8903 46.1217 12.8233C46.1069 12.7562 46.0867 12.661 46.0767 12.6116C46.0405 12.4306 45.9415 11.9515 45.8967 11.7392C45.8712 11.6193 45.8452 11.4952 45.8385 11.4634C45.832 11.4317 45.8146 11.3509 45.8 11.2838C45.7854 11.2168 45.7652 11.1215 45.7552 11.0722C45.745 11.0228 45.7195 10.9015 45.6986 10.8028C45.6778 10.704 45.643 10.5366 45.6214 10.4307C45.5998 10.3249 45.562 10.143 45.5377 10.0266C45.5133 9.9102 45.4867 9.7832 45.4785 9.7444C45.4707 9.70559 45.456 9.6392 45.4465 9.59687C45.408 9.42645 45.3264 9.03656 45.2531 8.67321C45.2035 8.4276 45.174 8.28611 45.1318 8.08951C45.1172 8.02249 45.097 7.92724 45.0868 7.87784C45.0766 7.82845 45.0564 7.7332 45.0418 7.66618C45.0272 7.59915 45.01 7.51832 45.0033 7.48657C44.9968 7.45482 44.962 7.2874 44.9261 7.11456C44.8899 6.94169 44.8551 6.77139 44.8486 6.7361C44.8423 6.70082 44.8252 6.61713 44.8106 6.55009C44.7962 6.48306 44.7758 6.3878 44.7656 6.33841C44.7554 6.28904 44.735 6.19378 44.7201 6.12675C44.7055 6.05971 44.6881 5.97891 44.6816 5.94716C44.6749 5.91541 44.6547 5.82015 44.6366 5.73547C44.5946 5.5382 44.5109 5.13378 44.4629 4.8952C44.4423 4.7929 44.4135 4.65435 44.3987 4.58731C44.384 4.5203 44.3611 4.4135 44.3476 4.34999C44.3342 4.28649 44.3052 4.15082 44.2834 4.04852C44.2613 3.9462 44.2117 3.70665 44.173 3.51614C44.1342 3.32563 44.0941 3.12937 44.0835 3.07997C44.0273 2.81467 43.9728 2.55931 43.9605 2.50269C43.9526 2.46741 43.9385 2.40102 43.929 2.35516C43.9197 2.3093 43.8912 2.17363 43.8659 2.05368C43.8404 1.93373 43.797 1.72303 43.769 1.58544C43.7411 1.44785 43.7063 1.28044 43.6917 1.21341C43.6771 1.14638 43.6569 1.05113 43.647 1.00174C43.637 0.952349 43.6168 0.857096 43.6022 0.790067C43.5873 0.72304 43.5665 0.625644 43.5556 0.573638C43.5447 0.52163 43.5289 0.458129 43.5205 0.432522L43.5052 0.385968L41.8457 0.382902C40.9328 0.381221 40.1837 0.381967 40.1809 0.384583ZM40.8906 4.44636C40.9022 4.49215 40.9245 4.59022 40.9398 4.6643C40.9553 4.73838 40.9758 4.83363 40.9857 4.87596C41.0249 5.04654 41.1223 5.49695 41.1908 5.82528C41.2232 5.9805 41.2578 6.14503 41.268 6.1909C41.278 6.23676 41.2984 6.33201 41.3135 6.40256C41.3285 6.47313 41.3487 6.5655 41.3587 6.60782C41.3684 6.65015 41.3854 6.7252 41.396 6.7746C41.4067 6.82399 41.4355 6.95675 41.4598 7.06964C41.4844 7.18254 41.5224 7.3615 41.5442 7.46734C41.5663 7.57317 41.5922 7.69729 41.6022 7.74315C41.6122 7.78901 41.63 7.87272 41.6419 7.92916C41.6537 7.98562 41.6711 8.06642 41.6806 8.10877C41.6899 8.15109 41.704 8.21748 41.7122 8.25628C41.72 8.2951 41.7384 8.37881 41.7525 8.44231C41.7669 8.50581 41.7859 8.59241 41.795 8.63474C41.804 8.67706 41.8323 8.80696 41.8576 8.92336C41.9626 9.40386 42.0216 9.69836 42.0178 9.72381L42.0141 9.75082H40.4648H38.9157L38.9118 9.72288C38.9076 9.69305 38.9558 9.54902 39.1112 9.12863C39.1648 8.98398 39.2161 8.84256 39.2253 8.81432C39.2483 8.74433 39.471 8.12306 39.5081 8.02538C39.5373 7.94871 39.615 7.73317 39.6932 7.51223C39.7342 7.39582 39.8096 7.18799 39.8604 7.05041C39.9508 6.806 40.0909 6.41519 40.1248 6.31275C40.1341 6.28453 40.1542 6.22969 40.1693 6.1909C40.1844 6.15208 40.2018 6.10589 40.2076 6.08825C40.2136 6.07063 40.2396 5.99847 40.2656 5.9279C40.2915 5.85735 40.356 5.67839 40.4089 5.53023C40.5137 5.23629 40.6566 4.8437 40.703 4.72203C40.719 4.67968 40.754 4.57985 40.7805 4.50016C40.8382 4.32718 40.8582 4.31745 40.8906 4.44636Z" fill="currentColor"/>
</g>
<defs>
<clipPath id="clip0_36191_6930">
<rect width="46.517" height="15.2743" fill="currentColor"/>
</clipPath>
</defs>
</svg>
