<svg width="41" height="41" viewBox="0 0 41 41" fill="none" xmlns="http://www.w3.org/2000/svg">
<path fill-rule="evenodd" clip-rule="evenodd" d="M20.3516 0.707031C31.3976 0.707031 40.3516 9.88689 40.3516 21.2129C40.3516 30.2709 34.6276 37.9549 26.6856 40.6689C25.6716 40.8709 25.3116 40.2306 25.3116 39.6846C25.3116 39.0086 25.3356 36.8006 25.3356 34.0566C25.3356 32.1446 24.6956 30.8967 23.9776 30.2607C28.4316 29.7527 33.1116 28.0186 33.1116 20.1426C33.1116 17.9026 32.3356 16.0747 31.0516 14.6387C31.2596 14.1207 31.9456 12.0349 30.8556 9.21094C30.8556 9.21094 29.1796 8.66148 25.3616 11.3135C23.7636 10.8595 22.0516 10.631 20.3516 10.623C18.6516 10.631 16.9416 10.8595 15.3456 11.3135C11.5236 8.66148 9.84357 9.21094 9.84357 9.21094C8.75757 12.0349 9.44357 14.1207 9.64957 14.6387C8.37157 16.0747 7.58957 17.9026 7.58957 20.1426C7.58957 27.9986 12.2596 29.7593 16.7016 30.2773C16.1296 30.7893 15.6116 31.6926 15.4316 33.0186C14.2916 33.5426 11.3956 34.4494 9.61156 31.3154C9.61156 31.3154 8.55356 29.3452 6.54556 29.2012C6.54556 29.2012 4.59556 29.1753 6.40956 30.4473C6.40956 30.4473 7.71956 31.0773 8.62956 33.4473C8.62956 33.4473 9.80357 37.1072 15.3676 35.8672C15.3776 37.5812 15.3956 39.1966 15.3956 39.6846C15.3956 40.2266 15.0276 40.8609 14.0296 40.6709C6.08156 37.9609 0.351562 30.2729 0.351562 21.2129C0.351562 9.88689 9.30756 0.707031 20.3516 0.707031Z" />
</svg>
