<svg width="42" height="42" viewBox="0 0 42 42" fill="currentColor" xmlns="http://www.w3.org/2000/svg">
  <path d="M0 0V42H42V0H0ZM10.3 8.25696C11.9636 8.27568 13.6023 9.42333 13.6736 11.41C13.7092 13.1767 12.1696 14.5223 10.2565 14.5631H10.2103C8.56334 14.5441 6.95492 13.3677 6.88037 11.41C6.90385 9.66308 8.37231 8.2984 10.3 8.25696ZM28.147 16.6037C29.9759 16.615 31.702 17.1576 33.1201 18.6032C34.5938 20.2468 35.067 22.5131 35.1196 24.817V35.2965H29.0801V25.5297C29.0666 23.6991 28.4396 21.474 26.0167 21.3999C24.5967 21.415 23.5954 22.2402 22.9098 23.6199C22.7226 24.064 22.6956 24.5744 22.6868 25.0836V35.2965H16.6498C16.6729 30.1908 16.7046 25.0855 16.6934 19.9797C16.6934 18.5294 16.6794 17.5529 16.6498 17.0497H22.6868V19.6234C23.1992 18.8946 23.7675 18.2034 24.5299 17.647C25.5639 16.909 26.8061 16.6261 28.147 16.6037ZM7.2367 17.0497H13.2737V35.2965H7.2367V17.0497Z" fill="currentColor" />
</svg>