<svg width="41" height="41" viewBox="0 0 41 41" fill="none" xmlns="http://www.w3.org/2000/svg">
<g clip-path="url(#clip0_6397_1589)">
<path d="M20.3516 40.707C31.3973 40.707 40.3516 31.7527 40.3516 20.707C40.3516 9.66134 31.3973 0.707031 20.3516 0.707031C9.30587 0.707031 0.351562 9.66134 0.351562 20.707C0.351562 31.7527 9.30587 40.707 20.3516 40.707Z" />
<path fill-rule="evenodd" clip-rule="evenodd" d="M15.9965 12.6103C15.9965 13.6479 15.2065 14.4875 13.971 14.4875C12.7837 14.4875 11.9936 13.6479 12.0181 12.6103C11.9936 11.5223 12.7836 10.707 13.9947 10.707C15.2065 10.707 15.9728 11.5223 15.9965 12.6103ZM12.1175 28.0563V15.9705H15.8735V28.0554L12.1175 28.0563Z" fill="white"/>
<path fill-rule="evenodd" clip-rule="evenodd" d="M18.8845 19.8278C18.8845 18.3203 18.8348 17.0352 18.7852 15.9724H22.0477L22.2211 17.6281H22.2952C22.7896 16.8618 24.025 15.7012 26.0268 15.7012C28.4977 15.7012 30.3513 17.3324 30.3513 20.8898V28.0581H26.5952V21.3604C26.5952 19.8026 26.0521 18.7405 24.6928 18.7405C23.6545 18.7405 23.0371 19.4572 22.7903 20.1487C22.691 20.3963 22.6421 20.7416 22.6421 21.0884V28.0581H18.886V19.8278H18.8845Z" fill="white"/>
</g>
</svg>
