<svg width="40" height="40" viewBox="0 0 40 40" fill="none" xmlns="http://www.w3.org/2000/svg">
<g clip-path="url(#clip0_6411_787)">
<path fill-rule="evenodd" clip-rule="evenodd" d="M20 40C31.0457 40 40 31.0457 40 20C40 8.9543 31.0457 0 20 0C8.9543 0 0 8.9543 0 20C0 31.0457 8.9543 40 20 40ZM15.6449 11.9032C15.6449 12.9408 14.8549 13.7805 13.6195 13.7805C12.4322 13.7805 11.6421 12.9408 11.6666 11.9032C11.6421 10.8153 12.4321 10 13.6432 10C14.8549 10 15.6212 10.8153 15.6449 11.9032ZM11.7659 27.3492V15.2635H15.5219V27.3484L11.7659 27.3492ZM18.4336 15.2654C18.4833 16.3281 18.5329 17.6133 18.5329 19.1207H18.5344V27.3511H22.2905V20.3814C22.2905 20.0346 22.3394 19.6892 22.4388 19.4416C22.6855 18.7501 23.3029 18.0335 24.3413 18.0335C25.7005 18.0335 26.2437 19.0956 26.2437 20.6534V27.3511H29.9998V20.1827C29.9998 16.6254 28.1462 14.9941 25.6753 14.9941C23.6734 14.9941 22.438 16.1547 21.9437 16.9211H21.8695L21.6961 15.2654H18.4336Z" fill="#657A80"/>
</g>
<defs>
<clipPath id="clip0_6411_787">
<rect width="40" height="40" fill="white"/>
</clipPath>
</defs>
</svg>
