<svg width="41" height="41" viewBox="0 0 41 41" fill="none" xmlns="http://www.w3.org/2000/svg">
<g clip-path="url(#clip0_6397_1595)">
<path fill-rule="evenodd" clip-rule="evenodd" d="M40.3516 20.707C40.3516 31.7527 31.3973 40.707 20.3516 40.707C9.30587 40.707 0.351562 31.7527 0.351562 20.707C0.351562 9.66134 9.30587 0.707031 20.3516 0.707031C31.3973 0.707031 40.3516 9.66134 40.3516 20.707ZM14.5137 24.4583C14.1556 24.8167 13.6701 25.0187 13.1635 25.02L13.1622 25.0174C12.1079 25.0161 11.2525 24.1607 11.2512 23.1064C11.2529 22.6 11.455 22.1149 11.8133 21.7571C12.1717 21.3992 12.6571 21.1978 13.1635 21.1967H15.0745V23.1077C15.0734 23.6144 14.8718 24.1 14.5137 24.4583ZM16.5998 21.7571C16.958 21.3988 17.4434 21.1968 17.9501 21.1954C18.4565 21.1968 18.9418 21.3986 19.2998 21.7567C19.6579 22.1148 19.8597 22.6 19.8611 23.1064V27.8956C19.8597 28.402 19.6579 28.8873 19.2998 29.2454C18.9418 29.6035 18.4565 29.8053 17.9501 29.8066C16.8958 29.804 16.0417 28.9499 16.0391 27.8956V23.1077C16.0401 22.6011 16.2417 22.1155 16.5998 21.7571ZM17.9501 15.4299C16.8958 15.4286 16.0404 14.5732 16.0391 13.5189L16.0404 13.5176C16.0417 13.0112 16.2435 12.526 16.6016 12.1679C16.9597 11.8098 17.445 11.608 17.9514 11.6066C18.4578 11.6084 18.9429 11.8105 19.3008 12.1688C19.6586 12.5271 19.86 13.0125 19.8611 13.5189V15.4299H17.9501ZM19.2998 16.9558C19.6579 17.3139 19.8597 17.7991 19.8611 18.3055C19.8597 18.8119 19.6592 19.2972 19.3011 19.6553C18.9431 20.0134 18.4578 20.2152 17.9514 20.2165H13.1622C12.1092 20.2152 11.2538 19.3611 11.2512 18.3055C11.2525 17.7991 11.4543 17.3139 11.8124 16.9558C12.1705 16.5977 12.6558 16.3959 13.1622 16.3945H17.9501C18.4565 16.3959 18.9418 16.5977 19.2998 16.9558ZM24.102 19.6566C23.744 20.0147 23.2587 20.2165 22.7523 20.2178C21.698 20.2152 20.8452 19.3598 20.8426 18.3068V13.5176C20.8439 13.0112 21.0457 12.526 21.4038 12.1679C21.7619 11.8098 22.2472 11.608 22.7536 11.6066C23.2598 11.6084 23.7447 11.8103 24.1025 12.1683C24.4603 12.5264 24.6619 13.0115 24.6633 13.5176V18.3068C24.6619 18.8132 24.4601 19.2985 24.102 19.6566ZM26.1891 16.9558C26.5472 16.5977 27.0325 16.3959 27.5389 16.3945L27.5402 16.3958C28.0466 16.3972 28.5319 16.599 28.8899 16.9571C29.248 17.3152 29.4498 17.8004 29.4512 18.3068C29.4495 18.8132 29.2473 19.2984 28.889 19.6562C28.5307 20.0141 28.0453 20.2155 27.5389 20.2165H25.6279V18.3055C25.6292 17.7991 25.831 17.3139 26.1891 16.9558ZM22.7523 25.0187C21.698 25.0174 20.8439 24.162 20.8413 23.1077C20.8426 22.6013 21.0444 22.1174 21.4025 21.7593C21.7606 21.4012 22.2459 21.1994 22.7523 21.198H27.5402C28.0466 21.1994 28.5319 21.4012 28.8899 21.7593C29.248 22.1174 29.4498 22.6026 29.4512 23.109C29.4495 23.6152 29.2475 24.1002 28.8895 24.458C28.5314 24.8158 28.0464 25.0174 27.5402 25.0187H22.7523ZM24.102 26.5446C24.4601 26.9027 24.6619 27.3879 24.6633 27.8943C24.6619 28.4007 24.4601 28.886 24.102 29.2441C23.744 29.6022 23.2587 29.804 22.7523 29.8053C21.698 29.804 20.8439 28.9499 20.8413 27.8943V25.9833H22.7523C23.2587 25.9847 23.744 26.1865 24.102 26.5446Z" />
</g>
</svg>
