<svg width="42" height="42" viewBox="0 0 42 42" fill="none" xmlns="http://www.w3.org/2000/svg">
  <path fill-rule="evenodd" clip-rule="evenodd" d="M0 0H42V42H0V0ZM12.3029 24.9576C12.3029 26.6921 10.886 28.1091 9.15147 28.1091C7.41694 28.1091 6 26.6921 6 24.9576C6 23.2231 7.41694 21.8061 9.15147 21.8061H12.3029V24.9576ZM17.0423 21.8061C15.3078 21.8061 13.8909 23.223 13.8909 24.9576V32.8484C13.8909 34.583 15.3078 35.9999 17.0423 35.9999C18.7769 35.9999 20.1938 34.583 20.1938 32.8484V24.9576C20.1938 23.223 18.7769 21.8061 17.0423 21.8061ZM17.0423 12.3029C15.3078 12.3029 13.8909 10.886 13.8909 9.15147C13.8909 7.41694 15.3078 6 17.0423 6C18.7769 6 20.1938 7.41694 20.1938 9.15147V12.3029H17.0423ZM20.1938 17.0422C20.1938 15.3077 18.7769 13.8908 17.0423 13.8908H9.15147C7.41694 13.8908 6 15.3077 6 17.0422C6 18.7768 7.41694 20.1937 9.15147 20.1937H17.0423C18.7769 20.1937 20.1938 18.7768 20.1938 17.0422ZM29.6971 17.0422C29.6971 15.3077 31.114 13.8908 32.8485 13.8908C34.5831 13.8908 36 15.3077 36 17.0422C36 18.7768 34.5831 20.1937 32.8485 20.1937H29.6971V17.0422ZM24.9577 20.1938C26.6922 20.1938 28.1091 18.7769 28.1091 17.0423V9.15147C28.1091 7.41694 26.6922 6 24.9577 6C23.2231 6 21.8062 7.41694 21.8062 9.15147V17.0423C21.8062 18.7769 23.2231 20.1938 24.9577 20.1938ZM24.9577 29.6969C26.6922 29.6969 28.1091 31.1138 28.1091 32.8483C28.1091 34.5829 26.6922 35.9998 24.9577 35.9998C23.2231 35.9998 21.8062 34.5829 21.8062 32.8483V29.6969H24.9577ZM21.8062 24.9576C21.8062 26.6921 23.2231 28.1091 24.9577 28.1091H32.8485C34.5831 28.1091 36 26.6921 36 24.9576C36 23.2231 34.5831 21.8061 32.8485 21.8061H24.9577C23.2231 21.8061 21.8062 23.2231 21.8062 24.9576Z" fill="currentColor"/>
</svg>