<svg width="40" height="40" viewBox="0 0 40 40" fill="none" xmlns="http://www.w3.org/2000/svg">
<path fill-rule="evenodd" clip-rule="evenodd" d="M40 20C40 31.0457 31.0457 40 20 40C8.9543 40 0 31.0457 0 20C0 8.9543 8.9543 0 20 0C31.0457 0 40 8.9543 40 20ZM25.9324 21.5V26.8912L13.7991 26.8922V21.5H11.7769V28.9145H27.9546V21.5H25.9324ZM15.7323 19.5647L15.4159 21.5667L24.5533 22.8872L24.6675 21.2836L15.7323 19.5647ZM17.3693 15.3666L16.6292 16.9844L24.715 20.7578L25.4562 19.1411L17.3693 15.3666ZM20.0649 11.6609L18.9194 13.0087L25.7929 18.7366L26.9385 17.3888L20.0649 11.6609ZM23.2999 8.83126L23.2995 8.83077H23.3005L23.2999 8.83126ZM23.2999 8.83126L21.8849 9.90862L27.2074 17.0521L28.623 15.9733L23.2999 8.83126ZM15.1459 23.5202V25.5424H24.5796V23.5202H15.1459Z"/>
</svg>
