<svg width="41" height="41" viewBox="0 0 41 41" fill="none" xmlns="http://www.w3.org/2000/svg">
<path d="M20.3516 0.707031C9.30469 0.707031 0.351562 9.66016 0.351562 20.707C0.351562 31.7539 9.30469 40.707 20.3516 40.707C31.3984 40.707 40.3516 31.7539 40.3516 20.707C40.3516 9.66016 31.3984 0.707031 20.3516 0.707031ZM28.3359 17.5977C28.3438 17.7695 28.3437 17.9492 28.3437 18.1289C28.3437 23.5586 24.2109 29.8242 16.6484 29.8242C14.3281 29.8242 12.1641 29.1445 10.3516 27.9805C10.6719 28.0195 11 28.0352 11.3359 28.0352C13.2578 28.0352 15.0312 27.3789 16.4375 26.2773C14.6406 26.2461 13.1172 25.0586 12.6016 23.4258C12.8516 23.4727 13.1094 23.4961 13.375 23.4961C13.75 23.4961 14.1172 23.4492 14.4609 23.3477C12.5781 22.9727 11.1641 21.3086 11.1641 19.3164V19.2695C11.7187 19.5742 12.3516 19.7617 13.0234 19.7852C11.9219 19.0508 11.1953 17.7852 11.1953 16.3633C11.1953 15.6133 11.3984 14.9023 11.75 14.293C13.7812 16.7852 16.8047 18.418 20.2188 18.5898C20.1484 18.293 20.1094 17.9805 20.1094 17.6523C20.1094 15.3867 21.9531 13.543 24.2188 13.543C25.3984 13.543 26.4687 14.043 27.2187 14.8398C28.1562 14.6523 29.0312 14.3164 29.8281 13.8398C29.5234 14.8008 28.8672 15.6055 28.0234 16.1133C28.8516 16.0117 29.6484 15.793 30.3828 15.4648C29.8359 16.293 29.1406 17.0117 28.3359 17.5977Z" />
</svg>
