<svg width="42" height="42" viewBox="0 0 42 42" fill="currentColor" xmlns="http://www.w3.org/2000/svg">
  <path fillRule="evenodd" clipRule="evenodd" d="M42 0H0V42H42V0ZM32.4975 16.3485C32.4975 23.457 27.0795 31.668 17.178 31.668C14.1435 31.668 11.3085 30.7755 8.93555 29.2635C9.35555 29.316 9.78605 29.337 10.2165 29.337C12.7365 29.337 15.057 28.476 16.905 27.027C14.553 26.985 12.558 25.431 11.8755 23.289C12.201 23.352 12.537 23.3835 12.8835 23.3835C13.377 23.3835 13.8495 23.3205 14.301 23.1945C11.844 22.701 9.98555 20.517 9.98555 17.913V17.8395C10.71 18.2385 11.5395 18.48 12.4215 18.5115C10.983 17.5455 10.0275 15.897 10.0275 14.028C10.0275 13.041 10.29 12.117 10.752 11.319C13.4085 14.574 17.3775 16.7265 21.8505 16.947C21.7665 16.548 21.714 16.1385 21.714 15.7185C21.714 12.747 24.129 10.332 27.1005 10.332C28.644 10.332 30.0405 10.983 31.0275 12.033C32.2561 11.7915 33.411 11.3505 34.4506 10.731C34.041 11.991 33.1905 13.0515 32.0775 13.713C33.1695 13.5765 34.209 13.293 35.175 12.8625C34.4506 13.944 33.537 14.8995 32.487 15.6555C32.4975 15.8865 32.4975 16.1175 32.4975 16.3484V16.3485Z" fill="currentColor" />
</svg>