<svg width="41" height="41" viewBox="0 0 41 41" fill="none" xmlns="http://www.w3.org/2000/svg">
<g clip-path="url(#clip0_6397_1606)">
<path d="M17.6875 24.5586L24.2344 20.7148L17.6875 16.8711V24.5586Z" />
<path d="M20.3516 0.707031C9.30469 0.707031 0.351562 9.66016 0.351562 20.707C0.351562 31.7539 9.30469 40.707 20.3516 40.707C31.3984 40.707 40.3516 31.7539 40.3516 20.707C40.3516 9.66016 31.3984 0.707031 20.3516 0.707031ZM30.3516 24.2852C30.3516 27.7305 26.9062 27.7305 26.9062 27.7305H13.7969C10.3516 27.7305 10.3516 24.2852 10.3516 24.2852V17.1367C10.3516 13.6914 13.7969 13.6914 13.7969 13.6914H26.9062C30.3516 13.6914 30.3516 17.1367 30.3516 17.1367V24.2852Z" />
</g>
</svg>
