<svg width="42" height="42" fill="currentColor" xmlns="http://www.w3.org/2000/svg"><path fill-rule="evenodd" clip-rule="evenodd" d="M42 0H0v42h42V0Zm-7.618 13.975a3.387 3.387 0 0 0-.909-1.52 3.547 3.547 0 0 0-1.569-.88C29.731 11 20.986 11 20.986 11s-8.745.017-10.918.592a3.547 3.547 0 0 0-1.57.88 3.388 3.388 0 0 0-.908 1.52c-.658 3.741-.913 9.442.018 13.033.16.575.474 1.1.908 1.52.435.422.976.725 1.57.88C12.258 30 21.004 30 21.004 30s8.745 0 10.918-.574a3.548 3.548 0 0 0 1.57-.88c.434-.422.747-.946.908-1.521.693-3.746.907-9.443-.018-13.05ZM18 25l7-4.5-7-4.5v9Z" fill="currentColor"></path></svg>