<svg version="1.1" xmlns="http://www.w3.org/2000/svg" viewBox="0 0 1166.1650531485284 551.6709972731114" width="1166.1650531485284" height="551.6709972731114">
  <!-- svg-source:excalidraw -->
  
  <defs>
    <style class="style-fonts">
      @font-face {
        font-family: "Virgil";
        src: url("https://excalidraw.com/Virgil.woff2");
      }
      @font-face {
        font-family: "Cascadia";
        src: url("https://excalidraw.com/Cascadia.woff2");
      }
      @font-face {
        font-family: "Assistant";
        src: url("https://excalidraw.com/Assistant-Regular.woff2");
      }
    </style>
    
  </defs>
  <rect x="0" y="0" width="1166.1650531485284" height="551.6709972731114" fill="#ffffff"></rect><g transform="translate(22.427491528469545 26.230077960044582) rotate(0 239.84165954589844 12.5)"><text x="0" y="17.52" font-family="Virgil, Segoe UI Emoji" font-size="20px" fill="#1e1e1e" text-anchor="start" style="white-space: pre;" direction="ltr" dominant-baseline="alphabetic">Static teams own features from start to finish</text></g><g transform="translate(757.19964882762 25.49402704784734) rotate(0 102.86666870117188 12.5)"><text x="0" y="17.52" font-family="Virgil, Segoe UI Emoji" font-size="20px" fill="#1e1e1e" text-anchor="start" style="white-space: pre;" direction="ltr" dominant-baseline="alphabetic">Project-based teams</text></g><g stroke-linecap="round" transform="translate(624.3109470133131 298.3349550635976) rotate(0 122.41324108570552 116.12796464854182)"><path d="M32 0 C68.64 -0.57, 104.37 0.19, 212.83 0 M32 0 C78.12 0.48, 126.41 -1.23, 212.83 0 M212.83 0 C233.94 0.3, 243.32 9.26, 244.83 32 M212.83 0 C234.33 -0.16, 245.65 11.27, 244.83 32 M244.83 32 C244.52 86.04, 243.64 140.97, 244.83 200.26 M244.83 32 C242.7 66.24, 243.31 101.87, 244.83 200.26 M244.83 200.26 C245.5 221.05, 233.5 231.21, 212.83 232.26 M244.83 200.26 C244.87 223.71, 233.53 234.18, 212.83 232.26 M212.83 232.26 C154.99 230.99, 96.97 230.37, 32 232.26 M212.83 232.26 C158.5 233.49, 102.56 233.34, 32 232.26 M32 232.26 C10.69 232.15, 1.92 219.86, 0 200.26 M32 232.26 C8.69 230.42, 0.45 221.67, 0 200.26 M0 200.26 C0.01 135.25, -1.51 74.83, 0 32 M0 200.26 C0.66 154.52, 0.76 107.92, 0 32 M0 32 C2 10.12, 12.12 0.45, 32 0 M0 32 C0.47 12.08, 11.5 -1.33, 32 0" stroke="#1e1e1e" stroke-width="4" fill="none"></path></g><g stroke-linecap="round" transform="translate(647.0576617382831 319.8844742767287) rotate(0 100.5644229946156 16.76073716576866)"><path d="M8.38 0 C59.02 -1.35, 109.4 -0.43, 192.75 0 M8.38 0 C66.8 2.05, 122.7 1.48, 192.75 0 M192.75 0 C198.63 -1.51, 199.72 2.94, 201.13 8.38 M192.75 0 C198.18 0.82, 201.73 3.38, 201.13 8.38 M201.13 8.38 C200.66 12.17, 200.81 13.83, 201.13 25.14 M201.13 8.38 C200.73 11.89, 201.43 15.61, 201.13 25.14 M201.13 25.14 C200.59 30.07, 197.29 33.56, 192.75 33.52 M201.13 25.14 C203.25 30.1, 200.26 33.97, 192.75 33.52 M192.75 33.52 C133.2 33.1, 73.61 33.54, 8.38 33.52 M192.75 33.52 C146.37 34.8, 98.94 34.92, 8.38 33.52 M8.38 33.52 C2.69 35.45, -1.73 29.01, 0 25.14 M8.38 33.52 C0.96 33.97, 0.08 32.47, 0 25.14 M0 25.14 C-1.34 18.76, 1.01 13.63, 0 8.38 M0 25.14 C0.33 20.99, 0.05 18.95, 0 8.38 M0 8.38 C-0.55 4.25, 3.24 0.41, 8.38 0 M0 8.38 C1.41 3.62, 1.46 0.04, 8.38 0" stroke="#1e1e1e" stroke-width="4" fill="none"></path></g><g transform="translate(691.3538956763878 324.0746585681736) rotate(0 47.42499923706055 12.5)"><text x="0" y="17.52" font-family="Virgil, Segoe UI Emoji" font-size="20px" fill="#1e1e1e" text-anchor="start" style="white-space: pre;" direction="ltr" dominant-baseline="alphabetic">Project A</text></g><g transform="translate(701.5300575270376 382.1386408924409) rotate(0 32.125 37.5)"><text x="0" y="17.52" font-family="Virgil, Segoe UI Emoji" font-size="20px" fill="#1e1e1e" text-anchor="start" style="white-space: pre;" direction="ltr" dominant-baseline="alphabetic">Flag-X</text><text x="0" y="42.519999999999996" font-family="Virgil, Segoe UI Emoji" font-size="20px" fill="#1e1e1e" text-anchor="start" style="white-space: pre;" direction="ltr" dominant-baseline="alphabetic">Flag-Y</text><text x="0" y="67.52" font-family="Virgil, Segoe UI Emoji" font-size="20px" fill="#1e1e1e" text-anchor="start" style="white-space: pre;" direction="ltr" dominant-baseline="alphabetic">Flag-Z</text></g><g stroke-linecap="round" transform="translate(911.3385709771173 298.9335528195188) rotate(0 122.41324108570552 116.12796464854182)"><path d="M32 0 C94.8 -1.38, 159.57 -3.35, 212.83 0 M32 0 C100.8 1.77, 169.07 0.92, 212.83 0 M212.83 0 C234.3 -0.14, 245.54 11.19, 244.83 32 M212.83 0 C234.75 -2.09, 246.67 12.07, 244.83 32 M244.83 32 C243.25 74.55, 245.76 119.68, 244.83 200.26 M244.83 32 C245.23 73.12, 244.56 114.26, 244.83 200.26 M244.83 200.26 C244.87 223.43, 233.61 233.93, 212.83 232.26 M244.83 200.26 C245.27 222.05, 233.29 232.16, 212.83 232.26 M212.83 232.26 C163.9 230.3, 115.16 232.67, 32 232.26 M212.83 232.26 C142.26 233.57, 72.63 232.76, 32 232.26 M32 232.26 C8.95 230.66, 0.39 221.66, 0 200.26 M32 232.26 C12.41 232.96, -1.95 222.2, 0 200.26 M0 200.26 C0.34 162.9, 2.12 127.44, 0 32 M0 200.26 C2.27 140.71, 2 81.94, 0 32 M0 32 C0.41 11.9, 11.39 -1.16, 32 0 M0 32 C0.04 9.63, 9.75 0.16, 32 0" stroke="#1e1e1e" stroke-width="4" fill="none"></path></g><g stroke-linecap="round" transform="translate(934.0852857020727 320.4830720326463) rotate(0 100.5644229946156 16.76073716576866)"><path d="M8.38 0 C48.06 1.1, 85.52 2.36, 192.75 0 M8.38 0 C72.28 -0.55, 135.18 0.28, 192.75 0 M192.75 0 C198.2 0.71, 201.65 3.3, 201.13 8.38 M192.75 0 C196.25 1.84, 202.53 1.96, 201.13 8.38 M201.13 8.38 C199.53 14.23, 200.13 18.11, 201.13 25.14 M201.13 8.38 C200.95 13.2, 200.74 18.59, 201.13 25.14 M201.13 25.14 C202.97 30.18, 200.01 33.91, 192.75 33.52 M201.13 25.14 C201.59 29.85, 198.24 32.86, 192.75 33.52 M192.75 33.52 C139.77 33.97, 90.03 35.41, 8.38 33.52 M192.75 33.52 C139.41 34.5, 85.32 32.68, 8.38 33.52 M8.38 33.52 C1.2 33.92, 0.07 32.24, 0 25.14 M8.38 33.52 C3.5 31.57, 0.61 28.69, 0 25.14 M0 25.14 C-1.6 22.03, -1.52 17.63, 0 8.38 M0 25.14 C-0.26 21.99, 0.16 17.79, 0 8.38 M0 8.38 C1.23 3.52, 1.63 0.04, 8.38 0 M0 8.38 C-1.04 1.87, 2.95 -0.35, 8.38 0" stroke="#1e1e1e" stroke-width="4" fill="none"></path></g><g transform="translate(978.3815196401774 324.6732563240985) rotate(0 48.13333511352539 12.5)"><text x="0" y="17.52" font-family="Virgil, Segoe UI Emoji" font-size="20px" fill="#1e1e1e" text-anchor="start" style="white-space: pre;" direction="ltr" dominant-baseline="alphabetic">Project B</text></g><g transform="translate(988.5576814908345 382.73723864836575) rotate(0 31.616666793823242 37.5)"><text x="0" y="17.52" font-family="Virgil, Segoe UI Emoji" font-size="20px" fill="#1e1e1e" text-anchor="start" style="white-space: pre;" direction="ltr" dominant-baseline="alphabetic">Flag-W</text><text x="0" y="42.519999999999996" font-family="Virgil, Segoe UI Emoji" font-size="20px" fill="#1e1e1e" text-anchor="start" style="white-space: pre;" direction="ltr" dominant-baseline="alphabetic">Flag-Q</text><text x="0" y="67.52" font-family="Virgil, Segoe UI Emoji" font-size="20px" fill="#1e1e1e" text-anchor="start" style="white-space: pre;" direction="ltr" dominant-baseline="alphabetic">Flag-P</text></g><g stroke-linecap="round" transform="translate(10 296.8384606738) rotate(0 122.41324108570552 116.12796464854182)"><path d="M32 0 C90.45 -3.26, 146.84 -1.17, 212.83 0 M32 0 C72.54 0.23, 113.49 0.12, 212.83 0 M212.83 0 C232.34 1.6, 246.05 9.95, 244.83 32 M212.83 0 C234.55 -0.62, 242.68 8.53, 244.83 32 M244.83 32 C243.95 88.48, 244.54 143.21, 244.83 200.26 M244.83 32 C244.87 76.63, 244.79 122.01, 244.83 200.26 M244.83 200.26 C245.22 220.83, 234.08 231.68, 212.83 232.26 M244.83 200.26 C244.43 220.21, 234.27 231.25, 212.83 232.26 M212.83 232.26 C155.05 235.4, 97.73 233.78, 32 232.26 M212.83 232.26 C140.38 230.9, 69.57 231.46, 32 232.26 M32 232.26 C11.28 230.56, 0.53 219.82, 0 200.26 M32 232.26 C9.52 233.45, -0.58 219.51, 0 200.26 M0 200.26 C-0.07 139.32, 3.44 77.07, 0 32 M0 200.26 C0.24 137.9, -0.96 74.84, 0 32 M0 32 C-0.9 9.87, 10.8 -0.31, 32 0 M0 32 C2.29 9.61, 8.53 0.51, 32 0" stroke="#1e1e1e" stroke-width="4" fill="none"></path></g><g stroke-linecap="round" transform="translate(32.746714724969934 318.3879798869275) rotate(0 100.5644229946156 16.76073716576866)"><path d="M8.38 0 C46.02 -1.07, 87.54 -2.35, 192.75 0 M8.38 0 C51.05 0.39, 93.25 -0.78, 192.75 0 M192.75 0 C199.94 1.22, 200.41 3.14, 201.13 8.38 M192.75 0 C197.71 -2.15, 199 3.53, 201.13 8.38 M201.13 8.38 C201.54 13.02, 200.58 15.97, 201.13 25.14 M201.13 8.38 C200.9 13.24, 201.29 16.86, 201.13 25.14 M201.13 25.14 C200.37 30.65, 197.76 33.17, 192.75 33.52 M201.13 25.14 C199.75 30.83, 197.33 33.94, 192.75 33.52 M192.75 33.52 C125.08 33.34, 54.29 35.24, 8.38 33.52 M192.75 33.52 C153.55 32.09, 114.72 32.36, 8.38 33.52 M8.38 33.52 C1.09 34.05, -1.77 29.73, 0 25.14 M8.38 33.52 C3.99 32.95, -2.08 32.21, 0 25.14 M0 25.14 C0.24 23.22, -0.55 19.18, 0 8.38 M0 25.14 C0.27 19.25, -0.02 13.95, 0 8.38 M0 8.38 C-0.8 2.93, 2.49 1.99, 8.38 0 M0 8.38 C-1.06 0.66, 3.31 1.25, 8.38 0" stroke="#1e1e1e" stroke-width="4" fill="none"></path></g><g transform="translate(77.04294866307464 322.5781641783724) rotate(0 47.42499923706055 12.5)"><text x="0" y="17.52" font-family="Virgil, Segoe UI Emoji" font-size="20px" fill="#1e1e1e" text-anchor="start" style="white-space: pre;" direction="ltr" dominant-baseline="alphabetic">Project A</text></g><g transform="translate(87.21911051373172 380.64214650263966) rotate(0 32.125 37.5)"><text x="0" y="17.52" font-family="Virgil, Segoe UI Emoji" font-size="20px" fill="#1e1e1e" text-anchor="start" style="white-space: pre;" direction="ltr" dominant-baseline="alphabetic">Flag-X</text><text x="0" y="42.519999999999996" font-family="Virgil, Segoe UI Emoji" font-size="20px" fill="#1e1e1e" text-anchor="start" style="white-space: pre;" direction="ltr" dominant-baseline="alphabetic">Flag-Y</text><text x="0" y="67.52" font-family="Virgil, Segoe UI Emoji" font-size="20px" fill="#1e1e1e" text-anchor="start" style="white-space: pre;" direction="ltr" dominant-baseline="alphabetic">Flag-Z</text></g><g stroke-linecap="round" transform="translate(297.0276239638042 297.4370584297176) rotate(0 122.41324108570552 116.12796464854182)"><path d="M32 0 C68.51 -1.68, 108.19 -0.41, 212.83 0 M32 0 C91.8 0.34, 154.03 -0.82, 212.83 0 M212.83 0 C234.5 -0.54, 242.96 8.81, 244.83 32 M212.83 0 C234.9 -1.31, 243.58 10.76, 244.83 32 M244.83 32 C244.73 86.49, 245.43 144.91, 244.83 200.26 M244.83 32 C246.43 77.49, 246.19 123.45, 244.83 200.26 M244.83 200.26 C244.48 220.39, 234.25 231.38, 212.83 232.26 M244.83 200.26 C245.25 223.32, 236.24 232, 212.83 232.26 M212.83 232.26 C146.86 230.43, 75.33 230.57, 32 232.26 M212.83 232.26 C155.33 232.78, 97.48 232.74, 32 232.26 M32 232.26 C9.67 233.3, -0.5 219.78, 0 200.26 M32 232.26 C12.15 230.28, 1.2 219.85, 0 200.26 M0 200.26 C-0.22 146.96, -1.27 93.99, 0 32 M0 200.26 C0.52 143.3, 1.04 86.99, 0 32 M0 32 C1.99 9.75, 8.81 0.45, 32 0 M0 32 C1.25 10.47, 12.83 -0.38, 32 0" stroke="#1e1e1e" stroke-width="4" fill="none"></path></g><g stroke-linecap="round" transform="translate(319.7743386887596 318.9865776428451) rotate(0 100.5644229946156 16.76073716576866)"><path d="M8.38 0 C60.23 1.54, 114.76 2.1, 192.75 0 M8.38 0 C69.29 2.29, 128.24 1.85, 192.75 0 M192.75 0 C197.79 -1.87, 199.27 3.44, 201.13 8.38 M192.75 0 C197.02 -1.24, 201.22 3.48, 201.13 8.38 M201.13 8.38 C200.21 14.01, 202.63 19.11, 201.13 25.14 M201.13 8.38 C200.84 14.78, 200.92 21.09, 201.13 25.14 M201.13 25.14 C199.93 30.82, 197.46 33.89, 192.75 33.52 M201.13 25.14 C202.86 32.81, 198.08 35.26, 192.75 33.52 M192.75 33.52 C135.54 33.58, 80.2 35.69, 8.38 33.52 M192.75 33.52 C135.94 34.35, 79.94 33.59, 8.38 33.52 M8.38 33.52 C3.83 33.02, -1.81 32.02, 0 25.14 M8.38 33.52 C0.82 34.72, -1.74 31.18, 0 25.14 M0 25.14 C0.42 18.78, 1.08 12.35, 0 8.38 M0 25.14 C-0.34 21.14, -0.13 17.86, 0 8.38 M0 8.38 C-0.92 0.94, 3.24 1.08, 8.38 0 M0 8.38 C-0.19 4.96, 2.41 -0.29, 8.38 0" stroke="#1e1e1e" stroke-width="4" fill="none"></path></g><g transform="translate(364.0705726268643 323.17676193429725) rotate(0 48.13333511352539 12.5)"><text x="0" y="17.52" font-family="Virgil, Segoe UI Emoji" font-size="20px" fill="#1e1e1e" text-anchor="start" style="white-space: pre;" direction="ltr" dominant-baseline="alphabetic">Project B</text></g><g transform="translate(374.2467344775214 381.2407442585645) rotate(0 31.616666793823242 37.5)"><text x="0" y="17.52" font-family="Virgil, Segoe UI Emoji" font-size="20px" fill="#1e1e1e" text-anchor="start" style="white-space: pre;" direction="ltr" dominant-baseline="alphabetic">Flag-W</text><text x="0" y="42.519999999999996" font-family="Virgil, Segoe UI Emoji" font-size="20px" fill="#1e1e1e" text-anchor="start" style="white-space: pre;" direction="ltr" dominant-baseline="alphabetic">Flag-Q</text><text x="0" y="67.52" font-family="Virgil, Segoe UI Emoji" font-size="20px" fill="#1e1e1e" text-anchor="start" style="white-space: pre;" direction="ltr" dominant-baseline="alphabetic">Flag-P</text></g><g stroke-linecap="round"><g transform="translate(581.8592914737383 10.391629993562674) rotate(0 -1.221588077245542 265.48700698684297)"><path d="M-0.08 0.43 C-0.3 88.96, -1.56 442.69, -2.13 531.28 M-1.59 -0.39 C-1.86 87.75, -2.98 440.9, -2.91 529.32" stroke="#1e1e1e" stroke-width="4" fill="none"></path></g></g><mask></mask><g transform="translate(708.7128762617649 181.4089781859293) rotate(0 30.049999237060547 12.5)"><text x="0" y="17.52" font-family="Virgil, Segoe UI Emoji" font-size="20px" fill="#1e1e1e" text-anchor="start" style="white-space: pre;" direction="ltr" dominant-baseline="alphabetic">User 1</text></g><g transform="translate(85.8078124442618 165.11765709830797) rotate(0 38.06666564941406 12.5)"><text x="0" y="17.52" font-family="Virgil, Segoe UI Emoji" font-size="20px" fill="#1e1e1e" text-anchor="start" style="white-space: pre;" direction="ltr" dominant-baseline="alphabetic">Team A</text></g><g transform="translate(368.8674755135071 169.05791474274156) rotate(0 38.775001525878906 12.5)"><text x="0" y="17.52" font-family="Virgil, Segoe UI Emoji" font-size="20px" fill="#1e1e1e" text-anchor="start" style="white-space: pre;" direction="ltr" dominant-baseline="alphabetic">Team B</text></g><g stroke-linecap="round"><g transform="translate(407.08965096710017 197.71594445164737) rotate(0 -0.5298711777868448 40.270209511470966)"><path d="M-0.81 0.83 C-0.78 14.29, -0.17 67.34, -0.3 80.65 M0.96 0.22 C0.94 13.9, -0.25 68.59, -0.85 82.25" stroke="#1e1e1e" stroke-width="4" fill="none"></path></g><g transform="translate(407.08965096710017 197.71594445164737) rotate(0 -0.5298711777868448 40.270209511470966)"><path d="M-8.67 58.51 C-5.29 65.97, -4.45 69.98, -0.85 82.25 M-8.67 58.51 C-6.8 66.97, -3.53 73.09, -0.85 82.25" stroke="#1e1e1e" stroke-width="4" fill="none"></path></g><g transform="translate(407.08965096710017 197.71594445164737) rotate(0 -0.5298711777868448 40.270209511470966)"><path d="M8.42 59.03 C7.39 66.24, 3.8 70.11, -0.85 82.25 M8.42 59.03 C4.89 67.21, 2.76 73.16, -0.85 82.25" stroke="#1e1e1e" stroke-width="4" fill="none"></path></g></g><mask></mask><g stroke-linecap="round"><g transform="translate(123.07869967566512 194.53671738495177) rotate(0 1.5896135333459824 40.80008068925599)"><path d="M-0.76 0.14 C-0.23 13.95, 2.27 68.89, 2.95 82.47 M1.04 -0.83 C1.41 12.68, 1.62 66.84, 1.89 80.8" stroke="#1e1e1e" stroke-width="4" fill="none"></path></g><g transform="translate(123.07869967566512 194.53671738495177) rotate(0 1.5896135333459824 40.80008068925599)"><path d="M-6.92 57.4 C-4.28 63.65, -0.6 70.84, 1.89 80.8 M-6.92 57.4 C-3.77 64.95, -2.18 71.38, 1.89 80.8" stroke="#1e1e1e" stroke-width="4" fill="none"></path></g><g transform="translate(123.07869967566512 194.53671738495177) rotate(0 1.5896135333459824 40.80008068925599)"><path d="M10.18 57.21 C8.01 63.41, 6.89 70.65, 1.89 80.8 M10.18 57.21 C8.2 64.87, 4.66 71.36, 1.89 80.8" stroke="#1e1e1e" stroke-width="4" fill="none"></path></g></g><mask></mask><g stroke-linecap="round" transform="translate(728.1915847032942 100.21964773966465) rotate(0 14.8363929779116 12.716908266780592)"><path d="M15.76 -0.34 C18.87 -0.4, 23.16 1.14, 25.52 3.16 C27.88 5.17, 29.65 8.99, 29.91 11.76 C30.17 14.53, 28.82 17.54, 27.06 19.76 C25.31 21.97, 22.34 24.35, 19.39 25.07 C16.45 25.79, 12.34 25.23, 9.39 24.06 C6.45 22.89, 3.24 20.37, 1.71 18.06 C0.18 15.75, -0.54 12.79, 0.22 10.2 C0.98 7.61, 3.54 4.21, 6.26 2.52 C8.98 0.82, 14.71 0.41, 16.55 0.04 C18.4 -0.33, 17.35 0.03, 17.35 0.28 M14.41 -0.41 C17.48 -0.72, 21.81 0.43, 24.25 2.25 C26.69 4.06, 28.57 7.68, 29.05 10.48 C29.53 13.28, 28.64 16.81, 27.11 19.05 C25.57 21.28, 22.6 22.98, 19.83 23.91 C17.07 24.85, 13.4 25.41, 10.52 24.66 C7.64 23.91, 4.18 21.87, 2.55 19.41 C0.92 16.95, 0.32 12.65, 0.76 9.89 C1.19 7.13, 2.92 4.55, 5.16 2.88 C7.39 1.21, 12.6 0.36, 14.15 -0.13 C15.7 -0.61, 14.25 -0.21, 14.48 -0.02" stroke="#1e1e1e" stroke-width="4" fill="none"></path></g><g stroke-linecap="round" transform="translate(717.5941611476446 127.77294898435503) rotate(0 24.37407417799841 18.54549122238859)"><path d="M9.27 0 C20.35 0.08, 31.85 -1.5, 39.48 0 M9.27 0 C22.25 -0.51, 33.3 0.45, 39.48 0 M39.48 0 C46.31 1.83, 47.43 3.66, 48.75 9.27 M39.48 0 C44.05 -0.86, 50.74 4.31, 48.75 9.27 M48.75 9.27 C48.75 14.27, 49.32 21.06, 48.75 27.82 M48.75 9.27 C48.2 14.3, 48.55 19.48, 48.75 27.82 M48.75 27.82 C47.71 34.05, 44.05 37.11, 39.48 37.09 M48.75 27.82 C48.36 31.73, 47.85 37.01, 39.48 37.09 M39.48 37.09 C26.5 37.03, 16.71 35.61, 9.27 37.09 M39.48 37.09 C31.91 36.61, 22.17 36.77, 9.27 37.09 M9.27 37.09 C3.1 37.56, 1.89 35.94, 0 27.82 M9.27 37.09 C3.37 38.25, -2.09 32.88, 0 27.82 M0 27.82 C0.89 20.87, -0.97 16.49, 0 9.27 M0 27.82 C0.62 22.23, -0.11 16.01, 0 9.27 M0 9.27 C-0.28 4.23, 3.99 -0.72, 9.27 0 M0 9.27 C2.22 1.93, 0.91 -0.07, 9.27 0" stroke="#1e1e1e" stroke-width="4" fill="none"></path></g><g transform="translate(989.5446004864862 181.40897818593294) rotate(0 34.150001525878906 12.5)"><text x="0" y="17.52" font-family="Virgil, Segoe UI Emoji" font-size="20px" fill="#1e1e1e" text-anchor="start" style="white-space: pre;" direction="ltr" dominant-baseline="alphabetic">User 3</text></g><g stroke-linecap="round" transform="translate(1009.0233089280155 100.21964773966829) rotate(0 14.8363929779116 12.716908266780592)"><path d="M12.73 -0.16 C15.65 -0.78, 19.6 0.17, 22.32 1.59 C25.04 3.01, 27.97 5.82, 29.05 8.37 C30.14 10.92, 29.99 14.41, 28.82 16.9 C27.66 19.38, 24.85 21.87, 22.07 23.3 C19.29 24.73, 15.19 25.79, 12.12 25.46 C9.06 25.14, 5.71 23.47, 3.66 21.35 C1.61 19.23, -0.09 15.6, -0.15 12.72 C-0.2 9.85, 1.09 6.18, 3.32 4.11 C5.55 2.04, 11.54 0.91, 13.22 0.3 C14.9 -0.3, 13.49 0.22, 13.4 0.46 M18.62 1.05 C21.58 1.56, 25.33 2.81, 27.09 4.83 C28.84 6.84, 29.39 10.4, 29.15 13.15 C28.9 15.91, 27.68 19.38, 25.62 21.36 C23.55 23.34, 19.82 24.63, 16.75 25.01 C13.68 25.39, 9.98 25.24, 7.2 23.66 C4.41 22.08, 1.16 18.13, 0.05 15.51 C-1.05 12.9, -0.74 10.4, 0.57 7.96 C1.88 5.51, 4.98 2.15, 7.92 0.84 C10.86 -0.47, 16.51 0.07, 18.21 0.1 C19.91 0.13, 18.19 0.84, 18.11 1.05" stroke="#1e1e1e" stroke-width="4" fill="none"></path></g><g stroke-linecap="round" transform="translate(998.4258853723659 127.77294898435866) rotate(0 24.37407417799841 18.54549122238859)"><path d="M9.27 0 C14.72 0.64, 22.85 1.87, 39.48 0 M9.27 0 C16.76 0.1, 23.22 -0.25, 39.48 0 M39.48 0 C44.87 -1.69, 48.15 3.98, 48.75 9.27 M39.48 0 C46.48 2.06, 48.07 3.07, 48.75 9.27 M48.75 9.27 C49.24 14.66, 49.09 18.13, 48.75 27.82 M48.75 9.27 C48.1 16.32, 49.76 23.23, 48.75 27.82 M48.75 27.82 C47.6 32.7, 44.4 37.42, 39.48 37.09 M48.75 27.82 C48.12 35.19, 44.56 39.16, 39.48 37.09 M39.48 37.09 C26.82 37.96, 16.87 35.65, 9.27 37.09 M39.48 37.09 C31.93 36.56, 22.92 37.89, 9.27 37.09 M9.27 37.09 C3.4 37.2, -0.44 32.4, 0 27.82 M9.27 37.09 C4.25 37.23, -1.75 35.53, 0 27.82 M0 27.82 C1.16 22.85, 1.09 18.03, 0 9.27 M0 27.82 C-0.73 21.95, -0.06 16.7, 0 9.27 M0 9.27 C0.39 4.29, 4.9 1.73, 9.27 0 M0 9.27 C-0.24 2.29, 2.95 0.17, 9.27 0" stroke="#1e1e1e" stroke-width="4" fill="none"></path></g><g transform="translate(852.8378366186007 176.11026640811178) rotate(0 34.45833206176758 12.5)"><text x="0" y="17.52" font-family="Virgil, Segoe UI Emoji" font-size="20px" fill="#1e1e1e" text-anchor="start" style="white-space: pre;" direction="ltr" dominant-baseline="alphabetic">User 2</text></g><g stroke-linecap="round" transform="translate(872.31654506013 94.92093596184714) rotate(0 14.8363929779116 12.716908266780592)"><path d="M17.14 -0.06 C20.15 0.19, 23.93 2.53, 26.05 4.5 C28.17 6.47, 29.72 9.12, 29.85 11.78 C29.98 14.44, 28.82 18.27, 26.81 20.46 C24.8 22.65, 20.85 24.33, 17.77 24.9 C14.69 25.46, 11.07 25.02, 8.33 23.85 C5.59 22.68, 2.63 20.35, 1.34 17.87 C0.04 15.39, -0.31 11.68, 0.55 8.99 C1.41 6.29, 3.75 3.18, 6.5 1.68 C9.25 0.18, 15.06 0.22, 17.07 0 C19.07 -0.22, 18.42 0.05, 18.54 0.37 M17.25 -0.61 C20.32 -0.55, 23.74 1.96, 25.76 4.13 C27.78 6.31, 29.16 9.77, 29.36 12.45 C29.57 15.12, 28.81 18.2, 26.99 20.2 C25.17 22.19, 21.73 23.88, 18.44 24.41 C15.15 24.93, 10.04 24.4, 7.25 23.35 C4.45 22.31, 2.69 20.49, 1.65 18.14 C0.61 15.78, 0.01 11.98, 1 9.21 C1.98 6.44, 4.97 3.16, 7.56 1.52 C10.15 -0.12, 14.94 -0.4, 16.55 -0.61 C18.16 -0.82, 17.1 0.06, 17.23 0.27" stroke="#1e1e1e" stroke-width="4" fill="none"></path></g><g stroke-linecap="round" transform="translate(861.7191215044804 122.47423720653751) rotate(0 24.37407417799841 18.54549122238859)"><path d="M9.27 0 C14.04 -1.44, 23.38 -0.83, 39.48 0 M9.27 0 C16.63 -0.65, 25.21 -0.62, 39.48 0 M39.48 0 C44.6 0.69, 48.92 2.51, 48.75 9.27 M39.48 0 C45.54 0.8, 47.91 1.9, 48.75 9.27 M48.75 9.27 C47.91 15.71, 50.01 20.27, 48.75 27.82 M48.75 9.27 C49.09 12.38, 49.11 17.2, 48.75 27.82 M48.75 27.82 C49.86 32.74, 46.03 37.66, 39.48 37.09 M48.75 27.82 C49.28 32.23, 43.84 35.48, 39.48 37.09 M39.48 37.09 C29.01 35.97, 22.6 38.18, 9.27 37.09 M39.48 37.09 C30.82 36.28, 20.77 37.41, 9.27 37.09 M9.27 37.09 C3.81 36.59, 0 34.61, 0 27.82 M9.27 37.09 C1.52 37.42, -1.57 34.47, 0 27.82 M0 27.82 C0.86 24.09, 0.34 16.46, 0 9.27 M0 27.82 C-0.36 23.54, -0.19 17.27, 0 9.27 M0 9.27 C-1.28 4.78, 1.89 -0.15, 9.27 0 M0 9.27 C-1.51 4.68, 3.56 2.09, 9.27 0" stroke="#1e1e1e" stroke-width="4" fill="none"></path></g><g stroke-linecap="round"><g transform="translate(736.9608170123465 221.1856288082745) rotate(0 -4.732289354800741 27.475624977594634)"><path d="M0.4 -1 C-1.17 8.06, -6.54 44.7, -8.38 53.97 M-0.84 1.09 C-2.58 10.31, -7.5 45.88, -8.75 54.99" stroke="#1e1e1e" stroke-width="4" fill="none"></path></g><g transform="translate(736.9608170123465 221.1856288082745) rotate(0 -4.732289354800741 27.475624977594634)"><path d="M-13.99 30.55 C-13.7 41.88, -11.63 47.66, -8.75 54.99 M-13.99 30.55 C-12.88 36.44, -12.16 44.82, -8.75 54.99" stroke="#1e1e1e" stroke-width="4" fill="none"></path></g><g transform="translate(736.9608170123465 221.1856288082745) rotate(0 -4.732289354800741 27.475624977594634)"><path d="M2.95 32.9 C-3.37 43.37, -7.9 48.23, -8.75 54.99 M2.95 32.9 C-0.55 38.05, -4.46 45.79, -8.75 54.99" stroke="#1e1e1e" stroke-width="4" fill="none"></path></g></g><mask></mask><g stroke-linecap="round"><g transform="translate(1022.4706034033297 215.73156449625822) rotate(0 1.2888654961934662 27.023430066905348)"><path d="M-0.16 -0.05 C0 8.69, 1.15 44.64, 1.43 53.55 M-1.71 -1.12 C-1.23 8.29, 2.61 45.57, 3.54 54.82" stroke="#1e1e1e" stroke-width="4" fill="none"></path></g><g transform="translate(1022.4706034033297 215.73156449625822) rotate(0 1.2888654961934662 27.023430066905348)"><path d="M-7.33 32.31 C-3.56 37.96, -0.67 45.66, 3.54 54.82 M-7.33 32.31 C-5.05 36.91, -2.11 43.2, 3.54 54.82" stroke="#1e1e1e" stroke-width="4" fill="none"></path></g><g transform="translate(1022.4706034033297 215.73156449625822) rotate(0 1.2888654961934662 27.023430066905348)"><path d="M9.69 30.59 C7.77 36.79, 4.97 45.07, 3.54 54.82 M9.69 30.59 C7.76 35.68, 6.51 42.39, 3.54 54.82" stroke="#1e1e1e" stroke-width="4" fill="none"></path></g></g><mask></mask><g stroke-linecap="round"><g transform="translate(880.0457596766573 214.6718221406918) rotate(0 -13.61765192380335 27.023430066905348)"><path d="M0.17 0.35 C-4.59 9.26, -23.5 45.24, -27.87 54.38 M-1.21 -0.51 C-5.63 7.94, -21.33 43.44, -25.5 52.43" stroke="#1e1e1e" stroke-width="4" fill="none"></path></g><g transform="translate(880.0457596766573 214.6718221406918) rotate(0 -13.61765192380335 27.023430066905348)"><path d="M-23.6 27.51 C-23.49 35.33, -24.2 47.21, -25.5 52.43 M-23.6 27.51 C-24.05 37.33, -25.62 46.88, -25.5 52.43" stroke="#1e1e1e" stroke-width="4" fill="none"></path></g><g transform="translate(880.0457596766573 214.6718221406918) rotate(0 -13.61765192380335 27.023430066905348)"><path d="M-8.02 34.56 C-13.52 39.89, -19.77 49.26, -25.5 52.43 M-8.02 34.56 C-14.62 41.64, -22.36 48.39, -25.5 52.43" stroke="#1e1e1e" stroke-width="4" fill="none"></path></g></g><mask></mask><g stroke-linecap="round"><g transform="translate(901.8732437294457 212.5523374295626) rotate(0 11.144793248055066 27.553301244688555)"><path d="M-0.78 0.84 C2.71 10.2, 18.11 46.58, 22.15 55.67 M1 0.24 C4.23 9.28, 17.42 44.4, 21.13 53.84" stroke="#1e1e1e" stroke-width="4" fill="none"></path></g><g transform="translate(901.8732437294457 212.5523374295626) rotate(0 11.144793248055066 27.553301244688555)"><path d="M4.74 34.96 C12.59 42.34, 18.64 52, 21.13 53.84 M4.74 34.96 C10.15 41.28, 15.4 47.55, 21.13 53.84" stroke="#1e1e1e" stroke-width="4" fill="none"></path></g><g transform="translate(901.8732437294457 212.5523374295626) rotate(0 11.144793248055066 27.553301244688555)"><path d="M20.71 28.85 C22.18 38.55, 21.88 50.64, 21.13 53.84 M20.71 28.85 C20.96 37.22, 21.01 45.47, 21.13 53.84" stroke="#1e1e1e" stroke-width="4" fill="none"></path></g></g><mask></mask><g stroke-linecap="round" transform="translate(68.57201948590227 108.96964773966465) rotate(0 8.369001673563616 8.290678758583454)"><path d="M7.05 0.29 C8.71 -0.14, 11.44 0.17, 13 1.13 C14.56 2.1, 15.82 4.33, 16.41 6.09 C17.01 7.85, 17.21 10.14, 16.59 11.71 C15.97 13.27, 14.27 14.69, 12.68 15.47 C11.09 16.24, 8.94 16.67, 7.07 16.36 C5.2 16.06, 2.62 14.98, 1.45 13.62 C0.27 12.27, -0.13 9.99, 0.01 8.24 C0.16 6.48, 1.07 4.45, 2.31 3.1 C3.55 1.76, 6.59 0.66, 7.43 0.17 C8.27 -0.32, 7.34 0.09, 7.35 0.15 M8.63 -0.65 C10.43 -0.86, 12.72 1.01, 14.09 2.23 C15.46 3.45, 16.47 5.08, 16.84 6.66 C17.22 8.25, 17.16 10.28, 16.36 11.75 C15.56 13.22, 13.8 14.67, 12.04 15.48 C10.27 16.29, 7.52 17.13, 5.78 16.6 C4.03 16.08, 2.61 14.02, 1.54 12.34 C0.47 10.67, -0.77 8.39, -0.64 6.57 C-0.52 4.75, 0.78 2.57, 2.29 1.44 C3.81 0.31, 7.48 0.13, 8.45 -0.2 C9.41 -0.53, 8.2 -0.81, 8.08 -0.56" stroke="#1e1e1e" stroke-width="4" fill="none"></path></g><g stroke-linecap="round" transform="translate(62.59416114764463 126.9327850499285) rotate(0 13.74907417799841 12.090573189601855)"><path d="M6.05 0 C11.86 1.24, 15.43 0.72, 21.45 0 M6.05 0 C11.79 0.69, 16.92 0.58, 21.45 0 M21.45 0 C24.9 1.79, 27.36 0.74, 27.5 6.05 M21.45 0 C26.57 0.04, 28.62 2.72, 27.5 6.05 M27.5 6.05 C27.04 10.42, 27.62 14.14, 27.5 18.14 M27.5 6.05 C27.99 8.94, 27.99 13.31, 27.5 18.14 M27.5 18.14 C28.3 22.56, 27.01 23.15, 21.45 24.18 M27.5 18.14 C28.97 20.7, 25.3 25.45, 21.45 24.18 M21.45 24.18 C15.06 23.14, 9.72 24.91, 6.05 24.18 M21.45 24.18 C16.94 24.53, 12.73 24.1, 6.05 24.18 M6.05 24.18 C3.81 23.14, -1.09 20.99, 0 18.14 M6.05 24.18 C1.84 23.75, 0.78 21.6, 0 18.14 M0 18.14 C0.53 15.11, -0.28 10.94, 0 6.05 M0 18.14 C0.02 13.5, -0.28 9.13, 0 6.05 M0 6.05 C0.3 1.95, 3.16 -0.67, 6.05 0 M0 6.05 C2.23 2.45, 1.88 -2.09, 6.05 0" stroke="#1e1e1e" stroke-width="4" fill="none"></path></g><g stroke-linecap="round" transform="translate(108.57201948590227 83.96964773966465) rotate(0 8.369001673563616 8.290678758583454)"><path d="M8.57 0.43 C10.18 0.37, 12.58 0.68, 14 1.79 C15.42 2.91, 16.91 5.36, 17.08 7.13 C17.25 8.91, 16.09 11.02, 15.01 12.46 C13.94 13.91, 12.23 15.16, 10.62 15.8 C9.02 16.43, 6.95 16.85, 5.4 16.28 C3.85 15.7, 2.24 13.96, 1.33 12.35 C0.42 10.73, -0.37 8.43, -0.03 6.6 C0.31 4.78, 1.75 2.41, 3.36 1.39 C4.96 0.36, 8.53 0.65, 9.62 0.48 C10.71 0.32, 10.03 0.38, 9.9 0.4 M8.07 0.43 C9.75 0.36, 12.17 0.39, 13.73 1.52 C15.28 2.64, 17.18 5.29, 17.41 7.17 C17.65 9.05, 16.2 11.25, 15.13 12.79 C14.05 14.33, 12.57 15.9, 10.99 16.41 C9.4 16.92, 7.28 16.54, 5.61 15.85 C3.95 15.15, 1.95 13.89, 0.99 12.24 C0.03 10.6, -0.51 7.76, -0.14 5.98 C0.22 4.21, 1.64 2.68, 3.18 1.61 C4.72 0.53, 8.26 -0.24, 9.1 -0.44 C9.94 -0.64, 8.32 0.15, 8.2 0.4" stroke="#1e1e1e" stroke-width="4" fill="none"></path></g><g stroke-linecap="round" transform="translate(102.59416114764463 101.9327850499285) rotate(0 13.74907417799841 12.090573189601855)"><path d="M6.05 0 C11.56 1.43, 15.92 -0.79, 21.45 0 M6.05 0 C12.59 -0.08, 17.3 -0.39, 21.45 0 M21.45 0 C24.69 -1.67, 28.68 3.43, 27.5 6.05 M21.45 0 C27.39 1.31, 26.37 2.8, 27.5 6.05 M27.5 6.05 C28.49 10.39, 27.76 12.67, 27.5 18.14 M27.5 6.05 C27.14 8.58, 27.86 11.94, 27.5 18.14 M27.5 18.14 C25.74 24.16, 25.39 23.37, 21.45 24.18 M27.5 18.14 C27.66 22.47, 26.14 25.54, 21.45 24.18 M21.45 24.18 C16.35 23.14, 12.45 23.98, 6.05 24.18 M21.45 24.18 C16.31 23.71, 10.91 23.75, 6.05 24.18 M6.05 24.18 C2.3 23.86, 0.63 23.29, 0 18.14 M6.05 24.18 C3.51 25.75, 2.23 21.42, 0 18.14 M0 18.14 C1.07 13.79, -0.77 9.02, 0 6.05 M0 18.14 C0.16 15.08, 0.41 10.76, 0 6.05 M0 6.05 C1.87 0.35, 0.9 0.98, 6.05 0 M0 6.05 C0.63 0.96, 3.62 -1.43, 6.05 0" stroke="#1e1e1e" stroke-width="4" fill="none"></path></g><g stroke-linecap="round" transform="translate(146.07201948590227 108.96964773966465) rotate(0 8.369001673563616 8.290678758583454)"><path d="M6.68 0.03 C8.37 -0.29, 11.07 0.23, 12.74 1.25 C14.42 2.27, 16.19 4.42, 16.73 6.14 C17.26 7.85, 16.71 10.04, 15.96 11.54 C15.21 13.04, 13.7 14.4, 12.22 15.14 C10.75 15.89, 8.79 16.3, 7.11 16.01 C5.43 15.71, 3.34 14.68, 2.15 13.36 C0.96 12.04, -0.04 9.83, -0.05 8.08 C-0.06 6.33, 0.85 4.16, 2.09 2.88 C3.34 1.61, 6.44 0.89, 7.42 0.43 C8.4 -0.04, 7.92 0.03, 7.97 0.12 M9.3 0.03 C10.86 0.3, 12.85 1.64, 14.14 3.1 C15.44 4.55, 16.89 7.03, 17.05 8.75 C17.22 10.46, 16.34 12.07, 15.14 13.36 C13.93 14.66, 11.56 16.2, 9.82 16.51 C8.07 16.82, 6.25 16.22, 4.66 15.22 C3.07 14.21, 0.99 12.24, 0.26 10.49 C-0.47 8.74, -0.28 6.37, 0.28 4.73 C0.83 3.08, 1.96 1.31, 3.58 0.62 C5.21 -0.07, 9.09 0.69, 10.05 0.59 C11.02 0.48, 9.32 -0.11, 9.36 -0.03" stroke="#1e1e1e" stroke-width="4" fill="none"></path></g><g stroke-linecap="round" transform="translate(140.09416114764463 126.9327850499285) rotate(0 13.74907417799841 12.090573189601855)"><path d="M6.05 0 C9.26 -0.25, 11.97 -0.07, 21.45 0 M6.05 0 C11.27 -0.4, 15.4 -0.29, 21.45 0 M21.45 0 C23.68 1.78, 25.89 3.42, 27.5 6.05 M21.45 0 C25.18 -0.24, 27.68 1.88, 27.5 6.05 M27.5 6.05 C28.02 9.77, 27.91 13.98, 27.5 18.14 M27.5 6.05 C27.07 10.45, 26.99 15.11, 27.5 18.14 M27.5 18.14 C28.34 23.29, 26.49 23.43, 21.45 24.18 M27.5 18.14 C27.58 22.31, 27.03 23.45, 21.45 24.18 M21.45 24.18 C15.87 22.84, 12.18 24.54, 6.05 24.18 M21.45 24.18 C16.53 24.26, 9.92 23.63, 6.05 24.18 M6.05 24.18 C2.84 23.8, -0.65 21.97, 0 18.14 M6.05 24.18 C1.54 25.37, 1.13 24.22, 0 18.14 M0 18.14 C-0.37 13.14, 1.05 10.7, 0 6.05 M0 18.14 C0.37 14.18, 0.31 10.28, 0 6.05 M0 6.05 C1.65 2.22, 3.06 1.68, 6.05 0 M0 6.05 C-1.25 0.73, 1.67 1.5, 6.05 0" stroke="#1e1e1e" stroke-width="4" fill="none"></path></g><g stroke-linecap="round" transform="translate(363.0285412250305 95.21964773966465) rotate(0 7.60813210834749 8.290678758583454)"><path d="M9.73 0.24 C11.28 0.48, 13.18 1.87, 14.07 3.3 C14.95 4.72, 15.2 7.02, 15.04 8.79 C14.88 10.56, 14.16 12.69, 13.11 13.91 C12.07 15.13, 10.39 15.89, 8.76 16.11 C7.14 16.33, 4.82 16.18, 3.34 15.23 C1.86 14.28, 0.38 12.16, -0.12 10.42 C-0.62 8.68, -0.31 6.39, 0.33 4.81 C0.97 3.22, 2.12 1.64, 3.71 0.93 C5.3 0.22, 8.74 0.56, 9.86 0.55 C10.99 0.53, 10.46 0.74, 10.46 0.85 M8.01 -0.7 C9.44 -0.82, 11.15 0.08, 12.35 1.36 C13.54 2.64, 14.93 5.21, 15.19 6.99 C15.45 8.76, 14.64 10.59, 13.89 12 C13.14 13.42, 12.05 14.91, 10.68 15.49 C9.31 16.08, 7.14 15.98, 5.67 15.51 C4.2 15.04, 2.78 13.98, 1.87 12.68 C0.96 11.38, 0.02 9.51, 0.19 7.71 C0.37 5.91, 1.85 3.28, 2.93 1.88 C4.01 0.49, 6.03 -0.28, 6.66 -0.65 C7.28 -1.01, 6.66 -0.68, 6.68 -0.31" stroke="#1e1e1e" stroke-width="4" fill="none"></path></g><g stroke-linecap="round" transform="translate(357.5941611476446 113.1827850499285) rotate(0 12.49907417799841 12.090573189601855)"><path d="M6.05 0 C10.06 0.49, 12.29 0.96, 18.95 0 M6.05 0 C9.78 0.08, 13.87 -0.05, 18.95 0 M18.95 0 C23.92 -1.63, 24.51 1.98, 25 6.05 M18.95 0 C20.9 -1.34, 23.74 0.91, 25 6.05 M25 6.05 C25.53 9.46, 25.54 11.84, 25 18.14 M25 6.05 C24.42 10.48, 24.41 13.86, 25 18.14 M25 18.14 C23.97 22.55, 24.17 22.99, 18.95 24.18 M25 18.14 C24.52 22.78, 21.52 25.38, 18.95 24.18 M18.95 24.18 C16.45 25.12, 14.26 23.73, 6.05 24.18 M18.95 24.18 C15.8 23.59, 14.11 23.53, 6.05 24.18 M6.05 24.18 C3.37 25.24, 0.03 23.7, 0 18.14 M6.05 24.18 C4.07 24.08, 0.69 23.62, 0 18.14 M0 18.14 C-1.25 13.93, 0.87 10.18, 0 6.05 M0 18.14 C-0.03 13.77, 0.46 8.65, 0 6.05 M0 6.05 C-1.27 3.54, 0.09 1.74, 6.05 0 M0 6.05 C-1.03 3.23, -0.25 -1.9, 6.05 0" stroke="#1e1e1e" stroke-width="4" fill="none"></path></g><g stroke-linecap="round" transform="translate(401.0720194859023 112.71964773966465) rotate(0 8.369001673563616 8.290678758583454)"><path d="M8.24 0.47 C10 0.28, 12.84 0.57, 14.21 1.56 C15.58 2.55, 16.12 4.6, 16.44 6.42 C16.76 8.24, 16.9 10.81, 16.12 12.48 C15.33 14.15, 13.53 15.88, 11.74 16.44 C9.94 17.01, 7.06 16.48, 5.34 15.85 C3.63 15.22, 2.3 14.2, 1.45 12.66 C0.6 11.12, 0.06 8.35, 0.24 6.63 C0.41 4.9, 1.14 3.38, 2.51 2.3 C3.88 1.22, 7.37 0.44, 8.47 0.15 C9.58 -0.14, 9.01 0.36, 9.13 0.56 M7.53 0.06 C9 -0.14, 11.48 0.64, 12.94 1.8 C14.41 2.97, 15.78 5.31, 16.31 7.07 C16.83 8.83, 17.01 10.76, 16.09 12.37 C15.17 13.97, 12.47 16.1, 10.81 16.7 C9.15 17.29, 7.78 16.63, 6.12 15.95 C4.47 15.26, 1.8 14.02, 0.89 12.59 C-0.02 11.16, 0.44 8.97, 0.64 7.35 C0.84 5.73, 0.93 4.07, 2.09 2.84 C3.26 1.61, 6.74 0.5, 7.64 -0.04 C8.54 -0.57, 7.38 -0.49, 7.49 -0.39" stroke="#1e1e1e" stroke-width="4" fill="none"></path></g><g stroke-linecap="round" transform="translate(395.0941611476446 130.6827850499285) rotate(0 13.74907417799841 12.090573189601855)"><path d="M6.05 0 C11.64 0.34, 16.01 1.44, 21.45 0 M6.05 0 C11.45 0.81, 18.24 0.82, 21.45 0 M21.45 0 C26.95 -0.69, 26.56 3.3, 27.5 6.05 M21.45 0 C26.49 0.5, 26.44 -0.17, 27.5 6.05 M27.5 6.05 C26.48 11.28, 28.12 16.2, 27.5 18.14 M27.5 6.05 C27.16 9.56, 27.14 13.01, 27.5 18.14 M27.5 18.14 C26.84 23.48, 26.38 24.64, 21.45 24.18 M27.5 18.14 C25.4 24.36, 26.56 23.49, 21.45 24.18 M21.45 24.18 C18.06 22.89, 15.23 23.37, 6.05 24.18 M21.45 24.18 C17.1 23.79, 11.85 24.4, 6.05 24.18 M6.05 24.18 C1.55 25.06, 0.36 21.62, 0 18.14 M6.05 24.18 C2.25 25.35, 1.43 24.37, 0 18.14 M0 18.14 C-0.6 14.64, 0.53 11.36, 0 6.05 M0 18.14 C-0.18 15.31, -0.48 12.53, 0 6.05 M0 6.05 C-1.13 1.51, 2.65 1.21, 6.05 0 M0 6.05 C1.63 2.26, 2.77 -0.41, 6.05 0" stroke="#1e1e1e" stroke-width="4" fill="none"></path></g><g stroke-linecap="round" transform="translate(436.0720194859023 95.21964773966465) rotate(0 8.369001673563616 8.290678758583454)"><path d="M10.55 0.08 C12.18 0.29, 14.18 1.59, 15.24 3.07 C16.31 4.55, 17.07 7.06, 16.95 8.95 C16.82 10.85, 15.81 13.16, 14.48 14.44 C13.15 15.72, 10.76 16.54, 8.98 16.63 C7.19 16.73, 5.24 16.06, 3.77 15 C2.3 13.94, 0.7 11.94, 0.17 10.28 C-0.36 8.62, -0.17 6.59, 0.61 5.06 C1.38 3.53, 3.14 1.94, 4.82 1.12 C6.5 0.31, 9.65 0.19, 10.69 0.17 C11.72 0.15, 11.11 0.79, 11.03 1.01 M8.86 -0.6 C10.45 -0.71, 11.92 0.79, 13.29 1.92 C14.65 3.05, 16.73 4.36, 17.05 6.17 C17.37 7.98, 16.18 11.01, 15.22 12.76 C14.26 14.51, 12.91 16.04, 11.31 16.68 C9.71 17.32, 7.24 17.3, 5.6 16.59 C3.96 15.89, 2.38 14.2, 1.48 12.46 C0.57 10.72, -0.02 7.91, 0.19 6.16 C0.39 4.42, 1.32 3.01, 2.71 2 C4.1 0.99, 7.7 0.29, 8.53 0.09 C9.37 -0.1, 7.68 0.79, 7.73 0.84" stroke="#1e1e1e" stroke-width="4" fill="none"></path></g><g stroke-linecap="round" transform="translate(430.0941611476446 113.1827850499285) rotate(0 13.74907417799841 12.090573189601855)"><path d="M6.05 0 C11.76 1.36, 15.2 0.53, 21.45 0 M6.05 0 C10.53 0.28, 14.43 0.74, 21.45 0 M21.45 0 C24.29 0.41, 27.72 1.28, 27.5 6.05 M21.45 0 C24.72 -1.51, 27.02 2.52, 27.5 6.05 M27.5 6.05 C27.16 10.04, 28.54 13.25, 27.5 18.14 M27.5 6.05 C27.5 10.92, 27.01 14.63, 27.5 18.14 M27.5 18.14 C27.46 23.34, 23.69 23.11, 21.45 24.18 M27.5 18.14 C28.52 22.38, 27.34 24.45, 21.45 24.18 M21.45 24.18 C15.92 22.75, 9.56 24.3, 6.05 24.18 M21.45 24.18 C17.17 24.49, 11.08 23.47, 6.05 24.18 M6.05 24.18 C2.08 22.69, 1.58 21.64, 0 18.14 M6.05 24.18 C1.15 23.2, 2.17 20.15, 0 18.14 M0 18.14 C-0.68 15, -0.15 12.97, 0 6.05 M0 18.14 C0.09 14.91, 0.47 12.09, 0 6.05 M0 6.05 C-1.46 1.53, 2.86 1.35, 6.05 0 M0 6.05 C1.94 0.47, 2.17 -0.53, 6.05 0" stroke="#1e1e1e" stroke-width="4" fill="none"></path></g></svg>