<svg xmlns="http://www.w3.org/2000/svg" xmlns:xlink="http://www.w3.org/1999/xlink" width="200" height="60"><defs><pattern xlink:href="#a" id="b" patternTransform="matrix(.19597 0 0 .35899 -272.25 313.176)"/><pattern patternUnits="userSpaceOnUse" width="205.061" height="62.629" patternTransform="translate(213.142 128.073)" id="a"><path d="M0 0h205.061v62.629H0z"/></pattern></defs><g transform="translate(280.822 -299.303)"><g style="line-height:100%;-inkscape-font-specification:'Ubuntu, Medium';text-align:start" font-weight="500" font-size="37.5" font-family="Ubuntu" letter-spacing="0" word-spacing="0" stroke="#000" stroke-width="1.3" stroke-linejoin="round"><path d="M-214.51 338.696q-2.662 0-4.575-.75-1.912-.788-3.187-2.175-1.238-1.388-1.838-3.263-.6-1.875-.6-4.125v-16.237h4.763v15.787q0 1.763.375 3.038.412 1.237 1.125 2.025.75.787 1.725 1.162 1.012.375 2.25.375 1.237 0 2.25-.375 1.012-.375 1.725-1.162.75-.788 1.125-2.025.412-1.275.412-3.038v-15.787h4.763v16.237q0 2.25-.638 4.125-.6 1.875-1.875 3.263-1.237 1.387-3.187 2.175-1.95.75-4.613.75zM-198.38 319.158q1.312-.375 3.412-.712 2.1-.338 4.65-.338 2.4 0 4.013.675 1.612.638 2.55 1.838.975 1.162 1.35 2.85.412 1.65.412 3.637v11.025h-4.537v-10.312q0-1.575-.225-2.663-.188-1.125-.675-1.8-.45-.712-1.275-1.012-.788-.338-1.95-.338-.863 0-1.8.113-.938.112-1.388.187v15.825h-4.537v-18.975zM-169.583 338.508q-2.025-.037-3.375-.45-1.312-.412-2.1-1.162-.787-.788-1.125-1.913-.3-1.162-.3-2.625v-22.575l4.538-.75v22.463q0 .825.112 1.387.15.563.488.975.337.375.9.6.6.188 1.5.3l-.638 3.75zM-166.362 328.42q0-2.587.75-4.537.787-1.95 2.062-3.225 1.275-1.312 2.925-1.95 1.65-.675 3.375-.675 4.05 0 6.3 2.513 2.288 2.512 2.288 7.5 0 .375-.038.862 0 .45-.037.825h-12.938q.188 2.363 1.65 3.675 1.5 1.275 4.313 1.275 1.65 0 3-.3 1.387-.3 2.175-.637l.6 3.712q-.375.188-1.05.413-.638.187-1.5.337-.825.188-1.8.3-.975.113-1.988.113-2.587 0-4.5-.75-1.912-.788-3.15-2.138-1.237-1.387-1.837-3.225-.6-1.875-.6-4.087zm13.162-2.024q0-.938-.262-1.763-.263-.862-.788-1.462-.487-.638-1.237-.975-.713-.375-1.725-.375-1.05 0-1.838.412-.787.375-1.35 1.013-.525.637-.825 1.462-.3.825-.412 1.688h8.437zM-136.988 334.946q2.1 0 3.187-.225v-5.025q-.375-.113-1.087-.225-.713-.113-1.575-.113-.75 0-1.538.113-.75.112-1.387.412-.6.3-.975.863-.375.525-.375 1.35 0 1.612 1.012 2.25 1.013.6 2.738.6zm-.375-16.913q2.25 0 3.787.563 1.538.562 2.438 1.575.937 1.012 1.312 2.475.413 1.425.413 3.15v11.887q-1.05.225-3.188.525-2.1.338-4.762.338-1.763 0-3.225-.338-1.463-.337-2.513-1.087-1.012-.75-1.612-1.95-.563-1.2-.563-2.963 0-1.687.638-2.85.675-1.162 1.8-1.875 1.125-.75 2.587-1.05 1.5-.337 3.113-.337.75 0 1.575.112.825.075 1.762.3v-.75q0-.787-.187-1.5-.188-.712-.675-1.237-.45-.563-1.238-.863-.75-.3-1.912-.3-1.575 0-2.888.225-1.312.225-2.137.525l-.563-3.675q.863-.3 2.513-.6t3.525-.3zM-118.98 334.87q1.8 0 2.625-.412.825-.45.825-1.5 0-.975-.9-1.612-.863-.638-2.888-1.388-1.237-.45-2.287-.937-1.013-.525-1.763-1.2-.75-.675-1.2-1.613-.412-.975-.412-2.362 0-2.7 1.987-4.238 1.988-1.575 5.4-1.575 1.725 0 3.3.338 1.575.3 2.363.6l-.825 3.675q-.75-.338-1.913-.6-1.162-.3-2.7-.3-1.387 0-2.25.487-.862.45-.862 1.425 0 .488.15.863.187.375.6.712.412.3 1.087.638.675.3 1.65.637 1.613.6 2.738 1.2 1.125.563 1.837 1.313.75.712 1.088 1.65.337.937.337 2.25 0 2.812-2.1 4.275-2.062 1.425-5.925 1.425-2.587 0-4.162-.45-1.575-.413-2.213-.675l.788-3.788q1.012.413 2.4.788 1.425.375 3.225.375zM-106.754 338.133v-28.35l4.537-.75v9.713q.75-.263 1.725-.45 1.013-.188 1.988-.188 2.362 0 3.9.675 1.575.638 2.512 1.838.938 1.162 1.313 2.812.412 1.65.412 3.675v11.025h-4.537v-10.312q0-1.575-.225-2.663-.188-1.125-.675-1.8-.45-.712-1.238-1.012-.787-.338-1.95-.338-.9 0-1.837.188-.938.187-1.388.337v15.6h-4.537z" style="line-height:100%;-inkscape-font-specification:'Ubuntu, Medium';text-align:start"/></g><g style="line-height:125%;-inkscape-font-specification:'Ubuntu, Light';text-align:start" font-weight="300" font-size="15" font-family="Ubuntu" letter-spacing="0" word-spacing="0"><path d="M-138.442 342.463h1.02v10.395h-1.02v-4.995h-5.64v4.995h-1.02v-10.395h1.02v4.515h5.64v-4.515zM-125.4 347.653q0 1.335-.39 2.355t-1.066 1.71q-.66.675-1.545 1.02-.885.345-1.875.345t-1.875-.345q-.885-.345-1.56-1.02-.66-.69-1.05-1.71t-.39-2.355q0-1.335.39-2.34.39-1.02 1.05-1.695.675-.69 1.56-1.035t1.875-.345q.99 0 1.875.345t1.545 1.035q.675.675 1.065 1.695.39 1.005.39 2.34zm-1.08 0q0-1.05-.27-1.875-.27-.84-.766-1.425-.495-.585-1.2-.885-.69-.315-1.56-.315-.87 0-1.575.315-.69.3-1.185.885-.495.585-.765 1.425-.27.825-.27 1.875t.27 1.89q.27.825.765 1.41t1.185.9q.705.315 1.575.315t1.56-.315q.705-.315 1.2-.9t.765-1.41q.27-.84.27-1.89zM-120.894 352.198q1.215 0 1.89-.435.675-.45.675-1.44 0-.57-.225-.945-.21-.39-.57-.645-.36-.27-.825-.45-.465-.195-.975-.405-.645-.255-1.155-.525t-.87-.6q-.36-.345-.555-.78-.18-.435-.18-1.02 0-1.335.885-2.025t2.46-.69q.42 0 .825.06.405.06.75.165.36.09.645.21.3.12.495.255l-.36.855q-.435-.3-1.065-.48-.615-.18-1.335-.18-.495 0-.915.105-.405.09-.705.315-.3.21-.48.54-.165.33-.165.795 0 .48.18.81.18.33.495.57.33.24.765.435t.945.405q.615.255 1.155.51.555.255.96.6.405.345.645.84t.24 1.215q0 1.41-.99 2.115-.975.705-2.655.705-.6 0-1.095-.075t-.885-.18q-.39-.12-.66-.24t-.42-.21l.33-.885q.15.09.405.21t.6.24q.345.105.78.18.435.075.96.075zM-108.765 342.463v.885h-3.33v9.51h-1.02v-9.51h-3.33v-.885h7.68zM-107.133 352.858v-10.395h6v.885h-4.98v3.615h4.44v.87h-4.44v4.14h5.37v.885h-6.39zM-90.563 347.653q0 1.335-.42 2.325-.42.99-1.185 1.65-.75.66-1.8.99-1.05.33-2.31.33-.63 0-1.32-.075-.69-.06-1.215-.195v-10.02q.525-.15 1.215-.21.69-.075 1.32-.075 1.26 0 2.31.33t1.8.99q.765.66 1.185 1.65.42.99.42 2.31zm-7.23 4.305q.09.015.45.06.375.045 1.185.045 1.125 0 1.965-.3.84-.315 1.41-.885.57-.57.855-1.38.285-.825.285-1.845t-.285-1.83q-.285-.81-.855-1.38-.57-.57-1.41-.87-.84-.315-1.965-.315-.81 0-1.185.045-.36.045-.45.06v8.595z" style="line-height:125%;-inkscape-font-specification:'Ubuntu, Light';text-align:start"/></g><rect width="40.186" height="22.483" x="-272.25" y="313.176" rx="9.74" fill="url(#b)"/><rect width="14.489" height="12.604" x="-251.449" y="318.377" rx="4.135" fill="#fff"/></g></svg>