<svg id="bg" xmlns="http://www.w3.org/2000/svg" viewBox="0 0 653.4 251.24" aria-label="Unleash logo" class="mui-1nbic85"><defs><style>.cls-1{fill:#fff}.cls-2{fill:#1a4049}</style></defs><circle class="cls-1" cx="125.62" cy="125.62" r="80"/><path class="cls-1" d="M137.05 91.33v45.72h22.85V91.33h-22.85zM114.19 114.19V91.33H91.33v68.57h45.72v-22.85h-22.86v-22.86z"/><path class="cls-2" d="M137.05 91.33v45.72h22.85V91.33h-22.85zM114.19 114.19V91.33H91.33v68.57h45.72v-22.85h-22.86v-22.86z"/><path style="fill:#817afe" d="M137.05 137.05h22.86v22.86h-22.86z"/><path class="cls-1" d="M251.58 139.13v-26.36h11.93v25.06c0 7.36 3.91 12.2 11.27 12.2s11.27-4.84 11.27-12.2v-25.06h12v26.36c0 12.67-8.48 21.8-23.1 21.8-14.89 0-23.37-9.13-23.37-21.8ZM321.91 159.9h-11.83v-47.13h11.83v7.92a17.93 17.93 0 0 1 15.65-9c11.83 0 19.66 8.67 19.66 20.68v27.53h-12v-25.15c0-7.45-4.38-12.39-11.46-12.39s-11.83 5-11.83 12.39ZM369.42 91.34h11.92v68.56h-11.92ZM441.24 137v1.3h-37.45c.47 7.36 5.87 13 13.69 13 7.55 0 10.62-3.82 11.46-5.12h11.74c-.75 4.84-7.17 15-23.2 15-15.27 0-25.61-10.61-25.61-24.77 0-14.63 10.24-24.78 24.68-24.78s24.69 9.99 24.69 25.37Zm-37.08-6.9h24.6c-1.77-6-6.15-9.31-12.21-9.31-6.43-.01-10.9 3.44-12.39 9.3ZM467.78 130.37h15.47c0-5.68-4.29-9.31-11.27-9.31-6.62 0-9 3.54-9.78 4.75h-12c1-4.94 6.89-14.25 21.8-14.25 14.62 0 22.73 7.64 22.73 18.81v15.93c0 2.89 1 4 3.72 4.29v9.59h-3.72c-6.06-.09-9.69-2.33-11-6.52-2.23 3.45-7.26 7.27-15.27 7.27-11.09 0-19.47-6.24-19.47-15.93s7.15-14.63 18.79-14.63Zm15.47 12.11v-4h-13.51c-5.59 0-9 2-9 6.33 0 4.57 4.29 7.27 10.25 7.27 6.67 0 12.26-3.26 12.26-9.6ZM523.12 140.62c-10.34-.74-17.33-5.59-17.33-14.72 0-8.85 8.1-14.44 20.77-14.44 17 0 21.8 8.76 23.1 13.32h-12.57c-.84-1-3.54-4.28-10.62-4.28-5.68 0-8.66 1.86-8.66 4.75 0 2.61 2 4.29 6.7 4.94l8 .84c12.77 1.11 18 6 18 15.27 0 8.85-7.36 14.91-21.8 14.91-17.51 0-23.19-10.16-24.12-14.53h12.76c.47 1.11 3.35 5.31 11.36 5.31 6.62 0 9.69-2.24 9.69-5.22s-1.67-4.66-7-5.31c-3.35-.28-5.02-.46-8.28-.84ZM571.55 159.9h-11.83V91.34h11.83v29.35a17.93 17.93 0 0 1 15.65-9c11.83 0 19.66 8.67 19.66 20.68v27.53h-12v-25.15c0-7.45-4.38-12.39-11.46-12.39s-11.83 5-11.83 12.39Z"/></svg>