<svg width="562" height="161" viewBox="0 0 562 161" fill="none" xmlns="http://www.w3.org/2000/svg">
<path d="M80.6201 160.62C124.803 160.62 160.62 124.803 160.62 80.62C160.62 36.4372 124.803 0.619995 80.6201 0.619995C36.4373 0.619995 0.620117 36.4372 0.620117 80.62C0.620117 124.803 36.4373 160.62 80.6201 160.62Z" fill="white"/>
<path d="M92.0501 46.33V92.05H114.9V46.33H92.0501ZM69.1901 69.19V46.33H46.3301V114.9H92.0501V92.05H69.1901V69.19Z" fill="white"/>
<path d="M92.0501 46.33V92.05H114.9V46.33H92.0501ZM69.1901 69.19V46.33H46.3301V114.9H92.0501V92.05H69.1901V69.19Z" fill="#1A4049"/>
<path d="M92.05 92.05H114.91V114.91H92.05V92.05Z" fill="#817AFE"/>
<path d="M206.58 94.13V67.77H218.51V92.83C218.51 100.19 222.42 105.03 229.78 105.03C237.14 105.03 241.05 100.19 241.05 92.83V67.77H253.05V94.13C253.05 106.8 244.57 115.93 229.95 115.93C215.06 115.93 206.58 106.8 206.58 94.13ZM276.91 114.9H265.08V67.77H276.91V75.69C278.49 72.9398 280.77 70.6577 283.52 69.0766C286.269 67.4955 289.389 66.672 292.56 66.69C304.39 66.69 312.22 75.36 312.22 87.37V114.9H300.22V89.75C300.22 82.3 295.84 77.36 288.76 77.36C281.68 77.36 276.93 82.36 276.93 89.75L276.91 114.9ZM324.42 46.34H336.34V114.9H324.42V46.34ZM396.24 92V93.3H358.79C359.26 100.66 364.66 106.3 372.48 106.3C380.03 106.3 383.1 102.48 383.94 101.18H395.68C394.93 106.02 388.51 116.18 372.48 116.18C357.21 116.18 346.87 105.57 346.87 91.41C346.87 76.78 357.11 66.63 371.55 66.63C385.99 66.63 396.24 76.62 396.24 92ZM359.16 85.1H383.76C381.99 79.1 377.61 75.79 371.55 75.79C365.12 75.78 360.65 79.23 359.16 85.09V85.1ZM422.78 85.37H438.25C438.25 79.69 433.96 76.06 426.98 76.06C420.36 76.06 417.98 79.6 417.2 80.81H405.2C406.2 75.87 412.09 66.56 427 66.56C441.62 66.56 449.73 74.2 449.73 85.37V101.3C449.73 104.19 450.73 105.3 453.45 105.59V115.18H449.73C443.67 115.09 440.04 112.85 438.73 108.66C436.5 112.11 431.47 115.93 423.46 115.93C412.37 115.93 403.99 109.69 403.99 100C403.99 90.31 411.14 85.37 422.78 85.37ZM438.25 97.48V93.48H424.74C419.15 93.48 415.74 95.48 415.74 99.81C415.74 104.38 420.03 107.08 425.99 107.08C432.66 107.08 438.25 103.82 438.25 97.48ZM478.12 95.62C467.78 94.88 460.79 90.03 460.79 80.9C460.79 72.05 468.89 66.46 481.56 66.46C498.56 66.46 503.36 75.22 504.66 79.78H492.09C491.25 78.78 488.55 75.5 481.47 75.5C475.79 75.5 472.81 77.36 472.81 80.25C472.81 82.86 474.81 84.54 479.51 85.19L487.51 86.03C500.28 87.14 505.51 92.03 505.51 101.3C505.51 110.15 498.15 116.21 483.71 116.21C466.2 116.21 460.52 106.05 459.59 101.68H472.35C472.82 102.79 475.7 106.99 483.71 106.99C490.33 106.99 493.4 104.75 493.4 101.77C493.4 98.79 491.73 97.11 486.4 96.46C483.05 96.18 481.38 96 478.12 95.62ZM526.55 114.9H514.72V46.34H526.55V75.69C528.13 72.9398 530.41 70.6577 533.16 69.0766C535.909 67.4955 539.029 66.672 542.2 66.69C554.03 66.69 561.86 75.36 561.86 87.37V114.9H549.86V89.75C549.86 82.3 545.48 77.36 538.4 77.36C531.32 77.36 526.57 82.36 526.57 89.75L526.55 114.9Z" fill="white"/>
</svg>
