<svg width="562" height="160" viewBox="0 0 562 160" fill="none" xmlns="http://www.w3.org/2000/svg">
<path d="M80 160C124.183 160 160 124.183 160 80C160 35.8172 124.183 0 80 0C35.8172 0 0 35.8172 0 80C0 124.183 35.8172 160 80 160Z" fill="#1A4049"/>
<path d="M91.43 45.71V91.43H114.28V45.71H91.43ZM68.57 68.57V45.71H45.71V114.28H91.43V91.43H68.57V68.57Z" fill="white"/>
<path d="M91.43 45.71V91.43H114.28V45.71H91.43ZM68.57 68.57V45.71H45.71V114.28H91.43V91.43H68.57V68.57Z" fill="white"/>
<path d="M91.4299 91.43H114.29V114.29H91.4299V91.43Z" fill="#817AFE"/>
<path d="M205.96 93.51V67.15H217.89V92.21C217.89 99.57 221.8 104.41 229.16 104.41C236.52 104.41 240.43 99.57 240.43 92.21V67.15H252.43V93.51C252.43 106.18 243.95 115.31 229.33 115.31C214.44 115.31 205.96 106.18 205.96 93.51ZM276.29 114.28H264.46V67.15H276.29V75.07C277.869 72.3198 280.15 70.0377 282.9 68.4566C285.649 66.8755 288.768 66.052 291.94 66.07C303.77 66.07 311.6 74.74 311.6 86.75V114.28H299.6V89.13C299.6 81.68 295.22 76.74 288.14 76.74C281.06 76.74 276.31 81.74 276.31 89.13L276.29 114.28ZM323.8 45.72H335.72V114.28H323.8V45.72ZM395.62 91.38V92.68H358.17C358.64 100.04 364.04 105.68 371.86 105.68C379.41 105.68 382.48 101.86 383.32 100.56H395.06C394.31 105.4 387.89 115.56 371.86 115.56C356.59 115.56 346.25 104.95 346.25 90.79C346.25 76.16 356.49 66.01 370.93 66.01C385.37 66.01 395.62 76 395.62 91.38ZM358.54 84.48H383.14C381.37 78.48 376.99 75.17 370.93 75.17C364.5 75.16 360.03 78.61 358.54 84.47V84.48ZM422.16 84.75H437.63C437.63 79.07 433.34 75.44 426.36 75.44C419.74 75.44 417.36 78.98 416.58 80.19H404.58C405.58 75.25 411.47 65.94 426.38 65.94C441 65.94 449.11 73.58 449.11 84.75V100.68C449.11 103.57 450.11 104.68 452.83 104.97V114.56H449.11C443.05 114.47 439.42 112.23 438.11 108.04C435.88 111.49 430.85 115.31 422.84 115.31C411.75 115.31 403.37 109.07 403.37 99.38C403.37 89.69 410.52 84.75 422.16 84.75ZM437.63 96.86V92.86H424.12C418.53 92.86 415.12 94.86 415.12 99.19C415.12 103.76 419.41 106.46 425.37 106.46C432.04 106.46 437.63 103.2 437.63 96.86ZM477.5 95C467.16 94.26 460.17 89.41 460.17 80.28C460.17 71.43 468.27 65.84 480.94 65.84C497.94 65.84 502.74 74.6 504.04 79.16H491.47C490.63 78.16 487.93 74.88 480.85 74.88C475.17 74.88 472.19 76.74 472.19 79.63C472.19 82.24 474.19 83.92 478.89 84.57L486.89 85.41C499.66 86.52 504.89 91.41 504.89 100.68C504.89 109.53 497.53 115.59 483.09 115.59C465.58 115.59 459.9 105.43 458.97 101.06H471.73C472.2 102.17 475.08 106.37 483.09 106.37C489.71 106.37 492.78 104.13 492.78 101.15C492.78 98.17 491.11 96.49 485.78 95.84C482.43 95.56 480.76 95.38 477.5 95ZM525.93 114.28H514.1V45.72H525.93V75.07C527.509 72.3198 529.79 70.0377 532.54 68.4566C535.289 66.8755 538.408 66.052 541.58 66.07C553.41 66.07 561.24 74.74 561.24 86.75V114.28H549.24V89.13C549.24 81.68 544.86 76.74 537.78 76.74C530.7 76.74 525.95 81.74 525.95 89.13L525.93 114.28Z" fill="#1A4049"/>
</svg>
