<svg width="32" height="32" fill="none" xmlns="http://www.w3.org/2000/svg"><path fill="#F7F7FA" d="M0 0h32v32H0z"/><path fill-rule="evenodd" clip-rule="evenodd" d="m10.08 26 14.783-1.006L26 10.044 21.497 19.2 10.08 26Z" fill="url(#a)"/><path fill-rule="evenodd" clip-rule="evenodd" d="m20.151 20.773 4.732 4.212-1.27-8.796-3.462 4.584Z" fill="url(#b)"/><path fill-rule="evenodd" clip-rule="evenodd" d="m10.124 25.978 14.775-.997-9.309-.733-5.466 1.73Z" fill="url(#c)"/><path fill-rule="evenodd" clip-rule="evenodd" d="m7.344 19.44 2.791 6.543 2.326-7.64-5.117 1.097Z" fill="url(#d)"/><path fill-rule="evenodd" clip-rule="evenodd" d="m11.89 18.148 8.263 2.65-2.14-8.406-6.122 5.756Z" fill="url(#e)"/><path fill-rule="evenodd" clip-rule="evenodd" d="m18.113 12.995 7.4-.485-5.788-4.742-1.612 5.227Z" fill="url(#f)"/><path fill-rule="evenodd" clip-rule="evenodd" d="m17.256 6.053 5.552.026-3.404 1.886-2.148-1.912Z" fill="url(#g)"/><path fill-rule="evenodd" clip-rule="evenodd" d="M6.272 16.286 6 22.002l1.426-2.608-1.154-3.108Z" fill="url(#h)"/><path fill-rule="evenodd" clip-rule="evenodd" d="m6.196 16.189 1.16 3.302 5.044-1.135 5.758-5.367 1.625-5.177L17.224 6l-4.35 1.633c-1.37 1.278-4.03 3.808-4.125 3.856-.095.048-1.756 3.197-2.553 4.7Z" fill="#fff"/><path fill-rule="evenodd" clip-rule="evenodd" d="M10.274 10.257c2.97-2.954 6.8-4.699 8.269-3.212 1.468 1.487-.09 5.101-3.06 8.054-2.97 2.953-6.751 4.794-8.22 3.307-1.47-1.486.04-5.196 3.01-8.149Z" fill="url(#i)"/><path fill-rule="evenodd" clip-rule="evenodd" d="m10.14 25.98 2.308-7.665 7.662 2.47c-2.77 2.605-5.852 4.808-9.97 5.195Z" fill="url(#j)"/><path fill-rule="evenodd" clip-rule="evenodd" d="m18.167 12.973 1.967 7.815c2.314-2.44 4.391-5.064 5.409-8.31l-7.376.495Z" fill="url(#k)"/><path fill-rule="evenodd" clip-rule="evenodd" d="M25.52 12.518c.788-2.383.97-5.801-2.743-6.436L19.731 7.77l5.79 4.748Z" fill="url(#l)"/><path fill-rule="evenodd" clip-rule="evenodd" d="M6.001 21.968c.109 3.933 2.938 3.992 4.143 4.026l-2.784-6.52-1.359 2.494Z" fill="#9E1209"/><path fill-rule="evenodd" clip-rule="evenodd" d="M18.185 12.985c1.778 1.096 5.362 3.297 5.434 3.338.113.064 1.546-2.422 1.87-3.827l-7.304.489Z" fill="url(#m)"/><path fill-rule="evenodd" clip-rule="evenodd" d="m12.442 18.315 3.085 5.968c1.823-.992 3.252-2.2 4.56-3.495l-7.645-2.473Z" fill="url(#n)"/><path fill-rule="evenodd" clip-rule="evenodd" d="m7.346 19.483-.437 5.22c.825 1.13 1.96 1.227 3.149 1.14-.86-2.15-2.58-6.447-2.712-6.36Z" fill="url(#o)"/><path fill-rule="evenodd" clip-rule="evenodd" d="m19.72 7.782 6.127.863c-.327-1.39-1.331-2.287-3.043-2.567L19.72 7.782Z" fill="url(#p)"/><defs><linearGradient id="a" x1="23.573" y1="27.819" x2="19.335" y2="20.359" gradientUnits="userSpaceOnUse"><stop stop-color="#FB7655"/><stop offset=".41" stop-color="#E42B1E"/><stop offset=".99" stop-color="#900"/><stop offset="1" stop-color="#900"/></linearGradient><linearGradient id="b" x1="25.67" y1="21.545" x2="20.224" y2="17.9" gradientUnits="userSpaceOnUse"><stop stop-color="#871101"/><stop offset=".99" stop-color="#911209"/><stop offset="1" stop-color="#911209"/></linearGradient><linearGradient id="c" x1="21.319" y1="28.042" x2="15.872" y2="24.398" gradientUnits="userSpaceOnUse"><stop stop-color="#871101"/><stop offset=".99" stop-color="#911209"/><stop offset="1" stop-color="#911209"/></linearGradient><linearGradient id="d" x1="9.903" y1="18.896" x2="10.751" y2="24.389" gradientUnits="userSpaceOnUse"><stop stop-color="#fff"/><stop offset=".23" stop-color="#E57252"/><stop offset=".46" stop-color="#DE3B20"/><stop offset=".99" stop-color="#A60003"/><stop offset="1" stop-color="#A60003"/></linearGradient><linearGradient id="e" x1="15.706" y1="13.765" x2="16.018" y2="19.372" gradientUnits="userSpaceOnUse"><stop stop-color="#fff"/><stop offset=".23" stop-color="#E4714E"/><stop offset=".56" stop-color="#BE1A0D"/><stop offset=".99" stop-color="#A80D00"/><stop offset="1" stop-color="#A80D00"/></linearGradient><linearGradient id="f" x1="20.849" y1="8.583" x2="21.784" y2="12.6" gradientUnits="userSpaceOnUse"><stop stop-color="#fff"/><stop offset=".18" stop-color="#E46342"/><stop offset=".4" stop-color="#C82410"/><stop offset=".99" stop-color="#A80D00"/><stop offset="1" stop-color="#A80D00"/></linearGradient><linearGradient id="g" x1="18.011" y1="7.169" x2="22.022" y2="5.17" gradientUnits="userSpaceOnUse"><stop stop-color="#fff"/><stop offset=".54" stop-color="#C81F11"/><stop offset=".99" stop-color="#BF0905"/><stop offset="1" stop-color="#BF0905"/></linearGradient><linearGradient id="h" x1="6.394" y1="17.494" x2="6.726" y2="20.805" gradientUnits="userSpaceOnUse"><stop stop-color="#fff"/><stop offset=".31" stop-color="#DE4024"/><stop offset=".99" stop-color="#BF190B"/><stop offset="1" stop-color="#BF190B"/></linearGradient><linearGradient id="i" x1="4.129" y1="21.702" x2="19.677" y2="5.763" gradientUnits="userSpaceOnUse"><stop stop-color="#BD0012"/><stop offset=".07" stop-color="#fff"/><stop offset=".17" stop-color="#fff"/><stop offset=".27" stop-color="#C82F1C"/><stop offset=".33" stop-color="#820C01"/><stop offset=".46" stop-color="#A31601"/><stop offset=".72" stop-color="#B31301"/><stop offset=".99" stop-color="#E82609"/><stop offset="1" stop-color="#E82609"/></linearGradient><linearGradient id="j" x1="16.002" y1="23.313" x2="11.332" y2="22.164" gradientUnits="userSpaceOnUse"><stop stop-color="#8C0C01"/><stop offset=".54" stop-color="#990C00"/><stop offset=".99" stop-color="#A80D0E"/><stop offset="1" stop-color="#A80D0E"/></linearGradient><linearGradient id="k" x1="24.017" y1="17.693" x2="19.859" y2="13.977" gradientUnits="userSpaceOnUse"><stop stop-color="#7E110B"/><stop offset=".99" stop-color="#9E0C00"/><stop offset="1" stop-color="#9E0C00"/></linearGradient><linearGradient id="l" x1="25.539" y1="10.853" x2="23.466" y2="8.643" gradientUnits="userSpaceOnUse"><stop stop-color="#79130D"/><stop offset=".99" stop-color="#9E120B"/><stop offset="1" stop-color="#9E120B"/></linearGradient><linearGradient id="o" x1="8.691" y1="25.977" x2="6.998" y2="20.25" gradientUnits="userSpaceOnUse"><stop stop-color="#8B2114"/><stop offset=".43" stop-color="#9E100A"/><stop offset=".99" stop-color="#B3100C"/><stop offset="1" stop-color="#B3100C"/></linearGradient><linearGradient id="p" x1="21.611" y1="6.992" x2="25.39" y2="8.654" gradientUnits="userSpaceOnUse"><stop stop-color="#B31000"/><stop offset=".44" stop-color="#910F08"/><stop offset=".99" stop-color="#791C12"/><stop offset="1" stop-color="#791C12"/></linearGradient><radialGradient id="m" cx="0" cy="0" r="1" gradientUnits="userSpaceOnUse" gradientTransform="matrix(5.08262 0 0 5.09785 20.522 14.035)"><stop stop-color="#A80D00"/><stop offset=".99" stop-color="#7E0E08"/><stop offset="1" stop-color="#7E0E08"/></radialGradient><radialGradient id="n" cx="0" cy="0" r="1" gradientUnits="userSpaceOnUse" gradientTransform="matrix(6.75667 0 0 6.77692 13.478 20.753)"><stop stop-color="#A30C00"/><stop offset=".99" stop-color="#800E08"/><stop offset="1" stop-color="#800E08"/></radialGradient></defs></svg>