<svg xmlns="http://www.w3.org/2000/svg" width="32" height="32" fill="none">
    <path fill="#F05138" d="M0 0h32v32H0z"/>
    <path fill="#F05138" d="M28 10.646v-.725c-.023-.522-.045-1.067-.136-1.588a5.064 5.064 0 0 0-.499-1.497c-.249-.477-.543-.908-.929-1.27a5.53 5.53 0 0 0-1.269-.93 5.054 5.054 0 0 0-1.496-.5A9.169 9.169 0 0 0 22.085 4H9.915c-.136 0-.272 0-.385.023-.386.022-.793.045-1.179.113-.385.068-.77.182-1.133.318-.113.045-.25.113-.362.158-.363.182-.68.409-.998.658-.09.091-.204.182-.294.273-.386.385-.68.816-.93 1.27-.249.476-.407.975-.498 1.497-.09.522-.113 1.043-.136 1.588v12.181c.023.522.045 1.067.136 1.588.09.522.25 1.021.499 1.497.249.477.543.908.929 1.27.385.386.816.681 1.269.93.476.25.974.41 1.496.5.52.09 1.042.136 1.586.136h12.17c.521-.023 1.065-.045 1.586-.136.522-.09 1.02-.25 1.496-.5.476-.249.907-.544 1.27-.93.384-.385.68-.816.928-1.27.25-.476.408-.975.499-1.497.09-.521.136-1.043.136-1.588V10.646Z"/>
    <path fill="#fff" d="m22.992 18.836.068-.272c.997-3.97-1.428-8.689-5.552-11.161 1.813 2.45 2.606 5.421 1.903 8.007a7.93 7.93 0 0 1-.226.68 1.714 1.714 0 0 0-.363-.203s-4.102-2.54-8.544-7.01c-.113-.113 2.38 3.562 5.19 6.533-1.337-.748-5.031-3.448-7.388-5.58.295.476.635.953.997 1.384 1.95 2.495 4.51 5.557 7.57 7.917-2.153 1.315-5.19 1.429-8.204 0a12.27 12.27 0 0 1-2.108-1.248 12.624 12.624 0 0 0 5.643 4.854c2.856 1.225 5.711 1.157 7.819.023 0 0 .022 0 .022-.023.091-.045.182-.113.272-.158 1.02-.522 3.014-1.044 4.102 1.043.318.477.884-2.246-1.2-4.786Z"/>
  </svg>
