<svg width="32" height="32" fill="none" xmlns="http://www.w3.org/2000/svg"><path fill="#F7F7FA" d="M0 0h32v32H0z"/><path d="m23.428 21.04-1.96-1.316-1.634 2.782-1.9-.566-1.674 2.603.086.82 9.1-1.71-.53-5.794-1.488 3.182Zm-8.486-2.498 1.46-.204c.236.108.4.15.683.223.442.117.952.23 1.709-.16.175-.088.542-.43.69-.625l5.982-1.106.61 7.527-10.248 1.883-.886-7.538Zm11.111-2.712-.59.115L24.328 4 5 6.284 7.381 25.98l2.263-.335c-.181-.263-.462-.581-.943-.988-.666-.564-.43-1.523-.037-2.128.52-1.022 3.199-2.322 3.047-3.956-.054-.594-.147-1.368-.688-1.898-.02.22.016.432.016.432s-.222-.289-.333-.683c-.11-.15-.196-.199-.313-.4-.084.233-.073.503-.073.503s-.181-.437-.21-.807c-.109.166-.136.48-.136.48s-.236-.69-.182-1.062c-.108-.323-.428-.965-.337-2.424.59.421 1.888.321 2.394-.439.168-.252.283-.939-.084-2.293-.235-.868-.819-2.161-1.046-2.652l-.027.02c.12.395.367 1.224.462 1.626.287 1.218.364 1.642.229 2.204-.115.488-.39.807-1.087 1.165s-1.622-.514-1.68-.562c-.678-.55-1.202-1.447-1.26-1.883-.061-.477.27-.763.436-1.154-.238.07-.504.193-.504.193s.317-.334.708-.624c.162-.11.257-.179.428-.323-.247-.005-.448.003-.448.003s.413-.227.84-.393c-.313-.014-.612-.002-.612-.002s.92-.42 1.646-.727c.5-.209.988-.147 1.262.257.36.53.738.817 1.54.995.492-.222.641-.336 1.26-.508.544-.61.971-.689.971-.689s-.212.198-.269.51c.309-.248.647-.455.647-.455s-.13.165-.253.427l.029.043c.36-.22.783-.394.783-.394s-.121.156-.263.358c.271-.003.822.011 1.036.036 1.26.028 1.523-1.373 2.007-1.549.606-.22.877-.354 1.91.68.886.888 1.578 2.477 1.234 2.833-.288.295-.856-.115-1.487-.916a3.495 3.495 0 0 1-.703-1.562c-.1-.538-.487-.85-.487-.85s.225.51.225.96c0 .246.03 1.165.417 1.68-.038.076-.056.373-.098.43-.45-.554-1.416-.95-1.574-1.067.534.445 1.76 1.468 2.23 2.448.445.928.183 1.777.408 1.997.064.063.958 1.198 1.13 1.768.3.994.017 2.038-.375 2.685l-1.096.174c-.16-.045-.268-.068-.412-.153.08-.143.237-.499.238-.573l-.062-.11c-.34.492-.912.97-1.387 1.245-.62.359-1.337.304-1.803.157-1.323-.416-2.574-1.328-2.876-1.567 0 0-.01.191.048.234.333.383 1.098 1.077 1.836 1.56l-1.574.177.744 5.908c-.33.048-.381.072-.743.124-.318-1.147-.927-1.895-1.593-2.331-.587-.385-1.397-.471-2.172-.315l-.05.059a2.755 2.755 0 0 1 1.829.444c.642.413 1.159 1.481 1.349 2.124.244.822.412 1.701-.244 2.633-.466.662-1.829 1.028-2.93.236.295.482.692.876 1.227.95.794.11 1.548-.03 2.067-.573.443-.464.678-1.435.616-2.457l.7-.104.254 1.835L27 25.242l-.947-9.412Zm-7.06-4.982c-.032.075-.083.124-.007.37l.005.014.012.031.032.074c.138.287.289.558.542.696a1.73 1.73 0 0 1 .203-.023c.237-.01.387.028.482.08.009-.048.01-.119.005-.223-.018-.363.071-.982-.614-1.307-.26-.122-.622-.085-.743.068a.294.294 0 0 1 .057.013c.183.065.059.13.026.207Zm1.922 3.392c-.09-.05-.51-.03-.806.005-.563.068-1.17.267-1.303.372-.242.191-.132.523.047.66.501.382.94.638 1.404.575.285-.038.536-.498.714-.915.122-.287.122-.597-.056-.697Zm-4.982-2.942c.159-.154-.79-.356-1.527.156-.543.378-.56 1.187-.04 1.646.052.045.095.078.135.104a4.607 4.607 0 0 1 1.37-.412c.11-.125.238-.346.206-.745-.044-.542-.447-.456-.144-.75Z" fill="#632CA6"/></svg>