<svg width="32" height="32" fill="none" xmlns="http://www.w3.org/2000/svg"><path fill="#F7F7FA" d="M0 0h32v32H0z"/><g clip-path="url(#a)"><path d="M24.787 7.175c-2.12-3.19-6.306-4.135-9.333-2.107L10.14 8.63a6.25 6.25 0 0 0-1.809 1.842 6.6 6.6 0 0 0-.947 2.453 7.06 7.06 0 0 0 .634 4.335 6.622 6.622 0 0 0-.913 2.397 7.178 7.178 0 0 0 .06 2.701 7.01 7.01 0 0 0 1.05 2.466c2.12 3.19 6.307 4.136 9.333 2.108l5.316-3.562a6.25 6.25 0 0 0 1.809-1.842c.474-.74.797-1.575.946-2.453a7.062 7.062 0 0 0-.631-4.336c.454-.725.764-1.54.911-2.396a7.173 7.173 0 0 0-.059-2.701 7.006 7.006 0 0 0-1.05-2.467" fill="#FF3E00"/><path d="M14.934 25.125a4.028 4.028 0 0 1-2.53-.134 4.259 4.259 0 0 1-2.002-1.633 4.214 4.214 0 0 1-.632-1.483 4.316 4.316 0 0 1-.036-1.624c.03-.177.073-.351.127-.522l.1-.321.273.21a6.731 6.731 0 0 0 2.079 1.093l.197.063-.018.207a1.3 1.3 0 0 0 .214.83c.149.226.36.398.604.493.244.095.51.11.762.04.115-.032.225-.082.326-.15l5.316-3.562c.13-.087.242-.2.328-.334.086-.134.144-.285.171-.444a1.303 1.303 0 0 0-.804-1.43 1.215 1.215 0 0 0-.762-.04 1.147 1.147 0 0 0-.327.15l-2.028 1.36a3.789 3.789 0 0 1-1.08.498 4.027 4.027 0 0 1-2.53-.134 4.259 4.259 0 0 1-2.002-1.632 4.213 4.213 0 0 1-.633-1.483 4.315 4.315 0 0 1-.035-1.625c.09-.527.284-1.03.57-1.475a3.757 3.757 0 0 1 1.088-1.107l5.316-3.562a3.784 3.784 0 0 1 1.08-.499 4.028 4.028 0 0 1 2.53.134A4.26 4.26 0 0 1 22.6 8.642c.302.445.517.949.632 1.482.114.534.127 1.086.036 1.625a4.13 4.13 0 0 1-.127.521l-.1.322-.273-.21a6.723 6.723 0 0 0-2.079-1.093l-.197-.063.018-.207a1.303 1.303 0 0 0-.215-.831 1.283 1.283 0 0 0-.603-.492 1.213 1.213 0 0 0-.762-.04 1.143 1.143 0 0 0-.326.15l-5.317 3.562c-.13.086-.242.2-.328.334a1.195 1.195 0 0 0-.171.444 1.303 1.303 0 0 0 .804 1.43c.244.094.51.109.762.04.115-.032.225-.083.326-.15l2.028-1.36a3.775 3.775 0 0 1 1.08-.498 4.027 4.027 0 0 1 2.53.134 4.26 4.26 0 0 1 2.003 1.632c.302.445.517.95.632 1.483.114.534.126 1.086.035 1.625a3.972 3.972 0 0 1-.569 1.475 3.76 3.76 0 0 1-1.087 1.108l-5.317 3.56a3.785 3.785 0 0 1-1.08.5Z" fill="#fff"/></g><defs><clipPath id="a"><path fill="#fff" transform="translate(7 4)" d="M0 0h19v24H0z"/></clipPath></defs></svg>