<svg width="32" height="32" fill="none" xmlns="http://www.w3.org/2000/svg"><path fill="#512BD4" d="M0 0h32v32H0z"/><path d="M4.862 21a.85.85 0 0 1-.61-.241.795.795 0 0 1-.252-.587c0-.231.084-.429.252-.594a.84.84 0 0 1 .61-.247c.244 0 .45.082.617.247a.794.794 0 0 1 .258.594.787.787 0 0 1-.258.587.858.858 0 0 1-.617.241ZM14.44 20.864h-1.557L8.78 14.35a2.925 2.925 0 0 1-.257-.513h-.036c.032.19.048.595.048 1.218v5.81H7.157V12h1.66l3.964 6.36c.168.265.276.446.324.545h.024c-.04-.235-.06-.633-.06-1.193V12h1.371v8.864ZM21.148 20.864h-4.822V12h4.63v1.249h-3.204v2.51h2.953V17h-2.953v2.62h3.396v1.243ZM28 13.249h-2.467v7.615h-1.426V13.25h-2.462V12H28v1.249Z" fill="#fff"/></svg>