<svg width="32" height="32" fill="none" xmlns="http://www.w3.org/2000/svg"><path fill="#F7F7FA" d="M0 0h32v32H0z"/><path d="m27.829 15.706-1.007-.623a14.092 14.092 0 0 0-.029-.294l.867-.807a.345.345 0 0 0-.115-.578l-1.107-.413a14.666 14.666 0 0 0-.087-.287l.69-.958a.346.346 0 0 0-.224-.545l-1.168-.19a8.89 8.89 0 0 0-.14-.261l.49-1.078a.346.346 0 0 0-.327-.49l-1.186.04a9.597 9.597 0 0 0-.187-.227l.273-1.153a.348.348 0 0 0-.418-.418L23 7.697c-.075-.064-.15-.126-.227-.187l.041-1.186a.345.345 0 0 0-.49-.328l-1.077.49a14.256 14.256 0 0 0-.26-.14l-.191-1.167a.345.345 0 0 0-.544-.225l-.96.69c-.094-.03-.189-.058-.284-.086l-.413-1.108a.346.346 0 0 0-.578-.115l-.807.867a10.45 10.45 0 0 0-.294-.029l-.623-1.009a.347.347 0 0 0-.59 0l-.624 1.01c-.098.007-.196.017-.293.028l-.808-.867a.348.348 0 0 0-.578.115l-.412 1.108c-.096.028-.191.057-.285.087l-.959-.69a.348.348 0 0 0-.545.225l-.19 1.166c-.088.046-.175.093-.26.14l-1.077-.49a.347.347 0 0 0-.49.328l.04 1.186c-.076.06-.152.123-.227.187l-1.154-.273a.35.35 0 0 0-.418.418l.271 1.153c-.063.075-.125.15-.187.227l-1.185-.04a.349.349 0 0 0-.328.49l.49 1.078-.14.261-1.167.19a.346.346 0 0 0-.225.544l.69.96c-.03.094-.059.19-.087.286l-1.107.413a.347.347 0 0 0-.115.578l.867.807c-.011.098-.02.196-.029.294l-1.007.623a.347.347 0 0 0 0 .59l1.007.624c.008.098.018.196.029.293l-.867.807a.347.347 0 0 0 .115.578l1.107.413c.028.096.057.191.087.287l-.69.959a.346.346 0 0 0 .227.544l1.167.19a8.4 8.4 0 0 0 .14.261l-.49 1.076a.347.347 0 0 0 .328.49l1.183-.04.187.227-.27 1.153a.346.346 0 0 0 .418.415l1.154-.27c.075.064.15.126.227.187l-.041 1.186a.345.345 0 0 0 .49.327l1.077-.49c.086.047.173.094.261.14l.19 1.167a.346.346 0 0 0 .544.227l.96-.69c.094.03.19.06.286.087l.413 1.108a.346.346 0 0 0 .578.114l.807-.866.294.029.624 1.007a.347.347 0 0 0 .59 0l.623-1.007c.098-.009.196-.018.294-.03l.807.867a.345.345 0 0 0 .578-.114l.413-1.108c.096-.028.19-.057.287-.087l.958.69a.346.346 0 0 0 .545-.227l.19-1.167.262-.14 1.075.49a.348.348 0 0 0 .491-.327l-.041-1.186c.077-.061.153-.123.227-.187l1.154.27a.347.347 0 0 0 .418-.415l-.27-1.153a9.52 9.52 0 0 0 .186-.228l1.186.042a.346.346 0 0 0 .328-.491l-.491-1.076c.048-.087.095-.174.14-.261l1.167-.19a.345.345 0 0 0 .225-.544l-.69-.96c.03-.094.059-.189.087-.286l1.107-.413a.346.346 0 0 0 .115-.578l-.867-.807.029-.293 1.007-.624a.346.346 0 0 0 0-.59h-.007Zm-6.743 8.371a.714.714 0 1 1 .002 0h-.002Zm-.342-2.316a.648.648 0 0 0-.77.5l-.358 1.67a8.79 8.79 0 0 1-7.317-.035l-.358-1.67a.649.649 0 0 0-.77-.5l-1.475.317a8.909 8.909 0 0 1-.761-.899h7.178c.082 0 .136-.015.136-.088V18.51c0-.074-.054-.089-.136-.089h-2.098v-1.607h2.268c.207 0 1.108.059 1.395 1.21.09.354.289 1.505.424 1.874.135.413.683 1.239 1.268 1.239h3.578c.04 0 .084-.005.13-.013-.248.337-.52.656-.812.954l-1.51-.323-.012.006Zm-9.931 2.282a.715.715 0 0 1-.298-1.397.713.713 0 1 1 .298 1.397Zm-2.73-11.031a.713.713 0 1 1-1.303.582.713.713 0 0 1 1.304-.582Zm-.836 1.981 1.536-.683a.649.649 0 0 0 .33-.858l-.316-.715h1.243v5.595h-2.5a8.795 8.795 0 0 1-.285-3.35l-.008.011Zm6.743-.543v-1.651h2.958c.153 0 1.08.176 1.08.869 0 .575-.71.782-1.295.782H13.98h.01Zm10.756 1.486c0 .219-.008.436-.024.651h-.901c-.09 0-.127.06-.127.148v.412c0 .973-.548 1.186-1.03 1.239-.458.051-.965-.192-1.027-.473-.27-1.52-.72-1.843-1.431-2.408.883-.56 1.8-1.387 1.8-2.5 0-1.194-.818-1.947-1.376-2.316-.784-.516-1.651-.619-1.885-.619H9.433a8.828 8.828 0 0 1 4.908-2.775l1.099 1.151a.65.65 0 0 0 .92.021l1.23-1.174a8.79 8.79 0 0 1 6.008 4.289l-.841 1.899a.65.65 0 0 0 .33.857l1.619.72c.028.287.043.579.043.872l-.003.006Zm-9.311-9.61a.71.71 0 0 1 1.006.024.715.715 0 0 1-.023 1.009.71.71 0 0 1-1.007-.024.715.715 0 0 1 .024-1.008Zm8.348 6.72a.714.714 0 1 1 1.301.58.714.714 0 0 1-1.3-.58Z" fill="#000"/></svg>