<svg width="32" height="32" fill="none" xmlns="http://www.w3.org/2000/svg"><path fill="#F7F7FA" d="M0 0h32v32H0z"/><path d="M16 18.02a2.2 2.2 0 1 0 0-4.4 2.2 2.2 0 0 0 0 4.4Z" fill="#0A7EA4"/><path d="M16 20.77c6.075 0 11-2.217 11-4.95 0-2.735-4.925-4.95-11-4.95S5 13.084 5 15.82c0 2.733 4.925 4.95 11 4.95Z" stroke="#0A7EA4"/><path d="M11.713 18.294c3.038 5.261 7.42 8.418 9.787 7.051 2.368-1.366 1.825-6.74-1.213-12-3.037-5.262-7.42-8.419-9.787-7.052-2.367 1.367-1.824 6.74 1.213 12.001Z" stroke="#0A7EA4"/><path d="M11.713 13.344C8.677 18.606 8.133 23.98 10.5 25.346c2.368 1.366 6.75-1.79 9.787-7.052 3.038-5.26 3.58-10.634 1.213-12-2.367-1.368-6.749 1.79-9.787 7.05Z" stroke="#0A7EA4"/></svg>