<svg width="32" height="32" fill="none" xmlns="http://www.w3.org/2000/svg"><path fill="#F7F7FA" d="M0 0h32v32H0z"/><g clip-path="url(#a)"><path d="M15.207 14.12c-.995 1.673-1.948 3.292-2.92 4.899-.25.413-.374.749-.175 1.273.551 1.449-.226 2.859-1.687 3.241-1.378.361-2.72-.544-2.994-2.02-.242-1.305.771-2.585 2.211-2.789.12-.017.244-.02.446-.034l2.19-3.672c-1.377-1.37-2.197-2.97-2.015-4.954.128-1.403.68-2.614 1.687-3.608a5.729 5.729 0 0 1 7.148-.75c2.183 1.403 3.183 4.134 2.33 6.472l-2-.543c.267-1.3.07-2.467-.807-3.467-.58-.66-1.323-1.006-2.168-1.133-1.694-.256-3.357.832-3.851 2.495-.56 1.887.288 3.429 2.605 4.59Z" fill="#C73A63"/><path d="m18.049 12.143 2.117 3.734c3.564-1.102 6.252.87 7.216 2.983 1.164 2.552.368 5.574-1.919 7.149-2.347 1.616-5.316 1.34-7.396-.736l1.632-1.366c2.054 1.33 3.851 1.268 5.185-.308a3.575 3.575 0 0 0-.058-4.664c-1.35-1.518-3.16-1.564-5.347-.107-.907-1.61-1.83-3.206-2.708-4.827-.297-.546-.624-.864-1.291-.98-1.115-.193-1.835-1.15-1.878-2.223a2.443 2.443 0 0 1 1.56-2.393 2.432 2.432 0 0 1 2.753.751c.532.672.701 1.429.421 2.258-.077.231-.178.455-.287.729Z" fill="#4B4B4B"/><path d="M19.723 22.248h-4.291c-.412 1.692-1.3 3.057-2.83 3.926-1.19.675-2.473.904-3.838.684-2.514-.406-4.569-2.668-4.75-5.216-.204-2.886 1.78-5.451 4.423-6.027l.55 1.993c-2.426 1.238-3.265 2.797-2.587 4.747.598 1.716 2.296 2.657 4.14 2.293 1.882-.371 2.83-1.936 2.715-4.447 1.785 0 3.57-.018 5.356.01.697.01 1.235-.062 1.76-.676.864-1.011 2.455-.92 3.386.035a2.43 2.43 0 0 1-.101 3.48 2.427 2.427 0 0 1-3.415-.118c-.186-.2-.334-.438-.518-.684Z" fill="#4A4A4A"/></g><defs><clipPath id="a"><path fill="#fff" transform="translate(4 4)" d="M0 0h24v24H0z"/></clipPath></defs></svg>