<svg width="32" height="32" fill="none" xmlns="http://www.w3.org/2000/svg"><path fill="#F7F7FA" d="M0 0h32v32H0z"/><path d="M27.576 15.35 17.41 5.014 16.413 4l-7.64 7.767-3.492 3.583c-.375.38-.375.982 0 1.331l6.984 7.102 4.148 4.216 7.64-7.767.124-.127 3.399-3.424c.374-.38.374-.983 0-1.331Zm-11.163 4.216-3.493-3.55 3.493-3.551 3.492 3.55-3.492 3.551Z" fill="#2684FF"/><path d="M16.413 12.453c-2.276-2.311-2.308-6.079-.031-8.422l-7.609 7.757L12.921 16l3.492-3.546Z" fill="url(#a)"/><path d="m19.936 15.968-3.524 3.578a6.027 6.027 0 0 1 0 8.453l7.67-7.788-4.146-4.243Z" fill="url(#b)"/><defs><linearGradient id="a" x1="15.802" y1="8.858" x2="10.85" y2="13.735" gradientUnits="userSpaceOnUse"><stop offset=".176" stop-color="#0052CC"/><stop offset="1" stop-color="#2684FF"/></linearGradient><linearGradient id="b" x1="17.092" y1="23.085" x2="22.034" y2="18.218" gradientUnits="userSpaceOnUse"><stop offset=".176" stop-color="#0052CC"/><stop offset="1" stop-color="#2684FF"/></linearGradient></defs></svg>