<svg width="32" height="32" fill="none" xmlns="http://www.w3.org/2000/svg"><path fill="#F7F7FA" d="M0 0h32v32H0z"/><path d="M21.523 18.712c-.198 0-.39-.056-.555-.161a.97.97 0 0 1-.368-.431.926.926 0 0 1-.057-.556.95.95 0 0 1 .273-.492 1.037 1.037 0 0 1 1.09-.208.992.992 0 0 1 .448.354.935.935 0 0 1-.125 1.213c-.187.18-.441.281-.706.281Zm-11.046 0c-.198 0-.391-.056-.555-.161a.97.97 0 0 1-.369-.431.926.926 0 0 1-.057-.556.95.95 0 0 1 .274-.492 1.037 1.037 0 0 1 1.09-.208.992.992 0 0 1 .448.354.935.935 0 0 1-.125 1.213c-.187.18-.441.281-.706.281Zm11.404-5.787L23.88 9.6a.39.39 0 0 0-.152-.546.428.428 0 0 0-.568.146l-2.022 3.367A12.748 12.748 0 0 0 16 11.511c-1.854 0-3.59.378-5.137 1.056L8.841 9.2a.405.405 0 0 0-.252-.186.432.432 0 0 0-.316.04.411.411 0 0 0-.193.242.384.384 0 0 0 .041.303l1.998 3.326C6.689 14.718 4.343 18.056 4 22h24c-.343-3.944-2.69-7.281-6.119-9.075Z" fill="#3DDC84"/></svg>