<svg width="32" height="32" fill="none" xmlns="http://www.w3.org/2000/svg"><path fill="#007D9C" d="M0 0h32v32H0z"/><path fill-rule="evenodd" clip-rule="evenodd" d="M5.811 14.215c-.046 0-.058-.023-.035-.058l.246-.316c.023-.035.082-.058.128-.058h4.172c.047 0 .058.035.035.07l-.199.304c-.023.035-.081.07-.117.07l-4.23-.012ZM4.047 15.29c-.047 0-.059-.023-.035-.058l.245-.316c.023-.035.082-.058.129-.058h5.328c.047 0 .07.035.059.07l-.094.28c-.012.047-.058.07-.105.07l-5.527.012ZM6.875 16.365c-.047 0-.059-.035-.035-.07l.163-.292c.024-.035.07-.07.117-.07h2.337c.047 0 .07.035.07.081l-.023.28c0 .048-.047.083-.082.083l-2.547-.012ZM19.006 14.005c-.736.187-1.239.327-1.963.514-.175.047-.187.058-.34-.117-.174-.199-.303-.327-.548-.444-.737-.362-1.45-.257-2.115.175-.795.514-1.204 1.274-1.192 2.22.011.935.654 1.707 1.577 1.835.795.105 1.46-.175 1.987-.771.105-.129.198-.269.315-.433h-2.255c-.245 0-.304-.151-.222-.35.152-.362.432-.97.596-1.274a.315.315 0 0 1 .292-.187h4.254c-.024.316-.024.631-.07.947a4.983 4.983 0 0 1-.959 2.29c-.841 1.11-1.94 1.8-3.33 1.987-1.145.152-2.209-.07-3.144-.772-.864-.654-1.355-1.519-1.484-2.594-.151-1.273.222-2.419.994-3.424.83-1.086 1.928-1.776 3.272-2.021 1.098-.199 2.15-.07 3.096.572.62.41 1.064.97 1.356 1.648.07.105.023.164-.117.199Z" fill="#fff"/><path d="M22.873 20.466c-1.063-.023-2.033-.327-2.85-1.028a3.665 3.665 0 0 1-1.263-2.255c-.21-1.32.152-2.49.946-3.53.854-1.121 1.882-1.705 3.273-1.95 1.191-.211 2.313-.094 3.33.595.923.631 1.496 1.484 1.647 2.606.2 1.578-.257 2.863-1.343 3.962-.772.782-1.718 1.273-2.805 1.495-.315.059-.63.07-.935.105Zm2.781-4.72c-.011-.152-.011-.27-.035-.386-.21-1.157-1.273-1.811-2.383-1.554-1.087.245-1.788.935-2.045 2.033-.21.911.233 1.835 1.075 2.209.642.28 1.285.245 1.904-.07.924-.48 1.426-1.228 1.484-2.232Z" fill="#fff"/></svg>