<svg width="32" height="32" fill="none" xmlns="http://www.w3.org/2000/svg"><path fill="#7A86B8" d="M0 0h32v32H0z"/><path d="M5.9 12.524h3.558c1.045.009 1.802.308 2.271.899.47.59.625 1.396.465 2.418-.062.467-.199.925-.411 1.374-.204.45-.487.855-.85 1.216-.443.458-.917.75-1.421.873a6.575 6.575 0 0 1-1.568.185H6.351l-.505 2.51H4l1.9-9.475Zm1.553 1.507-.797 3.964a.985.985 0 0 0 .16.013h.186c.85.01 1.558-.074 2.124-.25.567-.186.948-.829 1.143-1.93.159-.925 0-1.458-.478-1.6-.47-.14-1.058-.206-1.767-.197a3.748 3.748 0 0 1-.305.013h-.28l.014-.014ZM14.297 10h1.833l-.518 2.524h1.647c.903.018 1.576.203 2.019.555.451.353.584 1.022.398 2.009l-.89 4.4h-1.86l.85-4.202c.09-.44.063-.753-.079-.938-.141-.185-.447-.278-.916-.278l-1.474-.013-1.09 5.432h-1.832L14.297 10ZM21.644 12.524h3.56c1.044.009 1.801.308 2.27.899.47.59.625 1.396.465 2.418-.061.467-.199.925-.411 1.374-.204.45-.487.855-.85 1.216-.443.458-.917.75-1.421.873a6.574 6.574 0 0 1-1.567.185h-1.594l-.505 2.51h-1.846l1.9-9.475Zm1.554 1.507-.797 3.964a.985.985 0 0 0 .16.013h.186c.85.01 1.558-.074 2.125-.25.566-.186.947-.829 1.142-1.93.16-.925 0-1.458-.478-1.6-.47-.14-1.058-.206-1.767-.197a3.75 3.75 0 0 1-.305.013h-.28l.014-.014Z" fill="#fff"/></svg>