<svg width="32" height="32" fill="none" xmlns="http://www.w3.org/2000/svg"><path fill="#233056" d="M0 0h32v32H0z"/><path d="M25.106 18.987a.364.364 0 0 1-.174-.045l-.55-.324c-.082-.046-.04-.062-.016-.07.112-.037.132-.045.248-.111.012-.008.029-.004.041.004l.422.25c.016.009.037.009.05 0l1.649-.949c.016-.008.025-.024.025-.045v-1.894c0-.02-.009-.037-.025-.045l-1.65-.945c-.016-.008-.037-.008-.049 0l-1.65.945c-.016.008-.024.029-.024.045v1.894c0 .017.008.037.025.045l.45.26c.244.123.397-.021.397-.165v-1.87c0-.024.02-.049.05-.049h.21c.025 0 .05.02.05.05v1.869c0 .325-.178.514-.488.514-.095 0-.17 0-.38-.103L23.283 18a.346.346 0 0 1-.174-.3v-1.894c0-.123.066-.238.174-.3l1.65-.949a.371.371 0 0 1 .346 0l1.65.95a.347.347 0 0 1 .173.3V17.7a.347.347 0 0 1-.173.3l-1.65.95a.466.466 0 0 1-.173.036Z" fill="#5FA04E"/><path d="M25.618 17.685c-.723 0-.872-.329-.872-.608 0-.025.02-.05.05-.05h.215c.024 0 .045.017.045.042.033.218.128.324.566.324.348 0 .497-.078.497-.263 0-.106-.042-.184-.583-.238-.451-.045-.732-.144-.732-.501 0-.333.281-.53.752-.53.53 0 .79.18.823.575a.066.066 0 0 1-.012.037c-.009.008-.021.017-.034.017h-.219a.049.049 0 0 1-.045-.037c-.05-.226-.178-.3-.517-.3-.38 0-.426.131-.426.23 0 .119.054.156.567.222.508.065.748.16.748.513 0 .362-.302.567-.823.567ZM28 15.696a.32.32 0 0 1-.319.317.317.317 0 0 1-.318-.317c0-.18.15-.316.319-.316.17 0 .318.14.318.316Zm-.587 0a.266.266 0 1 0 .533 0 .264.264 0 0 0-.269-.263.266.266 0 0 0-.264.263Zm.149-.176h.124c.041 0 .124 0 .124.094 0 .066-.042.078-.066.086.05.004.053.037.057.083.005.028.009.078.017.094h-.075c0-.016-.012-.107-.012-.11-.004-.021-.012-.03-.037-.03h-.062v.144h-.07v-.361Zm.066.156h.053c.046 0 .054-.033.054-.05 0-.049-.033-.049-.053-.049h-.058v.099h.004Z" fill="#5FA04E"/><path fill-rule="evenodd" clip-rule="evenodd" d="M7.923 15.723a.209.209 0 0 0-.108-.181l-1.748-1.007a.256.256 0 0 0-.095-.029h-.017a.198.198 0 0 0-.095.03l-1.753 1.002a.21.21 0 0 0-.107.184l.004 2.696c0 .037.02.074.054.09.033.02.074.02.103 0l1.042-.591a.209.209 0 0 0 .107-.181v-1.262c0-.074.042-.143.108-.18l.442-.255a.202.202 0 0 1 .108-.029c.037 0 .074.008.103.029l.442.255a.209.209 0 0 1 .108.18v1.262c0 .074.041.143.107.18l1.034.592c.033.02.074.02.107 0a.102.102 0 0 0 .054-.09v-2.695ZM16.347 12.012a.115.115 0 0 0-.103 0 .107.107 0 0 0-.054.09v2.671c0 .025-.012.05-.037.066a.08.08 0 0 1-.075 0l-.438-.25a.214.214 0 0 0-.21 0l-1.753 1.006a.209.209 0 0 0-.108.18v2.01c0 .074.042.144.108.18l1.753 1.007a.215.215 0 0 0 .21 0l1.753-1.006a.209.209 0 0 0 .107-.181v-5.008a.21.21 0 0 0-.107-.185l-1.046-.58Zm-.161 5.111c0 .02-.008.037-.025.046l-.6.345a.062.062 0 0 1-.053 0l-.6-.345c-.016-.009-.024-.03-.024-.046v-.69c0-.02.008-.037.025-.045l.599-.345a.061.061 0 0 1 .054 0l.6.345c.016.008.024.029.024.045v.69ZM22.18 16.417a.205.205 0 0 0 .103-.181v-.489a.213.213 0 0 0-.104-.18l-1.74-1.003a.214.214 0 0 0-.21 0l-1.753 1.006a.209.209 0 0 0-.108.181v2.01c0 .073.042.143.108.18l1.74.986a.206.206 0 0 0 .207 0l1.054-.583a.102.102 0 0 0 .053-.09.102.102 0 0 0-.053-.091l-1.761-1.007a.107.107 0 0 1-.054-.09v-.629c0-.037.02-.074.054-.09l.55-.312a.102.102 0 0 1 .107 0l.55.312c.033.02.054.053.054.09v.493c0 .037.02.074.053.09.033.021.075.021.108 0l1.041-.603Z" fill="#fff"/><path fill-rule="evenodd" clip-rule="evenodd" d="M20.308 16.323a.038.038 0 0 1 .041 0l.335.193c.012.008.02.02.02.037v.386a.043.043 0 0 1-.02.037l-.335.193a.038.038 0 0 1-.041 0l-.335-.193a.043.043 0 0 1-.02-.037v-.386c0-.017.007-.03.02-.037l.335-.193Z" fill="#5FA04E"/><path d="M10.853 14.572a.214.214 0 0 0-.21 0l-1.74.999a.205.205 0 0 0-.104.18v2.001c0 .074.041.144.103.181l1.74.998a.215.215 0 0 0 .211 0l1.74-.998a.205.205 0 0 0 .104-.18V15.75a.214.214 0 0 0-.103-.18l-1.74-.999Z" fill="url(#a)"/><path d="m12.598 15.57-1.749-.998a.288.288 0 0 0-.054-.02l-1.96 3.332c.017.02.038.037.059.05l1.748.997c.05.03.108.037.162.021l1.839-3.344a.128.128 0 0 0-.046-.037Z" fill="url(#b)"/><path d="M12.598 17.933a.234.234 0 0 0 .103-.132l-1.914-3.254a.211.211 0 0 0-.149.025l-1.736.994 1.873 3.394a.29.29 0 0 0 .078-.025l1.745-1.002Z" fill="url(#c)"/><defs><linearGradient id="a" x1="11.457" y1="15.316" x2="9.898" y2="18.514" gradientUnits="userSpaceOnUse"><stop stop-color="#3F873F"/><stop offset=".33" stop-color="#3F8B3D"/><stop offset=".637" stop-color="#3E9638"/><stop offset=".934" stop-color="#3DA92E"/><stop offset="1" stop-color="#3DAE2B"/></linearGradient><linearGradient id="b" x1="10.483" y1="16.985" x2="14.879" y2="13.718" gradientUnits="userSpaceOnUse"><stop offset=".138" stop-color="#3F873F"/><stop offset=".402" stop-color="#52A044"/><stop offset=".713" stop-color="#64B749"/><stop offset=".908" stop-color="#6ABF4B"/></linearGradient><linearGradient id="c" x1="8.735" y1="16.751" x2="12.762" y2="16.751" gradientUnits="userSpaceOnUse"><stop offset=".092" stop-color="#6ABF4B"/><stop offset=".287" stop-color="#64B749"/><stop offset=".598" stop-color="#52A044"/><stop offset=".862" stop-color="#3F873F"/></linearGradient></defs></svg>