<svg width="32" height="32" fill="none" xmlns="http://www.w3.org/2000/svg"><path fill="#F7F7FA" d="M0 0h32v32H0z"/><path d="M4.112 21.807h1.984v-8.514H4.112v8.514Zm.988-9.63A1.088 1.088 0 1 0 5.1 10a1.088 1.088 0 1 0 0 2.177Zm7.604-2.153c-3.355 0-5.46 2.305-5.46 5.992S9.348 22 12.704 22c3.348 0 5.452-2.297 5.452-5.984s-2.104-5.992-5.452-5.992Zm0 1.767c2.048 0 3.356 1.639 3.356 4.225 0 2.578-1.307 4.217-3.356 4.217-2.056 0-3.355-1.639-3.355-4.217 0-2.586 1.299-4.225 3.355-4.225Zm6.29 6.755C19.08 20.683 20.818 22 23.463 22 26.247 22 28 20.618 28 18.418c0-1.727-.988-2.7-3.324-3.237l-1.323-.305c-1.41-.338-1.992-.788-1.992-1.559 0-.963.876-1.606 2.175-1.606 1.316 0 2.216.65 2.312 1.735h1.96c-.047-2.04-1.721-3.422-4.256-3.422-2.502 0-4.28 1.39-4.28 3.446 0 1.654 1.005 2.683 3.125 3.173l1.49.353c1.45.345 2.04.827 2.04 1.663 0 .963-.964 1.654-2.35 1.654-1.404 0-2.464-.698-2.591-1.767h-1.993Z" fill="#000"/></svg>