<svg width="32" height="32" fill="none" xmlns="http://www.w3.org/2000/svg"><path fill="#3A75B0" d="M0 0h32v32H0z"/><path fill-rule="evenodd" clip-rule="evenodd" d="M25.516 18.797V17.9h-.327c-.736 0-1.103.227-1.103.683 0 .395.195.593.585.593.27 0 .55-.127.845-.38Zm.776.873h-.609l-.06-.41c-.376.325-.767.487-1.172.487-.761 0-1.141-.35-1.141-1.049 0-.4.154-.711.463-.934.335-.238.825-.357 1.469-.357h.274v-.343c0-.45-.261-.676-.784-.676-.34 0-.71.074-1.11.22l-.115-.478a3.536 3.536 0 0 1 1.438-.311c.898 0 1.347.382 1.347 1.147v2.704Zm-3.21-3.783c-.25 1.398-.64 2.659-1.172 3.784h-.966l-1.165-3.784h.845l.723 2.325.16.699c.375-1.033.626-2.041.753-3.024h.821Zm-4.581 2.91V17.9h-.327c-.736 0-1.104.227-1.104.683 0 .395.196.593.587.593.268 0 .55-.127.844-.38Zm.776.873h-.608l-.061-.41c-.376.325-.767.487-1.172.487-.761 0-1.142-.35-1.142-1.049 0-.4.155-.711.465-.934.334-.238.824-.357 1.468-.357h.274v-.343c0-.45-.261-.676-.784-.676-.34 0-.71.074-1.11.22l-.115-.478a3.539 3.539 0 0 1 1.439-.311c.897 0 1.346.382 1.346 1.147v2.704Zm-3.69-.531c0 .825-.28 1.446-.837 1.861l-.403-.342c.177-.207.296-.456.357-.745.04-.197.061-.47.061-.82v-4.55h.822v4.596Zm11.25-2.616h.135v-.521h.178v-.107h-.5v.107h.186v.521Zm1.035 0H28v-.628h-.193l-.157.429-.171-.429h-.186v.628h.121v-.478h.008l.178.478h.093l.18-.478v.478Z" fill="#fff"/><path d="M10.03 17.328c-.298.084-.97.222-1.932.222-.944 0-1.715-.161-1.717-.351-.002-.127.151-.182.151-.182l-.027-.015c-.452.08-.871.203-.869.387.004.335 1.287.587 2.46.587.998 0 1.956-.168 2.388-.386l-.454-.262Zm-3.188 1.035c-.21.042-.667.147-.667.369 0 .307.977.542 1.92.542 1.299 0 1.83-.334 1.854-.35l-.54-.313c-.229.055-.616.14-1.312.14-.777 0-1.284-.132-1.284-.278 0-.03.02-.067.056-.094l-.027-.016Zm5.304-2.066c-.037.695-.68 1.128-1.324 1.494l.059.034c.686-.193 1.91-.755 1.81-1.618-.05-.43-.445-.738-.959-.738-.16 0-.302.029-.417.064l-.025.062c.46-.09.88.245.856.702Zm-4.068 4.081c1.805-.015 3.826-.368 3.82-.961 0-.108-.07-.181-.131-.226l-.03.017c-.167.46-1.578.799-3.662.817-1.345.012-3.208-.31-3.211-.682-.003-.372.882-.577.882-.577l-.062-.036c-.594.082-1.688.366-1.684.775.005.593 2.519.887 4.078.873Zm-.188.424a14.239 14.239 0 0 1-2.331-.177l-.068.04c.734.214 1.756.344 2.88.335 2.206-.02 3.994-.566 4.03-1.224l-.026-.014c-.148.18-1.102 1.01-4.485 1.04Zm-2.764-4.664c0-.332 1.263-.519 1.85-.564l.056.032c-.225.041-1.131.2-1.131.409 0 .227 1.39.375 2.196.375 1.37 0 2.3-.207 2.55-.275l.351.203c-.24.118-1.27.425-2.901.425-1.814 0-2.97-.354-2.97-.605Z" fill="#fff"/><path d="m10.607 11.493-.03-.017c-.552.184-2.25.853-2.25 2.101 0 .706.69 1.096.69 1.758 0 .236-.133.457-.242.59l.055.031c.287-.186.795-.59.795-1.111 0-.441-.611-.972-.611-1.539 0-.893 1.18-1.595 1.593-1.813Zm-.834-1.635c0 1.847-2.534 2.553-2.534 3.866 0 .921.612 1.5.95 1.864l-.027.016c-.427-.267-1.552-.938-1.552-2.046 0-1.556 2.91-2.3 2.91-4.067 0-.218-.031-.384-.054-.474L9.496 9c.092.116.277.405.277.858Z" fill="#fff"/></svg>