<svg width="32" height="32" fill="none" xmlns="http://www.w3.org/2000/svg"><path fill="#F7F7FA" d="M0 0h32v32H0z"/><path d="M15.857 4c-.99.005-1.935.088-2.766.234-2.45.428-2.895 1.324-2.895 2.976v2.182h5.79v.728H8.023c-1.683 0-3.156 1-3.616 2.902-.532 2.181-.556 3.542 0 5.82.411 1.695 1.394 2.902 3.076 2.902h1.99v-2.616c0-1.89 1.654-3.556 3.617-3.556h5.782a2.9 2.9 0 0 0 2.894-2.91V7.21c0-1.552-1.323-2.717-2.894-2.976A18.25 18.25 0 0 0 15.857 4Zm-3.13 1.755a1.092 1.092 0 0 1 0 2.182 1.09 1.09 0 0 1 0-2.182Z" fill="url(#a)"/><path d="M22.49 10.12v2.542c0 1.971-1.69 3.63-3.617 3.63H13.09c-1.584 0-2.895 1.341-2.895 2.91v5.452c0 1.552 1.364 2.464 2.895 2.91 1.832.532 3.59.629 5.782 0 1.457-.418 2.894-1.258 2.894-2.91v-2.182h-5.782v-.728h8.677c1.682 0 2.309-1.16 2.894-2.902.604-1.794.579-3.519 0-5.82-.416-1.656-1.21-2.902-2.894-2.902h-2.173Zm-3.253 13.807a1.09 1.09 0 0 1 0 2.182 1.092 1.092 0 0 1 0-2.182Z" fill="url(#b)"/><defs><linearGradient id="a" x1="4" y1="4" x2="17.225" y2="15.394" gradientUnits="userSpaceOnUse"><stop stop-color="#5A9FD4"/><stop offset="1" stop-color="#306998"/></linearGradient><linearGradient id="b" x1="19.098" y1="24.831" x2="14.379" y2="18.144" gradientUnits="userSpaceOnUse"><stop stop-color="#FFD43B"/><stop offset="1" stop-color="#FFE873"/></linearGradient></defs></svg>