<svg width="1023" height="1023" viewBox="0 0 1023 1023" fill="none" xmlns="http://www.w3.org/2000/svg">
<g clip-path="url(#clip0_15239_247498)">
<path d="M1023 0H0V1023H1023V0Z" fill="white"/>
<mask id="mask0_15239_247498" style="mask-type:luminance" maskUnits="userSpaceOnUse" x="62" y="62" width="900" height="900">
<path d="M341.93 93.93H310V77.965C310 68.9182 316.918 62 325.965 62H341.93V93.93Z" fill="white"/>
<path d="M372.93 93.93H341V62H356.965C366.012 62 372.93 68.9182 372.93 77.965V93.93Z" fill="white"/>
<path d="M527.93 93.93H496V77.965C496 68.9182 502.918 62 511.965 62C521.012 62 527.93 68.9182 527.93 77.965V93.93Z" fill="white"/>
<path d="M620.93 93.93H589V77.965C589 68.9182 595.918 62 604.965 62H620.93V93.93Z" fill="white"/>
<path d="M635.965 93.93H620V62H635.965C645.012 62 651.93 68.9182 651.93 77.965C651.93 87.0118 645.012 93.93 635.965 93.93Z" fill="white"/>
<path d="M341.93 93H310V124.93H341.93V93Z" fill="white"/>
<path d="M372.93 93H341V124.93H372.93V93Z" fill="white"/>
<path d="M387.965 124.93H372V93H387.965C397.012 93 403.93 99.9182 403.93 108.965C403.93 118.012 397.012 124.93 387.965 124.93Z" fill="white"/>
<path d="M527.93 93H496V124.93H527.93V93Z" fill="white"/>
<path d="M558.93 93H527V124.93H558.93V93Z" fill="white"/>
<path d="M589.93 93H558V124.93H589.93V93Z" fill="white"/>
<path d="M604.965 124.93H589V93H620.93V108.965C620.93 118.012 614.012 124.93 604.965 124.93Z" fill="white"/>
<path d="M713.93 124.93H682V108.965C682 99.9182 688.918 93 697.965 93C707.012 93 713.93 99.9182 713.93 108.965V124.93Z" fill="white"/>
<path d="M325.965 155.93C316.918 155.93 310 149.012 310 139.965V124H341.93V139.965C341.93 149.012 335.012 155.93 325.965 155.93Z" fill="white"/>
<path d="M465.93 155.93H449.965C440.918 155.93 434 149.012 434 139.965C434 130.918 440.918 124 449.965 124H465.93V155.93Z" fill="white"/>
<path d="M496.93 124H465V155.93H496.93V124Z" fill="white"/>
<path d="M511.965 155.93H496V124H527.93V139.965C527.93 149.012 521.012 155.93 511.965 155.93Z" fill="white"/>
<path d="M589.93 124H558V155.93H589.93V124Z" fill="white"/>
<path d="M651.93 155.93H635.965C626.918 155.93 620 149.012 620 139.965C620 130.918 626.918 124 635.965 124H651.93V155.93Z" fill="white"/>
<path d="M682.93 124H651V155.93H682.93V124Z" fill="white"/>
<path d="M697.965 155.93H682V124H713.93V139.965C713.93 149.012 707.012 155.93 697.965 155.93Z" fill="white"/>
<path d="M403.93 186.93H372V170.965C372 161.918 378.918 155 387.965 155C397.012 155 403.93 161.918 403.93 170.965V186.93Z" fill="white"/>
<path d="M496.93 155H465V186.93H496.93V155Z" fill="white"/>
<path d="M589.93 186.93H573.965C564.918 186.93 558 180.012 558 170.965V155H589.93V186.93Z" fill="white"/>
<path d="M620.93 186.93H589V155H604.965C614.012 155 620.93 161.918 620.93 170.965V186.93Z" fill="white"/>
<path d="M372.93 217.93H341V201.965C341 192.918 347.918 186 356.965 186H372.93V217.93Z" fill="white"/>
<path d="M403.93 186H372V217.93H403.93V186Z" fill="white"/>
<path d="M418.965 217.93H403V186H418.965C428.012 186 434.93 192.918 434.93 201.965C434.93 211.012 428.012 217.93 418.965 217.93Z" fill="white"/>
<path d="M496.93 217.93H480.965C471.918 217.93 465 211.012 465 201.965V186H496.93V217.93Z" fill="white"/>
<path d="M527.93 217.93H496V186H511.965C521.012 186 527.93 192.918 527.93 201.965V217.93Z" fill="white"/>
<path d="M620.93 186H589V217.93H620.93V186Z" fill="white"/>
<path d="M651.93 186H620V217.93H651.93V186Z" fill="white"/>
<path d="M666.965 217.93H651V186H666.965C676.012 186 682.93 192.918 682.93 201.965C682.93 211.012 676.012 217.93 666.965 217.93Z" fill="white"/>
<path d="M341.93 248.93H310V232.965C310 223.918 316.918 217 325.965 217H341.93V248.93Z" fill="white"/>
<path d="M356.965 248.93H341V217H372.93V232.965C372.93 242.012 366.012 248.93 356.965 248.93Z" fill="white"/>
<path d="M527.93 217H496V248.93H527.93V217Z" fill="white"/>
<path d="M589.93 248.93H558V232.965C558 223.918 564.918 217 573.965 217H589.93V248.93Z" fill="white"/>
<path d="M604.965 248.93H589V217H620.93V232.965C620.93 242.012 614.012 248.93 604.965 248.93Z" fill="white"/>
<path d="M341.93 248H310V279.93H341.93V248Z" fill="white"/>
<path d="M387.965 279.93C396.782 279.93 403.93 272.782 403.93 263.965C403.93 255.148 396.782 248 387.965 248C379.148 248 372 255.148 372 263.965C372 272.782 379.148 279.93 387.965 279.93Z" fill="white"/>
<path d="M449.965 279.93C458.782 279.93 465.93 272.782 465.93 263.965C465.93 255.148 458.782 248 449.965 248C441.148 248 434 255.148 434 263.965C434 272.782 441.148 279.93 449.965 279.93Z" fill="white"/>
<path d="M511.965 279.93C502.918 279.93 496 273.012 496 263.965V248H527.93V263.965C527.93 273.012 521.012 279.93 511.965 279.93Z" fill="white"/>
<path d="M589.93 248H558V279.93H589.93V248Z" fill="white"/>
<path d="M651.93 279.93H620V263.965C620 254.918 626.918 248 635.965 248C645.012 248 651.93 254.918 651.93 263.965V279.93Z" fill="white"/>
<path d="M697.965 279.93C706.782 279.93 713.93 272.782 713.93 263.965C713.93 255.148 706.782 248 697.965 248C689.148 248 682 255.148 682 263.965C682 272.782 689.148 279.93 697.965 279.93Z" fill="white"/>
<path d="M341.93 279H310V310.93H341.93V279Z" fill="white"/>
<path d="M356.965 310.93H341V279H356.965C366.012 279 372.93 285.918 372.93 294.965C372.93 304.012 366.012 310.93 356.965 310.93Z" fill="white"/>
<path d="M496.93 310.93H465V294.965C465 285.918 471.918 279 480.965 279C490.012 279 496.93 285.918 496.93 294.965V310.93Z" fill="white"/>
<path d="M589.93 310.93H573.965C564.918 310.93 558 304.012 558 294.965V279H589.93V310.93Z" fill="white"/>
<path d="M620.93 279H589V310.93H620.93V279Z" fill="white"/>
<path d="M651.93 279H620V310.93H651.93V279Z" fill="white"/>
<path d="M666.965 310.93H651V279H666.965C676.012 279 682.93 285.918 682.93 294.965C682.93 304.012 676.012 310.93 666.965 310.93Z" fill="white"/>
<path d="M155.93 341.93H124V325.965C124 316.918 130.918 310 139.965 310H155.93V341.93Z" fill="white"/>
<path d="M186.93 310H155V341.93H186.93V310Z" fill="white"/>
<path d="M201.965 341.93H186V310H201.965C211.012 310 217.93 316.918 217.93 325.965C217.93 335.012 211.012 341.93 201.965 341.93Z" fill="white"/>
<path d="M263.965 341.93C272.782 341.93 279.93 334.782 279.93 325.965C279.93 317.148 272.782 310 263.965 310C255.148 310 248 317.148 248 325.965C248 334.782 255.148 341.93 263.965 341.93Z" fill="white"/>
<path d="M325.965 341.93C316.918 341.93 310 335.012 310 325.965V310H341.93V325.965C341.93 335.012 335.012 341.93 325.965 341.93Z" fill="white"/>
<path d="M418.965 341.93C427.782 341.93 434.93 334.782 434.93 325.965C434.93 317.148 427.782 310 418.965 310C410.148 310 403 317.148 403 325.965C403 334.782 410.148 341.93 418.965 341.93Z" fill="white"/>
<path d="M480.965 341.93C471.918 341.93 465 335.012 465 325.965V310H496.93V325.965C496.93 335.012 490.012 341.93 480.965 341.93Z" fill="white"/>
<path d="M744.93 341.93H713V325.965C713 316.918 719.918 310 728.965 310H744.93V341.93Z" fill="white"/>
<path d="M775.93 310H744V341.93H775.93V310Z" fill="white"/>
<path d="M806.93 341.93H775V310H790.965C800.012 310 806.93 316.918 806.93 325.965V341.93Z" fill="white"/>
<path d="M899.93 341.93H883.965C874.918 341.93 868 335.012 868 325.965C868 316.918 874.918 310 883.965 310H899.93V341.93Z" fill="white"/>
<path d="M930.93 310H899V341.93H930.93V310Z" fill="white"/>
<path d="M961.93 341.93H930V310H945.965C955.012 310 961.93 316.918 961.93 325.965V341.93Z" fill="white"/>
<path d="M93.93 372.93H62V356.965C62 347.918 68.9182 341 77.965 341H93.93V372.93Z" fill="white"/>
<path d="M124.93 341H93V372.93H124.93V341Z" fill="white"/>
<path d="M155.93 341H124V372.93H155.93V341Z" fill="white"/>
<path d="M186.93 341H155V372.93H186.93V341Z" fill="white"/>
<path d="M310.93 372.93H279V356.965C279 347.918 285.918 341 294.965 341C304.012 341 310.93 347.918 310.93 356.965V372.93Z" fill="white"/>
<path d="M387.965 372.93C396.782 372.93 403.93 365.782 403.93 356.965C403.93 348.148 396.782 341 387.965 341C379.148 341 372 348.148 372 356.965C372 365.782 379.148 372.93 387.965 372.93Z" fill="white"/>
<path d="M651.93 372.93H635.965C626.918 372.93 620 366.012 620 356.965C620 347.918 626.918 341 635.965 341H651.93V372.93Z" fill="white"/>
<path d="M682.93 341H651V372.93H682.93V341Z" fill="white"/>
<path d="M713.93 341H682V372.93H713.93V341Z" fill="white"/>
<path d="M744.93 341H713V372.93H744.93V341Z" fill="white"/>
<path d="M775.93 341H744V372.93H775.93V341Z" fill="white"/>
<path d="M806.93 341H775V372.93H806.93V341Z" fill="white"/>
<path d="M837.93 341H806V372.93H837.93V341Z" fill="white"/>
<path d="M852.965 372.93H837V341H852.965C862.012 341 868.93 347.918 868.93 356.965C868.93 366.012 862.012 372.93 852.965 372.93Z" fill="white"/>
<path d="M945.965 372.93C936.918 372.93 930 366.012 930 356.965V341H961.93V356.965C961.93 366.012 955.012 372.93 945.965 372.93Z" fill="white"/>
<path d="M93.93 403.93H77.965C68.9182 403.93 62 397.012 62 387.965V372H93.93V403.93Z" fill="white"/>
<path d="M108.965 403.93H93V372H124.93V387.965C124.93 397.012 118.012 403.93 108.965 403.93Z" fill="white"/>
<path d="M186.93 372H155V403.93H186.93V372Z" fill="white"/>
<path d="M248.93 403.93H232.965C223.918 403.93 217 397.012 217 387.965C217 378.918 223.918 372 232.965 372H248.93V403.93Z" fill="white"/>
<path d="M279.93 372H248V403.93H279.93V372Z" fill="white"/>
<path d="M310.93 372H279V403.93H310.93V372Z" fill="white"/>
<path d="M341.93 372H310V403.93H341.93V372Z" fill="white"/>
<path d="M372.93 403.93H341V372H356.965C366.012 372 372.93 378.918 372.93 387.965V403.93Z" fill="white"/>
<path d="M744.93 372H713V403.93H744.93V372Z" fill="white"/>
<path d="M775.93 372H744V403.93H775.93V372Z" fill="white"/>
<path d="M806.93 372H775V403.93H806.93V372Z" fill="white"/>
<path d="M821.965 403.93H806V372H837.93V387.965C837.93 397.012 831.012 403.93 821.965 403.93Z" fill="white"/>
<path d="M155.93 434.93H124V418.965C124 409.918 130.918 403 139.965 403H155.93V434.93Z" fill="white"/>
<path d="M186.93 403H155V434.93H186.93V403Z" fill="white"/>
<path d="M217.93 434.93H186V403H201.965C211.012 403 217.93 409.918 217.93 418.965V434.93Z" fill="white"/>
<path d="M341.93 434.93H325.965C316.918 434.93 310 428.012 310 418.965V403H341.93V434.93Z" fill="white"/>
<path d="M356.965 434.93H341V403H372.93V418.965C372.93 428.012 366.012 434.93 356.965 434.93Z" fill="white"/>
<path d="M682.93 434.93H651V418.965C651 409.918 657.918 403 666.965 403C676.012 403 682.93 409.918 682.93 418.965V434.93Z" fill="white"/>
<path d="M744.93 403H713V434.93H744.93V403Z" fill="white"/>
<path d="M759.965 434.93H744V403H775.93V418.965C775.93 428.012 769.012 434.93 759.965 434.93Z" fill="white"/>
<path d="M852.965 434.93C861.782 434.93 868.93 427.782 868.93 418.965C868.93 410.148 861.782 403 852.965 403C844.148 403 837 410.148 837 418.965C837 427.782 844.148 434.93 852.965 434.93Z" fill="white"/>
<path d="M930.93 434.93H899V418.965C899 409.918 905.918 403 914.965 403C924.012 403 930.93 409.918 930.93 418.965V434.93Z" fill="white"/>
<path d="M124.93 465.93H93V449.965C93 440.918 99.9182 434 108.965 434H124.93V465.93Z" fill="white"/>
<path d="M155.93 434H124V465.93H155.93V434Z" fill="white"/>
<path d="M186.93 434H155V465.93H186.93V434Z" fill="white"/>
<path d="M217.93 434H186V465.93H217.93V434Z" fill="white"/>
<path d="M248.93 434H217V465.93H248.93V434Z" fill="white"/>
<path d="M263.965 465.93H248V434H263.965C273.012 434 279.93 440.918 279.93 449.965C279.93 459.012 273.012 465.93 263.965 465.93Z" fill="white"/>
<path d="M682.93 434H651V465.93H682.93V434Z" fill="white"/>
<path d="M713.93 434H682V465.93H713.93V434Z" fill="white"/>
<path d="M744.93 434H713V465.93H744.93V434Z" fill="white"/>
<path d="M790.965 465.93C799.782 465.93 806.93 458.782 806.93 449.965C806.93 441.148 799.782 434 790.965 434C782.148 434 775 441.148 775 449.965C775 458.782 782.148 465.93 790.965 465.93Z" fill="white"/>
<path d="M899.93 465.93H883.965C874.918 465.93 868 459.012 868 449.965C868 440.918 874.918 434 883.965 434H899.93V465.93Z" fill="white"/>
<path d="M930.93 434H899V465.93H930.93V434Z" fill="white"/>
<path d="M961.93 465.93H930V434H945.965C955.012 434 961.93 440.918 961.93 449.965V465.93Z" fill="white"/>
<path d="M124.93 465H93V496.93H124.93V465Z" fill="white"/>
<path d="M155.93 465H124V496.93H155.93V465Z" fill="white"/>
<path d="M170.965 496.93H155V465H186.93V480.965C186.93 490.012 180.012 496.93 170.965 496.93Z" fill="white"/>
<path d="M232.965 496.93C223.918 496.93 217 490.012 217 480.965V465H248.93V480.965C248.93 490.012 242.012 496.93 232.965 496.93Z" fill="white"/>
<path d="M310.93 496.93H279V480.965C279 471.918 285.918 465 294.965 465C304.012 465 310.93 471.918 310.93 480.965V496.93Z" fill="white"/>
<path d="M682.93 496.93H666.965C657.918 496.93 651 490.012 651 480.965V465H682.93V496.93Z" fill="white"/>
<path d="M713.93 465H682V496.93H713.93V465Z" fill="white"/>
<path d="M744.93 465H713V496.93H744.93V465Z" fill="white"/>
<path d="M775.93 496.93H744V465H759.965C769.012 465 775.93 471.918 775.93 480.965V496.93Z" fill="white"/>
<path d="M837.93 496.93H821.965C812.918 496.93 806 490.012 806 480.965C806 471.918 812.918 465 821.965 465H837.93V496.93Z" fill="white"/>
<path d="M852.965 496.93H837V465H852.965C862.012 465 868.93 471.918 868.93 480.965C868.93 490.012 862.012 496.93 852.965 496.93Z" fill="white"/>
<path d="M930.93 496.93H914.965C905.918 496.93 899 490.012 899 480.965V465H930.93V496.93Z" fill="white"/>
<path d="M945.965 496.93H930V465H961.93V480.965C961.93 490.012 955.012 496.93 945.965 496.93Z" fill="white"/>
<path d="M124.93 496H93V527.93H124.93V496Z" fill="white"/>
<path d="M279.93 527.93H263.965C254.918 527.93 248 521.012 248 511.965C248 502.918 254.918 496 263.965 496H279.93V527.93Z" fill="white"/>
<path d="M294.965 527.93H279V496H310.93V511.965C310.93 521.012 304.012 527.93 294.965 527.93Z" fill="white"/>
<path d="M356.965 527.93C365.782 527.93 372.93 520.782 372.93 511.965C372.93 503.148 365.782 496 356.965 496C348.148 496 341 503.148 341 511.965C341 520.782 348.148 527.93 356.965 527.93Z" fill="white"/>
<path d="M697.965 527.93C688.918 527.93 682 521.012 682 511.965V496H713.93V511.965C713.93 521.012 707.012 527.93 697.965 527.93Z" fill="white"/>
<path d="M775.93 496H744V527.93H775.93V496Z" fill="white"/>
<path d="M790.965 527.93H775V496H790.965C800.012 496 806.93 502.918 806.93 511.965C806.93 521.012 800.012 527.93 790.965 527.93Z" fill="white"/>
<path d="M124.93 558.93H108.965C99.9182 558.93 93 552.012 93 542.965V527H124.93V558.93Z" fill="white"/>
<path d="M139.965 558.93H124V527H139.965C149.012 527 155.93 533.918 155.93 542.965C155.93 552.012 149.012 558.93 139.965 558.93Z" fill="white"/>
<path d="M248.93 558.93H217V542.965C217 533.918 223.918 527 232.965 527C242.012 527 248.93 533.918 248.93 542.965V558.93Z" fill="white"/>
<path d="M341.93 558.93H310V542.965C310 533.918 316.918 527 325.965 527C335.012 527 341.93 533.918 341.93 542.965V558.93Z" fill="white"/>
<path d="M744.93 558.93H728.965C719.918 558.93 713 552.012 713 542.965C713 533.918 719.918 527 728.965 527H744.93V558.93Z" fill="white"/>
<path d="M759.965 558.93H744V527H775.93V542.965C775.93 552.012 769.012 558.93 759.965 558.93Z" fill="white"/>
<path d="M837.93 558.93H806V542.965C806 533.918 812.918 527 821.965 527H837.93V558.93Z" fill="white"/>
<path d="M868.93 558.93H837V527H852.965C862.012 527 868.93 533.918 868.93 542.965V558.93Z" fill="white"/>
<path d="M961.93 558.93H930V542.965C930 533.918 936.918 527 945.965 527C955.012 527 961.93 533.918 961.93 542.965V558.93Z" fill="white"/>
<path d="M93.93 589.93H62V573.965C62 564.918 68.9182 558 77.965 558C87.0118 558 93.93 564.918 93.93 573.965V589.93Z" fill="white"/>
<path d="M248.93 589.93H232.965C223.918 589.93 217 583.012 217 573.965V558H248.93V589.93Z" fill="white"/>
<path d="M263.965 589.93H248V558H263.965C273.012 558 279.93 564.918 279.93 573.965C279.93 583.012 273.012 589.93 263.965 589.93Z" fill="white"/>
<path d="M325.965 589.93C316.918 589.93 310 583.012 310 573.965V558H341.93V573.965C341.93 583.012 335.012 589.93 325.965 589.93Z" fill="white"/>
<path d="M713.93 589.93H682V573.965C682 564.918 688.918 558 697.965 558C707.012 558 713.93 564.918 713.93 573.965V589.93Z" fill="white"/>
<path d="M837.93 558H806V589.93H837.93V558Z" fill="white"/>
<path d="M868.93 558H837V589.93H868.93V558Z" fill="white"/>
<path d="M883.965 589.93H868V558H883.965C893.012 558 899.93 564.918 899.93 573.965C899.93 583.012 893.012 589.93 883.965 589.93Z" fill="white"/>
<path d="M961.93 558H930V589.93H961.93V558Z" fill="white"/>
<path d="M93.93 589H62V620.93H93.93V589Z" fill="white"/>
<path d="M139.965 620.93C148.782 620.93 155.93 613.782 155.93 604.965C155.93 596.148 148.782 589 139.965 589C131.148 589 124 596.148 124 604.965C124 613.782 131.148 620.93 139.965 620.93Z" fill="white"/>
<path d="M217.93 620.93H186V604.965C186 595.918 192.918 589 201.965 589C211.012 589 217.93 595.918 217.93 604.965V620.93Z" fill="white"/>
<path d="M682.93 620.93H666.965C657.918 620.93 651 614.012 651 604.965C651 595.918 657.918 589 666.965 589H682.93V620.93Z" fill="white"/>
<path d="M713.93 589H682V620.93H713.93V589Z" fill="white"/>
<path d="M806.93 620.93H775V604.965C775 595.918 781.918 589 790.965 589H806.93V620.93Z" fill="white"/>
<path d="M837.93 589H806V620.93H837.93V589Z" fill="white"/>
<path d="M868.93 589H837V620.93H868.93V589Z" fill="white"/>
<path d="M930.93 620.93H914.965C905.918 620.93 899 614.012 899 604.965C899 595.918 905.918 589 914.965 589H930.93V620.93Z" fill="white"/>
<path d="M945.965 620.93H930V589H961.93V604.965C961.93 614.012 955.012 620.93 945.965 620.93Z" fill="white"/>
<path d="M93.93 620H62V651.93H93.93V620Z" fill="white"/>
<path d="M217.93 620H186V651.93H217.93V620Z" fill="white"/>
<path d="M248.93 620H217V651.93H248.93V620Z" fill="white"/>
<path d="M263.965 651.93H248V620H263.965C273.012 620 279.93 626.918 279.93 635.965C279.93 645.012 273.012 651.93 263.965 651.93Z" fill="white"/>
<path d="M341.93 651.93H310V635.965C310 626.918 316.918 620 325.965 620C335.012 620 341.93 626.918 341.93 635.965V651.93Z" fill="white"/>
<path d="M713.93 620H682V651.93H713.93V620Z" fill="white"/>
<path d="M775.93 651.93H744V635.965C744 626.918 750.918 620 759.965 620H775.93V651.93Z" fill="white"/>
<path d="M806.93 620H775V651.93H806.93V620Z" fill="white"/>
<path d="M868.93 620H837V651.93H868.93V620Z" fill="white"/>
<path d="M93.93 651H62V682.93H93.93V651Z" fill="white"/>
<path d="M155.93 682.93H124V666.965C124 657.918 130.918 651 139.965 651C149.012 651 155.93 657.918 155.93 666.965V682.93Z" fill="white"/>
<path d="M217.93 651H186V682.93H217.93V651Z" fill="white"/>
<path d="M248.93 651H217V682.93H248.93V651Z" fill="white"/>
<path d="M310.93 682.93H279V666.965C279 657.918 285.918 651 294.965 651H310.93V682.93Z" fill="white"/>
<path d="M341.93 651H310V682.93H341.93V651Z" fill="white"/>
<path d="M356.965 682.93H341V651H356.965C366.012 651 372.93 657.918 372.93 666.965C372.93 676.012 366.012 682.93 356.965 682.93Z" fill="white"/>
<path d="M434.93 682.93H403V666.965C403 657.918 409.918 651 418.965 651C428.012 651 434.93 657.918 434.93 666.965V682.93Z" fill="white"/>
<path d="M558.93 682.93H527V666.965C527 657.918 533.918 651 542.965 651H558.93V682.93Z" fill="white"/>
<path d="M589.93 651H558V682.93H589.93V651Z" fill="white"/>
<path d="M620.93 651H589V682.93H620.93V651Z" fill="white"/>
<path d="M635.965 682.93H620V651H635.965C645.012 651 651.93 657.918 651.93 666.965C651.93 676.012 645.012 682.93 635.965 682.93Z" fill="white"/>
<path d="M713.93 651H682V682.93H713.93V651Z" fill="white"/>
<path d="M775.93 651H744V682.93H775.93V651Z" fill="white"/>
<path d="M806.93 651H775V682.93H806.93V651Z" fill="white"/>
<path d="M868.93 651H837V682.93H868.93V651Z" fill="white"/>
<path d="M945.965 682.93C954.782 682.93 961.93 675.782 961.93 666.965C961.93 658.148 954.782 651 945.965 651C937.148 651 930 658.148 930 666.965C930 675.782 937.148 682.93 945.965 682.93Z" fill="white"/>
<path d="M77.965 713.93C68.9182 713.93 62 707.012 62 697.965V682H93.93V697.965C93.93 707.012 87.0118 713.93 77.965 713.93Z" fill="white"/>
<path d="M155.93 713.93H139.965C130.918 713.93 124 707.012 124 697.965V682H155.93V713.93Z" fill="white"/>
<path d="M186.93 682H155V713.93H186.93V682Z" fill="white"/>
<path d="M217.93 682H186V713.93H217.93V682Z" fill="white"/>
<path d="M248.93 682H217V713.93H248.93V682Z" fill="white"/>
<path d="M279.93 682H248V713.93H279.93V682Z" fill="white"/>
<path d="M294.965 713.93H279V682H310.93V697.965C310.93 707.012 304.012 713.93 294.965 713.93Z" fill="white"/>
<path d="M403.93 713.93H387.965C378.918 713.93 372 707.012 372 697.965C372 688.918 378.918 682 387.965 682H403.93V713.93Z" fill="white"/>
<path d="M434.93 682H403V713.93H434.93V682Z" fill="white"/>
<path d="M465.93 682H434V713.93H465.93V682Z" fill="white"/>
<path d="M480.965 713.93H465V682H480.965C490.012 682 496.93 688.918 496.93 697.965C496.93 707.012 490.012 713.93 480.965 713.93Z" fill="white"/>
<path d="M542.965 713.93C533.918 713.93 527 707.012 527 697.965V682H558.93V697.965C558.93 707.012 552.012 713.93 542.965 713.93Z" fill="white"/>
<path d="M604.965 713.93C595.918 713.93 589 707.012 589 697.965V682H620.93V697.965C620.93 707.012 614.012 713.93 604.965 713.93Z" fill="white"/>
<path d="M713.93 682H682V713.93H713.93V682Z" fill="white"/>
<path d="M744.93 682H713V713.93H744.93V682Z" fill="white"/>
<path d="M775.93 682H744V713.93H775.93V682Z" fill="white"/>
<path d="M806.93 682H775V713.93H806.93V682Z" fill="white"/>
<path d="M837.93 682H806V713.93H837.93V682Z" fill="white"/>
<path d="M868.93 682H837V713.93H868.93V682Z" fill="white"/>
<path d="M883.965 713.93H868V682H883.965C893.012 682 899.93 688.918 899.93 697.965C899.93 707.012 893.012 713.93 883.965 713.93Z" fill="white"/>
<path d="M325.965 744.93C334.782 744.93 341.93 737.782 341.93 728.965C341.93 720.148 334.782 713 325.965 713C317.148 713 310 720.148 310 728.965C310 737.782 317.148 744.93 325.965 744.93Z" fill="white"/>
<path d="M418.965 744.93C409.918 744.93 403 738.012 403 728.965V713H434.93V728.965C434.93 738.012 428.012 744.93 418.965 744.93Z" fill="white"/>
<path d="M651.93 744.93H635.965C626.918 744.93 620 738.012 620 728.965C620 719.918 626.918 713 635.965 713H651.93V744.93Z" fill="white"/>
<path d="M682.93 713H651V744.93H682.93V713Z" fill="white"/>
<path d="M713.93 713H682V744.93H713.93V713Z" fill="white"/>
<path d="M837.93 713H806V744.93H837.93V713Z" fill="white"/>
<path d="M852.965 744.93H837V713H868.93V728.965C868.93 738.012 862.012 744.93 852.965 744.93Z" fill="white"/>
<path d="M930.93 744.93H914.965C905.918 744.93 899 738.012 899 728.965C899 719.918 905.918 713 914.965 713H930.93V744.93Z" fill="white"/>
<path d="M945.965 744.93H930V713H945.965C955.012 713 961.93 719.918 961.93 728.965C961.93 738.012 955.012 744.93 945.965 744.93Z" fill="white"/>
<path d="M403.93 775.93H372V759.965C372 750.918 378.918 744 387.965 744C397.012 744 403.93 750.918 403.93 759.965V775.93Z" fill="white"/>
<path d="M449.965 775.93C458.782 775.93 465.93 768.782 465.93 759.965C465.93 751.148 458.782 744 449.965 744C441.148 744 434 751.148 434 759.965C434 768.782 441.148 775.93 449.965 775.93Z" fill="white"/>
<path d="M542.965 775.93C551.782 775.93 558.93 768.782 558.93 759.965C558.93 751.148 551.782 744 542.965 744C534.148 744 527 751.148 527 759.965C527 768.782 534.148 775.93 542.965 775.93Z" fill="white"/>
<path d="M682.93 744H651V775.93H682.93V744Z" fill="white"/>
<path d="M713.93 744H682V775.93H713.93V744Z" fill="white"/>
<path d="M759.965 775.93C768.782 775.93 775.93 768.782 775.93 759.965C775.93 751.148 768.782 744 759.965 744C751.148 744 744 751.148 744 759.965C744 768.782 751.148 775.93 759.965 775.93Z" fill="white"/>
<path d="M837.93 744H806V775.93H837.93V744Z" fill="white"/>
<path d="M372.93 806.93H341V790.965C341 781.918 347.918 775 356.965 775H372.93V806.93Z" fill="white"/>
<path d="M403.93 775H372V806.93H403.93V775Z" fill="white"/>
<path d="M418.965 806.93H403V775H418.965C428.012 775 434.93 781.918 434.93 790.965C434.93 800.012 428.012 806.93 418.965 806.93Z" fill="white"/>
<path d="M496.93 806.93H480.965C471.918 806.93 465 800.012 465 790.965C465 781.918 471.918 775 480.965 775H496.93V806.93Z" fill="white"/>
<path d="M527.93 806.93H496V775H511.965C521.012 775 527.93 781.918 527.93 790.965V806.93Z" fill="white"/>
<path d="M589.93 806.93H573.965C564.918 806.93 558 800.012 558 790.965C558 781.918 564.918 775 573.965 775H589.93V806.93Z" fill="white"/>
<path d="M620.93 775H589V806.93H620.93V775Z" fill="white"/>
<path d="M651.93 775H620V806.93H651.93V775Z" fill="white"/>
<path d="M682.93 775H651V806.93H682.93V775Z" fill="white"/>
<path d="M713.93 775H682V806.93H713.93V775Z" fill="white"/>
<path d="M837.93 775H806V806.93H837.93V775Z" fill="white"/>
<path d="M868.93 806.93H837V775H852.965C862.012 775 868.93 781.918 868.93 790.965V806.93Z" fill="white"/>
<path d="M945.965 806.93C954.782 806.93 961.93 799.782 961.93 790.965C961.93 782.148 954.782 775 945.965 775C937.148 775 930 782.148 930 790.965C930 799.782 937.148 806.93 945.965 806.93Z" fill="white"/>
<path d="M341.93 837.93H310V821.965C310 812.918 316.918 806 325.965 806H341.93V837.93Z" fill="white"/>
<path d="M372.93 806H341V837.93H372.93V806Z" fill="white"/>
<path d="M387.965 837.93H372V806H403.93V821.965C403.93 831.012 397.012 837.93 387.965 837.93Z" fill="white"/>
<path d="M511.965 837.93C502.918 837.93 496 831.012 496 821.965V806H527.93V821.965C527.93 831.012 521.012 837.93 511.965 837.93Z" fill="white"/>
<path d="M635.965 837.93C626.918 837.93 620 831.012 620 821.965V806H651.93V821.965C651.93 831.012 645.012 837.93 635.965 837.93Z" fill="white"/>
<path d="M713.93 806H682V837.93H713.93V806Z" fill="white"/>
<path d="M744.93 806H713V837.93H744.93V806Z" fill="white"/>
<path d="M775.93 806H744V837.93H775.93V806Z" fill="white"/>
<path d="M806.93 806H775V837.93H806.93V806Z" fill="white"/>
<path d="M837.93 806H806V837.93H837.93V806Z" fill="white"/>
<path d="M868.93 806H837V837.93H868.93V806Z" fill="white"/>
<path d="M899.93 806H868V837.93H899.93V806Z" fill="white"/>
<path d="M914.965 837.93H899V806H914.965C924.012 806 930.93 812.918 930.93 821.965C930.93 831.012 924.012 837.93 914.965 837.93Z" fill="white"/>
<path d="M341.93 837H310V868.93H341.93V837Z" fill="white"/>
<path d="M682.93 868.93H651V852.965C651 843.918 657.918 837 666.965 837H682.93V868.93Z" fill="white"/>
<path d="M713.93 837H682V868.93H713.93V837Z" fill="white"/>
<path d="M744.93 837H713V868.93H744.93V837Z" fill="white"/>
<path d="M806.93 837H775V868.93H806.93V837Z" fill="white"/>
<path d="M341.93 899.93H325.965C316.918 899.93 310 893.012 310 883.965V868H341.93V899.93Z" fill="white"/>
<path d="M372.93 868H341V899.93H372.93V868Z" fill="white"/>
<path d="M403.93 899.93H372V868H387.965C397.012 868 403.93 874.918 403.93 883.965V899.93Z" fill="white"/>
<path d="M465.93 899.93H434V883.965C434 874.918 440.918 868 449.965 868H465.93V899.93Z" fill="white"/>
<path d="M480.965 899.93H465V868H480.965C490.012 868 496.93 874.918 496.93 883.965C496.93 893.012 490.012 899.93 480.965 899.93Z" fill="white"/>
<path d="M558.93 899.93H542.965C533.918 899.93 527 893.012 527 883.965C527 874.918 533.918 868 542.965 868H558.93V899.93Z" fill="white"/>
<path d="M573.965 899.93H558V868H573.965C583.012 868 589.93 874.918 589.93 883.965C589.93 893.012 583.012 899.93 573.965 899.93Z" fill="white"/>
<path d="M651.93 899.93H620V883.965C620 874.918 626.918 868 635.965 868H651.93V899.93Z" fill="white"/>
<path d="M682.93 868H651V899.93H682.93V868Z" fill="white"/>
<path d="M713.93 868H682V899.93H713.93V868Z" fill="white"/>
<path d="M744.93 868H713V899.93H744.93V868Z" fill="white"/>
<path d="M775.93 868H744V899.93H775.93V868Z" fill="white"/>
<path d="M806.93 868H775V899.93H806.93V868Z" fill="white"/>
<path d="M837.93 868H806V899.93H837.93V868Z" fill="white"/>
<path d="M868.93 868H837V899.93H868.93V868Z" fill="white"/>
<path d="M899.93 868H868V899.93H899.93V868Z" fill="white"/>
<path d="M930.93 899.93H899V868H914.965C924.012 868 930.93 874.918 930.93 883.965V899.93Z" fill="white"/>
<path d="M403.93 899H372V930.93H403.93V899Z" fill="white"/>
<path d="M449.965 930.93C440.918 930.93 434 924.012 434 914.965V899H465.93V914.965C465.93 924.012 459.012 930.93 449.965 930.93Z" fill="white"/>
<path d="M527.93 930.93H496V914.965C496 905.918 502.918 899 511.965 899C521.012 899 527.93 905.918 527.93 914.965V930.93Z" fill="white"/>
<path d="M620.93 930.93H604.965C595.918 930.93 589 924.012 589 914.965C589 905.918 595.918 899 604.965 899H620.93V930.93Z" fill="white"/>
<path d="M651.93 899H620V930.93H651.93V899Z" fill="white"/>
<path d="M682.93 899H651V930.93H682.93V899Z" fill="white"/>
<path d="M744.93 899H713V930.93H744.93V899Z" fill="white"/>
<path d="M837.93 899H806V930.93H837.93V899Z" fill="white"/>
<path d="M914.965 930.93C905.918 930.93 899 924.012 899 914.965V899H930.93V914.965C930.93 924.012 924.012 930.93 914.965 930.93Z" fill="white"/>
<path d="M372.93 961.93H356.965C347.918 961.93 341 955.012 341 945.965C341 936.918 347.918 930 356.965 930H372.93V961.93Z" fill="white"/>
<path d="M387.965 961.93H372V930H403.93V945.965C403.93 955.012 397.012 961.93 387.965 961.93Z" fill="white"/>
<path d="M496.93 961.93H480.965C471.918 961.93 465 955.012 465 945.965C465 936.918 471.918 930 480.965 930H496.93V961.93Z" fill="white"/>
<path d="M527.93 930H496V961.93H527.93V930Z" fill="white"/>
<path d="M542.965 961.93H527V930H542.965C552.012 930 558.93 936.918 558.93 945.965C558.93 955.012 552.012 961.93 542.965 961.93Z" fill="white"/>
<path d="M651.93 961.93H635.965C626.918 961.93 620 955.012 620 945.965V930H651.93V961.93Z" fill="white"/>
<path d="M666.965 961.93H651V930H682.93V945.965C682.93 955.012 676.012 961.93 666.965 961.93Z" fill="white"/>
<path d="M728.965 961.93C719.918 961.93 713 955.012 713 945.965V930H744.93V945.965C744.93 955.012 738.012 961.93 728.965 961.93Z" fill="white"/>
<path d="M821.965 961.93C812.918 961.93 806 955.012 806 945.965V930H837.93V945.965C837.93 955.012 831.012 961.93 821.965 961.93Z" fill="white"/>
<path d="M883.965 961.93C892.782 961.93 899.93 954.782 899.93 945.965C899.93 937.148 892.782 930 883.965 930C875.148 930 868 937.148 868 945.965C868 954.782 875.148 961.93 883.965 961.93Z" fill="white"/>
</mask>
<g mask="url(#mask0_15239_247498)">
<path d="M1023 0H0V1023H1023V0Z" fill="#1A4049"/>
</g>
<path d="M131.75 279H210.8C248 279 279 248 279 210.8V131.75C279 93 248 62 209.25 62H130.2C93 62 62 93 62 130.2V209.25C62 248 93 279 131.75 279ZM248 136.4V204.6C248 227.85 227.85 248 204.6 248H136.4C111.6 248 93 229.4 93 204.6V136.4C93 113.15 113.15 93 136.4 93H204.6C229.4 93 248 111.6 248 136.4Z" fill="#1A4049"/>
<path d="M217 150.35V192.2C217 204.6 204.6 217 190.65 217H150.35C134.85 217 124 206.15 124 190.65V150.35C124 136.4 136.4 124 150.35 124H192.2C206.15 124 217 134.85 217 150.35Z" fill="#1A4049"/>
<path d="M813.75 279H892.8C930 279 961 248 961 210.8V131.75C961 93 930 62 891.25 62H812.2C775 62 744 93 744 130.2V209.25C744 248 775 279 813.75 279ZM930 136.4V204.6C930 227.85 909.85 248 886.6 248H818.4C793.6 248 775 229.4 775 204.6V136.4C775 113.15 795.15 93 818.4 93H886.6C911.4 93 930 111.6 930 136.4Z" fill="#1A4049"/>
<path d="M899 150.35V192.2C899 204.6 886.6 217 872.65 217H832.35C816.85 217 806 206.15 806 190.65V150.35C806 136.4 818.4 124 832.35 124H874.2C888.15 124 899 134.85 899 150.35Z" fill="#1A4049"/>
<path d="M131.75 961H210.8C248 961 279 930 279 892.8V813.75C279 775 248 744 209.25 744H130.2C93 744 62 775 62 812.2V891.25C62 930 93 961 131.75 961ZM248 818.4V886.6C248 909.85 227.85 930 204.6 930H136.4C111.6 930 93 911.4 93 886.6V818.4C93 795.15 113.15 775 136.4 775H204.6C229.4 775 248 793.6 248 818.4Z" fill="#1A4049"/>
<path d="M217 832.35V874.2C217 886.6 204.6 899 190.65 899H150.35C134.85 899 124 888.15 124 872.65V832.35C124 818.4 136.4 806 150.35 806H192.2C206.15 806 217 816.85 217 832.35Z" fill="#1A4049"/>
<path d="M512 652C589.32 652 652 589.32 652 512C652 434.68 589.32 372 512 372C434.68 372 372 434.68 372 512C372 589.32 434.68 652 512 652Z" fill="#1A4049"/>
<path d="M492 452H452V572H572V452H532V532H492V452Z" fill="white"/>
<path d="M532 532H572V572H532V532Z" fill="#817AFE"/>
</g>
<defs>
<clipPath id="clip0_15239_247498">
<rect width="1023" height="1023" fill="white"/>
</clipPath>
</defs>
</svg>
