<svg width="1023" height="1023" viewBox="0 0 1023 1023" fill="none" xmlns="http://www.w3.org/2000/svg">
<g clip-path="url(#clip0_15239_248108)">
<path d="M1023 0H0V1023H1023V0Z" fill="white"/>
<mask id="mask0_15239_248108" style="mask-type:luminance" maskUnits="userSpaceOnUse" x="62" y="62" width="900" height="900">
<path d="M341.93 93.93H310V77.965C310 68.9182 316.918 62 325.965 62H341.93V93.93Z" fill="white"/>
<path d="M372.93 62H341V93.93H372.93V62Z" fill="white"/>
<path d="M403.93 93.93H372V62H387.965C397.012 62 403.93 68.9182 403.93 77.965V93.93Z" fill="white"/>
<path d="M558.93 93.93H542.965C533.918 93.93 527 87.0118 527 77.965C527 68.9182 533.918 62 542.965 62H558.93V93.93Z" fill="white"/>
<path d="M589.93 62H558V93.93H589.93V62Z" fill="white"/>
<path d="M620.93 62H589V93.93H620.93V62Z" fill="white"/>
<path d="M635.965 93.93H620V62H635.965C645.012 62 651.93 68.9182 651.93 77.965C651.93 87.0118 645.012 93.93 635.965 93.93Z" fill="white"/>
<path d="M713.93 93.93H682V77.965C682 68.9182 688.918 62 697.965 62C707.012 62 713.93 68.9182 713.93 77.965V93.93Z" fill="white"/>
<path d="M341.93 93H310V124.93H341.93V93Z" fill="white"/>
<path d="M403.93 124.93H387.965C378.918 124.93 372 118.012 372 108.965V93H403.93V124.93Z" fill="white"/>
<path d="M434.93 93H403V124.93H434.93V93Z" fill="white"/>
<path d="M465.93 93H434V124.93H465.93V93Z" fill="white"/>
<path d="M496.93 93H465V124.93H496.93V93Z" fill="white"/>
<path d="M511.965 124.93H496V93H511.965C521.012 93 527.93 99.9182 527.93 108.965C527.93 118.012 521.012 124.93 511.965 124.93Z" fill="white"/>
<path d="M589.93 93H558V124.93H589.93V93Z" fill="white"/>
<path d="M604.965 124.93H589V93H620.93V108.965C620.93 118.012 614.012 124.93 604.965 124.93Z" fill="white"/>
<path d="M697.965 124.93C688.918 124.93 682 118.012 682 108.965V93H713.93V108.965C713.93 118.012 707.012 124.93 697.965 124.93Z" fill="white"/>
<path d="M341.93 155.93H325.965C316.918 155.93 310 149.012 310 139.965V124H341.93V155.93Z" fill="white"/>
<path d="M372.93 155.93H341V124H356.965C366.012 124 372.93 130.918 372.93 139.965V155.93Z" fill="white"/>
<path d="M418.965 155.93C409.918 155.93 403 149.012 403 139.965V124H434.93V139.965C434.93 149.012 428.012 155.93 418.965 155.93Z" fill="white"/>
<path d="M573.965 155.93C564.918 155.93 558 149.012 558 139.965V124H589.93V139.965C589.93 149.012 583.012 155.93 573.965 155.93Z" fill="white"/>
<path d="M635.965 155.93C644.782 155.93 651.93 148.782 651.93 139.965C651.93 131.148 644.782 124 635.965 124C627.148 124 620 131.148 620 139.965C620 148.782 627.148 155.93 635.965 155.93Z" fill="white"/>
<path d="M372.93 186.93H356.965C347.918 186.93 341 180.012 341 170.965V155H372.93V186.93Z" fill="white"/>
<path d="M403.93 186.93H372V155H387.965C397.012 155 403.93 161.918 403.93 170.965V186.93Z" fill="white"/>
<path d="M496.93 186.93H465V170.965C465 161.918 471.918 155 480.965 155C490.012 155 496.93 161.918 496.93 170.965V186.93Z" fill="white"/>
<path d="M604.965 186.93C613.782 186.93 620.93 179.782 620.93 170.965C620.93 162.148 613.782 155 604.965 155C596.148 155 589 162.148 589 170.965C589 179.782 596.148 186.93 604.965 186.93Z" fill="white"/>
<path d="M682.93 186.93H651V170.965C651 161.918 657.918 155 666.965 155C676.012 155 682.93 161.918 682.93 170.965V186.93Z" fill="white"/>
<path d="M403.93 186H372V217.93H403.93V186Z" fill="white"/>
<path d="M418.965 217.93H403V186H418.965C428.012 186 434.93 192.918 434.93 201.965C434.93 211.012 428.012 217.93 418.965 217.93Z" fill="white"/>
<path d="M496.93 186H465V217.93H496.93V186Z" fill="white"/>
<path d="M651.93 217.93H620V201.965C620 192.918 626.918 186 635.965 186H651.93V217.93Z" fill="white"/>
<path d="M666.965 217.93H651V186H682.93V201.965C682.93 211.012 676.012 217.93 666.965 217.93Z" fill="white"/>
<path d="M341.93 248.93H310V232.965C310 223.918 316.918 217 325.965 217C335.012 217 341.93 223.918 341.93 232.965V248.93Z" fill="white"/>
<path d="M403.93 217H372V248.93H403.93V217Z" fill="white"/>
<path d="M480.965 248.93C471.918 248.93 465 242.012 465 232.965V217H496.93V232.965C496.93 242.012 490.012 248.93 480.965 248.93Z" fill="white"/>
<path d="M589.93 248.93H558V232.965C558 223.918 564.918 217 573.965 217C583.012 217 589.93 223.918 589.93 232.965V248.93Z" fill="white"/>
<path d="M651.93 217H620V248.93H651.93V217Z" fill="white"/>
<path d="M341.93 248H310V279.93H341.93V248Z" fill="white"/>
<path d="M403.93 248H372V279.93H403.93V248Z" fill="white"/>
<path d="M449.965 279.93C458.782 279.93 465.93 272.782 465.93 263.965C465.93 255.148 458.782 248 449.965 248C441.148 248 434 255.148 434 263.965C434 272.782 441.148 279.93 449.965 279.93Z" fill="white"/>
<path d="M511.965 279.93C520.782 279.93 527.93 272.782 527.93 263.965C527.93 255.148 520.782 248 511.965 248C503.148 248 496 255.148 496 263.965C496 272.782 503.148 279.93 511.965 279.93Z" fill="white"/>
<path d="M589.93 248H558V279.93H589.93V248Z" fill="white"/>
<path d="M651.93 248H620V279.93H651.93V248Z" fill="white"/>
<path d="M697.965 279.93C706.782 279.93 713.93 272.782 713.93 263.965C713.93 255.148 706.782 248 697.965 248C689.148 248 682 255.148 682 263.965C682 272.782 689.148 279.93 697.965 279.93Z" fill="white"/>
<path d="M341.93 279H310V310.93H341.93V279Z" fill="white"/>
<path d="M387.965 310.93C378.918 310.93 372 304.012 372 294.965V279H403.93V294.965C403.93 304.012 397.012 310.93 387.965 310.93Z" fill="white"/>
<path d="M496.93 310.93H465V294.965C465 285.918 471.918 279 480.965 279C490.012 279 496.93 285.918 496.93 294.965V310.93Z" fill="white"/>
<path d="M558.93 310.93H542.965C533.918 310.93 527 304.012 527 294.965C527 285.918 533.918 279 542.965 279H558.93V310.93Z" fill="white"/>
<path d="M573.965 310.93H558V279H589.93V294.965C589.93 304.012 583.012 310.93 573.965 310.93Z" fill="white"/>
<path d="M651.93 279H620V310.93H651.93V279Z" fill="white"/>
<path d="M666.965 310.93H651V279H666.965C676.012 279 682.93 285.918 682.93 294.965C682.93 304.012 676.012 310.93 666.965 310.93Z" fill="white"/>
<path d="M155.93 341.93H124V325.965C124 316.918 130.918 310 139.965 310H155.93V341.93Z" fill="white"/>
<path d="M186.93 310H155V341.93H186.93V310Z" fill="white"/>
<path d="M217.93 341.93H186V310H201.965C211.012 310 217.93 316.918 217.93 325.965V341.93Z" fill="white"/>
<path d="M263.965 341.93C272.782 341.93 279.93 334.782 279.93 325.965C279.93 317.148 272.782 310 263.965 310C255.148 310 248 317.148 248 325.965C248 334.782 255.148 341.93 263.965 341.93Z" fill="white"/>
<path d="M325.965 341.93C316.918 341.93 310 335.012 310 325.965V310H341.93V325.965C341.93 335.012 335.012 341.93 325.965 341.93Z" fill="white"/>
<path d="M434.93 341.93H403V325.965C403 316.918 409.918 310 418.965 310C428.012 310 434.93 316.918 434.93 325.965V341.93Z" fill="white"/>
<path d="M480.965 341.93C471.918 341.93 465 335.012 465 325.965V310H496.93V325.965C496.93 335.012 490.012 341.93 480.965 341.93Z" fill="white"/>
<path d="M651.93 310H620V341.93H651.93V310Z" fill="white"/>
<path d="M713.93 341.93H682V325.965C682 316.918 688.918 310 697.965 310H713.93V341.93Z" fill="white"/>
<path d="M744.93 310H713V341.93H744.93V310Z" fill="white"/>
<path d="M775.93 310H744V341.93H775.93V310Z" fill="white"/>
<path d="M790.965 341.93H775V310H790.965C800.012 310 806.93 316.918 806.93 325.965C806.93 335.012 800.012 341.93 790.965 341.93Z" fill="white"/>
<path d="M899.93 341.93H868V325.965C868 316.918 874.918 310 883.965 310H899.93V341.93Z" fill="white"/>
<path d="M930.93 310H899V341.93H930.93V310Z" fill="white"/>
<path d="M961.93 341.93H930V310H945.965C955.012 310 961.93 316.918 961.93 325.965V341.93Z" fill="white"/>
<path d="M93.93 372.93H62V356.965C62 347.918 68.9182 341 77.965 341H93.93V372.93Z" fill="white"/>
<path d="M124.93 341H93V372.93H124.93V341Z" fill="white"/>
<path d="M155.93 341H124V372.93H155.93V341Z" fill="white"/>
<path d="M217.93 341H186V372.93H217.93V341Z" fill="white"/>
<path d="M434.93 372.93H418.965C409.918 372.93 403 366.012 403 356.965V341H434.93V372.93Z" fill="white"/>
<path d="M449.965 372.93H434V341H449.965C459.012 341 465.93 347.918 465.93 356.965C465.93 366.012 459.012 372.93 449.965 372.93Z" fill="white"/>
<path d="M527.93 372.93H511.965C502.918 372.93 496 366.012 496 356.965C496 347.918 502.918 341 511.965 341H527.93V372.93Z" fill="white"/>
<path d="M558.93 341H527V372.93H558.93V341Z" fill="white"/>
<path d="M589.93 341H558V372.93H589.93V341Z" fill="white"/>
<path d="M620.93 341H589V372.93H620.93V341Z" fill="white"/>
<path d="M635.965 372.93H620V341H651.93V356.965C651.93 366.012 645.012 372.93 635.965 372.93Z" fill="white"/>
<path d="M697.965 372.93C688.918 372.93 682 366.012 682 356.965V341H713.93V356.965C713.93 366.012 707.012 372.93 697.965 372.93Z" fill="white"/>
<path d="M868.93 372.93H852.965C843.918 372.93 837 366.012 837 356.965C837 347.918 843.918 341 852.965 341H868.93V372.93Z" fill="white"/>
<path d="M899.93 341H868V372.93H899.93V341Z" fill="white"/>
<path d="M945.965 372.93C936.918 372.93 930 366.012 930 356.965V341H961.93V356.965C961.93 366.012 955.012 372.93 945.965 372.93Z" fill="white"/>
<path d="M93.93 403.93H77.965C68.9182 403.93 62 397.012 62 387.965V372H93.93V403.93Z" fill="white"/>
<path d="M124.93 372H93V403.93H124.93V372Z" fill="white"/>
<path d="M155.93 372H124V403.93H155.93V372Z" fill="white"/>
<path d="M217.93 403.93H201.965C192.918 403.93 186 397.012 186 387.965V372H217.93V403.93Z" fill="white"/>
<path d="M248.93 372H217V403.93H248.93V372Z" fill="white"/>
<path d="M279.93 372H248V403.93H279.93V372Z" fill="white"/>
<path d="M310.93 372H279V403.93H310.93V372Z" fill="white"/>
<path d="M341.93 372H310V403.93H341.93V372Z" fill="white"/>
<path d="M372.93 403.93H341V372H356.965C366.012 372 372.93 378.918 372.93 387.965V403.93Z" fill="white"/>
<path d="M744.93 403.93H713V387.965C713 378.918 719.918 372 728.965 372H744.93V403.93Z" fill="white"/>
<path d="M775.93 403.93H744V372H759.965C769.012 372 775.93 378.918 775.93 387.965V403.93Z" fill="white"/>
<path d="M837.93 403.93H806V387.965C806 378.918 812.918 372 821.965 372C831.012 372 837.93 378.918 837.93 387.965V403.93Z" fill="white"/>
<path d="M883.965 403.93C874.918 403.93 868 397.012 868 387.965V372H899.93V387.965C899.93 397.012 893.012 403.93 883.965 403.93Z" fill="white"/>
<path d="M124.93 403H93V434.93H124.93V403Z" fill="white"/>
<path d="M155.93 403H124V434.93H155.93V403Z" fill="white"/>
<path d="M170.965 434.93H155V403H170.965C180.012 403 186.93 409.918 186.93 418.965C186.93 428.012 180.012 434.93 170.965 434.93Z" fill="white"/>
<path d="M341.93 403H310V434.93H341.93V403Z" fill="white"/>
<path d="M356.965 434.93H341V403H372.93V418.965C372.93 428.012 366.012 434.93 356.965 434.93Z" fill="white"/>
<path d="M744.93 403H713V434.93H744.93V403Z" fill="white"/>
<path d="M775.93 403H744V434.93H775.93V403Z" fill="white"/>
<path d="M806.93 403H775V434.93H806.93V403Z" fill="white"/>
<path d="M837.93 403H806V434.93H837.93V403Z" fill="white"/>
<path d="M852.965 434.93H837V403H852.965C862.012 403 868.93 409.918 868.93 418.965C868.93 428.012 862.012 434.93 852.965 434.93Z" fill="white"/>
<path d="M930.93 434.93H899V418.965C899 409.918 905.918 403 914.965 403C924.012 403 930.93 409.918 930.93 418.965V434.93Z" fill="white"/>
<path d="M124.93 465.93H108.965C99.9182 465.93 93 459.012 93 449.965V434H124.93V465.93Z" fill="white"/>
<path d="M155.93 434H124V465.93H155.93V434Z" fill="white"/>
<path d="M217.93 465.93H186V449.965C186 440.918 192.918 434 201.965 434C211.012 434 217.93 440.918 217.93 449.965V465.93Z" fill="white"/>
<path d="M263.965 465.93C272.782 465.93 279.93 458.782 279.93 449.965C279.93 441.148 272.782 434 263.965 434C255.148 434 248 441.148 248 449.965C248 458.782 255.148 465.93 263.965 465.93Z" fill="white"/>
<path d="M341.93 434H310V465.93H341.93V434Z" fill="white"/>
<path d="M713.93 465.93H682V449.965C682 440.918 688.918 434 697.965 434H713.93V465.93Z" fill="white"/>
<path d="M744.93 434H713V465.93H744.93V434Z" fill="white"/>
<path d="M790.965 465.93C781.918 465.93 775 459.012 775 449.965V434H806.93V449.965C806.93 459.012 800.012 465.93 790.965 465.93Z" fill="white"/>
<path d="M899.93 465.93H883.965C874.918 465.93 868 459.012 868 449.965C868 440.918 874.918 434 883.965 434H899.93V465.93Z" fill="white"/>
<path d="M930.93 434H899V465.93H930.93V434Z" fill="white"/>
<path d="M961.93 465.93H930V434H945.965C955.012 434 961.93 440.918 961.93 449.965V465.93Z" fill="white"/>
<path d="M155.93 465H124V496.93H155.93V465Z" fill="white"/>
<path d="M186.93 465H155V496.93H186.93V465Z" fill="white"/>
<path d="M201.965 496.93H186V465H217.93V480.965C217.93 490.012 211.012 496.93 201.965 496.93Z" fill="white"/>
<path d="M341.93 465H310V496.93H341.93V465Z" fill="white"/>
<path d="M356.965 496.93H341V465H356.965C366.012 465 372.93 471.918 372.93 480.965C372.93 490.012 366.012 496.93 356.965 496.93Z" fill="white"/>
<path d="M682.93 496.93H666.965C657.918 496.93 651 490.012 651 480.965C651 471.918 657.918 465 666.965 465H682.93V496.93Z" fill="white"/>
<path d="M713.93 465H682V496.93H713.93V465Z" fill="white"/>
<path d="M744.93 465H713V496.93H744.93V465Z" fill="white"/>
<path d="M759.965 496.93H744V465H759.965C769.012 465 775.93 471.918 775.93 480.965C775.93 490.012 769.012 496.93 759.965 496.93Z" fill="white"/>
<path d="M837.93 496.93H821.965C812.918 496.93 806 490.012 806 480.965C806 471.918 812.918 465 821.965 465H837.93V496.93Z" fill="white"/>
<path d="M852.965 496.93H837V465H852.965C862.012 465 868.93 471.918 868.93 480.965C868.93 490.012 862.012 496.93 852.965 496.93Z" fill="white"/>
<path d="M930.93 496.93H914.965C905.918 496.93 899 490.012 899 480.965V465H930.93V496.93Z" fill="white"/>
<path d="M945.965 496.93H930V465H961.93V480.965C961.93 490.012 955.012 496.93 945.965 496.93Z" fill="white"/>
<path d="M77.965 527.93C86.7822 527.93 93.93 520.782 93.93 511.965C93.93 503.148 86.7822 496 77.965 496C69.1478 496 62 503.148 62 511.965C62 520.782 69.1478 527.93 77.965 527.93Z" fill="white"/>
<path d="M139.965 527.93C130.918 527.93 124 521.012 124 511.965V496H155.93V511.965C155.93 521.012 149.012 527.93 139.965 527.93Z" fill="white"/>
<path d="M279.93 527.93H263.965C254.918 527.93 248 521.012 248 511.965C248 502.918 254.918 496 263.965 496H279.93V527.93Z" fill="white"/>
<path d="M310.93 496H279V527.93H310.93V496Z" fill="white"/>
<path d="M341.93 496H310V527.93H341.93V496Z" fill="white"/>
<path d="M713.93 527.93H697.965C688.918 527.93 682 521.012 682 511.965V496H713.93V527.93Z" fill="white"/>
<path d="M744.93 496H713V527.93H744.93V496Z" fill="white"/>
<path d="M790.965 527.93C799.782 527.93 806.93 520.782 806.93 511.965C806.93 503.148 799.782 496 790.965 496C782.148 496 775 503.148 775 511.965C775 520.782 782.148 527.93 790.965 527.93Z" fill="white"/>
<path d="M186.93 558.93H155V542.965C155 533.918 161.918 527 170.965 527H186.93V558.93Z" fill="white"/>
<path d="M217.93 527H186V558.93H217.93V527Z" fill="white"/>
<path d="M248.93 558.93H217V527H232.965C242.012 527 248.93 533.918 248.93 542.965V558.93Z" fill="white"/>
<path d="M310.93 558.93H294.965C285.918 558.93 279 552.012 279 542.965V527H310.93V558.93Z" fill="white"/>
<path d="M341.93 527H310V558.93H341.93V527Z" fill="white"/>
<path d="M372.93 558.93H341V527H356.965C366.012 527 372.93 533.918 372.93 542.965V558.93Z" fill="white"/>
<path d="M744.93 527H713V558.93H744.93V527Z" fill="white"/>
<path d="M837.93 558.93H821.965C812.918 558.93 806 552.012 806 542.965C806 533.918 812.918 527 821.965 527H837.93V558.93Z" fill="white"/>
<path d="M868.93 558.93H837V527H852.965C862.012 527 868.93 533.918 868.93 542.965V558.93Z" fill="white"/>
<path d="M93.93 589.93H62V573.965C62 564.918 68.9182 558 77.965 558H93.93V589.93Z" fill="white"/>
<path d="M124.93 558H93V589.93H124.93V558Z" fill="white"/>
<path d="M155.93 558H124V589.93H155.93V558Z" fill="white"/>
<path d="M170.965 589.93H155V558H186.93V573.965C186.93 583.012 180.012 589.93 170.965 589.93Z" fill="white"/>
<path d="M248.93 589.93H232.965C223.918 589.93 217 583.012 217 573.965V558H248.93V589.93Z" fill="white"/>
<path d="M263.965 589.93H248V558H263.965C273.012 558 279.93 564.918 279.93 573.965C279.93 583.012 273.012 589.93 263.965 589.93Z" fill="white"/>
<path d="M372.93 558H341V589.93H372.93V558Z" fill="white"/>
<path d="M744.93 558H713V589.93H744.93V558Z" fill="white"/>
<path d="M868.93 589.93H852.965C843.918 589.93 837 583.012 837 573.965V558H868.93V589.93Z" fill="white"/>
<path d="M899.93 558H868V589.93H899.93V558Z" fill="white"/>
<path d="M930.93 558H899V589.93H930.93V558Z" fill="white"/>
<path d="M961.93 589.93H930V558H945.965C955.012 558 961.93 564.918 961.93 573.965V589.93Z" fill="white"/>
<path d="M93.93 589H62V620.93H93.93V589Z" fill="white"/>
<path d="M341.93 620.93H325.965C316.918 620.93 310 614.012 310 604.965C310 595.918 316.918 589 325.965 589H341.93V620.93Z" fill="white"/>
<path d="M372.93 589H341V620.93H372.93V589Z" fill="white"/>
<path d="M728.965 620.93C719.918 620.93 713 614.012 713 604.965V589H744.93V604.965C744.93 614.012 738.012 620.93 728.965 620.93Z" fill="white"/>
<path d="M899.93 589H868V620.93H899.93V589Z" fill="white"/>
<path d="M930.93 589H899V620.93H930.93V589Z" fill="white"/>
<path d="M945.965 620.93H930V589H961.93V604.965C961.93 614.012 955.012 620.93 945.965 620.93Z" fill="white"/>
<path d="M93.93 620H62V651.93H93.93V620Z" fill="white"/>
<path d="M155.93 651.93H124V635.965C124 626.918 130.918 620 139.965 620C149.012 620 155.93 626.918 155.93 635.965V651.93Z" fill="white"/>
<path d="M217.93 651.93H186V635.965C186 626.918 192.918 620 201.965 620H217.93V651.93Z" fill="white"/>
<path d="M248.93 620H217V651.93H248.93V620Z" fill="white"/>
<path d="M263.965 651.93H248V620H263.965C273.012 620 279.93 626.918 279.93 635.965C279.93 645.012 273.012 651.93 263.965 651.93Z" fill="white"/>
<path d="M356.965 651.93C347.918 651.93 341 645.012 341 635.965V620H372.93V635.965C372.93 645.012 366.012 651.93 356.965 651.93Z" fill="white"/>
<path d="M697.965 651.93C706.782 651.93 713.93 644.782 713.93 635.965C713.93 627.148 706.782 620 697.965 620C689.148 620 682 627.148 682 635.965C682 644.782 689.148 651.93 697.965 651.93Z" fill="white"/>
<path d="M775.93 651.93H744V635.965C744 626.918 750.918 620 759.965 620H775.93V651.93Z" fill="white"/>
<path d="M806.93 651.93H775V620H790.965C800.012 620 806.93 626.918 806.93 635.965V651.93Z" fill="white"/>
<path d="M868.93 651.93H852.965C843.918 651.93 837 645.012 837 635.965C837 626.918 843.918 620 852.965 620H868.93V651.93Z" fill="white"/>
<path d="M883.965 651.93H868V620H899.93V635.965C899.93 645.012 893.012 651.93 883.965 651.93Z" fill="white"/>
<path d="M93.93 651H62V682.93H93.93V651Z" fill="white"/>
<path d="M155.93 651H124V682.93H155.93V651Z" fill="white"/>
<path d="M217.93 682.93H201.965C192.918 682.93 186 676.012 186 666.965V651H217.93V682.93Z" fill="white"/>
<path d="M232.965 682.93H217V651H248.93V666.965C248.93 676.012 242.012 682.93 232.965 682.93Z" fill="white"/>
<path d="M310.93 682.93H279V666.965C279 657.918 285.918 651 294.965 651C304.012 651 310.93 657.918 310.93 666.965V682.93Z" fill="white"/>
<path d="M387.965 682.93C396.782 682.93 403.93 675.782 403.93 666.965C403.93 658.148 396.782 651 387.965 651C379.148 651 372 658.148 372 666.965C372 675.782 379.148 682.93 387.965 682.93Z" fill="white"/>
<path d="M449.965 682.93C458.782 682.93 465.93 675.782 465.93 666.965C465.93 658.148 458.782 651 449.965 651C441.148 651 434 658.148 434 666.965C434 675.782 441.148 682.93 449.965 682.93Z" fill="white"/>
<path d="M542.965 682.93C551.782 682.93 558.93 675.782 558.93 666.965C558.93 658.148 551.782 651 542.965 651C534.148 651 527 658.148 527 666.965C527 675.782 534.148 682.93 542.965 682.93Z" fill="white"/>
<path d="M620.93 682.93H589V666.965C589 657.918 595.918 651 604.965 651C614.012 651 620.93 657.918 620.93 666.965V682.93Z" fill="white"/>
<path d="M775.93 651H744V682.93H775.93V651Z" fill="white"/>
<path d="M806.93 651H775V682.93H806.93V651Z" fill="white"/>
<path d="M837.93 682.93H806V651H821.965C831.012 651 837.93 657.918 837.93 666.965V682.93Z" fill="white"/>
<path d="M961.93 682.93H930V666.965C930 657.918 936.918 651 945.965 651C955.012 651 961.93 657.918 961.93 666.965V682.93Z" fill="white"/>
<path d="M77.965 713.93C68.9182 713.93 62 707.012 62 697.965V682H93.93V697.965C93.93 707.012 87.0118 713.93 77.965 713.93Z" fill="white"/>
<path d="M155.93 713.93H139.965C130.918 713.93 124 707.012 124 697.965V682H155.93V713.93Z" fill="white"/>
<path d="M170.965 713.93H155V682H170.965C180.012 682 186.93 688.918 186.93 697.965C186.93 707.012 180.012 713.93 170.965 713.93Z" fill="white"/>
<path d="M279.93 713.93H263.965C254.918 713.93 248 707.012 248 697.965C248 688.918 254.918 682 263.965 682H279.93V713.93Z" fill="white"/>
<path d="M310.93 682H279V713.93H310.93V682Z" fill="white"/>
<path d="M341.93 713.93H310V682H325.965C335.012 682 341.93 688.918 341.93 697.965V713.93Z" fill="white"/>
<path d="M496.93 713.93H480.965C471.918 713.93 465 707.012 465 697.965C465 688.918 471.918 682 480.965 682H496.93V713.93Z" fill="white"/>
<path d="M527.93 713.93H496V682H511.965C521.012 682 527.93 688.918 527.93 697.965V713.93Z" fill="white"/>
<path d="M620.93 682H589V713.93H620.93V682Z" fill="white"/>
<path d="M651.93 682H620V713.93H651.93V682Z" fill="white"/>
<path d="M682.93 682H651V713.93H682.93V682Z" fill="white"/>
<path d="M713.93 682H682V713.93H713.93V682Z" fill="white"/>
<path d="M744.93 682H713V713.93H744.93V682Z" fill="white"/>
<path d="M775.93 682H744V713.93H775.93V682Z" fill="white"/>
<path d="M806.93 682H775V713.93H806.93V682Z" fill="white"/>
<path d="M837.93 682H806V713.93H837.93V682Z" fill="white"/>
<path d="M883.965 713.93C892.782 713.93 899.93 706.782 899.93 697.965C899.93 689.148 892.782 682 883.965 682C875.148 682 868 689.148 868 697.965C868 706.782 875.148 713.93 883.965 713.93Z" fill="white"/>
<path d="M961.93 682H930V713.93H961.93V682Z" fill="white"/>
<path d="M341.93 744.93H325.965C316.918 744.93 310 738.012 310 728.965V713H341.93V744.93Z" fill="white"/>
<path d="M356.965 744.93H341V713H356.965C366.012 713 372.93 719.918 372.93 728.965C372.93 738.012 366.012 744.93 356.965 744.93Z" fill="white"/>
<path d="M511.965 744.93C502.918 744.93 496 738.012 496 728.965V713H527.93V728.965C527.93 738.012 521.012 744.93 511.965 744.93Z" fill="white"/>
<path d="M589.93 744.93H573.965C564.918 744.93 558 738.012 558 728.965C558 719.918 564.918 713 573.965 713H589.93V744.93Z" fill="white"/>
<path d="M620.93 713H589V744.93H620.93V713Z" fill="white"/>
<path d="M651.93 713H620V744.93H651.93V713Z" fill="white"/>
<path d="M682.93 713H651V744.93H682.93V713Z" fill="white"/>
<path d="M713.93 713H682V744.93H713.93V713Z" fill="white"/>
<path d="M837.93 713H806V744.93H837.93V713Z" fill="white"/>
<path d="M852.965 744.93H837V713H852.965C862.012 713 868.93 719.918 868.93 728.965C868.93 738.012 862.012 744.93 852.965 744.93Z" fill="white"/>
<path d="M930.93 744.93H914.965C905.918 744.93 899 738.012 899 728.965C899 719.918 905.918 713 914.965 713H930.93V744.93Z" fill="white"/>
<path d="M945.965 744.93H930V713H961.93V728.965C961.93 738.012 955.012 744.93 945.965 744.93Z" fill="white"/>
<path d="M403.93 775.93H387.965C378.918 775.93 372 769.012 372 759.965C372 750.918 378.918 744 387.965 744H403.93V775.93Z" fill="white"/>
<path d="M434.93 744H403V775.93H434.93V744Z" fill="white"/>
<path d="M449.965 775.93H434V744H449.965C459.012 744 465.93 750.918 465.93 759.965C465.93 769.012 459.012 775.93 449.965 775.93Z" fill="white"/>
<path d="M558.93 775.93H527V759.965C527 750.918 533.918 744 542.965 744C552.012 744 558.93 750.918 558.93 759.965V775.93Z" fill="white"/>
<path d="M651.93 775.93H635.965C626.918 775.93 620 769.012 620 759.965V744H651.93V775.93Z" fill="white"/>
<path d="M682.93 744H651V775.93H682.93V744Z" fill="white"/>
<path d="M713.93 744H682V775.93H713.93V744Z" fill="white"/>
<path d="M759.965 775.93C768.782 775.93 775.93 768.782 775.93 759.965C775.93 751.148 768.782 744 759.965 744C751.148 744 744 751.148 744 759.965C744 768.782 751.148 775.93 759.965 775.93Z" fill="white"/>
<path d="M837.93 744H806V775.93H837.93V744Z" fill="white"/>
<path d="M434.93 775H403V806.93H434.93V775Z" fill="white"/>
<path d="M496.93 806.93H480.965C471.918 806.93 465 800.012 465 790.965C465 781.918 471.918 775 480.965 775H496.93V806.93Z" fill="white"/>
<path d="M527.93 775H496V806.93H527.93V775Z" fill="white"/>
<path d="M542.965 806.93H527V775H558.93V790.965C558.93 800.012 552.012 806.93 542.965 806.93Z" fill="white"/>
<path d="M682.93 806.93H666.965C657.918 806.93 651 800.012 651 790.965V775H682.93V806.93Z" fill="white"/>
<path d="M713.93 775H682V806.93H713.93V775Z" fill="white"/>
<path d="M837.93 775H806V806.93H837.93V775Z" fill="white"/>
<path d="M868.93 806.93H837V775H852.965C862.012 775 868.93 781.918 868.93 790.965V806.93Z" fill="white"/>
<path d="M914.965 806.93C923.782 806.93 930.93 799.782 930.93 790.965C930.93 782.148 923.782 775 914.965 775C906.148 775 899 782.148 899 790.965C899 799.782 906.148 806.93 914.965 806.93Z" fill="white"/>
<path d="M341.93 837.93H310V821.965C310 812.918 316.918 806 325.965 806C335.012 806 341.93 812.918 341.93 821.965V837.93Z" fill="white"/>
<path d="M434.93 837.93H418.965C409.918 837.93 403 831.012 403 821.965V806H434.93V837.93Z" fill="white"/>
<path d="M449.965 837.93H434V806H449.965C459.012 806 465.93 812.918 465.93 821.965C465.93 831.012 459.012 837.93 449.965 837.93Z" fill="white"/>
<path d="M589.93 837.93H558V821.965C558 812.918 564.918 806 573.965 806H589.93V837.93Z" fill="white"/>
<path d="M620.93 837.93H589V806H604.965C614.012 806 620.93 812.918 620.93 821.965V837.93Z" fill="white"/>
<path d="M713.93 806H682V837.93H713.93V806Z" fill="white"/>
<path d="M744.93 806H713V837.93H744.93V806Z" fill="white"/>
<path d="M775.93 806H744V837.93H775.93V806Z" fill="white"/>
<path d="M806.93 806H775V837.93H806.93V806Z" fill="white"/>
<path d="M837.93 806H806V837.93H837.93V806Z" fill="white"/>
<path d="M868.93 806H837V837.93H868.93V806Z" fill="white"/>
<path d="M883.965 837.93H868V806H883.965C893.012 806 899.93 812.918 899.93 821.965C899.93 831.012 893.012 837.93 883.965 837.93Z" fill="white"/>
<path d="M945.965 837.93C954.782 837.93 961.93 830.782 961.93 821.965C961.93 813.148 954.782 806 945.965 806C937.148 806 930 813.148 930 821.965C930 830.782 937.148 837.93 945.965 837.93Z" fill="white"/>
<path d="M341.93 837H310V868.93H341.93V837Z" fill="white"/>
<path d="M372.93 837H341V868.93H372.93V837Z" fill="white"/>
<path d="M403.93 868.93H372V837H387.965C397.012 837 403.93 843.918 403.93 852.965V868.93Z" fill="white"/>
<path d="M511.965 868.93C520.782 868.93 527.93 861.782 527.93 852.965C527.93 844.148 520.782 837 511.965 837C503.148 837 496 844.148 496 852.965C496 861.782 503.148 868.93 511.965 868.93Z" fill="white"/>
<path d="M589.93 868.93H573.965C564.918 868.93 558 862.012 558 852.965V837H589.93V868.93Z" fill="white"/>
<path d="M620.93 837H589V868.93H620.93V837Z" fill="white"/>
<path d="M651.93 837H620V868.93H651.93V837Z" fill="white"/>
<path d="M682.93 837H651V868.93H682.93V837Z" fill="white"/>
<path d="M713.93 837H682V868.93H713.93V837Z" fill="white"/>
<path d="M744.93 837H713V868.93H744.93V837Z" fill="white"/>
<path d="M806.93 837H775V868.93H806.93V837Z" fill="white"/>
<path d="M930.93 868.93H899V852.965C899 843.918 905.918 837 914.965 837C924.012 837 930.93 843.918 930.93 852.965V868.93Z" fill="white"/>
<path d="M325.965 899.93C316.918 899.93 310 893.012 310 883.965V868H341.93V883.965C341.93 893.012 335.012 899.93 325.965 899.93Z" fill="white"/>
<path d="M403.93 868H372V899.93H403.93V868Z" fill="white"/>
<path d="M434.93 868H403V899.93H434.93V868Z" fill="white"/>
<path d="M465.93 868H434V899.93H465.93V868Z" fill="white"/>
<path d="M480.965 899.93H465V868H480.965C490.012 868 496.93 874.918 496.93 883.965C496.93 893.012 490.012 899.93 480.965 899.93Z" fill="white"/>
<path d="M542.965 899.93C551.782 899.93 558.93 892.782 558.93 883.965C558.93 875.148 551.782 868 542.965 868C534.148 868 527 875.148 527 883.965C527 892.782 534.148 899.93 542.965 899.93Z" fill="white"/>
<path d="M620.93 899.93H604.965C595.918 899.93 589 893.012 589 883.965V868H620.93V899.93Z" fill="white"/>
<path d="M651.93 868H620V899.93H651.93V868Z" fill="white"/>
<path d="M682.93 868H651V899.93H682.93V868Z" fill="white"/>
<path d="M713.93 868H682V899.93H713.93V868Z" fill="white"/>
<path d="M744.93 868H713V899.93H744.93V868Z" fill="white"/>
<path d="M775.93 868H744V899.93H775.93V868Z" fill="white"/>
<path d="M806.93 868H775V899.93H806.93V868Z" fill="white"/>
<path d="M837.93 899.93H806V868H821.965C831.012 868 837.93 874.918 837.93 883.965V899.93Z" fill="white"/>
<path d="M930.93 868H899V899.93H930.93V868Z" fill="white"/>
<path d="M387.965 930.93C378.918 930.93 372 924.012 372 914.965V899H403.93V914.965C403.93 924.012 397.012 930.93 387.965 930.93Z" fill="white"/>
<path d="M573.965 930.93C582.782 930.93 589.93 923.782 589.93 914.965C589.93 906.148 582.782 899 573.965 899C565.148 899 558 906.148 558 914.965C558 923.782 565.148 930.93 573.965 930.93Z" fill="white"/>
<path d="M651.93 899H620V930.93H651.93V899Z" fill="white"/>
<path d="M682.93 899H651V930.93H682.93V899Z" fill="white"/>
<path d="M713.93 899H682V930.93H713.93V899Z" fill="white"/>
<path d="M759.965 930.93C750.918 930.93 744 924.012 744 914.965V899H775.93V914.965C775.93 924.012 769.012 930.93 759.965 930.93Z" fill="white"/>
<path d="M837.93 899H806V930.93H837.93V899Z" fill="white"/>
<path d="M914.965 930.93C905.918 930.93 899 924.012 899 914.965V899H930.93V914.965C930.93 924.012 924.012 930.93 914.965 930.93Z" fill="white"/>
<path d="M356.965 961.93C365.782 961.93 372.93 954.782 372.93 945.965C372.93 937.148 365.782 930 356.965 930C348.148 930 341 937.148 341 945.965C341 954.782 348.148 961.93 356.965 961.93Z" fill="white"/>
<path d="M527.93 961.93H511.965C502.918 961.93 496 955.012 496 945.965C496 936.918 502.918 930 511.965 930H527.93V961.93Z" fill="white"/>
<path d="M542.965 961.93H527V930H542.965C552.012 930 558.93 936.918 558.93 945.965C558.93 955.012 552.012 961.93 542.965 961.93Z" fill="white"/>
<path d="M651.93 961.93H635.965C626.918 961.93 620 955.012 620 945.965V930H651.93V961.93Z" fill="white"/>
<path d="M682.93 930H651V961.93H682.93V930Z" fill="white"/>
<path d="M713.93 930H682V961.93H713.93V930Z" fill="white"/>
<path d="M728.965 961.93H713V930H728.965C738.012 930 744.93 936.918 744.93 945.965C744.93 955.012 738.012 961.93 728.965 961.93Z" fill="white"/>
<path d="M837.93 961.93H821.965C812.918 961.93 806 955.012 806 945.965V930H837.93V961.93Z" fill="white"/>
<path d="M868.93 930H837V961.93H868.93V930Z" fill="white"/>
<path d="M883.965 961.93H868V930H883.965C893.012 930 899.93 936.918 899.93 945.965C899.93 955.012 893.012 961.93 883.965 961.93Z" fill="white"/>
</mask>
<g mask="url(#mask0_15239_248108)">
<path d="M1023 0H0V1023H1023V0Z" fill="#1A4049"/>
</g>
<path d="M131.75 279H210.8C248 279 279 248 279 210.8V131.75C279 93 248 62 209.25 62H130.2C93 62 62 93 62 130.2V209.25C62 248 93 279 131.75 279ZM248 136.4V204.6C248 227.85 227.85 248 204.6 248H136.4C111.6 248 93 229.4 93 204.6V136.4C93 113.15 113.15 93 136.4 93H204.6C229.4 93 248 111.6 248 136.4Z" fill="#1A4049"/>
<path d="M217 150.35V192.2C217 204.6 204.6 217 190.65 217H150.35C134.85 217 124 206.15 124 190.65V150.35C124 136.4 136.4 124 150.35 124H192.2C206.15 124 217 134.85 217 150.35Z" fill="#1A4049"/>
<path d="M813.75 279H892.8C930 279 961 248 961 210.8V131.75C961 93 930 62 891.25 62H812.2C775 62 744 93 744 130.2V209.25C744 248 775 279 813.75 279ZM930 136.4V204.6C930 227.85 909.85 248 886.6 248H818.4C793.6 248 775 229.4 775 204.6V136.4C775 113.15 795.15 93 818.4 93H886.6C911.4 93 930 111.6 930 136.4Z" fill="#1A4049"/>
<path d="M899 150.35V192.2C899 204.6 886.6 217 872.65 217H832.35C816.85 217 806 206.15 806 190.65V150.35C806 136.4 818.4 124 832.35 124H874.2C888.15 124 899 134.85 899 150.35Z" fill="#1A4049"/>
<path d="M131.75 961H210.8C248 961 279 930 279 892.8V813.75C279 775 248 744 209.25 744H130.2C93 744 62 775 62 812.2V891.25C62 930 93 961 131.75 961ZM248 818.4V886.6C248 909.85 227.85 930 204.6 930H136.4C111.6 930 93 911.4 93 886.6V818.4C93 795.15 113.15 775 136.4 775H204.6C229.4 775 248 793.6 248 818.4Z" fill="#1A4049"/>
<path d="M217 832.35V874.2C217 886.6 204.6 899 190.65 899H150.35C134.85 899 124 888.15 124 872.65V832.35C124 818.4 136.4 806 150.35 806H192.2C206.15 806 217 816.85 217 832.35Z" fill="#1A4049"/>
<path d="M512 652C589.32 652 652 589.32 652 512C652 434.68 589.32 372 512 372C434.68 372 372 434.68 372 512C372 589.32 434.68 652 512 652Z" fill="#1A4049"/>
<path d="M492 452H452V572H572V452H532V532H492V452Z" fill="white"/>
<path d="M532 532H572V572H532V532Z" fill="#817AFE"/>
</g>
<defs>
<clipPath id="clip0_15239_248108">
<rect width="1023" height="1023" fill="white"/>
</clipPath>
</defs>
</svg>
