<svg width="312" height="145" viewBox="0 0 312 145" fill="none" xmlns="http://www.w3.org/2000/svg">
<rect width="312" height="144.519" rx="8" fill="#F1F0FC"/>
<g opacity="0.2">
<circle cx="159.392" cy="72.1494" r="59.9326" stroke="#657A80" stroke-width="1.35669" stroke-linecap="square"/>
<ellipse cx="159.392" cy="72.2595" rx="43.5873" ry="60.2595" stroke="#657A80" stroke-width="1.35669" stroke-linecap="square"/>
<ellipse cx="159.828" cy="72.1494" rx="27.2421" ry="59.9326" stroke="#657A80" stroke-width="1.35669" stroke-linecap="square"/>
<ellipse cx="159.828" cy="72.1494" rx="10.8968" ry="59.9326" stroke="#657A80" stroke-width="1.35669" stroke-linecap="square"/>
</g>
<g opacity="0.2">
<mask id="mask0_35832_1341" style="mask-type:alpha" maskUnits="userSpaceOnUse" x="99" y="12" width="121" height="121">
<circle cx="159.392" cy="72.1494" r="59.2542" fill="#92A1A5" stroke="#657A80" stroke-width="1.35669"/>
</mask>
<g mask="url(#mask0_35832_1341)">
<path d="M99.4591 48.1777C99.4591 48.1777 112.535 59.2925 159.392 59.2925C206.248 59.2925 219.324 48.1777 219.324 48.1777" stroke="#657A80" stroke-width="1.35669"/>
<path d="M99.4591 28.3438C99.4591 28.3438 112.535 45.7787 159.392 45.7787C206.248 45.7787 219.324 28.3438 219.324 28.3438" stroke="#657A80" stroke-width="1.35669"/>
<path d="M99.4591 2.19141C99.4591 2.19141 112.535 33.1384 159.392 33.1384C206.248 33.1384 219.324 2.19141 219.324 2.19141" stroke="#657A80" stroke-width="1.35669"/>
<path d="M99.4591 -39.4336C99.4591 -39.4336 112.535 21.3707 159.392 21.3707C206.248 21.3707 219.324 -39.4336 219.324 -39.4336" stroke="#657A80" stroke-width="1.35669"/>
<line x1="99.4591" y1="71.472" x2="219.324" y2="71.472" stroke="#657A80" stroke-width="1.35669"/>
<path d="M219.325 95.6855C219.325 95.6855 206.249 84.5708 159.392 84.5708C112.536 84.5708 99.4596 95.6855 99.4596 95.6855" stroke="#657A80" stroke-width="1.35669"/>
<path d="M219.325 115.518C219.325 115.518 206.249 98.0826 159.392 98.0826C112.536 98.0826 99.4596 115.518 99.4596 115.518" stroke="#657A80" stroke-width="1.35669"/>
<path d="M219.325 141.672C219.325 141.672 206.249 110.725 159.392 110.725C112.536 110.725 99.4596 141.672 99.4596 141.672" stroke="#657A80" stroke-width="1.35669"/>
<path d="M219.325 183.297C219.325 183.297 206.248 122.493 159.392 122.493C112.536 122.493 99.4594 183.297 99.4594 183.297" stroke="#657A80" stroke-width="1.35669"/>
</g>
</g>
<rect x="184.932" y="83.9727" width="51.1664" height="25.5832" rx="12.7916" transform="rotate(-180 184.932 83.9727)" fill="url(#paint0_linear_35832_1341)"/>
<ellipse cx="172.107" cy="71.1803" rx="12.8251" ry="12.7916" fill="#817AFE"/>
<path d="M175.693 67.627H168.587V74.7334H175.693V67.627Z" fill="white"/>
<path d="M139.097 58.4531L139.004 51.4804L133.012 55.0473L139.097 58.4531ZM123.133 50.0488L129.385 53.1377L128.934 46.1789L123.133 50.0488ZM136.317 53.7832L136.728 53.3399C135.792 52.474 134.566 51.5847 132.963 50.7408L132.682 51.2751L132.4 51.8095C133.918 52.6085 135.055 53.4382 135.907 54.2265L136.317 53.7832ZM132.682 51.2751L132.963 50.7408C131.36 49.8968 129.933 49.3899 128.69 49.1084L128.556 49.6974L128.423 50.2864C129.555 50.5427 130.883 51.0105 132.4 51.8095L132.682 51.2751Z" fill="#6C65E5"/>
<path d="M183.041 43.7773L176.874 40.5221L177.139 47.4904L183.041 43.7773ZM167.263 56.659L172.082 51.6188L165.308 49.9655L167.263 56.659ZM177.61 43.9834L177.42 43.4101C175.852 43.9294 174.048 44.8631 172.087 46.4639L172.469 46.9317L172.851 47.3995C174.707 45.8841 176.383 45.026 177.8 44.5567L177.61 43.9834ZM172.469 46.9317L172.087 46.4639C170.126 48.0648 168.851 49.6454 168.028 51.0778L168.552 51.3785L169.076 51.6792C169.819 50.3847 170.995 48.9149 172.851 47.3995L172.469 46.9317Z" fill="#6C65E5"/>
<path d="M161.818 87.9746L165.538 93.8726L158.57 94.1455L161.818 87.9746ZM152.37 104.338L156.09 98.4405L159.338 104.611L152.37 104.338ZM162.03 93.4062L162.617 93.5508C162.284 94.9012 161.682 96.4622 160.667 98.2196L160.144 97.9176L159.621 97.6157C160.584 95.948 161.14 94.4924 161.444 93.2617L162.03 93.4062ZM160.144 97.9176L160.667 98.2196C159.652 99.977 158.602 101.279 157.599 102.242L157.18 101.807L156.762 101.371C157.676 100.493 158.658 99.2834 159.621 97.6157L160.144 97.9176Z" fill="#6C65E5"/>
<rect x="122.135" y="56.5781" width="29.4595" height="14.7297" rx="7.36487" transform="rotate(-180 122.135 56.5781)" fill="url(#paint1_linear_35832_1341)"/>
<ellipse cx="114.751" cy="49.2125" rx="7.38412" ry="7.36487" fill="#1A4049"/>
<path d="M116.816 47.168H112.724V51.2596H116.816V47.168Z" fill="#EDF0F1"/>
<rect x="215.746" y="51.1504" width="29.4595" height="14.7297" rx="7.36487" transform="rotate(-180 215.746 51.1504)" fill="url(#paint2_linear_35832_1341)"/>
<ellipse cx="208.362" cy="43.7848" rx="7.38412" ry="7.36487" fill="#1A4049"/>
<path d="M210.428 41.7383H206.336V45.8299H210.428V41.7383Z" fill="#EDF0F1"/>
<rect x="150.626" y="116.271" width="29.4595" height="14.7297" rx="7.36487" transform="rotate(-180 150.626 116.271)" fill="url(#paint3_linear_35832_1341)"/>
<ellipse cx="143.241" cy="108.906" rx="7.38412" ry="7.36487" fill="#1A4049"/>
<path d="M145.306 106.859H141.215V110.951H145.306V106.859Z" fill="#EDF0F1"/>
<defs>
<linearGradient id="paint0_linear_35832_1341" x1="184.921" y1="96.703" x2="236.126" y2="96.703" gradientUnits="userSpaceOnUse">
<stop stop-color="#1A4049" stop-opacity="0"/>
<stop offset="1" stop-color="#0E1A1D"/>
</linearGradient>
<linearGradient id="paint1_linear_35832_1341" x1="122.129" y1="63.9077" x2="151.611" y2="63.9077" gradientUnits="userSpaceOnUse">
<stop stop-color="#657A80" stop-opacity="0"/>
<stop offset="1" stop-color="#1A4049" stop-opacity="0.75"/>
</linearGradient>
<linearGradient id="paint2_linear_35832_1341" x1="215.74" y1="58.48" x2="245.222" y2="58.48" gradientUnits="userSpaceOnUse">
<stop stop-color="#657A80" stop-opacity="0"/>
<stop offset="1" stop-color="#1A4049" stop-opacity="0.75"/>
</linearGradient>
<linearGradient id="paint3_linear_35832_1341" x1="150.619" y1="123.601" x2="180.101" y2="123.601" gradientUnits="userSpaceOnUse">
<stop stop-color="#657A80" stop-opacity="0"/>
<stop offset="1" stop-color="#1A4049" stop-opacity="0.75"/>
</linearGradient>
</defs>
</svg>
