<svg width="244" height="106" viewBox="0 0 244 106" fill="none" xmlns="http://www.w3.org/2000/svg">
<path d="M0 12C0 5.37258 5.37258 0 12 0H232C238.627 0 244 5.37258 244 12V106H0V12Z" fill="white"/>
<rect x="6" y="37" width="117" height="26" rx="13" fill="#EAEAED"/>
<path d="M25.6255 51.5005H25.033L24.823 51.298C25.723 50.248 26.188 48.8155 25.933 47.293C25.5805 45.208 23.8405 43.543 21.7405 43.288C18.568 42.898 15.898 45.568 16.288 48.7405C16.543 50.8405 18.208 52.5805 20.293 52.933C21.8155 53.188 23.248 52.723 24.298 51.823L24.5005 52.033V52.6255L27.688 55.813C27.9955 56.1205 28.498 56.1205 28.8055 55.813C29.113 55.5055 29.113 55.003 28.8055 54.6955L25.6255 51.5005ZM21.1255 51.5005C19.258 51.5005 17.7505 49.993 17.7505 48.1255C17.7505 46.258 19.258 44.7505 21.1255 44.7505C22.993 44.7505 24.5005 46.258 24.5005 48.1255C24.5005 49.993 22.993 51.5005 21.1255 51.5005Z" fill="#78787A"/>
<rect x="176" y="37" width="26" height="26" rx="13" fill="#EAEAED"/>
<rect x="209" y="37" width="26" height="26" rx="13" fill="#EAEAED"/>
<path d="M159.5 47.5C158.47 47.5 157.6 48.12 157.21 49H154.29C153.9 48.12 153.03 47.5 152 47.5C150.97 47.5 150.1 48.12 149.71 49H146.79C146.4 48.12 145.53 47.5 144.5 47.5C143.12 47.5 142 48.62 142 50C142 51.38 143.12 52.5 144.5 52.5C145.53 52.5 146.4 51.88 146.79 51H149.71C150.1 51.88 150.97 52.5 152 52.5C153.03 52.5 153.9 51.88 154.29 51H157.21C157.6 51.88 158.47 52.5 159.5 52.5C160.88 52.5 162 51.38 162 50C162 48.62 160.88 47.5 159.5 47.5Z" fill="#817AFE"/>
<path d="M148 63L154 69H142L148 63Z" fill="#616161" fill-opacity="0.9"/>
<path d="M99 73C99 70.7909 100.791 69 103 69H193C195.209 69 197 70.7909 197 73V87C197 89.2091 195.209 91 193 91H103C100.791 91 99 89.2091 99 87V73Z" fill="#616161" fill-opacity="0.9"/>
<path d="M109.977 84.1406C109.516 84.1406 109.074 84.0625 108.652 83.9062C108.23 83.7422 107.863 83.5508 107.551 83.332V81.7852C107.895 82.0352 108.281 82.2461 108.711 82.418C109.148 82.5898 109.602 82.6758 110.07 82.6758C110.398 82.6758 110.668 82.6016 110.879 82.4531C111.098 82.3047 111.207 82.1016 111.207 81.8438C111.207 81.7109 111.16 81.5938 111.066 81.4922C110.98 81.3828 110.867 81.2891 110.727 81.2109C110.594 81.125 110.449 81.0547 110.293 81L109.086 80.5312C108.68 80.375 108.363 80.1875 108.137 79.9688C107.91 79.75 107.75 79.5078 107.656 79.2422C107.57 78.9688 107.527 78.6797 107.527 78.375C107.527 77.8906 107.656 77.4727 107.914 77.1211C108.18 76.7617 108.523 76.4844 108.945 76.2891C109.375 76.0938 109.832 75.9961 110.316 75.9961C110.777 75.9961 111.195 76.0586 111.57 76.1836C111.945 76.3086 112.258 76.4531 112.508 76.6172V78.1641C112.227 77.9844 111.914 77.8242 111.57 77.6836C111.234 77.5352 110.863 77.4609 110.457 77.4609C110.254 77.4609 110.059 77.4961 109.871 77.5664C109.684 77.6367 109.527 77.7383 109.402 77.8711C109.285 78.0039 109.227 78.1719 109.227 78.375C109.227 78.6328 109.34 78.832 109.566 78.9727C109.793 79.1055 110.07 79.2422 110.398 79.3828L111.336 79.7812C111.891 80.0156 112.297 80.293 112.555 80.6133C112.82 80.9258 112.953 81.3086 112.953 81.7617C112.953 82.2305 112.816 82.6445 112.543 83.0039C112.277 83.3555 111.918 83.6328 111.465 83.8359C111.02 84.0391 110.523 84.1406 109.977 84.1406ZM118.25 84L118.238 80.5664C118.238 80.168 118.141 79.8711 117.945 79.6758C117.758 79.4805 117.496 79.3828 117.16 79.3828C116.895 79.3828 116.648 79.4688 116.422 79.6406C116.195 79.8125 115.996 80.0156 115.824 80.25V78.9258C115.949 78.7617 116.098 78.6055 116.27 78.457C116.449 78.3008 116.652 78.1758 116.879 78.082C117.105 77.9805 117.352 77.9297 117.617 77.9297C118.023 77.9297 118.387 78.0195 118.707 78.1992C119.027 78.3789 119.277 78.6523 119.457 79.0195C119.645 79.3789 119.738 79.8281 119.738 80.3672V84H118.25ZM114.336 84V75.5625H115.824V84H114.336ZM124.203 84.1758C123.773 84.1758 123.367 84.0977 122.984 83.9414C122.609 83.7773 122.273 83.5547 121.977 83.2734C121.68 82.9922 121.449 82.6641 121.285 82.2891C121.121 81.9062 121.039 81.4961 121.039 81.0586C121.039 80.6211 121.121 80.2148 121.285 79.8398C121.449 79.457 121.68 79.125 121.977 78.8438C122.273 78.5547 122.609 78.332 122.984 78.1758C123.367 78.0117 123.773 77.9297 124.203 77.9297C124.633 77.9297 125.039 78.0117 125.422 78.1758C125.805 78.332 126.141 78.5547 126.43 78.8438C126.727 79.125 126.957 79.457 127.121 79.8398C127.293 80.2148 127.379 80.6211 127.379 81.0586C127.379 81.4961 127.293 81.9062 127.121 82.2891C126.957 82.6641 126.727 82.9922 126.43 83.2734C126.141 83.5547 125.805 83.7773 125.422 83.9414C125.039 84.0977 124.633 84.1758 124.203 84.1758ZM124.203 82.7344C124.492 82.7344 124.754 82.6719 124.988 82.5469C125.23 82.4141 125.426 82.2227 125.574 81.9727C125.723 81.7148 125.797 81.4102 125.797 81.0586C125.797 80.6914 125.723 80.3828 125.574 80.1328C125.426 79.8828 125.23 79.6953 124.988 79.5703C124.754 79.4375 124.492 79.3711 124.203 79.3711C123.93 79.3711 123.668 79.4375 123.418 79.5703C123.176 79.6953 122.98 79.8828 122.832 80.1328C122.691 80.3828 122.621 80.6914 122.621 81.0586C122.621 81.4102 122.691 81.7148 122.832 81.9727C122.98 82.2227 123.176 82.4141 123.418 82.5469C123.668 82.6719 123.93 82.7344 124.203 82.7344ZM129.91 84L127.871 78.082H129.488L130.578 81.5859L131.855 78.082H132.922L134.188 81.5859L135.277 78.082H136.895L134.844 84H133.766L132.383 80.168L131 84H129.91ZM143.891 84.1758C143.539 84.1758 143.219 84.0977 142.93 83.9414C142.648 83.7852 142.426 83.5664 142.262 83.2852C142.098 82.9961 142.016 82.6562 142.016 82.2656V79.3242H141.031V78.5625C141.414 78.4297 141.727 78.1836 141.969 77.8242C142.219 77.4648 142.438 77.0156 142.625 76.4766H143.504V78.082H145.285V79.3242H143.504V81.8789C143.504 82.1445 143.57 82.3555 143.703 82.5117C143.844 82.6602 144.047 82.7344 144.312 82.7344C144.547 82.7344 144.75 82.6992 144.922 82.6289C145.094 82.5586 145.246 82.4844 145.379 82.4062V83.6719C145.238 83.8203 145.039 83.9414 144.781 84.0352C144.531 84.1289 144.234 84.1758 143.891 84.1758ZM148.121 77.0156C147.84 77.0156 147.598 76.9141 147.395 76.7109C147.191 76.5078 147.09 76.2734 147.09 76.0078C147.09 75.7266 147.191 75.4883 147.395 75.293C147.598 75.0977 147.84 75 148.121 75C148.309 75 148.48 75.0469 148.637 75.1406C148.793 75.2266 148.918 75.3477 149.012 75.5039C149.105 75.6523 149.152 75.8203 149.152 76.0078C149.152 76.1797 149.105 76.3438 149.012 76.5C148.918 76.6562 148.793 76.7812 148.637 76.875C148.48 76.9688 148.309 77.0156 148.121 77.0156ZM147.523 84V78.082H149.012V84H147.523ZM146.574 79.3477V78.082H149.012V79.3477H146.574ZM158.469 84V80.5664C158.469 80.168 158.363 79.8711 158.152 79.6758C157.949 79.4805 157.68 79.3828 157.344 79.3828C157.078 79.3828 156.848 79.4688 156.652 79.6406C156.457 79.8125 156.273 80.0156 156.102 80.25L155.82 79.1602C156.055 78.8242 156.332 78.5352 156.652 78.293C156.98 78.0508 157.359 77.9297 157.789 77.9297C158.188 77.9297 158.551 78.0195 158.879 78.1992C159.215 78.3789 159.48 78.6523 159.676 79.0195C159.871 79.3789 159.969 79.8281 159.969 80.3672V84H158.469ZM150.852 84V78.082H152.34V84H150.852ZM154.66 84L154.648 80.5664C154.648 80.168 154.543 79.8711 154.332 79.6758C154.129 79.4805 153.863 79.3828 153.535 79.3828C153.262 79.3828 153.023 79.4688 152.82 79.6406C152.617 79.8125 152.43 80.0156 152.258 80.25V78.9258C152.383 78.7617 152.523 78.6055 152.68 78.457C152.836 78.3008 153.02 78.1758 153.23 78.082C153.441 77.9805 153.688 77.9297 153.969 77.9297C154.445 77.9297 154.867 78.0586 155.234 78.3164C155.609 78.5664 155.871 78.9375 156.02 79.4297L156.148 79.9922V84H154.66ZM164.434 84.1758C163.996 84.1758 163.586 84.1016 163.203 83.9531C162.82 83.7969 162.48 83.582 162.184 83.3086C161.895 83.0352 161.668 82.7109 161.504 82.3359C161.34 81.9609 161.258 81.5508 161.258 81.1055C161.258 80.5273 161.387 80 161.645 79.5234C161.902 79.0391 162.258 78.6523 162.711 78.3633C163.164 78.0742 163.68 77.9297 164.258 77.9297C164.836 77.9297 165.332 78.0547 165.746 78.3047C166.168 78.5547 166.488 78.9023 166.707 79.3477C166.934 79.7852 167.047 80.293 167.047 80.8711V81.5039H162.629V80.4844H165.617C165.602 80.1953 165.523 79.9609 165.383 79.7812C165.242 79.5938 165.07 79.457 164.867 79.3711C164.664 79.2773 164.449 79.2305 164.223 79.2305C163.918 79.2305 163.652 79.3086 163.426 79.4648C163.207 79.6211 163.035 79.8398 162.91 80.1211C162.785 80.4023 162.723 80.7305 162.723 81.1055C162.723 81.4414 162.797 81.7383 162.945 81.9961C163.094 82.2539 163.301 82.457 163.566 82.6055C163.84 82.7539 164.148 82.8281 164.492 82.8281C164.93 82.8281 165.32 82.7422 165.664 82.5703C166.016 82.3984 166.293 82.2227 166.496 82.043V83.4258C166.379 83.5352 166.215 83.6484 166.004 83.7656C165.793 83.8828 165.551 83.9805 165.277 84.0586C165.012 84.1367 164.73 84.1758 164.434 84.1758ZM168.406 84V75.5625H169.895V84H168.406ZM172.93 77.0156C172.648 77.0156 172.406 76.9141 172.203 76.7109C172 76.5078 171.898 76.2734 171.898 76.0078C171.898 75.7266 172 75.4883 172.203 75.293C172.406 75.0977 172.648 75 172.93 75C173.117 75 173.289 75.0469 173.445 75.1406C173.602 75.2266 173.727 75.3477 173.82 75.5039C173.914 75.6523 173.961 75.8203 173.961 76.0078C173.961 76.1797 173.914 76.3438 173.82 76.5C173.727 76.6562 173.602 76.7812 173.445 76.875C173.289 76.9688 173.117 77.0156 172.93 77.0156ZM172.332 84V78.082H173.82V84H172.332ZM171.383 79.3477V78.082H173.82V79.3477H171.383ZM179.574 84L179.562 80.5664C179.562 80.168 179.465 79.8711 179.27 79.6758C179.082 79.4805 178.82 79.3828 178.484 79.3828C178.219 79.3828 177.973 79.4688 177.746 79.6406C177.52 79.8125 177.32 80.0156 177.148 80.25V78.9258C177.273 78.7617 177.422 78.6055 177.594 78.457C177.773 78.3008 177.977 78.1758 178.203 78.082C178.43 77.9805 178.676 77.9297 178.941 77.9297C179.348 77.9297 179.711 78.0195 180.031 78.1992C180.352 78.3789 180.602 78.6523 180.781 79.0195C180.969 79.3789 181.062 79.8281 181.062 80.3672V84H179.574ZM175.66 84V78.082H177.148V84H175.66ZM185.539 84.1758C185.102 84.1758 184.691 84.1016 184.309 83.9531C183.926 83.7969 183.586 83.582 183.289 83.3086C183 83.0352 182.773 82.7109 182.609 82.3359C182.445 81.9609 182.363 81.5508 182.363 81.1055C182.363 80.5273 182.492 80 182.75 79.5234C183.008 79.0391 183.363 78.6523 183.816 78.3633C184.27 78.0742 184.785 77.9297 185.363 77.9297C185.941 77.9297 186.438 78.0547 186.852 78.3047C187.273 78.5547 187.594 78.9023 187.812 79.3477C188.039 79.7852 188.152 80.293 188.152 80.8711V81.5039H183.734V80.4844H186.723C186.707 80.1953 186.629 79.9609 186.488 79.7812C186.348 79.5938 186.176 79.457 185.973 79.3711C185.77 79.2773 185.555 79.2305 185.328 79.2305C185.023 79.2305 184.758 79.3086 184.531 79.4648C184.312 79.6211 184.141 79.8398 184.016 80.1211C183.891 80.4023 183.828 80.7305 183.828 81.1055C183.828 81.4414 183.902 81.7383 184.051 81.9961C184.199 82.2539 184.406 82.457 184.672 82.6055C184.945 82.7539 185.254 82.8281 185.598 82.8281C186.035 82.8281 186.426 82.7422 186.77 82.5703C187.121 82.3984 187.398 82.2227 187.602 82.043V83.4258C187.484 83.5352 187.32 83.6484 187.109 83.7656C186.898 83.8828 186.656 83.9805 186.383 84.0586C186.117 84.1367 185.836 84.1758 185.539 84.1758Z" fill="white"/>
</svg>
