<svg width="244" height="106" viewBox="0 0 244 106" fill="none" xmlns="http://www.w3.org/2000/svg">
<g clip-path="url(#clip0_30407_70882)">
<path d="M0 12C0 5.37258 5.37258 0 12 0H232C238.627 0 244 5.37258 244 12V106H0V12Z" fill="white"/>
<rect x="13.5" y="13.5" width="217" height="25" rx="3.5" fill="#F4FAEB" stroke="#B0D182"/>
<rect x="13" y="44" width="218" height="26" rx="4" fill="#F7F7FA"/>
<path d="M13 78C13 75.7909 14.7909 74 17 74H227C229.209 74 231 75.7909 231 78V96C231 98.2091 229.209 100 227 100H17C14.7909 100 13 98.2091 13 96V78Z" fill="#F7F7FA"/>
<path d="M48.9277 29V22.4082H49.3867L52.1797 25.3184L54.9531 22.4082H55.4121V29H54.0547V25.0156L52.375 26.8516H51.9844L50.2852 25.0156V29H48.9277ZM58.1172 23.1797C57.8828 23.1797 57.681 23.0951 57.5117 22.9258C57.3424 22.7565 57.2578 22.5612 57.2578 22.3398C57.2578 22.1055 57.3424 21.9069 57.5117 21.7441C57.681 21.5814 57.8828 21.5 58.1172 21.5C58.2734 21.5 58.4167 21.5391 58.5469 21.6172C58.6771 21.6888 58.7812 21.7897 58.8594 21.9199C58.9375 22.0436 58.9766 22.1836 58.9766 22.3398C58.9766 22.4831 58.9375 22.6198 58.8594 22.75C58.7812 22.8802 58.6771 22.9844 58.5469 23.0625C58.4167 23.1406 58.2734 23.1797 58.1172 23.1797ZM57.6191 29V24.0684H58.8594V29H57.6191ZM56.8281 25.123V24.0684H58.8594V25.123H56.8281ZM60.3926 29V21.9688H61.6328V29H60.3926ZM65.4512 29.1465C65.0866 29.1465 64.7448 29.0846 64.4258 28.9609C64.1068 28.8307 63.8236 28.6517 63.5762 28.4238C63.3353 28.196 63.1465 27.9258 63.0098 27.6133C62.873 27.3008 62.8047 26.959 62.8047 26.5879C62.8047 26.1061 62.9121 25.6667 63.127 25.2695C63.3418 24.8659 63.638 24.5436 64.0156 24.3027C64.3932 24.0618 64.8229 23.9414 65.3047 23.9414C65.7865 23.9414 66.1999 24.0456 66.5449 24.2539C66.8965 24.4622 67.1634 24.752 67.3457 25.123C67.5345 25.4876 67.6289 25.9108 67.6289 26.3926V26.9199H63.9473V26.0703H66.4375C66.4245 25.8294 66.3594 25.6341 66.2422 25.4844C66.125 25.3281 65.9818 25.2142 65.8125 25.1426C65.6432 25.0645 65.4642 25.0254 65.2754 25.0254C65.0215 25.0254 64.8001 25.0905 64.6113 25.2207C64.429 25.3509 64.2858 25.5332 64.1816 25.7676C64.0775 26.002 64.0254 26.2754 64.0254 26.5879C64.0254 26.8678 64.0872 27.1152 64.2109 27.3301C64.3346 27.5449 64.5072 27.7142 64.7285 27.8379C64.9564 27.9616 65.2135 28.0234 65.5 28.0234C65.8646 28.0234 66.1901 27.9518 66.4766 27.8086C66.7695 27.6654 67.0007 27.5189 67.1699 27.3691V28.5215C67.0723 28.6126 66.9355 28.707 66.7598 28.8047C66.584 28.9023 66.3822 28.9837 66.1543 29.0488C65.9329 29.1139 65.6986 29.1465 65.4512 29.1465ZM70.1094 29.1465C69.888 29.1465 69.6699 29.1204 69.4551 29.0684C69.2402 29.0228 69.0417 28.9609 68.8594 28.8828C68.6836 28.8047 68.5404 28.7266 68.4297 28.6484V27.5645C68.5534 27.6491 68.7031 27.7305 68.8789 27.8086C69.0547 27.8867 69.237 27.9518 69.4258 28.0039C69.6146 28.0495 69.7871 28.0723 69.9434 28.0723C70.1908 28.0723 70.3796 28.0267 70.5098 27.9355C70.6465 27.8444 70.7148 27.7207 70.7148 27.5645C70.7148 27.4408 70.6595 27.3431 70.5488 27.2715C70.4382 27.1999 70.2754 27.1283 70.0605 27.0566L69.4551 26.8418C69.084 26.7181 68.8236 26.5423 68.6738 26.3145C68.5306 26.0866 68.459 25.8164 68.459 25.5039C68.459 25.1914 68.5371 24.9212 68.6934 24.6934C68.8561 24.459 69.0807 24.2767 69.3672 24.1465C69.6602 24.0098 69.9889 23.9414 70.3535 23.9414C70.6595 23.9414 70.9427 23.987 71.2031 24.0781C71.4701 24.1628 71.6719 24.2669 71.8086 24.3906V25.4844C71.6589 25.3802 71.4701 25.2793 71.2422 25.1816C71.0208 25.084 70.7865 25.0352 70.5391 25.0352C70.3047 25.0352 70.1191 25.0872 69.9824 25.1914C69.8457 25.2956 69.7773 25.4193 69.7773 25.5625C69.7773 25.6667 69.8164 25.7643 69.8945 25.8555C69.9792 25.9401 70.1289 26.015 70.3438 26.0801L70.9004 26.2656C71.2845 26.3763 71.5677 26.5423 71.75 26.7637C71.9323 26.9785 72.0234 27.2454 72.0234 27.5645C72.0234 27.8639 71.9355 28.1341 71.7598 28.375C71.5905 28.6159 71.3594 28.8047 71.0664 28.9414C70.7799 29.0781 70.4609 29.1465 70.1094 29.1465ZM75.1191 29.1465C74.8262 29.1465 74.5592 29.0814 74.3184 28.9512C74.084 28.821 73.8984 28.6387 73.7617 28.4043C73.625 28.1634 73.5566 27.8802 73.5566 27.5547V25.1035H72.7363V24.4688C73.0553 24.3581 73.3158 24.153 73.5176 23.8535C73.7259 23.554 73.9082 23.1797 74.0645 22.7305H74.7969V24.0684H76.2812V25.1035H74.7969V27.2324C74.7969 27.4538 74.8522 27.6296 74.9629 27.7598C75.0801 27.8835 75.2493 27.9453 75.4707 27.9453C75.666 27.9453 75.8353 27.916 75.9785 27.8574C76.1217 27.7988 76.2487 27.737 76.3594 27.6719V28.7266C76.2422 28.8503 76.0762 28.9512 75.8613 29.0293C75.653 29.1074 75.4056 29.1465 75.1191 29.1465ZM79.875 29.1465C79.5169 29.1465 79.1784 29.0814 78.8594 28.9512C78.5469 28.8145 78.2669 28.6289 78.0195 28.3945C77.7721 28.1602 77.5801 27.8867 77.4434 27.5742C77.3066 27.2552 77.2383 26.9134 77.2383 26.5488C77.2383 26.1842 77.3066 25.8457 77.4434 25.5332C77.5801 25.2142 77.7721 24.9375 78.0195 24.7031C78.2669 24.4622 78.5469 24.2767 78.8594 24.1465C79.1784 24.0098 79.5169 23.9414 79.875 23.9414C80.2331 23.9414 80.5716 24.0098 80.8906 24.1465C81.2096 24.2767 81.4896 24.4622 81.7305 24.7031C81.9779 24.9375 82.1699 25.2142 82.3066 25.5332C82.4499 25.8457 82.5215 26.1842 82.5215 26.5488C82.5215 26.9134 82.4499 27.2552 82.3066 27.5742C82.1699 27.8867 81.9779 28.1602 81.7305 28.3945C81.4896 28.6289 81.2096 28.8145 80.8906 28.9512C80.5716 29.0814 80.2331 29.1465 79.875 29.1465ZM79.875 27.9453C80.1159 27.9453 80.334 27.8932 80.5293 27.7891C80.7311 27.6784 80.8939 27.5189 81.0176 27.3105C81.1413 27.0957 81.2031 26.8418 81.2031 26.5488C81.2031 26.2428 81.1413 25.9857 81.0176 25.7773C80.8939 25.569 80.7311 25.4128 80.5293 25.3086C80.334 25.1979 80.1159 25.1426 79.875 25.1426C79.6471 25.1426 79.429 25.1979 79.2207 25.3086C79.0189 25.4128 78.8561 25.569 78.7324 25.7773C78.6152 25.9857 78.5566 26.2428 78.5566 26.5488C78.5566 26.8418 78.6152 27.0957 78.7324 27.3105C78.8561 27.5189 79.0189 27.6784 79.2207 27.7891C79.429 27.8932 79.6471 27.9453 79.875 27.9453ZM86.9551 29L86.9453 26.1387C86.9453 25.8066 86.8639 25.5592 86.7012 25.3965C86.5449 25.2337 86.3268 25.1523 86.0469 25.1523C85.8255 25.1523 85.6204 25.224 85.4316 25.3672C85.2428 25.5104 85.0768 25.6797 84.9336 25.875V24.7715C85.0378 24.6348 85.1615 24.5046 85.3047 24.3809C85.4544 24.2507 85.6237 24.1465 85.8125 24.0684C86.0013 23.9837 86.2064 23.9414 86.4277 23.9414C86.7663 23.9414 87.069 24.0163 87.3359 24.166C87.6029 24.3158 87.8112 24.5436 87.9609 24.8496C88.1172 25.1491 88.1953 25.5234 88.1953 25.9727V29H86.9551ZM83.6934 29V24.0684H84.9336V29H83.6934ZM91.9258 29.1465C91.5612 29.1465 91.2194 29.0846 90.9004 28.9609C90.5814 28.8307 90.2982 28.6517 90.0508 28.4238C89.8099 28.196 89.6211 27.9258 89.4844 27.6133C89.3477 27.3008 89.2793 26.959 89.2793 26.5879C89.2793 26.1061 89.3867 25.6667 89.6016 25.2695C89.8164 24.8659 90.1126 24.5436 90.4902 24.3027C90.8678 24.0618 91.2975 23.9414 91.7793 23.9414C92.2611 23.9414 92.6745 24.0456 93.0195 24.2539C93.3711 24.4622 93.638 24.752 93.8203 25.123C94.0091 25.4876 94.1035 25.9108 94.1035 26.3926V26.9199H90.4219V26.0703H92.9121C92.8991 25.8294 92.834 25.6341 92.7168 25.4844C92.5996 25.3281 92.4564 25.2142 92.2871 25.1426C92.1178 25.0645 91.9388 25.0254 91.75 25.0254C91.4961 25.0254 91.2747 25.0905 91.0859 25.2207C90.9036 25.3509 90.7604 25.5332 90.6562 25.7676C90.5521 26.002 90.5 26.2754 90.5 26.5879C90.5 26.8678 90.5618 27.1152 90.6855 27.3301C90.8092 27.5449 90.9818 27.7142 91.2031 27.8379C91.431 27.9616 91.6882 28.0234 91.9746 28.0234C92.3392 28.0234 92.6647 27.9518 92.9512 27.8086C93.2441 27.6654 93.4753 27.5189 93.6445 27.3691V28.5215C93.5469 28.6126 93.4102 28.707 93.2344 28.8047C93.0586 28.9023 92.8568 28.9837 92.6289 29.0488C92.4076 29.1139 92.1732 29.1465 91.9258 29.1465ZM99.6406 29V24.3809C99.4453 24.5436 99.2337 24.6673 99.0059 24.752C98.7845 24.8366 98.5697 24.9017 98.3613 24.9473V23.6289C98.6868 23.5312 99.0026 23.3783 99.3086 23.1699C99.6211 22.9616 99.8815 22.724 100.09 22.457H100.988V29H99.6406ZM98.3027 29V27.7988H102.336V29H98.3027ZM104.582 25.2695C104.367 25.2695 104.182 25.1947 104.025 25.0449C103.876 24.8887 103.801 24.7064 103.801 24.498C103.801 24.2767 103.876 24.0911 104.025 23.9414C104.182 23.7852 104.367 23.707 104.582 23.707C104.797 23.707 104.979 23.7852 105.129 23.9414C105.285 24.0911 105.363 24.2767 105.363 24.498C105.363 24.7064 105.285 24.8887 105.129 25.0449C104.979 25.1947 104.797 25.2695 104.582 25.2695ZM104.582 29.1758C104.367 29.1758 104.182 29.1009 104.025 28.9512C103.876 28.7949 103.801 28.6126 103.801 28.4043C103.801 28.1829 103.876 27.9974 104.025 27.8477C104.182 27.6914 104.367 27.6133 104.582 27.6133C104.797 27.6133 104.979 27.6914 105.129 27.8477C105.285 27.9974 105.363 28.1829 105.363 28.4043C105.363 28.6126 105.285 28.7949 105.129 28.9512C104.979 29.1009 104.797 29.1758 104.582 29.1758ZM111.828 29.0977C111.438 29.0977 111.086 29.013 110.773 28.8438C110.461 28.6745 110.214 28.4336 110.031 28.1211C109.849 27.8086 109.758 27.4375 109.758 27.0078V24.1172H110.588V27.0078C110.588 27.431 110.712 27.7565 110.959 27.9844C111.213 28.2057 111.503 28.3164 111.828 28.3164C112.154 28.3164 112.44 28.2057 112.688 27.9844C112.941 27.7565 113.068 27.431 113.068 27.0078V24.1172H113.898V27.0078C113.898 27.4375 113.807 27.8086 113.625 28.1211C113.443 28.4336 113.195 28.6745 112.883 28.8438C112.57 29.013 112.219 29.0977 111.828 29.0977ZM116.574 29.1465C116.385 29.1465 116.187 29.1204 115.979 29.0684C115.777 29.0228 115.594 28.9674 115.432 28.9023C115.269 28.8307 115.148 28.7689 115.07 28.7168V27.8574C115.161 27.9225 115.288 27.9974 115.451 28.082C115.62 28.1602 115.799 28.2285 115.988 28.2871C116.177 28.3392 116.353 28.3652 116.516 28.3652C116.822 28.3652 117.062 28.2969 117.238 28.1602C117.421 28.0234 117.512 27.8542 117.512 27.6523C117.512 27.4961 117.45 27.3724 117.326 27.2812C117.209 27.1901 117.036 27.1022 116.809 27.0176L116.086 26.7539C115.708 26.6107 115.458 26.4316 115.334 26.2168C115.21 25.9954 115.148 25.7448 115.148 25.4648C115.148 25.1849 115.217 24.9375 115.354 24.7227C115.497 24.5078 115.699 24.3385 115.959 24.2148C116.219 24.0846 116.522 24.0195 116.867 24.0195C117.154 24.0195 117.421 24.0618 117.668 24.1465C117.915 24.2246 118.094 24.306 118.205 24.3906V25.25C118.068 25.1458 117.883 25.0449 117.648 24.9473C117.414 24.8496 117.173 24.8008 116.926 24.8008C116.62 24.8008 116.389 24.8724 116.232 25.0156C116.083 25.1589 116.008 25.3086 116.008 25.4648C116.008 25.5885 116.05 25.7155 116.135 25.8457C116.226 25.9694 116.382 26.0703 116.604 26.1484L117.424 26.4414C117.743 26.5521 117.98 26.7116 118.137 26.9199C118.293 27.1283 118.371 27.3724 118.371 27.6523C118.371 27.9258 118.293 28.1764 118.137 28.4043C117.987 28.6322 117.775 28.8145 117.502 28.9512C117.235 29.0814 116.926 29.1465 116.574 29.1465ZM121.799 29.1465C121.428 29.1465 121.086 29.0814 120.773 28.9512C120.467 28.8145 120.197 28.6289 119.963 28.3945C119.735 28.1536 119.559 27.8802 119.436 27.5742C119.312 27.2617 119.25 26.9329 119.25 26.5879C119.25 26.1257 119.351 25.6992 119.553 25.3086C119.755 24.918 120.031 24.6055 120.383 24.3711C120.741 24.1367 121.148 24.0195 121.604 24.0195C122.105 24.0195 122.521 24.1237 122.854 24.332C123.186 24.5404 123.433 24.8236 123.596 25.1816C123.765 25.5397 123.85 25.9434 123.85 26.3926V26.8711H120.002V26.1875H123.059C123.026 25.8685 122.935 25.6081 122.785 25.4062C122.642 25.2044 122.466 25.0547 122.258 24.957C122.049 24.8529 121.831 24.8008 121.604 24.8008C121.291 24.8008 121.021 24.8854 120.793 25.0547C120.565 25.2174 120.389 25.4355 120.266 25.709C120.142 25.9759 120.08 26.2689 120.08 26.5879C120.08 26.9004 120.148 27.1934 120.285 27.4668C120.428 27.7337 120.63 27.9518 120.891 28.1211C121.151 28.2839 121.454 28.3652 121.799 28.3652C122.15 28.3652 122.476 28.2773 122.775 28.1016C123.081 27.9193 123.339 27.7207 123.547 27.5059V28.375C123.456 28.4857 123.319 28.6029 123.137 28.7266C122.961 28.8438 122.756 28.9414 122.521 29.0195C122.294 29.1042 122.053 29.1465 121.799 29.1465ZM125.168 29V24.1172H125.969V29H125.168ZM125.969 26.0508V25.0938C126.158 24.7682 126.385 24.5078 126.652 24.3125C126.919 24.1172 127.193 24.0195 127.473 24.0195C127.661 24.0195 127.831 24.0521 127.98 24.1172V25.0449C127.883 24.9863 127.782 24.9408 127.678 24.9082C127.574 24.8757 127.466 24.8594 127.355 24.8594C127.023 24.8594 126.753 24.9766 126.545 25.2109C126.343 25.4453 126.151 25.7253 125.969 26.0508ZM130.354 29V22.457H131.232V29H130.354ZM129.25 29V28.1699H132.336V29H129.25ZM129.25 23.2871V22.457H132.336V23.2871H129.25ZM136.174 29.1465C135.757 29.1465 135.376 29.0423 135.031 28.834C134.686 28.6191 134.41 28.3229 134.201 27.9453C133.999 27.5677 133.898 27.1315 133.898 26.6367C133.898 26.0964 133.999 25.6309 134.201 25.2402C134.41 24.8496 134.693 24.5501 135.051 24.3418C135.409 24.127 135.809 24.0195 136.252 24.0195C136.532 24.0195 136.815 24.0879 137.102 24.2246C137.395 24.3548 137.645 24.5371 137.854 24.7715V21.9688H138.654V29H137.854V28.1699C137.684 28.4303 137.453 28.6582 137.16 28.8535C136.874 29.0488 136.545 29.1465 136.174 29.1465ZM136.301 28.3652C136.6 28.3652 136.867 28.2871 137.102 28.1309C137.336 27.9746 137.521 27.7598 137.658 27.4863C137.795 27.2064 137.86 26.8939 137.854 26.5488L137.844 25.6113C137.642 25.3574 137.424 25.1621 137.189 25.0254C136.962 24.8887 136.698 24.8203 136.398 24.8203C136.047 24.8203 135.747 24.9082 135.5 25.084C135.253 25.2533 135.061 25.4746 134.924 25.748C134.794 26.0215 134.729 26.3177 134.729 26.6367C134.729 26.9492 134.794 27.2389 134.924 27.5059C135.054 27.7663 135.236 27.9746 135.471 28.1309C135.712 28.2871 135.988 28.3652 136.301 28.3652ZM142.512 29L144.963 25.7285L142.512 22.457H143.684L145.539 25.123L147.434 22.457H148.605L146.037 25.8262L148.605 29H147.434L145.461 26.4414L143.586 29H142.512ZM154.27 29.1465C153.84 29.1465 153.462 29.0684 153.137 28.9121C152.818 28.7559 152.567 28.5443 152.385 28.2773C152.209 28.0039 152.121 27.6914 152.121 27.3398C152.121 27.0013 152.202 26.7181 152.365 26.4902C152.535 26.2624 152.749 26.0671 153.01 25.9043C153.27 25.735 153.547 25.5853 153.84 25.4551C154.133 25.3184 154.41 25.1816 154.67 25.0449C154.93 24.9017 155.142 24.7422 155.305 24.5664C155.474 24.3841 155.559 24.1628 155.559 23.9023C155.559 23.7331 155.513 23.5964 155.422 23.4922C155.337 23.3815 155.23 23.3001 155.1 23.248C154.969 23.196 154.842 23.1699 154.719 23.1699C154.523 23.1699 154.338 23.2318 154.162 23.3555C153.986 23.4792 153.898 23.694 153.898 24C153.898 24.1823 153.947 24.3581 154.045 24.5273C154.143 24.6901 154.266 24.8561 154.416 25.0254C154.572 25.1947 154.729 25.3704 154.885 25.5527C155.386 26.1191 155.894 26.679 156.408 27.2324C156.923 27.7793 157.476 28.3685 158.068 29H156.984C156.672 28.6875 156.366 28.3717 156.066 28.0527C155.767 27.7337 155.464 27.4082 155.158 27.0762C154.859 26.7376 154.549 26.3893 154.23 26.0312C154.035 25.8099 153.837 25.5983 153.635 25.3965C153.439 25.1947 153.273 24.9798 153.137 24.752C153 24.5241 152.932 24.2604 152.932 23.9609C152.932 23.5898 153.016 23.2839 153.186 23.043C153.361 22.7956 153.586 22.6133 153.859 22.4961C154.133 22.3724 154.419 22.3105 154.719 22.3105C155.012 22.3105 155.295 22.3724 155.568 22.4961C155.848 22.6198 156.076 22.7988 156.252 23.0332C156.434 23.2676 156.525 23.5573 156.525 23.9023C156.525 24.0977 156.493 24.2767 156.428 24.4395C156.363 24.5957 156.275 24.7389 156.164 24.8691C156.053 24.9928 155.923 25.11 155.773 25.2207C155.63 25.3314 155.477 25.4388 155.314 25.543C155.087 25.6862 154.842 25.8197 154.582 25.9434C154.328 26.0671 154.087 26.194 153.859 26.3242C153.632 26.4479 153.446 26.5911 153.303 26.7539C153.16 26.9167 153.088 27.112 153.088 27.3398C153.088 27.6393 153.202 27.8737 153.43 28.043C153.658 28.2057 153.947 28.2871 154.299 28.2871C154.579 28.2871 154.81 28.2448 154.992 28.1602C155.174 28.069 155.331 27.9518 155.461 27.8086C155.598 27.6654 155.731 27.5091 155.861 27.3398C156.044 27.1055 156.216 26.8516 156.379 26.5781C156.548 26.3047 156.743 25.9727 156.965 25.582H157.922C157.681 26.0117 157.447 26.4121 157.219 26.7832C156.991 27.1543 156.773 27.4831 156.564 27.7695C156.376 28.0365 156.171 28.2741 155.949 28.4824C155.728 28.6908 155.48 28.8535 155.207 28.9707C154.934 29.0879 154.621 29.1465 154.27 29.1465ZM164.367 26.8809L161.584 22.457H162.639L164.553 25.543L166.496 22.457H167.551L164.67 26.8809H164.367ZM164.094 29V26.0312H165.041V29H164.094Z" fill="#202021"/>
<path d="M48.9277 60V53.4082H49.3867L52.1797 56.3184L54.9531 53.4082H55.4121V60H54.0547V56.0156L52.375 57.8516H51.9844L50.2852 56.0156V60H48.9277ZM58.1172 54.1797C57.8828 54.1797 57.681 54.0951 57.5117 53.9258C57.3424 53.7565 57.2578 53.5612 57.2578 53.3398C57.2578 53.1055 57.3424 52.9069 57.5117 52.7441C57.681 52.5814 57.8828 52.5 58.1172 52.5C58.2734 52.5 58.4167 52.5391 58.5469 52.6172C58.6771 52.6888 58.7812 52.7897 58.8594 52.9199C58.9375 53.0436 58.9766 53.1836 58.9766 53.3398C58.9766 53.4831 58.9375 53.6198 58.8594 53.75C58.7812 53.8802 58.6771 53.9844 58.5469 54.0625C58.4167 54.1406 58.2734 54.1797 58.1172 54.1797ZM57.6191 60V55.0684H58.8594V60H57.6191ZM56.8281 56.123V55.0684H58.8594V56.123H56.8281ZM60.3926 60V52.9688H61.6328V60H60.3926ZM65.4512 60.1465C65.0866 60.1465 64.7448 60.0846 64.4258 59.9609C64.1068 59.8307 63.8236 59.6517 63.5762 59.4238C63.3353 59.196 63.1465 58.9258 63.0098 58.6133C62.873 58.3008 62.8047 57.959 62.8047 57.5879C62.8047 57.1061 62.9121 56.6667 63.127 56.2695C63.3418 55.8659 63.638 55.5436 64.0156 55.3027C64.3932 55.0618 64.8229 54.9414 65.3047 54.9414C65.7865 54.9414 66.1999 55.0456 66.5449 55.2539C66.8965 55.4622 67.1634 55.752 67.3457 56.123C67.5345 56.4876 67.6289 56.9108 67.6289 57.3926V57.9199H63.9473V57.0703H66.4375C66.4245 56.8294 66.3594 56.6341 66.2422 56.4844C66.125 56.3281 65.9818 56.2142 65.8125 56.1426C65.6432 56.0645 65.4642 56.0254 65.2754 56.0254C65.0215 56.0254 64.8001 56.0905 64.6113 56.2207C64.429 56.3509 64.2858 56.5332 64.1816 56.7676C64.0775 57.002 64.0254 57.2754 64.0254 57.5879C64.0254 57.8678 64.0872 58.1152 64.2109 58.3301C64.3346 58.5449 64.5072 58.7142 64.7285 58.8379C64.9564 58.9616 65.2135 59.0234 65.5 59.0234C65.8646 59.0234 66.1901 58.9518 66.4766 58.8086C66.7695 58.6654 67.0007 58.5189 67.1699 58.3691V59.5215C67.0723 59.6126 66.9355 59.707 66.7598 59.8047C66.584 59.9023 66.3822 59.9837 66.1543 60.0488C65.9329 60.1139 65.6986 60.1465 65.4512 60.1465ZM70.1094 60.1465C69.888 60.1465 69.6699 60.1204 69.4551 60.0684C69.2402 60.0228 69.0417 59.9609 68.8594 59.8828C68.6836 59.8047 68.5404 59.7266 68.4297 59.6484V58.5645C68.5534 58.6491 68.7031 58.7305 68.8789 58.8086C69.0547 58.8867 69.237 58.9518 69.4258 59.0039C69.6146 59.0495 69.7871 59.0723 69.9434 59.0723C70.1908 59.0723 70.3796 59.0267 70.5098 58.9355C70.6465 58.8444 70.7148 58.7207 70.7148 58.5645C70.7148 58.4408 70.6595 58.3431 70.5488 58.2715C70.4382 58.1999 70.2754 58.1283 70.0605 58.0566L69.4551 57.8418C69.084 57.7181 68.8236 57.5423 68.6738 57.3145C68.5306 57.0866 68.459 56.8164 68.459 56.5039C68.459 56.1914 68.5371 55.9212 68.6934 55.6934C68.8561 55.459 69.0807 55.2767 69.3672 55.1465C69.6602 55.0098 69.9889 54.9414 70.3535 54.9414C70.6595 54.9414 70.9427 54.987 71.2031 55.0781C71.4701 55.1628 71.6719 55.2669 71.8086 55.3906V56.4844C71.6589 56.3802 71.4701 56.2793 71.2422 56.1816C71.0208 56.084 70.7865 56.0352 70.5391 56.0352C70.3047 56.0352 70.1191 56.0872 69.9824 56.1914C69.8457 56.2956 69.7773 56.4193 69.7773 56.5625C69.7773 56.6667 69.8164 56.7643 69.8945 56.8555C69.9792 56.9401 70.1289 57.015 70.3438 57.0801L70.9004 57.2656C71.2845 57.3763 71.5677 57.5423 71.75 57.7637C71.9323 57.9785 72.0234 58.2454 72.0234 58.5645C72.0234 58.8639 71.9355 59.1341 71.7598 59.375C71.5905 59.6159 71.3594 59.8047 71.0664 59.9414C70.7799 60.0781 70.4609 60.1465 70.1094 60.1465ZM75.1191 60.1465C74.8262 60.1465 74.5592 60.0814 74.3184 59.9512C74.084 59.821 73.8984 59.6387 73.7617 59.4043C73.625 59.1634 73.5566 58.8802 73.5566 58.5547V56.1035H72.7363V55.4688C73.0553 55.3581 73.3158 55.153 73.5176 54.8535C73.7259 54.554 73.9082 54.1797 74.0645 53.7305H74.7969V55.0684H76.2812V56.1035H74.7969V58.2324C74.7969 58.4538 74.8522 58.6296 74.9629 58.7598C75.0801 58.8835 75.2493 58.9453 75.4707 58.9453C75.666 58.9453 75.8353 58.916 75.9785 58.8574C76.1217 58.7988 76.2487 58.737 76.3594 58.6719V59.7266C76.2422 59.8503 76.0762 59.9512 75.8613 60.0293C75.653 60.1074 75.4056 60.1465 75.1191 60.1465ZM79.875 60.1465C79.5169 60.1465 79.1784 60.0814 78.8594 59.9512C78.5469 59.8145 78.2669 59.6289 78.0195 59.3945C77.7721 59.1602 77.5801 58.8867 77.4434 58.5742C77.3066 58.2552 77.2383 57.9134 77.2383 57.5488C77.2383 57.1842 77.3066 56.8457 77.4434 56.5332C77.5801 56.2142 77.7721 55.9375 78.0195 55.7031C78.2669 55.4622 78.5469 55.2767 78.8594 55.1465C79.1784 55.0098 79.5169 54.9414 79.875 54.9414C80.2331 54.9414 80.5716 55.0098 80.8906 55.1465C81.2096 55.2767 81.4896 55.4622 81.7305 55.7031C81.9779 55.9375 82.1699 56.2142 82.3066 56.5332C82.4499 56.8457 82.5215 57.1842 82.5215 57.5488C82.5215 57.9134 82.4499 58.2552 82.3066 58.5742C82.1699 58.8867 81.9779 59.1602 81.7305 59.3945C81.4896 59.6289 81.2096 59.8145 80.8906 59.9512C80.5716 60.0814 80.2331 60.1465 79.875 60.1465ZM79.875 58.9453C80.1159 58.9453 80.334 58.8932 80.5293 58.7891C80.7311 58.6784 80.8939 58.5189 81.0176 58.3105C81.1413 58.0957 81.2031 57.8418 81.2031 57.5488C81.2031 57.2428 81.1413 56.9857 81.0176 56.7773C80.8939 56.569 80.7311 56.4128 80.5293 56.3086C80.334 56.1979 80.1159 56.1426 79.875 56.1426C79.6471 56.1426 79.429 56.1979 79.2207 56.3086C79.0189 56.4128 78.8561 56.569 78.7324 56.7773C78.6152 56.9857 78.5566 57.2428 78.5566 57.5488C78.5566 57.8418 78.6152 58.0957 78.7324 58.3105C78.8561 58.5189 79.0189 58.6784 79.2207 58.7891C79.429 58.8932 79.6471 58.9453 79.875 58.9453ZM86.9551 60L86.9453 57.1387C86.9453 56.8066 86.8639 56.5592 86.7012 56.3965C86.5449 56.2337 86.3268 56.1523 86.0469 56.1523C85.8255 56.1523 85.6204 56.224 85.4316 56.3672C85.2428 56.5104 85.0768 56.6797 84.9336 56.875V55.7715C85.0378 55.6348 85.1615 55.5046 85.3047 55.3809C85.4544 55.2507 85.6237 55.1465 85.8125 55.0684C86.0013 54.9837 86.2064 54.9414 86.4277 54.9414C86.7663 54.9414 87.069 55.0163 87.3359 55.166C87.6029 55.3158 87.8112 55.5436 87.9609 55.8496C88.1172 56.1491 88.1953 56.5234 88.1953 56.9727V60H86.9551ZM83.6934 60V55.0684H84.9336V60H83.6934ZM91.9258 60.1465C91.5612 60.1465 91.2194 60.0846 90.9004 59.9609C90.5814 59.8307 90.2982 59.6517 90.0508 59.4238C89.8099 59.196 89.6211 58.9258 89.4844 58.6133C89.3477 58.3008 89.2793 57.959 89.2793 57.5879C89.2793 57.1061 89.3867 56.6667 89.6016 56.2695C89.8164 55.8659 90.1126 55.5436 90.4902 55.3027C90.8678 55.0618 91.2975 54.9414 91.7793 54.9414C92.2611 54.9414 92.6745 55.0456 93.0195 55.2539C93.3711 55.4622 93.638 55.752 93.8203 56.123C94.0091 56.4876 94.1035 56.9108 94.1035 57.3926V57.9199H90.4219V57.0703H92.9121C92.8991 56.8294 92.834 56.6341 92.7168 56.4844C92.5996 56.3281 92.4564 56.2142 92.2871 56.1426C92.1178 56.0645 91.9388 56.0254 91.75 56.0254C91.4961 56.0254 91.2747 56.0905 91.0859 56.2207C90.9036 56.3509 90.7604 56.5332 90.6562 56.7676C90.5521 57.002 90.5 57.2754 90.5 57.5879C90.5 57.8678 90.5618 58.1152 90.6855 58.3301C90.8092 58.5449 90.9818 58.7142 91.2031 58.8379C91.431 58.9616 91.6882 59.0234 91.9746 59.0234C92.3392 59.0234 92.6647 58.9518 92.9512 58.8086C93.2441 58.6654 93.4753 58.5189 93.6445 58.3691V59.5215C93.5469 59.6126 93.4102 59.707 93.2344 59.8047C93.0586 59.9023 92.8568 59.9837 92.6289 60.0488C92.4076 60.1139 92.1732 60.1465 91.9258 60.1465ZM98.1074 60V59.4531C98.7324 58.776 99.2565 58.2031 99.6797 57.7344C100.109 57.2656 100.432 56.8652 100.646 56.5332C100.868 56.2012 100.979 55.9049 100.979 55.6445C100.979 55.306 100.868 55.0456 100.646 54.8633C100.432 54.681 100.161 54.5898 99.8359 54.5898C99.543 54.5898 99.2533 54.668 98.9668 54.8242C98.6803 54.9805 98.4427 55.1562 98.2539 55.3516V53.9648C98.4492 53.7956 98.7096 53.6458 99.0352 53.5156C99.3607 53.3789 99.709 53.3105 100.08 53.3105C100.529 53.3105 100.92 53.3952 101.252 53.5645C101.59 53.7272 101.854 53.9583 102.043 54.2578C102.232 54.5508 102.326 54.8958 102.326 55.293C102.326 55.6185 102.277 55.918 102.18 56.1914C102.082 56.4583 101.936 56.7253 101.74 56.9922C101.551 57.2526 101.32 57.5326 101.047 57.832C100.78 58.1315 100.474 58.4733 100.129 58.8574H102.375V60H98.1074ZM104.582 56.2695C104.367 56.2695 104.182 56.1947 104.025 56.0449C103.876 55.8887 103.801 55.7064 103.801 55.498C103.801 55.2767 103.876 55.0911 104.025 54.9414C104.182 54.7852 104.367 54.707 104.582 54.707C104.797 54.707 104.979 54.7852 105.129 54.9414C105.285 55.0911 105.363 55.2767 105.363 55.498C105.363 55.7064 105.285 55.8887 105.129 56.0449C104.979 56.1947 104.797 56.2695 104.582 56.2695ZM104.582 60.1758C104.367 60.1758 104.182 60.1009 104.025 59.9512C103.876 59.7949 103.801 59.6126 103.801 59.4043C103.801 59.1829 103.876 58.9974 104.025 58.8477C104.182 58.6914 104.367 58.6133 104.582 58.6133C104.797 58.6133 104.979 58.6914 105.129 58.8477C105.285 58.9974 105.363 59.1829 105.363 59.4043C105.363 59.6126 105.285 59.7949 105.129 59.9512C104.979 60.1009 104.797 60.1758 104.582 60.1758ZM111.447 60.1465C111.213 60.1465 110.982 60.1107 110.754 60.0391C110.526 59.974 110.321 59.8893 110.139 59.7852C109.956 59.681 109.807 59.5768 109.689 59.4727V58.5059C109.813 58.6035 109.963 58.7207 110.139 58.8574C110.314 58.9876 110.513 59.1048 110.734 59.209C110.956 59.3066 111.193 59.3555 111.447 59.3555C111.74 59.3555 112.007 59.2969 112.248 59.1797C112.489 59.0625 112.678 58.8997 112.814 58.6914C112.958 58.4831 113.029 58.2389 113.029 57.959C113.029 57.6921 112.954 57.4642 112.805 57.2754C112.655 57.0801 112.456 56.9303 112.209 56.8262C111.962 56.7155 111.691 56.6602 111.398 56.6602C111.151 56.6602 110.923 56.6927 110.715 56.7578C110.513 56.8164 110.321 56.8815 110.139 56.9531V53.457H113.596V54.2676H111.018V56.0156C111.115 55.9766 111.226 55.944 111.35 55.918C111.48 55.8919 111.646 55.8789 111.848 55.8789C112.212 55.8789 112.544 55.9668 112.844 56.1426C113.15 56.3184 113.394 56.556 113.576 56.8555C113.765 57.1549 113.859 57.4967 113.859 57.8809C113.859 58.3236 113.755 58.7174 113.547 59.0625C113.339 59.401 113.052 59.668 112.688 59.8633C112.323 60.0521 111.91 60.1465 111.447 60.1465ZM117.16 60.1465C116.743 60.1465 116.379 60.0488 116.066 59.8535C115.754 59.6582 115.497 59.3978 115.295 59.0723C115.093 58.7402 114.94 58.3724 114.836 57.9688C114.738 57.5586 114.689 57.1452 114.689 56.7285C114.689 56.3053 114.738 55.8919 114.836 55.4883C114.94 55.0846 115.093 54.7201 115.295 54.3945C115.497 54.0625 115.754 53.7988 116.066 53.6035C116.379 53.4082 116.743 53.3105 117.16 53.3105C117.583 53.3105 117.948 53.4082 118.254 53.6035C118.566 53.7988 118.824 54.0625 119.025 54.3945C119.227 54.7201 119.377 55.0846 119.475 55.4883C119.579 55.8919 119.631 56.3053 119.631 56.7285C119.631 57.1452 119.579 57.5586 119.475 57.9688C119.377 58.3724 119.227 58.7402 119.025 59.0723C118.824 59.3978 118.566 59.6582 118.254 59.8535C117.948 60.0488 117.583 60.1465 117.16 60.1465ZM117.16 59.2871C117.427 59.2871 117.661 59.2155 117.863 59.0723C118.072 58.9225 118.244 58.7272 118.381 58.4863C118.518 58.2389 118.622 57.9655 118.693 57.666C118.765 57.36 118.801 57.0475 118.801 56.7285C118.801 56.4095 118.765 56.1003 118.693 55.8008C118.622 55.4948 118.518 55.2214 118.381 54.9805C118.244 54.7331 118.072 54.5378 117.863 54.3945C117.661 54.2448 117.427 54.1699 117.16 54.1699C116.893 54.1699 116.656 54.2448 116.447 54.3945C116.245 54.5378 116.076 54.7331 115.939 54.9805C115.803 55.2214 115.699 55.4948 115.627 55.8008C115.555 56.1003 115.52 56.4095 115.52 56.7285C115.52 57.0475 115.555 57.36 115.627 57.666C115.699 57.9655 115.803 58.2389 115.939 58.4863C116.076 58.7272 116.245 58.9225 116.447 59.0723C116.656 59.2155 116.893 59.2871 117.16 59.2871ZM122.092 60.1953L121.574 59.9316L125.559 53.2617L126.105 53.5254L122.092 60.1953ZM121.691 56.2988C121.398 56.2988 121.138 56.2337 120.91 56.1035C120.689 55.9668 120.516 55.7845 120.393 55.5566C120.269 55.3288 120.207 55.0781 120.207 54.8047C120.207 54.5312 120.269 54.2806 120.393 54.0527C120.516 53.8249 120.689 53.6458 120.91 53.5156C121.138 53.3789 121.398 53.3105 121.691 53.3105C121.984 53.3105 122.242 53.3789 122.463 53.5156C122.691 53.6458 122.867 53.8249 122.99 54.0527C123.114 54.2806 123.176 54.5312 123.176 54.8047C123.176 55.0781 123.114 55.3288 122.99 55.5566C122.867 55.7845 122.691 55.9668 122.463 56.1035C122.242 56.2337 121.984 56.2988 121.691 56.2988ZM121.701 55.6445C121.929 55.6445 122.118 55.5632 122.268 55.4004C122.424 55.2311 122.502 55.0326 122.502 54.8047C122.502 54.5768 122.424 54.3815 122.268 54.2188C122.118 54.056 121.929 53.9746 121.701 53.9746C121.473 53.9746 121.281 54.056 121.125 54.2188C120.969 54.3815 120.891 54.5768 120.891 54.8047C120.891 55.0326 120.969 55.2311 121.125 55.4004C121.281 55.5632 121.473 55.6445 121.701 55.6445ZM125.988 60.1465C125.695 60.1465 125.435 60.0814 125.207 59.9512C124.986 59.8145 124.813 59.6322 124.689 59.4043C124.566 59.1764 124.504 58.9258 124.504 58.6523C124.504 58.3789 124.566 58.1283 124.689 57.9004C124.813 57.6725 124.986 57.4935 125.207 57.3633C125.435 57.2266 125.695 57.1582 125.988 57.1582C126.281 57.1582 126.538 57.2266 126.76 57.3633C126.988 57.4935 127.163 57.6725 127.287 57.9004C127.411 58.1283 127.473 58.3789 127.473 58.6523C127.473 58.9258 127.411 59.1764 127.287 59.4043C127.163 59.6322 126.988 59.8145 126.76 59.9512C126.538 60.0814 126.281 60.1465 125.988 60.1465ZM125.998 59.4922C126.226 59.4922 126.415 59.4108 126.564 59.248C126.721 59.0788 126.799 58.8802 126.799 58.6523C126.799 58.4245 126.721 58.2292 126.564 58.0664C126.415 57.9036 126.226 57.8223 125.998 57.8223C125.77 57.8223 125.578 57.9036 125.422 58.0664C125.266 58.2292 125.188 58.4245 125.188 58.6523C125.188 58.8802 125.266 59.0788 125.422 59.248C125.578 59.4108 125.77 59.4922 125.998 59.4922ZM133.83 60.1465C133.459 60.1465 133.117 60.0814 132.805 59.9512C132.499 59.8145 132.229 59.6289 131.994 59.3945C131.766 59.1536 131.59 58.8802 131.467 58.5742C131.343 58.2617 131.281 57.9329 131.281 57.5879C131.281 57.2428 131.343 56.9173 131.467 56.6113C131.59 56.2988 131.766 56.0254 131.994 55.791C132.229 55.5501 132.499 55.3613 132.805 55.2246C133.117 55.0879 133.459 55.0195 133.83 55.0195C134.201 55.0195 134.54 55.0879 134.846 55.2246C135.158 55.3613 135.428 55.5501 135.656 55.791C135.891 56.0254 136.07 56.2988 136.193 56.6113C136.317 56.9173 136.379 57.2428 136.379 57.5879C136.379 57.9329 136.317 58.2617 136.193 58.5742C136.07 58.8802 135.891 59.1536 135.656 59.3945C135.428 59.6289 135.158 59.8145 134.846 59.9512C134.54 60.0814 134.201 60.1465 133.83 60.1465ZM133.83 59.3652C134.182 59.3652 134.484 59.2839 134.738 59.1211C134.999 58.9518 135.197 58.7337 135.334 58.4668C135.477 58.1934 135.549 57.9004 135.549 57.5879C135.549 57.2689 135.477 56.9759 135.334 56.709C135.197 56.4355 134.999 56.2174 134.738 56.0547C134.484 55.8854 134.182 55.8008 133.83 55.8008C133.485 55.8008 133.182 55.8854 132.922 56.0547C132.661 56.2174 132.46 56.4355 132.316 56.709C132.18 56.9759 132.111 57.2689 132.111 57.5879C132.111 57.9004 132.18 58.1934 132.316 58.4668C132.46 58.7337 132.661 58.9518 132.922 59.1211C133.182 59.2839 133.485 59.3652 133.83 59.3652ZM138 60V54.4922C138 54.1081 138.075 53.7956 138.225 53.5547C138.374 53.3073 138.566 53.125 138.801 53.0078C139.035 52.8841 139.273 52.8223 139.514 52.8223C139.683 52.8223 139.836 52.8451 139.973 52.8906C140.109 52.9362 140.227 53.0013 140.324 53.0859V53.7891C140.227 53.724 140.109 53.6719 139.973 53.6328C139.836 53.5938 139.699 53.5775 139.562 53.584C139.322 53.5905 139.133 53.6686 138.996 53.8184C138.866 53.9616 138.801 54.2155 138.801 54.5801V60H138ZM137.229 55.8691V55.1172H140.227V55.8691H137.229ZM146.154 60.1465C145.738 60.1465 145.357 60.0423 145.012 59.834C144.667 59.6191 144.39 59.3229 144.182 58.9453C143.98 58.5677 143.879 58.1315 143.879 57.6367C143.879 57.0964 143.98 56.6309 144.182 56.2402C144.39 55.8496 144.673 55.5501 145.031 55.3418C145.389 55.127 145.79 55.0195 146.232 55.0195C146.512 55.0195 146.796 55.0879 147.082 55.2246C147.375 55.3548 147.626 55.5371 147.834 55.7715V55.1172H148.635V60H147.834V59.1699C147.665 59.4303 147.434 59.6582 147.141 59.8535C146.854 60.0488 146.525 60.1465 146.154 60.1465ZM146.281 59.3652C146.581 59.3652 146.848 59.2871 147.082 59.1309C147.316 58.9746 147.502 58.7598 147.639 58.4863C147.775 58.2064 147.84 57.8939 147.834 57.5488L147.824 56.6113C147.622 56.3574 147.404 56.1589 147.17 56.0156C146.942 55.8724 146.678 55.8008 146.379 55.8008C146.027 55.8008 145.728 55.8887 145.48 56.0645C145.233 56.2402 145.041 56.4681 144.904 56.748C144.774 57.0215 144.709 57.3177 144.709 57.6367C144.709 57.9492 144.774 58.2389 144.904 58.5059C145.035 58.7663 145.217 58.9746 145.451 59.1309C145.692 59.2871 145.969 59.3652 146.281 59.3652ZM150.295 60V52.9688H151.096V60H150.295ZM152.756 60V52.9688H153.557V60H152.756ZM160.07 60.0977C159.68 60.0977 159.328 60.013 159.016 59.8438C158.703 59.6745 158.456 59.4336 158.273 59.1211C158.091 58.8086 158 58.4375 158 58.0078V55.1172H158.83V58.0078C158.83 58.431 158.954 58.7565 159.201 58.9844C159.455 59.2057 159.745 59.3164 160.07 59.3164C160.396 59.3164 160.682 59.2057 160.93 58.9844C161.184 58.7565 161.311 58.431 161.311 58.0078V55.1172H162.141V58.0078C162.141 58.4375 162.049 58.8086 161.867 59.1211C161.685 59.4336 161.438 59.6745 161.125 59.8438C160.812 60.013 160.461 60.0977 160.07 60.0977ZM164.816 60.1465C164.628 60.1465 164.429 60.1204 164.221 60.0684C164.019 60.0228 163.837 59.9674 163.674 59.9023C163.511 59.8307 163.391 59.7689 163.312 59.7168V58.8574C163.404 58.9225 163.531 58.9974 163.693 59.082C163.863 59.1602 164.042 59.2285 164.23 59.2871C164.419 59.3392 164.595 59.3652 164.758 59.3652C165.064 59.3652 165.305 59.2969 165.48 59.1602C165.663 59.0234 165.754 58.8542 165.754 58.6523C165.754 58.4961 165.692 58.3724 165.568 58.2812C165.451 58.1901 165.279 58.1022 165.051 58.0176L164.328 57.7539C163.951 57.6107 163.7 57.4316 163.576 57.2168C163.452 56.9954 163.391 56.7448 163.391 56.4648C163.391 56.1849 163.459 55.9375 163.596 55.7227C163.739 55.5078 163.941 55.3385 164.201 55.2148C164.462 55.0846 164.764 55.0195 165.109 55.0195C165.396 55.0195 165.663 55.0618 165.91 55.1465C166.158 55.2246 166.337 55.306 166.447 55.3906V56.25C166.311 56.1458 166.125 56.0449 165.891 55.9473C165.656 55.8496 165.415 55.8008 165.168 55.8008C164.862 55.8008 164.631 55.8724 164.475 56.0156C164.325 56.1589 164.25 56.3086 164.25 56.4648C164.25 56.5885 164.292 56.7155 164.377 56.8457C164.468 56.9694 164.624 57.0703 164.846 57.1484L165.666 57.4414C165.985 57.5521 166.223 57.7116 166.379 57.9199C166.535 58.1283 166.613 58.3724 166.613 58.6523C166.613 58.9258 166.535 59.1764 166.379 59.4043C166.229 59.6322 166.018 59.8145 165.744 59.9512C165.477 60.0814 165.168 60.1465 164.816 60.1465ZM170.041 60.1465C169.67 60.1465 169.328 60.0814 169.016 59.9512C168.71 59.8145 168.439 59.6289 168.205 59.3945C167.977 59.1536 167.801 58.8802 167.678 58.5742C167.554 58.2617 167.492 57.9329 167.492 57.5879C167.492 57.1257 167.593 56.6992 167.795 56.3086C167.997 55.918 168.273 55.6055 168.625 55.3711C168.983 55.1367 169.39 55.0195 169.846 55.0195C170.347 55.0195 170.764 55.1237 171.096 55.332C171.428 55.5404 171.675 55.8236 171.838 56.1816C172.007 56.5397 172.092 56.9434 172.092 57.3926V57.8711H168.244V57.1875H171.301C171.268 56.8685 171.177 56.6081 171.027 56.4062C170.884 56.2044 170.708 56.0547 170.5 55.957C170.292 55.8529 170.074 55.8008 169.846 55.8008C169.533 55.8008 169.263 55.8854 169.035 56.0547C168.807 56.2174 168.632 56.4355 168.508 56.709C168.384 56.9759 168.322 57.2689 168.322 57.5879C168.322 57.9004 168.391 58.1934 168.527 58.4668C168.671 58.7337 168.872 58.9518 169.133 59.1211C169.393 59.2839 169.696 59.3652 170.041 59.3652C170.393 59.3652 170.718 59.2773 171.018 59.1016C171.324 58.9193 171.581 58.7207 171.789 58.5059V59.375C171.698 59.4857 171.561 59.6029 171.379 59.7266C171.203 59.8438 170.998 59.9414 170.764 60.0195C170.536 60.1042 170.295 60.1465 170.041 60.1465ZM173.41 60V55.1172H174.211V60H173.41ZM174.211 57.0508V56.0938C174.4 55.7682 174.628 55.5078 174.895 55.3125C175.161 55.1172 175.435 55.0195 175.715 55.0195C175.904 55.0195 176.073 55.0521 176.223 55.1172V56.0449C176.125 55.9863 176.024 55.9408 175.92 55.9082C175.816 55.8757 175.708 55.8594 175.598 55.8594C175.266 55.8594 174.995 55.9766 174.787 56.2109C174.585 56.4453 174.393 56.7253 174.211 57.0508ZM178.41 60.1465C178.221 60.1465 178.023 60.1204 177.814 60.0684C177.613 60.0228 177.43 59.9674 177.268 59.9023C177.105 59.8307 176.984 59.7689 176.906 59.7168V58.8574C176.997 58.9225 177.124 58.9974 177.287 59.082C177.456 59.1602 177.635 59.2285 177.824 59.2871C178.013 59.3392 178.189 59.3652 178.352 59.3652C178.658 59.3652 178.898 59.2969 179.074 59.1602C179.257 59.0234 179.348 58.8542 179.348 58.6523C179.348 58.4961 179.286 58.3724 179.162 58.2812C179.045 58.1901 178.872 58.1022 178.645 58.0176L177.922 57.7539C177.544 57.6107 177.294 57.4316 177.17 57.2168C177.046 56.9954 176.984 56.7448 176.984 56.4648C176.984 56.1849 177.053 55.9375 177.189 55.7227C177.333 55.5078 177.535 55.3385 177.795 55.2148C178.055 55.0846 178.358 55.0195 178.703 55.0195C178.99 55.0195 179.257 55.0618 179.504 55.1465C179.751 55.2246 179.93 55.306 180.041 55.3906V56.25C179.904 56.1458 179.719 56.0449 179.484 55.9473C179.25 55.8496 179.009 55.8008 178.762 55.8008C178.456 55.8008 178.225 55.8724 178.068 56.0156C177.919 56.1589 177.844 56.3086 177.844 56.4648C177.844 56.5885 177.886 56.7155 177.971 56.8457C178.062 56.9694 178.218 57.0703 178.439 57.1484L179.26 57.4414C179.579 57.5521 179.816 57.7116 179.973 57.9199C180.129 58.1283 180.207 58.3724 180.207 58.6523C180.207 58.9258 180.129 59.1764 179.973 59.4043C179.823 59.6322 179.611 59.8145 179.338 59.9512C179.071 60.0814 178.762 60.1465 178.41 60.1465Z" fill="#202021"/>
<path d="M48.9277 90V83.4082H49.3867L52.1797 86.3184L54.9531 83.4082H55.4121V90H54.0547V86.0156L52.375 87.8516H51.9844L50.2852 86.0156V90H48.9277ZM58.1172 84.1797C57.8828 84.1797 57.681 84.0951 57.5117 83.9258C57.3424 83.7565 57.2578 83.5612 57.2578 83.3398C57.2578 83.1055 57.3424 82.9069 57.5117 82.7441C57.681 82.5814 57.8828 82.5 58.1172 82.5C58.2734 82.5 58.4167 82.5391 58.5469 82.6172C58.6771 82.6888 58.7812 82.7897 58.8594 82.9199C58.9375 83.0436 58.9766 83.1836 58.9766 83.3398C58.9766 83.4831 58.9375 83.6198 58.8594 83.75C58.7812 83.8802 58.6771 83.9844 58.5469 84.0625C58.4167 84.1406 58.2734 84.1797 58.1172 84.1797ZM57.6191 90V85.0684H58.8594V90H57.6191ZM56.8281 86.123V85.0684H58.8594V86.123H56.8281ZM60.3926 90V82.9688H61.6328V90H60.3926ZM65.4512 90.1465C65.0866 90.1465 64.7448 90.0846 64.4258 89.9609C64.1068 89.8307 63.8236 89.6517 63.5762 89.4238C63.3353 89.196 63.1465 88.9258 63.0098 88.6133C62.873 88.3008 62.8047 87.959 62.8047 87.5879C62.8047 87.1061 62.9121 86.6667 63.127 86.2695C63.3418 85.8659 63.638 85.5436 64.0156 85.3027C64.3932 85.0618 64.8229 84.9414 65.3047 84.9414C65.7865 84.9414 66.1999 85.0456 66.5449 85.2539C66.8965 85.4622 67.1634 85.752 67.3457 86.123C67.5345 86.4876 67.6289 86.9108 67.6289 87.3926V87.9199H63.9473V87.0703H66.4375C66.4245 86.8294 66.3594 86.6341 66.2422 86.4844C66.125 86.3281 65.9818 86.2142 65.8125 86.1426C65.6432 86.0645 65.4642 86.0254 65.2754 86.0254C65.0215 86.0254 64.8001 86.0905 64.6113 86.2207C64.429 86.3509 64.2858 86.5332 64.1816 86.7676C64.0775 87.002 64.0254 87.2754 64.0254 87.5879C64.0254 87.8678 64.0872 88.1152 64.2109 88.3301C64.3346 88.5449 64.5072 88.7142 64.7285 88.8379C64.9564 88.9616 65.2135 89.0234 65.5 89.0234C65.8646 89.0234 66.1901 88.9518 66.4766 88.8086C66.7695 88.6654 67.0007 88.5189 67.1699 88.3691V89.5215C67.0723 89.6126 66.9355 89.707 66.7598 89.8047C66.584 89.9023 66.3822 89.9837 66.1543 90.0488C65.9329 90.1139 65.6986 90.1465 65.4512 90.1465ZM70.1094 90.1465C69.888 90.1465 69.6699 90.1204 69.4551 90.0684C69.2402 90.0228 69.0417 89.9609 68.8594 89.8828C68.6836 89.8047 68.5404 89.7266 68.4297 89.6484V88.5645C68.5534 88.6491 68.7031 88.7305 68.8789 88.8086C69.0547 88.8867 69.237 88.9518 69.4258 89.0039C69.6146 89.0495 69.7871 89.0723 69.9434 89.0723C70.1908 89.0723 70.3796 89.0267 70.5098 88.9355C70.6465 88.8444 70.7148 88.7207 70.7148 88.5645C70.7148 88.4408 70.6595 88.3431 70.5488 88.2715C70.4382 88.1999 70.2754 88.1283 70.0605 88.0566L69.4551 87.8418C69.084 87.7181 68.8236 87.5423 68.6738 87.3145C68.5306 87.0866 68.459 86.8164 68.459 86.5039C68.459 86.1914 68.5371 85.9212 68.6934 85.6934C68.8561 85.459 69.0807 85.2767 69.3672 85.1465C69.6602 85.0098 69.9889 84.9414 70.3535 84.9414C70.6595 84.9414 70.9427 84.987 71.2031 85.0781C71.4701 85.1628 71.6719 85.2669 71.8086 85.3906V86.4844C71.6589 86.3802 71.4701 86.2793 71.2422 86.1816C71.0208 86.084 70.7865 86.0352 70.5391 86.0352C70.3047 86.0352 70.1191 86.0872 69.9824 86.1914C69.8457 86.2956 69.7773 86.4193 69.7773 86.5625C69.7773 86.6667 69.8164 86.7643 69.8945 86.8555C69.9792 86.9401 70.1289 87.015 70.3438 87.0801L70.9004 87.2656C71.2845 87.3763 71.5677 87.5423 71.75 87.7637C71.9323 87.9785 72.0234 88.2454 72.0234 88.5645C72.0234 88.8639 71.9355 89.1341 71.7598 89.375C71.5905 89.6159 71.3594 89.8047 71.0664 89.9414C70.7799 90.0781 70.4609 90.1465 70.1094 90.1465ZM75.1191 90.1465C74.8262 90.1465 74.5592 90.0814 74.3184 89.9512C74.084 89.821 73.8984 89.6387 73.7617 89.4043C73.625 89.1634 73.5566 88.8802 73.5566 88.5547V86.1035H72.7363V85.4688C73.0553 85.3581 73.3158 85.153 73.5176 84.8535C73.7259 84.554 73.9082 84.1797 74.0645 83.7305H74.7969V85.0684H76.2812V86.1035H74.7969V88.2324C74.7969 88.4538 74.8522 88.6296 74.9629 88.7598C75.0801 88.8835 75.2493 88.9453 75.4707 88.9453C75.666 88.9453 75.8353 88.916 75.9785 88.8574C76.1217 88.7988 76.2487 88.737 76.3594 88.6719V89.7266C76.2422 89.8503 76.0762 89.9512 75.8613 90.0293C75.653 90.1074 75.4056 90.1465 75.1191 90.1465ZM79.875 90.1465C79.5169 90.1465 79.1784 90.0814 78.8594 89.9512C78.5469 89.8145 78.2669 89.6289 78.0195 89.3945C77.7721 89.1602 77.5801 88.8867 77.4434 88.5742C77.3066 88.2552 77.2383 87.9134 77.2383 87.5488C77.2383 87.1842 77.3066 86.8457 77.4434 86.5332C77.5801 86.2142 77.7721 85.9375 78.0195 85.7031C78.2669 85.4622 78.5469 85.2767 78.8594 85.1465C79.1784 85.0098 79.5169 84.9414 79.875 84.9414C80.2331 84.9414 80.5716 85.0098 80.8906 85.1465C81.2096 85.2767 81.4896 85.4622 81.7305 85.7031C81.9779 85.9375 82.1699 86.2142 82.3066 86.5332C82.4499 86.8457 82.5215 87.1842 82.5215 87.5488C82.5215 87.9134 82.4499 88.2552 82.3066 88.5742C82.1699 88.8867 81.9779 89.1602 81.7305 89.3945C81.4896 89.6289 81.2096 89.8145 80.8906 89.9512C80.5716 90.0814 80.2331 90.1465 79.875 90.1465ZM79.875 88.9453C80.1159 88.9453 80.334 88.8932 80.5293 88.7891C80.7311 88.6784 80.8939 88.5189 81.0176 88.3105C81.1413 88.0957 81.2031 87.8418 81.2031 87.5488C81.2031 87.2428 81.1413 86.9857 81.0176 86.7773C80.8939 86.569 80.7311 86.4128 80.5293 86.3086C80.334 86.1979 80.1159 86.1426 79.875 86.1426C79.6471 86.1426 79.429 86.1979 79.2207 86.3086C79.0189 86.4128 78.8561 86.569 78.7324 86.7773C78.6152 86.9857 78.5566 87.2428 78.5566 87.5488C78.5566 87.8418 78.6152 88.0957 78.7324 88.3105C78.8561 88.5189 79.0189 88.6784 79.2207 88.7891C79.429 88.8932 79.6471 88.9453 79.875 88.9453ZM86.9551 90L86.9453 87.1387C86.9453 86.8066 86.8639 86.5592 86.7012 86.3965C86.5449 86.2337 86.3268 86.1523 86.0469 86.1523C85.8255 86.1523 85.6204 86.224 85.4316 86.3672C85.2428 86.5104 85.0768 86.6797 84.9336 86.875V85.7715C85.0378 85.6348 85.1615 85.5046 85.3047 85.3809C85.4544 85.2507 85.6237 85.1465 85.8125 85.0684C86.0013 84.9837 86.2064 84.9414 86.4277 84.9414C86.7663 84.9414 87.069 85.0163 87.3359 85.166C87.6029 85.3158 87.8112 85.5436 87.9609 85.8496C88.1172 86.1491 88.1953 86.5234 88.1953 86.9727V90H86.9551ZM83.6934 90V85.0684H84.9336V90H83.6934ZM91.9258 90.1465C91.5612 90.1465 91.2194 90.0846 90.9004 89.9609C90.5814 89.8307 90.2982 89.6517 90.0508 89.4238C89.8099 89.196 89.6211 88.9258 89.4844 88.6133C89.3477 88.3008 89.2793 87.959 89.2793 87.5879C89.2793 87.1061 89.3867 86.6667 89.6016 86.2695C89.8164 85.8659 90.1126 85.5436 90.4902 85.3027C90.8678 85.0618 91.2975 84.9414 91.7793 84.9414C92.2611 84.9414 92.6745 85.0456 93.0195 85.2539C93.3711 85.4622 93.638 85.752 93.8203 86.123C94.0091 86.4876 94.1035 86.9108 94.1035 87.3926V87.9199H90.4219V87.0703H92.9121C92.8991 86.8294 92.834 86.6341 92.7168 86.4844C92.5996 86.3281 92.4564 86.2142 92.2871 86.1426C92.1178 86.0645 91.9388 86.0254 91.75 86.0254C91.4961 86.0254 91.2747 86.0905 91.0859 86.2207C90.9036 86.3509 90.7604 86.5332 90.6562 86.7676C90.5521 87.002 90.5 87.2754 90.5 87.5879C90.5 87.8678 90.5618 88.1152 90.6855 88.3301C90.8092 88.5449 90.9818 88.7142 91.2031 88.8379C91.431 88.9616 91.6882 89.0234 91.9746 89.0234C92.3392 89.0234 92.6647 88.9518 92.9512 88.8086C93.2441 88.6654 93.4753 88.5189 93.6445 88.3691V89.5215C93.5469 89.6126 93.4102 89.707 93.2344 89.8047C93.0586 89.9023 92.8568 89.9837 92.6289 90.0488C92.4076 90.1139 92.1732 90.1465 91.9258 90.1465ZM99.875 90.1465C99.5234 90.1465 99.1947 90.0944 98.8887 89.9902C98.5892 89.8796 98.3516 89.7493 98.1758 89.5996V88.3203C98.3255 88.418 98.4753 88.5156 98.625 88.6133C98.7812 88.7109 98.9473 88.7923 99.123 88.8574C99.3053 88.916 99.5072 88.9453 99.7285 88.9453C100.067 88.9453 100.347 88.8672 100.568 88.7109C100.796 88.5482 100.91 88.3138 100.91 88.0078C100.91 87.8255 100.852 87.6725 100.734 87.5488C100.617 87.4251 100.464 87.334 100.275 87.2754C100.093 87.2168 99.8978 87.1875 99.6895 87.1875H99.1523V86.1328H99.6895C99.9173 86.1328 100.122 86.1133 100.305 86.0742C100.487 86.0286 100.633 85.9538 100.744 85.8496C100.855 85.7454 100.91 85.6022 100.91 85.4199C100.91 85.2246 100.852 85.0618 100.734 84.9316C100.624 84.7949 100.474 84.6908 100.285 84.6191C100.103 84.5475 99.9043 84.5117 99.6895 84.5117C99.4095 84.5117 99.1621 84.5703 98.9473 84.6875C98.7389 84.7982 98.5404 84.9447 98.3516 85.127V83.8574C98.5208 83.7012 98.7357 83.571 98.9961 83.4668C99.263 83.3626 99.5592 83.3105 99.8848 83.3105C100.347 83.3105 100.757 83.3919 101.115 83.5547C101.473 83.7109 101.753 83.9323 101.955 84.2188C102.157 84.4987 102.258 84.8242 102.258 85.1953C102.258 85.4883 102.193 85.7389 102.062 85.9473C101.932 86.1491 101.77 86.3118 101.574 86.4355C101.379 86.5592 101.18 86.6406 100.979 86.6797C101.18 86.7253 101.379 86.8099 101.574 86.9336C101.77 87.0573 101.932 87.2233 102.062 87.4316C102.193 87.64 102.258 87.8906 102.258 88.1836C102.258 88.5677 102.154 88.9062 101.945 89.1992C101.737 89.4922 101.451 89.7233 101.086 89.8926C100.728 90.0618 100.324 90.1465 99.875 90.1465ZM104.582 86.2695C104.367 86.2695 104.182 86.1947 104.025 86.0449C103.876 85.8887 103.801 85.7064 103.801 85.498C103.801 85.2767 103.876 85.0911 104.025 84.9414C104.182 84.7852 104.367 84.707 104.582 84.707C104.797 84.707 104.979 84.7852 105.129 84.9414C105.285 85.0911 105.363 85.2767 105.363 85.498C105.363 85.7064 105.285 85.8887 105.129 86.0449C104.979 86.1947 104.797 86.2695 104.582 86.2695ZM104.582 90.1758C104.367 90.1758 104.182 90.1009 104.025 89.9512C103.876 89.7949 103.801 89.6126 103.801 89.4043C103.801 89.1829 103.876 88.9974 104.025 88.8477C104.182 88.6914 104.367 88.6133 104.582 88.6133C104.797 88.6133 104.979 88.6914 105.129 88.8477C105.285 88.9974 105.363 89.1829 105.363 89.4043C105.363 89.6126 105.285 89.7949 105.129 89.9512C104.979 90.1009 104.797 90.1758 104.582 90.1758ZM111.428 90V84.9609C111.232 85.1302 111.031 85.2474 110.822 85.3125C110.614 85.3776 110.406 85.4297 110.197 85.4688V84.6289C110.575 84.5312 110.904 84.3717 111.184 84.1504C111.464 83.929 111.695 83.6979 111.877 83.457H112.307V90H111.428ZM110.129 90V89.2188H113.674V90H110.129ZM117.16 90.1465C116.743 90.1465 116.379 90.0488 116.066 89.8535C115.754 89.6582 115.497 89.3978 115.295 89.0723C115.093 88.7402 114.94 88.3724 114.836 87.9688C114.738 87.5586 114.689 87.1452 114.689 86.7285C114.689 86.3053 114.738 85.8919 114.836 85.4883C114.94 85.0846 115.093 84.7201 115.295 84.3945C115.497 84.0625 115.754 83.7988 116.066 83.6035C116.379 83.4082 116.743 83.3105 117.16 83.3105C117.583 83.3105 117.948 83.4082 118.254 83.6035C118.566 83.7988 118.824 84.0625 119.025 84.3945C119.227 84.7201 119.377 85.0846 119.475 85.4883C119.579 85.8919 119.631 86.3053 119.631 86.7285C119.631 87.1452 119.579 87.5586 119.475 87.9688C119.377 88.3724 119.227 88.7402 119.025 89.0723C118.824 89.3978 118.566 89.6582 118.254 89.8535C117.948 90.0488 117.583 90.1465 117.16 90.1465ZM117.16 89.2871C117.427 89.2871 117.661 89.2155 117.863 89.0723C118.072 88.9225 118.244 88.7272 118.381 88.4863C118.518 88.2389 118.622 87.9655 118.693 87.666C118.765 87.36 118.801 87.0475 118.801 86.7285C118.801 86.4095 118.765 86.1003 118.693 85.8008C118.622 85.4948 118.518 85.2214 118.381 84.9805C118.244 84.7331 118.072 84.5378 117.863 84.3945C117.661 84.2448 117.427 84.1699 117.16 84.1699C116.893 84.1699 116.656 84.2448 116.447 84.3945C116.245 84.5378 116.076 84.7331 115.939 84.9805C115.803 85.2214 115.699 85.4948 115.627 85.8008C115.555 86.1003 115.52 86.4095 115.52 86.7285C115.52 87.0475 115.555 87.36 115.627 87.666C115.699 87.9655 115.803 88.2389 115.939 88.4863C116.076 88.7272 116.245 88.9225 116.447 89.0723C116.656 89.2155 116.893 89.2871 117.16 89.2871ZM122.531 90.1465C122.115 90.1465 121.75 90.0488 121.438 89.8535C121.125 89.6582 120.868 89.3978 120.666 89.0723C120.464 88.7402 120.311 88.3724 120.207 87.9688C120.109 87.5586 120.061 87.1452 120.061 86.7285C120.061 86.3053 120.109 85.8919 120.207 85.4883C120.311 85.0846 120.464 84.7201 120.666 84.3945C120.868 84.0625 121.125 83.7988 121.438 83.6035C121.75 83.4082 122.115 83.3105 122.531 83.3105C122.954 83.3105 123.319 83.4082 123.625 83.6035C123.938 83.7988 124.195 84.0625 124.396 84.3945C124.598 84.7201 124.748 85.0846 124.846 85.4883C124.95 85.8919 125.002 86.3053 125.002 86.7285C125.002 87.1452 124.95 87.5586 124.846 87.9688C124.748 88.3724 124.598 88.7402 124.396 89.0723C124.195 89.3978 123.938 89.6582 123.625 89.8535C123.319 90.0488 122.954 90.1465 122.531 90.1465ZM122.531 89.2871C122.798 89.2871 123.033 89.2155 123.234 89.0723C123.443 88.9225 123.615 88.7272 123.752 88.4863C123.889 88.2389 123.993 87.9655 124.064 87.666C124.136 87.36 124.172 87.0475 124.172 86.7285C124.172 86.4095 124.136 86.1003 124.064 85.8008C123.993 85.4948 123.889 85.2214 123.752 84.9805C123.615 84.7331 123.443 84.5378 123.234 84.3945C123.033 84.2448 122.798 84.1699 122.531 84.1699C122.264 84.1699 122.027 84.2448 121.818 84.3945C121.617 84.5378 121.447 84.7331 121.311 84.9805C121.174 85.2214 121.07 85.4948 120.998 85.8008C120.926 86.1003 120.891 86.4095 120.891 86.7285C120.891 87.0475 120.926 87.36 120.998 87.666C121.07 87.9655 121.174 88.2389 121.311 88.4863C121.447 88.7272 121.617 88.9225 121.818 89.0723C122.027 89.2155 122.264 89.2871 122.531 89.2871ZM127.463 90.1953L126.945 89.9316L130.93 83.2617L131.477 83.5254L127.463 90.1953ZM127.062 86.2988C126.77 86.2988 126.509 86.2337 126.281 86.1035C126.06 85.9668 125.887 85.7845 125.764 85.5566C125.64 85.3288 125.578 85.0781 125.578 84.8047C125.578 84.5312 125.64 84.2806 125.764 84.0527C125.887 83.8249 126.06 83.6458 126.281 83.5156C126.509 83.3789 126.77 83.3105 127.062 83.3105C127.355 83.3105 127.613 83.3789 127.834 83.5156C128.062 83.6458 128.238 83.8249 128.361 84.0527C128.485 84.2806 128.547 84.5312 128.547 84.8047C128.547 85.0781 128.485 85.3288 128.361 85.5566C128.238 85.7845 128.062 85.9668 127.834 86.1035C127.613 86.2337 127.355 86.2988 127.062 86.2988ZM127.072 85.6445C127.3 85.6445 127.489 85.5632 127.639 85.4004C127.795 85.2311 127.873 85.0326 127.873 84.8047C127.873 84.5768 127.795 84.3815 127.639 84.2188C127.489 84.056 127.3 83.9746 127.072 83.9746C126.844 83.9746 126.652 84.056 126.496 84.2188C126.34 84.3815 126.262 84.5768 126.262 84.8047C126.262 85.0326 126.34 85.2311 126.496 85.4004C126.652 85.5632 126.844 85.6445 127.072 85.6445ZM131.359 90.1465C131.066 90.1465 130.806 90.0814 130.578 89.9512C130.357 89.8145 130.184 89.6322 130.061 89.4043C129.937 89.1764 129.875 88.9258 129.875 88.6523C129.875 88.3789 129.937 88.1283 130.061 87.9004C130.184 87.6725 130.357 87.4935 130.578 87.3633C130.806 87.2266 131.066 87.1582 131.359 87.1582C131.652 87.1582 131.91 87.2266 132.131 87.3633C132.359 87.4935 132.535 87.6725 132.658 87.9004C132.782 88.1283 132.844 88.3789 132.844 88.6523C132.844 88.9258 132.782 89.1764 132.658 89.4043C132.535 89.6322 132.359 89.8145 132.131 89.9512C131.91 90.0814 131.652 90.1465 131.359 90.1465ZM131.369 89.4922C131.597 89.4922 131.786 89.4108 131.936 89.248C132.092 89.0788 132.17 88.8802 132.17 88.6523C132.17 88.4245 132.092 88.2292 131.936 88.0664C131.786 87.9036 131.597 87.8223 131.369 87.8223C131.141 87.8223 130.949 87.9036 130.793 88.0664C130.637 88.2292 130.559 88.4245 130.559 88.6523C130.559 88.8802 130.637 89.0788 130.793 89.248C130.949 89.4108 131.141 89.4922 131.369 89.4922ZM139.201 90.1465C138.83 90.1465 138.488 90.0814 138.176 89.9512C137.87 89.8145 137.6 89.6289 137.365 89.3945C137.137 89.1536 136.962 88.8802 136.838 88.5742C136.714 88.2617 136.652 87.9329 136.652 87.5879C136.652 87.2428 136.714 86.9173 136.838 86.6113C136.962 86.2988 137.137 86.0254 137.365 85.791C137.6 85.5501 137.87 85.3613 138.176 85.2246C138.488 85.0879 138.83 85.0195 139.201 85.0195C139.572 85.0195 139.911 85.0879 140.217 85.2246C140.529 85.3613 140.799 85.5501 141.027 85.791C141.262 86.0254 141.441 86.2988 141.564 86.6113C141.688 86.9173 141.75 87.2428 141.75 87.5879C141.75 87.9329 141.688 88.2617 141.564 88.5742C141.441 88.8802 141.262 89.1536 141.027 89.3945C140.799 89.6289 140.529 89.8145 140.217 89.9512C139.911 90.0814 139.572 90.1465 139.201 90.1465ZM139.201 89.3652C139.553 89.3652 139.855 89.2839 140.109 89.1211C140.37 88.9518 140.568 88.7337 140.705 88.4668C140.848 88.1934 140.92 87.9004 140.92 87.5879C140.92 87.2689 140.848 86.9759 140.705 86.709C140.568 86.4355 140.37 86.2174 140.109 86.0547C139.855 85.8854 139.553 85.8008 139.201 85.8008C138.856 85.8008 138.553 85.8854 138.293 86.0547C138.033 86.2174 137.831 86.4355 137.688 86.709C137.551 86.9759 137.482 87.2689 137.482 87.5879C137.482 87.9004 137.551 88.1934 137.688 88.4668C137.831 88.7337 138.033 88.9518 138.293 89.1211C138.553 89.2839 138.856 89.3652 139.201 89.3652ZM143.371 90V84.4922C143.371 84.1081 143.446 83.7956 143.596 83.5547C143.745 83.3073 143.938 83.125 144.172 83.0078C144.406 82.8841 144.644 82.8223 144.885 82.8223C145.054 82.8223 145.207 82.8451 145.344 82.8906C145.48 82.9362 145.598 83.0013 145.695 83.0859V83.7891C145.598 83.724 145.48 83.6719 145.344 83.6328C145.207 83.5938 145.07 83.5775 144.934 83.584C144.693 83.5905 144.504 83.6686 144.367 83.8184C144.237 83.9616 144.172 84.2155 144.172 84.5801V90H143.371ZM142.6 85.8691V85.1172H145.598V85.8691H142.6ZM151.525 90.1465C151.109 90.1465 150.728 90.0423 150.383 89.834C150.038 89.6191 149.761 89.3229 149.553 88.9453C149.351 88.5677 149.25 88.1315 149.25 87.6367C149.25 87.0964 149.351 86.6309 149.553 86.2402C149.761 85.8496 150.044 85.5501 150.402 85.3418C150.76 85.127 151.161 85.0195 151.604 85.0195C151.883 85.0195 152.167 85.0879 152.453 85.2246C152.746 85.3548 152.997 85.5371 153.205 85.7715V85.1172H154.006V90H153.205V89.1699C153.036 89.4303 152.805 89.6582 152.512 89.8535C152.225 90.0488 151.896 90.1465 151.525 90.1465ZM151.652 89.3652C151.952 89.3652 152.219 89.2871 152.453 89.1309C152.688 88.9746 152.873 88.7598 153.01 88.4863C153.146 88.2064 153.212 87.8939 153.205 87.5488L153.195 86.6113C152.993 86.3574 152.775 86.1589 152.541 86.0156C152.313 85.8724 152.049 85.8008 151.75 85.8008C151.398 85.8008 151.099 85.8887 150.852 86.0645C150.604 86.2402 150.412 86.4681 150.275 86.748C150.145 87.0215 150.08 87.3177 150.08 87.6367C150.08 87.9492 150.145 88.2389 150.275 88.5059C150.406 88.7663 150.588 88.9746 150.822 89.1309C151.063 89.2871 151.34 89.3652 151.652 89.3652ZM155.666 90V82.9688H156.467V90H155.666ZM158.127 90V82.9688H158.928V90H158.127ZM165.441 90.0977C165.051 90.0977 164.699 90.013 164.387 89.8438C164.074 89.6745 163.827 89.4336 163.645 89.1211C163.462 88.8086 163.371 88.4375 163.371 88.0078V85.1172H164.201V88.0078C164.201 88.431 164.325 88.7565 164.572 88.9844C164.826 89.2057 165.116 89.3164 165.441 89.3164C165.767 89.3164 166.053 89.2057 166.301 88.9844C166.555 88.7565 166.682 88.431 166.682 88.0078V85.1172H167.512V88.0078C167.512 88.4375 167.421 88.8086 167.238 89.1211C167.056 89.4336 166.809 89.6745 166.496 89.8438C166.184 90.013 165.832 90.0977 165.441 90.0977ZM170.188 90.1465C169.999 90.1465 169.8 90.1204 169.592 90.0684C169.39 90.0228 169.208 89.9674 169.045 89.9023C168.882 89.8307 168.762 89.7689 168.684 89.7168V88.8574C168.775 88.9225 168.902 88.9974 169.064 89.082C169.234 89.1602 169.413 89.2285 169.602 89.2871C169.79 89.3392 169.966 89.3652 170.129 89.3652C170.435 89.3652 170.676 89.2969 170.852 89.1602C171.034 89.0234 171.125 88.8542 171.125 88.6523C171.125 88.4961 171.063 88.3724 170.939 88.2812C170.822 88.1901 170.65 88.1022 170.422 88.0176L169.699 87.7539C169.322 87.6107 169.071 87.4316 168.947 87.2168C168.824 86.9954 168.762 86.7448 168.762 86.4648C168.762 86.1849 168.83 85.9375 168.967 85.7227C169.11 85.5078 169.312 85.3385 169.572 85.2148C169.833 85.0846 170.135 85.0195 170.48 85.0195C170.767 85.0195 171.034 85.0618 171.281 85.1465C171.529 85.2246 171.708 85.306 171.818 85.3906V86.25C171.682 86.1458 171.496 86.0449 171.262 85.9473C171.027 85.8496 170.786 85.8008 170.539 85.8008C170.233 85.8008 170.002 85.8724 169.846 86.0156C169.696 86.1589 169.621 86.3086 169.621 86.4648C169.621 86.5885 169.663 86.7155 169.748 86.8457C169.839 86.9694 169.995 87.0703 170.217 87.1484L171.037 87.4414C171.356 87.5521 171.594 87.7116 171.75 87.9199C171.906 88.1283 171.984 88.3724 171.984 88.6523C171.984 88.9258 171.906 89.1764 171.75 89.4043C171.6 89.6322 171.389 89.8145 171.115 89.9512C170.848 90.0814 170.539 90.1465 170.188 90.1465ZM175.412 90.1465C175.041 90.1465 174.699 90.0814 174.387 89.9512C174.081 89.8145 173.811 89.6289 173.576 89.3945C173.348 89.1536 173.173 88.8802 173.049 88.5742C172.925 88.2617 172.863 87.9329 172.863 87.5879C172.863 87.1257 172.964 86.6992 173.166 86.3086C173.368 85.918 173.645 85.6055 173.996 85.3711C174.354 85.1367 174.761 85.0195 175.217 85.0195C175.718 85.0195 176.135 85.1237 176.467 85.332C176.799 85.5404 177.046 85.8236 177.209 86.1816C177.378 86.5397 177.463 86.9434 177.463 87.3926V87.8711H173.615V87.1875H176.672C176.639 86.8685 176.548 86.6081 176.398 86.4062C176.255 86.2044 176.079 86.0547 175.871 85.957C175.663 85.8529 175.445 85.8008 175.217 85.8008C174.904 85.8008 174.634 85.8854 174.406 86.0547C174.178 86.2174 174.003 86.4355 173.879 86.709C173.755 86.9759 173.693 87.2689 173.693 87.5879C173.693 87.9004 173.762 88.1934 173.898 88.4668C174.042 88.7337 174.243 88.9518 174.504 89.1211C174.764 89.2839 175.067 89.3652 175.412 89.3652C175.764 89.3652 176.089 89.2773 176.389 89.1016C176.695 88.9193 176.952 88.7207 177.16 88.5059V89.375C177.069 89.4857 176.932 89.6029 176.75 89.7266C176.574 89.8438 176.369 89.9414 176.135 90.0195C175.907 90.1042 175.666 90.1465 175.412 90.1465ZM178.781 90V85.1172H179.582V90H178.781ZM179.582 87.0508V86.0938C179.771 85.7682 179.999 85.5078 180.266 85.3125C180.533 85.1172 180.806 85.0195 181.086 85.0195C181.275 85.0195 181.444 85.0521 181.594 85.1172V86.0449C181.496 85.9863 181.395 85.9408 181.291 85.9082C181.187 85.8757 181.079 85.8594 180.969 85.8594C180.637 85.8594 180.367 85.9766 180.158 86.2109C179.956 86.4453 179.764 86.7253 179.582 87.0508ZM183.781 90.1465C183.592 90.1465 183.394 90.1204 183.186 90.0684C182.984 90.0228 182.801 89.9674 182.639 89.9023C182.476 89.8307 182.355 89.7689 182.277 89.7168V88.8574C182.368 88.9225 182.495 88.9974 182.658 89.082C182.827 89.1602 183.007 89.2285 183.195 89.2871C183.384 89.3392 183.56 89.3652 183.723 89.3652C184.029 89.3652 184.27 89.2969 184.445 89.1602C184.628 89.0234 184.719 88.8542 184.719 88.6523C184.719 88.4961 184.657 88.3724 184.533 88.2812C184.416 88.1901 184.243 88.1022 184.016 88.0176L183.293 87.7539C182.915 87.6107 182.665 87.4316 182.541 87.2168C182.417 86.9954 182.355 86.7448 182.355 86.4648C182.355 86.1849 182.424 85.9375 182.561 85.7227C182.704 85.5078 182.906 85.3385 183.166 85.2148C183.426 85.0846 183.729 85.0195 184.074 85.0195C184.361 85.0195 184.628 85.0618 184.875 85.1465C185.122 85.2246 185.301 85.306 185.412 85.3906V86.25C185.275 86.1458 185.09 86.0449 184.855 85.9473C184.621 85.8496 184.38 85.8008 184.133 85.8008C183.827 85.8008 183.596 85.8724 183.439 86.0156C183.29 86.1589 183.215 86.3086 183.215 86.4648C183.215 86.5885 183.257 86.7155 183.342 86.8457C183.433 86.9694 183.589 87.0703 183.811 87.1484L184.631 87.4414C184.95 87.5521 185.188 87.7116 185.344 87.9199C185.5 88.1283 185.578 88.3724 185.578 88.6523C185.578 88.9258 185.5 89.1764 185.344 89.4043C185.194 89.6322 184.982 89.8145 184.709 89.9512C184.442 90.0814 184.133 90.1465 183.781 90.1465Z" fill="#202021"/>
<line x1="28.5" y1="32.9966" x2="28.5" y2="106.003" stroke="#E1E1E3" stroke-width="2"/>
<line x1="28.5" y1="-0.0118408" x2="28.5" y2="21.012" stroke="#B0D182" stroke-width="2"/>
<circle cx="28" cy="26" r="5.5" stroke="#B0D182" stroke-width="3"/>
<circle cx="28" cy="57" r="5.5" fill="white" stroke="#E1E1E3" stroke-width="3"/>
<circle cx="28" cy="87" r="5.5" fill="white" stroke="#E1E1E3" stroke-width="3"/>
<circle cx="28" cy="26" r="2" fill="#B0D182"/>
</g>
<defs>
<clipPath id="clip0_30407_70882">
<path d="M0 12C0 5.37258 5.37258 0 12 0H232C238.627 0 244 5.37258 244 12V106H0V12Z" fill="white"/>
</clipPath>
</defs>
</svg>
