<svg width="302" height="117" viewBox="0 0 302 117" fill="none" xmlns="http://www.w3.org/2000/svg">
    <path d="M0 8C0 3.58172 3.58172 0 8 0H294C298.418 0 302 3.58172 302 8V117H0V8Z" fill="white"/>
    <rect x="155.5" y="75.5" width="128" height="32" rx="3.5" fill="white" stroke="#BEBBF3"/>
    <path d="M203.719 91.7695V92.7656H200.344V96H199.289V88.1484H204.422V89.1445H200.344V91.7695H203.719ZM207.398 87.5625V96H206.438V87.5625H207.398ZM211.805 90.0234C212.141 90.0234 212.48 90.1055 212.824 90.2695C213.176 90.4258 213.477 90.6445 213.727 90.9258V90.1406H214.688V96H213.727V95.0039C213.523 95.3164 213.246 95.5898 212.895 95.8242C212.551 96.0586 212.156 96.1758 211.711 96.1758C211.211 96.1758 210.754 96.0508 210.34 95.8008C209.926 95.543 209.594 95.1875 209.344 94.7344C209.102 94.2812 208.98 93.7578 208.98 93.1641C208.98 92.5156 209.102 91.957 209.344 91.4883C209.594 91.0195 209.934 90.6602 210.363 90.4102C210.793 90.1523 211.273 90.0234 211.805 90.0234ZM211.98 90.9609C211.559 90.9609 211.199 91.0664 210.902 91.2773C210.605 91.4883 210.375 91.7617 210.211 92.0977C210.055 92.4258 209.977 92.7812 209.977 93.1641C209.977 93.5391 210.055 93.8867 210.211 94.207C210.367 94.5195 210.586 94.7695 210.867 94.957C211.156 95.1445 211.488 95.2383 211.863 95.2383C212.223 95.2383 212.543 95.1445 212.824 94.957C213.105 94.7695 213.328 94.5117 213.492 94.1836C213.656 93.8477 213.734 93.4727 213.727 93.0586L213.715 91.9336C213.473 91.6289 213.211 91.3906 212.93 91.2188C212.656 91.0469 212.34 90.9609 211.98 90.9609ZM219.094 90.0234C219.43 90.0234 219.77 90.1055 220.113 90.2695C220.465 90.4258 220.766 90.6445 221.016 90.9258V90.1406H221.977V95.8828C221.977 96.5781 221.836 97.1562 221.555 97.6172C221.273 98.0781 220.898 98.4219 220.43 98.6484C219.961 98.875 219.449 98.9883 218.895 98.9883C218.535 98.9883 218.227 98.9453 217.969 98.8594C217.719 98.7812 217.504 98.6797 217.324 98.5547C217.145 98.4375 216.98 98.3242 216.832 98.2148V97.1836C216.949 97.2695 217.102 97.3789 217.289 97.5117C217.484 97.6523 217.715 97.7773 217.98 97.8867C218.254 97.9961 218.559 98.0508 218.895 98.0508C219.277 98.0508 219.629 97.9805 219.949 97.8398C220.27 97.6992 220.527 97.4922 220.723 97.2188C220.918 96.9453 221.016 96.6172 221.016 96.2344V95.0039C220.812 95.3164 220.535 95.5898 220.184 95.8242C219.84 96.0586 219.445 96.1758 219 96.1758C218.5 96.1758 218.043 96.0508 217.629 95.8008C217.215 95.543 216.883 95.1875 216.633 94.7344C216.391 94.2812 216.27 93.7578 216.27 93.1641C216.27 92.5156 216.391 91.957 216.633 91.4883C216.883 91.0195 217.223 90.6602 217.652 90.4102C218.082 90.1523 218.562 90.0234 219.094 90.0234ZM219.27 90.9727C218.848 90.9727 218.488 91.0781 218.191 91.2891C217.895 91.4922 217.664 91.7617 217.5 92.0977C217.344 92.4258 217.266 92.7812 217.266 93.1641C217.266 93.5391 217.344 93.8828 217.5 94.1953C217.656 94.5078 217.875 94.7578 218.156 94.9453C218.445 95.1328 218.777 95.2266 219.152 95.2266C219.512 95.2266 219.832 95.1328 220.113 94.9453C220.395 94.7578 220.617 94.5 220.781 94.1719C220.945 93.8438 221.023 93.4727 221.016 93.0586L221.004 91.9336C220.762 91.6289 220.5 91.3945 220.219 91.2305C219.945 91.0586 219.629 90.9727 219.27 90.9727ZM232.781 87.5625V96H231.82V95.0039C231.617 95.3164 231.34 95.5898 230.988 95.8242C230.645 96.0586 230.25 96.1758 229.805 96.1758C229.305 96.1758 228.848 96.0508 228.434 95.8008C228.02 95.543 227.688 95.1875 227.438 94.7344C227.195 94.2812 227.074 93.7578 227.074 93.1641C227.074 92.5156 227.195 91.957 227.438 91.4883C227.688 91.0195 228.027 90.6602 228.457 90.4102C228.887 90.1523 229.367 90.0234 229.898 90.0234C230.234 90.0234 230.574 90.1055 230.918 90.2695C231.27 90.4258 231.57 90.6445 231.82 90.9258V87.5625H232.781ZM230.074 90.9844C229.652 90.9844 229.293 91.0898 228.996 91.3008C228.699 91.5039 228.469 91.7695 228.305 92.0977C228.148 92.4258 228.07 92.7812 228.07 93.1641C228.07 93.5391 228.148 93.8867 228.305 94.207C228.461 94.5195 228.68 94.7695 228.961 94.957C229.25 95.1445 229.582 95.2383 229.957 95.2383C230.316 95.2383 230.637 95.1445 230.918 94.957C231.199 94.7695 231.422 94.5117 231.586 94.1836C231.75 93.8477 231.828 93.4727 231.82 93.0586L231.809 91.9336C231.566 91.6289 231.305 91.3945 231.023 91.2305C230.75 91.0664 230.434 90.9844 230.074 90.9844ZM235.711 87.3281C235.938 87.3281 236.125 87.4102 236.273 87.5742C236.43 87.7305 236.508 87.9141 236.508 88.125C236.508 88.3281 236.43 88.5117 236.273 88.6758C236.125 88.8398 235.938 88.9219 235.711 88.9219C235.484 88.9219 235.293 88.8398 235.137 88.6758C234.988 88.5117 234.914 88.3281 234.914 88.125C234.914 87.9141 234.988 87.7305 235.137 87.5742C235.293 87.4102 235.484 87.3281 235.711 87.3281ZM236.309 90.1406V96H235.348V91.043H234.422V90.1406H236.309ZM240.129 90.0234C240.473 90.0234 240.793 90.0742 241.09 90.1758C241.387 90.2695 241.602 90.3672 241.734 90.4688V91.5C241.57 91.375 241.348 91.2539 241.066 91.1367C240.785 91.0195 240.496 90.9609 240.199 90.9609C239.832 90.9609 239.555 91.0469 239.367 91.2188C239.188 91.3906 239.098 91.5703 239.098 91.7578C239.098 91.9062 239.148 92.0586 239.25 92.2148C239.359 92.3633 239.547 92.4844 239.812 92.5781L240.797 92.9297C241.18 93.0625 241.465 93.2539 241.652 93.5039C241.84 93.7539 241.934 94.0469 241.934 94.3828C241.934 94.7109 241.84 95.0117 241.652 95.2852C241.473 95.5586 241.219 95.7773 240.891 95.9414C240.57 96.0977 240.199 96.1758 239.777 96.1758C239.551 96.1758 239.312 96.1445 239.062 96.082C238.82 96.0273 238.602 95.9609 238.406 95.8828C238.211 95.7969 238.066 95.7227 237.973 95.6602V94.6289C238.082 94.707 238.234 94.7969 238.43 94.8984C238.633 94.9922 238.848 95.0742 239.074 95.1445C239.301 95.207 239.512 95.2383 239.707 95.2383C240.074 95.2383 240.363 95.1562 240.574 94.9922C240.793 94.8281 240.902 94.625 240.902 94.3828C240.902 94.1953 240.828 94.0469 240.68 93.9375C240.539 93.8281 240.332 93.7227 240.059 93.6211L239.191 93.3047C238.738 93.1328 238.438 92.918 238.289 92.6602C238.141 92.3945 238.066 92.0938 238.066 91.7578C238.066 91.2578 238.254 90.8438 238.629 90.5156C239.004 90.1875 239.504 90.0234 240.129 90.0234ZM245.812 90.0234C246.148 90.0234 246.488 90.1055 246.832 90.2695C247.184 90.4258 247.484 90.6445 247.734 90.9258V90.1406H248.695V96H247.734V95.0039C247.531 95.3164 247.254 95.5898 246.902 95.8242C246.559 96.0586 246.164 96.1758 245.719 96.1758C245.219 96.1758 244.762 96.0508 244.348 95.8008C243.934 95.543 243.602 95.1875 243.352 94.7344C243.109 94.2812 242.988 93.7578 242.988 93.1641C242.988 92.5156 243.109 91.957 243.352 91.4883C243.602 91.0195 243.941 90.6602 244.371 90.4102C244.801 90.1523 245.281 90.0234 245.812 90.0234ZM245.988 90.9609C245.566 90.9609 245.207 91.0664 244.91 91.2773C244.613 91.4883 244.383 91.7617 244.219 92.0977C244.062 92.4258 243.984 92.7812 243.984 93.1641C243.984 93.5391 244.062 93.8867 244.219 94.207C244.375 94.5195 244.594 94.7695 244.875 94.957C245.164 95.1445 245.496 95.2383 245.871 95.2383C246.23 95.2383 246.551 95.1445 246.832 94.957C247.113 94.7695 247.336 94.5117 247.5 94.1836C247.664 93.8477 247.742 93.4727 247.734 93.0586L247.723 91.9336C247.48 91.6289 247.219 91.3906 246.938 91.2188C246.664 91.0469 246.348 90.9609 245.988 90.9609ZM253.57 90.0234C254.109 90.0234 254.59 90.1523 255.012 90.4102C255.441 90.6602 255.777 91.0195 256.02 91.4883C256.27 91.957 256.395 92.5156 256.395 93.1641C256.395 93.7578 256.27 94.2812 256.02 94.7344C255.777 95.1875 255.449 95.543 255.035 95.8008C254.629 96.0508 254.172 96.1758 253.664 96.1758C253.219 96.1758 252.82 96.0586 252.469 95.8242C252.125 95.5898 251.852 95.3164 251.648 95.0039V96H250.688V87.5625H251.648V90.9258C251.898 90.6445 252.195 90.4258 252.539 90.2695C252.891 90.1055 253.234 90.0234 253.57 90.0234ZM253.395 90.9727C253.035 90.9727 252.719 91.0586 252.445 91.2305C252.172 91.3945 251.91 91.6289 251.66 91.9336L251.648 93.0586C251.648 93.4727 251.727 93.8438 251.883 94.1719C252.047 94.5 252.27 94.7578 252.551 94.9453C252.84 95.1328 253.16 95.2266 253.512 95.2266C253.895 95.2266 254.227 95.1328 254.508 94.9453C254.789 94.7578 255.008 94.5078 255.164 94.1953C255.32 93.8828 255.398 93.5391 255.398 93.1641C255.398 92.7812 255.316 92.4258 255.152 92.0977C254.996 91.7617 254.77 91.4922 254.473 91.2891C254.176 91.0781 253.816 90.9727 253.395 90.9727ZM258.938 87.5625V96H257.977V87.5625H258.938ZM263.344 90.0234C263.945 90.0234 264.445 90.1484 264.844 90.3984C265.242 90.6484 265.539 90.9883 265.734 91.418C265.938 91.8477 266.039 92.332 266.039 92.8711V93.4453H261.539C261.586 93.7734 261.699 94.0742 261.879 94.3477C262.059 94.6211 262.293 94.8398 262.582 95.0039C262.871 95.1602 263.203 95.2383 263.578 95.2383C264 95.2383 264.395 95.1328 264.762 94.9219C265.129 94.7031 265.438 94.4648 265.688 94.207L265.676 95.25C265.566 95.3828 265.402 95.5234 265.184 95.6719C264.973 95.8125 264.727 95.9297 264.445 96.0234C264.172 96.125 263.883 96.1758 263.578 96.1758C262.984 96.1758 262.457 96.0352 261.996 95.7539C261.535 95.4727 261.172 95.1016 260.906 94.6406C260.648 94.1719 260.52 93.6602 260.52 93.1055C260.52 92.5508 260.641 92.0391 260.883 91.5703C261.125 91.1016 261.457 90.7266 261.879 90.4453C262.309 90.1641 262.797 90.0234 263.344 90.0234ZM263.344 90.9609C262.859 90.9609 262.461 91.125 262.148 91.4531C261.836 91.7734 261.641 92.1641 261.562 92.625H265.09C265.051 92.2422 264.941 91.9297 264.762 91.6875C264.59 91.4453 264.379 91.2656 264.129 91.1484C263.879 91.0234 263.617 90.9609 263.344 90.9609ZM272.918 87.5625V96H271.957V95.0039C271.754 95.3164 271.477 95.5898 271.125 95.8242C270.781 96.0586 270.387 96.1758 269.941 96.1758C269.441 96.1758 268.984 96.0508 268.57 95.8008C268.156 95.543 267.824 95.1875 267.574 94.7344C267.332 94.2812 267.211 93.7578 267.211 93.1641C267.211 92.5156 267.332 91.957 267.574 91.4883C267.824 91.0195 268.164 90.6602 268.594 90.4102C269.023 90.1523 269.504 90.0234 270.035 90.0234C270.371 90.0234 270.711 90.1055 271.055 90.2695C271.406 90.4258 271.707 90.6445 271.957 90.9258V87.5625H272.918ZM270.211 90.9844C269.789 90.9844 269.43 91.0898 269.133 91.3008C268.836 91.5039 268.605 91.7695 268.441 92.0977C268.285 92.4258 268.207 92.7812 268.207 93.1641C268.207 93.5391 268.285 93.8867 268.441 94.207C268.598 94.5195 268.816 94.7695 269.098 94.957C269.387 95.1445 269.719 95.2383 270.094 95.2383C270.453 95.2383 270.773 95.1445 271.055 94.957C271.336 94.7695 271.559 94.5117 271.723 94.1836C271.887 93.8477 271.965 93.4727 271.957 93.0586L271.945 91.9336C271.703 91.6289 271.441 91.3945 271.16 91.2305C270.887 91.0664 270.57 90.9844 270.211 90.9844Z" fill="#202021"/>
    <g clip-path="url(#clip0_27010_9014)">
        <path d="M177.301 87.9997L177.635 89.6663H182.001V94.6663H179.201L178.868 92.9997H172.835V87.9997H177.301ZM178.668 86.333H171.168V100.5H172.835V94.6663H177.501L177.835 96.333H183.668V87.9997H179.001L178.668 86.333Z" fill="#817AFE"/>
    </g>
    <rect x="18.5" y="14.5" width="136" height="32" rx="3.5" fill="white" stroke="#BEBBF3"/>
    <path d="M34 31.638C34 32.5713 34.1417 33.4505 34.425 34.2755C34.7083 35.1005 35.1167 35.8463 35.65 36.513C35.8333 36.7463 35.925 37.0005 35.925 37.2755C35.925 37.5505 35.825 37.788 35.625 37.988C35.425 38.188 35.1833 38.2838 34.9 38.2755C34.6167 38.2672 34.3833 38.1463 34.2 37.913C33.5 37.0463 32.9583 36.0838 32.575 35.0255C32.1917 33.9672 32 32.838 32 31.638C32 30.438 32.1917 29.3047 32.575 28.238C32.9583 27.1713 33.5 26.213 34.2 25.363C34.3833 25.1297 34.6167 25.0088 34.9 25.0005C35.1833 24.9922 35.425 25.088 35.625 25.288C35.825 25.488 35.925 25.7255 35.925 26.0005C35.925 26.2755 35.8333 26.5297 35.65 26.763C35.1167 27.4463 34.7083 28.2005 34.425 29.0255C34.1417 29.8505 34 30.7213 34 31.638ZM38 31.638C38 32.0213 38.05 32.3838 38.15 32.7255C38.25 33.0672 38.3917 33.388 38.575 33.688C38.725 33.9213 38.7958 34.1797 38.7875 34.463C38.7792 34.7463 38.675 34.988 38.475 35.188C38.275 35.388 38.0333 35.4838 37.75 35.4755C37.4667 35.4672 37.25 35.3463 37.1 35.113C36.75 34.6297 36.4792 34.088 36.2875 33.488C36.0958 32.888 36 32.2713 36 31.638C36 30.988 36.0958 30.3672 36.2875 29.7755C36.4792 29.1838 36.75 28.6463 37.1 28.163C37.2667 27.9297 37.4875 27.813 37.7625 27.813C38.0375 27.813 38.275 27.913 38.475 28.113C38.675 28.313 38.7792 28.5505 38.7875 28.8255C38.7958 29.1005 38.725 29.3547 38.575 29.588C38.3917 29.888 38.25 30.2088 38.15 30.5505C38.05 30.8922 38 31.2547 38 31.638ZM42 33.638C41.45 33.638 40.9792 33.4422 40.5875 33.0505C40.1958 32.6588 40 32.188 40 31.638C40 31.088 40.1958 30.6172 40.5875 30.2255C40.9792 29.8338 41.45 29.638 42 29.638C42.55 29.638 43.0208 29.8338 43.4125 30.2255C43.8042 30.6172 44 31.088 44 31.638C44 32.188 43.8042 32.6588 43.4125 33.0505C43.0208 33.4422 42.55 33.638 42 33.638ZM46 31.638C46 31.2547 45.95 30.8922 45.85 30.5505C45.75 30.2088 45.6083 29.888 45.425 29.588C45.275 29.3547 45.2083 29.0963 45.225 28.813C45.2417 28.5297 45.35 28.288 45.55 28.088C45.75 27.888 45.9833 27.7922 46.25 27.8005C46.5167 27.8088 46.7333 27.9297 46.9 28.163C47.25 28.6463 47.5208 29.1838 47.7125 29.7755C47.9042 30.3672 48 30.988 48 31.638C48 32.2713 47.9042 32.888 47.7125 33.488C47.5208 34.088 47.25 34.6297 46.9 35.113C46.75 35.3463 46.5333 35.463 46.25 35.463C45.9667 35.463 45.725 35.363 45.525 35.163C45.325 34.963 45.2208 34.7255 45.2125 34.4505C45.2042 34.1755 45.275 33.9213 45.425 33.688C45.6083 33.388 45.75 33.0672 45.85 32.7255C45.95 32.3838 46 32.0213 46 31.638ZM50 31.638C50 30.7047 49.8583 29.8255 49.575 29.0005C49.2917 28.1755 48.8833 27.4297 48.35 26.763C48.1667 26.5297 48.0708 26.2755 48.0625 26.0005C48.0542 25.7255 48.15 25.488 48.35 25.288C48.55 25.088 48.7958 24.9922 49.0875 25.0005C49.3792 25.0088 49.6167 25.1297 49.8 25.363C50.5 26.213 51.0417 27.1713 51.425 28.238C51.8083 29.3047 52 30.438 52 31.638C52 32.838 51.8083 33.9672 51.425 35.0255C51.0417 36.0838 50.5 37.0463 49.8 37.913C49.6167 38.1463 49.3833 38.2672 49.1 38.2755C48.8167 38.2838 48.575 38.188 48.375 37.988C48.175 37.788 48.075 37.5505 48.075 37.2755C48.075 37.0005 48.1667 36.7463 48.35 36.513C48.8833 35.8297 49.2917 35.0755 49.575 34.2505C49.8583 33.4255 50 32.5547 50 31.638Z" fill="#6C65E5"/>
    <path d="M64.1875 27.0312C64.6484 27.0312 65.0273 27.0977 65.3242 27.2305C65.6289 27.3633 65.8945 27.5039 66.1211 27.6523V28.7422C65.9023 28.5781 65.6367 28.4258 65.3242 28.2852C65.0117 28.1367 64.6719 28.0625 64.3047 28.0625C64.0703 28.0625 63.8242 28.1055 63.5664 28.1914C63.3164 28.2695 63.1055 28.3984 62.9336 28.5781C62.7617 28.7578 62.6758 28.9883 62.6758 29.2695C62.6758 29.582 62.7891 29.8203 63.0156 29.9844C63.2422 30.1484 63.5156 30.3047 63.8359 30.4531L64.9141 30.9453C65.4531 31.1875 65.8594 31.457 66.1328 31.7539C66.4062 32.0508 66.543 32.4453 66.543 32.9375C66.543 33.3672 66.418 33.7461 66.168 34.0742C65.918 34.3945 65.5898 34.6484 65.1836 34.8359C64.7773 35.0234 64.332 35.1172 63.8477 35.1172C63.3945 35.1172 62.9766 35.0391 62.5938 34.8828C62.2109 34.7266 61.8789 34.5508 61.5977 34.3555V33.2656C61.9023 33.4766 62.25 33.668 62.6406 33.8398C63.0391 34.0039 63.4883 34.0859 63.9883 34.0859C64.3789 34.0859 64.7227 33.9883 65.0195 33.793C65.3164 33.5977 65.4648 33.3281 65.4648 32.9844C65.4648 32.7891 65.4023 32.6211 65.2773 32.4805C65.1602 32.3398 65.0156 32.2188 64.8438 32.1172C64.6719 32.0156 64.5039 31.9297 64.3398 31.8594L63.0391 31.2734C62.4766 31.0234 62.0938 30.7305 61.8906 30.3945C61.6875 30.0586 61.5859 29.6719 61.5859 29.2344C61.5859 28.8203 61.7031 28.4492 61.9375 28.1211C62.1797 27.7852 62.5 27.5195 62.8984 27.3242C63.2969 27.1289 63.7266 27.0312 64.1875 27.0312ZM69.0625 26.3281C69.2891 26.3281 69.4766 26.4102 69.625 26.5742C69.7812 26.7305 69.8594 26.9141 69.8594 27.125C69.8594 27.3281 69.7812 27.5117 69.625 27.6758C69.4766 27.8398 69.2891 27.9219 69.0625 27.9219C68.8359 27.9219 68.6445 27.8398 68.4883 27.6758C68.3398 27.5117 68.2656 27.3281 68.2656 27.125C68.2656 26.9141 68.3398 26.7305 68.4883 26.5742C68.6445 26.4102 68.8359 26.3281 69.0625 26.3281ZM69.6602 29.1406V35H68.6992V30.043H67.7734V29.1406H69.6602ZM74.1484 29.0234C74.4844 29.0234 74.8242 29.1055 75.168 29.2695C75.5195 29.4258 75.8203 29.6445 76.0703 29.9258V29.1406H77.0312V34.8828C77.0312 35.5781 76.8906 36.1562 76.6094 36.6172C76.3281 37.0781 75.9531 37.4219 75.4844 37.6484C75.0156 37.875 74.5039 37.9883 73.9492 37.9883C73.5898 37.9883 73.2812 37.9453 73.0234 37.8594C72.7734 37.7812 72.5586 37.6797 72.3789 37.5547C72.1992 37.4375 72.0352 37.3242 71.8867 37.2148V36.1836C72.0039 36.2695 72.1562 36.3789 72.3438 36.5117C72.5391 36.6523 72.7695 36.7773 73.0352 36.8867C73.3086 36.9961 73.6133 37.0508 73.9492 37.0508C74.332 37.0508 74.6836 36.9805 75.0039 36.8398C75.3242 36.6992 75.582 36.4922 75.7773 36.2188C75.9727 35.9453 76.0703 35.6172 76.0703 35.2344V34.0039C75.8672 34.3164 75.5898 34.5898 75.2383 34.8242C74.8945 35.0586 74.5 35.1758 74.0547 35.1758C73.5547 35.1758 73.0977 35.0508 72.6836 34.8008C72.2695 34.543 71.9375 34.1875 71.6875 33.7344C71.4453 33.2812 71.3242 32.7578 71.3242 32.1641C71.3242 31.5156 71.4453 30.957 71.6875 30.4883C71.9375 30.0195 72.2773 29.6602 72.707 29.4102C73.1367 29.1523 73.6172 29.0234 74.1484 29.0234ZM74.3242 29.9727C73.9023 29.9727 73.543 30.0781 73.2461 30.2891C72.9492 30.4922 72.7188 30.7617 72.5547 31.0977C72.3984 31.4258 72.3203 31.7812 72.3203 32.1641C72.3203 32.5391 72.3984 32.8828 72.5547 33.1953C72.7109 33.5078 72.9297 33.7578 73.2109 33.9453C73.5 34.1328 73.832 34.2266 74.207 34.2266C74.5664 34.2266 74.8867 34.1328 75.168 33.9453C75.4492 33.7578 75.6719 33.5 75.8359 33.1719C76 32.8438 76.0781 32.4727 76.0703 32.0586L76.0586 30.9336C75.8164 30.6289 75.5547 30.3945 75.2734 30.2305C75 30.0586 74.6836 29.9727 74.3242 29.9727ZM79.9844 29.1406V30.0664C80.1094 29.9102 80.2695 29.7539 80.4648 29.5977C80.6602 29.4336 80.8789 29.2969 81.1211 29.1875C81.3711 29.0781 81.6289 29.0234 81.8945 29.0234C82.293 29.0234 82.6562 29.1133 82.9844 29.293C83.3125 29.4648 83.5742 29.7305 83.7695 30.0898C83.9648 30.4414 84.0625 30.8867 84.0625 31.4258V35H83.1016L83.0898 31.5195C83.0898 31.0117 82.9766 30.625 82.75 30.3594C82.5312 30.0938 82.1914 29.9609 81.7305 29.9609C81.418 29.9609 81.1055 30.0781 80.793 30.3125C80.4883 30.5391 80.2188 30.8047 79.9844 31.1094V35H79.0234V29.1406H79.9844ZM88.293 29.0234C88.6289 29.0234 88.9688 29.1055 89.3125 29.2695C89.6641 29.4258 89.9648 29.6445 90.2148 29.9258V29.1406H91.1758V35H90.2148V34.0039C90.0117 34.3164 89.7344 34.5898 89.3828 34.8242C89.0391 35.0586 88.6445 35.1758 88.1992 35.1758C87.6992 35.1758 87.2422 35.0508 86.8281 34.8008C86.4141 34.543 86.082 34.1875 85.832 33.7344C85.5898 33.2812 85.4688 32.7578 85.4688 32.1641C85.4688 31.5156 85.5898 30.957 85.832 30.4883C86.082 30.0195 86.4219 29.6602 86.8516 29.4102C87.2812 29.1523 87.7617 29.0234 88.293 29.0234ZM88.4688 29.9609C88.0469 29.9609 87.6875 30.0664 87.3906 30.2773C87.0938 30.4883 86.8633 30.7617 86.6992 31.0977C86.543 31.4258 86.4648 31.7812 86.4648 32.1641C86.4648 32.5391 86.543 32.8867 86.6992 33.207C86.8555 33.5195 87.0742 33.7695 87.3555 33.957C87.6445 34.1445 87.9766 34.2383 88.3516 34.2383C88.7109 34.2383 89.0312 34.1445 89.3125 33.957C89.5938 33.7695 89.8164 33.5117 89.9805 33.1836C90.1445 32.8477 90.2227 32.4727 90.2148 32.0586L90.2031 30.9336C89.9609 30.6289 89.6992 30.3906 89.418 30.2188C89.1445 30.0469 88.8281 29.9609 88.4688 29.9609ZM94.1289 26.5625V35H93.168V26.5625H94.1289ZM100.598 29.1406V30.3125C100.824 29.9219 101.098 29.6094 101.418 29.375C101.738 29.1406 102.066 29.0234 102.402 29.0234C102.629 29.0234 102.832 29.0625 103.012 29.1406V30.2539C102.762 30.1055 102.512 30.0312 102.262 30.0312C101.863 30.0312 101.539 30.1719 101.289 30.4531C101.047 30.7344 100.816 31.0703 100.598 31.4609V35H99.6367V29.1406H100.598ZM106.656 29.0234C107.258 29.0234 107.758 29.1484 108.156 29.3984C108.555 29.6484 108.852 29.9883 109.047 30.418C109.25 30.8477 109.352 31.332 109.352 31.8711V32.4453H104.852C104.898 32.7734 105.012 33.0742 105.191 33.3477C105.371 33.6211 105.605 33.8398 105.895 34.0039C106.184 34.1602 106.516 34.2383 106.891 34.2383C107.312 34.2383 107.707 34.1328 108.074 33.9219C108.441 33.7031 108.75 33.4648 109 33.207L108.988 34.25C108.879 34.3828 108.715 34.5234 108.496 34.6719C108.285 34.8125 108.039 34.9297 107.758 35.0234C107.484 35.125 107.195 35.1758 106.891 35.1758C106.297 35.1758 105.77 35.0352 105.309 34.7539C104.848 34.4727 104.484 34.1016 104.219 33.6406C103.961 33.1719 103.832 32.6602 103.832 32.1055C103.832 31.5508 103.953 31.0391 104.195 30.5703C104.438 30.1016 104.77 29.7266 105.191 29.4453C105.621 29.1641 106.109 29.0234 106.656 29.0234ZM106.656 29.9609C106.172 29.9609 105.773 30.125 105.461 30.4531C105.148 30.7734 104.953 31.1641 104.875 31.625H108.402C108.363 31.2422 108.254 30.9297 108.074 30.6875C107.902 30.4453 107.691 30.2656 107.441 30.1484C107.191 30.0234 106.93 29.9609 106.656 29.9609ZM113.582 29.0234C114.012 29.0234 114.383 29.0938 114.695 29.2344C115.008 29.3672 115.223 29.4883 115.34 29.5977V30.5703C115.121 30.4062 114.871 30.2656 114.59 30.1484C114.309 30.0234 113.973 29.9609 113.582 29.9609C113.168 29.9609 112.805 30.0625 112.492 30.2656C112.18 30.4609 111.938 30.7227 111.766 31.0508C111.602 31.3711 111.52 31.7227 111.52 32.1055C111.52 32.4805 111.602 32.832 111.766 33.1602C111.938 33.4805 112.18 33.7422 112.492 33.9453C112.805 34.1406 113.168 34.2383 113.582 34.2383C113.973 34.2383 114.309 34.1797 114.59 34.0625C114.871 33.9375 115.121 33.793 115.34 33.6289V34.6016C115.223 34.7188 115.008 34.8438 114.695 34.9766C114.383 35.1094 114.012 35.1758 113.582 35.1758C112.988 35.1758 112.461 35.0352 112 34.7539C111.539 34.4727 111.176 34.1016 110.91 33.6406C110.652 33.1719 110.523 32.6602 110.523 32.1055C110.523 31.5508 110.652 31.0391 110.91 30.5703C111.176 30.1016 111.539 29.7266 112 29.4453C112.461 29.1641 112.988 29.0234 113.582 29.0234ZM119.336 29.0234C119.938 29.0234 120.438 29.1484 120.836 29.3984C121.234 29.6484 121.531 29.9883 121.727 30.418C121.93 30.8477 122.031 31.332 122.031 31.8711V32.4453H117.531C117.578 32.7734 117.691 33.0742 117.871 33.3477C118.051 33.6211 118.285 33.8398 118.574 34.0039C118.863 34.1602 119.195 34.2383 119.57 34.2383C119.992 34.2383 120.387 34.1328 120.754 33.9219C121.121 33.7031 121.43 33.4648 121.68 33.207L121.668 34.25C121.559 34.3828 121.395 34.5234 121.176 34.6719C120.965 34.8125 120.719 34.9297 120.438 35.0234C120.164 35.125 119.875 35.1758 119.57 35.1758C118.977 35.1758 118.449 35.0352 117.988 34.7539C117.527 34.4727 117.164 34.1016 116.898 33.6406C116.641 33.1719 116.512 32.6602 116.512 32.1055C116.512 31.5508 116.633 31.0391 116.875 30.5703C117.117 30.1016 117.449 29.7266 117.871 29.4453C118.301 29.1641 118.789 29.0234 119.336 29.0234ZM119.336 29.9609C118.852 29.9609 118.453 30.125 118.141 30.4531C117.828 30.7734 117.633 31.1641 117.555 31.625H121.082C121.043 31.2422 120.934 30.9297 120.754 30.6875C120.582 30.4453 120.371 30.2656 120.121 30.1484C119.871 30.0234 119.609 29.9609 119.336 29.9609ZM124.551 26.3281C124.777 26.3281 124.965 26.4102 125.113 26.5742C125.27 26.7305 125.348 26.9141 125.348 27.125C125.348 27.3281 125.27 27.5117 125.113 27.6758C124.965 27.8398 124.777 27.9219 124.551 27.9219C124.324 27.9219 124.133 27.8398 123.977 27.6758C123.828 27.5117 123.754 27.3281 123.754 27.125C123.754 26.9141 123.828 26.7305 123.977 26.5742C124.133 26.4102 124.324 26.3281 124.551 26.3281ZM125.148 29.1406V35H124.188V30.043H123.262V29.1406H125.148ZM132.391 29.1406L129.637 35H129.039L126.402 29.1406H127.551L129.32 33.4531L131.242 29.1406H132.391ZM135.859 29.0234C136.461 29.0234 136.961 29.1484 137.359 29.3984C137.758 29.6484 138.055 29.9883 138.25 30.418C138.453 30.8477 138.555 31.332 138.555 31.8711V32.4453H134.055C134.102 32.7734 134.215 33.0742 134.395 33.3477C134.574 33.6211 134.809 33.8398 135.098 34.0039C135.387 34.1602 135.719 34.2383 136.094 34.2383C136.516 34.2383 136.91 34.1328 137.277 33.9219C137.645 33.7031 137.953 33.4648 138.203 33.207L138.191 34.25C138.082 34.3828 137.918 34.5234 137.699 34.6719C137.488 34.8125 137.242 34.9297 136.961 35.0234C136.688 35.125 136.398 35.1758 136.094 35.1758C135.5 35.1758 134.973 35.0352 134.512 34.7539C134.051 34.4727 133.688 34.1016 133.422 33.6406C133.164 33.1719 133.035 32.6602 133.035 32.1055C133.035 31.5508 133.156 31.0391 133.398 30.5703C133.641 30.1016 133.973 29.7266 134.395 29.4453C134.824 29.1641 135.312 29.0234 135.859 29.0234ZM135.859 29.9609C135.375 29.9609 134.977 30.125 134.664 30.4531C134.352 30.7734 134.156 31.1641 134.078 31.625H137.605C137.566 31.2422 137.457 30.9297 137.277 30.6875C137.105 30.4453 136.895 30.2656 136.645 30.1484C136.395 30.0234 136.133 29.9609 135.859 29.9609ZM145.434 26.5625V35H144.473V34.0039C144.27 34.3164 143.992 34.5898 143.641 34.8242C143.297 35.0586 142.902 35.1758 142.457 35.1758C141.957 35.1758 141.5 35.0508 141.086 34.8008C140.672 34.543 140.34 34.1875 140.09 33.7344C139.848 33.2812 139.727 32.7578 139.727 32.1641C139.727 31.5156 139.848 30.957 140.09 30.4883C140.34 30.0195 140.68 29.6602 141.109 29.4102C141.539 29.1523 142.02 29.0234 142.551 29.0234C142.887 29.0234 143.227 29.1055 143.57 29.2695C143.922 29.4258 144.223 29.6445 144.473 29.9258V26.5625H145.434ZM142.727 29.9844C142.305 29.9844 141.945 30.0898 141.648 30.3008C141.352 30.5039 141.121 30.7695 140.957 31.0977C140.801 31.4258 140.723 31.7812 140.723 32.1641C140.723 32.5391 140.801 32.8867 140.957 33.207C141.113 33.5195 141.332 33.7695 141.613 33.957C141.902 34.1445 142.234 34.2383 142.609 34.2383C142.969 34.2383 143.289 34.1445 143.57 33.957C143.852 33.7695 144.074 33.5117 144.238 33.1836C144.402 32.8477 144.48 32.4727 144.473 32.0586L144.461 30.9336C144.219 30.6289 143.957 30.3945 143.676 30.2305C143.402 30.0664 143.086 29.9844 142.727 29.9844Z" fill="#202021"/>
    <rect x="18" y="59" width="266" height="4" fill="#D9D9D9"/>
    <circle cx="83" cy="62" r="7" fill="#6C65E5"/>
    <circle cx="216" cy="62" r="7" fill="#6C65E5"/>
    <line x1="83" y1="47" x2="83" y2="56" stroke="#6C65E5" stroke-width="2"/>
    <line x1="216" y1="66" x2="216" y2="75" stroke="#6C65E5" stroke-width="2"/>
    <defs>
        <clipPath id="clip0_27010_9014">
            <rect width="20" height="20" fill="white" transform="translate(167 83)"/>
        </clipPath>
    </defs>
</svg>
