<svg width="100%" height="100%" viewBox="0 0 622 318" fill="none" xmlns="http://www.w3.org/2000/svg">
<rect x=".5" y=".5" width="621" height="69" rx="2.5" stroke="#fff"/><path d="M273.959 32.035c.762 0 1.447.188 2.057.563a3.912 3.912 0 0 1 1.476 1.547c.375.656.563 1.43.563 2.32 0 .96-.188 1.804-.563 2.531a4.092 4.092 0 0 1-1.512 1.67c-.632.399-1.353.598-2.162.598-.504 0-1.019-.135-1.547-.405a4.66 4.66 0 0 1-1.335-1.037v5.397h-1.442V32.21h1.442v1.494a3.814 3.814 0 0 1 1.23-1.178 3.323 3.323 0 0 1 1.793-.492Zm-.229 1.406c-.527 0-1.007.135-1.441.405-.422.27-.756.644-1.002 1.125-.234.469-.351 1.02-.351 1.652l.017 1.688c.375.457.768.832 1.178 1.124.41.282.885.422 1.424.422.633 0 1.172-.164 1.617-.492.445-.328.785-.75 1.019-1.265.247-.528.37-1.073.37-1.635 0-.574-.118-1.084-.352-1.53a2.767 2.767 0 0 0-.984-1.09c-.422-.269-.92-.404-1.495-.404Zm8.139-1.23v1.758c.34-.586.75-1.055 1.231-1.407.48-.351.972-.527 1.476-.527.34 0 .645.059.914.176v1.67c-.375-.223-.75-.334-1.125-.334-.597 0-1.084.21-1.459.633a9.212 9.212 0 0 0-1.037 1.511V41h-1.441v-8.79h1.441Zm9.44-.176c.89 0 1.681.211 2.373.633.691.422 1.23.984 1.617 1.688.398.703.597 1.47.597 2.302 0 .832-.199 1.6-.597 2.303a4.514 4.514 0 0 1-1.617 1.67c-.692.422-1.483.633-2.373.633-.891 0-1.682-.211-2.373-.633a4.642 4.642 0 0 1-1.635-1.67 4.697 4.697 0 0 1-.58-2.303c0-.832.193-1.6.58-2.303a4.598 4.598 0 0 1 1.635-1.687c.691-.422 1.482-.633 2.373-.633Zm0 1.406c-.621 0-1.166.153-1.635.457a3.013 3.013 0 0 0-1.09 1.178 3.42 3.42 0 0 0-.369 1.582c0 .563.123 1.09.369 1.582.258.48.621.873 1.09 1.178.469.293 1.014.44 1.635.44.632 0 1.177-.147 1.634-.44a3.04 3.04 0 0 0 1.073-1.178c.257-.492.386-1.02.386-1.582 0-.574-.129-1.101-.386-1.582a2.886 2.886 0 0 0-1.073-1.178c-.457-.304-1.002-.457-1.634-.457Zm8.121-5.449c.34 0 .621.123.843.37.235.234.352.51.352.826 0 .304-.117.58-.352.826-.222.246-.503.369-.843.369-.34 0-.627-.123-.862-.37a1.204 1.204 0 0 1-.334-.826c0-.316.112-.591.334-.826.235-.246.522-.369.862-.369Zm.931 4.219v8.754c0 1.183-.275 2.138-.826 2.865-.539.727-1.271 1.277-2.197 1.652l-.65-1.3c.773-.375 1.335-.791 1.687-1.248.363-.457.545-1.043.545-1.758v-7.611h-1.389V32.21h2.83Zm6.61-.176c.902 0 1.652.188 2.25.563a3.46 3.46 0 0 1 1.336 1.529c.304.645.457 1.371.457 2.18v.861h-6.75c.07.492.24.943.509 1.354.27.41.622.738 1.055.984.434.234.932.351 1.494.351.633 0 1.225-.158 1.776-.474a6.7 6.7 0 0 0 1.388-1.073l-.017 1.565c-.164.2-.41.41-.739.633a4.609 4.609 0 0 1-1.107.527c-.41.153-.844.229-1.301.229-.89 0-1.681-.211-2.373-.633a4.658 4.658 0 0 1-1.635-1.67 4.708 4.708 0 0 1-.58-2.303c0-.832.182-1.6.545-2.303a4.445 4.445 0 0 1 1.494-1.687c.645-.422 1.377-.633 2.198-.633Zm0 1.406c-.727 0-1.325.246-1.793.739a3.223 3.223 0 0 0-.879 1.758h5.291c-.059-.575-.223-1.044-.492-1.407a2.413 2.413 0 0 0-.95-.808 2.598 2.598 0 0 0-1.177-.282Zm10.388-1.406c.645 0 1.202.106 1.67.317.469.199.791.38.967.545v1.459a5.185 5.185 0 0 0-1.125-.633c-.422-.188-.926-.282-1.512-.282-.621 0-1.166.153-1.634.457a3.013 3.013 0 0 0-1.09 1.178 3.42 3.42 0 0 0-.369 1.582c0 .563.123 1.09.369 1.582.258.48.621.873 1.09 1.178.468.293 1.013.44 1.634.44.586 0 1.09-.088 1.512-.264a5.775 5.775 0 0 0 1.125-.65v1.458c-.176.176-.498.364-.967.563-.468.2-1.025.299-1.67.299-.89 0-1.681-.211-2.373-.633a4.648 4.648 0 0 1-1.634-1.67 4.698 4.698 0 0 1-.581-2.303c0-.832.194-1.6.581-2.303a4.604 4.604 0 0 1 1.634-1.687c.692-.422 1.483-.633 2.373-.633Zm7.436-2.355v2.53h2.566v1.355h-2.566v5.15c0 .363.094.65.281.861.188.211.475.317.862.317.351 0 .644-.041.878-.123.235-.094.44-.194.616-.3v1.178a2.913 2.913 0 0 1-.756.44c-.258.117-.61.176-1.055.176-.75 0-1.318-.223-1.705-.668-.375-.457-.562-1.06-.562-1.81v-5.221h-1.688v-.422c.574-.258 1.055-.68 1.441-1.266.387-.598.727-1.33 1.02-2.197h.668ZM28.92 152.68v2.531h2.566v1.353H28.92v5.151c0 .363.094.65.281.861.188.211.475.317.861.317.352 0 .645-.041.88-.123.234-.094.439-.194.615-.299v1.177a2.895 2.895 0 0 1-.756.44c-.258.117-.61.176-1.055.176-.75 0-1.318-.223-1.705-.668-.375-.457-.563-1.061-.563-1.811v-5.221h-1.687v-.421c.574-.258 1.055-.68 1.441-1.266.387-.598.727-1.33 1.02-2.197h.668Zm12.375 2.531v5.203c0 .774-.164 1.441-.492 2.004a3.4 3.4 0 0 1-1.336 1.301c-.563.304-1.195.457-1.899.457-.703 0-1.336-.153-1.898-.457a3.4 3.4 0 0 1-1.336-1.301c-.328-.563-.492-1.23-.492-2.004v-5.203h1.494v5.203c0 .762.223 1.348.668 1.758.457.398.978.598 1.564.598.586 0 1.102-.2 1.547-.598.457-.41.686-.996.686-1.758v-5.203h1.494Zm4.166 0v1.758c.34-.586.75-1.055 1.23-1.407.48-.351.973-.527 1.477-.527.34 0 .645.059.914.176v1.67c-.375-.223-.75-.334-1.125-.334-.598 0-1.084.211-1.459.633a9.205 9.205 0 0 0-1.037 1.511V164H44.02v-8.789h1.44Zm6.908 0v1.389c.188-.235.428-.469.72-.704.294-.246.622-.451.985-.615a2.867 2.867 0 0 1 1.16-.246c.598 0 1.143.135 1.635.404.492.258.885.657 1.178 1.196.293.527.44 1.195.44 2.004V164h-1.442l-.018-5.221c0-.761-.17-1.341-.51-1.74-.328-.398-.837-.598-1.529-.598-.468 0-.937.176-1.406.528-.457.34-.861.738-1.213 1.195V164h-1.441v-8.789h1.441Zm12.463-.176c.902 0 1.652.188 2.25.563a3.452 3.452 0 0 1 1.336 1.529c.305.644.457 1.371.457 2.18v.861h-6.75c.07.492.24.943.51 1.353.27.411.62.739 1.055.985.433.234.931.351 1.494.351.632 0 1.224-.158 1.775-.474a6.706 6.706 0 0 0 1.389-1.072l-.018 1.564c-.164.199-.41.41-.738.633a4.596 4.596 0 0 1-1.108.527c-.41.153-.843.229-1.3.229-.891 0-1.682-.211-2.373-.633a4.653 4.653 0 0 1-1.635-1.67 4.701 4.701 0 0 1-.58-2.303c0-.832.181-1.599.545-2.303a4.435 4.435 0 0 1 1.494-1.687c.644-.422 1.377-.633 2.197-.633Zm0 1.406c-.726 0-1.324.247-1.793.739a3.222 3.222 0 0 0-.879 1.758h5.291c-.058-.575-.222-1.043-.492-1.407a2.404 2.404 0 0 0-.95-.808 2.595 2.595 0 0 0-1.177-.282Zm14.361-5.097V164h-1.441v-1.494a4.3 4.3 0 0 1-1.248 1.23c-.516.352-1.108.528-1.776.528-.75 0-1.435-.188-2.056-.563a4.28 4.28 0 0 1-1.494-1.599c-.364-.68-.545-1.465-.545-2.356 0-.973.181-1.81.545-2.514.375-.703.885-1.242 1.529-1.617a4.128 4.128 0 0 1 2.162-.58 3.53 3.53 0 0 1 1.53.369c.527.235.978.563 1.353.985v-5.045h1.441Zm-4.06 5.133c-.633 0-1.172.158-1.617.474a3.108 3.108 0 0 0-1.038 1.195 3.677 3.677 0 0 0-.351 1.6c0 .563.117 1.084.352 1.565.234.468.562.843.984 1.125.434.281.931.421 1.494.421.54 0 1.02-.14 1.441-.421a2.943 2.943 0 0 0 1.002-1.161 3.633 3.633 0 0 0 .352-1.687l-.018-1.688c-.363-.457-.755-.808-1.177-1.054-.41-.246-.885-.369-1.424-.369Zm16.295-1.442c.89 0 1.681.211 2.373.633.691.422 1.23.984 1.617 1.687.398.704.598 1.471.598 2.303 0 .832-.2 1.6-.598 2.303a4.513 4.513 0 0 1-1.617 1.67c-.692.422-1.483.633-2.373.633-.89 0-1.682-.211-2.373-.633a4.655 4.655 0 0 1-1.635-1.67 4.701 4.701 0 0 1-.58-2.303c0-.832.193-1.599.58-2.303a4.608 4.608 0 0 1 1.635-1.687c.691-.422 1.482-.633 2.373-.633Zm0 1.406c-.621 0-1.166.153-1.635.457a3.015 3.015 0 0 0-1.09 1.178 3.421 3.421 0 0 0-.369 1.582c0 .563.123 1.09.37 1.582a3.18 3.18 0 0 0 1.089 1.178c.469.293 1.014.439 1.635.439.633 0 1.178-.146 1.635-.439a3.04 3.04 0 0 0 1.072-1.178 3.358 3.358 0 0 0 .386-1.582c0-.574-.128-1.101-.386-1.582a2.889 2.889 0 0 0-1.073-1.178c-.456-.304-1.001-.457-1.634-.457Zm8.402-1.23v1.389c.188-.235.428-.469.721-.704.293-.246.621-.451.984-.615a2.868 2.868 0 0 1 1.16-.246c.598 0 1.143.135 1.635.404.492.258.885.657 1.178 1.196.293.527.439 1.195.439 2.004V164h-1.441l-.018-5.221c0-.761-.17-1.341-.509-1.74-.329-.398-.838-.598-1.53-.598-.469 0-.937.176-1.406.528a6.18 6.18 0 0 0-1.213 1.195V164H98.39v-8.789h1.441Zm15.522-4.219c.339 0 .621.123.843.369.235.235.352.51.352.827 0 .304-.117.58-.352.826a1.088 1.088 0 0 1-.843.369c-.34 0-.627-.123-.862-.369a1.205 1.205 0 0 1-.334-.826c0-.317.112-.592.334-.827.235-.246.522-.369.862-.369Zm.896 4.219V164h-1.441v-7.436h-1.389v-1.353h2.83Zm4.553 0v1.389c.187-.235.428-.469.72-.704.293-.246.622-.451.985-.615a2.868 2.868 0 0 1 1.16-.246c.598 0 1.143.135 1.635.404.492.258.885.657 1.178 1.196.292.527.439 1.195.439 2.004V164h-1.441l-.018-5.221c0-.761-.17-1.341-.51-1.74-.328-.398-.838-.598-1.529-.598-.469 0-.938.176-1.406.528-.457.34-.862.738-1.213 1.195V164h-1.442v-8.789h1.442Zm22.06-3.867V164h-1.441v-1.494a4.307 4.307 0 0 1-1.248 1.23c-.516.352-1.108.528-1.776.528-.75 0-1.435-.188-2.056-.563a4.28 4.28 0 0 1-1.494-1.599c-.364-.68-.545-1.465-.545-2.356 0-.973.181-1.81.545-2.514.375-.703.884-1.242 1.529-1.617a4.128 4.128 0 0 1 2.162-.58c.504 0 1.014.123 1.529.369a3.92 3.92 0 0 1 1.354.985v-5.045h1.441Zm-4.06 5.133c-.633 0-1.172.158-1.617.474a3.112 3.112 0 0 0-1.038 1.195 3.682 3.682 0 0 0-.351 1.6c0 .563.117 1.084.351 1.565.235.468.563.843.985 1.125.433.281.931.421 1.494.421.539 0 1.02-.14 1.441-.421a2.941 2.941 0 0 0 1.002-1.161 3.63 3.63 0 0 0 .352-1.687l-.018-1.688c-.363-.457-.756-.808-1.177-1.054-.411-.246-.885-.369-1.424-.369Zm10.67-1.442c.902 0 1.652.188 2.25.563a3.456 3.456 0 0 1 1.336 1.529c.304.644.457 1.371.457 2.18v.861h-6.75c.07.492.24.943.509 1.353.27.411.622.739 1.055.985.434.234.932.351 1.494.351.633 0 1.225-.158 1.776-.474a6.722 6.722 0 0 0 1.388-1.072l-.017 1.564c-.164.199-.41.41-.739.633a4.582 4.582 0 0 1-1.107.527c-.41.153-.844.229-1.301.229-.89 0-1.681-.211-2.373-.633a4.662 4.662 0 0 1-1.635-1.67 4.708 4.708 0 0 1-.58-2.303c0-.832.182-1.599.545-2.303a4.447 4.447 0 0 1 1.494-1.687c.645-.422 1.377-.633 2.198-.633Zm0 1.406c-.727 0-1.325.247-1.793.739a3.22 3.22 0 0 0-.879 1.758h5.291c-.059-.575-.223-1.043-.492-1.407a2.407 2.407 0 0 0-.95-.808 2.592 2.592 0 0 0-1.177-.282Zm14.168-1.23L159.508 164h-.897l-3.955-8.789h1.723l2.654 6.469 2.883-6.469h1.723ZM20.102 266.211v1.125a4.86 4.86 0 0 1 1.072-.879c.445-.281.967-.422 1.564-.422.633 0 1.225.153 1.776.457.55.293.972.738 1.265 1.336.41-.492.856-.914 1.336-1.266.48-.351 1.043-.527 1.688-.527.597 0 1.154.135 1.67.404.527.258.949.657 1.265 1.196.328.527.492 1.195.492 2.004V275h-1.44l-.018-5.221c0-.761-.2-1.341-.598-1.74-.387-.398-.926-.598-1.617-.598-.504 0-.944.159-1.319.475a8.07 8.07 0 0 0-1.072 1.107V275h-1.441l-.018-5.221c0-.761-.2-1.341-.598-1.74-.386-.398-.925-.598-1.617-.598-.48 0-.92.141-1.318.422a5.854 5.854 0 0 0-1.072 1.02V275H18.66v-8.789h1.442Zm15.345 0 3.076 6.469 2.989-6.469h1.722l-6.468 13.008h-1.67l2.513-4.746-3.884-8.262h1.722Zm19.371 0v1.353h-2.566V275H50.81v-7.436h-1.388v-1.353h1.389v-1.125c0-.691.134-1.254.404-1.688.27-.445.615-.773 1.037-.984.422-.223.85-.334 1.283-.334.598 0 1.084.158 1.46.475v1.265a2.242 2.242 0 0 0-.634-.281c-.246-.07-.492-.1-.738-.088-.433.012-.773.153-1.02.422-.234.258-.351.715-.351 1.371v.967h2.566Zm5.538-.176c.902 0 1.652.188 2.25.563a3.452 3.452 0 0 1 1.335 1.529c.305.644.457 1.371.457 2.18v.861h-6.75c.07.492.24.943.51 1.353.27.411.621.739 1.055.985.434.234.931.351 1.494.351.633 0 1.225-.158 1.775-.474a6.706 6.706 0 0 0 1.39-1.072l-.019 1.564c-.163.199-.41.41-.738.633a4.594 4.594 0 0 1-1.107.527 3.69 3.69 0 0 1-1.301.229c-.89 0-1.682-.211-2.373-.633a4.655 4.655 0 0 1-1.635-1.67 4.701 4.701 0 0 1-.58-2.303c0-.832.182-1.599.545-2.303a4.434 4.434 0 0 1 1.494-1.687c.645-.422 1.377-.633 2.197-.633Zm0 1.406c-.727 0-1.325.247-1.794.739a3.223 3.223 0 0 0-.878 1.758h5.29c-.058-.575-.222-1.043-.492-1.407a2.404 2.404 0 0 0-.949-.808 2.595 2.595 0 0 0-1.178-.282Zm10.037-1.406a3.53 3.53 0 0 1 1.529.369c.527.235.978.563 1.353.985v-1.178h1.442V275h-1.442v-1.494c-.304.469-.72.879-1.248 1.23-.515.352-1.107.528-1.775.528-.75 0-1.436-.188-2.057-.563a4.28 4.28 0 0 1-1.494-1.599c-.363-.68-.545-1.465-.545-2.356 0-.973.182-1.81.545-2.514.375-.703.885-1.242 1.53-1.617a4.128 4.128 0 0 1 2.162-.58Zm.263 1.406c-.633 0-1.172.159-1.617.475a3.213 3.213 0 0 0-1.037 1.23 3.677 3.677 0 0 0-.352 1.6c0 .563.118 1.084.352 1.565.234.468.563.843.984 1.125.434.281.932.421 1.495.421.538 0 1.019-.14 1.44-.421a2.943 2.943 0 0 0 1.003-1.161 3.633 3.633 0 0 0 .351-1.687l-.017-1.688a4.557 4.557 0 0 0-1.178-1.072c-.41-.258-.885-.387-1.424-.387Zm9.475-3.761v2.531h2.566v1.353h-2.566v5.151c0 .363.094.65.281.861.188.211.475.317.861.317.352 0 .645-.041.88-.123.234-.094.439-.194.615-.299v1.177a2.897 2.897 0 0 1-.756.44c-.258.117-.61.176-1.055.176-.75 0-1.318-.223-1.705-.668-.375-.457-.563-1.061-.563-1.811v-5.221h-1.687v-.421c.574-.258 1.055-.68 1.441-1.266.387-.598.727-1.33 1.02-2.197h.668Zm12.375 2.531v5.203c0 .774-.164 1.441-.492 2.004a3.4 3.4 0 0 1-1.336 1.301c-.563.304-1.196.457-1.899.457-.703 0-1.336-.153-1.898-.457a3.4 3.4 0 0 1-1.336-1.301c-.328-.563-.492-1.23-.492-2.004v-5.203h1.494v5.203c0 .762.222 1.348.668 1.758.457.398.978.598 1.564.598.586 0 1.102-.2 1.547-.598.457-.41.686-.996.686-1.758v-5.203h1.494Zm4.166 0v1.758c.34-.586.75-1.055 1.23-1.407.48-.351.973-.527 1.477-.527.34 0 .644.059.914.176v1.67c-.375-.223-.75-.334-1.125-.334-.598 0-1.084.211-1.459.633a9.192 9.192 0 0 0-1.037 1.511V275H95.23v-8.789h1.44Zm9.088-.176c.902 0 1.652.188 2.25.563a3.456 3.456 0 0 1 1.336 1.529c.304.644.457 1.371.457 2.18v.861h-6.75c.07.492.24.943.509 1.353.27.411.622.739 1.055.985.434.234.932.351 1.494.351.633 0 1.225-.158 1.776-.474a6.696 6.696 0 0 0 1.388-1.072l-.017 1.564c-.164.199-.41.41-.738.633a4.608 4.608 0 0 1-1.108.527c-.41.153-.844.229-1.301.229-.89 0-1.681-.211-2.373-.633a4.651 4.651 0 0 1-1.634-1.67 4.698 4.698 0 0 1-.581-2.303c0-.832.182-1.599.545-2.303a4.447 4.447 0 0 1 1.494-1.687c.645-.422 1.377-.633 2.198-.633Zm0 1.406c-.727 0-1.324.247-1.793.739a3.22 3.22 0 0 0-.879 1.758h5.291c-.059-.575-.223-1.043-.492-1.407a2.412 2.412 0 0 0-.949-.808 2.6 2.6 0 0 0-1.178-.282Zm14.115-3.761v2.531h2.566v1.353h-2.566v5.151c0 .363.094.65.281.861.188.211.475.317.862.317.351 0 .644-.041.878-.123.235-.094.44-.194.616-.299v1.177a2.915 2.915 0 0 1-.756.44c-.258.117-.61.176-1.055.176-.75 0-1.318-.223-1.705-.668-.375-.457-.562-1.061-.562-1.811v-5.221h-1.688v-.421c.574-.258 1.055-.68 1.442-1.266.386-.598.726-1.33 1.019-2.197h.668Zm9.158 2.355c.891 0 1.682.211 2.373.633a4.46 4.46 0 0 1 1.617 1.687c.399.704.598 1.471.598 2.303 0 .832-.199 1.6-.598 2.303a4.502 4.502 0 0 1-1.617 1.67c-.691.422-1.482.633-2.373.633-.89 0-1.681-.211-2.373-.633a4.662 4.662 0 0 1-1.635-1.67 4.708 4.708 0 0 1-.58-2.303c0-.832.194-1.599.58-2.303a4.616 4.616 0 0 1 1.635-1.687c.692-.422 1.483-.633 2.373-.633Zm0 1.406c-.621 0-1.166.153-1.635.457a3.012 3.012 0 0 0-1.089 1.178 3.41 3.41 0 0 0-.37 1.582c0 .563.123 1.09.37 1.582.257.481.621.873 1.089 1.178.469.293 1.014.439 1.635.439.633 0 1.178-.146 1.635-.439a3.037 3.037 0 0 0 1.072-1.178 3.356 3.356 0 0 0 .387-1.582c0-.574-.129-1.101-.387-1.582a2.885 2.885 0 0 0-1.072-1.178c-.457-.304-1.002-.457-1.635-.457Zm10.582-1.406c.504 0 1.014.123 1.53.369.527.235.978.563 1.353.985v-1.178h1.441v8.613c0 1.043-.21 1.91-.632 2.602a3.979 3.979 0 0 1-1.688 1.547 5.233 5.233 0 0 1-2.303.509c-.539 0-1.002-.064-1.388-.193a3.496 3.496 0 0 1-.967-.457c-.27-.176-.516-.346-.738-.51v-1.547c.175.129.404.293.685.493.293.211.639.398 1.037.562.41.164.867.246 1.371.246.575 0 1.102-.105 1.582-.316a2.759 2.759 0 0 0 1.161-.932c.293-.41.439-.902.439-1.476v-1.846a4.307 4.307 0 0 1-1.248 1.23c-.516.352-1.107.528-1.775.528-.75 0-1.436-.188-2.057-.563a4.28 4.28 0 0 1-1.494-1.599c-.363-.68-.545-1.465-.545-2.356 0-.973.182-1.81.545-2.514.375-.703.885-1.242 1.529-1.617a4.128 4.128 0 0 1 2.162-.58Zm.264 1.424c-.633 0-1.172.158-1.617.475a3.067 3.067 0 0 0-1.037 1.212 3.669 3.669 0 0 0-.352 1.6c0 .563.117 1.078.352 1.547.234.469.562.844.984 1.125.434.281.932.422 1.494.422.539 0 1.02-.141 1.442-.422a2.944 2.944 0 0 0 1.001-1.16c.247-.492.364-1.049.352-1.67l-.018-1.688c-.363-.457-.755-.808-1.177-1.054-.41-.258-.885-.387-1.424-.387Zm10.67-1.424a3.53 3.53 0 0 1 1.529.369c.527.235.979.563 1.354.985v-1.178h1.441v8.613c0 1.043-.211 1.91-.633 2.602a3.977 3.977 0 0 1-1.687 1.547 5.233 5.233 0 0 1-2.303.509c-.539 0-1.002-.064-1.389-.193a3.49 3.49 0 0 1-.966-.457c-.27-.176-.516-.346-.739-.51v-1.547c.176.129.405.293.686.493.293.211.638.398 1.037.562.41.164.867.246 1.371.246a3.89 3.89 0 0 0 1.582-.316c.48-.211.867-.522 1.16-.932.293-.41.44-.902.44-1.476v-1.846a4.307 4.307 0 0 1-1.248 1.23c-.516.352-1.108.528-1.776.528-.75 0-1.435-.188-2.056-.563a4.275 4.275 0 0 1-1.495-1.599c-.363-.68-.545-1.465-.545-2.356 0-.973.182-1.81.545-2.514.375-.703.885-1.242 1.53-1.617a4.126 4.126 0 0 1 2.162-.58Zm.263 1.424c-.632 0-1.171.158-1.617.475a3.075 3.075 0 0 0-1.037 1.212 3.682 3.682 0 0 0-.351 1.6c0 .563.117 1.078.351 1.547.235.469.563.844.985 1.125.433.281.931.422 1.494.422a2.54 2.54 0 0 0 1.441-.422 2.938 2.938 0 0 0 1.002-1.16c.246-.492.363-1.049.352-1.67l-.018-1.688c-.363-.457-.756-.808-1.178-1.054-.41-.258-.884-.387-1.424-.387Zm8.491-5.115V275h-1.442v-12.656h1.442Zm6.609 3.691c.902 0 1.652.188 2.25.563a3.45 3.45 0 0 1 1.336 1.529c.305.644.457 1.371.457 2.18v.861h-6.75c.07.492.24.943.51 1.353.269.411.621.739 1.055.985.433.234.931.351 1.494.351a3.51 3.51 0 0 0 1.775-.474 6.703 6.703 0 0 0 1.389-1.072l-.018 1.564c-.164.199-.41.41-.738.633a4.608 4.608 0 0 1-1.108.527c-.41.153-.843.229-1.3.229-.891 0-1.682-.211-2.373-.633a4.646 4.646 0 0 1-1.635-1.67 4.698 4.698 0 0 1-.58-2.303c0-.832.181-1.599.545-2.303a4.43 4.43 0 0 1 1.494-1.687c.644-.422 1.377-.633 2.197-.633Zm0 1.406c-.726 0-1.324.247-1.793.739a3.22 3.22 0 0 0-.879 1.758h5.291c-.058-.575-.222-1.043-.492-1.407a2.405 2.405 0 0 0-.949-.808 2.597 2.597 0 0 0-1.178-.282Zm-110.11 20.594c.598 0 1.143.135 1.636.404.492.258.884.657 1.177 1.196.293.527.44 1.195.44 2.004V297h-1.442l-.017-5.221c0-.761-.17-1.341-.51-1.74-.328-.398-.838-.598-1.53-.598-.468 0-.937.176-1.406.528-.457.34-.86.738-1.212 1.195V297h-1.442v-12.656h1.441v5.256c.188-.235.428-.469.721-.704.293-.246.621-.451.985-.615a2.867 2.867 0 0 1 1.16-.246Zm9.598 0a3.53 3.53 0 0 1 1.53.369c.527.235.978.563 1.353.985v-1.178h1.442V297h-1.442v-1.494a4.3 4.3 0 0 1-1.248 1.23c-.516.352-1.107.528-1.775.528-.75 0-1.436-.188-2.057-.563a4.28 4.28 0 0 1-1.494-1.599c-.363-.68-.545-1.465-.545-2.356 0-.973.182-1.81.545-2.514.375-.703.885-1.242 1.53-1.617a4.128 4.128 0 0 1 2.161-.58Zm.264 1.406c-.633 0-1.172.159-1.617.475a3.213 3.213 0 0 0-1.037 1.23 3.677 3.677 0 0 0-.352 1.6c0 .563.117 1.084.352 1.565.234.468.562.843.984 1.125.434.281.932.421 1.494.421.54 0 1.02-.14 1.442-.421a2.943 2.943 0 0 0 1.002-1.161 3.633 3.633 0 0 0 .351-1.687l-.017-1.688a4.557 4.557 0 0 0-1.178-1.072c-.41-.258-.885-.387-1.424-.387Zm9.668-1.406c.516 0 .996.076 1.441.229.446.14.768.287.967.439v1.547c-.246-.188-.58-.369-1.002-.545a3.348 3.348 0 0 0-1.3-.264c-.551 0-.967.129-1.249.387-.27.258-.404.527-.404.809 0 .222.076.451.229.685.164.223.445.405.843.545l1.477.528c.574.199 1.002.486 1.283.861.281.375.422.814.422 1.318 0 .492-.14.944-.422 1.354-.27.41-.65.738-1.142.984-.48.234-1.037.352-1.67.352-.34 0-.698-.047-1.073-.141a6.542 6.542 0 0 1-.984-.299 4.53 4.53 0 0 1-.65-.334v-1.547c.164.118.392.252.685.405.305.14.627.263.967.369.34.094.656.14.95.14.55 0 .984-.123 1.3-.369.328-.246.492-.55.492-.914a.786.786 0 0 0-.334-.668c-.21-.164-.521-.322-.931-.474l-1.301-.475c-.68-.258-1.131-.58-1.354-.967a2.723 2.723 0 0 1-.334-1.353c0-.75.281-1.371.844-1.864.563-.492 1.313-.738 2.25-.738Zm13.799 0a3.53 3.53 0 0 1 1.53.369c.526.235.978.563 1.353.985v-1.178h1.441V297h-1.441v-1.494c-.305.469-.721.879-1.248 1.23-.516.352-1.108.528-1.776.528-.75 0-1.435-.188-2.056-.563a4.28 4.28 0 0 1-1.495-1.599c-.363-.68-.544-1.465-.544-2.356 0-.973.181-1.81.544-2.514.376-.703.885-1.242 1.53-1.617a4.128 4.128 0 0 1 2.162-.58Zm.263 1.406c-.632 0-1.171.159-1.617.475a3.213 3.213 0 0 0-1.037 1.23 3.679 3.679 0 0 0-.351 1.6c0 .563.117 1.084.351 1.565.235.468.563.843.985 1.125.433.281.931.421 1.494.421.539 0 1.02-.14 1.441-.421a2.943 2.943 0 0 0 1.002-1.161 3.633 3.633 0 0 0 .352-1.687l-.018-1.688a4.559 4.559 0 0 0-1.178-1.072c-.41-.258-.884-.387-1.424-.387Zm11.022-1.406c.645 0 1.201.106 1.67.317.469.199.791.38.967.544v1.459a5.158 5.158 0 0 0-1.125-.632c-.422-.188-.926-.282-1.512-.282-.621 0-1.166.153-1.635.457a3.015 3.015 0 0 0-1.09 1.178 3.421 3.421 0 0 0-.369 1.582c0 .563.123 1.09.37 1.582a3.18 3.18 0 0 0 1.09 1.178c.468.293 1.013.439 1.634.439.586 0 1.09-.087 1.512-.263a5.802 5.802 0 0 0 1.125-.651v1.459c-.176.176-.498.364-.967.563-.469.199-1.025.299-1.67.299-.89 0-1.682-.211-2.373-.633a4.654 4.654 0 0 1-1.635-1.67 4.701 4.701 0 0 1-.58-2.303c0-.832.194-1.599.58-2.303a4.607 4.607 0 0 1 1.635-1.687c.691-.422 1.482-.633 2.373-.633Zm8.982 0c.645 0 1.202.106 1.67.317.469.199.791.38.967.544v1.459a5.158 5.158 0 0 0-1.125-.632c-.422-.188-.926-.282-1.512-.282-.621 0-1.166.153-1.634.457a3.015 3.015 0 0 0-1.09 1.178 3.422 3.422 0 0 0-.369 1.582c0 .563.123 1.09.369 1.582a3.18 3.18 0 0 0 1.09 1.178c.468.293 1.013.439 1.634.439.586 0 1.09-.087 1.512-.263a5.802 5.802 0 0 0 1.125-.651v1.459c-.176.176-.498.364-.967.563-.468.199-1.025.299-1.67.299-.89 0-1.681-.211-2.373-.633a4.651 4.651 0 0 1-1.634-1.67 4.698 4.698 0 0 1-.58-2.303 4.7 4.7 0 0 1 .58-2.303 4.605 4.605 0 0 1 1.634-1.687c.692-.422 1.483-.633 2.373-.633Zm8.631 0c.903 0 1.653.188 2.25.563a3.45 3.45 0 0 1 1.336 1.529c.305.644.457 1.371.457 2.18v.861h-6.75c.071.492.24.943.51 1.353.27.411.621.739 1.055.985.433.234.931.351 1.494.351.633 0 1.224-.158 1.775-.474a6.703 6.703 0 0 0 1.389-1.072l-.018 1.564c-.164.199-.41.41-.738.633a4.582 4.582 0 0 1-1.107.527 3.696 3.696 0 0 1-1.301.229c-.891 0-1.682-.211-2.373-.633a4.646 4.646 0 0 1-1.635-1.67 4.698 4.698 0 0 1-.58-2.303c0-.832.182-1.599.545-2.303a4.43 4.43 0 0 1 1.494-1.687c.645-.422 1.377-.633 2.197-.633Zm0 1.406c-.726 0-1.324.247-1.793.739a3.233 3.233 0 0 0-.879 1.758h5.291c-.058-.575-.222-1.043-.492-1.407a2.405 2.405 0 0 0-.949-.808 2.597 2.597 0 0 0-1.178-.282Zm9.035-1.406c.516 0 .997.076 1.442.229.445.14.767.287.967.439v1.547c-.246-.188-.58-.369-1.002-.545a3.35 3.35 0 0 0-1.301-.264c-.551 0-.967.129-1.248.387-.27.258-.404.527-.404.809 0 .222.076.451.228.685.164.223.445.405.844.545l1.476.528c.575.199 1.002.486 1.284.861.281.375.421.814.421 1.318 0 .492-.14.944-.421 1.354-.27.41-.651.738-1.143.984-.48.234-1.037.352-1.67.352-.34 0-.697-.047-1.072-.141a6.561 6.561 0 0 1-.985-.299 4.595 4.595 0 0 1-.65-.334v-1.547c.164.118.393.252.686.405.304.14.627.263.966.369.34.094.657.14.95.14.55 0 .984-.123 1.3-.369.329-.246.493-.55.493-.914a.788.788 0 0 0-.334-.668c-.211-.164-.522-.322-.932-.474l-1.301-.475c-.679-.258-1.131-.58-1.353-.967a2.72 2.72 0 0 1-.334-1.353c0-.75.281-1.371.843-1.864.563-.492 1.313-.738 2.25-.738Zm7.524 0c.516 0 .996.076 1.441.229.446.14.768.287.967.439v1.547c-.246-.188-.58-.369-1.002-.545a3.347 3.347 0 0 0-1.301-.264c-.55 0-.966.129-1.248.387-.269.258-.404.527-.404.809 0 .222.076.451.229.685.164.223.445.405.843.545l1.477.528c.574.199 1.002.486 1.283.861.281.375.422.814.422 1.318 0 .492-.141.944-.422 1.354-.269.41-.65.738-1.143.984-.48.234-1.037.352-1.669.352-.34 0-.698-.047-1.073-.141a6.547 6.547 0 0 1-.984-.299 4.484 4.484 0 0 1-.65-.334v-1.547c.164.118.392.252.685.405.305.14.627.263.967.369.34.094.656.14.949.14.551 0 .984-.123 1.301-.369.328-.246.492-.55.492-.914a.786.786 0 0 0-.334-.668c-.211-.164-.521-.322-.932-.474l-1.3-.475c-.68-.258-1.131-.58-1.354-.967a2.72 2.72 0 0 1-.334-1.353c0-.75.281-1.371.844-1.864.562-.492 1.312-.738 2.25-.738ZM230.102 266.211v1.125a4.846 4.846 0 0 1 1.072-.879c.445-.281.967-.422 1.564-.422a3.62 3.62 0 0 1 1.776.457c.55.293.972.738 1.265 1.336.41-.492.856-.914 1.336-1.266.481-.351 1.043-.527 1.688-.527a3.56 3.56 0 0 1 1.67.404c.527.258.949.657 1.265 1.196.328.527.492 1.195.492 2.004V275h-1.441l-.018-5.221c0-.761-.199-1.341-.597-1.74-.387-.398-.926-.598-1.617-.598-.504 0-.944.159-1.319.475a8.075 8.075 0 0 0-1.072 1.107V275h-1.441l-.018-5.221c0-.761-.199-1.341-.598-1.74-.386-.398-.925-.598-1.617-.598-.48 0-.92.141-1.318.422a5.84 5.84 0 0 0-1.072 1.02V275h-1.442v-8.789h1.442Zm15.345 0 3.076 6.469 2.989-6.469h1.722l-6.468 13.008h-1.67l2.513-4.746-3.884-8.262h1.722Zm19.371 0v1.353h-2.566V275h-1.441v-7.436h-1.389v-1.353h1.389v-1.125c0-.691.134-1.254.404-1.688a2.527 2.527 0 0 1 1.037-.984 2.72 2.72 0 0 1 1.283-.334c.598 0 1.084.158 1.459.475v1.265a2.249 2.249 0 0 0-.633-.281c-.246-.07-.492-.1-.738-.088-.434.012-.773.153-1.019.422-.235.258-.352.715-.352 1.371v.967h2.566Zm5.537-.176c.903 0 1.653.188 2.25.563a3.45 3.45 0 0 1 1.336 1.529c.305.644.457 1.371.457 2.18v.861h-6.75c.071.492.241.943.51 1.353.27.411.621.739 1.055.985.433.234.932.351 1.494.351.633 0 1.225-.158 1.775-.474a6.703 6.703 0 0 0 1.389-1.072l-.017 1.564c-.165.199-.411.41-.739.633a4.582 4.582 0 0 1-1.107.527c-.41.153-.844.229-1.301.229-.891 0-1.682-.211-2.373-.633a4.662 4.662 0 0 1-1.635-1.67 4.698 4.698 0 0 1-.58-2.303c0-.832.182-1.599.545-2.303a4.43 4.43 0 0 1 1.494-1.687c.645-.422 1.377-.633 2.197-.633Zm0 1.406c-.726 0-1.324.247-1.793.739a3.225 3.225 0 0 0-.878 1.758h5.291c-.059-.575-.223-1.043-.493-1.407a2.398 2.398 0 0 0-.949-.808 2.593 2.593 0 0 0-1.178-.282Zm10.038-1.406c.503 0 1.013.123 1.529.369.527.235.978.563 1.353.985v-1.178h1.442V275h-1.442v-1.494c-.304.469-.72.879-1.248 1.23-.515.352-1.107.528-1.775.528-.75 0-1.436-.188-2.057-.563a4.28 4.28 0 0 1-1.494-1.599c-.363-.68-.545-1.465-.545-2.356 0-.973.182-1.81.545-2.514.375-.703.885-1.242 1.529-1.617a4.132 4.132 0 0 1 2.163-.58Zm.263 1.406c-.633 0-1.172.159-1.617.475a3.215 3.215 0 0 0-1.037 1.23 3.683 3.683 0 0 0-.352 1.6c0 .563.118 1.084.352 1.565.234.468.562.843.984 1.125.434.281.932.421 1.494.421.54 0 1.02-.14 1.442-.421a2.941 2.941 0 0 0 1.002-1.161 3.63 3.63 0 0 0 .351-1.687l-.017-1.688a4.552 4.552 0 0 0-1.178-1.072c-.41-.258-.885-.387-1.424-.387Zm9.475-3.761v2.531h2.566v1.353h-2.566v5.151c0 .363.094.65.281.861.188.211.475.317.861.317.352 0 .645-.041.879-.123.235-.094.44-.194.616-.299v1.177a2.915 2.915 0 0 1-.756.44c-.258.117-.61.176-1.055.176-.75 0-1.318-.223-1.705-.668-.375-.457-.563-1.061-.563-1.811v-5.221h-1.687v-.421c.574-.258 1.055-.68 1.441-1.266.387-.598.727-1.33 1.02-2.197h.668Zm12.375 2.531v5.203c0 .774-.164 1.441-.492 2.004a3.402 3.402 0 0 1-1.336 1.301c-.563.304-1.196.457-1.899.457-.703 0-1.336-.153-1.898-.457a3.395 3.395 0 0 1-1.336-1.301c-.328-.563-.492-1.23-.492-2.004v-5.203h1.494v5.203c0 .762.223 1.348.668 1.758.457.398.978.598 1.564.598.586 0 1.102-.2 1.547-.598.457-.41.686-.996.686-1.758v-5.203h1.494Zm4.166 0v1.758c.34-.586.75-1.055 1.23-1.407.481-.351.973-.527 1.477-.527.34 0 .644.059.914.176v1.67c-.375-.223-.75-.334-1.125-.334-.598 0-1.084.211-1.459.633a9.204 9.204 0 0 0-1.037 1.511V275h-1.442v-8.789h1.442Zm9.088-.176c.902 0 1.652.188 2.25.563a3.456 3.456 0 0 1 1.336 1.529c.304.644.457 1.371.457 2.18v.861h-6.75c.07.492.24.943.509 1.353.27.411.622.739 1.055.985.434.234.932.351 1.494.351.633 0 1.225-.158 1.776-.474a6.696 6.696 0 0 0 1.388-1.072l-.017 1.564c-.164.199-.41.41-.738.633a4.608 4.608 0 0 1-1.108.527c-.41.153-.844.229-1.301.229-.89 0-1.681-.211-2.373-.633a4.651 4.651 0 0 1-1.634-1.67 4.698 4.698 0 0 1-.581-2.303c0-.832.182-1.599.545-2.303a4.447 4.447 0 0 1 1.494-1.687c.645-.422 1.377-.633 2.198-.633Zm0 1.406c-.727 0-1.324.247-1.793.739a3.22 3.22 0 0 0-.879 1.758h5.291c-.059-.575-.223-1.043-.492-1.407a2.412 2.412 0 0 0-.949-.808 2.6 2.6 0 0 0-1.178-.282Zm14.115-3.761v2.531h2.566v1.353h-2.566v5.151c0 .363.094.65.281.861.188.211.475.317.862.317.351 0 .644-.041.878-.123.235-.094.44-.194.616-.299v1.177a2.915 2.915 0 0 1-.756.44c-.258.117-.61.176-1.055.176-.75 0-1.318-.223-1.705-.668-.375-.457-.562-1.061-.562-1.811v-5.221h-1.688v-.421c.574-.258 1.055-.68 1.442-1.266.386-.598.726-1.33 1.019-2.197h.668Zm9.158 2.355c.891 0 1.682.211 2.373.633a4.46 4.46 0 0 1 1.617 1.687c.399.704.598 1.471.598 2.303 0 .832-.199 1.6-.598 2.303a4.502 4.502 0 0 1-1.617 1.67c-.691.422-1.482.633-2.373.633-.89 0-1.681-.211-2.373-.633a4.662 4.662 0 0 1-1.635-1.67 4.708 4.708 0 0 1-.58-2.303c0-.832.194-1.599.58-2.303a4.616 4.616 0 0 1 1.635-1.687c.692-.422 1.483-.633 2.373-.633Zm0 1.406c-.621 0-1.166.153-1.635.457a3.012 3.012 0 0 0-1.089 1.178 3.41 3.41 0 0 0-.37 1.582c0 .563.123 1.09.37 1.582.257.481.621.873 1.089 1.178.469.293 1.014.439 1.635.439.633 0 1.178-.146 1.635-.439a3.037 3.037 0 0 0 1.072-1.178 3.356 3.356 0 0 0 .387-1.582c0-.574-.129-1.101-.387-1.582a2.885 2.885 0 0 0-1.072-1.178c-.457-.304-1.002-.457-1.635-.457Zm10.582-1.406c.504 0 1.014.123 1.53.369.527.235.978.563 1.353.985v-1.178h1.441v8.613c0 1.043-.21 1.91-.632 2.602a3.979 3.979 0 0 1-1.688 1.547 5.233 5.233 0 0 1-2.303.509c-.539 0-1.002-.064-1.388-.193a3.496 3.496 0 0 1-.967-.457c-.27-.176-.516-.346-.738-.51v-1.547c.175.129.404.293.685.493.293.211.639.398 1.037.562.41.164.867.246 1.371.246.575 0 1.102-.105 1.582-.316a2.759 2.759 0 0 0 1.161-.932c.293-.41.439-.902.439-1.476v-1.846a4.307 4.307 0 0 1-1.248 1.23c-.516.352-1.107.528-1.775.528-.75 0-1.436-.188-2.057-.563a4.28 4.28 0 0 1-1.494-1.599c-.363-.68-.545-1.465-.545-2.356 0-.973.182-1.81.545-2.514.375-.703.885-1.242 1.529-1.617a4.128 4.128 0 0 1 2.162-.58Zm.264 1.424c-.633 0-1.172.158-1.617.475a3.067 3.067 0 0 0-1.037 1.212 3.669 3.669 0 0 0-.352 1.6c0 .563.117 1.078.352 1.547.234.469.562.844.984 1.125.434.281.932.422 1.494.422.539 0 1.02-.141 1.442-.422a2.944 2.944 0 0 0 1.001-1.16c.247-.492.364-1.049.352-1.67l-.018-1.688c-.363-.457-.755-.808-1.177-1.054-.41-.258-.885-.387-1.424-.387Zm10.67-1.424a3.53 3.53 0 0 1 1.529.369c.527.235.979.563 1.354.985v-1.178h1.441v8.613c0 1.043-.211 1.91-.633 2.602a3.977 3.977 0 0 1-1.687 1.547 5.233 5.233 0 0 1-2.303.509c-.539 0-1.002-.064-1.389-.193a3.49 3.49 0 0 1-.966-.457c-.27-.176-.516-.346-.739-.51v-1.547c.176.129.405.293.686.493.293.211.638.398 1.037.562.41.164.867.246 1.371.246a3.89 3.89 0 0 0 1.582-.316c.48-.211.867-.522 1.16-.932.293-.41.44-.902.44-1.476v-1.846a4.307 4.307 0 0 1-1.248 1.23c-.516.352-1.108.528-1.776.528-.75 0-1.435-.188-2.056-.563a4.275 4.275 0 0 1-1.495-1.599c-.363-.68-.545-1.465-.545-2.356 0-.973.182-1.81.545-2.514.375-.703.885-1.242 1.53-1.617a4.126 4.126 0 0 1 2.162-.58Zm.263 1.424c-.632 0-1.171.158-1.617.475a3.075 3.075 0 0 0-1.037 1.212 3.682 3.682 0 0 0-.351 1.6c0 .563.117 1.078.351 1.547.235.469.563.844.985 1.125.433.281.931.422 1.494.422a2.54 2.54 0 0 0 1.441-.422 2.938 2.938 0 0 0 1.002-1.16c.246-.492.363-1.049.352-1.67l-.018-1.688c-.363-.457-.756-.808-1.178-1.054-.41-.258-.884-.387-1.424-.387Zm8.491-5.115V275h-1.442v-12.656h1.442Zm6.609 3.691c.902 0 1.652.188 2.25.563a3.45 3.45 0 0 1 1.336 1.529c.305.644.457 1.371.457 2.18v.861h-6.75c.07.492.24.943.51 1.353.269.411.621.739 1.055.985.433.234.931.351 1.494.351a3.51 3.51 0 0 0 1.775-.474 6.703 6.703 0 0 0 1.389-1.072l-.018 1.564c-.164.199-.41.41-.738.633a4.608 4.608 0 0 1-1.108.527c-.41.153-.843.229-1.3.229-.891 0-1.682-.211-2.373-.633a4.646 4.646 0 0 1-1.635-1.67 4.698 4.698 0 0 1-.58-2.303c0-.832.181-1.599.545-2.303a4.43 4.43 0 0 1 1.494-1.687c.644-.422 1.377-.633 2.197-.633Zm0 1.406c-.726 0-1.324.247-1.793.739a3.22 3.22 0 0 0-.879 1.758h5.291c-.058-.575-.222-1.043-.492-1.407a2.405 2.405 0 0 0-.949-.808 2.597 2.597 0 0 0-1.178-.282Zm-110.109 20.594c.597 0 1.142.135 1.635.404.492.258.884.657 1.177 1.196.293.527.44 1.195.44 2.004V297h-1.442l-.017-5.221c0-.761-.17-1.341-.51-1.74-.328-.398-.838-.598-1.529-.598-.469 0-.938.176-1.407.528-.457.34-.861.738-1.212 1.195V297h-1.442v-12.656h1.442v5.256a4.56 4.56 0 0 1 .72-.704c.293-.246.621-.451.985-.615a2.864 2.864 0 0 1 1.16-.246Zm9.597 0c.504 0 1.014.123 1.53.369.527.235.978.563 1.353.985v-1.178h1.442V297h-1.442v-1.494a4.295 4.295 0 0 1-1.248 1.23c-.515.352-1.107.528-1.775.528-.75 0-1.436-.188-2.057-.563a4.28 4.28 0 0 1-1.494-1.599c-.363-.68-.545-1.465-.545-2.356 0-.973.182-1.81.545-2.514.375-.703.885-1.242 1.529-1.617a4.13 4.13 0 0 1 2.162-.58Zm.264 1.406c-.633 0-1.172.159-1.617.475a3.215 3.215 0 0 0-1.037 1.23 3.669 3.669 0 0 0-.352 1.6c0 .563.117 1.084.352 1.565.234.468.562.843.984 1.125.434.281.932.421 1.494.421.539 0 1.02-.14 1.442-.421a2.941 2.941 0 0 0 1.002-1.161 3.63 3.63 0 0 0 .351-1.687l-.017-1.688a4.568 4.568 0 0 0-1.178-1.072c-.41-.258-.885-.387-1.424-.387Zm9.668-1.406c.516 0 .996.076 1.441.229.446.14.768.287.967.439v1.547c-.246-.188-.58-.369-1.002-.545a3.346 3.346 0 0 0-1.3-.264c-.551 0-.967.129-1.249.387-.269.258-.404.527-.404.809 0 .222.076.451.229.685.164.223.445.405.843.545l1.477.528c.574.199 1.002.486 1.283.861.281.375.422.814.422 1.318 0 .492-.141.944-.422 1.354-.269.41-.65.738-1.142.984-.481.234-1.037.352-1.67.352-.34 0-.698-.047-1.073-.141a6.547 6.547 0 0 1-.984-.299 4.484 4.484 0 0 1-.65-.334v-1.547c.164.118.392.252.685.405.305.14.627.263.967.369.34.094.656.14.949.14.551 0 .985-.123 1.301-.369.328-.246.492-.55.492-.914a.786.786 0 0 0-.334-.668c-.211-.164-.521-.322-.931-.474l-1.301-.475c-.68-.258-1.131-.58-1.354-.967a2.73 2.73 0 0 1-.334-1.353c0-.75.282-1.371.844-1.864.563-.492 1.313-.738 2.25-.738Zm13.799 0c.504 0 1.014.123 1.529.369a3.92 3.92 0 0 1 1.354.985v-1.178h1.441V297h-1.441v-1.494a4.307 4.307 0 0 1-1.248 1.23c-.516.352-1.108.528-1.776.528-.75 0-1.435-.188-2.056-.563a4.275 4.275 0 0 1-1.495-1.599c-.363-.68-.544-1.465-.544-2.356 0-.973.181-1.81.544-2.514.375-.703.885-1.242 1.53-1.617a4.126 4.126 0 0 1 2.162-.58Zm.264 1.406c-.633 0-1.172.159-1.618.475a3.215 3.215 0 0 0-1.037 1.23 3.682 3.682 0 0 0-.351 1.6c0 .563.117 1.084.351 1.565.235.468.563.843.985 1.125.433.281.931.421 1.494.421a2.54 2.54 0 0 0 1.441-.421 2.941 2.941 0 0 0 1.002-1.161 3.643 3.643 0 0 0 .352-1.687l-.018-1.688a4.552 4.552 0 0 0-1.178-1.072c-.41-.258-.884-.387-1.423-.387Zm11.021-1.406c.645 0 1.201.106 1.67.317.469.199.791.38.967.544v1.459a5.158 5.158 0 0 0-1.125-.632c-.422-.188-.926-.282-1.512-.282-.621 0-1.166.153-1.635.457a3.015 3.015 0 0 0-1.09 1.178 3.422 3.422 0 0 0-.369 1.582c0 .563.123 1.09.369 1.582a3.18 3.18 0 0 0 1.09 1.178c.469.293 1.014.439 1.635.439.586 0 1.09-.087 1.512-.263a5.802 5.802 0 0 0 1.125-.651v1.459c-.176.176-.498.364-.967.563-.469.199-1.025.299-1.67.299-.891 0-1.682-.211-2.373-.633a4.662 4.662 0 0 1-1.635-1.67 4.698 4.698 0 0 1-.58-2.303 4.7 4.7 0 0 1 .58-2.303 4.616 4.616 0 0 1 1.635-1.687c.691-.422 1.482-.633 2.373-.633Zm8.982 0c.645 0 1.202.106 1.67.317.469.199.791.38.967.544v1.459a5.158 5.158 0 0 0-1.125-.632c-.422-.188-.926-.282-1.512-.282-.621 0-1.166.153-1.634.457a3.015 3.015 0 0 0-1.09 1.178 3.422 3.422 0 0 0-.369 1.582c0 .563.123 1.09.369 1.582a3.18 3.18 0 0 0 1.09 1.178c.468.293 1.013.439 1.634.439.586 0 1.09-.087 1.512-.263a5.802 5.802 0 0 0 1.125-.651v1.459c-.176.176-.498.364-.967.563-.468.199-1.025.299-1.67.299-.89 0-1.681-.211-2.373-.633a4.651 4.651 0 0 1-1.634-1.67 4.698 4.698 0 0 1-.58-2.303 4.7 4.7 0 0 1 .58-2.303 4.605 4.605 0 0 1 1.634-1.687c.692-.422 1.483-.633 2.373-.633Zm8.631 0c.903 0 1.653.188 2.25.563a3.45 3.45 0 0 1 1.336 1.529c.305.644.457 1.371.457 2.18v.861h-6.75c.071.492.24.943.51 1.353.27.411.621.739 1.055.985.433.234.931.351 1.494.351.633 0 1.224-.158 1.775-.474a6.703 6.703 0 0 0 1.389-1.072l-.018 1.564c-.164.199-.41.41-.738.633a4.582 4.582 0 0 1-1.107.527 3.696 3.696 0 0 1-1.301.229c-.891 0-1.682-.211-2.373-.633a4.646 4.646 0 0 1-1.635-1.67 4.698 4.698 0 0 1-.58-2.303c0-.832.182-1.599.545-2.303a4.43 4.43 0 0 1 1.494-1.687c.645-.422 1.377-.633 2.197-.633Zm0 1.406c-.726 0-1.324.247-1.793.739a3.233 3.233 0 0 0-.879 1.758h5.291c-.058-.575-.222-1.043-.492-1.407a2.405 2.405 0 0 0-.949-.808 2.597 2.597 0 0 0-1.178-.282Zm9.035-1.406c.516 0 .997.076 1.442.229.445.14.767.287.967.439v1.547c-.246-.188-.58-.369-1.002-.545a3.35 3.35 0 0 0-1.301-.264c-.551 0-.967.129-1.248.387-.27.258-.404.527-.404.809 0 .222.076.451.228.685.164.223.445.405.844.545l1.476.528c.575.199 1.002.486 1.284.861.281.375.421.814.421 1.318 0 .492-.14.944-.421 1.354-.27.41-.651.738-1.143.984-.48.234-1.037.352-1.67.352-.34 0-.697-.047-1.072-.141a6.561 6.561 0 0 1-.985-.299 4.595 4.595 0 0 1-.65-.334v-1.547c.164.118.393.252.686.405.304.14.627.263.966.369.34.094.657.14.95.14.55 0 .984-.123 1.3-.369.329-.246.493-.55.493-.914a.788.788 0 0 0-.334-.668c-.211-.164-.522-.322-.932-.474l-1.301-.475c-.679-.258-1.131-.58-1.353-.967a2.72 2.72 0 0 1-.334-1.353c0-.75.281-1.371.843-1.864.563-.492 1.313-.738 2.25-.738Zm7.524 0c.516 0 .996.076 1.441.229.446.14.768.287.967.439v1.547c-.246-.188-.58-.369-1.002-.545a3.347 3.347 0 0 0-1.301-.264c-.55 0-.966.129-1.248.387-.269.258-.404.527-.404.809 0 .222.076.451.229.685.164.223.445.405.843.545l1.477.528c.574.199 1.002.486 1.283.861.281.375.422.814.422 1.318 0 .492-.141.944-.422 1.354-.269.41-.65.738-1.143.984-.48.234-1.037.352-1.669.352-.34 0-.698-.047-1.073-.141a6.547 6.547 0 0 1-.984-.299 4.484 4.484 0 0 1-.65-.334v-1.547c.164.118.392.252.685.405.305.14.627.263.967.369.34.094.656.14.949.14.551 0 .984-.123 1.301-.369.328-.246.492-.55.492-.914a.786.786 0 0 0-.334-.668c-.211-.164-.521-.322-.932-.474l-1.3-.475c-.68-.258-1.131-.58-1.354-.967a2.72 2.72 0 0 1-.334-1.353c0-.75.281-1.371.844-1.864.562-.492 1.312-.738 2.25-.738ZM451.102 266.211v1.125a4.846 4.846 0 0 1 1.072-.879c.445-.281.967-.422 1.564-.422a3.62 3.62 0 0 1 1.776.457c.55.293.972.738 1.265 1.336.41-.492.856-.914 1.336-1.266.481-.351 1.043-.527 1.688-.527a3.56 3.56 0 0 1 1.67.404c.527.258.949.657 1.265 1.196.328.527.492 1.195.492 2.004V275h-1.441l-.018-5.221c0-.761-.199-1.341-.597-1.74-.387-.398-.926-.598-1.617-.598-.504 0-.944.159-1.319.475a8.075 8.075 0 0 0-1.072 1.107V275h-1.441l-.018-5.221c0-.761-.199-1.341-.598-1.74-.386-.398-.925-.598-1.617-.598-.48 0-.92.141-1.318.422a5.84 5.84 0 0 0-1.072 1.02V275h-1.442v-8.789h1.442Zm15.345 0 3.076 6.469 2.989-6.469h1.722l-6.468 13.008h-1.67l2.513-4.746-3.884-8.262h1.722Zm19.371 0v1.353h-2.566V275h-1.441v-7.436h-1.389v-1.353h1.389v-1.125c0-.691.134-1.254.404-1.688a2.527 2.527 0 0 1 1.037-.984 2.72 2.72 0 0 1 1.283-.334c.598 0 1.084.158 1.459.475v1.265a2.249 2.249 0 0 0-.633-.281c-.246-.07-.492-.1-.738-.088-.434.012-.773.153-1.019.422-.235.258-.352.715-.352 1.371v.967h2.566Zm5.537-.176c.903 0 1.653.188 2.25.563a3.45 3.45 0 0 1 1.336 1.529c.305.644.457 1.371.457 2.18v.861h-6.75c.071.492.241.943.51 1.353.27.411.621.739 1.055.985.433.234.932.351 1.494.351.633 0 1.225-.158 1.775-.474a6.703 6.703 0 0 0 1.389-1.072l-.017 1.564c-.165.199-.411.41-.739.633a4.582 4.582 0 0 1-1.107.527c-.41.153-.844.229-1.301.229-.891 0-1.682-.211-2.373-.633a4.662 4.662 0 0 1-1.635-1.67 4.698 4.698 0 0 1-.58-2.303c0-.832.182-1.599.545-2.303a4.43 4.43 0 0 1 1.494-1.687c.645-.422 1.377-.633 2.197-.633Zm0 1.406c-.726 0-1.324.247-1.793.739a3.225 3.225 0 0 0-.878 1.758h5.291c-.059-.575-.223-1.043-.493-1.407a2.398 2.398 0 0 0-.949-.808 2.593 2.593 0 0 0-1.178-.282Zm10.038-1.406c.503 0 1.013.123 1.529.369.527.235.978.563 1.353.985v-1.178h1.442V275h-1.442v-1.494c-.304.469-.72.879-1.248 1.23-.515.352-1.107.528-1.775.528-.75 0-1.436-.188-2.057-.563a4.28 4.28 0 0 1-1.494-1.599c-.363-.68-.545-1.465-.545-2.356 0-.973.182-1.81.545-2.514.375-.703.885-1.242 1.529-1.617a4.132 4.132 0 0 1 2.163-.58Zm.263 1.406c-.633 0-1.172.159-1.617.475a3.215 3.215 0 0 0-1.037 1.23 3.683 3.683 0 0 0-.352 1.6c0 .563.118 1.084.352 1.565.234.468.562.843.984 1.125.434.281.932.421 1.494.421.54 0 1.02-.14 1.442-.421a2.941 2.941 0 0 0 1.002-1.161 3.63 3.63 0 0 0 .351-1.687l-.017-1.688a4.552 4.552 0 0 0-1.178-1.072c-.41-.258-.885-.387-1.424-.387Zm9.475-3.761v2.531h2.566v1.353h-2.566v5.151c0 .363.094.65.281.861.188.211.475.317.861.317.352 0 .645-.041.879-.123.235-.094.44-.194.616-.299v1.177a2.915 2.915 0 0 1-.756.44c-.258.117-.61.176-1.055.176-.75 0-1.318-.223-1.705-.668-.375-.457-.563-1.061-.563-1.811v-5.221h-1.687v-.421c.574-.258 1.055-.68 1.441-1.266.387-.598.727-1.33 1.02-2.197h.668Zm12.375 2.531v5.203c0 .774-.164 1.441-.492 2.004a3.402 3.402 0 0 1-1.336 1.301c-.563.304-1.196.457-1.899.457-.703 0-1.336-.153-1.898-.457a3.395 3.395 0 0 1-1.336-1.301c-.328-.563-.492-1.23-.492-2.004v-5.203h1.494v5.203c0 .762.223 1.348.668 1.758.457.398.978.598 1.564.598.586 0 1.102-.2 1.547-.598.457-.41.686-.996.686-1.758v-5.203h1.494Zm4.166 0v1.758c.34-.586.75-1.055 1.23-1.407.481-.351.973-.527 1.477-.527.34 0 .644.059.914.176v1.67c-.375-.223-.75-.334-1.125-.334-.598 0-1.084.211-1.459.633a9.204 9.204 0 0 0-1.037 1.511V275h-1.442v-8.789h1.442Zm9.088-.176c.902 0 1.652.188 2.25.563a3.456 3.456 0 0 1 1.336 1.529c.304.644.457 1.371.457 2.18v.861h-6.75c.07.492.24.943.509 1.353.27.411.622.739 1.055.985.434.234.932.351 1.494.351.633 0 1.225-.158 1.776-.474a6.696 6.696 0 0 0 1.388-1.072l-.017 1.564c-.164.199-.41.41-.738.633a4.608 4.608 0 0 1-1.108.527c-.41.153-.844.229-1.301.229-.89 0-1.681-.211-2.373-.633a4.651 4.651 0 0 1-1.634-1.67 4.698 4.698 0 0 1-.581-2.303c0-.832.182-1.599.545-2.303a4.447 4.447 0 0 1 1.494-1.687c.645-.422 1.377-.633 2.198-.633Zm0 1.406c-.727 0-1.324.247-1.793.739a3.22 3.22 0 0 0-.879 1.758h5.291c-.059-.575-.223-1.043-.492-1.407a2.412 2.412 0 0 0-.949-.808 2.6 2.6 0 0 0-1.178-.282Zm14.115-3.761v2.531h2.566v1.353h-2.566v5.151c0 .363.094.65.281.861.188.211.475.317.862.317.351 0 .644-.041.878-.123.235-.094.44-.194.616-.299v1.177a2.915 2.915 0 0 1-.756.44c-.258.117-.61.176-1.055.176-.75 0-1.318-.223-1.705-.668-.375-.457-.562-1.061-.562-1.811v-5.221h-1.688v-.421c.574-.258 1.055-.68 1.442-1.266.386-.598.726-1.33 1.019-2.197h.668Zm9.158 2.355c.891 0 1.682.211 2.373.633a4.46 4.46 0 0 1 1.617 1.687c.399.704.598 1.471.598 2.303 0 .832-.199 1.6-.598 2.303a4.502 4.502 0 0 1-1.617 1.67c-.691.422-1.482.633-2.373.633-.89 0-1.681-.211-2.373-.633a4.662 4.662 0 0 1-1.635-1.67 4.708 4.708 0 0 1-.58-2.303c0-.832.194-1.599.58-2.303a4.616 4.616 0 0 1 1.635-1.687c.692-.422 1.483-.633 2.373-.633Zm0 1.406c-.621 0-1.166.153-1.635.457a3.012 3.012 0 0 0-1.089 1.178 3.41 3.41 0 0 0-.37 1.582c0 .563.123 1.09.37 1.582.257.481.621.873 1.089 1.178.469.293 1.014.439 1.635.439.633 0 1.178-.146 1.635-.439a3.037 3.037 0 0 0 1.072-1.178 3.356 3.356 0 0 0 .387-1.582c0-.574-.129-1.101-.387-1.582a2.885 2.885 0 0 0-1.072-1.178c-.457-.304-1.002-.457-1.635-.457Zm10.582-1.406c.504 0 1.014.123 1.53.369.527.235.978.563 1.353.985v-1.178h1.441v8.613c0 1.043-.21 1.91-.632 2.602a3.979 3.979 0 0 1-1.688 1.547 5.233 5.233 0 0 1-2.303.509c-.539 0-1.002-.064-1.388-.193a3.496 3.496 0 0 1-.967-.457c-.27-.176-.516-.346-.738-.51v-1.547c.175.129.404.293.685.493.293.211.639.398 1.037.562.41.164.867.246 1.371.246.575 0 1.102-.105 1.582-.316a2.759 2.759 0 0 0 1.161-.932c.293-.41.439-.902.439-1.476v-1.846a4.307 4.307 0 0 1-1.248 1.23c-.516.352-1.107.528-1.775.528-.75 0-1.436-.188-2.057-.563a4.28 4.28 0 0 1-1.494-1.599c-.363-.68-.545-1.465-.545-2.356 0-.973.182-1.81.545-2.514.375-.703.885-1.242 1.529-1.617a4.128 4.128 0 0 1 2.162-.58Zm.264 1.424c-.633 0-1.172.158-1.617.475a3.067 3.067 0 0 0-1.037 1.212 3.669 3.669 0 0 0-.352 1.6c0 .563.117 1.078.352 1.547.234.469.562.844.984 1.125.434.281.932.422 1.494.422.539 0 1.02-.141 1.442-.422a2.944 2.944 0 0 0 1.001-1.16c.247-.492.364-1.049.352-1.67l-.018-1.688c-.363-.457-.755-.808-1.177-1.054-.41-.258-.885-.387-1.424-.387Zm10.67-1.424a3.53 3.53 0 0 1 1.529.369c.527.235.979.563 1.354.985v-1.178h1.441v8.613c0 1.043-.211 1.91-.633 2.602a3.977 3.977 0 0 1-1.687 1.547 5.233 5.233 0 0 1-2.303.509c-.539 0-1.002-.064-1.389-.193a3.49 3.49 0 0 1-.966-.457c-.27-.176-.516-.346-.739-.51v-1.547c.176.129.405.293.686.493.293.211.638.398 1.037.562.41.164.867.246 1.371.246a3.89 3.89 0 0 0 1.582-.316c.48-.211.867-.522 1.16-.932.293-.41.44-.902.44-1.476v-1.846a4.307 4.307 0 0 1-1.248 1.23c-.516.352-1.108.528-1.776.528-.75 0-1.435-.188-2.056-.563a4.275 4.275 0 0 1-1.495-1.599c-.363-.68-.545-1.465-.545-2.356 0-.973.182-1.81.545-2.514.375-.703.885-1.242 1.53-1.617a4.126 4.126 0 0 1 2.162-.58Zm.263 1.424c-.632 0-1.171.158-1.617.475a3.075 3.075 0 0 0-1.037 1.212 3.682 3.682 0 0 0-.351 1.6c0 .563.117 1.078.351 1.547.235.469.563.844.985 1.125.433.281.931.422 1.494.422a2.54 2.54 0 0 0 1.441-.422 2.938 2.938 0 0 0 1.002-1.16c.246-.492.363-1.049.352-1.67l-.018-1.688c-.363-.457-.756-.808-1.178-1.054-.41-.258-.884-.387-1.424-.387Zm8.491-5.115V275h-1.442v-12.656h1.442Zm6.609 3.691c.902 0 1.652.188 2.25.563a3.45 3.45 0 0 1 1.336 1.529c.305.644.457 1.371.457 2.18v.861h-6.75c.07.492.24.943.51 1.353.269.411.621.739 1.055.985.433.234.931.351 1.494.351a3.51 3.51 0 0 0 1.775-.474 6.703 6.703 0 0 0 1.389-1.072l-.018 1.564c-.164.199-.41.41-.738.633a4.608 4.608 0 0 1-1.108.527c-.41.153-.843.229-1.3.229-.891 0-1.682-.211-2.373-.633a4.646 4.646 0 0 1-1.635-1.67 4.698 4.698 0 0 1-.58-2.303c0-.832.181-1.599.545-2.303a4.43 4.43 0 0 1 1.494-1.687c.644-.422 1.377-.633 2.197-.633Zm0 1.406c-.726 0-1.324.247-1.793.739a3.22 3.22 0 0 0-.879 1.758h5.291c-.058-.575-.222-1.043-.492-1.407a2.405 2.405 0 0 0-.949-.808 2.597 2.597 0 0 0-1.178-.282Zm-145.468 16.903V297h-1.441v-1.494a4.307 4.307 0 0 1-1.248 1.23c-.516.352-1.108.528-1.776.528-.75 0-1.435-.188-2.056-.563a4.28 4.28 0 0 1-1.494-1.599c-.364-.68-.545-1.465-.545-2.356 0-.973.181-1.81.545-2.514.375-.703.884-1.242 1.529-1.617a4.128 4.128 0 0 1 2.162-.58c.504 0 1.014.123 1.529.369a3.92 3.92 0 0 1 1.354.985v-5.045h1.441Zm-4.06 5.133c-.633 0-1.172.158-1.617.474a3.112 3.112 0 0 0-1.038 1.195 3.682 3.682 0 0 0-.351 1.6c0 .563.117 1.084.351 1.565.235.468.563.843.985 1.125.433.281.932.421 1.494.421.539 0 1.02-.14 1.441-.421a2.941 2.941 0 0 0 1.002-1.161 3.63 3.63 0 0 0 .352-1.687l-.018-1.688c-.363-.457-.756-.808-1.177-1.054-.411-.246-.885-.369-1.424-.369Zm11.021-1.442c.891 0 1.682.211 2.373.633a4.47 4.47 0 0 1 1.618 1.687c.398.704.597 1.471.597 2.303 0 .832-.199 1.6-.597 2.303a4.513 4.513 0 0 1-1.618 1.67c-.691.422-1.482.633-2.373.633-.89 0-1.681-.211-2.373-.633a4.662 4.662 0 0 1-1.635-1.67 4.708 4.708 0 0 1-.58-2.303c0-.832.194-1.599.58-2.303a4.616 4.616 0 0 1 1.635-1.687c.692-.422 1.483-.633 2.373-.633Zm0 1.406c-.621 0-1.166.153-1.634.457a3.007 3.007 0 0 0-1.09 1.178 3.422 3.422 0 0 0-.369 1.582c0 .563.123 1.09.369 1.582.257.481.621.873 1.09 1.178.468.293 1.013.439 1.634.439.633 0 1.178-.146 1.635-.439a3.037 3.037 0 0 0 1.072-1.178 3.356 3.356 0 0 0 .387-1.582c0-.574-.129-1.101-.387-1.582a2.885 2.885 0 0 0-1.072-1.178c-.457-.304-1.002-.457-1.635-.457Zm10.582-1.406c.903 0 1.653.188 2.25.563a3.45 3.45 0 0 1 1.336 1.529c.305.644.457 1.371.457 2.18v.861h-6.75c.071.492.241.943.51 1.353.27.411.621.739 1.055.985.433.234.931.351 1.494.351.633 0 1.224-.158 1.775-.474a6.703 6.703 0 0 0 1.389-1.072l-.018 1.564c-.164.199-.41.41-.738.633a4.582 4.582 0 0 1-1.107.527 3.696 3.696 0 0 1-1.301.229c-.891 0-1.682-.211-2.373-.633a4.646 4.646 0 0 1-1.635-1.67 4.698 4.698 0 0 1-.58-2.303c0-.832.182-1.599.545-2.303a4.43 4.43 0 0 1 1.494-1.687c.645-.422 1.377-.633 2.197-.633Zm0 1.406c-.726 0-1.324.247-1.793.739a3.233 3.233 0 0 0-.879 1.758h5.291c-.058-.575-.222-1.043-.492-1.407a2.405 2.405 0 0 0-.949-.808 2.597 2.597 0 0 0-1.178-.282Zm9.035-1.406c.516 0 .997.076 1.442.229.445.14.767.287.967.439v1.547c-.246-.188-.58-.369-1.002-.545a3.35 3.35 0 0 0-1.301-.264c-.551 0-.967.129-1.248.387-.27.258-.404.527-.404.809 0 .222.076.451.228.685.164.223.445.405.844.545l1.476.528c.575.199 1.002.486 1.284.861.281.375.421.814.421 1.318 0 .492-.14.944-.421 1.354-.27.41-.651.738-1.143.984-.48.234-1.037.352-1.67.352-.34 0-.697-.047-1.072-.141a6.561 6.561 0 0 1-.985-.299 4.595 4.595 0 0 1-.65-.334v-1.547c.164.118.393.252.686.405.304.14.627.263.966.369.34.094.657.14.95.14.55 0 .984-.123 1.3-.369.329-.246.493-.55.493-.914a.788.788 0 0 0-.334-.668c-.211-.164-.522-.322-.932-.474l-1.301-.475c-.679-.258-1.131-.58-1.353-.967a2.72 2.72 0 0 1-.334-1.353c0-.75.281-1.371.843-1.864.563-.492 1.313-.738 2.25-.738Zm6.346.176v1.389c.188-.235.428-.469.721-.704.293-.246.621-.451.984-.615a2.868 2.868 0 0 1 1.16-.246c.598 0 1.143.135 1.635.404.492.258.885.657 1.178 1.196.293.527.439 1.195.439 2.004V297h-1.441l-.018-5.221c0-.761-.17-1.341-.509-1.74-.329-.398-.838-.598-1.53-.598-.468 0-.937.176-1.406.528-.457.34-.861.738-1.213 1.195V297h-1.441v-8.789h1.441Zm9.281-3.305 1.442.492-1.934 4.518-1.09-.281 1.582-4.729Zm5.713.774v2.531h2.567v1.353h-2.567v5.151c0 .363.094.65.282.861.187.211.474.317.861.317.351 0 .644-.041.879-.123.234-.094.439-.194.615-.299v1.177a2.883 2.883 0 0 1-.756.44c-.258.117-.609.176-1.055.176-.75 0-1.318-.223-1.705-.668-.375-.457-.562-1.061-.562-1.811v-5.221h-1.688v-.421c.575-.258 1.055-.68 1.442-1.266.387-.598.726-1.33 1.019-2.197h.668Zm14.766 2.355c.598 0 1.143.135 1.635.404.492.258.884.657 1.177 1.196.293.527.44 1.195.44 2.004V297h-1.442l-.017-5.221c0-.761-.17-1.341-.51-1.74-.328-.398-.838-.598-1.529-.598-.469 0-.938.176-1.406.528-.457.34-.862.738-1.213 1.195V297h-1.442v-12.656h1.442v5.256a4.56 4.56 0 0 1 .72-.704c.293-.246.621-.451.985-.615a2.864 2.864 0 0 1 1.16-.246Zm9.598 0c.503 0 1.013.123 1.529.369.527.235.978.563 1.353.985v-1.178h1.442V297h-1.442v-1.494c-.304.469-.72.879-1.248 1.23-.515.352-1.107.528-1.775.528-.75 0-1.436-.188-2.057-.563a4.28 4.28 0 0 1-1.494-1.599c-.363-.68-.545-1.465-.545-2.356 0-.973.182-1.81.545-2.514.375-.703.885-1.242 1.529-1.617a4.132 4.132 0 0 1 2.163-.58Zm.263 1.406c-.633 0-1.172.159-1.617.475a3.215 3.215 0 0 0-1.037 1.23 3.683 3.683 0 0 0-.352 1.6c0 .563.118 1.084.352 1.565.234.468.562.843.984 1.125.434.281.932.421 1.494.421.54 0 1.02-.14 1.442-.421a2.941 2.941 0 0 0 1.002-1.161 3.63 3.63 0 0 0 .351-1.687l-.017-1.688a4.552 4.552 0 0 0-1.178-1.072c-.41-.258-.885-.387-1.424-.387Zm14.625-1.23L534.483 297h-.896l-3.955-8.789h1.722l2.655 6.469 2.883-6.469h1.722Zm5.203-.176c.903 0 1.653.188 2.25.563a3.45 3.45 0 0 1 1.336 1.529c.305.644.457 1.371.457 2.18v.861h-6.75c.071.492.241.943.51 1.353.27.411.621.739 1.055.985.433.234.931.351 1.494.351.633 0 1.225-.158 1.775-.474a6.703 6.703 0 0 0 1.389-1.072l-.018 1.564c-.164.199-.41.41-.738.633a4.582 4.582 0 0 1-1.107.527c-.41.153-.844.229-1.301.229-.891 0-1.682-.211-2.373-.633a4.654 4.654 0 0 1-1.635-1.67 4.698 4.698 0 0 1-.58-2.303c0-.832.182-1.599.545-2.303a4.43 4.43 0 0 1 1.494-1.687c.645-.422 1.377-.633 2.197-.633Zm0 1.406c-.726 0-1.324.247-1.793.739a3.225 3.225 0 0 0-.878 1.758h5.291c-.059-.575-.223-1.043-.493-1.407a2.398 2.398 0 0 0-.949-.808 2.593 2.593 0 0 0-1.178-.282Zm15.311-1.406c.504 0 1.014.123 1.529.369a3.92 3.92 0 0 1 1.354.985v-1.178h1.441V297h-1.441v-1.494a4.307 4.307 0 0 1-1.248 1.23c-.516.352-1.108.528-1.776.528-.75 0-1.435-.188-2.056-.563a4.28 4.28 0 0 1-1.494-1.599c-.364-.68-.545-1.465-.545-2.356 0-.973.181-1.81.545-2.514.375-.703.884-1.242 1.529-1.617a4.126 4.126 0 0 1 2.162-.58Zm.264 1.406c-.633 0-1.172.159-1.618.475a3.215 3.215 0 0 0-1.037 1.23 3.682 3.682 0 0 0-.351 1.6c0 .563.117 1.084.351 1.565.235.468.563.843.985 1.125.433.281.931.421 1.494.421a2.54 2.54 0 0 0 1.441-.421 2.941 2.941 0 0 0 1.002-1.161 3.643 3.643 0 0 0 .352-1.687l-.018-1.688a4.552 4.552 0 0 0-1.178-1.072c-.41-.258-.884-.387-1.423-.387Zm11.021-1.406c.645 0 1.201.106 1.67.317.469.199.791.38.967.544v1.459a5.158 5.158 0 0 0-1.125-.632c-.422-.188-.926-.282-1.512-.282-.621 0-1.166.153-1.635.457a3.022 3.022 0 0 0-1.09 1.178 3.422 3.422 0 0 0-.369 1.582c0 .563.123 1.09.369 1.582.258.481.622.873 1.09 1.178.469.293 1.014.439 1.635.439.586 0 1.09-.087 1.512-.263a5.802 5.802 0 0 0 1.125-.651v1.459c-.176.176-.498.364-.967.563-.469.199-1.025.299-1.67.299-.891 0-1.682-.211-2.373-.633a4.662 4.662 0 0 1-1.635-1.67 4.708 4.708 0 0 1-.58-2.303c0-.832.194-1.599.58-2.303a4.616 4.616 0 0 1 1.635-1.687c.691-.422 1.482-.633 2.373-.633Zm8.983 0c.644 0 1.201.106 1.669.317.469.199.791.38.967.544v1.459a5.158 5.158 0 0 0-1.125-.632c-.422-.188-.926-.282-1.511-.282-.622 0-1.167.153-1.635.457a3.015 3.015 0 0 0-1.09 1.178 3.422 3.422 0 0 0-.369 1.582c0 .563.123 1.09.369 1.582a3.18 3.18 0 0 0 1.09 1.178c.468.293 1.013.439 1.635.439.585 0 1.089-.087 1.511-.263a5.802 5.802 0 0 0 1.125-.651v1.459c-.176.176-.498.364-.967.563-.468.199-1.025.299-1.669.299-.891 0-1.682-.211-2.374-.633a4.651 4.651 0 0 1-1.634-1.67 4.698 4.698 0 0 1-.58-2.303 4.7 4.7 0 0 1 .58-2.303 4.605 4.605 0 0 1 1.634-1.687c.692-.422 1.483-.633 2.374-.633Zm8.63 0c.903 0 1.653.188 2.25.563a3.45 3.45 0 0 1 1.336 1.529c.305.644.457 1.371.457 2.18v.861h-6.75c.071.492.241.943.51 1.353.27.411.621.739 1.055.985.433.234.931.351 1.494.351.633 0 1.225-.158 1.775-.474a6.703 6.703 0 0 0 1.389-1.072l-.018 1.564c-.164.199-.41.41-.738.633a4.582 4.582 0 0 1-1.107.527c-.41.153-.844.229-1.301.229-.891 0-1.682-.211-2.373-.633a4.654 4.654 0 0 1-1.635-1.67 4.698 4.698 0 0 1-.58-2.303c0-.832.182-1.599.545-2.303a4.43 4.43 0 0 1 1.494-1.687c.645-.422 1.377-.633 2.197-.633Zm0 1.406c-.726 0-1.324.247-1.793.739a3.233 3.233 0 0 0-.879 1.758h5.292c-.059-.575-.223-1.043-.493-1.407a2.398 2.398 0 0 0-.949-.808 2.593 2.593 0 0 0-1.178-.282Zm9.036-1.406c.515 0 .996.076 1.441.229.445.14.768.287.967.439v1.547c-.246-.188-.58-.369-1.002-.545a3.35 3.35 0 0 0-1.301-.264c-.551 0-.967.129-1.248.387-.27.258-.404.527-.404.809 0 .222.076.451.228.685.164.223.445.405.844.545l1.476.528c.575.199 1.002.486 1.284.861.281.375.422.814.422 1.318 0 .492-.141.944-.422 1.354-.27.41-.651.738-1.143.984-.48.234-1.037.352-1.67.352-.34 0-.697-.047-1.072-.141a6.547 6.547 0 0 1-.984-.299 4.561 4.561 0 0 1-.651-.334v-1.547c.164.118.393.252.686.405.304.14.627.263.966.369.34.094.657.14.95.14.55 0 .984-.123 1.3-.369.329-.246.493-.55.493-.914a.788.788 0 0 0-.334-.668c-.211-.164-.522-.322-.932-.474l-1.301-.475c-.679-.258-1.131-.58-1.353-.967a2.72 2.72 0 0 1-.334-1.353c0-.75.281-1.371.844-1.864.562-.492 1.312-.738 2.25-.738Zm7.523 0c.516 0 .996.076 1.441.229.446.14.768.287.967.439v1.547c-.246-.188-.58-.369-1.002-.545a3.347 3.347 0 0 0-1.301-.264c-.55 0-.966.129-1.248.387-.269.258-.404.527-.404.809 0 .222.076.451.229.685.164.223.445.405.843.545l1.477.528c.574.199 1.002.486 1.283.861.281.375.422.814.422 1.318 0 .492-.141.944-.422 1.354-.269.41-.65.738-1.142.984-.481.234-1.038.352-1.67.352-.34 0-.698-.047-1.073-.141a6.547 6.547 0 0 1-.984-.299 4.484 4.484 0 0 1-.65-.334v-1.547c.164.118.392.252.685.405.305.14.627.263.967.369.34.094.656.14.949.14.551 0 .985-.123 1.301-.369.328-.246.492-.55.492-.914a.786.786 0 0 0-.334-.668c-.211-.164-.521-.322-.932-.474l-1.3-.475c-.68-.258-1.131-.58-1.354-.967a2.73 2.73 0 0 1-.334-1.353c0-.75.281-1.371.844-1.864.562-.492 1.312-.738 2.25-.738ZM107.375 199.1C105.675 190.475 98.1 184 89 184c-7.225 0-13.5 4.1-16.625 10.1C64.85 194.9 59 201.275 59 209c0 8.275 6.725 15 15 15h32.5c6.9 0 12.5-5.6 12.5-12.5 0-6.6-5.125-11.95-11.625-12.4Z" fill="#fff"/><rect x="5.5" y="125.5" width="177" height="192" rx="2.5" stroke="#fff"/><path d="M235.92 152.68v2.531h2.566v1.353h-2.566v5.151c0 .363.094.65.281.861.188.211.475.317.861.317.352 0 .645-.041.879-.123.235-.094.44-.194.616-.299v1.177a2.915 2.915 0 0 1-.756.44c-.258.117-.61.176-1.055.176-.75 0-1.318-.223-1.705-.668-.375-.457-.562-1.061-.562-1.811v-5.221h-1.688v-.421c.574-.258 1.055-.68 1.441-1.266.387-.598.727-1.33 1.02-2.197h.668Zm12.375 2.531v5.203c0 .774-.164 1.441-.492 2.004a3.402 3.402 0 0 1-1.336 1.301c-.563.304-1.196.457-1.899.457-.703 0-1.336-.153-1.898-.457a3.395 3.395 0 0 1-1.336-1.301c-.328-.563-.492-1.23-.492-2.004v-5.203h1.494v5.203c0 .762.223 1.348.668 1.758.457.398.978.598 1.564.598.586 0 1.102-.2 1.547-.598.457-.41.686-.996.686-1.758v-5.203h1.494Zm4.166 0v1.758c.34-.586.75-1.055 1.23-1.407.481-.351.973-.527 1.477-.527.34 0 .644.059.914.176v1.67c-.375-.223-.75-.334-1.125-.334-.598 0-1.084.211-1.459.633a9.204 9.204 0 0 0-1.037 1.511V164h-1.441v-8.789h1.441Zm6.908 0v1.389c.188-.235.428-.469.721-.704.293-.246.621-.451.984-.615a2.868 2.868 0 0 1 1.16-.246c.598 0 1.143.135 1.635.404.492.258.885.657 1.178 1.196.293.527.439 1.195.439 2.004V164h-1.441l-.018-5.221c0-.761-.17-1.341-.509-1.74-.329-.398-.838-.598-1.53-.598-.468 0-.937.176-1.406.528-.457.34-.861.738-1.213 1.195V164h-1.441v-8.789h1.441Zm12.463-.176c.902 0 1.652.188 2.25.563a3.45 3.45 0 0 1 1.336 1.529c.305.644.457 1.371.457 2.18v.861h-6.75c.07.492.24.943.51 1.353.269.411.621.739 1.054.985.434.234.932.351 1.495.351a3.51 3.51 0 0 0 1.775-.474 6.703 6.703 0 0 0 1.389-1.072l-.018 1.564c-.164.199-.41.41-.738.633a4.608 4.608 0 0 1-1.108.527c-.41.153-.843.229-1.3.229-.891 0-1.682-.211-2.373-.633a4.646 4.646 0 0 1-1.635-1.67 4.698 4.698 0 0 1-.58-2.303c0-.832.181-1.599.545-2.303a4.43 4.43 0 0 1 1.494-1.687c.644-.422 1.377-.633 2.197-.633Zm0 1.406c-.727 0-1.324.247-1.793.739a3.22 3.22 0 0 0-.879 1.758h5.291c-.058-.575-.222-1.043-.492-1.407a2.405 2.405 0 0 0-.949-.808 2.597 2.597 0 0 0-1.178-.282Zm14.361-5.097V164h-1.441v-1.494a4.307 4.307 0 0 1-1.248 1.23c-.516.352-1.108.528-1.775.528-.75 0-1.436-.188-2.057-.563a4.28 4.28 0 0 1-1.494-1.599c-.364-.68-.545-1.465-.545-2.356 0-.973.181-1.81.545-2.514.375-.703.884-1.242 1.529-1.617a4.128 4.128 0 0 1 2.162-.58c.504 0 1.014.123 1.529.369a3.92 3.92 0 0 1 1.354.985v-5.045h1.441Zm-4.06 5.133c-.633 0-1.172.158-1.617.474a3.101 3.101 0 0 0-1.037 1.195 3.669 3.669 0 0 0-.352 1.6c0 .563.117 1.084.352 1.565.234.468.562.843.984 1.125.433.281.932.421 1.494.421.539 0 1.02-.14 1.441-.421a2.941 2.941 0 0 0 1.002-1.161 3.63 3.63 0 0 0 .352-1.687l-.018-1.688c-.363-.457-.755-.808-1.177-1.054-.411-.246-.885-.369-1.424-.369Zm16.295-1.442c.89 0 1.681.211 2.373.633.691.422 1.23.984 1.617 1.687a4.6 4.6 0 0 1 .598 2.303c0 .832-.2 1.6-.598 2.303a4.518 4.518 0 0 1-1.617 1.67c-.692.422-1.483.633-2.373.633-.891 0-1.682-.211-2.373-.633a4.646 4.646 0 0 1-1.635-1.67 4.698 4.698 0 0 1-.58-2.303 4.7 4.7 0 0 1 .58-2.303 4.6 4.6 0 0 1 1.635-1.687c.691-.422 1.482-.633 2.373-.633Zm0 1.406c-.621 0-1.166.153-1.635.457a3.015 3.015 0 0 0-1.09 1.178 3.422 3.422 0 0 0-.369 1.582c0 .563.123 1.09.369 1.582a3.18 3.18 0 0 0 1.09 1.178c.469.293 1.014.439 1.635.439.633 0 1.177-.146 1.634-.439a3.04 3.04 0 0 0 1.073-1.178 3.355 3.355 0 0 0 .386-1.582c0-.574-.128-1.101-.386-1.582a2.888 2.888 0 0 0-1.073-1.178c-.457-.304-1.001-.457-1.634-.457Zm8.402-1.23v1.389c.188-.235.428-.469.721-.704.293-.246.621-.451.984-.615a2.868 2.868 0 0 1 1.16-.246c.598 0 1.143.135 1.635.404.492.258.885.657 1.178 1.196.293.527.439 1.195.439 2.004V164h-1.441l-.018-5.221c0-.761-.17-1.341-.509-1.74-.329-.398-.838-.598-1.53-.598-.469 0-.937.176-1.406.528-.457.34-.861.738-1.213 1.195V164h-1.441v-8.789h1.441Zm15.522-4.219c.339 0 .621.123.843.369.235.235.352.51.352.827 0 .304-.117.58-.352.826a1.088 1.088 0 0 1-.843.369c-.34 0-.627-.123-.862-.369a1.205 1.205 0 0 1-.334-.826c0-.317.112-.592.334-.827.235-.246.522-.369.862-.369Zm.896 4.219V164h-1.441v-7.436h-1.389v-1.353h2.83Zm4.553 0v1.389c.187-.235.428-.469.72-.704.293-.246.622-.451.985-.615a2.868 2.868 0 0 1 1.16-.246c.598 0 1.143.135 1.635.404.492.258.885.657 1.178 1.196.292.527.439 1.195.439 2.004V164h-1.441l-.018-5.221c0-.761-.17-1.341-.51-1.74-.328-.398-.838-.598-1.529-.598-.469 0-.938.176-1.406.528-.457.34-.862.738-1.213 1.195V164h-1.442v-8.789h1.442Zm18.58-.176c.762 0 1.447.188 2.057.563a3.91 3.91 0 0 1 1.476 1.547c.375.656.563 1.429.563 2.32 0 .961-.188 1.805-.563 2.531a4.089 4.089 0 0 1-1.512 1.67c-.632.398-1.353.598-2.162.598-.504 0-1.019-.135-1.547-.405a4.651 4.651 0 0 1-1.336-1.037v5.397h-1.441v-13.008h1.441v1.494a3.83 3.83 0 0 1 1.231-1.178 3.324 3.324 0 0 1 1.793-.492Zm-.229 1.406c-.527 0-1.007.135-1.441.405a2.827 2.827 0 0 0-1.002 1.125c-.234.468-.352 1.019-.352 1.652l.018 1.688c.375.457.768.832 1.178 1.125.41.281.885.421 1.424.421.632 0 1.171-.164 1.617-.492.445-.328.785-.75 1.019-1.265a3.83 3.83 0 0 0 .369-1.635c0-.574-.117-1.084-.351-1.529a2.767 2.767 0 0 0-.985-1.09c-.421-.27-.919-.405-1.494-.405Zm8.139-1.23v1.758c.34-.586.75-1.055 1.23-1.407.481-.351.973-.527 1.477-.527.34 0 .645.059.914.176v1.67c-.375-.223-.75-.334-1.125-.334-.598 0-1.084.211-1.459.633a9.204 9.204 0 0 0-1.037 1.511V164h-1.441v-8.789h1.441Zm9.439-.176c.891 0 1.682.211 2.374.633.691.422 1.23.984 1.617 1.687.398.704.597 1.471.597 2.303 0 .832-.199 1.6-.597 2.303a4.518 4.518 0 0 1-1.617 1.67c-.692.422-1.483.633-2.374.633-.89 0-1.681-.211-2.373-.633a4.651 4.651 0 0 1-1.634-1.67 4.698 4.698 0 0 1-.58-2.303 4.7 4.7 0 0 1 .58-2.303 4.605 4.605 0 0 1 1.634-1.687c.692-.422 1.483-.633 2.373-.633Zm0 1.406c-.621 0-1.166.153-1.634.457a3.015 3.015 0 0 0-1.09 1.178 3.422 3.422 0 0 0-.369 1.582c0 .563.123 1.09.369 1.582a3.18 3.18 0 0 0 1.09 1.178c.468.293 1.013.439 1.634.439.633 0 1.178-.146 1.635-.439a3.047 3.047 0 0 0 1.073-1.178 3.367 3.367 0 0 0 .386-1.582c0-.574-.129-1.101-.386-1.582a2.895 2.895 0 0 0-1.073-1.178c-.457-.304-1.002-.457-1.635-.457Zm14.907-5.097V164h-1.442v-1.494c-.304.469-.72.879-1.248 1.23-.515.352-1.107.528-1.775.528-.75 0-1.436-.188-2.057-.563a4.28 4.28 0 0 1-1.494-1.599c-.363-.68-.545-1.465-.545-2.356 0-.973.182-1.81.545-2.514.375-.703.885-1.242 1.529-1.617a4.13 4.13 0 0 1 2.162-.58c.504 0 1.014.123 1.53.369.527.235.978.563 1.353.985v-5.045h1.442Zm-4.061 5.133c-.633 0-1.172.158-1.617.474a3.11 3.11 0 0 0-1.037 1.195 3.683 3.683 0 0 0-.352 1.6c0 .563.118 1.084.352 1.565.234.468.562.843.984 1.125.434.281.932.421 1.494.421.539 0 1.02-.14 1.442-.421a2.941 2.941 0 0 0 1.002-1.161 3.63 3.63 0 0 0 .351-1.687l-.017-1.688c-.364-.457-.756-.808-1.178-1.054-.41-.246-.885-.369-1.424-.369ZM322.375 199.1c-1.7-8.625-9.275-15.1-18.375-15.1-7.225 0-13.5 4.1-16.625 10.1-7.525.8-13.375 7.175-13.375 14.9 0 8.275 6.725 15 15 15h32.5c6.9 0 12.5-5.6 12.5-12.5 0-6.6-5.125-11.95-11.625-12.4Z" fill="#fff"/><rect x="221.5" y="125.5" width="171" height="192" rx="2.5" stroke="#fff"/><path d="M445.718 152.68v2.531h2.566v1.353h-2.566v5.151c0 .363.094.65.281.861.188.211.475.317.861.317.352 0 .645-.041.879-.123.235-.094.44-.194.615-.299v1.177a2.893 2.893 0 0 1-.755.44c-.258.117-.61.176-1.055.176-.75 0-1.318-.223-1.705-.668-.375-.457-.563-1.061-.563-1.811v-5.221h-1.687v-.421c.574-.258 1.055-.68 1.441-1.266.387-.598.727-1.33 1.02-2.197h.668Zm12.375 2.531v5.203c0 .774-.164 1.441-.492 2.004a3.409 3.409 0 0 1-1.336 1.301c-.563.304-1.196.457-1.899.457-.703 0-1.336-.153-1.898-.457a3.395 3.395 0 0 1-1.336-1.301c-.328-.563-.492-1.23-.492-2.004v-5.203h1.494v5.203c0 .762.222 1.348.668 1.758.457.398.978.598 1.564.598.586 0 1.102-.2 1.547-.598.457-.41.686-.996.686-1.758v-5.203h1.494Zm4.166 0v1.758c.34-.586.75-1.055 1.23-1.407.481-.351.973-.527 1.477-.527.34 0 .644.059.914.176v1.67c-.375-.223-.75-.334-1.125-.334-.598 0-1.084.211-1.459.633a9.204 9.204 0 0 0-1.037 1.511V164h-1.442v-8.789h1.442Zm6.908 0v1.389a4.57 4.57 0 0 1 .721-.704c.293-.246.621-.451.984-.615a2.868 2.868 0 0 1 1.16-.246c.598 0 1.143.135 1.635.404.492.258.885.657 1.178 1.196.293.527.439 1.195.439 2.004V164h-1.441l-.018-5.221c0-.761-.17-1.341-.51-1.74-.328-.398-.837-.598-1.529-.598-.469 0-.937.176-1.406.528-.457.34-.861.738-1.213 1.195V164h-1.441v-8.789h1.441Zm12.463-.176c.902 0 1.652.188 2.25.563a3.45 3.45 0 0 1 1.336 1.529c.305.644.457 1.371.457 2.18v.861h-6.75c.07.492.24.943.51 1.353.269.411.621.739 1.054.985.434.234.932.351 1.494.351.633 0 1.225-.158 1.776-.474a6.703 6.703 0 0 0 1.389-1.072l-.018 1.564c-.164.199-.41.41-.738.633a4.608 4.608 0 0 1-1.108.527c-.41.153-.844.229-1.301.229-.89 0-1.681-.211-2.373-.633a4.651 4.651 0 0 1-1.634-1.67 4.698 4.698 0 0 1-.58-2.303c0-.832.181-1.599.544-2.303a4.44 4.44 0 0 1 1.495-1.687c.644-.422 1.377-.633 2.197-.633Zm0 1.406c-.727 0-1.324.247-1.793.739a3.22 3.22 0 0 0-.879 1.758h5.291c-.059-.575-.223-1.043-.492-1.407a2.405 2.405 0 0 0-.949-.808 2.597 2.597 0 0 0-1.178-.282Zm14.361-5.097V164h-1.441v-1.494a4.307 4.307 0 0 1-1.248 1.23c-.516.352-1.108.528-1.776.528-.75 0-1.435-.188-2.056-.563a4.28 4.28 0 0 1-1.494-1.599c-.364-.68-.545-1.465-.545-2.356 0-.973.181-1.81.545-2.514.375-.703.884-1.242 1.529-1.617a4.126 4.126 0 0 1 2.162-.58c.504 0 1.014.123 1.529.369a3.92 3.92 0 0 1 1.354.985v-5.045h1.441Zm-4.06 5.133c-.633 0-1.172.158-1.618.474a3.11 3.11 0 0 0-1.037 1.195 3.682 3.682 0 0 0-.351 1.6c0 .563.117 1.084.351 1.565.235.468.563.843.985 1.125.433.281.931.421 1.494.421a2.54 2.54 0 0 0 1.441-.421 2.941 2.941 0 0 0 1.002-1.161 3.63 3.63 0 0 0 .352-1.687l-.018-1.688c-.363-.457-.756-.808-1.178-1.054-.41-.246-.884-.369-1.423-.369Zm16.295-1.442c.89 0 1.681.211 2.373.633.691.422 1.23.984 1.617 1.687.398.704.597 1.471.597 2.303 0 .832-.199 1.6-.597 2.303a4.518 4.518 0 0 1-1.617 1.67c-.692.422-1.483.633-2.373.633-.891 0-1.682-.211-2.373-.633a4.646 4.646 0 0 1-1.635-1.67 4.698 4.698 0 0 1-.58-2.303 4.7 4.7 0 0 1 .58-2.303 4.6 4.6 0 0 1 1.635-1.687c.691-.422 1.482-.633 2.373-.633Zm0 1.406c-.622 0-1.166.153-1.635.457a3.015 3.015 0 0 0-1.09 1.178 3.422 3.422 0 0 0-.369 1.582c0 .563.123 1.09.369 1.582a3.18 3.18 0 0 0 1.09 1.178c.469.293 1.013.439 1.635.439.632 0 1.177-.146 1.634-.439a3.04 3.04 0 0 0 1.073-1.178 3.367 3.367 0 0 0 .386-1.582c0-.574-.129-1.101-.386-1.582a2.888 2.888 0 0 0-1.073-1.178c-.457-.304-1.002-.457-1.634-.457Zm11.513-1.23v1.353h-2.566V164h-1.442v-7.436h-1.388v-1.353h1.388v-1.125c0-.691.135-1.254.405-1.688a2.527 2.527 0 0 1 1.037-.984 2.717 2.717 0 0 1 1.283-.334c.598 0 1.084.158 1.459.475v1.265a2.249 2.249 0 0 0-.633-.281c-.246-.07-.492-.1-.738-.088-.434.012-.773.153-1.02.422-.234.258-.351.715-.351 1.371v.967h2.566Zm6.469 0v1.353h-2.566V164H522.2v-7.436h-1.388v-1.353h1.388v-1.125c0-.691.135-1.254.404-1.688.27-.445.616-.773 1.038-.984a2.714 2.714 0 0 1 1.283-.334c.597 0 1.084.158 1.459.475v1.265a2.249 2.249 0 0 0-.633-.281c-.246-.07-.492-.1-.738-.088-.434.012-.774.153-1.02.422-.234.258-.351.715-.351 1.371v.967h2.566Zm8.596-4.219c.34 0 .621.123.843.369.235.235.352.51.352.827 0 .304-.117.58-.352.826a1.086 1.086 0 0 1-.843.369c-.34 0-.627-.123-.862-.369a1.205 1.205 0 0 1-.334-.826c0-.317.112-.592.334-.827.235-.246.522-.369.862-.369Zm.896 4.219V164h-1.441v-7.436h-1.389v-1.353h2.83Zm4.553 0v1.389a4.57 4.57 0 0 1 .721-.704c.293-.246.621-.451.984-.615a2.868 2.868 0 0 1 1.16-.246c.598 0 1.143.135 1.635.404.492.258.885.657 1.178 1.196.293.527.439 1.195.439 2.004V164h-1.441l-.018-5.221c0-.761-.17-1.341-.51-1.74-.328-.398-.838-.598-1.529-.598-.469 0-.937.176-1.406.528-.457.34-.862.738-1.213 1.195V164h-1.441v-8.789h1.441Zm22.06-3.867V164h-1.441v-1.494a4.307 4.307 0 0 1-1.248 1.23c-.516.352-1.107.528-1.775.528-.75 0-1.436-.188-2.057-.563a4.28 4.28 0 0 1-1.494-1.599c-.363-.68-.545-1.465-.545-2.356 0-.973.182-1.81.545-2.514.375-.703.885-1.242 1.529-1.617a4.128 4.128 0 0 1 2.162-.58c.504 0 1.014.123 1.53.369.527.235.978.563 1.353.985v-5.045h1.441Zm-4.06 5.133c-.633 0-1.172.158-1.617.474a3.101 3.101 0 0 0-1.037 1.195 3.669 3.669 0 0 0-.352 1.6c0 .563.117 1.084.352 1.565.234.468.562.843.984 1.125.434.281.932.421 1.494.421.539 0 1.02-.14 1.442-.421a2.957 2.957 0 0 0 1.002-1.161 3.63 3.63 0 0 0 .351-1.687l-.018-1.688c-.363-.457-.755-.808-1.177-1.054-.41-.246-.885-.369-1.424-.369Zm10.67-1.442c.902 0 1.652.188 2.25.563a3.45 3.45 0 0 1 1.336 1.529c.304.644.457 1.371.457 2.18v.861h-6.75c.07.492.24.943.51 1.353.269.411.621.739 1.054.985.434.234.932.351 1.494.351.633 0 1.225-.158 1.776-.474a6.696 6.696 0 0 0 1.388-1.072l-.017 1.564c-.164.199-.41.41-.738.633a4.608 4.608 0 0 1-1.108.527c-.41.153-.844.229-1.301.229-.89 0-1.681-.211-2.373-.633a4.651 4.651 0 0 1-1.634-1.67 4.698 4.698 0 0 1-.58-2.303c0-.832.181-1.599.544-2.303a4.44 4.44 0 0 1 1.495-1.687c.644-.422 1.377-.633 2.197-.633Zm0 1.406c-.727 0-1.324.247-1.793.739a3.22 3.22 0 0 0-.879 1.758h5.291c-.059-.575-.223-1.043-.492-1.407a2.405 2.405 0 0 0-.949-.808 2.597 2.597 0 0 0-1.178-.282Zm10.969-1.23v1.353h-2.567V164h-1.441v-7.436h-1.389v-1.353h1.389v-1.125c0-.691.135-1.254.404-1.688.27-.445.615-.773 1.037-.984a2.72 2.72 0 0 1 1.283-.334c.598 0 1.084.158 1.459.475v1.265a2.23 2.23 0 0 0-.632-.281c-.247-.07-.493-.1-.739-.088-.433.012-.773.153-1.019.422-.235.258-.352.715-.352 1.371v.967h2.567Zm5.537-.176a3.53 3.53 0 0 1 1.529.369c.527.235.979.563 1.354.985v-1.178h1.441V164h-1.441v-1.494a4.299 4.299 0 0 1-1.249 1.23c-.515.352-1.107.528-1.775.528-.75 0-1.435-.188-2.057-.563a4.28 4.28 0 0 1-1.494-1.599c-.363-.68-.545-1.465-.545-2.356 0-.973.182-1.81.545-2.514.375-.703.885-1.242 1.53-1.617a4.126 4.126 0 0 1 2.162-.58Zm.263 1.406c-.632 0-1.171.159-1.617.475a3.215 3.215 0 0 0-1.037 1.23 3.682 3.682 0 0 0-.351 1.6c0 .563.117 1.084.351 1.565.234.468.563.843.984 1.125.434.281.932.421 1.495.421a2.54 2.54 0 0 0 1.441-.421 2.941 2.941 0 0 0 1.002-1.161 3.643 3.643 0 0 0 .352-1.687l-.018-1.688a4.552 4.552 0 0 0-1.178-1.072c-.41-.258-.885-.387-1.424-.387Zm14.239-1.23v5.203c0 .774-.164 1.441-.493 2.004a3.4 3.4 0 0 1-1.335 1.301c-.563.304-1.196.457-1.899.457-.703 0-1.336-.153-1.898-.457a3.395 3.395 0 0 1-1.336-1.301c-.328-.563-.492-1.23-.492-2.004v-5.203h1.494v5.203c0 .762.222 1.348.668 1.758.457.398.978.598 1.564.598.586 0 1.102-.2 1.547-.598.457-.41.686-.996.686-1.758v-5.203h1.494Zm4.166-3.867V164h-1.442v-12.656h1.442Zm5.414 1.336v2.531h2.566v1.353h-2.566v5.151c0 .363.093.65.281.861.187.211.475.317.861.317.352 0 .645-.041.879-.123.235-.094.44-.194.615-.299v1.177a2.893 2.893 0 0 1-.755.44c-.258.117-.61.176-1.055.176-.75 0-1.318-.223-1.705-.668-.375-.457-.563-1.061-.563-1.811v-5.221h-1.687v-.421c.574-.258 1.055-.68 1.441-1.266.387-.598.727-1.33 1.02-2.197h.668ZM543.375 199.1c-1.7-8.625-9.275-15.1-18.375-15.1-7.225 0-13.5 4.1-16.625 10.1-7.525.8-13.375 7.175-13.375 14.9 0 8.275 6.725 15 15 15h32.5c6.9 0 12.5-5.6 12.5-12.5 0-6.6-5.125-11.95-11.625-12.4ZM104.293 117.707a.999.999 0 0 0 1.414 0l6.364-6.364a.999.999 0 1 0-1.414-1.414L105 115.586l-5.657-5.657a1 1 0 1 0-1.414 1.414l6.364 6.364ZM104 76v41h2V76h-2ZM303.293 118.707a.999.999 0 0 0 1.414 0l6.364-6.364a.999.999 0 1 0-1.414-1.414L304 116.586l-5.657-5.657a.999.999 0 1 0-1.414 1.414l6.364 6.364ZM303 77v41h2V77h-2ZM514.293 118.707a.999.999 0 0 0 1.414 0l6.364-6.364a.999.999 0 1 0-1.414-1.414L515 116.586l-5.657-5.657a.999.999 0 1 0-1.414 1.414l6.364 6.364ZM514 77v41h2V77h-2Z" fill="#fff"/><path stroke="#fff" stroke-width="2" d="m495.625 183.219 60 48"/><rect x="435.5" y="125.5" width="184" height="192" rx="2.5" stroke="#fff"/></svg>