<svg width="45" height="61" viewBox="0 0 45 61" fill="none" xmlns="http://www.w3.org/2000/svg">
<path opacity="0.789" d="M29.701 38.852C25.591 37.941 24.679 37.007 23.764 32.915C23.664 32.469 23.764 32 23.306 32C22.848 32 22.937 32.469 22.848 32.915C21.937 37.044 21.022 37.94 16.911 38.852C16.465 38.952 16 38.852 16 39.31C16 39.768 16.465 39.679 16.911 39.768C21.021 40.679 21.936 41.613 22.848 45.705C22.948 46.151 22.848 46.62 23.306 46.62C23.764 46.62 23.675 46.151 23.764 45.705C24.679 41.595 25.609 40.68 29.701 39.768C30.147 39.668 30.616 39.768 30.616 39.31C30.616 38.852 30.148 38.952 29.701 38.852Z" fill="white"/>
<path opacity="0.4" d="M10.686 52.1838C7.46503 51.4728 6.75403 50.7558 6.06003 47.5578C5.97903 47.2048 6.06003 46.8408 5.70103 46.8408C5.34203 46.8408 5.41803 47.2048 5.34203 47.5578C4.62503 50.7788 3.90803 51.4958 0.716026 52.1838C0.369026 52.2648 -0.000976562 52.1838 -0.000976562 52.5428C-0.000976562 52.9018 0.369026 52.8258 0.716026 52.9018C3.93703 53.6188 4.65403 54.3358 5.34203 57.5568C5.41703 57.9038 5.34203 58.2738 5.70103 58.2738C6.06003 58.2738 5.97903 57.9038 6.06003 57.5568C6.77703 54.3358 7.48803 53.6188 10.686 52.9018C11.039 52.8268 11.403 52.9018 11.403 52.5428C11.403 52.1838 11.039 52.2648 10.686 52.1838Z" fill="white"/>
<path opacity="0.739" d="M34.19 12.595C31.434 11.981 30.825 11.37 30.209 8.612C30.142 8.312 30.209 8 29.902 8C29.595 8 29.662 8.313 29.595 8.612C28.983 11.37 28.37 11.977 25.614 12.595C25.314 12.66 25 12.595 25 12.902C25 13.209 25.315 13.142 25.614 13.202C28.37 13.816 28.979 14.427 29.595 17.185C29.662 17.485 29.595 17.797 29.902 17.797C30.209 17.797 30.142 17.484 30.209 17.185C30.821 14.427 31.434 13.82 34.19 13.202C34.49 13.137 34.804 13.202 34.804 12.902C34.804 12.602 34.49 12.66 34.19 12.595Z" fill="white"/>
<path opacity="0.7" d="M38.666 55.832C36.366 55.32 35.859 54.81 35.345 52.51C35.289 52.261 35.345 52 35.089 52C34.833 52 34.889 52.261 34.833 52.51C34.323 54.81 33.811 55.317 31.512 55.832C31.263 55.886 31 55.832 31 56.088C31 56.344 31.263 56.288 31.512 56.342C33.812 56.854 34.319 57.364 34.833 59.664C34.889 59.913 34.833 60.174 35.089 60.174C35.345 60.174 35.289 59.913 35.345 59.664C35.855 57.364 36.367 56.857 38.666 56.342C38.917 56.287 39.178 56.342 39.178 56.088C39.178 55.834 38.917 55.886 38.666 55.832Z" fill="white"/>
<path opacity="0.855" d="M19.336 2.668C17.736 2.312 17.382 1.95598 17.024 0.35498C16.985 0.18098 17.024 0 16.846 0C16.668 0 16.707 0.18198 16.668 0.35498C16.313 1.95498 15.956 2.309 14.356 2.668C14.182 2.706 14 2.66798 14 2.84598C14 3.02398 14.183 2.98498 14.356 3.02298C15.956 3.37898 16.31 3.735 16.668 5.336C16.707 5.51 16.668 5.69098 16.846 5.69098C17.024 5.69098 16.985 5.509 17.024 5.336C17.379 3.736 17.736 3.38198 19.336 3.02298C19.511 2.98498 19.692 3.02298 19.692 2.84598C19.692 2.66898 19.511 2.706 19.336 2.668Z" fill="white"/>
<path opacity="0.855" d="M11.336 25.668C9.736 25.312 9.382 24.956 9.024 23.355C8.985 23.181 9.024 23 8.846 23C8.668 23 8.707 23.182 8.668 23.355C8.313 24.955 7.956 25.309 6.356 25.668C6.182 25.706 6 25.668 6 25.846C6 26.024 6.183 25.985 6.356 26.023C7.956 26.379 8.31 26.735 8.668 28.336C8.707 28.51 8.668 28.691 8.846 28.691C9.024 28.691 8.985 28.509 9.024 28.336C9.379 26.736 9.736 26.382 11.336 26.023C11.511 25.985 11.692 26.023 11.692 25.846C11.692 25.669 11.511 25.706 11.336 25.668Z" fill="white"/>
<path opacity="0.5" d="M44.336 28.668C42.736 28.312 42.382 27.956 42.024 26.355C41.985 26.181 42.024 26 41.846 26C41.668 26 41.707 26.182 41.668 26.355C41.313 27.955 40.956 28.309 39.356 28.668C39.182 28.706 39 28.668 39 28.846C39 29.024 39.183 28.985 39.356 29.023C40.956 29.379 41.31 29.735 41.668 31.336C41.707 31.51 41.668 31.691 41.846 31.691C42.024 31.691 41.985 31.509 42.024 31.336C42.379 29.736 42.736 29.382 44.336 29.023C44.511 28.985 44.692 29.023 44.692 28.846C44.692 28.669 44.511 28.706 44.336 28.668Z" fill="white"/>
</svg>
