<svg width="161" height="161" viewBox="0 0 161 161" fill="none" xmlns="http://www.w3.org/2000/svg">
<path d="M80.6201 160.62C124.803 160.62 160.62 124.803 160.62 80.62C160.62 36.4372 124.803 0.619995 80.6201 0.619995C36.4373 0.619995 0.620117 36.4372 0.620117 80.62C0.620117 124.803 36.4373 160.62 80.6201 160.62Z" fill="white"/>
<path d="M92.0501 46.33V92.05H114.9V46.33H92.0501ZM69.1901 69.19V46.33H46.3301V114.9H92.0501V92.05H69.1901V69.19Z" fill="white"/>
<path d="M92.0501 46.33V92.05H114.9V46.33H92.0501ZM69.1901 69.19V46.33H46.3301V114.9H92.0501V92.05H69.1901V69.19Z" fill="#1A4049"/>
<path d="M92.05 92.05H114.91V114.91H92.05V92.05Z" fill="#817AFE"/>
</svg>
