<svg width="24" height="24" viewBox="0 0 24 24" fill="currentColor" xmlns="http://www.w3.org/2000/svg">
<path fill-rule="evenodd" clip-rule="evenodd" d="M4.10831 2.60839C3.71687 2.23054 3.09322 2.23475 2.70696 2.62102C2.31643 3.01154 2.31643 3.64471 2.70696 4.03523L10.414 11.7423L10.6238 13.7566C10.6974 14.4631 11.293 14.9998 12.0033 14.9998C12.4551 14.9998 12.8605 14.7827 13.1147 14.4429L19.6775 21.0058C20.068 21.3963 20.7012 21.3963 21.0917 21.0058C21.478 20.6195 21.4822 19.9959 21.1044 19.6044C21.1001 19.6003 21.0958 19.5961 21.0916 19.5919L4.12102 2.62132C4.11674 2.61704 4.1125 2.61273 4.10831 2.60839ZM13.8264 9.4983L14.2443 5.4864C14.3828 4.15689 13.34 2.99985 12.0033 2.99985C10.6859 2.99985 9.65401 4.12375 9.7571 5.42898L13.8264 9.4983ZM12.0033 16.9998C11.0368 16.9998 10.2533 17.7834 10.2533 18.7498C10.2533 19.7163 11.0368 20.4998 12.0033 20.4998C12.9698 20.4998 13.7533 19.7163 13.7533 18.7498C13.7533 17.7834 12.9698 16.9998 12.0033 16.9998Z"/>
</svg>
