<svg width="24" height="24" viewBox="0 0 24 24" fill="currentColor" xmlns="http://www.w3.org/2000/svg">
<path fill-rule="evenodd" clip-rule="evenodd" d="M4.10831 2.60839C3.71687 2.23054 3.09322 2.23475 2.70696 2.62102C2.31643 3.01154 2.31643 3.64471 2.70696 4.03523L8.65871 9.98698L7.07 13.6598C6.8 14.2898 7.27 14.9998 7.96 14.9998C8.35 14.9998 8.7 14.7598 8.85 14.3998L9.5 12.7998H11.4716L15.6716 16.9998H6C5.45 16.9998 5 17.4498 5 17.9998C5 18.5498 5.45 18.9998 6 18.9998H17.6716L19.6775 21.0058C20.068 21.3963 20.7012 21.3963 21.0917 21.0058C21.478 20.6195 21.4822 19.9959 21.1044 19.6044C21.1001 19.6003 21.0958 19.5961 21.0916 19.5919L4.12102 2.62132C4.11674 2.61704 4.1125 2.61273 4.10831 2.60839ZM16.1235 11.7954L13.05 4.68985C12.87 4.26985 12.46 3.99985 12 3.99985C11.54 3.99985 11.13 4.26985 10.95 4.68985L10.3666 6.03851L11.5408 7.21265L12 5.97985L13.0045 8.67635L16.1235 11.7954Z" />
</svg>
