<svg width="22" height="19" viewBox="0 0 22 19" fill="none" xmlns="http://www.w3.org/2000/svg">
<path d="M19 7V5C19 3.9 18.1 3 17 3H14C14 1.34 12.66 0 11 0C9.34 0 8 1.34 8 3H5C3.9 3 3 3.9 3 5V7C1.34 7 0 8.34 0 10C0 11.66 1.34 13 3 13V17C3 18.1 3.9 19 5 19H17C18.1 19 19 18.1 19 17V13C20.66 13 22 11.66 22 10C22 8.34 20.66 7 19 7ZM17 17H5V5H17V17ZM8 11C7.17 11 6.5 10.33 6.5 9.5C6.5 8.67 7.17 8 8 8C8.83 8 9.5 8.67 9.5 9.5C9.5 10.33 8.83 11 8 11ZM15.5 9.5C15.5 10.33 14.83 11 14 11C13.17 11 12.5 10.33 12.5 9.5C12.5 8.67 13.17 8 14 8C14.83 8 15.5 8.67 15.5 9.5ZM7 13L11 14L15 13C15 13 15.5 14 15 14.5C14.5 15 11 15.5 11 15.5C11 15.5 7.5 15 7 14.5C6.5 14 7 13 7 13Z" fill="white"/>
</svg>
