<svg width="24" height="24" viewBox="0 0 24 24" fill="none" xmlns="http://www.w3.org/2000/svg">
<path d="M6.59961 14.45L5.87461 16.475C5.82461 16.6417 5.73294 16.7708 5.59961 16.8625C5.46628 16.9542 5.31628 17 5.14961 17C4.86628 17 4.64128 16.8833 4.47461 16.65C4.30794 16.4167 4.27461 16.1667 4.37461 15.9L7.52461 7.55C7.59128 7.38333 7.69128 7.25 7.82461 7.15C7.95794 7.05 8.11628 7 8.29961 7H8.94961C9.13294 7 9.29128 7.05 9.42461 7.15C9.55794 7.25 9.65794 7.38333 9.72461 7.55L12.8746 15.925C12.9746 16.1917 12.9454 16.4375 12.7871 16.6625C12.6288 16.8875 12.4079 17 12.1246 17C11.9413 17 11.7829 16.95 11.6496 16.85C11.5163 16.75 11.4163 16.6167 11.3496 16.45L10.6496 14.45H6.59961ZM7.12461 13H10.1246L8.67461 8.85H8.57461L7.12461 13ZM16.3496 17.275C15.5329 17.275 14.8913 17.0625 14.4246 16.6375C13.9579 16.2125 13.7246 15.6333 13.7246 14.9C13.7246 14.2 13.9954 13.6292 14.5371 13.1875C15.0788 12.7458 15.7746 12.525 16.6246 12.525C17.0079 12.525 17.3621 12.5542 17.6871 12.6125C18.0121 12.6708 18.2913 12.7667 18.5246 12.9V12.55C18.5246 12.1 18.3704 11.7417 18.0621 11.475C17.7538 11.2083 17.3329 11.075 16.7996 11.075C16.5496 11.075 16.3121 11.1125 16.0871 11.1875C15.8621 11.2625 15.6579 11.3667 15.4746 11.5C15.3246 11.6167 15.1579 11.6833 14.9746 11.7C14.7913 11.7167 14.6246 11.6667 14.4746 11.55C14.3246 11.4333 14.2371 11.2875 14.2121 11.1125C14.1871 10.9375 14.2413 10.7833 14.3746 10.65C14.6913 10.3667 15.0496 10.15 15.4496 10C15.8496 9.85 16.3079 9.775 16.8246 9.775C17.8579 9.775 18.6496 10.0208 19.1996 10.5125C19.7496 11.0042 20.0246 11.7167 20.0246 12.65V16.45C20.0246 16.65 19.9538 16.8208 19.8121 16.9625C19.6704 17.1042 19.4996 17.175 19.2996 17.175C19.0996 17.175 18.9246 17.1 18.7746 16.95C18.6246 16.8 18.5496 16.625 18.5496 16.425V16.2H18.4746C18.2579 16.5333 17.9663 16.7958 17.5996 16.9875C17.2329 17.1792 16.8163 17.275 16.3496 17.275ZM16.5996 16.025C17.1329 16.025 17.5871 15.8375 17.9621 15.4625C18.3371 15.0875 18.5246 14.6333 18.5246 14.1C18.2913 13.9667 18.0246 13.8667 17.7246 13.8C17.4246 13.7333 17.1496 13.7 16.8996 13.7C16.3663 13.7 15.9579 13.8042 15.6746 14.0125C15.3913 14.2208 15.2496 14.5167 15.2496 14.9C15.2496 15.2333 15.3746 15.5042 15.6246 15.7125C15.8746 15.9208 16.1996 16.025 16.5996 16.025Z" fill="#9F9FA1"/>
<rect x="15.8848" y="4.53125" width="1" height="18.3741" rx="0.5" transform="rotate(32.071 15.8848 4.53125)" fill="#6E6E70"/>
</svg>
