<svg xmlns="http://www.w3.org/2000/svg" width="24" height="24" fill="none"><path fill="#9F9FA1" d="m6.324 14.25-.739 1.971a.68.68 0 0 1-.28.378.816.816 0 0 1-.458.133.814.814 0 0 1-.688-.34.713.713 0 0 1-.102-.73l3.21-8.127a.89.89 0 0 1 .305-.389A.809.809 0 0 1 8.056 7h.662c.187 0 .348.049.484.146a.89.89 0 0 1 .305.39l3.21 8.15a.705.705 0 0 1-.09.718.79.79 0 0 1-.675.328.809.809 0 0 1-.484-.146.89.89 0 0 1-.305-.389l-.713-1.946H6.324Zm.535-1.41h3.056L8.438 8.8h-.102l-1.477 4.04ZM16.256 17c-.832 0-1.485-.207-1.96-.62-.476-.414-.714-.978-.714-1.691 0-.682.276-1.237.828-1.667.552-.43 1.26-.645 2.126-.645.39 0 .752.028 1.083.085.33.057.615.15.853.28v-.34c0-.438-.157-.787-.471-1.047-.314-.26-.743-.39-1.286-.39a2.377 2.377 0 0 0-1.35.415.981.981 0 0 1-.51.194.723.723 0 0 1-.509-.146.636.636 0 0 1-.267-.426.494.494 0 0 1 .165-.45 3.474 3.474 0 0 1 1.095-.632 4.141 4.141 0 0 1 1.401-.22c1.053 0 1.86.24 2.42.719.56.478.84 1.171.84 2.08v3.698c0 .195-.072.361-.216.499a.729.729 0 0 1-.523.207.75.75 0 0 1-.534-.22.686.686 0 0 1-.23-.51v-.22h-.076c-.22.325-.518.58-.891.767-.374.187-.798.28-1.274.28Zm.255-1.216c.543 0 1.006-.183 1.388-.548.382-.365.573-.807.573-1.326a2.985 2.985 0 0 0-.815-.292 4.071 4.071 0 0 0-.84-.097c-.544 0-.96.101-1.248.304-.289.203-.433.49-.433.864 0 .324.127.588.382.79.254.203.585.305.993.305Z"/><rect width="1" height="15.9" x="15.442" y="5" fill="#6E6E70" rx=".5" transform="rotate(32.071 15.442 5)"/></svg>
