<svg width="17" height="11" fill="#000"><path d="m2.602 7.45-.725 2.025a.696.696 0 0 1-.275.388.776.776 0 0 1-.45.137.788.788 0 0 1-.675-.35.76.76 0 0 1-.1-.75L3.527.55a.91.91 0 0 1 .3-.4.77.77 0 0 1 .475-.15h.65a.77.77 0 0 1 .475.15.91.91 0 0 1 .3.4l3.15 8.375c.1.267.07.512-.088.737a.765.765 0 0 1-.662.338.77.77 0 0 1-.475-.15.91.91 0 0 1-.3-.4l-.7-2h-4.05ZM3.127 6h3l-1.45-4.15h-.1L3.127 6Zm9.225 4.275c-.817 0-1.459-.213-1.925-.638-.467-.425-.7-1.004-.7-1.737 0-.7.27-1.27.812-1.713.542-.441 1.238-.662 2.088-.662.383 0 .737.03 1.062.087.325.059.604.155.838.288v-.35c0-.45-.155-.808-.463-1.075-.308-.267-.73-.4-1.262-.4a2.238 2.238 0 0 0-1.325.425.938.938 0 0 1-.5.2.687.687 0 0 1-.5-.15.658.658 0 0 1-.263-.438.521.521 0 0 1 .163-.462c.316-.283.675-.5 1.075-.65a3.9 3.9 0 0 1 1.375-.225c1.033 0 1.825.246 2.375.738.55.491.825 1.204.825 2.137v3.8c0 .2-.071.37-.213.513a.698.698 0 0 1-.512.212.72.72 0 0 1-.525-.225.72.72 0 0 1-.225-.525V9.2h-.075a2.285 2.285 0 0 1-.875.788 2.658 2.658 0 0 1-1.25.287Zm.25-1.25c.533 0 .987-.188 1.362-.563.375-.374.563-.829.563-1.362a2.849 2.849 0 0 0-.8-.3c-.3-.067-.575-.1-.825-.1-.534 0-.942.104-1.225.313-.284.208-.425.504-.425.887 0 .333.125.604.375.813.25.208.575.312.975.312Z"/></svg>
