<svg xmlns="http://www.w3.org/2000/svg" width="20" height="20" viewBox="0 0 20 20" fill="none">
  <path d="M4.16667 17.5C3.70833 17.5 3.31597 17.3368 2.98958 17.0104C2.66319 16.684 2.5 16.2917 2.5 15.8333V5.41667C2.5 5.22222 2.53125 5.03819 2.59375 4.86458C2.65625 4.69097 2.75 4.52778 2.875 4.375L4.04167 2.95833C4.16667 2.80556 4.30903 2.69097 4.46875 2.61458C4.62847 2.53819 4.80556 2.5 5 2.5H15C15.1944 2.5 15.3715 2.53819 15.5312 2.61458C15.691 2.69097 15.8333 2.80556 15.9583 2.95833L17.125 4.375C17.25 4.52778 17.3438 4.69097 17.4062 4.86458C17.4688 5.03819 17.5 5.22222 17.5 5.41667V15.8333C17.5 16.2917 17.3368 16.684 17.0104 17.0104C16.684 17.3368 16.2917 17.5 15.8333 17.5H4.16667ZM4.5 5H15.5L14.7917 4.16667H5.20833L4.5 5ZM4.16667 15.8333H15.8333V6.66667H4.16667V15.8333ZM12.125 14.2083L15.0833 11.25L12.125 8.29167L10.9167 9.5L12.6667 11.25L10.9167 13L12.125 14.2083ZM7.91667 14.2083L9.125 13L7.375 11.25L9.125 9.5L7.91667 8.29167L4.95833 11.25L7.91667 14.2083Z" fill="#6E6E70"/>
</svg>
