<svg xmlns="http://www.w3.org/2000/svg" width="20" height="20" viewBox="0 0 20 20" fill="none">
    <path
        d="M5 20V15H0V5H5V0H15V5H20V15H15V20H5ZM2 9H7C7.16667 9 7.325 9.04167 7.475 9.125C7.625 9.20833 7.74167 9.31667 7.825 9.45L8.7 10.75L10.05 6.7C10.1167 6.5 10.2375 6.33333 10.4125 6.2C10.5875 6.06667 10.7833 6 11 6C11.1667 6 11.325 6.04167 11.475 6.125C11.625 6.20833 11.7417 6.31667 11.825 6.45L13.525 9H18V7H13V2H7V7H2V9ZM7 18H13V13H18V11H13C12.8333 11 12.675 10.9583 12.525 10.875C12.375 10.7917 12.25 10.6833 12.15 10.55L11.3 9.25L9.95 13.3C9.88333 13.5 9.75833 13.6667 9.575 13.8C9.39167 13.9333 9.19167 14 8.975 14C8.80833 14 8.65 13.9583 8.5 13.875C8.35 13.7917 8.23333 13.6833 8.15 13.55L6.45 11H2V13H7V18Z"
        fill="currentColor" />
</svg>
