<svg width="14" height="14" viewBox="0 0 14 14" fill="none" xmlns="http://www.w3.org/2000/svg">
    <path fill-rule="evenodd" clip-rule="evenodd"
        d="M8.84835 0.184159C8.56384 -0.0789547 8.12358 -0.0575747 7.86499 0.231912C7.6064 0.521399 7.62741 0.96937 7.91192 1.23248C9.4831 2.68551 10.6078 4.74934 10.6078 7C10.6078 7.40738 10.5709 7.80863 10.5012 8.20125L11.6597 9.35972C11.8783 8.60937 12 7.81877 12 7C12 4.26298 10.6397 1.84083 8.84835 0.184159ZM9.35443 6.99995L9.35418 7.0542L7.63252 5.33255C7.30901 4.52372 6.76993 3.80029 6.11728 3.23173C5.82523 2.97731 5.79118 2.53017 6.04122 2.23302C6.29127 1.93586 6.73072 1.90121 7.02276 2.15563C8.33164 3.29586 9.35443 5.02309 9.35443 6.99995ZM7.57827 8.79752L6.48307 7.70233C6.17606 8.92745 5.08437 9.83342 3.78471 9.83342C2.24685 9.83342 1.00017 8.56492 1.00017 7.00015C1.00017 5.69492 1.8676 4.59583 3.04789 4.26714L0.458225 1.67748C0.172794 1.39205 0.178843 0.923223 0.471736 0.63033C0.764629 0.337437 1.23345 0.331388 1.51889 0.616819L13.2132 12.3111C13.4986 12.5965 13.4926 13.0654 13.1997 13.3583C12.9068 13.6511 12.4379 13.6572 12.1525 13.3718L10.556 11.7753C10.0694 12.539 9.48623 13.2259 8.84835 13.8158C8.56384 14.079 8.12358 14.0576 7.86499 13.7681C7.6064 13.4786 7.62741 13.0306 7.91192 12.7675C8.54021 12.1865 9.0971 11.5078 9.53922 10.7585L8.62356 9.84281C8.20906 10.6195 7.64861 11.2989 7.02276 11.8441C6.73072 12.0986 6.29127 12.0639 6.04122 11.7668C5.79118 11.4696 5.82523 11.0225 6.11728 10.768C6.73471 10.2302 7.25048 9.55374 7.57827 8.79752Z"
        fill="currentColor" />
</svg>
