<svg width="14" height="14" viewBox="0 0 14 14" fill="none" xmlns="http://www.w3.org/2000/svg">
    <path fill-rule="evenodd" clip-rule="evenodd"
        d="M8.84818 0.184159C8.56367 -0.0789547 8.1234 -0.0575747 7.86482 0.231912C7.60623 0.521399 7.62724 0.96937 7.91175 1.23248C9.48292 2.68551 10.6076 4.74934 10.6076 7C10.6076 9.25066 9.48292 11.3145 7.91175 12.7675C7.62724 13.0306 7.60623 13.4786 7.86482 13.7681C8.1234 14.0576 8.56367 14.079 8.84818 13.8158C10.6396 12.1592 11.9998 9.73702 11.9998 7C11.9998 4.26298 10.6396 1.84083 8.84818 0.184159ZM6.04105 2.23302C6.29109 1.93586 6.73054 1.90121 7.02259 2.15563C8.33146 3.29586 9.35426 5.02309 9.35426 6.99995C9.35426 8.97682 8.33145 10.7039 7.02259 11.8441C6.73054 12.0986 6.29109 12.0639 6.04105 11.7668C5.79101 11.4696 5.82506 11.0225 6.11711 10.768C7.19425 9.82969 7.96199 8.46967 7.96199 6.99995C7.96199 5.53021 7.19423 4.17007 6.11711 3.23173C5.82506 2.97731 5.79101 2.53017 6.04105 2.23302ZM6.56908 7.00015C6.56908 8.56492 5.3224 9.83342 3.78454 9.83342C2.24668 9.83342 1 8.56492 1 7.00015C1 5.43539 2.24668 4.16689 3.78454 4.16689C5.3224 4.16689 6.56908 5.43539 6.56908 7.00015Z"
        fill="currentColor" />
</svg>
