<svg width="33" height="32" viewBox="0 0 33 32" fill="none" xmlns="http://www.w3.org/2000/svg">
    <path d="M31.2987 15.1469L17.9562 1.58157L16.6466 0.25L6.61925 10.4448L2.03534 15.1469C1.54421 15.6464 1.54421 16.4369 2.03534 16.8947L11.2032 26.2157L16.6466 31.75L26.6738 21.5552L26.8375 21.3887L31.2987 16.8947C31.7898 16.3952 31.7898 15.6048 31.2987 15.1469ZM16.6466 20.6813L12.0626 16.0208L16.6466 11.3603L21.2305 16.0208L16.6466 20.6813Z" fill="#2684FF"/>
    <path d="M16.6465 11.3451C13.6587 8.31147 13.6178 3.36621 16.6055 0.291016L6.61914 10.4724L12.0625 15.9995L16.6465 11.3451Z" fill="url(#paint0_linear_17148_2032)"/>
    <path d="M21.2714 15.959L16.6465 20.6549C19.6752 23.73 19.6752 28.6752 16.6465 31.7505L26.7148 21.5276L21.2714 15.959Z" fill="url(#paint1_linear_17148_2032)"/>
    <defs>
        <linearGradient id="paint0_linear_17148_2032" x1="15.8439" y1="6.62639" x2="9.34422" y2="13.0277" gradientUnits="userSpaceOnUse">
            <stop offset="0.176" stop-color="#0052CC"/>
            <stop offset="1" stop-color="#2684FF"/>
        </linearGradient>
        <linearGradient id="paint1_linear_17148_2032" x1="17.5385" y1="25.3007" x2="24.0253" y2="18.9121" gradientUnits="userSpaceOnUse">
            <stop offset="0.176" stop-color="#0052CC"/>
            <stop offset="1" stop-color="#2684FF"/>
        </linearGradient>
    </defs>
</svg>
