<svg fill="none" xmlns="http://www.w3.org/2000/svg" viewBox="0 0 24 24">
    <path fill-rule="evenodd" clip-rule="evenodd" d="M1 8a5 5 0 0 1 5-5h4a5 5 0 0 1 4.584 7H14a1.993 1.993 0 0 1-1.375-.547A3 3 0 0 0 10 5H6a3 3 0 0 0 0 6h2.803a6.03 6.03 0 0 0 1.822 1.961A5.033 5.033 0 0 1 10 13H8v3a1 1 0 0 0 1 1h1.17A3.001 3.001 0 0 1 13 15h7a3 3 0 1 1 0 6h-7a3.001 3.001 0 0 1-2.83-2H9a3 3 0 0 1-3-3v-3a5 5 0 0 1-5-5Zm8 0c0-.711.148-1.388.416-2H10c.532 0 1.016.208 1.375.547A3 3 0 0 0 14 11h4a3 3 0 1 0 0-6h-2.803a6.03 6.03 0 0 0-1.822-1.961C13.58 3.013 13.788 3 14 3h4a5 5 0 0 1 0 10h-4a5 5 0 0 1-5-5Z" fill="#202021"/>
</svg>
