<svg width="24" height="10" viewBox="0 0 24 10" fill="currentColor" xmlns="http://www.w3.org/2000/svg">
    <path d="M20.9238 0.46875V9H19.1719V0.46875H20.9238ZM23.5488 0.46875V1.8457H16.5879V0.46875H23.5488Z"/>
    <path d="M16.2422 4.53516V4.93945C16.2422 5.58789 16.1543 6.16992 15.9785 6.68555C15.8027 7.20117 15.5547 7.64062 15.2344 8.00391C14.9141 8.36328 14.5312 8.63867 14.0859 8.83008C13.6445 9.02148 13.1543 9.11719 12.6152 9.11719C12.0801 9.11719 11.5898 9.02148 11.1445 8.83008C10.7031 8.63867 10.3203 8.36328 9.99609 8.00391C9.67188 7.64062 9.41992 7.20117 9.24023 6.68555C9.06445 6.16992 8.97656 5.58789 8.97656 4.93945V4.53516C8.97656 3.88281 9.06445 3.30078 9.24023 2.78906C9.41602 2.27344 9.66406 1.83398 9.98438 1.4707C10.3086 1.10742 10.6914 0.830078 11.1328 0.638672C11.5781 0.447266 12.0684 0.351562 12.6035 0.351562C13.1426 0.351562 13.6328 0.447266 14.0742 0.638672C14.5195 0.830078 14.9023 1.10742 15.2227 1.4707C15.5469 1.83398 15.7969 2.27344 15.9727 2.78906C16.1523 3.30078 16.2422 3.88281 16.2422 4.53516ZM14.4668 4.93945V4.52344C14.4668 4.07031 14.4258 3.67188 14.3438 3.32812C14.2617 2.98438 14.1406 2.69531 13.9805 2.46094C13.8203 2.22656 13.625 2.05078 13.3945 1.93359C13.1641 1.8125 12.9004 1.75195 12.6035 1.75195C12.3066 1.75195 12.043 1.8125 11.8125 1.93359C11.5859 2.05078 11.3926 2.22656 11.2324 2.46094C11.0762 2.69531 10.957 2.98438 10.875 3.32812C10.793 3.67188 10.752 4.07031 10.752 4.52344V4.93945C10.752 5.38867 10.793 5.78711 10.875 6.13477C10.957 6.47852 11.0781 6.76953 11.2383 7.00781C11.3984 7.24219 11.5938 7.41992 11.8242 7.54102C12.0547 7.66211 12.3184 7.72266 12.6152 7.72266C12.9121 7.72266 13.1758 7.66211 13.4062 7.54102C13.6367 7.41992 13.8301 7.24219 13.9863 7.00781C14.1426 6.76953 14.2617 6.47852 14.3438 6.13477C14.4258 5.78711 14.4668 5.38867 14.4668 4.93945Z"/>
    <path d="M7.70508 0.46875V9H5.94727L2.51953 3.28125V9H0.761719V0.46875H2.51953L5.95312 6.19336V0.46875H7.70508Z"/>
</svg>