<svg width="24" height="36" viewBox="25 12 24 30" fill="currentColor" xmlns="http://www.w3.org/2000/svg">
    <path d="M44.2145 31H45.9238V23.8457H48.5488V22.4688H45.9238H44.1719H41.5879V23.8457H44.1719V30.9574L44.2145 31ZM39.1419 28.7274L40.3188 29.9043C40.3146 29.9095 40.3104 29.9147 40.3061 29.9198L46.2004 35.8141L44.8004 37.2141L38.5868 31.0005C38.2828 31.0783 37.9589 31.1172 37.6152 31.1172C37.0801 31.1172 36.5898 31.0215 36.1445 30.8301C35.7031 30.6387 35.3203 30.3633 34.9961 30.0039C34.6719 29.6406 34.4199 29.2012 34.2402 28.6855C34.0645 28.1699 33.9766 27.5879 33.9766 26.9395V26.5352C33.9766 26.4869 33.977 26.4391 33.978 26.3917L32.7051 25.1188V31H30.9473L27.5195 25.2812V31H25.7617V22.4688H27.5195L30.9531 28.1934V23.3668L26.4004 18.8141L27.8004 17.4141L34.5229 24.1366C34.5262 24.1305 34.5295 24.1244 34.5328 24.1183L35.8509 25.4364C35.8493 25.4442 35.8477 25.452 35.8461 25.4598L37.0004 26.6141L39.1328 28.7465C39.1359 28.7402 39.1389 28.7338 39.1419 28.7274ZM39.4614 26.247L41.1626 27.9481C41.2157 27.632 41.2422 27.2957 41.2422 26.9395V26.5352C41.2422 25.8828 41.1523 25.3008 40.9727 24.7891C40.7969 24.2734 40.5469 23.834 40.2227 23.4707C39.9023 23.1074 39.5195 22.8301 39.0742 22.6387C38.6328 22.4473 38.1426 22.3516 37.6035 22.3516C37.0684 22.3516 36.5781 22.4473 36.1328 22.6387C36.0682 22.6667 36.0048 22.6966 35.9427 22.7283L37.0488 23.8344C37.2187 23.7794 37.4036 23.752 37.6035 23.752C37.9004 23.752 38.1641 23.8125 38.3945 23.9336C38.625 24.0508 38.8203 24.2266 38.9805 24.4609C39.1406 24.6953 39.2617 24.9844 39.3438 25.3281C39.4087 25.6002 39.4479 25.9065 39.4614 26.247ZM37.281 29.6947L35.9324 28.346C36.0101 28.5994 36.112 28.82 36.2383 29.0078C36.3984 29.2422 36.5938 29.4199 36.8242 29.541C36.9642 29.6146 37.1165 29.6658 37.281 29.6947Z"/>
</svg>
