<svg width="20" height="18" viewBox="0 0 20 18" fill="none" xmlns="http://www.w3.org/2000/svg">
<path d="M14.125 0C15.7917 0 17.1875 0.616667 18.3125 1.85C19.4375 3.08333 20 4.55 20 6.25C20 6.55 19.9833 6.84583 19.95 7.1375C19.9167 7.42917 19.8583 7.71667 19.775 8H13.525L11.825 5.45C11.7417 5.31667 11.625 5.20833 11.475 5.125C11.325 5.04167 11.1667 5 11 5C10.7833 5 10.5875 5.06667 10.4125 5.2C10.2375 5.33333 10.1167 5.5 10.05 5.7L8.7 9.75L7.825 8.45C7.74167 8.31667 7.625 8.20833 7.475 8.125C7.325 8.04167 7.16667 8 7 8H0.225C0.141667 7.71667 0.0833333 7.42917 0.05 7.1375C0.0166667 6.84583 0 6.55833 0 6.275C0 4.55833 0.558333 3.08333 1.675 1.85C2.79167 0.616667 4.18333 0 5.85 0C6.65 0 7.40417 0.158333 8.1125 0.475C8.82083 0.791667 9.45 1.23333 10 1.8C10.5333 1.23333 11.1542 0.791667 11.8625 0.475C12.5708 0.158333 13.325 0 14.125 0ZM10 18C9.7 18 9.4125 17.9458 9.1375 17.8375C8.8625 17.7292 8.61667 17.5667 8.4 17.35L1.7 10.625C1.6 10.525 1.50833 10.425 1.425 10.325C1.34167 10.225 1.25833 10.1167 1.175 10H6.45L8.15 12.55C8.23333 12.6833 8.35 12.7917 8.5 12.875C8.65 12.9583 8.80833 13 8.975 13C9.19167 13 9.39167 12.9333 9.575 12.8C9.75833 12.6667 9.88333 12.5 9.95 12.3L11.3 8.25L12.15 9.55C12.25 9.68333 12.375 9.79167 12.525 9.875C12.675 9.95833 12.8333 10 13 10H18.8L18.55 10.3L18.3 10.6L11.575 17.35C11.3583 17.5667 11.1167 17.7292 10.85 17.8375C10.5833 17.9458 10.3 18 10 18Z" fill="#000"/>
</svg>