<svg width="20" height="20" viewBox="0 0 20 20" fill="none" xmlns="http://www.w3.org/2000/svg">
<path d="M9.64645 19.3536C9.84171 19.5488 10.1583 19.5488 10.3536 19.3536L13.5355 16.1716C13.7308 15.9763 13.7308 15.6597 13.5355 15.4645C13.3403 15.2692 13.0237 15.2692 12.8284 15.4645L10 18.2929L7.17157 15.4645C6.97631 15.2692 6.65973 15.2692 6.46447 15.4645C6.2692 15.6597 6.2692 15.9763 6.46447 16.1716L9.64645 19.3536ZM9.5 1L9.5 19L10.5 19L10.5 1L9.5 1Z" fill="white"/>
<path d="M19.3536 10.3536C19.5488 10.1583 19.5488 9.84171 19.3536 9.64645L16.1716 6.46447C15.9763 6.2692 15.6597 6.2692 15.4645 6.46447C15.2692 6.65973 15.2692 6.97631 15.4645 7.17157L18.2929 10L15.4645 12.8284C15.2692 13.0237 15.2692 13.3403 15.4645 13.5355C15.6597 13.7308 15.9763 13.7308 16.1716 13.5355L19.3536 10.3536ZM1 10.5L19 10.5V9.5L1 9.5V10.5Z" fill="white"/>
<path d="M0.646446 9.64645C0.451185 9.84171 0.451185 10.1583 0.646446 10.3536L3.82843 13.5355C4.02369 13.7308 4.34027 13.7308 4.53553 13.5355C4.7308 13.3403 4.7308 13.0237 4.53553 12.8284L1.70711 10L4.53553 7.17157C4.7308 6.97631 4.7308 6.65973 4.53553 6.46446C4.34027 6.2692 4.02369 6.2692 3.82843 6.46446L0.646446 9.64645ZM19 9.5L1 9.5L1 10.5L19 10.5L19 9.5Z" fill="white"/>
<path d="M10.3536 0.646446C10.1583 0.451185 9.84171 0.451185 9.64645 0.646446L6.46447 3.82843C6.2692 4.02369 6.2692 4.34027 6.46447 4.53553C6.65973 4.7308 6.97631 4.7308 7.17157 4.53553L10 1.70711L12.8284 4.53553C13.0237 4.7308 13.3403 4.7308 13.5355 4.53553C13.7308 4.34027 13.7308 4.02369 13.5355 3.82843L10.3536 0.646446ZM10.5 19L10.5 1L9.5 1L9.5 19L10.5 19Z" fill="white"/>
</svg>
