<svg version="1.1" xmlns="http://www.w3.org/2000/svg" x="0px" y="0px" viewBox="0 0 71.1 71.1" xml:space="preserve">
 <style type="text/css">
  .st0{fill-rule:evenodd;clip-rule:evenodd;fill:#62D84E;}
  .bg{fill:#032D41;}
 </style>
 <rect class="bg" width="71.1" height="71.1" rx="10"/>
 <g transform="translate(35.55,35.55) scale(0.775) translate(-35.55,-35.55) translate(0,3.75)">
  <path class="st0" d="M35.8,0C16.1,0,0,15.9,0,35.6c0,9.8,4,19.3,11.2,26c2.5,2.4,6.4,2.6,9.2,0.5c9-6.7,21.4-6.7,30.4,0
		c2.8,2.1,6.7,1.9,9.2-0.5C74.3,48,74.9,25.4,61.3,11.1C54.7,4.1,45.4,0.1,35.8,0 M35.6,53.5C26,53.8,18,46.2,17.8,36.7
		c0-0.3,0-0.6,0-0.9c0-9.8,8-17.8,17.8-17.8s17.8,8,17.8,17.8c0.3,9.6-7.3,17.5-16.8,17.8C36.2,53.5,35.9,53.5,35.6,53.5">
  </path>
 </g>
</svg>
