<svg xmlns="http://www.w3.org/2000/svg" width="32" height="32" fill="none">
    <path fill="#F7F7FA" d="M0 0h32v32H0z" />
    <g fill-rule="evenodd" clip-path="url(#a)" clip-rule="evenodd">
        <path fill="#36C5F0"
            d="M12.8 4a2.4 2.4 0 1 0 0 4.799h2.4V6.4A2.402 2.402 0 0 0 12.8 4Zm0 6.4H6.4a2.4 2.4 0 0 0 0 4.8h6.4a2.4 2.4 0 1 0 0-4.8Z" />
        <path fill="#2EB67D"
            d="M28 12.8a2.4 2.4 0 0 0-4.801 0v2.4h2.4a2.4 2.4 0 0 0 2.4-2.4Zm-6.4 0V6.4a2.4 2.4 0 0 0-4.8 0v6.4a2.4 2.4 0 1 0 4.8 0Z" />
        <path fill="#ECB22E"
            d="M19.2 28a2.4 2.4 0 1 0 0-4.798h-2.4v2.4A2.401 2.401 0 0 0 19.2 28Zm0-6.4h6.4a2.4 2.4 0 0 0 .001-4.8h-6.4a2.4 2.4 0 0 0 0 4.8Z" />
        <path fill="#E01E5A"
            d="M4 19.2a2.4 2.4 0 0 0 4.8 0v-2.4H6.4A2.4 2.4 0 0 0 4 19.2Zm6.4 0v6.4a2.4 2.4 0 0 0 4.8 0v-6.399a2.4 2.4 0 0 0-4.8-.002c0 .001 0 0 0 0Z" />
    </g>
    <defs>
        <clipPath id="a">
            <path fill="#fff" d="M4 4h24v24H4z" />
        </clipPath>
    </defs>
</svg>
