<svg width="40" height="20" viewBox="0 0 40 20" fill="none" xmlns="http://www.w3.org/2000/svg">
    <path d="M0 4C0 1.79086 1.79086 0 4 0H36C38.2091 0 40 1.79086 40 4V16C40 18.2091 38.2091 20 36 20H4C1.79086 20 0 18.2091 0 16V4Z" fill="#F4FAEB"/>
    <path d="M10.4815 4.7716C11.2797 3.84038 12.7203 3.84038 13.5185 4.7716L16.8844 8.69842C17.5263 9.4474 17.5263 10.5526 16.8844 11.3016L13.5185 15.2284C12.7203 16.1596 11.2797 16.1596 10.4815 15.2284L7.11564 11.3016C6.47366 10.5526 6.47366 9.4474 7.11564 8.69842L10.4815 4.7716Z" fill="#B0D182"/>
    <path d="M19.2778 4.12081C18.0805 2.72397 15.9195 2.72397 14.7222 4.12081L11.3564 8.04763C10.3934 9.17109 10.3934 10.8289 11.3564 11.9524L14.7222 15.8792C15.9195 17.276 18.0805 17.276 19.2778 15.8792L22.6436 11.9524C23.6066 10.8289 23.6066 9.1711 22.6436 8.04763L19.2778 4.12081Z" fill="#B0D182" stroke="#F3F3FD" stroke-width="2"/>
    <path d="M24.2778 4.12081C23.0805 2.72397 20.9195 2.72397 19.7222 4.12081L16.3564 8.04763C15.3934 9.17109 15.3934 10.8289 16.3564 11.9524L19.7222 15.8792C20.9195 17.276 23.0805 17.276 24.2778 15.8792L27.6436 11.9524C28.6066 10.8289 28.6066 9.1711 27.6436 8.04763L24.2778 4.12081Z" fill="#B0D182" stroke="#F3F3FD" stroke-width="2"/>
    <path d="M29.2778 4.12081C28.0805 2.72397 25.9195 2.72397 24.7222 4.12081L21.3564 8.04763C20.3934 9.17109 20.3934 10.8289 21.3564 11.9524L24.7222 15.8792C25.9195 17.276 28.0805 17.276 29.2778 15.8792L32.6436 11.9524C33.6066 10.8289 33.6066 9.1711 32.6436 8.04763L29.2778 4.12081Z" fill="#68A611" stroke="#F3F3FD" stroke-width="2"/>
</svg>
