<svg width="40" height="20" viewBox="0 0 40 20" fill="none" xmlns="http://www.w3.org/2000/svg">
    <path d="M0 4C0 1.79086 1.79086 0 4 0H36C38.2091 0 40 1.79086 40 4V16C40 18.2091 38.2091 20 36 20H4C1.79086 20 0 18.2091 0 16V4Z" fill="#F3F3FD"/>
    <path d="M12.4815 4.7716C13.2797 3.84038 14.7203 3.84038 15.5185 4.7716L18.8844 8.69842C19.5263 9.4474 19.5263 10.5526 18.8844 11.3016L15.5185 15.2284C14.7203 16.1596 13.2797 16.1596 12.4815 15.2284L9.11564 11.3016C8.47366 10.5526 8.47366 9.4474 9.11564 8.69842L12.4815 4.7716Z" fill="#BEBBF3"/>
    <path d="M22.2778 4.12081C21.0805 2.72397 18.9195 2.72397 17.7222 4.12081L14.3564 8.04763C13.3934 9.17109 13.3934 10.8289 14.3564 11.9524L17.7222 15.8792C18.9195 17.276 21.0805 17.276 22.2778 15.8792L25.6436 11.9524C26.6066 10.8289 26.6066 9.1711 25.6436 8.04763L22.2778 4.12081Z" fill="#BEBBF3" stroke="#F3F3FD" stroke-width="2"/>
    <path d="M28.2778 4.12081C27.0805 2.72397 24.9195 2.72397 23.7222 4.12081L20.3564 8.04763C19.3934 9.17109 19.3934 10.8289 20.3564 11.9524L23.7222 15.8792C24.9195 17.276 27.0805 17.276 28.2778 15.8792L31.6436 11.9524C32.6066 10.8289 32.6066 9.1711 31.6436 8.04763L28.2778 4.12081Z" fill="#817AFE" stroke="#F3F3FD" stroke-width="2"/>
</svg>
