<svg width="40" height="20" viewBox="0 0 40 20" fill="none" xmlns="http://www.w3.org/2000/svg">
    <path d="M0 4C0 1.79086 1.79086 0 4 0H36C38.2091 0 40 1.79086 40 4V16C40 18.2091 38.2091 20 36 20H4C1.79086 20 0 18.2091 0 16V4Z" fill="#F3F3FD"/>
    <path d="M8.48149 4.7716C9.27968 3.84038 10.7203 3.84038 11.5185 4.7716L14.8844 8.69842C15.5263 9.4474 15.5263 10.5526 14.8844 11.3016L11.5185 15.2284C10.7203 16.1596 9.27968 16.1596 8.48149 15.2284L5.11564 11.3016C4.47366 10.5526 4.47366 9.4474 5.11564 8.69842L8.48149 4.7716Z" fill="#9F9FA1"/>
    <path d="M17.2778 4.12081C16.0805 2.72397 13.9195 2.72397 12.7222 4.12081L9.35639 8.04763C8.39341 9.17109 8.39341 10.8289 9.35639 11.9524L12.7222 15.8792C13.9195 17.276 16.0805 17.276 17.2778 15.8792L20.6436 11.9524C21.6066 10.8289 21.6066 9.1711 20.6436 8.04763L17.2778 4.12081Z" fill="#9F9FA1" stroke="#F3F3FD" stroke-width="2"/>
    <path d="M22.2778 4.12081C21.0805 2.72397 18.9195 2.72397 17.7222 4.12081L14.3564 8.04763C13.3934 9.17109 13.3934 10.8289 14.3564 11.9524L17.7222 15.8792C18.9195 17.276 21.0805 17.276 22.2778 15.8792L25.6436 11.9524C26.6066 10.8289 26.6066 9.1711 25.6436 8.04763L22.2778 4.12081Z" fill="#9F9FA1" stroke="#F3F3FD" stroke-width="2"/>
    <path d="M27.2778 4.12081C26.0805 2.72397 23.9195 2.72397 22.7222 4.12081L19.3564 8.04763C18.3934 9.17109 18.3934 10.8289 19.3564 11.9524L22.7222 15.8792C23.9195 17.276 26.0805 17.276 27.2778 15.8792L30.6436 11.9524C31.6066 10.8289 31.6066 9.17109 30.6436 8.04763L27.2778 4.12081Z" fill="#9F9FA1" stroke="#F3F3FD" stroke-width="2"/>
    <path d="M32.2778 4.12081C31.0805 2.72397 28.9195 2.72397 27.7222 4.12081L24.3564 8.04763C23.3934 9.17109 23.3934 10.8289 24.3564 11.9524L27.7222 15.8792C28.9195 17.276 31.0805 17.276 32.2778 15.8792L35.6436 11.9524C36.6066 10.8289 36.6066 9.17109 35.6436 8.04763L32.2778 4.12081Z" fill="#6E6E70" stroke="#F3F3FD" stroke-width="2"/>
</svg>
