<svg width="40" height="20" viewBox="0 0 40 20" fill="none" xmlns="http://www.w3.org/2000/svg">
    <rect x="0.5" y="0.5" width="39" height="19" rx="3.5" stroke="#BDBDBF" stroke-dasharray="2 2"/>
    <path d="M15.4815 4.7716C16.2797 3.84038 17.7203 3.84038 18.5185 4.7716L21.8844 8.69842C22.5263 9.4474 22.5263 10.5526 21.8844 11.3016L18.5185 15.2284C17.7203 16.1596 16.2797 16.1596 15.4815 15.2284L12.1156 11.3016C11.4737 10.5526 11.4737 9.4474 12.1156 8.69842L15.4815 4.7716Z" fill="#BDBDBF"/>
    <path d="M25.2778 4.12081C24.0805 2.72397 21.9195 2.72397 20.7222 4.12081L17.3564 8.04763C16.3934 9.17109 16.3934 10.8289 17.3564 11.9524L20.7222 15.8792C21.9195 17.276 24.0805 17.276 25.2778 15.8792L28.6436 11.9524C29.6066 10.8289 29.6066 9.1711 28.6436 8.04763L25.2778 4.12081Z" fill="#78787A" stroke="#F7F7FA" stroke-width="2"/>
</svg>
