<svg width="197" height="310" viewBox="0 0 197 310" fill="none" xmlns="http://www.w3.org/2000/svg">
<path d="M126.669 92.7899C134.256 92.7899 140.408 86.642 140.408 79.0581C140.408 71.4742 134.256 65.3263 126.669 65.3263C119.081 65.3263 112.93 71.4742 112.93 79.0581C112.93 86.642 119.081 92.7899 126.669 92.7899Z" fill="white"/>
<path d="M129.417 99.6559H67.5913C62.1256 99.6559 56.8838 97.4858 53.019 93.623C49.1541 89.7601 46.9829 84.521 46.9829 79.0582C46.9829 73.5953 49.1541 68.3562 53.019 64.4934C56.8838 60.6306 62.1256 58.4604 67.5913 58.4604H129.417C134.882 58.4604 140.124 60.6306 143.989 64.4934C147.854 68.3562 150.025 73.5953 150.025 79.0582C150.025 84.521 147.854 89.7601 143.989 93.623C140.124 97.4858 134.882 99.6559 129.417 99.6559ZM67.5913 61.2068C62.8544 61.2068 58.3114 63.0876 54.9619 66.4354C51.6124 69.7831 49.7307 74.3237 49.7307 79.0582C49.7307 83.7926 51.6124 88.3332 54.9619 91.681C58.3114 95.0288 62.8544 96.9095 67.5913 96.9095H129.417C134.153 96.9095 138.696 95.0288 142.046 91.681C145.395 88.3332 147.277 83.7926 147.277 79.0582C147.277 74.3237 145.395 69.7831 142.046 66.4354C138.696 63.0876 134.153 61.2068 129.417 61.2068H67.5913Z" fill="white"/>
<path d="M69.818 168.383C77.4058 168.383 83.5569 162.235 83.5569 154.651C83.5569 147.067 77.4058 140.919 69.818 140.919C62.2302 140.919 56.0791 147.067 56.0791 154.651C56.0791 162.235 62.2302 168.383 69.818 168.383Z" fill="white"/>
<path d="M129.417 175.248H67.5913C62.1256 175.248 56.8838 173.078 53.019 169.216C49.1541 165.353 46.9829 160.114 46.9829 154.651C46.9829 149.188 49.1541 143.949 53.019 140.086C56.8838 136.223 62.1256 134.053 67.5913 134.053H129.417C134.882 134.053 140.124 136.223 143.989 140.086C147.854 143.949 150.025 149.188 150.025 154.651C150.025 160.114 147.854 165.353 143.989 169.216C140.124 173.078 134.882 175.248 129.417 175.248ZM67.5913 136.799C62.8544 136.799 58.3115 138.68 54.962 142.028C51.6124 145.376 49.7307 149.916 49.7307 154.651C49.7307 159.385 51.6124 163.926 54.962 167.274C58.3115 170.621 62.8544 172.502 67.5913 172.502H129.417C134.153 172.502 138.696 170.621 142.046 167.274C145.395 163.926 147.277 159.385 147.277 154.651C147.277 149.916 145.395 145.376 142.046 142.028C138.696 138.68 134.153 136.799 129.417 136.799H67.5913Z" fill="white"/>
<path d="M69.818 243.975C77.4058 243.975 83.5569 237.827 83.5569 230.243C83.5569 222.659 77.4058 216.512 69.818 216.512C62.2302 216.512 56.0791 222.659 56.0791 230.243C56.0791 237.827 62.2302 243.975 69.818 243.975Z" fill="white"/>
<path d="M129.417 250.841H67.5913C62.1256 250.841 56.8838 248.671 53.019 244.808C49.1541 240.945 46.9829 235.706 46.9829 230.243C46.9829 224.78 49.1541 219.541 53.019 215.679C56.8838 211.816 62.1256 209.646 67.5913 209.646H129.417C134.882 209.646 140.124 211.816 143.989 215.679C147.854 219.541 150.025 224.78 150.025 230.243C150.025 235.706 147.854 240.945 143.989 244.808C140.124 248.671 134.882 250.841 129.417 250.841ZM67.5913 212.392C62.8544 212.392 58.3114 214.273 54.9619 217.621C51.6124 220.968 49.7307 225.509 49.7307 230.243C49.7307 234.978 51.6124 239.518 54.9619 242.866C58.3114 246.214 62.8544 248.095 67.5913 248.095H129.417C131.762 248.095 134.085 247.633 136.251 246.736C138.418 245.839 140.387 244.524 142.046 242.866C143.704 241.209 145.02 239.241 145.918 237.075C146.815 234.909 147.277 232.588 147.277 230.243C147.277 227.899 146.815 225.578 145.918 223.412C145.02 221.246 143.704 219.278 142.046 217.621C140.387 215.963 138.418 214.648 136.251 213.751C134.085 212.854 131.762 212.392 129.417 212.392H67.5913Z" fill="white"/>
<path d="M193.97 309.126H3.03846C2.23497 309.125 1.46466 308.806 0.896511 308.238C0.328359 307.67 0.00875734 306.9 0.0078125 306.097V3.20437C0.00875734 2.4013 0.328359 1.63139 0.896511 1.06353C1.46466 0.495674 2.23497 0.176237 3.03846 0.175293H193.97C194.773 0.176237 195.543 0.495674 196.111 1.06353C196.68 1.63139 196.999 2.4013 197 3.20437V306.097C196.999 306.9 196.68 307.67 196.111 308.238C195.543 308.806 194.773 309.125 193.97 309.126ZM3.03846 1.38692C2.55635 1.38745 2.09415 1.5791 1.75325 1.91982C1.41235 2.26054 1.2206 2.72251 1.22007 3.20437V306.097C1.2206 306.579 1.41235 307.041 1.75325 307.382C2.09415 307.722 2.55635 307.914 3.03846 307.915H193.97C194.452 307.914 194.914 307.722 195.255 307.382C195.596 307.041 195.787 306.579 195.788 306.097V3.20437C195.787 2.72251 195.596 2.26054 195.255 1.91982C194.914 1.5791 194.452 1.38745 193.97 1.38692H3.03846Z" fill="white"/>
<path d="M193.969 309H3.03077C2.22725 308.999 1.45691 308.68 0.888733 308.112C0.320559 307.544 0.000944877 306.774 0 305.97V3.02956C0.000944877 2.22636 0.320559 1.45633 0.888733 0.888379C1.45691 0.320432 2.22725 0.0009445 3.03077 0H193.969C194.773 0.0009445 195.543 0.320432 196.111 0.888379C196.679 1.45633 196.999 2.22636 197 3.02956V305.97C196.999 306.774 196.679 307.544 196.111 308.112C195.543 308.68 194.773 308.999 193.969 309ZM3.03077 1.21182C2.54864 1.21235 2.08642 1.40403 1.7455 1.74481C1.40459 2.08558 1.21283 2.54763 1.21231 3.02956V305.97C1.21283 306.452 1.40459 306.914 1.7455 307.255C2.08642 307.596 2.54864 307.788 3.03077 307.788H193.969C194.451 307.788 194.914 307.596 195.255 307.255C195.595 306.914 195.787 306.452 195.788 305.97V3.02956C195.787 2.54763 195.595 2.08558 195.255 1.74481C194.914 1.40403 194.451 1.21235 193.969 1.21182H3.03077Z" fill="white"/>
<path d="M193.969 309H3.03077C2.22725 308.999 1.45691 308.68 0.888733 308.112C0.320559 307.544 0.000944877 306.774 0 305.97V3.02956C0.000944877 2.22636 0.320559 1.45633 0.888733 0.888379C1.45691 0.320432 2.22725 0.0009445 3.03077 0H193.969C194.773 0.0009445 195.543 0.320432 196.111 0.888379C196.679 1.45633 196.999 2.22636 197 3.02956V305.97C196.999 306.774 196.679 307.544 196.111 308.112C195.543 308.68 194.773 308.999 193.969 309ZM3.03077 1.21182C2.54864 1.21235 2.08642 1.40403 1.7455 1.74481C1.40459 2.08558 1.21283 2.54763 1.21231 3.02956V305.97C1.21283 306.452 1.40459 306.914 1.7455 307.255C2.08642 307.596 2.54864 307.788 3.03077 307.788H193.969C194.451 307.788 194.914 307.596 195.255 307.255C195.595 306.914 195.787 306.452 195.788 305.97V3.02956C195.787 2.54763 195.595 2.08558 195.255 1.74481C194.914 1.40403 194.451 1.21235 193.969 1.21182H3.03077Z" fill="white"/>
</svg>
