<svg xmlns="http://www.w3.org/2000/svg" width="32" height="32" fill="none">
    <path fill="#F7F7FA" d="M0 0h32v32H0z" />
    <g clip-path="url(#a)">
        <path fill="#5059C9"
            d="M20.74 13.04h6.2c.586 0 1.06.474 1.06 1.06v5.647a3.898 3.898 0 0 1-3.897 3.897h-.018a3.897 3.897 0 0 1-3.899-3.897v-6.153c0-.306.249-.554.555-.554Zm4.19-1.118a2.512 2.512 0 1 0 0-5.023 2.512 2.512 0 0 0 0 5.023Z" />
        <path fill="#7B83EB"
            d="M17.116 11.922a3.628 3.628 0 1 0 0-7.255 3.628 3.628 0 0 0 0 7.255Zm4.837 1.118H11.72a1.05 1.05 0 0 0-1.023 1.073v6.44a6.295 6.295 0 0 0 6.14 6.44 6.295 6.295 0 0 0 6.14-6.44v-6.44a1.05 1.05 0 0 0-1.024-1.073Z" />
        <path fill="#000"
            d="M17.396 13.04v9.025a1.028 1.028 0 0 1-1.021 1.021H11.19a6.801 6.801 0 0 1-.491-2.534v-6.44a1.048 1.048 0 0 1 1.02-1.072h5.677Z"
            opacity=".1" />
        <path fill="#000"
            d="M16.838 13.04v9.583a1.028 1.028 0 0 1-1.021 1.021h-4.365a7.304 7.304 0 0 1-.262-.558 5.542 5.542 0 0 1-.196-.558 6.798 6.798 0 0 1-.296-1.976v-6.44a1.048 1.048 0 0 1 1.022-1.072h5.118Z"
            opacity=".2" />
        <path fill="#000"
            d="M16.838 13.04v8.466a1.03 1.03 0 0 1-1.021 1.022h-4.823a6.798 6.798 0 0 1-.296-1.976v-6.44a1.048 1.048 0 0 1 1.022-1.072h5.118Z"
            opacity=".2" />
        <path fill="#000"
            d="M16.28 13.04v8.466a1.03 1.03 0 0 1-1.022 1.022h-4.264a6.801 6.801 0 0 1-.296-1.976v-6.44a1.048 1.048 0 0 1 1.022-1.072h4.56Z"
            opacity=".2" />
        <path fill="#000"
            d="M17.395 10.154v1.758c-.095.006-.184.011-.279.011-.095 0-.184-.005-.279-.01a3.063 3.063 0 0 1-.558-.09 3.628 3.628 0 0 1-2.511-2.132 3.104 3.104 0 0 1-.18-.558h2.786c.563.002 1.02.458 1.021 1.021Z"
            opacity=".1" />
        <path fill="#000"
            d="M16.836 10.71v1.2a3.063 3.063 0 0 1-.558-.088 3.628 3.628 0 0 1-2.511-2.133h2.048c.563.003 1.02.459 1.021 1.022Z"
            opacity=".2" />
        <path fill="#000"
            d="M16.836 10.71v1.2a3.063 3.063 0 0 1-.558-.088 3.628 3.628 0 0 1-2.511-2.133h2.048c.563.003 1.02.459 1.021 1.022Z"
            opacity=".2" />
        <path fill="#000" d="M16.278 10.71v1.111a3.628 3.628 0 0 1-2.511-2.132h1.49c.563.003 1.02.459 1.021 1.022Z"
            opacity=".2" />
        <path fill="url(#b)"
            d="M5.023 9.69h10.233c.565 0 1.023.458 1.023 1.023v10.232c0 .566-.458 1.023-1.023 1.023H5.023A1.023 1.023 0 0 1 4 20.945V10.713c0-.565.458-1.024 1.023-1.024Z" />
        <path fill="#fff" d="M12.832 13.585h-2.045v5.57H9.483v-5.57H7.447v-1.08h5.385v1.08Z" />
    </g>
    <defs>
        <linearGradient id="b" x1="6.133" x2="14.146" y1="8.89" y2="22.768" gradientUnits="userSpaceOnUse">
            <stop stop-color="#5A62C3" />
            <stop offset=".5" stop-color="#4D55BD" />
            <stop offset="1" stop-color="#3940AB" />
        </linearGradient>
        <clipPath id="a">
            <path fill="#fff" d="M4 4h24v24H4z" />
        </clipPath>
    </defs>
</svg>
