<svg xmlns="http://www.w3.org/2000/svg" viewBox="0 0 32 32">
    <g>
        <circle cx="17" cy="6" r="4.667" fill="#7b83eb"/>
        <path d="M16.667 7H12.44l.021.093.002.008.022.086A4.671 4.671 0 0018 10.559V8.333A1.337 1.337 0 0016.667 7z"
              opacity=".1"/>
        <path d="M15.667 8h-2.884A4.667 4.667 0 0017 10.667V9.333A1.337 1.337 0 0015.667 8z" opacity=".2"/>
        <circle cx="27.5" cy="7.5" r="3.5" fill="#5059c9"/>
        <path d="M30.5 12h-7.861a.64.64 0 00-.64.64v8.11a5.121 5.121 0 003.967 5.084A5.006 5.006 0 0032 20.938V13.5a1.5 1.5 0 00-1.5-1.5z"
              fill="#5059c9"/>
        <path d="M25 13.5V23a7.995 7.995 0 01-14.92 4 7.173 7.173 0 01-.5-1 8.367 8.367 0 01-.33-1A8.24 8.24 0 019 23v-9.5a1.498 1.498 0 011.5-1.5h13a1.498 1.498 0 011.5 1.5z"
              fill="#7b83eb"/>
        <path d="M15.667 8h-2.884A4.667 4.667 0 0017 10.667V9.333A1.337 1.337 0 0015.667 8z" opacity=".2"/>
        <path d="M18 12v12.67a1.32 1.32 0 01-1.04 1.29.966.966 0 01-.29.04H9.58a8.367 8.367 0 01-.33-1A8.24 8.24 0 019 23v-9.5a1.498 1.498 0 011.5-1.5z"
              opacity=".1"/>
        <path d="M17 12v13.67a.967.967 0 01-.04.29A1.32 1.32 0 0115.67 27h-5.59a7.173 7.173 0 01-.5-1 8.367 8.367 0 01-.33-1A8.24 8.24 0 019 23v-9.5a1.498 1.498 0 011.5-1.5z"
              opacity=".2"/>
        <path d="M17 12v11.67A1.336 1.336 0 0115.67 25H9.25A8.24 8.24 0 019 23v-9.5a1.498 1.498 0 011.5-1.5z"
              opacity=".2"/>
        <path d="M10.5 12A1.498 1.498 0 009 13.5V23a8.24 8.24 0 00.25 2h5.42A1.336 1.336 0 0016 23.67V12z"
              opacity=".2"/>
        <path d="M1.333 8h13.334A1.333 1.333 0 0116 9.333v13.334A1.333 1.333 0 0114.667 24H1.333A1.333 1.333 0 010 22.667V9.333A1.333 1.333 0 011.333 8z"
              fill="#4b53bc"/>
        <path d="M11.98 12.975H8.99v8.02H7.028v-8.02H4.02v-1.97h7.96z" fill="#fff"/>
        <path fill="none" d="M0 0h32v32H0z"/>
    </g>
</svg>
