<svg xmlns="http://www.w3.org/2000/svg" width="40" height="20" fill="none">
    <path fill="#EBF7FF" d="M0 4a4 4 0 0 1 4-4h32a4 4 0 0 1 4 4v12a4 4 0 0 1-4 4H4a4 4 0 0 1-4-4V4Z" />
    <path fill="#96D2FA" stroke="#EBF7FF" stroke-width="2"
        d="M21.218 6.385c-2.217-2.587-6.219-2.587-8.436 0a5.555 5.555 0 0 0 0 7.23c2.217 2.587 6.219 2.587 8.436 0a5.555 5.555 0 0 0 0-7.23Z" />
    <path fill="#0087E0" stroke="#EBF7FF" stroke-width="2"
        d="M27.218 6.385c-2.217-2.587-6.219-2.587-8.436 0a5.555 5.555 0 0 0 0 7.23c2.217 2.587 6.219 2.587 8.436 0a5.555 5.555 0 0 0 0-7.23Z" />
</svg>
