<svg xmlns="http://www.w3.org/2000/svg" width="40" height="20" fill="none">
    <path fill="#F4FAEB" d="M0 4a4 4 0 0 1 4-4h32a4 4 0 0 1 4 4v12a4 4 0 0 1-4 4H4a4 4 0 0 1-4-4V4Z" />
    <path fill="#B0D182" stroke="#F4FAEB" stroke-width="2"
        d="M18.218 6.385c-2.217-2.587-6.219-2.587-8.436 0a5.556 5.556 0 0 0 0 7.23c2.217 2.587 6.219 2.587 8.436 0a5.555 5.555 0 0 0 0-7.23Z" />
    <path fill="#B0D182" stroke="#F4FAEB" stroke-width="2"
        d="M24.218 6.385c-2.217-2.587-6.219-2.587-8.436 0a5.555 5.555 0 0 0 0 7.23c2.217 2.587 6.219 2.587 8.436 0a5.555 5.555 0 0 0 0-7.23Z" />
    <path fill="#68A611" stroke="#F4FAEB" stroke-width="2"
        d="M30.218 6.385c-2.217-2.587-6.219-2.587-8.436 0a5.555 5.555 0 0 0 0 7.23c2.217 2.587 6.219 2.587 8.436 0a5.555 5.555 0 0 0 0-7.23Z" />
</svg>
