<svg xmlns="http://www.w3.org/2000/svg" width="40" height="20" fill="none">
    <path fill="#FFF2F3" d="M0 4a4 4 0 0 1 4-4h32a4 4 0 0 1 4 4v12a4 4 0 0 1-4 4H4a4 4 0 0 1-4-4V4Z" />
    <path fill="#FEB0B7" d="M8.541 7.035a4.556 4.556 0 1 1 6.918 5.93 4.556 4.556 0 0 1-6.918-5.93Z" />
    <path fill="#FEB0B7" stroke="#FFF2F3" stroke-width="2"
        d="M21.218 6.385c-2.217-2.587-6.219-2.587-8.436 0a5.555 5.555 0 0 0 0 7.23c2.217 2.587 6.219 2.587 8.436 0a5.555 5.555 0 0 0 0-7.23Z" />
    <path fill="#FEB0B7" stroke="#FFF2F3" stroke-width="2"
        d="M26.218 6.385c-2.217-2.587-6.219-2.587-8.436 0a5.555 5.555 0 0 0 0 7.23c2.217 2.587 6.219 2.587 8.436 0a5.555 5.555 0 0 0 0-7.23Z" />
    <path fill="#D93644" stroke="#FFF2F3" stroke-width="2"
        d="M31.218 6.385c-2.217-2.587-6.219-2.587-8.436 0a5.555 5.555 0 0 0 0 7.23c2.217 2.587 6.219 2.587 8.436 0a5.555 5.555 0 0 0 0-7.23Z" />
</svg>
