<svg width="197" height="177" viewBox="0 0 197 177" fill="none" xmlns="http://www.w3.org/2000/svg">
<g clip-path="url(#clip0)">
<path d="M195.272 67.6884C195.201 67.6884 195.132 67.6668 195.074 67.6264L99.4918 1.00044C99.2009 0.798626 98.8553 0.690774 98.5013 0.691378C98.1474 0.691982 97.8021 0.801012 97.5119 1.00382L2.61779 67.6257C2.54273 67.6784 2.44984 67.6991 2.35954 67.6832C2.26924 67.6674 2.18893 67.6163 2.13629 67.5411C2.08364 67.466 2.06297 67.373 2.07881 67.2826C2.09466 67.1923 2.14573 67.1119 2.22079 67.0592L97.115 0.437299C97.5213 0.153417 98.0047 0.000817369 98.5002 2.3283e-06C98.9957 -0.000812712 99.4796 0.150195 99.8868 0.432738L195.469 67.0585C195.53 67.1006 195.575 67.1609 195.599 67.2306C195.623 67.3004 195.624 67.3758 195.602 67.4461C195.58 67.5164 195.536 67.5778 195.476 67.6214C195.417 67.6649 195.345 67.6884 195.272 67.6884L195.272 67.6884Z" fill="#3F3D56"/>
<path d="M8.04028 70.0501L98.5953 2.87773L189.837 74.8297L103.261 126.199L56.2576 115.476L8.04028 70.0501Z" fill="#E6E6E6"/>
<path d="M60.2251 157.928H15.4887C15.214 157.928 14.942 157.875 14.6881 157.77C14.4342 157.665 14.2035 157.511 14.0091 157.316C13.8147 157.122 13.6606 156.891 13.5554 156.637C13.4502 156.383 13.396 156.111 13.396 155.836C13.396 155.561 13.4502 155.289 13.5554 155.035C13.6606 154.781 13.8147 154.55 14.0091 154.356C14.2035 154.162 14.4342 154.008 14.6881 153.903C14.942 153.798 15.214 153.744 15.4887 153.744H60.2251C60.4998 153.744 60.7719 153.798 61.0258 153.903C61.2797 154.008 61.5104 154.162 61.7048 154.356C61.8991 154.55 62.0533 154.781 62.1585 155.035C62.2637 155.289 62.3179 155.561 62.3179 155.836C62.3179 156.111 62.2637 156.383 62.1585 156.637C62.0533 156.891 61.8991 157.122 61.7048 157.316C61.5104 157.511 61.2797 157.665 61.0258 157.77C60.7719 157.875 60.4998 157.928 60.2251 157.928Z" fill="#607D8B"/>
<path d="M31.5392 148.934H15.4887C15.214 148.934 14.942 148.88 14.6881 148.776C14.4342 148.671 14.2035 148.516 14.0091 148.322C13.8147 148.128 13.6606 147.897 13.5554 147.643C13.4502 147.389 13.396 147.117 13.396 146.842C13.396 146.567 13.4502 146.295 13.5554 146.041C13.6606 145.787 13.8147 145.556 14.0091 145.362C14.2035 145.168 14.4342 145.014 14.6881 144.909C14.942 144.804 15.214 144.75 15.4887 144.75H31.5392C31.8139 144.75 32.0859 144.804 32.3398 144.909C32.5937 145.014 32.8244 145.168 33.0188 145.362C33.2132 145.556 33.3674 145.787 33.4726 146.041C33.5778 146.295 33.6319 146.567 33.6319 146.842C33.6319 147.117 33.5778 147.389 33.4726 147.643C33.3674 147.897 33.2132 148.128 33.0188 148.322C32.8244 148.516 32.5937 148.671 32.3398 148.776C32.0859 148.88 31.8139 148.934 31.5392 148.934Z" fill="#607D8B"/>
<path d="M99.8687 107.464C99.5287 107.465 99.1918 107.399 98.8771 107.27L43.0291 84.0761V11.4759C43.0298 10.8339 43.2849 10.2184 43.7385 9.76446C44.192 9.31051 44.8069 9.05515 45.4484 9.0544H152.589C153.23 9.05515 153.845 9.31051 154.299 9.76446C154.752 10.2184 155.007 10.8339 155.008 11.4759V84.1267L154.903 84.1717L100.89 107.258C100.567 107.394 100.22 107.464 99.8687 107.464Z" fill="white"/>
<path d="M99.8687 107.637C99.5061 107.637 99.1469 107.567 98.8112 107.43L42.8562 84.1916V11.4759C42.857 10.788 43.1303 10.1286 43.6163 9.64218C44.1022 9.1558 44.7611 8.88221 45.4483 8.88143H152.589C153.276 8.88221 153.935 9.1558 154.421 9.64218C154.907 10.1286 155.18 10.788 155.181 11.4759V84.2409L100.958 107.417C100.613 107.563 100.243 107.637 99.8687 107.637ZM43.5474 83.7295L99.0748 106.79C99.5928 107.001 100.173 106.997 100.688 106.781L154.49 83.7842V11.4759C154.489 10.9714 154.288 10.4879 153.932 10.1312C153.576 9.77452 153.093 9.57387 152.589 9.57328H45.4483C44.9444 9.57387 44.4612 9.77452 44.1049 10.1312C43.7485 10.4879 43.548 10.9714 43.5474 11.4759L43.5474 83.7295Z" fill="#3F3D56"/>
<path d="M194.581 66.9965H194.512L154.835 83.9537L100.55 107.155C100.337 107.244 100.11 107.291 99.8797 107.292C99.6496 107.293 99.4215 107.249 99.2084 107.162L43.2018 83.9052L2.55059 67.0242L2.48849 66.9965H2.4193C1.77788 66.9972 1.16293 67.2526 0.70938 67.7066C0.255828 68.1605 0.000711706 68.776 0 69.418V174.579C0.000712619 175.221 0.255828 175.836 0.70938 176.29C1.16293 176.744 1.77788 176.999 2.4193 177H194.581C195.222 176.999 195.837 176.744 196.291 176.29C196.744 175.836 196.999 175.221 197 174.579V69.418C196.999 68.776 196.744 68.1605 196.291 67.7066C195.837 67.2526 195.222 66.9972 194.581 66.9965ZM196.309 174.579C196.309 175.037 196.126 175.477 195.802 175.801C195.478 176.126 195.039 176.308 194.581 176.308H2.4193C1.96104 176.308 1.52161 176.126 1.19757 175.801C0.873536 175.477 0.691411 175.037 0.691228 174.579V69.418C0.691855 68.9707 0.865197 68.541 1.17501 68.2187C1.48483 67.8963 1.90713 67.7063 2.35365 67.6884L43.2018 84.6524L98.9425 107.802C99.5459 108.047 100.222 108.044 100.823 107.791L154.835 84.7043L194.65 67.6884C195.096 67.7076 195.517 67.8982 195.826 68.2203C196.135 68.5425 196.308 68.9714 196.309 69.418V174.579Z" fill="#3F3D56"/>
<path d="M99.3104 86.8775C97.2487 86.8813 95.2416 86.214 93.5919 84.9762L93.4896 84.8994L71.9541 68.3963C70.9567 67.6314 70.1197 66.6774 69.4907 65.5888C68.8617 64.5001 68.4531 63.2981 68.2882 62.0514C68.1233 60.8047 68.2054 59.5377 68.5297 58.3228C68.8541 57.1078 69.4143 55.9687 70.1785 54.9704C70.9426 53.9722 71.8958 53.1344 72.9835 52.5048C74.0711 51.8753 75.2721 51.4663 76.5177 51.3013C77.7632 51.1362 79.0291 51.2184 80.243 51.543C81.4569 51.8676 82.595 52.4284 83.5923 53.1932L97.5414 63.8988L130.505 20.8706C131.27 19.8726 132.223 19.0351 133.311 18.4059C134.399 17.7767 135.6 17.3682 136.846 17.2036C138.091 17.039 139.357 17.1216 140.571 17.4467C141.785 17.7718 142.923 18.333 143.92 19.0982L143.715 19.3767L143.925 19.1023C145.936 20.6494 147.252 22.9319 147.584 25.449C147.916 27.9661 147.237 30.5122 145.696 32.5287L106.922 83.1402C106.026 84.3065 104.872 85.2503 103.552 85.8984C102.232 86.5466 100.781 86.8816 99.3104 86.8775Z" fill="#607D8B"/>
</g>
<defs>
<clipPath id="clip0">
<rect width="197" height="177" fill="white"/>
</clipPath>
</defs>
</svg>
