<svg width="332" height="239" viewBox="0 0 332 239" fill="none" xmlns="http://www.w3.org/2000/svg">
<path d="M197 200C240.63 200 276 163.959 276 119.5C276 75.0411 240.63 39 197 39C153.369 39 118 75.0411 118 119.5C118 163.959 153.369 200 197 200Z" fill="#5D7A88" fill-opacity="0.75"/>
<path d="M212.2 239H-147.2C-178.973 239 -209.445 226.41 -231.911 203.999C-254.378 181.589 -267 151.193 -267 119.5C-267 87.8067 -254.378 57.4113 -231.911 35.0007C-209.445 12.5901 -178.973 0 -147.2 0H212.2C243.973 0 274.445 12.5901 296.911 35.0007C319.378 57.4113 332 87.8067 332 119.5C332 151.193 319.378 181.589 296.911 203.999C274.445 226.41 243.973 239 212.2 239ZM-147.2 15.9333C-174.737 15.9333 -201.145 26.8448 -220.617 46.2673C-240.088 65.6898 -251.027 92.0324 -251.027 119.5C-251.027 146.968 -240.088 173.31 -220.617 192.733C-201.145 212.155 -174.737 223.067 -147.2 223.067H212.2C239.737 223.067 266.145 212.155 285.617 192.733C305.088 173.31 316.027 146.968 316.027 119.5C316.027 92.0324 305.088 65.6898 285.617 46.2673C266.145 26.8448 239.737 15.9333 212.2 15.9333H-147.2Z" fill="#5D7A88" fill-opacity="0.75"/>
</svg>
