<svg xmlns="http://www.w3.org/2000/svg" width="704" height="144" fill="none" viewBox="0 0 704 144">
    <rect width="704" height="144" fill="#F1F0FC" rx="8" />
    <path stroke="#1A4049" stroke-width="2"
        d="m581.937 58.1312.787.2083.364-.7288.048-.0961c2.597-5.2104 8.074-16.1946 22.467-16.5058 7.997-.1729 13.216 2.2157 16.854 5.2544 3.274 2.7341 5.307 6.0169 6.952 8.6718.204.3293.402.6489.595.9567l.457.7255.787-.3403c5.984-2.5876 10.736-1.6976 14.095.5789 3.412 2.3125 5.472 6.1132 5.895 9.4544l.095.7547.753.1094c9.643 1.402 14.52 11.4451 10.504 19.9527-.962 2.0365-3.16 4.4189-6.147 5.9357-2.959 1.5034-6.636 2.1289-10.586.7691l-.631-.2175-.443.5002c-3.091 3.4927-6.586 5.7611-10.451 6.6095-3.86.847-8.198.303-13.026-2.0231l-.471-.2268-.455.257c-6.882 3.8879-12.375 4.6479-16.658 4.0969-4.295-.553-7.484-2.44-9.739-4.0414l-.55-.3906-.568.3634c-4.966 3.1766-11.532 4.6146-17.975 4.1576-6.442-.456-12.648-2.798-16.944-7.045l-.021-.0207-.022-.0194c-5.209-4.5779-10.025-14.9348-4.334-26.1861 4.655-9.2053 15.165-15.0069 28.368-11.5146Z" />
    <path fill="#1A4049"
        d="M572.686 93.899c7.66 0 13.869-6.2048 13.869-13.8587 0-7.6539-6.209-13.8587-13.869-13.8587s-13.87 6.2048-13.87 13.8587c0 7.6539 6.21 13.8587 13.87 13.8587Z" />
    <path fill="#fff" d="M570.605 73.8037h-4.161v12.4728h12.483V73.8037h-4.161v8.3152h-4.161v-8.3152Z" />
    <path fill="#817AFE" d="M574.766 82.1191h4.161v4.1576h-4.161v-4.1576Z" />
    <path fill="#1A4049"
        d="M592.933 82.3505V77.66h2.062v4.4592c0 1.3096.676 2.1709 1.948 2.1709 1.272 0 1.948-.8613 1.948-2.1709V77.66h2.074v4.6905c0 2.2545-1.466 3.8791-3.993 3.8791-2.573 0-4.039-1.6246-4.039-3.8791Zm12.156 3.6958h-2.044V77.66h2.044v1.4093c.273-.4894.668-.8955 1.143-1.1768.475-.2814 1.014-.4279 1.563-.4247 2.044 0 3.398 1.5427 3.398 3.6798v4.8987h-2.074v-4.4752c0-1.3256-.758-2.2047-1.981-2.2047-1.224 0-2.045.8897-2.045 2.2047l-.004 4.4752Zm8.213-12.1996h2.06v12.1996h-2.06V73.8467Zm12.414 8.1248v.2313h-6.474c.082 1.3097 1.015 2.3132 2.367 2.3132 1.305 0 1.835-.6797 1.981-.911h2.029c-.13.8612-1.239 2.6691-4.01 2.6691-2.64 0-4.427-1.888-4.427-4.4076 0-2.6033 1.77-4.4094 4.266-4.4094s4.268 1.7776 4.268 4.5144Zm-6.41-1.2278h4.252c-.305-1.0677-1.063-1.6566-2.11-1.6566-1.111-.0018-1.884.6121-2.142 1.6548v.0018Zm10.997.048h2.674c0-1.0107-.741-1.6566-1.948-1.6566-1.144 0-1.556.6299-1.69.8452h-2.075c.173-.879 1.191-2.5356 3.769-2.5356 2.527 0 3.928 1.3594 3.928 3.347v2.8346c0 .5143.173.7118.643.7634v1.7065h-.643c-1.047-.0161-1.675-.4146-1.901-1.1602-.385.6139-1.255 1.2936-2.639 1.2936-1.917 0-3.366-1.1103-3.366-2.8346 0-1.7242 1.236-2.6033 3.248-2.6033Zm2.674 2.1549v-.7118h-2.335c-.966 0-1.556.3559-1.556 1.1264 0 .8132.742 1.2936 1.772 1.2936 1.153 0 2.119-.5801 2.119-1.7082Zm6.892-.331c-1.788-.1316-2.996-.9947-2.996-2.6193 0-1.5747 1.4-2.5694 3.59-2.5694 2.939 0 3.768 1.5587 3.993 2.3701h-2.173c-.145-.1779-.612-.7615-1.835-.7615-.982 0-1.497.3309-1.497.8452 0 .4644.345.7633 1.158.879l1.383.1495c2.207.1975 3.111 1.0676 3.111 2.7171 0 1.5748-1.272 2.6531-3.768 2.6531-3.027 0-4.009-1.8078-4.169-2.5854h2.205c.082.1975.579.9448 1.964.9448 1.144 0 1.675-.3986 1.675-.9288 0-.5303-.289-.8292-1.21-.9449-.579-.0498-.868-.0819-1.431-.1495Zm8.371 3.4307h-2.045V73.8467h2.045v5.2226c.273-.4894.667-.8955 1.142-1.1768.475-.2814 1.015-.4279 1.563-.4247 2.045 0 3.398 1.5427 3.398 3.6798v4.8987h-2.074v-4.4752c0-1.3256-.757-2.2047-1.981-2.2047-1.224 0-2.045.8897-2.045 2.2047l-.003 4.4752ZM421.906 62.125v1.9531h-4.109V68h-2.172V57.5312h7.141v1.9532h-4.969v2.6406h4.109Zm6.75-2.2188c.771 0 1.433.1667 1.985.5.562.3334.989.7969 1.281 1.3907.302.5833.453 1.2604.453 2.0312v.8438h-5.719c.104.5312.365.9583.782 1.2812.416.3229.927.4844 1.531.4844.573 0 1.093-.1146 1.562-.3437.469-.2292.844-.4636 1.125-.7032l-.015 1.8438c-.25.2187-.625.4427-1.125.6718-.49.2188-1.032.3282-1.625.3282-.782 0-1.495-.1771-2.141-.5313-.635-.3541-1.146-.8385-1.531-1.4531-.375-.6146-.563-1.3177-.563-2.1094 0-.7708.172-1.4739.516-2.1094.344-.6354.818-1.1458 1.422-1.5312.604-.3958 1.291-.5938 2.062-.5938Zm-.047 1.7344c-.489 0-.901.1511-1.234.4532-.333.302-.563.7083-.687 1.2187h3.781c-.042-.5625-.25-.9792-.625-1.25-.375-.2813-.787-.4219-1.235-.4219Zm8.438-3.8281v2.2969h2.187v1.6562h-2.187v3.4063c0 .3541.078.6354.234.8437.167.1979.412.2969.735.2969.281 0 .52-.0313.718-.0937.209-.0626.401-.1511.578-.2657v1.5781c-.197.198-.447.3646-.75.5-.291.1355-.661.2032-1.109.2032-.708 0-1.286-.224-1.734-.6719-.438-.4583-.657-1.0833-.657-1.875v-3.9219h-1.421V60.75c.5-.1771.958-.5104 1.375-1 .427-.4896.765-1.1354 1.015-1.9375h1.016Zm7.812 2.0937c.584 0 1.063.0938 1.438.2813s.672.3698.891.5469v1.8281c-.271-.1979-.579-.3646-.922-.5-.334-.1354-.745-.2031-1.235-.2031-.396 0-.765.0989-1.109.2968-.333.198-.599.4636-.797.7969-.198.3334-.297.7136-.297 1.1407 0 .6458.208 1.177.625 1.5937.417.4167.943.625 1.578.625.49 0 .901-.0625 1.235-.1875.343-.1354.651-.3021.922-.5v1.8125c-.219.1875-.516.3698-.891.5469-.375.1666-.854.25-1.438.25-.802 0-1.515-.1875-2.14-.5625-.615-.3854-1.104-.8907-1.469-1.5157-.354-.6354-.531-1.3229-.531-2.0624 0-.5521.099-1.0782.297-1.5782.208-.5.5-.9427.875-1.3281.375-.3958.812-.7083 1.312-.9375.511-.2292 1.063-.3438 1.656-.3438Zm8.469 0c.802 0 1.474.2709 2.016.8126.541.5416.812 1.3541.812 2.4374V68h-1.984l-.016-4.5781c0-.5313-.13-.9271-.39-1.1875-.25-.2604-.599-.3906-1.047-.3906-.354 0-.688.1145-1 .3437-.302.2292-.563.5-.781.8125v5h-1.985V56.75h1.985v4.4844c.239-.3229.562-.625.968-.9063.417-.2812.891-.4219 1.422-.4219Zm12.656-2.0937v2.2969h2.188v1.6562h-2.188v3.4063c0 .3541.078.6354.235.8437.166.1979.411.2969.734.2969.281 0 .521-.0313.719-.0937.208-.0626.401-.1511.578-.2657v1.5781c-.198.198-.448.3646-.75.5-.292.1355-.661.2032-1.109.2032-.709 0-1.287-.224-1.735-.6719-.437-.4583-.656-1.0833-.656-1.875v-3.9219h-1.422V60.75c.5-.1771.958-.5104 1.375-1 .427-.4896.766-1.1354 1.016-1.9375h1.015Zm7.891 2.0937c.771 0 1.474.1876 2.109.5626.636.3645 1.146.8645 1.532 1.5.395.625.593 1.3281.593 2.1093 0 .7813-.198 1.4844-.593 2.1094-.386.625-.896 1.125-1.532 1.5-.635.3646-1.338.5469-2.109.5469-.76 0-1.464-.1823-2.109-.5469-.636-.375-1.146-.875-1.532-1.5-.385-.625-.578-1.3281-.578-2.1094 0-.7812.193-1.4843.578-2.1093.386-.6355.896-1.1355 1.532-1.5.645-.375 1.349-.5626 2.109-.5626Zm0 1.9219c-.375 0-.724.0886-1.047.2657-.323.177-.583.4322-.781.7656-.188.3333-.281.7396-.281 1.2187 0 .4792.093.8854.281 1.2188.198.3333.458.5885.781.7656.323.1667.672.25 1.047.25.375 0 .724-.0833 1.047-.25.323-.1771.583-.4323.781-.7656.198-.3334.297-.7396.297-1.2188 0-.4791-.099-.8854-.297-1.2187-.198-.3334-.458-.5886-.781-.7656-.323-.1771-.672-.2657-1.047-.2657Zm9.234-1.9219c.427 0 .86.099 1.297.2969.438.1979.802.4636 1.094.7969v-.8906h1.984v7.6875c0 .8958-.198 1.651-.593 2.2656-.396.625-.922 1.099-1.579 1.4219-.656.3333-1.374.5-2.156.5-.698 0-1.271-.1042-1.718-.3125-.448-.2084-.865-.4479-1.25-.7188v-1.875c.239.1459.489.3021.75.4688.27.1666.572.3073.906.4219.344.1145.739.1718 1.187.1718.469 0 .891-.0885 1.266-.2656s.667-.4271.875-.75c.219-.3125.328-.6719.328-1.0781v-1.375c-.229.4271-.562.7969-1 1.1093-.438.3021-.948.4532-1.531.4532-.636 0-1.224-.1615-1.766-.4844-.531-.3229-.958-.7917-1.281-1.4062-.323-.6146-.484-1.3594-.484-2.2344s.161-1.625.484-2.25c.333-.625.776-1.1042 1.328-1.4375.562-.3438 1.182-.5157 1.859-.5157Zm.407 1.9532c-.417 0-.776.1094-1.078.3281-.292.2083-.521.4844-.688.8281-.167.3334-.25.6979-.25 1.0938 0 .5937.177 1.0989.531 1.5156.365.4062.844.6094 1.438.6094.354 0 .682-.0886.984-.2656.313-.1876.563-.448.75-.7813.198-.3437.297-.7552.297-1.2344v-1.125c-.281-.3021-.589-.5364-.922-.7031-.323-.1771-.677-.2656-1.062-.2656Zm9.531-1.9532c.427 0 .859.099 1.297.2969.437.1979.802.4636 1.094.7969v-.8906h1.984v7.6875c0 .8958-.198 1.651-.594 2.2656-.396.625-.922 1.099-1.578 1.4219-.656.3333-1.375.5-2.156.5-.698 0-1.271-.1042-1.719-.3125-.448-.2084-.865-.4479-1.25-.7188v-1.875c.24.1459.49.3021.75.4688.271.1666.573.3073.906.4219.344.1145.74.1718 1.188.1718.469 0 .89-.0885 1.265-.2656.375-.1771.667-.4271.875-.75.219-.3125.329-.6719.329-1.0781v-1.375c-.23.4271-.563.7969-1 1.1093-.438.3021-.948.4532-1.532.4532-.635 0-1.224-.1615-1.765-.4844-.532-.3229-.959-.7917-1.282-1.4062-.323-.6146-.484-1.3594-.484-2.2344s.161-1.625.484-2.25c.334-.625.776-1.1042 1.329-1.4375.562-.3438 1.182-.5157 1.859-.5157Zm.406 1.9532c-.417 0-.776.1094-1.078.3281-.292.2083-.521.4844-.687.8281-.167.3334-.25.6979-.25 1.0938 0 .5937.177 1.0989.531 1.5156.364.4062.843.6094 1.437.6094.354 0 .683-.0886.985-.2656.312-.1876.562-.448.75-.7813.198-.3437.297-.7552.297-1.2344v-1.125c-.282-.3021-.589-.5364-.922-.7031-.323-.1771-.677-.2656-1.063-.2656Zm8.391-5.1094V68h-1.985V56.75h1.985Zm5.875 3.1562c.771 0 1.432.1667 1.984.5.563.3334.99.7969 1.281 1.3907.302.5833.454 1.2604.454 2.0312v.8438h-5.719c.104.5312.364.9583.781 1.2812.417.3229.927.4844 1.531.4844.573 0 1.094-.1146 1.563-.3437.468-.2292.844-.4636 1.125-.7032l-.016 1.8438c-.25.2187-.625.4427-1.125.6718-.489.2188-1.031.3282-1.625.3282-.781 0-1.495-.1771-2.141-.5313-.635-.3541-1.145-.8385-1.531-1.4531-.375-.6146-.562-1.3177-.562-2.1094 0-.7708.172-1.4739.515-2.1094.344-.6354.818-1.1458 1.422-1.5312.604-.3958 1.292-.5938 2.063-.5938Zm-.047 1.7344c-.49 0-.901.1511-1.234.4532-.334.302-.563.7083-.688 1.2187h3.781c-.041-.5625-.25-.9792-.625-1.25-.375-.2813-.786-.4219-1.234-.4219Zm8.125-1.7344c.489 0 .943.073 1.359.2188.417.1458.74.3125.969.5v1.75c-.25-.1667-.557-.3281-.922-.4844-.354-.1562-.724-.2344-1.109-.2344-.375 0-.672.0834-.891.25-.219.1667-.328.3646-.328.5938 0 .1667.063.3229.187.4688.126.1354.365.2552.719.3593l.891.2969c1.198.3542 1.797 1.0469 1.797 2.0781 0 .4896-.141.9271-.422 1.3125-.271.375-.641.6719-1.109.8906-.459.2188-.969.3282-1.532.3282-.531 0-1.047-.0834-1.547-.25-.5-.1667-.88-.349-1.14-.5469v-1.7344c.198.1354.437.2657.719.3907.281.125.572.2291.874.3124.303.073.579.1094.829.1094.395 0 .698-.0677.906-.2031.219-.1458.328-.349.328-.6094 0-.1979-.089-.3541-.266-.4687-.177-.1146-.437-.2292-.781-.3438l-.969-.3437c-.604-.1979-1.02-.4792-1.25-.8438-.229-.3646-.343-.7969-.343-1.2969 0-.5.125-.9322.375-1.2968.26-.375.619-.6667 1.078-.875.458-.2188.984-.3282 1.578-.3282Zm-6.164 33.2575 8.421-6.8897c.489-.4001.489-1.1479 0-1.548l-8.421-6.8897c-.653-.5342-1.633-.0697-1.633.7739v13.7796c0 .8436.98 1.3081 1.633.7739Z" />
    <path stroke="#1A4049" stroke-linecap="round" stroke-width="4" d="M416.5 85.5h94" />
    <rect width="86" height="62" x="296" y="41" fill="#fff" rx="11" />
    <path fill="#1A4049"
        d="M327.82 70.7812v1.7657h-4.625v2.5312h5.235V77h-7.407V66.5312h7.407v1.875h-5.235v2.375h4.625Zm10.578-5.0312V77h-1.984v-1.3281c-.229.4271-.562.7969-1 1.1093-.437.3021-.948.4532-1.531.4532-.636 0-1.224-.1615-1.766-.4844-.531-.3229-.958-.7917-1.281-1.4062-.323-.6146-.484-1.3594-.484-2.2344s.161-1.625.484-2.25c.333-.625.776-1.1042 1.328-1.4375.563-.3438 1.182-.5157 1.859-.5157.428 0 .86.099 1.297.2969.438.1979.802.4636 1.094.7969v-4.25h1.984Zm-3.968 5.1094c-.417 0-.776.1094-1.078.3281-.292.2083-.521.4844-.688.8281-.167.3334-.25.6979-.25 1.0938 0 .5937.177 1.0989.531 1.5156.365.4167.844.625 1.438.625.354 0 .682-.0938.984-.2812.313-.1876.563-.448.75-.7813.198-.3437.297-.7552.297-1.2344v-1.125c-.281-.3021-.588-.5364-.922-.7031-.323-.1771-.677-.2656-1.062-.2656Zm9.531-1.9532c.427 0 .859.099 1.297.2969.437.1979.802.4636 1.094.7969v-.8906h1.984v7.6875c0 .8958-.198 1.651-.594 2.2656-.396.625-.922 1.099-1.578 1.4219-.656.3333-1.375.5-2.156.5-.698 0-1.271-.1042-1.719-.3125-.448-.2084-.865-.4479-1.25-.7188v-1.875c.24.1459.49.3021.75.4688.271.1666.573.3073.906.4219.344.1145.74.1718 1.188.1718.469 0 .89-.0885 1.265-.2656.375-.1771.667-.4271.875-.75.219-.3125.329-.6719.329-1.0781v-1.375c-.23.4271-.563.7969-1 1.1093-.438.3021-.948.4532-1.532.4532-.635 0-1.224-.1615-1.765-.4844-.532-.3229-.959-.7917-1.282-1.4062-.322-.6146-.484-1.3594-.484-2.2344s.162-1.625.484-2.25c.334-.625.776-1.1042 1.329-1.4375.562-.3438 1.182-.5157 1.859-.5157Zm.406 1.9532c-.416 0-.776.1094-1.078.3281-.292.2083-.521.4844-.687.8281-.167.3334-.25.6979-.25 1.0938 0 .5937.177 1.0989.531 1.5156.364.4062.844.6094 1.437.6094.354 0 .683-.0886.985-.2656.312-.1876.562-.448.75-.7813.198-.3437.297-.7552.297-1.2344v-1.125c-.282-.3021-.589-.5364-.922-.7031-.323-.1771-.677-.2656-1.063-.2656Zm9.86-1.9532c.77 0 1.432.1667 1.984.5.562.3334.99.7969 1.281 1.3907.302.5833.453 1.2604.453 2.0312v.8438h-5.718c.104.5312.364.9583.781 1.2812.416.3229.927.4844 1.531.4844.573 0 1.094-.1146 1.563-.3437.468-.2292.843-.4636 1.125-.7032l-.016 1.8438c-.25.2187-.625.4427-1.125.6718-.49.2188-1.031.3282-1.625.3282-.781 0-1.495-.1771-2.141-.5313-.635-.3541-1.146-.8385-1.531-1.4531-.375-.6146-.562-1.3177-.562-2.1094 0-.7708.171-1.4739.515-2.1094.344-.6354.818-1.1458 1.422-1.5312.604-.3958 1.292-.5938 2.063-.5938Zm-.047 1.7344c-.49 0-.901.1511-1.235.4532-.333.302-.562.7083-.687 1.2187h3.781c-.042-.5625-.25-.9792-.625-1.25-.375-.2813-.786-.4219-1.234-.4219Z" />
    <rect width="86" height="62" x="296" y="41" stroke="#1A4049" stroke-width="2" rx="11" />
    <path fill="#1A4049"
        d="M166.906 62.125v1.9531h-4.109V68h-2.172V57.5312h7.141v1.9532h-4.969v2.6406h4.109Zm6.75-2.2188c.771 0 1.433.1667 1.985.5.562.3334.989.7969 1.281 1.3907.302.5833.453 1.2604.453 2.0312v.8438h-5.719c.104.5312.365.9583.782 1.2812.416.3229.927.4844 1.531.4844.573 0 1.093-.1146 1.562-.3437.469-.2292.844-.4636 1.125-.7032l-.015 1.8438c-.25.2187-.625.4427-1.125.6718-.49.2188-1.032.3282-1.625.3282-.782 0-1.495-.1771-2.141-.5313-.635-.3541-1.146-.8385-1.531-1.4531-.375-.6146-.563-1.3177-.563-2.1094 0-.7708.172-1.4739.516-2.1094.344-.6354.818-1.1458 1.422-1.5312.604-.3958 1.291-.5938 2.062-.5938Zm-.047 1.7344c-.489 0-.901.1511-1.234.4532-.333.302-.563.7083-.687 1.2187h3.781c-.042-.5625-.25-.9792-.625-1.25-.375-.2813-.787-.4219-1.235-.4219Zm8.438-3.8281v2.2969h2.187v1.6562h-2.187v3.4063c0 .3541.078.6354.234.8437.167.1979.412.2969.735.2969.281 0 .52-.0313.718-.0937.209-.0626.401-.1511.578-.2657v1.5781c-.197.198-.447.3646-.75.5-.291.1355-.661.2032-1.109.2032-.708 0-1.286-.224-1.734-.6719-.438-.4583-.657-1.0833-.657-1.875v-3.9219h-1.421V60.75c.5-.1771.958-.5104 1.375-1 .427-.4896.765-1.1354 1.015-1.9375h1.016Zm7.812 2.0937c.584 0 1.063.0938 1.438.2813s.672.3698.891.5469v1.8281c-.271-.1979-.579-.3646-.922-.5-.334-.1354-.745-.2031-1.235-.2031-.396 0-.765.0989-1.109.2968-.333.198-.599.4636-.797.7969-.198.3334-.297.7136-.297 1.1407 0 .6458.208 1.177.625 1.5937.417.4167.943.625 1.578.625.49 0 .901-.0625 1.235-.1875.343-.1354.651-.3021.922-.5v1.8125c-.219.1875-.516.3698-.891.5469-.375.1666-.854.25-1.438.25-.802 0-1.515-.1875-2.14-.5625-.615-.3854-1.104-.8907-1.469-1.5157-.354-.6354-.531-1.3229-.531-2.0624 0-.5521.099-1.0782.297-1.5782.208-.5.5-.9427.875-1.3281.375-.3958.812-.7083 1.312-.9375.511-.2292 1.063-.3438 1.656-.3438Zm8.469 0c.802 0 1.474.2709 2.016.8126.541.5416.812 1.3541.812 2.4374V68h-1.984l-.016-4.5781c0-.5313-.13-.9271-.39-1.1875-.25-.2604-.599-.3906-1.047-.3906-.354 0-.688.1145-1 .3437-.302.2292-.563.5-.781.8125v5h-1.985V56.75h1.985v4.4844c.239-.3229.562-.625.968-.9063.417-.2812.891-.4219 1.422-.4219Zm12.656-2.0937v2.2969h2.188v1.6562h-2.188v3.4063c0 .3541.078.6354.235.8437.166.1979.411.2969.734.2969.281 0 .521-.0313.719-.0937.208-.0626.401-.1511.578-.2657v1.5781c-.198.198-.448.3646-.75.5-.292.1355-.661.2032-1.109.2032-.709 0-1.287-.224-1.735-.6719-.437-.4583-.656-1.0833-.656-1.875v-3.9219h-1.422V60.75c.5-.1771.958-.5104 1.375-1 .427-.4896.766-1.1354 1.016-1.9375h1.015Zm7.891 2.0937c.771 0 1.474.1876 2.109.5626.636.3645 1.146.8645 1.532 1.5.395.625.593 1.3281.593 2.1093 0 .7813-.198 1.4844-.593 2.1094-.386.625-.896 1.125-1.532 1.5-.635.3646-1.338.5469-2.109.5469-.76 0-1.464-.1823-2.109-.5469-.636-.375-1.146-.875-1.532-1.5-.385-.625-.578-1.3281-.578-2.1094 0-.7812.193-1.4843.578-2.1093.386-.6355.896-1.1355 1.532-1.5.645-.375 1.349-.5626 2.109-.5626Zm0 1.9219c-.375 0-.724.0886-1.047.2657-.323.177-.583.4322-.781.7656-.188.3333-.281.7396-.281 1.2187 0 .4792.093.8854.281 1.2188.198.3333.458.5885.781.7656.323.1667.672.25 1.047.25.375 0 .724-.0833 1.047-.25.323-.1771.583-.4323.781-.7656.198-.3334.297-.7396.297-1.2188 0-.4791-.099-.8854-.297-1.2187-.198-.3334-.458-.5886-.781-.7656-.323-.1771-.672-.2657-1.047-.2657Zm9.234-1.9219c.427 0 .86.099 1.297.2969.438.1979.802.4636 1.094.7969v-.8906h1.984v7.6875c0 .8958-.198 1.651-.593 2.2656-.396.625-.922 1.099-1.579 1.4219-.656.3333-1.374.5-2.156.5-.698 0-1.271-.1042-1.718-.3125-.448-.2084-.865-.4479-1.25-.7188v-1.875c.239.1459.489.3021.75.4688.27.1666.572.3073.906.4219.344.1145.739.1718 1.187.1718.469 0 .891-.0885 1.266-.2656s.667-.4271.875-.75c.219-.3125.328-.6719.328-1.0781v-1.375c-.229.4271-.562.7969-1 1.1093-.438.3021-.948.4532-1.531.4532-.636 0-1.224-.1615-1.766-.4844-.531-.3229-.958-.7917-1.281-1.4062-.323-.6146-.484-1.3594-.484-2.2344s.161-1.625.484-2.25c.333-.625.776-1.1042 1.328-1.4375.562-.3438 1.182-.5157 1.859-.5157Zm.407 1.9532c-.417 0-.776.1094-1.078.3281-.292.2083-.521.4844-.688.8281-.167.3334-.25.6979-.25 1.0938 0 .5937.177 1.0989.531 1.5156.365.4062.844.6094 1.438.6094.354 0 .682-.0886.984-.2656.313-.1876.563-.448.75-.7813.198-.3437.297-.7552.297-1.2344v-1.125c-.281-.3021-.589-.5364-.922-.7031-.323-.1771-.677-.2656-1.062-.2656Zm9.531-1.9532c.427 0 .859.099 1.297.2969.437.1979.802.4636 1.094.7969v-.8906h1.984v7.6875c0 .8958-.198 1.651-.594 2.2656-.396.625-.922 1.099-1.578 1.4219-.656.3333-1.375.5-2.156.5-.698 0-1.271-.1042-1.719-.3125-.448-.2084-.865-.4479-1.25-.7188v-1.875c.24.1459.49.3021.75.4688.271.1666.573.3073.906.4219.344.1145.74.1718 1.188.1718.469 0 .89-.0885 1.265-.2656.375-.1771.667-.4271.875-.75.219-.3125.329-.6719.329-1.0781v-1.375c-.23.4271-.563.7969-1 1.1093-.438.3021-.948.4532-1.532.4532-.635 0-1.224-.1615-1.765-.4844-.532-.3229-.959-.7917-1.282-1.4062-.323-.6146-.484-1.3594-.484-2.2344s.161-1.625.484-2.25c.334-.625.776-1.1042 1.329-1.4375.562-.3438 1.182-.5157 1.859-.5157Zm.406 1.9532c-.417 0-.776.1094-1.078.3281-.292.2083-.521.4844-.687.8281-.167.3334-.25.6979-.25 1.0938 0 .5937.177 1.0989.531 1.5156.364.4062.843.6094 1.437.6094.354 0 .683-.0886.985-.2656.312-.1876.562-.448.75-.7813.198-.3437.297-.7552.297-1.2344v-1.125c-.282-.3021-.589-.5364-.922-.7031-.323-.1771-.677-.2656-1.063-.2656Zm8.391-5.1094V68h-1.985V56.75h1.985Zm5.875 3.1562c.771 0 1.432.1667 1.984.5.563.3334.99.7969 1.281 1.3907.302.5833.454 1.2604.454 2.0312v.8438h-5.719c.104.5312.364.9583.781 1.2812.417.3229.927.4844 1.531.4844.573 0 1.094-.1146 1.563-.3437.468-.2292.844-.4636 1.125-.7032l-.016 1.8438c-.25.2187-.625.4427-1.125.6718-.489.2188-1.031.3282-1.625.3282-.781 0-1.495-.1771-2.141-.5313-.635-.3541-1.145-.8385-1.531-1.4531-.375-.6146-.562-1.3177-.562-2.1094 0-.7708.172-1.4739.515-2.1094.344-.6354.818-1.1458 1.422-1.5312.604-.3958 1.292-.5938 2.063-.5938Zm-.047 1.7344c-.49 0-.901.1511-1.234.4532-.334.302-.563.7083-.688 1.2187h3.781c-.041-.5625-.25-.9792-.625-1.25-.375-.2813-.786-.4219-1.234-.4219Zm8.125-1.7344c.489 0 .943.073 1.359.2188.417.1458.74.3125.969.5v1.75c-.25-.1667-.557-.3281-.922-.4844-.354-.1562-.724-.2344-1.109-.2344-.375 0-.672.0834-.891.25-.219.1667-.328.3646-.328.5938 0 .1667.063.3229.187.4688.126.1354.365.2552.719.3593l.891.2969c1.198.3542 1.797 1.0469 1.797 2.0781 0 .4896-.141.9271-.422 1.3125-.271.375-.641.6719-1.109.8906-.459.2188-.969.3282-1.532.3282-.531 0-1.047-.0834-1.547-.25-.5-.1667-.88-.349-1.14-.5469v-1.7344c.198.1354.437.2657.719.3907.281.125.572.2291.874.3124.303.073.579.1094.829.1094.395 0 .698-.0677.906-.2031.219-.1458.328-.349.328-.6094 0-.1979-.089-.3541-.266-.4687-.177-.1146-.437-.2292-.781-.3438l-.969-.3437c-.604-.1979-1.02-.4792-1.25-.8438-.229-.3646-.343-.7969-.343-1.2969 0-.5.125-.9322.375-1.2968.26-.375.619-.6667 1.078-.875.458-.2188.984-.3282 1.578-.3282Zm-6.164 33.2575 8.421-6.8897c.489-.4001.489-1.1479 0-1.548l-8.421-6.8897c-.653-.5342-1.633-.0697-1.633.7739v13.7796c0 .8436.98 1.3081 1.633.7739Z" />
    <path stroke="#1A4049" stroke-linecap="round" stroke-width="4" d="M161.5 85.5h94" />
    <path fill="#1A4049"
        d="M67.6562 66.2969c.6563 0 1.224.0937 1.7032.2812.4791.1771.8958.4219 1.25.7344V69.5c-.25-.1875-.5104-.3698-.7813-.5469-.2708-.1771-.5781-.3229-.9219-.4375-.3333-.1146-.7291-.1718-1.1874-.1718-.625 0-1.1928.151-1.7032.4531-.5104.3021-.9166.7083-1.2187 1.2187-.3021.5104-.4531 1.0938-.4531 1.75 0 .6459.151 1.2292.4531 1.75.3021.5104.7083.9167 1.2187 1.2188.5104.2916 1.0782.4375 1.7032.4375.6979 0 1.2812-.1042 1.75-.3125.4791-.2188.9114-.4844 1.2968-.7969v2.1094c-.3541.3229-.7968.5833-1.3281.7812-.5313.1875-1.125.2813-1.7813.2813-.75 0-1.4583-.1302-2.125-.3906-.6666-.2709-1.2552-.6459-1.7656-1.125-.5104-.4896-.9114-1.0678-1.2031-1.7344-.2917-.6667-.4375-1.4063-.4375-2.2188 0-.8125.1458-1.5521.4375-2.2187.2917-.6667.6927-1.2396 1.2031-1.7188.5104-.4896 1.099-.8646 1.7656-1.125.6667-.2708 1.375-.4062 2.125-.4062Zm7.0157-.5469V77h-1.9844V65.75h1.9844ZM78.75 65c.375 0 .6979.1354.9688.4062.2708.2605.4062.573.4062.9376 0 .3541-.1354.6666-.4062.9374-.2709.2709-.5938.4063-.9688.4063s-.6979-.1354-.9688-.4063c-.2604-.2708-.3906-.5833-.3906-.9374 0-.3646.1302-.6771.3906-.9376.2709-.2708.5938-.4062.9688-.4062Zm1.1562 4.1094V77h-1.9843v-6.2031h-1.2657v-1.6875h3.25Zm5.9532-.2032c.7708 0 1.4323.1667 1.9844.5.5624.3334.9895.7969 1.2812 1.3907.3021.5833.4531 1.2604.4531 2.0312v.8438h-5.7187c.1041.5312.3646.9583.7812 1.2812.4167.3229.9271.4844 1.5313.4844.5729 0 1.0937-.1146 1.5625-.3437.4687-.2292.8437-.4636 1.125-.7032l-.0156 1.8438c-.25.2187-.625.4427-1.125.6718-.4896.2188-1.0313.3282-1.625.3282-.7813 0-1.4948-.1771-2.1407-.5313-.6354-.3541-1.1458-.8385-1.5312-1.4531-.375-.6146-.5625-1.3177-.5625-2.1094 0-.7708.1718-1.4739.5156-2.1094.3438-.6354.8177-1.1458 1.4219-1.5312.6041-.3958 1.2916-.5938 2.0625-.5938Zm-.0469 1.7344c-.4896 0-.901.1511-1.2344.4532-.3333.302-.5625.7083-.6875 1.2187h3.7813c-.0417-.5625-.25-.9792-.625-1.25-.375-.2813-.7865-.4219-1.2344-.4219Zm7.5625-1.5312v1.125c.2396-.3229.5625-.625.9688-.9063.4166-.2812.8906-.4219 1.4218-.4219.8021 0 1.474.2709 2.0156.8126.5417.5416.8126 1.3541.8126 2.4374V77h-1.9844l-.0156-4.5781c0-.5313-.1303-.9271-.3907-1.1875-.25-.2604-.5989-.3906-1.0469-.3906-.3541 0-.6874.1145-1 .3437-.302.2292-.5624.5-.7812.8125v5h-1.9844v-7.8906h1.9844Zm10.125-2.2969v2.2969h2.188v1.6562H103.5v3.4063c0 .3541.078.6354.234.8437.167.1979.412.2969.735.2969.281 0 .521-.0313.719-.0937.208-.0626.401-.1511.578-.2657v1.5781c-.198.198-.448.3646-.75.5-.292.1355-.662.2032-1.11.2032-.708 0-1.286-.224-1.734-.6719-.438-.4583-.656-1.0833-.656-1.875v-3.9219h-1.422V69.75c.5-.1771.958-.5104 1.375-1 .427-.4896.765-1.1354 1.015-1.9375h1.016Z" />
    <rect width="86" height="62" x="41" y="41" stroke="#1A4049" stroke-width="2" rx="7" />
</svg>
