<svg xmlns="http://www.w3.org/2000/svg" width="704" height="282" fill="none" viewBox="0 0 704 282">
    <rect width="704" height="282" fill="#F1F0FC" rx="8" />
    <path stroke="#1A4049" stroke-width="2"
        d="m581.937 127.131.787.208.364-.728.048-.096c2.597-5.211 8.074-16.195 22.467-16.506 7.997-.173 13.216 2.216 16.854 5.254 3.274 2.734 5.307 6.017 6.952 8.672.204.329.402.649.595.957l.457.725.787-.34c5.984-2.588 10.736-1.698 14.095.579 3.412 2.312 5.472 6.113 5.895 9.454l.095.755.753.109c9.643 1.402 14.52 11.445 10.504 19.953-.962 2.037-3.16 4.419-6.147 5.936-2.959 1.503-6.636 2.129-10.586.769l-.631-.218-.443.5c-3.091 3.493-6.586 5.762-10.451 6.61-3.86.847-8.198.303-13.026-2.023l-.471-.227-.455.257c-6.882 3.888-12.375 4.648-16.658 4.097-4.295-.553-7.484-2.44-9.739-4.041l-.55-.391-.568.363c-4.966 3.177-11.532 4.615-17.975 4.158-6.442-.456-12.648-2.798-16.944-7.045l-.021-.021-.022-.019c-5.209-4.578-10.025-14.935-4.334-26.186 4.655-9.206 15.165-15.007 28.368-11.515Z" />
    <path fill="#1A4049"
        d="M572.686 162.899c7.66 0 13.869-6.205 13.869-13.859s-6.209-13.858-13.869-13.858-13.87 6.204-13.87 13.858c0 7.654 6.21 13.859 13.87 13.859Z" />
    <path fill="#fff" d="M570.605 142.804h-4.161v12.473h12.483v-12.473h-4.161v8.315h-4.161v-8.315Z" />
    <path fill="#817AFE" d="M574.766 151.119h4.161v4.158h-4.161v-4.158Z" />
    <path fill="#1A4049"
        d="M592.933 151.351v-4.691h2.062v4.459c0 1.31.676 2.171 1.948 2.171 1.272 0 1.948-.861 1.948-2.171v-4.459h2.074v4.691c0 2.254-1.466 3.879-3.993 3.879-2.573 0-4.039-1.625-4.039-3.879Zm12.156 3.695h-2.044v-8.386h2.044v1.409c.273-.489.668-.895 1.143-1.177.475-.281 1.014-.427 1.563-.424 2.044 0 3.398 1.543 3.398 3.68v4.898h-2.074v-4.475c0-1.326-.758-2.205-1.981-2.205-1.224 0-2.045.89-2.045 2.205l-.004 4.475Zm8.213-12.199h2.06v12.199h-2.06v-12.199Zm12.414 8.124v.232h-6.474c.082 1.309 1.015 2.313 2.367 2.313 1.305 0 1.835-.68 1.981-.911h2.029c-.13.861-1.239 2.669-4.01 2.669-2.64 0-4.427-1.888-4.427-4.408 0-2.603 1.77-4.409 4.266-4.409s4.268 1.778 4.268 4.514Zm-6.41-1.227h4.252c-.305-1.068-1.063-1.657-2.11-1.657-1.111-.002-1.884.612-2.142 1.655v.002Zm10.997.048h2.674c0-1.011-.741-1.657-1.948-1.657-1.144 0-1.556.63-1.69.845h-2.075c.173-.879 1.191-2.535 3.769-2.535 2.527 0 3.928 1.359 3.928 3.347v2.834c0 .515.173.712.643.764v1.706h-.643c-1.047-.016-1.675-.414-1.901-1.16-.385.614-1.255 1.294-2.639 1.294-1.917 0-3.366-1.111-3.366-2.835s1.236-2.603 3.248-2.603Zm2.674 2.155v-.712h-2.335c-.966 0-1.556.356-1.556 1.126 0 .813.742 1.294 1.772 1.294 1.153 0 2.119-.58 2.119-1.708Zm6.892-.331c-1.788-.132-2.996-.995-2.996-2.62 0-1.574 1.4-2.569 3.59-2.569 2.939 0 3.768 1.559 3.993 2.37h-2.173c-.145-.178-.612-.762-1.835-.762-.982 0-1.497.331-1.497.846 0 .464.345.763 1.158.879l1.383.149c2.207.198 3.111 1.068 3.111 2.717 0 1.575-1.272 2.653-3.768 2.653-3.027 0-4.009-1.807-4.169-2.585h2.205c.082.197.579.945 1.964.945 1.144 0 1.675-.399 1.675-.929s-.289-.829-1.21-.945c-.579-.05-.868-.082-1.431-.149Zm8.371 3.43h-2.045v-12.199h2.045v5.222c.273-.489.667-.895 1.142-1.177.475-.281 1.015-.427 1.563-.424 2.045 0 3.398 1.543 3.398 3.68v4.898h-2.074v-4.475c0-1.326-.757-2.205-1.981-2.205-1.224 0-2.045.89-2.045 2.205l-.003 4.475Zm-160.396-33.921v1.953h-4.11V127h-2.172v-10.469h7.141v1.953h-4.969v2.641h4.11Zm6.75-2.219c.771 0 1.432.167 1.984.5.563.334.99.797 1.281 1.391.302.583.453 1.26.453 2.031v.844h-5.718c.104.531.364.958.781 1.281.417.323.927.485 1.531.485.573 0 1.094-.115 1.563-.344.469-.229.843-.464 1.125-.703l-.016 1.843c-.25.219-.625.443-1.125.672-.489.219-1.031.328-1.625.328-.781 0-1.495-.177-2.14-.531-.636-.354-1.146-.838-1.532-1.453-.375-.615-.562-1.318-.562-2.109 0-.771.172-1.474.515-2.11.344-.635.818-1.146 1.422-1.531.604-.396 1.292-.594 2.063-.594Zm-.047 1.735c-.49 0-.901.151-1.235.453-.333.302-.562.708-.687 1.218h3.781c-.041-.562-.25-.979-.625-1.25-.375-.281-.786-.421-1.234-.421Zm8.437-3.829v2.297h2.188v1.657h-2.188v3.406c0 .354.078.635.235.844.166.198.411.296.734.296.281 0 .521-.031.719-.093.208-.063.401-.151.578-.266v1.578c-.198.198-.448.365-.75.5-.292.136-.661.203-1.109.203-.709 0-1.287-.224-1.735-.672-.437-.458-.656-1.083-.656-1.874v-3.922h-1.422v-1.016c.5-.177.958-.51 1.375-1 .427-.49.766-1.135 1.016-1.938h1.015Zm7.813 2.094c.583 0 1.062.094 1.437.282.375.187.672.369.891.546v1.828c-.271-.197-.578-.364-.922-.5-.333-.135-.745-.203-1.234-.203-.396 0-.766.099-1.11.297-.333.198-.599.464-.797.797-.197.333-.296.714-.296 1.141 0 .646.208 1.177.625 1.594.416.416.942.624 1.578.624.489 0 .901-.062 1.234-.187.344-.135.651-.302.922-.5v1.813c-.219.187-.516.369-.891.546-.375.167-.854.25-1.437.25-.802 0-1.516-.187-2.141-.562-.614-.386-1.104-.891-1.468-1.516-.355-.635-.532-1.323-.532-2.062 0-.552.099-1.078.297-1.578.208-.5.5-.943.875-1.328.375-.396.813-.709 1.313-.938.51-.229 1.062-.344 1.656-.344Zm8.469 0c.802 0 1.474.271 2.015.813.542.541.813 1.354.813 2.437V127h-1.985l-.015-4.578c0-.531-.13-.927-.391-1.188-.25-.26-.599-.39-1.047-.39-.354 0-.687.114-1 .344-.302.229-.562.5-.781.812v5h-1.984v-11.25h1.984v4.484c.24-.323.563-.625.969-.906.416-.281.89-.422 1.422-.422Zm-35.188 13.906v2.297h2.188v1.657h-2.188v3.406c0 .354.078.635.234.844.167.198.412.296.735.296.281 0 .521-.031.719-.093.208-.063.401-.151.578-.266v1.578c-.198.198-.448.365-.75.5-.292.136-.662.203-1.11.203-.708 0-1.286-.224-1.734-.672-.438-.458-.656-1.083-.656-1.874v-3.922h-1.422v-1.016c.5-.177.958-.51 1.375-1 .427-.49.765-1.135 1.015-1.938h1.016Zm7.891 2.094c.771 0 1.474.188 2.109.563.636.364 1.146.864 1.531 1.5.396.625.594 1.328.594 2.109 0 .781-.198 1.484-.594 2.11-.385.624-.895 1.124-1.531 1.5-.635.364-1.338.546-2.109.546-.761 0-1.464-.182-2.11-.546-.635-.376-1.145-.876-1.531-1.5-.385-.626-.578-1.329-.578-2.11 0-.781.193-1.484.578-2.109.386-.636.896-1.136 1.531-1.5.646-.375 1.349-.563 2.11-.563Zm0 1.922c-.375 0-.724.089-1.047.266-.323.177-.583.432-.781.765-.188.334-.282.74-.282 1.219 0 .479.094.886.282 1.219.198.333.458.588.781.765.323.167.672.25 1.047.25.375 0 .724-.083 1.047-.25.323-.177.583-.432.781-.765.198-.333.297-.74.297-1.219 0-.479-.099-.885-.297-1.219-.198-.333-.458-.588-.781-.765-.323-.177-.672-.266-1.047-.266Zm9.234-1.922c.427 0 .859.099 1.297.297.438.198.802.464 1.094.797v-.891h1.984v7.688c0 .896-.198 1.651-.594 2.265-.395.626-.922 1.099-1.578 1.422-.656.334-1.375.5-2.156.5-.698 0-1.271-.104-1.719-.312-.448-.208-.864-.448-1.25-.719v-1.875c.24.146.49.302.75.469.271.167.573.307.907.422.343.114.739.172 1.187.172.469 0 .891-.089 1.266-.266.375-.177.666-.427.875-.75.218-.313.328-.672.328-1.078v-1.375c-.229.427-.563.797-1 1.109-.438.302-.948.453-1.532.453-.635 0-1.223-.161-1.765-.484-.531-.323-.958-.792-1.281-1.406-.323-.615-.485-1.36-.485-2.235 0-.875.162-1.625.485-2.25.333-.625.776-1.104 1.328-1.437.562-.344 1.182-.516 1.859-.516Zm.406 1.953c-.416 0-.776.11-1.078.329-.291.208-.521.484-.687.828-.167.333-.25.698-.25 1.093 0 .594.177 1.099.531 1.516.365.406.844.609 1.437.609.355 0 .683-.088.985-.265.312-.188.562-.448.75-.781.198-.344.297-.756.297-1.235v-1.125c-.282-.302-.589-.536-.922-.703-.323-.177-.677-.266-1.063-.266Zm9.532-1.953c.427 0 .859.099 1.297.297.437.198.802.464 1.093.797v-.891h1.985v7.688c0 .896-.198 1.651-.594 2.265-.396.626-.922 1.099-1.578 1.422-.656.334-1.375.5-2.156.5-.698 0-1.271-.104-1.719-.312-.448-.208-.865-.448-1.25-.719v-1.875c.239.146.489.302.75.469.271.167.573.307.906.422.344.114.74.172 1.187.172.469 0 .891-.089 1.266-.266.375-.177.667-.427.875-.75.219-.313.328-.672.328-1.078v-1.375c-.229.427-.562.797-1 1.109-.437.302-.948.453-1.531.453-.635 0-1.224-.161-1.766-.484-.531-.323-.958-.792-1.281-1.406-.323-.615-.484-1.36-.484-2.235 0-.875.161-1.625.484-2.25.333-.625.776-1.104 1.328-1.437.563-.344 1.183-.516 1.86-.516Zm.406 1.953c-.417 0-.776.11-1.078.329-.292.208-.521.484-.688.828-.166.333-.25.698-.25 1.093 0 .594.177 1.099.531 1.516.365.406.844.609 1.438.609.354 0 .682-.088.984-.265.313-.188.563-.448.75-.781.198-.344.297-.756.297-1.235v-1.125c-.281-.302-.588-.536-.922-.703-.323-.177-.677-.266-1.062-.266Zm8.391-5.109V143h-1.985v-11.25h1.985Zm5.874 3.156c.771 0 1.433.167 1.985.5.562.334.989.797 1.281 1.391.302.583.453 1.26.453 2.031v.844h-5.719c.105.531.365.958.782 1.281.416.323.927.485 1.531.485.573 0 1.094-.115 1.563-.344.468-.229.843-.464 1.124-.703l-.015 1.843c-.25.219-.625.443-1.125.672-.49.219-1.031.328-1.625.328-.781 0-1.495-.177-2.141-.531-.635-.354-1.146-.838-1.531-1.453-.375-.615-.563-1.318-.563-2.109 0-.771.172-1.474.516-2.11.344-.635.818-1.146 1.422-1.531.604-.396 1.292-.594 2.062-.594Zm-.046 1.735c-.49 0-.901.151-1.235.453-.333.302-.562.708-.687 1.218h3.781c-.042-.562-.25-.979-.625-1.25-.375-.281-.786-.421-1.234-.421Zm8.125-1.735c.489 0 .942.073 1.359.219.417.146.74.313.969.5v1.75c-.25-.167-.558-.328-.922-.484-.354-.157-.724-.235-1.109-.235-.376 0-.672.084-.891.25-.219.167-.328.365-.328.594 0 .167.062.323.187.469.125.135.365.255.719.359l.891.297c1.198.354 1.796 1.047 1.796 2.078 0 .49-.14.927-.421 1.313-.271.375-.641.672-1.11.89-.458.219-.969.328-1.531.328-.531 0-1.047-.083-1.547-.25-.5-.166-.88-.349-1.141-.546v-1.735c.198.136.438.266.719.391.281.125.573.229.875.312.302.073.578.11.828.11.396 0 .698-.068.907-.204.218-.145.328-.348.328-.609 0-.198-.089-.354-.266-.469-.177-.114-.437-.229-.781-.343l-.969-.344c-.604-.198-1.021-.479-1.25-.844-.229-.364-.344-.797-.344-1.297 0-.5.125-.932.375-1.297.261-.375.62-.666 1.078-.875.459-.218.985-.328 1.579-.328Zm-5.258 31.758 8.421-6.89c.489-.4.489-1.148 0-1.548l-8.421-6.89c-.653-.534-1.633-.069-1.633.774v13.78c0 .843.98 1.308 1.633.774Z" />
    <path stroke="#1A4049" stroke-linecap="round" stroke-width="4" d="M482 159h48" />
    <rect width="86" height="62" x="381" y="110" fill="#fff" rx="11" />
    <path fill="#1A4049"
        d="M405.984 139.781v1.766h-4.625v2.531h5.235V146h-7.406v-10.469h7.406v1.875h-5.235v2.375h4.625Zm10.578-5.031V146h-1.984v-1.328c-.229.427-.562.797-1 1.109-.437.302-.948.453-1.531.453-.636 0-1.224-.161-1.766-.484-.531-.323-.958-.792-1.281-1.406-.323-.615-.484-1.36-.484-2.235 0-.875.161-1.625.484-2.25.333-.625.776-1.104 1.328-1.437.563-.344 1.182-.516 1.86-.516.427 0 .859.099 1.296.297.438.198.802.464 1.094.797v-4.25h1.984Zm-3.968 5.109c-.417 0-.776.11-1.078.329-.292.208-.521.484-.688.828-.167.333-.25.698-.25 1.093 0 .594.177 1.099.531 1.516.365.417.844.625 1.438.625.354 0 .682-.094.984-.281.313-.188.563-.448.75-.781.198-.344.297-.756.297-1.235v-1.125c-.281-.302-.588-.536-.922-.703-.323-.177-.677-.266-1.062-.266Zm9.531-1.953c.427 0 .859.099 1.297.297.437.198.802.464 1.094.797v-.891h1.984v7.688c0 .896-.198 1.651-.594 2.265-.396.626-.922 1.099-1.578 1.422-.656.334-1.375.5-2.156.5-.698 0-1.271-.104-1.719-.312-.448-.208-.864-.448-1.25-.719v-1.875c.24.146.49.302.75.469.271.167.573.307.906.422.344.114.74.172 1.188.172.469 0 .891-.089 1.265-.266.376-.177.667-.427.876-.75.218-.313.328-.672.328-1.078v-1.375c-.23.427-.563.797-1 1.109-.438.302-.948.453-1.532.453-.635 0-1.224-.161-1.765-.484-.531-.323-.959-.792-1.281-1.406-.323-.615-.485-1.36-.485-2.235 0-.875.162-1.625.485-2.25.333-.625.776-1.104 1.328-1.437.562-.344 1.182-.516 1.859-.516Zm.406 1.953c-.416 0-.776.11-1.078.329-.292.208-.521.484-.687.828-.167.333-.25.698-.25 1.093 0 .594.177 1.099.531 1.516.364.406.844.609 1.437.609.355 0 .683-.088.985-.265.312-.188.562-.448.75-.781.198-.344.297-.756.297-1.235v-1.125c-.282-.302-.589-.536-.922-.703-.323-.177-.677-.266-1.063-.266Zm9.86-1.953c.77 0 1.432.167 1.984.5.563.334.99.797 1.281 1.391.302.583.453 1.26.453 2.031v.844h-5.718c.104.531.364.958.781 1.281.417.323.927.485 1.531.485.573 0 1.094-.115 1.563-.344.468-.229.843-.464 1.125-.703l-.016 1.843c-.25.219-.625.443-1.125.672-.49.219-1.031.328-1.625.328-.781 0-1.495-.177-2.141-.531-.635-.354-1.145-.838-1.531-1.453-.375-.615-.562-1.318-.562-2.109 0-.771.171-1.474.515-2.11.344-.635.818-1.146 1.422-1.531.604-.396 1.292-.594 2.063-.594Zm-.047 1.735c-.49 0-.901.151-1.235.453-.333.302-.562.708-.687 1.218h3.781c-.042-.562-.25-.979-.625-1.25-.375-.281-.786-.421-1.234-.421Zm13.015-4.344c.74 0 1.391.13 1.953.391.573.26 1.021.619 1.344 1.078.334.448.5.963.5 1.546 0 .469-.104.87-.312 1.204-.209.323-.469.583-.782.781-.312.198-.63.328-.953.391.323.072.641.213.953.421.313.198.573.464.782.797.208.323.312.719.312 1.188 0 .614-.172 1.156-.515 1.625-.334.469-.787.838-1.36 1.109-.573.271-1.219.406-1.937.406-.563 0-1.089-.083-1.578-.25-.48-.177-.86-.385-1.141-.625v-2.047c.354.24.724.469 1.109.688.386.208.844.312 1.375.312.532 0 .98-.124 1.344-.374.365-.25.547-.626.547-1.126 0-.291-.094-.531-.281-.718-.188-.198-.433-.344-.735-.438-.291-.104-.604-.156-.937-.156h-.859v-1.688h.859c.542 0 1-.078 1.375-.234.385-.156.578-.458.578-.906 0-.458-.198-.813-.594-1.063-.385-.26-.838-.39-1.359-.39-.448 0-.844.093-1.188.281-.343.177-.661.411-.953.703v-2.031c.271-.25.615-.458 1.032-.625.416-.167.89-.25 1.421-.25Z" />
    <rect width="86" height="62" x="381" y="110" stroke="#1A4049" stroke-width="2" rx="11" />
    <path fill="#1A4049"
        d="M317.844 211.125v1.953h-4.11V217h-2.172v-10.469h7.141v1.953h-4.969v2.641h4.11Zm6.75-2.219c.771 0 1.432.167 1.984.5.563.334.99.797 1.281 1.391.302.583.453 1.26.453 2.031v.844h-5.718c.104.531.364.958.781 1.281.417.323.927.485 1.531.485.573 0 1.094-.115 1.563-.344.469-.229.843-.464 1.125-.703l-.016 1.843c-.25.219-.625.443-1.125.672-.489.219-1.031.328-1.625.328-.781 0-1.495-.177-2.14-.531-.636-.354-1.146-.838-1.532-1.453-.375-.615-.562-1.318-.562-2.109 0-.771.172-1.474.515-2.11.344-.635.818-1.146 1.422-1.531.604-.396 1.292-.594 2.063-.594Zm-.047 1.735c-.49 0-.901.151-1.235.453-.333.302-.562.708-.687 1.218h3.781c-.041-.562-.25-.979-.625-1.25-.375-.281-.786-.421-1.234-.421Zm8.437-3.829v2.297h2.188v1.657h-2.188v3.406c0 .354.078.635.235.844.166.198.411.296.734.296.281 0 .521-.031.719-.093.208-.063.401-.151.578-.266v1.578c-.198.198-.448.365-.75.5-.292.136-.661.203-1.109.203-.709 0-1.287-.224-1.735-.672-.437-.458-.656-1.083-.656-1.874v-3.922h-1.422v-1.016c.5-.177.958-.51 1.375-1 .427-.49.766-1.135 1.016-1.938h1.015Zm7.813 2.094c.583 0 1.062.094 1.437.282.375.187.672.369.891.546v1.828c-.271-.197-.578-.364-.922-.5-.333-.135-.745-.203-1.234-.203-.396 0-.766.099-1.11.297-.333.198-.599.464-.797.797-.197.333-.296.714-.296 1.141 0 .646.208 1.177.625 1.594.416.416.942.624 1.578.624.489 0 .901-.062 1.234-.187.344-.135.651-.302.922-.5v1.813c-.219.187-.516.369-.891.546-.375.167-.854.25-1.437.25-.802 0-1.516-.187-2.141-.562-.614-.386-1.104-.891-1.468-1.516-.355-.635-.532-1.323-.532-2.062 0-.552.099-1.078.297-1.578.208-.5.5-.943.875-1.328.375-.396.813-.709 1.313-.938.51-.229 1.062-.344 1.656-.344Zm8.469 0c.802 0 1.474.271 2.015.813.542.541.813 1.354.813 2.437V217h-1.985l-.015-4.578c0-.531-.13-.927-.391-1.188-.25-.26-.599-.39-1.047-.39-.354 0-.687.114-1 .344-.302.229-.562.5-.781.812v5h-1.984v-11.25h1.984v4.484c.24-.323.563-.625.969-.906.416-.281.89-.422 1.422-.422Zm-35.188 13.906v2.297h2.188v1.657h-2.188v3.406c0 .354.078.635.234.844.167.198.412.296.735.296.281 0 .521-.031.719-.093.208-.063.401-.151.578-.266v1.578c-.198.198-.448.365-.75.5-.292.136-.662.203-1.11.203-.708 0-1.286-.224-1.734-.672-.438-.458-.656-1.083-.656-1.874v-3.922h-1.422v-1.016c.5-.177.958-.51 1.375-1 .427-.49.765-1.135 1.015-1.938h1.016Zm7.891 2.094c.771 0 1.474.188 2.109.563.636.364 1.146.864 1.531 1.5.396.625.594 1.328.594 2.109 0 .781-.198 1.484-.594 2.11-.385.624-.895 1.124-1.531 1.5-.635.364-1.338.546-2.109.546-.761 0-1.464-.182-2.11-.546-.635-.376-1.145-.876-1.531-1.5-.385-.626-.578-1.329-.578-2.11 0-.781.193-1.484.578-2.109.386-.636.896-1.136 1.531-1.5.646-.375 1.349-.563 2.11-.563Zm0 1.922c-.375 0-.724.089-1.047.266-.323.177-.583.432-.781.765-.188.334-.282.74-.282 1.219 0 .479.094.886.282 1.219.198.333.458.588.781.765.323.167.672.25 1.047.25.375 0 .724-.083 1.047-.25.323-.177.583-.432.781-.765.198-.333.297-.74.297-1.219 0-.479-.099-.885-.297-1.219-.198-.333-.458-.588-.781-.765-.323-.177-.672-.266-1.047-.266Zm9.234-1.922c.427 0 .859.099 1.297.297.438.198.802.464 1.094.797v-.891h1.984v7.688c0 .896-.198 1.651-.594 2.265-.395.626-.922 1.099-1.578 1.422-.656.334-1.375.5-2.156.5-.698 0-1.271-.104-1.719-.312-.448-.208-.864-.448-1.25-.719v-1.875c.24.146.49.302.75.469.271.167.573.307.907.422.343.114.739.172 1.187.172.469 0 .891-.089 1.266-.266.375-.177.666-.427.875-.75.218-.313.328-.672.328-1.078v-1.375c-.229.427-.563.797-1 1.109-.438.302-.948.453-1.532.453-.635 0-1.223-.161-1.765-.484-.531-.323-.958-.792-1.281-1.406-.323-.615-.485-1.36-.485-2.235 0-.875.162-1.625.485-2.25.333-.625.776-1.104 1.328-1.437.562-.344 1.182-.516 1.859-.516Zm.406 1.953c-.416 0-.776.11-1.078.329-.291.208-.521.484-.687.828-.167.333-.25.698-.25 1.093 0 .594.177 1.099.531 1.516.365.406.844.609 1.437.609.355 0 .683-.088.985-.265.312-.188.562-.448.75-.781.198-.344.297-.756.297-1.235v-1.125c-.282-.302-.589-.536-.922-.703-.323-.177-.677-.266-1.063-.266Zm9.532-1.953c.427 0 .859.099 1.297.297.437.198.802.464 1.093.797v-.891h1.985v7.688c0 .896-.198 1.651-.594 2.265-.396.626-.922 1.099-1.578 1.422-.656.334-1.375.5-2.156.5-.698 0-1.271-.104-1.719-.312-.448-.208-.865-.448-1.25-.719v-1.875c.239.146.489.302.75.469.271.167.573.307.906.422.344.114.74.172 1.187.172.469 0 .891-.089 1.266-.266.375-.177.667-.427.875-.75.219-.313.328-.672.328-1.078v-1.375c-.229.427-.562.797-1 1.109-.437.302-.948.453-1.531.453-.635 0-1.224-.161-1.766-.484-.531-.323-.958-.792-1.281-1.406-.323-.615-.484-1.36-.484-2.235 0-.875.161-1.625.484-2.25.333-.625.776-1.104 1.328-1.437.563-.344 1.183-.516 1.86-.516Zm.406 1.953c-.417 0-.776.11-1.078.329-.292.208-.521.484-.688.828-.166.333-.25.698-.25 1.093 0 .594.177 1.099.531 1.516.365.406.844.609 1.438.609.354 0 .682-.088.984-.265.313-.188.563-.448.75-.781.198-.344.297-.756.297-1.235v-1.125c-.281-.302-.588-.536-.922-.703-.323-.177-.677-.266-1.062-.266Zm8.391-5.109V233h-1.985v-11.25h1.985Zm5.874 3.156c.771 0 1.433.167 1.985.5.562.334.989.797 1.281 1.391.302.583.453 1.26.453 2.031v.844h-5.719c.105.531.365.958.782 1.281.416.323.927.485 1.531.485.573 0 1.094-.115 1.563-.344.468-.229.843-.464 1.124-.703l-.015 1.843c-.25.219-.625.443-1.125.672-.49.219-1.031.328-1.625.328-.781 0-1.495-.177-2.141-.531-.635-.354-1.146-.838-1.531-1.453-.375-.615-.563-1.318-.563-2.109 0-.771.172-1.474.516-2.11.344-.635.818-1.146 1.422-1.531.604-.396 1.292-.594 2.062-.594Zm-.046 1.735c-.49 0-.901.151-1.235.453-.333.302-.562.708-.687 1.218h3.781c-.042-.562-.25-.979-.625-1.25-.375-.281-.786-.421-1.234-.421Zm8.125-1.735c.489 0 .942.073 1.359.219.417.146.74.313.969.5v1.75c-.25-.167-.558-.328-.922-.484-.354-.157-.724-.235-1.109-.235-.376 0-.672.084-.891.25-.219.167-.328.365-.328.594 0 .167.062.323.187.469.125.135.365.255.719.359l.891.297c1.198.354 1.796 1.047 1.796 2.078 0 .49-.14.927-.421 1.313-.271.375-.641.672-1.11.89-.458.219-.969.328-1.531.328-.531 0-1.047-.083-1.547-.25-.5-.166-.88-.349-1.141-.546v-1.735c.198.136.438.266.719.391.281.125.573.229.875.312.302.073.578.11.828.11.396 0 .698-.068.907-.204.218-.145.328-.348.328-.609 0-.198-.089-.354-.266-.469-.177-.114-.437-.229-.781-.343l-.969-.344c-.604-.198-1.021-.479-1.25-.844-.229-.364-.344-.797-.344-1.297 0-.5.125-.932.375-1.297.261-.375.62-.666 1.078-.875.459-.218.985-.328 1.579-.328Z" />
    <path stroke="#1A4049" stroke-linecap="round" stroke-width="4"
        d="M312 193.999s23.5 2.501 24-22c0-22.499 24-20 24-20" />
    <path fill="#1A4049"
        d="m358.633 144.336 8.421 6.89c.489.4.489 1.148 0 1.548l-8.421 6.89c-.653.534-1.633.069-1.633-.774v-13.78c0-.843.98-1.308 1.633-.774Z" />
    <rect width="86" height="62" x="211" y="179" fill="#fff" rx="11" />
    <path fill="#1A4049"
        d="M235.984 208.781v1.766h-4.625v2.531h5.235V215h-7.406v-10.469h7.406v1.875h-5.235v2.375h4.625Zm10.578-5.031V215h-1.984v-1.328c-.229.427-.562.797-1 1.109-.437.302-.948.453-1.531.453-.636 0-1.224-.161-1.766-.484-.531-.323-.958-.792-1.281-1.406-.323-.615-.484-1.36-.484-2.235 0-.875.161-1.625.484-2.25.333-.625.776-1.104 1.328-1.437.563-.344 1.182-.516 1.86-.516.427 0 .859.099 1.296.297.438.198.802.464 1.094.797v-4.25h1.984Zm-3.968 5.109c-.417 0-.776.11-1.078.329-.292.208-.521.484-.688.828-.167.333-.25.698-.25 1.093 0 .594.177 1.099.531 1.516.365.417.844.625 1.438.625.354 0 .682-.094.984-.281.313-.188.563-.448.75-.781.198-.344.297-.756.297-1.235v-1.125c-.281-.302-.588-.536-.922-.703-.323-.177-.677-.266-1.062-.266Zm9.531-1.953c.427 0 .859.099 1.297.297.437.198.802.464 1.094.797v-.891h1.984v7.688c0 .896-.198 1.651-.594 2.265-.396.626-.922 1.099-1.578 1.422-.656.334-1.375.5-2.156.5-.698 0-1.271-.104-1.719-.312-.448-.208-.864-.448-1.25-.719v-1.875c.24.146.49.302.75.469.271.167.573.307.906.422.344.114.74.172 1.188.172.469 0 .891-.089 1.265-.266.376-.177.667-.427.876-.75.218-.313.328-.672.328-1.078v-1.375c-.23.427-.563.797-1 1.109-.438.302-.948.453-1.532.453-.635 0-1.224-.161-1.765-.484-.531-.323-.959-.792-1.281-1.406-.323-.615-.485-1.36-.485-2.235 0-.875.162-1.625.485-2.25.333-.625.776-1.104 1.328-1.437.562-.344 1.182-.516 1.859-.516Zm.406 1.953c-.416 0-.776.11-1.078.329-.292.208-.521.484-.687.828-.167.333-.25.698-.25 1.093 0 .594.177 1.099.531 1.516.364.406.844.609 1.437.609.355 0 .683-.088.985-.265.312-.188.562-.448.75-.781.198-.344.297-.756.297-1.235v-1.125c-.282-.302-.589-.536-.922-.703-.323-.177-.677-.266-1.063-.266Zm9.86-1.953c.77 0 1.432.167 1.984.5.563.334.99.797 1.281 1.391.302.583.453 1.26.453 2.031v.844h-5.718c.104.531.364.958.781 1.281.417.323.927.485 1.531.485.573 0 1.094-.115 1.563-.344.468-.229.843-.464 1.125-.703l-.016 1.843c-.25.219-.625.443-1.125.672-.49.219-1.031.328-1.625.328-.781 0-1.495-.177-2.141-.531-.635-.354-1.145-.838-1.531-1.453-.375-.615-.562-1.318-.562-2.109 0-.771.171-1.474.515-2.11.344-.635.818-1.146 1.422-1.531.604-.396 1.292-.594 2.063-.594Zm-.047 1.735c-.49 0-.901.151-1.235.453-.333.302-.562.708-.687 1.218h3.781c-.042-.562-.25-.979-.625-1.25-.375-.281-.786-.421-1.234-.421Zm13.328-4.344c.719 0 1.344.135 1.875.406.542.261.963.63 1.265 1.109.303.469.454 1.021.454 1.657 0 .521-.084 1-.25 1.437-.157.427-.386.854-.688 1.282-.302.416-.672.864-1.109 1.343-.427.479-.917 1.026-1.469 1.641h3.594V215h-6.828v-.875c1-1.083 1.838-1.995 2.515-2.734.688-.75 1.203-1.391 1.547-1.922.354-.542.531-1.021.531-1.438 0-.531-.177-.942-.531-1.234-.344-.302-.776-.453-1.297-.453-.479 0-.948.125-1.406.375-.458.25-.833.531-1.125.843v-2.218c.312-.271.729-.511 1.25-.719.521-.219 1.078-.328 1.672-.328Z" />
    <rect width="86" height="62" x="211" y="179" stroke="#1A4049" stroke-width="2" rx="11" />
    <path fill="#1A4049"
        d="M147.844 211.125v1.953h-4.11V217h-2.172v-10.469h7.141v1.953h-4.969v2.641h4.11Zm6.75-2.219c.771 0 1.432.167 1.984.5.563.334.99.797 1.281 1.391.302.583.453 1.26.453 2.031v.844h-5.718c.104.531.364.958.781 1.281.417.323.927.485 1.531.485.573 0 1.094-.115 1.563-.344.469-.229.843-.464 1.125-.703l-.016 1.843c-.25.219-.625.443-1.125.672-.489.219-1.031.328-1.625.328-.781 0-1.495-.177-2.14-.531-.636-.354-1.146-.838-1.532-1.453-.375-.615-.562-1.318-.562-2.109 0-.771.172-1.474.515-2.11.344-.635.818-1.146 1.422-1.531.604-.396 1.292-.594 2.063-.594Zm-.047 1.735c-.49 0-.901.151-1.235.453-.333.302-.562.708-.687 1.218h3.781c-.041-.562-.25-.979-.625-1.25-.375-.281-.786-.421-1.234-.421Zm8.437-3.829v2.297h2.188v1.657h-2.188v3.406c0 .354.078.635.235.844.166.198.411.296.734.296.281 0 .521-.031.719-.093.208-.063.401-.151.578-.266v1.578c-.198.198-.448.365-.75.5-.292.136-.661.203-1.109.203-.709 0-1.287-.224-1.735-.672-.437-.458-.656-1.083-.656-1.874v-3.922h-1.422v-1.016c.5-.177.958-.51 1.375-1 .427-.49.766-1.135 1.016-1.938h1.015Zm7.813 2.094c.583 0 1.062.094 1.437.282.375.187.672.369.891.546v1.828c-.271-.197-.578-.364-.922-.5-.333-.135-.745-.203-1.234-.203-.396 0-.766.099-1.11.297-.333.198-.599.464-.797.797-.197.333-.296.714-.296 1.141 0 .646.208 1.177.625 1.594.416.416.942.624 1.578.624.489 0 .901-.062 1.234-.187.344-.135.651-.302.922-.5v1.813c-.219.187-.516.369-.891.546-.375.167-.854.25-1.437.25-.802 0-1.516-.187-2.141-.562-.614-.386-1.104-.891-1.468-1.516-.355-.635-.532-1.323-.532-2.062 0-.552.099-1.078.297-1.578.208-.5.5-.943.875-1.328.375-.396.813-.709 1.313-.938.51-.229 1.062-.344 1.656-.344Zm8.469 0c.802 0 1.474.271 2.015.813.542.541.813 1.354.813 2.437V217h-1.985l-.015-4.578c0-.531-.13-.927-.391-1.188-.25-.26-.599-.39-1.047-.39-.354 0-.687.114-1 .344-.302.229-.562.5-.781.812v5h-1.984v-11.25h1.984v4.484c.24-.323.563-.625.969-.906.416-.281.89-.422 1.422-.422Zm-35.188 13.906v2.297h2.188v1.657h-2.188v3.406c0 .354.078.635.234.844.167.198.412.296.735.296.281 0 .521-.031.719-.093.208-.063.401-.151.578-.266v1.578c-.198.198-.448.365-.75.5-.292.136-.662.203-1.11.203-.708 0-1.286-.224-1.734-.672-.438-.458-.656-1.083-.656-1.874v-3.922h-1.422v-1.016c.5-.177.958-.51 1.375-1 .427-.49.765-1.135 1.015-1.938h1.016Zm7.891 2.094c.771 0 1.474.188 2.109.563.636.364 1.146.864 1.531 1.5.396.625.594 1.328.594 2.109 0 .781-.198 1.484-.594 2.11-.385.624-.895 1.124-1.531 1.5-.635.364-1.338.546-2.109.546-.761 0-1.464-.182-2.11-.546-.635-.376-1.145-.876-1.531-1.5-.385-.626-.578-1.329-.578-2.11 0-.781.193-1.484.578-2.109.386-.636.896-1.136 1.531-1.5.646-.375 1.349-.563 2.11-.563Zm0 1.922c-.375 0-.724.089-1.047.266-.323.177-.583.432-.781.765-.188.334-.282.74-.282 1.219 0 .479.094.886.282 1.219.198.333.458.588.781.765.323.167.672.25 1.047.25.375 0 .724-.083 1.047-.25.323-.177.583-.432.781-.765.198-.333.297-.74.297-1.219 0-.479-.099-.885-.297-1.219-.198-.333-.458-.588-.781-.765-.323-.177-.672-.266-1.047-.266Zm9.234-1.922c.427 0 .859.099 1.297.297.438.198.802.464 1.094.797v-.891h1.984v7.688c0 .896-.198 1.651-.594 2.265-.395.626-.922 1.099-1.578 1.422-.656.334-1.375.5-2.156.5-.698 0-1.271-.104-1.719-.312-.448-.208-.864-.448-1.25-.719v-1.875c.24.146.49.302.75.469.271.167.573.307.907.422.343.114.739.172 1.187.172.469 0 .891-.089 1.266-.266.375-.177.666-.427.875-.75.218-.313.328-.672.328-1.078v-1.375c-.229.427-.563.797-1 1.109-.438.302-.948.453-1.532.453-.635 0-1.223-.161-1.765-.484-.531-.323-.958-.792-1.281-1.406-.323-.615-.485-1.36-.485-2.235 0-.875.162-1.625.485-2.25.333-.625.776-1.104 1.328-1.437.562-.344 1.182-.516 1.859-.516Zm.406 1.953c-.416 0-.776.11-1.078.329-.291.208-.521.484-.687.828-.167.333-.25.698-.25 1.093 0 .594.177 1.099.531 1.516.365.406.844.609 1.437.609.355 0 .683-.088.985-.265.312-.188.562-.448.75-.781.198-.344.297-.756.297-1.235v-1.125c-.282-.302-.589-.536-.922-.703-.323-.177-.677-.266-1.063-.266Zm9.532-1.953c.427 0 .859.099 1.297.297.437.198.802.464 1.093.797v-.891h1.985v7.688c0 .896-.198 1.651-.594 2.265-.396.626-.922 1.099-1.578 1.422-.656.334-1.375.5-2.156.5-.698 0-1.271-.104-1.719-.312-.448-.208-.865-.448-1.25-.719v-1.875c.239.146.489.302.75.469.271.167.573.307.906.422.344.114.74.172 1.187.172.469 0 .891-.089 1.266-.266.375-.177.667-.427.875-.75.219-.313.328-.672.328-1.078v-1.375c-.229.427-.562.797-1 1.109-.437.302-.948.453-1.531.453-.635 0-1.224-.161-1.766-.484-.531-.323-.958-.792-1.281-1.406-.323-.615-.484-1.36-.484-2.235 0-.875.161-1.625.484-2.25.333-.625.776-1.104 1.328-1.437.563-.344 1.183-.516 1.86-.516Zm.406 1.953c-.417 0-.776.11-1.078.329-.292.208-.521.484-.688.828-.166.333-.25.698-.25 1.093 0 .594.177 1.099.531 1.516.365.406.844.609 1.438.609.354 0 .682-.088.984-.265.313-.188.563-.448.75-.781.198-.344.297-.756.297-1.235v-1.125c-.281-.302-.588-.536-.922-.703-.323-.177-.677-.266-1.062-.266Zm8.391-5.109V233h-1.985v-11.25h1.985Zm5.874 3.156c.771 0 1.433.167 1.985.5.562.334.989.797 1.281 1.391.302.583.453 1.26.453 2.031v.844h-5.719c.105.531.365.958.782 1.281.416.323.927.485 1.531.485.573 0 1.094-.115 1.563-.344.468-.229.843-.464 1.124-.703l-.015 1.843c-.25.219-.625.443-1.125.672-.49.219-1.031.328-1.625.328-.781 0-1.495-.177-2.141-.531-.635-.354-1.146-.838-1.531-1.453-.375-.615-.563-1.318-.563-2.109 0-.771.172-1.474.516-2.11.344-.635.818-1.146 1.422-1.531.604-.396 1.292-.594 2.062-.594Zm-.046 1.735c-.49 0-.901.151-1.235.453-.333.302-.562.708-.687 1.218h3.781c-.042-.562-.25-.979-.625-1.25-.375-.281-.786-.421-1.234-.421Zm8.125-1.735c.489 0 .942.073 1.359.219.417.146.74.313.969.5v1.75c-.25-.167-.558-.328-.922-.484-.354-.157-.724-.235-1.109-.235-.376 0-.672.084-.891.25-.219.167-.328.365-.328.594 0 .167.062.323.187.469.125.135.365.255.719.359l.891.297c1.198.354 1.796 1.047 1.796 2.078 0 .49-.14.927-.421 1.313-.271.375-.641.672-1.11.89-.458.219-.969.328-1.531.328-.531 0-1.047-.083-1.547-.25-.5-.166-.88-.349-1.141-.546v-1.735c.198.136.438.266.719.391.281.125.573.229.875.312.302.073.578.11.828.11.396 0 .698-.068.907-.204.218-.145.328-.348.328-.609 0-.198-.089-.354-.266-.469-.177-.114-.437-.229-.781-.343l-.969-.344c-.604-.198-1.021-.479-1.25-.844-.229-.364-.344-.797-.344-1.297 0-.5.125-.932.375-1.297.261-.375.62-.666 1.078-.875.459-.218.985-.328 1.579-.328Zm-5.258-25.242 8.421-6.89c.489-.4.489-1.148 0-1.548l-8.421-6.89c-.653-.534-1.633-.069-1.633.774v13.78c0 .843.98 1.308 1.633.774Z" />
    <path stroke="#1A4049" stroke-linecap="round" stroke-width="4" d="M142 192h48" />
    <path fill="#1A4049"
        d="M60.8203 204.297c.6563 0 1.224.094 1.7031.281.4792.177.8959.422 1.25.734v2.188c-.25-.188-.5104-.37-.7812-.547-.2708-.177-.5781-.323-.9219-.437-.3333-.115-.7292-.172-1.1875-.172-.625 0-1.1927.151-1.7031.453-.5104.302-.9167.708-1.2188 1.219-.302.51-.4531 1.093-.4531 1.75 0 .645.1511 1.229.4531 1.75.3021.51.7084.916 1.2188 1.218.5104.292 1.0781.438 1.7031.438.6979 0 1.2813-.104 1.75-.313.4792-.218.9115-.484 1.2969-.797v2.11c-.3542.323-.7969.583-1.3281.781-.5313.188-1.125.281-1.7813.281-.75 0-1.4583-.13-2.125-.39-.6667-.271-1.2552-.646-1.7656-1.125-.5104-.49-.9115-1.068-1.2031-1.735-.2917-.666-.4375-1.406-.4375-2.218 0-.813.1458-1.552.4375-2.219.2916-.667.6927-1.24 1.2031-1.719.5104-.489 1.0989-.864 1.7656-1.125.6667-.271 1.375-.406 2.125-.406Zm7.0156-.547V215h-1.9843v-11.25h1.9843Zm4.0782-.75c.375 0 .6979.135.9687.406.2708.261.4063.573.4063.938 0 .354-.1355.666-.4063.937s-.5937.407-.9687.407-.698-.136-.9688-.407c-.2604-.271-.3906-.583-.3906-.937 0-.365.1302-.677.3906-.938.2708-.271.5938-.406.9688-.406Zm1.1562 4.109V215h-1.9844v-6.203h-1.2656v-1.688h3.25Zm5.9531-.203c.7709 0 1.4323.167 1.9844.5.5625.334.9896.797 1.2813 1.391.302.583.4531 1.26.4531 2.031v.844h-5.7188c.1042.531.3646.958.7813 1.281.4167.323.9271.485 1.5312.485.573 0 1.0938-.115 1.5625-.344.4688-.229.8438-.464 1.125-.703l-.0156 1.843c-.25.219-.625.443-1.125.672-.4896.219-1.0312.328-1.625.328-.7812 0-1.4948-.177-2.1406-.531-.6354-.354-1.1458-.838-1.5313-1.453-.375-.615-.5625-1.318-.5625-2.109 0-.771.1719-1.474.5157-2.11.3437-.635.8177-1.146 1.4218-1.531.6042-.396 1.2917-.594 2.0625-.594Zm-.0468 1.735c-.4896 0-.9011.151-1.2344.453-.3333.302-.5625.708-.6875 1.218h3.7812c-.0416-.562-.25-.979-.625-1.25-.375-.281-.7864-.421-1.2343-.421Zm7.5625-1.532v1.125c.2395-.323.5625-.625.9687-.906.4167-.281.8906-.422 1.4219-.422.8021 0 1.4739.271 2.0156.813.5417.541.8125 1.354.8125 2.437V215h-1.9844l-.0156-4.578c0-.531-.1302-.927-.3906-1.188-.25-.26-.599-.39-1.0469-.39-.3542 0-.6875.114-1 .344-.3021.229-.5625.5-.7812.812v5h-1.9844v-7.891h1.9844Zm10.125-2.297v2.297h2.1875v1.657h-2.1875v3.406c0 .354.0781.635.2343.844.1667.198.4115.296.7344.296.2813 0 .5208-.031.7188-.093.2083-.063.401-.151.5781-.266v1.578c-.1979.198-.4479.365-.75.5-.2917.136-.6615.203-1.1094.203-.7083 0-1.2864-.224-1.7344-.672-.4375-.458-.6562-1.083-.6562-1.874v-3.922h-1.4219v-1.016c.5-.177.9583-.51 1.375-1 .4271-.49.7656-1.135 1.0156-1.938h1.0157Zm12.0469-.515c.719 0 1.344.135 1.875.406.542.261.963.63 1.266 1.109.302.469.453 1.021.453 1.657 0 .521-.084 1-.25 1.437-.157.427-.386.854-.688 1.282-.302.416-.672.864-1.109 1.343-.427.479-.917 1.026-1.469 1.641h3.594V215h-6.828v-.875c1-1.083 1.838-1.995 2.515-2.734.688-.75 1.203-1.391 1.547-1.922.354-.542.531-1.021.531-1.438 0-.531-.177-.942-.531-1.234-.344-.302-.776-.453-1.297-.453-.479 0-.948.125-1.406.375-.458.25-.833.531-1.125.843v-2.218c.313-.271.729-.511 1.25-.719.521-.219 1.078-.328 1.672-.328Z" />
    <rect width="86" height="62" x="41" y="179" stroke="#1A4049" stroke-width="2" rx="7" />
    <path fill="#1A4049"
        d="M317.844 52.125v1.9531h-4.11V58h-2.172V47.5312h7.141v1.9532h-4.969v2.6406h4.11Zm6.75-2.2188c.771 0 1.432.1667 1.984.5.563.3334.99.7969 1.281 1.3907.302.5833.453 1.2604.453 2.0312v.8438h-5.718c.104.5312.364.9583.781 1.2812.417.3229.927.4844 1.531.4844.573 0 1.094-.1146 1.563-.3437.469-.2292.843-.4636 1.125-.7032l-.016 1.8438c-.25.2187-.625.4427-1.125.6718-.489.2188-1.031.3282-1.625.3282-.781 0-1.495-.1771-2.14-.5313-.636-.3541-1.146-.8385-1.532-1.4531-.375-.6146-.562-1.3177-.562-2.1094 0-.7708.172-1.4739.515-2.1094.344-.6354.818-1.1458 1.422-1.5312.604-.3958 1.292-.5938 2.063-.5938Zm-.047 1.7344c-.49 0-.901.1511-1.235.4532-.333.302-.562.7083-.687 1.2187h3.781c-.041-.5625-.25-.9792-.625-1.25-.375-.2813-.786-.4219-1.234-.4219Zm8.437-3.8281v2.2969h2.188v1.6562h-2.188v3.4063c0 .3541.078.6354.235.8437.166.1979.411.2969.734.2969.281 0 .521-.0313.719-.0937.208-.0626.401-.1511.578-.2657v1.5781c-.198.198-.448.3646-.75.5-.292.1355-.661.2032-1.109.2032-.709 0-1.287-.224-1.735-.6719-.437-.4583-.656-1.0833-.656-1.875v-3.9219h-1.422V50.75c.5-.1771.958-.5104 1.375-1 .427-.4896.766-1.1354 1.016-1.9375h1.015Zm7.813 2.0937c.583 0 1.062.0938 1.437.2813s.672.3698.891.5469v1.8281c-.271-.1979-.578-.3646-.922-.5-.333-.1354-.745-.2031-1.234-.2031-.396 0-.766.0989-1.11.2968-.333.198-.599.4636-.797.7969-.197.3334-.296.7136-.296 1.1407 0 .6458.208 1.177.625 1.5937.416.4167.942.625 1.578.625.489 0 .901-.0625 1.234-.1875.344-.1354.651-.3021.922-.5v1.8125c-.219.1875-.516.3698-.891.5469-.375.1666-.854.25-1.437.25-.802 0-1.516-.1875-2.141-.5625-.614-.3854-1.104-.8907-1.468-1.5157-.355-.6354-.532-1.3229-.532-2.0624 0-.5521.099-1.0782.297-1.5782.208-.5.5-.9427.875-1.3281.375-.3958.813-.7083 1.313-.9375.51-.2292 1.062-.3438 1.656-.3438Zm8.469 0c.802 0 1.474.2709 2.015.8126.542.5416.813 1.3541.813 2.4374V58h-1.985l-.015-4.5781c0-.5313-.13-.9271-.391-1.1875-.25-.2604-.599-.3906-1.047-.3906-.354 0-.687.1145-1 .3437-.302.2292-.562.5-.781.8125v5h-1.984V46.75h1.984v4.4844c.24-.3229.563-.625.969-.9063.416-.2812.89-.4219 1.422-.4219Zm-35.188 13.9063v2.2969h2.188v1.6562h-2.188v3.4063c0 .3541.078.6354.234.8437.167.1979.412.2969.735.2969.281 0 .521-.0313.719-.0937.208-.0626.401-.1511.578-.2657v1.5781c-.198.198-.448.3646-.75.5-.292.1355-.662.2032-1.11.2032-.708 0-1.286-.224-1.734-.6719-.438-.4583-.656-1.0833-.656-1.875v-3.9219h-1.422V66.75c.5-.1771.958-.5104 1.375-1 .427-.4896.765-1.1354 1.015-1.9375h1.016Zm7.891 2.0937c.771 0 1.474.1876 2.109.5626.636.3645 1.146.8645 1.531 1.5.396.625.594 1.3281.594 2.1093 0 .7813-.198 1.4844-.594 2.1094-.385.625-.895 1.125-1.531 1.5-.635.3646-1.338.5469-2.109.5469-.761 0-1.464-.1823-2.11-.5469-.635-.375-1.145-.875-1.531-1.5-.385-.625-.578-1.3281-.578-2.1094 0-.7812.193-1.4843.578-2.1093.386-.6355.896-1.1355 1.531-1.5.646-.375 1.349-.5626 2.11-.5626Zm0 1.9219c-.375 0-.724.0886-1.047.2657-.323.177-.583.4322-.781.7656-.188.3333-.282.7396-.282 1.2187 0 .4792.094.8854.282 1.2188.198.3333.458.5885.781.7656.323.1667.672.25 1.047.25.375 0 .724-.0833 1.047-.25.323-.1771.583-.4323.781-.7656.198-.3334.297-.7396.297-1.2188 0-.4791-.099-.8854-.297-1.2187-.198-.3334-.458-.5886-.781-.7656-.323-.1771-.672-.2657-1.047-.2657Zm9.234-1.9219c.427 0 .859.099 1.297.2969.438.1979.802.4636 1.094.7969v-.8906h1.984v7.6875c0 .8958-.198 1.651-.594 2.2656-.395.625-.922 1.099-1.578 1.4219-.656.3333-1.375.5-2.156.5-.698 0-1.271-.1042-1.719-.3125-.448-.2084-.864-.4479-1.25-.7188v-1.875c.24.1459.49.3021.75.4688.271.1666.573.3073.907.4219.343.1145.739.1718 1.187.1718.469 0 .891-.0885 1.266-.2656s.666-.4271.875-.75c.218-.3125.328-.6719.328-1.0781v-1.375c-.229.4271-.563.7969-1 1.1093-.438.3021-.948.4532-1.532.4532-.635 0-1.223-.1615-1.765-.4844-.531-.3229-.958-.7917-1.281-1.4062-.323-.6146-.485-1.3594-.485-2.2344s.162-1.625.485-2.25c.333-.625.776-1.1042 1.328-1.4375.562-.3438 1.182-.5157 1.859-.5157Zm.406 1.9532c-.416 0-.776.1094-1.078.3281-.291.2083-.521.4844-.687.8281-.167.3334-.25.6979-.25 1.0938 0 .5937.177 1.0989.531 1.5156.365.4062.844.6094 1.437.6094.355 0 .683-.0886.985-.2656.312-.1876.562-.448.75-.7813.198-.3437.297-.7552.297-1.2344v-1.125c-.282-.3021-.589-.5364-.922-.7031-.323-.1771-.677-.2656-1.063-.2656Zm9.532-1.9532c.427 0 .859.099 1.297.2969.437.1979.802.4636 1.093.7969v-.8906h1.985v7.6875c0 .8958-.198 1.651-.594 2.2656-.396.625-.922 1.099-1.578 1.4219-.656.3333-1.375.5-2.156.5-.698 0-1.271-.1042-1.719-.3125-.448-.2084-.865-.4479-1.25-.7188v-1.875c.239.1459.489.3021.75.4688.271.1666.573.3073.906.4219.344.1145.74.1718 1.187.1718.469 0 .891-.0885 1.266-.2656s.667-.4271.875-.75c.219-.3125.328-.6719.328-1.0781v-1.375c-.229.4271-.562.7969-1 1.1093-.437.3021-.948.4532-1.531.4532-.635 0-1.224-.1615-1.766-.4844-.531-.3229-.958-.7917-1.281-1.4062-.323-.6146-.484-1.3594-.484-2.2344s.161-1.625.484-2.25c.333-.625.776-1.1042 1.328-1.4375.563-.3438 1.183-.5157 1.86-.5157Zm.406 1.9532c-.417 0-.776.1094-1.078.3281-.292.2083-.521.4844-.688.8281-.166.3334-.25.6979-.25 1.0938 0 .5937.177 1.0989.531 1.5156.365.4062.844.6094 1.438.6094.354 0 .682-.0886.984-.2656.313-.1876.563-.448.75-.7813.198-.3437.297-.7552.297-1.2344v-1.125c-.281-.3021-.588-.5364-.922-.7031-.323-.1771-.677-.2656-1.062-.2656Zm8.391-5.1094V74h-1.985V62.75h1.985Zm5.874 3.1562c.771 0 1.433.1667 1.985.5.562.3334.989.7969 1.281 1.3907.302.5833.453 1.2604.453 2.0312v.8438h-5.719c.105.5312.365.9583.782 1.2812.416.3229.927.4844 1.531.4844.573 0 1.094-.1146 1.563-.3437.468-.2292.843-.4636 1.124-.7032l-.015 1.8438c-.25.2187-.625.4427-1.125.6718-.49.2188-1.031.3282-1.625.3282-.781 0-1.495-.1771-2.141-.5313-.635-.3541-1.146-.8385-1.531-1.4531-.375-.6146-.563-1.3177-.563-2.1094 0-.7708.172-1.4739.516-2.1094.344-.6354.818-1.1458 1.422-1.5312.604-.3958 1.292-.5938 2.062-.5938Zm-.046 1.7344c-.49 0-.901.1511-1.235.4532-.333.302-.562.7083-.687 1.2187h3.781c-.042-.5625-.25-.9792-.625-1.25-.375-.2813-.786-.4219-1.234-.4219Zm8.125-1.7344c.489 0 .942.073 1.359.2188.417.1458.74.3125.969.5v1.75c-.25-.1667-.558-.3281-.922-.4844-.354-.1562-.724-.2344-1.109-.2344-.376 0-.672.0834-.891.25-.219.1667-.328.3646-.328.5938 0 .1667.062.3229.187.4688.125.1354.365.2552.719.3593l.891.2969c1.198.3542 1.796 1.0469 1.796 2.0781 0 .4896-.14.9271-.421 1.3125-.271.375-.641.6719-1.11.8906-.458.2188-.969.3282-1.531.3282-.531 0-1.047-.0834-1.547-.25-.5-.1667-.88-.349-1.141-.5469v-1.7344c.198.1354.438.2657.719.3907.281.125.573.2291.875.3124.302.073.578.1094.828.1094.396 0 .698-.0677.907-.2031.218-.1458.328-.349.328-.6094 0-.1979-.089-.3541-.266-.4687-.177-.1146-.437-.2292-.781-.3438l-.969-.3437c-.604-.1979-1.021-.4792-1.25-.8438-.229-.3646-.344-.7969-.344-1.2969 0-.5.125-.9322.375-1.2968.261-.375.62-.6667 1.078-.875.459-.2188.985-.3282 1.579-.3282Z" />
    <path stroke="#1A4049" stroke-linecap="round" stroke-width="4"
        d="M312 87.0006s23.5-2.5006 24 22.0004C336 131.5 360 129 360 129" />
    <path fill="#1A4049"
        d="m358.633 136.664 8.421-6.89c.489-.4.489-1.148 0-1.548l-8.421-6.89c-.653-.534-1.633-.069-1.633.774v13.78c0 .843.98 1.308 1.633.774Z" />
    <rect width="86" height="62" x="211" y="41" fill="#fff" rx="11" />
    <path fill="#1A4049"
        d="M235.984 70.7812v1.7657h-4.625v2.5312h5.235V77h-7.406V66.5312h7.406v1.875h-5.235v2.375h4.625Zm10.578-5.0312V77h-1.984v-1.3281c-.229.4271-.562.7969-1 1.1093-.437.3021-.948.4532-1.531.4532-.636 0-1.224-.1615-1.766-.4844-.531-.3229-.958-.7917-1.281-1.4062-.323-.6146-.484-1.3594-.484-2.2344s.161-1.625.484-2.25c.333-.625.776-1.1042 1.328-1.4375.563-.3438 1.182-.5157 1.86-.5157.427 0 .859.099 1.296.2969.438.1979.802.4636 1.094.7969v-4.25h1.984Zm-3.968 5.1094c-.417 0-.776.1094-1.078.3281-.292.2083-.521.4844-.688.8281-.167.3334-.25.6979-.25 1.0938 0 .5937.177 1.0989.531 1.5156.365.4167.844.625 1.438.625.354 0 .682-.0938.984-.2812.313-.1876.563-.448.75-.7813.198-.3437.297-.7552.297-1.2344v-1.125c-.281-.3021-.588-.5364-.922-.7031-.323-.1771-.677-.2656-1.062-.2656Zm9.531-1.9532c.427 0 .859.099 1.297.2969.437.1979.802.4636 1.094.7969v-.8906h1.984v7.6875c0 .8958-.198 1.651-.594 2.2656-.396.625-.922 1.099-1.578 1.4219-.656.3333-1.375.5-2.156.5-.698 0-1.271-.1042-1.719-.3125-.448-.2084-.864-.4479-1.25-.7188v-1.875c.24.1459.49.3021.75.4688.271.1666.573.3073.906.4219.344.1145.74.1718 1.188.1718.469 0 .891-.0885 1.265-.2656.376-.1771.667-.4271.876-.75.218-.3125.328-.6719.328-1.0781v-1.375c-.23.4271-.563.7969-1 1.1093-.438.3021-.948.4532-1.532.4532-.635 0-1.224-.1615-1.765-.4844-.531-.3229-.959-.7917-1.281-1.4062-.323-.6146-.485-1.3594-.485-2.2344s.162-1.625.485-2.25c.333-.625.776-1.1042 1.328-1.4375.562-.3438 1.182-.5157 1.859-.5157Zm.406 1.9532c-.416 0-.776.1094-1.078.3281-.292.2083-.521.4844-.687.8281-.167.3334-.25.6979-.25 1.0938 0 .5937.177 1.0989.531 1.5156.364.4062.844.6094 1.437.6094.355 0 .683-.0886.985-.2656.312-.1876.562-.448.75-.7813.198-.3437.297-.7552.297-1.2344v-1.125c-.282-.3021-.589-.5364-.922-.7031-.323-.1771-.677-.2656-1.063-.2656Zm9.86-1.9532c.77 0 1.432.1667 1.984.5.563.3334.99.7969 1.281 1.3907.302.5833.453 1.2604.453 2.0312v.8438h-5.718c.104.5312.364.9583.781 1.2812.417.3229.927.4844 1.531.4844.573 0 1.094-.1146 1.563-.3437.468-.2292.843-.4636 1.125-.7032l-.016 1.8438c-.25.2187-.625.4427-1.125.6718-.49.2188-1.031.3282-1.625.3282-.781 0-1.495-.1771-2.141-.5313-.635-.3541-1.145-.8385-1.531-1.4531-.375-.6146-.562-1.3177-.562-2.1094 0-.7708.171-1.4739.515-2.1094.344-.6354.818-1.1458 1.422-1.5312.604-.3958 1.292-.5938 2.063-.5938Zm-.047 1.7344c-.49 0-.901.1511-1.235.4532-.333.302-.562.7083-.687 1.2187h3.781c-.042-.5625-.25-.9792-.625-1.25-.375-.2813-.786-.4219-1.234-.4219Zm16.937 4.4375V77h-6.453v-1.9219h2.141v-5.4687c-.313.2604-.651.4583-1.016.5937-.364.1354-.708.2396-1.031.3125v-2.1094c.521-.1562 1.026-.401 1.516-.7343.5-.3334.916-.7136 1.25-1.1407h1.437v8.5469h2.156Z" />
    <rect width="86" height="62" x="211" y="41" stroke="#1A4049" stroke-width="2" rx="11" />
    <path fill="#1A4049"
        d="M147.844 52.125v1.9531h-4.11V58h-2.172V47.5312h7.141v1.9532h-4.969v2.6406h4.11Zm6.75-2.2188c.771 0 1.432.1667 1.984.5.563.3334.99.7969 1.281 1.3907.302.5833.453 1.2604.453 2.0312v.8438h-5.718c.104.5312.364.9583.781 1.2812.417.3229.927.4844 1.531.4844.573 0 1.094-.1146 1.563-.3437.469-.2292.843-.4636 1.125-.7032l-.016 1.8438c-.25.2187-.625.4427-1.125.6718-.489.2188-1.031.3282-1.625.3282-.781 0-1.495-.1771-2.14-.5313-.636-.3541-1.146-.8385-1.532-1.4531-.375-.6146-.562-1.3177-.562-2.1094 0-.7708.172-1.4739.515-2.1094.344-.6354.818-1.1458 1.422-1.5312.604-.3958 1.292-.5938 2.063-.5938Zm-.047 1.7344c-.49 0-.901.1511-1.235.4532-.333.302-.562.7083-.687 1.2187h3.781c-.041-.5625-.25-.9792-.625-1.25-.375-.2813-.786-.4219-1.234-.4219Zm8.437-3.8281v2.2969h2.188v1.6562h-2.188v3.4063c0 .3541.078.6354.235.8437.166.1979.411.2969.734.2969.281 0 .521-.0313.719-.0937.208-.0626.401-.1511.578-.2657v1.5781c-.198.198-.448.3646-.75.5-.292.1355-.661.2032-1.109.2032-.709 0-1.287-.224-1.735-.6719-.437-.4583-.656-1.0833-.656-1.875v-3.9219h-1.422V50.75c.5-.1771.958-.5104 1.375-1 .427-.4896.766-1.1354 1.016-1.9375h1.015Zm7.813 2.0937c.583 0 1.062.0938 1.437.2813s.672.3698.891.5469v1.8281c-.271-.1979-.578-.3646-.922-.5-.333-.1354-.745-.2031-1.234-.2031-.396 0-.766.0989-1.11.2968-.333.198-.599.4636-.797.7969-.197.3334-.296.7136-.296 1.1407 0 .6458.208 1.177.625 1.5937.416.4167.942.625 1.578.625.489 0 .901-.0625 1.234-.1875.344-.1354.651-.3021.922-.5v1.8125c-.219.1875-.516.3698-.891.5469-.375.1666-.854.25-1.437.25-.802 0-1.516-.1875-2.141-.5625-.614-.3854-1.104-.8907-1.468-1.5157-.355-.6354-.532-1.3229-.532-2.0624 0-.5521.099-1.0782.297-1.5782.208-.5.5-.9427.875-1.3281.375-.3958.813-.7083 1.313-.9375.51-.2292 1.062-.3438 1.656-.3438Zm8.469 0c.802 0 1.474.2709 2.015.8126.542.5416.813 1.3541.813 2.4374V58h-1.985l-.015-4.5781c0-.5313-.13-.9271-.391-1.1875-.25-.2604-.599-.3906-1.047-.3906-.354 0-.687.1145-1 .3437-.302.2292-.562.5-.781.8125v5h-1.984V46.75h1.984v4.4844c.24-.3229.563-.625.969-.9063.416-.2812.89-.4219 1.422-.4219Zm-35.188 13.9063v2.2969h2.188v1.6562h-2.188v3.4063c0 .3541.078.6354.234.8437.167.1979.412.2969.735.2969.281 0 .521-.0313.719-.0937.208-.0626.401-.1511.578-.2657v1.5781c-.198.198-.448.3646-.75.5-.292.1355-.662.2032-1.11.2032-.708 0-1.286-.224-1.734-.6719-.438-.4583-.656-1.0833-.656-1.875v-3.9219h-1.422V66.75c.5-.1771.958-.5104 1.375-1 .427-.4896.765-1.1354 1.015-1.9375h1.016Zm7.891 2.0937c.771 0 1.474.1876 2.109.5626.636.3645 1.146.8645 1.531 1.5.396.625.594 1.3281.594 2.1093 0 .7813-.198 1.4844-.594 2.1094-.385.625-.895 1.125-1.531 1.5-.635.3646-1.338.5469-2.109.5469-.761 0-1.464-.1823-2.11-.5469-.635-.375-1.145-.875-1.531-1.5-.385-.625-.578-1.3281-.578-2.1094 0-.7812.193-1.4843.578-2.1093.386-.6355.896-1.1355 1.531-1.5.646-.375 1.349-.5626 2.11-.5626Zm0 1.9219c-.375 0-.724.0886-1.047.2657-.323.177-.583.4322-.781.7656-.188.3333-.282.7396-.282 1.2187 0 .4792.094.8854.282 1.2188.198.3333.458.5885.781.7656.323.1667.672.25 1.047.25.375 0 .724-.0833 1.047-.25.323-.1771.583-.4323.781-.7656.198-.3334.297-.7396.297-1.2188 0-.4791-.099-.8854-.297-1.2187-.198-.3334-.458-.5886-.781-.7656-.323-.1771-.672-.2657-1.047-.2657Zm9.234-1.9219c.427 0 .859.099 1.297.2969.438.1979.802.4636 1.094.7969v-.8906h1.984v7.6875c0 .8958-.198 1.651-.594 2.2656-.395.625-.922 1.099-1.578 1.4219-.656.3333-1.375.5-2.156.5-.698 0-1.271-.1042-1.719-.3125-.448-.2084-.864-.4479-1.25-.7188v-1.875c.24.1459.49.3021.75.4688.271.1666.573.3073.907.4219.343.1145.739.1718 1.187.1718.469 0 .891-.0885 1.266-.2656s.666-.4271.875-.75c.218-.3125.328-.6719.328-1.0781v-1.375c-.229.4271-.563.7969-1 1.1093-.438.3021-.948.4532-1.532.4532-.635 0-1.223-.1615-1.765-.4844-.531-.3229-.958-.7917-1.281-1.4062-.323-.6146-.485-1.3594-.485-2.2344s.162-1.625.485-2.25c.333-.625.776-1.1042 1.328-1.4375.562-.3438 1.182-.5157 1.859-.5157Zm.406 1.9532c-.416 0-.776.1094-1.078.3281-.291.2083-.521.4844-.687.8281-.167.3334-.25.6979-.25 1.0938 0 .5937.177 1.0989.531 1.5156.365.4062.844.6094 1.437.6094.355 0 .683-.0886.985-.2656.312-.1876.562-.448.75-.7813.198-.3437.297-.7552.297-1.2344v-1.125c-.282-.3021-.589-.5364-.922-.7031-.323-.1771-.677-.2656-1.063-.2656Zm9.532-1.9532c.427 0 .859.099 1.297.2969.437.1979.802.4636 1.093.7969v-.8906h1.985v7.6875c0 .8958-.198 1.651-.594 2.2656-.396.625-.922 1.099-1.578 1.4219-.656.3333-1.375.5-2.156.5-.698 0-1.271-.1042-1.719-.3125-.448-.2084-.865-.4479-1.25-.7188v-1.875c.239.1459.489.3021.75.4688.271.1666.573.3073.906.4219.344.1145.74.1718 1.187.1718.469 0 .891-.0885 1.266-.2656s.667-.4271.875-.75c.219-.3125.328-.6719.328-1.0781v-1.375c-.229.4271-.562.7969-1 1.1093-.437.3021-.948.4532-1.531.4532-.635 0-1.224-.1615-1.766-.4844-.531-.3229-.958-.7917-1.281-1.4062-.323-.6146-.484-1.3594-.484-2.2344s.161-1.625.484-2.25c.333-.625.776-1.1042 1.328-1.4375.563-.3438 1.183-.5157 1.86-.5157Zm.406 1.9532c-.417 0-.776.1094-1.078.3281-.292.2083-.521.4844-.688.8281-.166.3334-.25.6979-.25 1.0938 0 .5937.177 1.0989.531 1.5156.365.4062.844.6094 1.438.6094.354 0 .682-.0886.984-.2656.313-.1876.563-.448.75-.7813.198-.3437.297-.7552.297-1.2344v-1.125c-.281-.3021-.588-.5364-.922-.7031-.323-.1771-.677-.2656-1.062-.2656Zm8.391-5.1094V74h-1.985V62.75h1.985Zm5.874 3.1562c.771 0 1.433.1667 1.985.5.562.3334.989.7969 1.281 1.3907.302.5833.453 1.2604.453 2.0312v.8438h-5.719c.105.5312.365.9583.782 1.2812.416.3229.927.4844 1.531.4844.573 0 1.094-.1146 1.563-.3437.468-.2292.843-.4636 1.124-.7032l-.015 1.8438c-.25.2187-.625.4427-1.125.6718-.49.2188-1.031.3282-1.625.3282-.781 0-1.495-.1771-2.141-.5313-.635-.3541-1.146-.8385-1.531-1.4531-.375-.6146-.563-1.3177-.563-2.1094 0-.7708.172-1.4739.516-2.1094.344-.6354.818-1.1458 1.422-1.5312.604-.3958 1.292-.5938 2.062-.5938Zm-.046 1.7344c-.49 0-.901.1511-1.235.4532-.333.302-.562.7083-.687 1.2187h3.781c-.042-.5625-.25-.9792-.625-1.25-.375-.2813-.786-.4219-1.234-.4219Zm8.125-1.7344c.489 0 .942.073 1.359.2188.417.1458.74.3125.969.5v1.75c-.25-.1667-.558-.3281-.922-.4844-.354-.1562-.724-.2344-1.109-.2344-.376 0-.672.0834-.891.25-.219.1667-.328.3646-.328.5938 0 .1667.062.3229.187.4688.125.1354.365.2552.719.3593l.891.2969c1.198.3542 1.796 1.0469 1.796 2.0781 0 .4896-.14.9271-.421 1.3125-.271.375-.641.6719-1.11.8906-.458.2188-.969.3282-1.531.3282-.531 0-1.047-.0834-1.547-.25-.5-.1667-.88-.349-1.141-.5469v-1.7344c.198.1354.438.2657.719.3907.281.125.573.2291.875.3124.302.073.578.1094.828.1094.396 0 .698-.0677.907-.2031.218-.1458.328-.349.328-.6094 0-.1979-.089-.3541-.266-.4687-.177-.1146-.437-.2292-.781-.3438l-.969-.3437c-.604-.1979-1.021-.4792-1.25-.8438-.229-.3646-.344-.7969-.344-1.2969 0-.5.125-.9322.375-1.2968.261-.375.62-.6667 1.078-.875.459-.2188.985-.3282 1.579-.3282Zm-5.258 31.7575 8.421-6.8897c.489-.4001.489-1.1479 0-1.548l-8.421-6.8897c-.653-.5342-1.633-.0697-1.633.7739v13.7796c0 .8436.98 1.3081 1.633.7739Z" />
    <path stroke="#1A4049" stroke-linecap="round" stroke-width="4" d="M142 90h48" />
    <path fill="#1A4049"
        d="M60.8203 66.2969c.6563 0 1.224.0937 1.7031.2812.4792.1771.8959.4219 1.25.7344V69.5c-.25-.1875-.5104-.3698-.7812-.5469-.2708-.1771-.5781-.3229-.9219-.4375-.3333-.1146-.7292-.1718-1.1875-.1718-.625 0-1.1927.151-1.7031.4531-.5104.3021-.9167.7083-1.2188 1.2187-.302.5104-.4531 1.0938-.4531 1.75 0 .6459.1511 1.2292.4531 1.75.3021.5104.7084.9167 1.2188 1.2188.5104.2916 1.0781.4375 1.7031.4375.6979 0 1.2813-.1042 1.75-.3125.4792-.2188.9115-.4844 1.2969-.7969v2.1094c-.3542.3229-.7969.5833-1.3281.7812-.5313.1875-1.125.2813-1.7813.2813-.75 0-1.4583-.1302-2.125-.3906-.6667-.2709-1.2552-.6459-1.7656-1.125-.5104-.4896-.9115-1.0678-1.2031-1.7344-.2917-.6667-.4375-1.4063-.4375-2.2188 0-.8125.1458-1.5521.4375-2.2187.2916-.6667.6927-1.2396 1.2031-1.7188.5104-.4896 1.0989-.8646 1.7656-1.125.6667-.2708 1.375-.4062 2.125-.4062Zm7.0156-.5469V77h-1.9843V65.75h1.9843Zm4.0782-.75c.375 0 .6979.1354.9687.4062.2708.2605.4063.573.4063.9376 0 .3541-.1355.6666-.4063.9374-.2708.2709-.5937.4063-.9687.4063s-.698-.1354-.9688-.4063c-.2604-.2708-.3906-.5833-.3906-.9374 0-.3646.1302-.6771.3906-.9376.2708-.2708.5938-.4062.9688-.4062Zm1.1562 4.1094V77h-1.9844v-6.2031h-1.2656v-1.6875h3.25Zm5.9531-.2032c.7709 0 1.4323.1667 1.9844.5.5625.3334.9896.7969 1.2813 1.3907.302.5833.4531 1.2604.4531 2.0312v.8438h-5.7188c.1042.5312.3646.9583.7813 1.2812.4167.3229.9271.4844 1.5312.4844.573 0 1.0938-.1146 1.5625-.3437.4688-.2292.8438-.4636 1.125-.7032l-.0156 1.8438c-.25.2187-.625.4427-1.125.6718-.4896.2188-1.0312.3282-1.625.3282-.7812 0-1.4948-.1771-2.1406-.5313-.6354-.3541-1.1458-.8385-1.5313-1.4531-.375-.6146-.5625-1.3177-.5625-2.1094 0-.7708.1719-1.4739.5157-2.1094.3437-.6354.8177-1.1458 1.4218-1.5312.6042-.3958 1.2917-.5938 2.0625-.5938Zm-.0468 1.7344c-.4896 0-.9011.1511-1.2344.4532-.3333.302-.5625.7083-.6875 1.2187h3.7812c-.0416-.5625-.25-.9792-.625-1.25-.375-.2813-.7864-.4219-1.2343-.4219Zm7.5625-1.5312v1.125c.2395-.3229.5625-.625.9687-.9063.4167-.2812.8906-.4219 1.4219-.4219.8021 0 1.4739.2709 2.0156.8126.5417.5416.8125 1.3541.8125 2.4374V77h-1.9844l-.0156-4.5781c0-.5313-.1302-.9271-.3906-1.1875-.25-.2604-.599-.3906-1.0469-.3906-.3542 0-.6875.1145-1 .3437-.3021.2292-.5625.5-.7812.8125v5h-1.9844v-7.8906h1.9844Zm10.125-2.2969v2.2969h2.1875v1.6562h-2.1875v3.4063c0 .3541.0781.6354.2343.8437.1667.1979.4115.2969.7344.2969.2813 0 .5208-.0313.7188-.0937.2083-.0626.401-.1511.5781-.2657v1.5781c-.1979.198-.4479.3646-.75.5-.2917.1355-.6615.2032-1.1094.2032-.7083 0-1.2864-.224-1.7344-.6719-.4375-.4583-.6562-1.0833-.6562-1.875v-3.9219h-1.4219V69.75c.5-.1771.9583-.5104 1.375-1 .4271-.4896.7656-1.1354 1.0156-1.9375h1.0157Zm15.6559 8.2656V77h-6.453v-1.9219h2.141v-5.4687c-.313.2604-.651.4583-1.016.5937-.364.1354-.708.2396-1.031.3125v-2.1094c.521-.1562 1.026-.401 1.516-.7343.5-.3334.916-.7136 1.25-1.1407h1.437v8.5469h2.156Z" />
    <rect width="86" height="62" x="41" y="41" stroke="#1A4049" stroke-width="2" rx="7" />
</svg>
