<svg width="31" height="23" viewBox="0 0 31 23" fill="none" xmlns="http://www.w3.org/2000/svg">
<path d="M22.9097 0.477112C20.3097 0.477112 17.5097 1.01045 15.5763 2.47711C13.643 1.01045 10.843 0.477112 8.243 0.477112C6.30967 0.477112 4.25633 0.770445 2.53633 1.53045C1.563 1.97045 0.909668 2.91711 0.909668 3.99711V19.0371C0.909668 20.7704 2.53633 22.0504 4.21633 21.6238C5.523 21.2904 6.90967 21.1438 8.243 21.1438C10.323 21.1438 12.5363 21.4904 14.323 22.3704C15.123 22.7704 16.0297 22.7704 16.8163 22.3704C18.603 21.4771 20.8163 21.1438 22.8963 21.1438C24.2297 21.1438 25.6163 21.2904 26.923 21.6238C28.603 22.0638 30.2297 20.7838 30.2297 19.0371V3.99711C30.2297 2.91711 29.5763 1.97045 28.603 1.53045C26.8963 0.770445 24.843 0.477112 22.9097 0.477112ZM27.5763 17.4504C27.5763 18.2904 26.803 18.9038 25.9763 18.7571C24.9763 18.5704 23.9363 18.4904 22.9097 18.4904C20.643 18.4904 17.3763 19.3571 15.5763 20.4904V5.14378C17.3763 4.01045 20.643 3.14378 22.9097 3.14378C24.1363 3.14378 25.3497 3.26378 26.5097 3.51711C27.123 3.65045 27.5763 4.19711 27.5763 4.82378V17.4504Z" fill="#1A4049"/>
<path d="M18.2163 9.15714C17.7897 9.15714 17.403 8.89048 17.2697 8.46381C17.0963 7.94381 17.3897 7.37048 17.9097 7.21048C19.963 6.54381 22.6163 6.33048 25.0563 6.61048C25.603 6.67714 26.003 7.17048 25.9363 7.71714C25.8697 8.26381 25.3763 8.66381 24.8297 8.59714C22.6697 8.34381 20.3097 8.54381 18.523 9.11714C18.4163 9.13048 18.3097 9.15714 18.2163 9.15714Z" fill="#1A4049"/>
<path d="M18.2163 12.7038C17.7897 12.7038 17.403 12.4371 17.2697 12.0104C17.0963 11.4904 17.3897 10.9171 17.9097 10.7571C19.9497 10.0904 22.6163 9.87711 25.0563 10.1571C25.603 10.2238 26.003 10.7171 25.9363 11.2638C25.8697 11.8104 25.3763 12.2104 24.8297 12.1438C22.6697 11.8904 20.3097 12.0904 18.523 12.6638C18.4163 12.6904 18.3097 12.7038 18.2163 12.7038Z" fill="#1A4049"/>
<path d="M18.2163 16.2505C17.7897 16.2505 17.403 15.9838 17.2697 15.5571C17.0963 15.0371 17.3897 14.4638 17.9097 14.3038C19.9497 13.6371 22.6163 13.4238 25.0563 13.7038C25.603 13.7705 26.003 14.2638 25.9363 14.8105C25.8697 15.3571 25.3763 15.7438 24.8297 15.6905C22.6697 15.4371 20.3097 15.6371 18.523 16.2105C18.4163 16.2371 18.3097 16.2505 18.2163 16.2505Z" fill="#1A4049"/>
</svg>
