<svg width="33" height="33" viewBox="0 0 33 33" fill="none" xmlns="http://www.w3.org/2000/svg">
<path d="M15.2428 19.3704L12.3495 16.4771L15.2428 13.5838L13.3628 11.6904L8.57617 16.4771L13.3628 21.2638L15.2428 19.3704Z" fill="#1A4049"/>
<path d="M19.7897 21.2638L24.5763 16.4771L19.7897 11.6904L17.9097 13.5838L20.803 16.4771L17.9097 19.3704L19.7897 21.2638Z" fill="#1A4049"/>
<path d="M25.9095 4.47709H20.3362C19.7762 2.93042 18.3095 1.81042 16.5762 1.81042C14.8428 1.81042 13.3762 2.93042 12.8162 4.47709H7.24284C7.05617 4.47709 6.88284 4.49042 6.70951 4.53042C6.18951 4.63709 5.72284 4.90376 5.36284 5.26376C5.12284 5.50376 4.92284 5.79709 4.78951 6.11709C4.65617 6.42376 4.57617 6.77042 4.57617 7.14376V20.4771V21.8104V25.8104C4.57617 26.1704 4.65617 26.5304 4.78951 26.8504C4.92284 27.1704 5.12284 27.4504 5.36284 27.7038C5.72284 28.0638 6.18951 28.3304 6.70951 28.4371C6.88284 28.4638 7.05617 28.4771 7.24284 28.4771H25.9095C27.3762 28.4771 28.5762 27.2771 28.5762 25.8104V21.8104V20.4771V7.14376C28.5762 5.67709 27.3762 4.47709 25.9095 4.47709ZM16.5762 4.14376C17.1228 4.14376 17.5762 4.59709 17.5762 5.14376C17.5762 5.69042 17.1228 6.14376 16.5762 6.14376C16.0295 6.14376 15.5762 5.69042 15.5762 5.14376C15.5762 4.59709 16.0295 4.14376 16.5762 4.14376ZM25.9095 20.4771V21.8104V25.8104H7.24284V21.8104V20.4771V7.14376H25.9095V20.4771Z" fill="#1A4049"/>
</svg>
