<svg viewBox="0 0 33 33" fill="none" xmlns="http://www.w3.org/2000/svg">
<path d="M8.57633 17.8104C7.843 17.8104 7.243 18.4104 7.243 19.1438C7.243 19.8771 7.843 20.4771 8.57633 20.4771C9.30967 20.4771 9.90967 19.8771 9.90967 19.1438C9.90967 18.4104 9.30967 17.8104 8.57633 17.8104ZM8.57633 23.1438C7.843 23.1438 7.243 23.7438 7.243 24.4771C7.243 25.2104 7.843 25.8104 8.57633 25.8104C9.30967 25.8104 9.90967 25.2104 9.90967 24.4771C9.90967 23.7438 9.30967 23.1438 8.57633 23.1438ZM8.57633 12.4771C7.843 12.4771 7.243 13.0771 7.243 13.8104C7.243 14.5438 7.843 15.1438 8.57633 15.1438C9.30967 15.1438 9.90967 14.5438 9.90967 13.8104C9.90967 13.0771 9.30967 12.4771 8.57633 12.4771ZM4.57633 13.1438C4.203 13.1438 3.90967 13.4371 3.90967 13.8104C3.90967 14.1838 4.203 14.4771 4.57633 14.4771C4.94967 14.4771 5.243 14.1838 5.243 13.8104C5.243 13.4371 4.94967 13.1438 4.57633 13.1438ZM8.57633 7.14376C7.843 7.14376 7.243 7.74376 7.243 8.47709C7.243 9.21043 7.843 9.81042 8.57633 9.81042C9.30967 9.81042 9.90967 9.21043 9.90967 8.47709C9.90967 7.74376 9.30967 7.14376 8.57633 7.14376ZM28.5763 14.4771C28.9497 14.4771 29.243 14.1838 29.243 13.8104C29.243 13.4371 28.9497 13.1438 28.5763 13.1438C28.203 13.1438 27.9097 13.4371 27.9097 13.8104C27.9097 14.1838 28.203 14.4771 28.5763 14.4771ZM19.243 9.81042C19.9763 9.81042 20.5763 9.21043 20.5763 8.47709C20.5763 7.74376 19.9763 7.14376 19.243 7.14376C18.5097 7.14376 17.9097 7.74376 17.9097 8.47709C17.9097 9.21043 18.5097 9.81042 19.243 9.81042ZM19.243 5.14376C19.6163 5.14376 19.9097 4.85042 19.9097 4.47709C19.9097 4.10376 19.6163 3.81042 19.243 3.81042C18.8697 3.81042 18.5763 4.10376 18.5763 4.47709C18.5763 4.85042 18.8697 5.14376 19.243 5.14376ZM4.57633 18.4771C4.203 18.4771 3.90967 18.7704 3.90967 19.1438C3.90967 19.5171 4.203 19.8104 4.57633 19.8104C4.94967 19.8104 5.243 19.5171 5.243 19.1438C5.243 18.7704 4.94967 18.4771 4.57633 18.4771ZM13.9097 27.8104C13.5363 27.8104 13.243 28.1038 13.243 28.4771C13.243 28.8504 13.5363 29.1438 13.9097 29.1438C14.283 29.1438 14.5763 28.8504 14.5763 28.4771C14.5763 28.1038 14.283 27.8104 13.9097 27.8104ZM13.9097 5.14376C14.283 5.14376 14.5763 4.85042 14.5763 4.47709C14.5763 4.10376 14.283 3.81042 13.9097 3.81042C13.5363 3.81042 13.243 4.10376 13.243 4.47709C13.243 4.85042 13.5363 5.14376 13.9097 5.14376ZM13.9097 9.81042C14.643 9.81042 15.243 9.21043 15.243 8.47709C15.243 7.74376 14.643 7.14376 13.9097 7.14376C13.1763 7.14376 12.5763 7.74376 12.5763 8.47709C12.5763 9.21043 13.1763 9.81042 13.9097 9.81042ZM13.9097 17.1438C12.803 17.1438 11.9097 18.0371 11.9097 19.1438C11.9097 20.2504 12.803 21.1438 13.9097 21.1438C15.0163 21.1438 15.9097 20.2504 15.9097 19.1438C15.9097 18.0371 15.0163 17.1438 13.9097 17.1438ZM24.5763 17.8104C23.843 17.8104 23.243 18.4104 23.243 19.1438C23.243 19.8771 23.843 20.4771 24.5763 20.4771C25.3097 20.4771 25.9097 19.8771 25.9097 19.1438C25.9097 18.4104 25.3097 17.8104 24.5763 17.8104ZM24.5763 23.1438C23.843 23.1438 23.243 23.7438 23.243 24.4771C23.243 25.2104 23.843 25.8104 24.5763 25.8104C25.3097 25.8104 25.9097 25.2104 25.9097 24.4771C25.9097 23.7438 25.3097 23.1438 24.5763 23.1438ZM24.5763 12.4771C23.843 12.4771 23.243 13.0771 23.243 13.8104C23.243 14.5438 23.843 15.1438 24.5763 15.1438C25.3097 15.1438 25.9097 14.5438 25.9097 13.8104C25.9097 13.0771 25.3097 12.4771 24.5763 12.4771ZM24.5763 7.14376C23.843 7.14376 23.243 7.74376 23.243 8.47709C23.243 9.21043 23.843 9.81042 24.5763 9.81042C25.3097 9.81042 25.9097 9.21043 25.9097 8.47709C25.9097 7.74376 25.3097 7.14376 24.5763 7.14376ZM28.5763 18.4771C28.203 18.4771 27.9097 18.7704 27.9097 19.1438C27.9097 19.5171 28.203 19.8104 28.5763 19.8104C28.9497 19.8104 29.243 19.5171 29.243 19.1438C29.243 18.7704 28.9497 18.4771 28.5763 18.4771ZM19.243 23.1438C18.5097 23.1438 17.9097 23.7438 17.9097 24.4771C17.9097 25.2104 18.5097 25.8104 19.243 25.8104C19.9763 25.8104 20.5763 25.2104 20.5763 24.4771C20.5763 23.7438 19.9763 23.1438 19.243 23.1438ZM19.243 27.8104C18.8697 27.8104 18.5763 28.1038 18.5763 28.4771C18.5763 28.8504 18.8697 29.1438 19.243 29.1438C19.6163 29.1438 19.9097 28.8504 19.9097 28.4771C19.9097 28.1038 19.6163 27.8104 19.243 27.8104ZM13.9097 11.8104C12.803 11.8104 11.9097 12.7038 11.9097 13.8104C11.9097 14.9171 12.803 15.8104 13.9097 15.8104C15.0163 15.8104 15.9097 14.9171 15.9097 13.8104C15.9097 12.7038 15.0163 11.8104 13.9097 11.8104ZM13.9097 23.1438C13.1763 23.1438 12.5763 23.7438 12.5763 24.4771C12.5763 25.2104 13.1763 25.8104 13.9097 25.8104C14.643 25.8104 15.243 25.2104 15.243 24.4771C15.243 23.7438 14.643 23.1438 13.9097 23.1438ZM19.243 17.1438C18.1363 17.1438 17.243 18.0371 17.243 19.1438C17.243 20.2504 18.1363 21.1438 19.243 21.1438C20.3497 21.1438 21.243 20.2504 21.243 19.1438C21.243 18.0371 20.3497 17.1438 19.243 17.1438ZM19.243 11.8104C18.1363 11.8104 17.243 12.7038 17.243 13.8104C17.243 14.9171 18.1363 15.8104 19.243 15.8104C20.3497 15.8104 21.243 14.9171 21.243 13.8104C21.243 12.7038 20.3497 11.8104 19.243 11.8104Z" fill="#1A4049"/>
</svg>
