<svg width="33" height="33" viewBox="0 0 33 33" fill="none" xmlns="http://www.w3.org/2000/svg">
<path d="M27.9628 7.45045L26.1095 5.21045C25.7495 4.75711 25.2028 4.47711 24.5762 4.47711H8.57617C7.94951 4.47711 7.40284 4.75711 7.02951 5.21045L5.18951 7.45045C4.80284 7.90378 4.57617 8.50378 4.57617 9.14378V25.8104C4.57617 27.2771 5.77617 28.4771 7.24284 28.4771H25.9095C27.3762 28.4771 28.5762 27.2771 28.5762 25.8104V9.14378C28.5762 8.50378 28.3495 7.90378 27.9628 7.45045ZM8.89617 7.14378H24.2562L25.3628 8.47711H7.80284L8.89617 7.14378ZM7.24284 25.8104V11.1438H25.9095V25.8104H7.24284Z" />
<path d="M15.2428 21.1571L12.3495 18.2638L15.2428 15.3704L13.3628 13.4771L8.57617 18.2638L13.3628 23.0504L15.2428 21.1571Z" />
<path d="M19.7892 23.0504L24.5758 18.2638L19.7892 13.4771L17.9092 15.3704L20.8025 18.2638L17.9092 21.1571L19.7892 23.0504Z" />
</svg>
