<svg width="33" height="33" viewBox="0 0 33 33" fill="none" xmlns="http://www.w3.org/2000/svg">
<g clip-path="url(#clip0_5330_8450)">
<path d="M23.9097 6.47711C21.3097 6.47711 18.5097 7.01045 16.5763 8.47711C14.643 7.01045 11.843 6.47711 9.243 6.47711C7.30967 6.47711 5.25633 6.77045 3.53633 7.53045C2.563 7.97045 1.90967 8.91711 1.90967 9.99711V25.0371C1.90967 26.7704 3.53633 28.0504 5.21633 27.6238C6.523 27.2904 7.90967 27.1438 9.243 27.1438C11.323 27.1438 13.5363 27.4904 15.323 28.3704C16.123 28.7704 17.0297 28.7704 17.8163 28.3704C19.603 27.4771 21.8163 27.1438 23.8963 27.1438C25.2297 27.1438 26.6163 27.2904 27.923 27.6238C29.603 28.0638 31.2297 26.7838 31.2297 25.0371V9.99711C31.2297 8.91711 30.5763 7.97045 29.603 7.53045C27.8963 6.77045 25.843 6.47711 23.9097 6.47711ZM28.5763 23.4504C28.5763 24.2904 27.803 24.9038 26.9763 24.7571C25.9763 24.5704 24.9363 24.4904 23.9097 24.4904C21.643 24.4904 18.3763 25.3571 16.5763 26.4904V11.1438C18.3763 10.0104 21.643 9.14378 23.9097 9.14378C25.1363 9.14378 26.3497 9.26378 27.5097 9.51711C28.123 9.65045 28.5763 10.1971 28.5763 10.8238V23.4504Z" />
<path d="M19.2163 15.1571C18.7897 15.1571 18.403 14.8905 18.2697 14.4638C18.0963 13.9438 18.3897 13.3705 18.9097 13.2105C20.963 12.5438 23.6163 12.3305 26.0563 12.6105C26.603 12.6771 27.003 13.1705 26.9363 13.7171C26.8697 14.2638 26.3763 14.6638 25.8297 14.5971C23.6697 14.3438 21.3097 14.5438 19.523 15.1171C19.4163 15.1305 19.3097 15.1571 19.2163 15.1571Z" />
<path d="M19.2163 18.7038C18.7897 18.7038 18.403 18.4371 18.2697 18.0104C18.0963 17.4904 18.3897 16.9171 18.9097 16.7571C20.9497 16.0904 23.6163 15.8771 26.0563 16.1571C26.603 16.2238 27.003 16.7171 26.9363 17.2638C26.8697 17.8104 26.3763 18.2104 25.8297 18.1438C23.6697 17.8904 21.3097 18.0904 19.523 18.6638C19.4163 18.6904 19.3097 18.7038 19.2163 18.7038Z" />
<path d="M19.2163 22.2505C18.7897 22.2505 18.403 21.9838 18.2697 21.5571C18.0963 21.0371 18.3897 20.4638 18.9097 20.3038C20.9497 19.6371 23.6163 19.4238 26.0563 19.7038C26.603 19.7705 27.003 20.2638 26.9363 20.8105C26.8697 21.3571 26.3763 21.7438 25.8297 21.6905C23.6697 21.4371 21.3097 21.6371 19.523 22.2105C19.4163 22.2371 19.3097 22.2505 19.2163 22.2505Z" />
</g>
<defs>
<clipPath id="clip0_5330_8450">
<rect width="32" height="32" fill="white" transform="translate(0.576172 0.477112)"/>
</clipPath>
</defs>
</svg>
